<svg xmlns="http://www.w3.org/2000/svg" width="194.135" height="150.536" viewBox="0 0 194.135 150.536">
  <path fill="#ef5388" d="M18.059 22.249s2.535-5.959 6.889-3.68c3.514 1.84 3.509-3.777 5.845-2.862 3.3 1.295 4.327-3.795 5.689-2.862 1.791 1.227 2.17 5.241 4.54 4.495 2.157-.679 2.36-6.026 4.175-3.064 2.923 4.77 4.767-1.84 6.889 3.064 1.592 3.678 6.68 2.047 7.933 4.909Z" data-name="Path 13061"/>
  <path fill="#ef5388" d="M131.97 47.347s2.535-5.959 6.889-3.68c3.514 1.84 3.509-3.777 5.845-2.862 3.3 1.3 4.327-3.8 5.689-2.862 1.791 1.227 2.17 5.241 4.54 4.495 2.157-.679 2.36-6.026 4.175-3.064 2.923 4.77 4.766-1.84 6.889 3.064 1.592 3.678 6.68 2.047 7.933 4.909Z" data-name="Path 13062"/>
  <g data-name="Group 3632">
    <path fill="#ef5388" d="M190.149 141.044a5.1 5.1 0 0 1-1.73 1.6h-22.561a9 9 0 0 1-2.535-1.44 2.78 2.78 0 0 1-1.491-2.241 2.134 2.134 0 0 1 2.386-2.034 3.1 3.1 0 0 0 1.258.174c.691-.174.909-1.08.733-1.772a20 20 0 0 1-.7-2.006 2.35 2.35 0 0 1 2.459-2.55 4.2 4.2 0 0 1 2.738 2.144c.359.534.82 1.148 1.46 1.116a1.29 1.29 0 0 0 1.054-.954 5 5 0 0 0 .125-1.5 9.4 9.4 0 0 1 1.024-4.135 3.68 3.68 0 0 1 2.412-2.155 2.86 2.86 0 0 1 2.9 1.769 5.5 5.5 0 0 1 .121 3.581c-.219.87-.516 1.886.048 2.58a1.5 1.5 0 0 0 .472.383 2.02 2.02 0 0 0 2.229-.25c.278-.242.484-.557.764-.792a2.044 2.044 0 0 1 2.527.051 2.48 2.48 0 0 1 .75 2.483c-.128.5-.4.962-.562 1.457a1.67 1.67 0 0 0 .109 1.5c.789 1.07 2.7.02 3.757.832a1.735 1.735 0 0 1 .253 2.159" data-name="Path 13063"/>
    <g data-name="Group 3631">
      <path fill="#c4436f" d="M177.357 127.054a5.5 5.5 0 0 1 .122 3.581c-.219.87-.516 1.886.048 2.579a1.5 1.5 0 0 0 .472.383 2.02 2.02 0 0 0 2.089-.146 1.4 1.4 0 0 1-.246-.237c-.564-.694-.266-1.71-.048-2.579a5.5 5.5 0 0 0-.122-3.581 2.86 2.86 0 0 0-2.9-1.769 2.4 2.4 0 0 0-.785.284 3.2 3.2 0 0 1 1.37 1.485" data-name="Path 13064"/>
      <path fill="#f0863c" d="M163.159 137.099a.9.9 0 0 0 .291-.135 2 2 0 0 0-.412.155 1 1 0 0 0 .121-.02" data-name="Path 13065"/>
      <path fill="#c4436f" d="M168.39 132.915c.358.534.82 1.148 1.46 1.117a1.26 1.26 0 0 0 1.023-.874 8 8 0 0 1-.168-.243 4.22 4.22 0 0 0-2.738-2.144 2.1 2.1 0 0 0-1.331.33 5.8 5.8 0 0 1 1.754 1.814" data-name="Path 13066"/>
      <path fill="#c4436f" d="M189.887 138.877c-1.054-.812-2.968.239-3.757-.832a1.67 1.67 0 0 1-.109-1.5c.159-.5.434-.952.562-1.457a2.48 2.48 0 0 0-.75-2.483 2.05 2.05 0 0 0-2.455-.1q.072.05.14.1a2.48 2.48 0 0 1 .75 2.483c-.128.5-.4.962-.562 1.457a1.67 1.67 0 0 0 .109 1.5c.789 1.07 2.7.02 3.757.832a1.736 1.736 0 0 1 .258 2.167 5.1 5.1 0 0 1-1.73 1.6h2.315a5.1 5.1 0 0 0 1.73-1.6 1.736 1.736 0 0 0-.258-2.167" data-name="Path 13067"/>
    </g>
    <path fill="#ffceab" d="M179.226 133.802a2.13 2.13 0 0 1-.916 1.46c-.529.355-1.269.488-1.6 1.085a.07.07 0 0 1-.036.033c-.156.638-.312 1.276-.447 1.915a13.8 13.8 0 0 0-.329 4.35h-.161a10 10 0 0 1-.061-1.222 14 14 0 0 1 .186-2.052.067.067 0 0 1-.069-.059 1.8 1.8 0 0 0-.559-.886c-.288-.3-.577-.592-.866-.888a2.9 2.9 0 0 1-1.031-1.912.082.082 0 0 1 .163 0 2.97 2.97 0 0 0 1.118 1.933c.278.286.564.567.837.86a2 2 0 0 1 .452.686c.266-1.534.708-3.043 1.031-4.566a16.6 16.6 0 0 0 .388-2.986l-.02-.012a2.27 2.27 0 0 1-.932-1.69c.008-.1.171-.1.163 0a1.97 1.97 0 0 0 .791 1.483 8.05 8.05 0 0 0-.653-3.4c-.043-.094.1-.178.142-.082a7.4 7.4 0 0 1 .51 1.634 2.55 2.55 0 0 0 .554-1.213c.018-.1.174-.059.158.043a2.7 2.7 0 0 1-.674 1.376 9.7 9.7 0 0 1 .128 1.72 20.5 20.5 0 0 1-.725 4.59 5.2 5.2 0 0 1 1.306-.786 2 2 0 0 0 1-1.458c.012-.108.172-.063.152.044" data-name="Path 13068"/>
    <path fill="#ffceab" d="M172.168 142.641h-.164a10 10 0 0 0-.011-1.087c0-.09-.013-.181-.021-.271a.06.06 0 0 1-.066.033 4.35 4.35 0 0 1-2.871-1.519c-.067-.079.048-.2.115-.115a4.18 4.18 0 0 0 2.756 1.47.08.08 0 0 1 .056.031 7.5 7.5 0 0 0-.554-2.219 9.3 9.3 0 0 0-1.047-1.781.1.1 0 0 1-.043 0c-.89-.258-2.05.13-2.751-.646-.069-.079.046-.194.115-.115a1.7 1.7 0 0 0 1.161.47 10 10 0 0 1 1.376.1 1 1 0 0 1-.072-.1c-.5-.654-1.042-1.274-1.559-1.915-.253-.317-.5-.64-.733-.973a4.2 4.2 0 0 1-.589-1.13c-.031-.1.127-.143.158-.043a4.6 4.6 0 0 0 .714 1.289c.186.258.381.506.578.753a1.95 1.95 0 0 0 .16-1.8c-.041-.1.1-.179.141-.082a2.13 2.13 0 0 1-.191 2.024q.088.111.179.222a19 19 0 0 1 2.32 3.178c.13-.348.4-.628.556-.968a2.23 2.23 0 0 0-.141-1.628c-.034-.1.123-.143.158-.044a2.46 2.46 0 0 1 .167 1.649c-.159.429-.541.753-.633 1.208a7 7 0 0 1 .283.669 8.9 8.9 0 0 1 .453 3.345Z" data-name="Path 13069"/>
    <path fill="#ffceab" d="M168.27 142.64h-.168a3.3 3.3 0 0 0-.551-1.274c-.054-.074-.115-.141-.176-.21a.1.1 0 0 1-.044 0c-.3-.071-.571.166-.84.261a1.1 1.1 0 0 1-.827-.054c-.1-.044-.011-.186.082-.14a.95.95 0 0 0 .839-.023 1.6 1.6 0 0 1 .633-.217 5 5 0 0 0-.768-.625c-.452-.3-.939-.554-1.414-.819a8 8 0 0 1-.7-.424.8.8 0 0 1-.373-.485c-.022-.1.136-.146.156-.043.057.276.345.424.566.557.278.168.564.322.848.478l.066.036a2 2 0 0 0-.107-.99c-.036-.1.122-.141.158-.044a2.15 2.15 0 0 1 .1 1.088.1.1 0 0 1-.013.027 5.3 5.3 0 0 1 2.136 1.813 3.5 3.5 0 0 1 .397 1.088" data-name="Path 13070"/>
    <path fill="#ffceab" d="M185.516 135.334c-.061.229-.3.334-.5.413a2.4 2.4 0 0 1-.765.151h-.01q-.131.164-.27.321a16 16 0 0 0-1.385 1.677 11 11 0 0 0-1.486 3.227c.534-.273 1.128-.406 1.67-.666a1.75 1.75 0 0 0 1.113-1.314c.01-.1.173-.1.164 0a1.84 1.84 0 0 1-1.067 1.391c-.621.329-1.328.454-1.938.8a11 11 0 0 0-.251 1.3h-.166a11 11 0 0 1 .995-3.37q-.002-.007-.007-.013c-.217-.781-.791-1.6-.386-2.425.046-.094.187-.011.141.082-.349.705.123 1.462.354 2.142a11 11 0 0 1 .8-1.355q.277-.398.589-.771a3.4 3.4 0 0 1-.237-1.945c.018-.1.176-.059.158.043a3.2 3.2 0 0 0 .2 1.764c.217-.253.445-.5.666-.748a3.26 3.26 0 0 0 .96-1.937c0-.1.168-.1.163 0a2.93 2.93 0 0 1-.656 1.619 2.3 2.3 0 0 0 .539-.115c.158-.058.4-.138.45-.321a.085.085 0 1 1 .162.05" data-name="Path 13071"/>
    <path fill="#ffceab" d="M188.766 140.462a4.2 4.2 0 0 0-1.146.271.08.08 0 0 1-.069.03q-.108.043-.216.091a4.4 4.4 0 0 0-.888.564 4 4 0 0 1 1.448.4c.094.048.011.188-.082.141a3.8 3.8 0 0 0-1.495-.388.1.1 0 0 1-.038-.011 4.2 4.2 0 0 0-.858 1.069.02.02 0 0 1-.006.013h-.183a4 4 0 0 1 .25-.423 4.4 4.4 0 0 1 .9-.962 4.6 4.6 0 0 1 1.095-.641 3.3 3.3 0 0 1 .2-1.047c.036-.1.194-.054.158.044a3.2 3.2 0 0 0-.191.94 4.4 4.4 0 0 1 1.121-.253c.1-.004.1.153 0 .162" data-name="Path 13072"/>
  </g>
  <g data-name="Group 3634">
    <path fill="#ef5388" d="M36.674 139.001c-1.068.545-2.278.776-3.326 1.353s-2 1.327-1.772 2.505h-5.979l-2.47.007h-2.453c.013-2.161-1.814-3.888-3.7-4.942a3.1 3.1 0 0 1-1.512-1.3 2.7 2.7 0 0 1 .607-2.4 24 24 0 0 1 1.843-2.418 2.11 2.11 0 0 1 1.639-.948 1.98 1.98 0 0 1 1.292.967 10.8 10.8 0 0 1 1.817 4.251c.094.49.292 1.116.788 1.123.406.007.665-.435.75-.831.321-1.509-.542-2.976-1.058-4.43a18 18 0 0 1-.74-3.151 4.55 4.55 0 0 1-.055-1.824c.37-1.538 2.116-2.281 3.673-2.554a7.6 7.6 0 0 1 4.287.266 3.76 3.76 0 0 1 2.4 3.326c-.023 1.324-.918 2.44-1.587 3.586a11.76 11.76 0 0 0-1.6 5.41 1.2 1.2 0 0 0 .1.649c.305.549 1.168.347 1.616-.091a4.95 4.95 0 0 0 1.133-2.281 6.9 6.9 0 0 1 .974-2.369 2.08 2.08 0 0 1 2.252-.834 2.6 2.6 0 0 1 .87.62 9.8 9.8 0 0 1 1.687 2.236 3.4 3.4 0 0 1 .458 1.291 3.12 3.12 0 0 1-1.934 2.783" data-name="Path 13073"/>
    <g fill="#c4436f" data-name="Group 3633">
      <path d="M18.791 131.836a10.8 10.8 0 0 1 1.817 4.251c.094.49.292 1.116.788 1.123.406.007.665-.435.75-.831a6.67 6.67 0 0 0-.81-3.782q-.23-.391-.492-.761a1.98 1.98 0 0 0-1.292-.967 1.57 1.57 0 0 0-1.171.472 4 4 0 0 1 .41.5Z" data-name="Path 13074"/>
      <path d="M28.254 124.688a3.76 3.76 0 0 1 2.4 3.326c-.023 1.324-.918 2.44-1.587 3.586a11.76 11.76 0 0 0-1.6 5.41 1.2 1.2 0 0 0 .1.649c.3.549 1.168.347 1.616-.091a3 3 0 0 0 .333-.4v-.162a11.76 11.76 0 0 1 1.6-5.41c.668-1.146 1.564-2.262 1.587-3.586a3.76 3.76 0 0 0-2.4-3.326 6.9 6.9 0 0 0-3.488-.383 5.5 5.5 0 0 1 1.439.387" data-name="Path 13075"/>
      <path d="M38.618 136.231a3.4 3.4 0 0 0-.457-1.291 9.8 9.8 0 0 0-1.685-2.237 2.6 2.6 0 0 0-.87-.62 1.82 1.82 0 0 0-1.611.247 4 4 0 0 1 .427.372 9.8 9.8 0 0 1 1.687 2.236 3.4 3.4 0 0 1 .457 1.291A3.12 3.12 0 0 1 34.622 139c-1.068.545-2.278.776-3.326 1.353s-2 1.327-1.772 2.505h-5.979l-2.469.007h2.053l2.469-.007h5.978c-.224-1.178.72-1.924 1.772-2.505s2.258-.808 3.326-1.353a3.12 3.12 0 0 0 1.943-2.769Z" data-name="Path 13076"/>
    </g>
    <path fill="#ffceab" d="M22.216 142.877h-.321a10 10 0 0 0-.191-1.467 11 11 0 0 0-.487-1.665.3.3 0 0 1-.084.006 3 3 0 0 1-1.447-.688.162.162 0 0 1 .227-.23 2.7 2.7 0 0 0 1.168.571 10.73 10.73 0 0 0-3.268-4.3c-.166-.127.068-.357.23-.231a11 11 0 0 1 1.139 1.035 5.4 5.4 0 0 0 .081-1.642.163.163 0 0 1 .162-.162.17.17 0 0 1 .162.162 5.6 5.6 0 0 1-.136 1.937l.179.2a11.1 11.1 0 0 1 2.586 6.474" data-name="Path 13077"/>
    <path fill="#ffceab" d="M28.377 135.708a10.4 10.4 0 0 1-2.632 3.05 26 26 0 0 0 .179 4.277h-.325q-.1-.759-.149-1.519a26 26 0 0 1-.029-2.713.19.19 0 0 1 .01-.191 26 26 0 0 1 .9-5.7.14.14 0 0 1-.068-.065 12 12 0 0 1-1.321-4.365c-.023-.208.3-.208.325 0a11.5 11.5 0 0 0 1.176 4.012 26 26 0 0 1 1.415-3.758c.091-.191.37-.026.282.162a25 25 0 0 0-1.315 3.442 25.7 25.7 0 0 0-1.055 5.99 10 10 0 0 0 2.327-2.784.163.163 0 0 1 .28.162" data-name="Path 13078"/>
    <path fill="#ffceab" d="M36.158 137.129a3.9 3.9 0 0 1-2.323.487 28.6 28.6 0 0 0-3.453 2.674 6.4 6.4 0 0 0-1.37 2.573h-.341q.112-.404.263-.8a7 7 0 0 1 .493-1.019.15.15 0 0 1-.042-.1.8.8 0 0 0-.13-.334 2 2 0 0 1-.146-.383 1.8 1.8 0 0 1-.006-.831c.045-.2.36-.117.315.084a1.45 1.45 0 0 0 .026.737c.052.169.146.318.208.48a6 6 0 0 1 .545-.694 11.8 11.8 0 0 1 1.944-1.567c.48-.331.987-.672 1.457-1.048a.15.15 0 0 1 .126-.1 5.03 5.03 0 0 0 1.707-2.307c.062-.2.376-.114.312.088a5.04 5.04 0 0 1-1.455 2.154q-.05.048-.1.091a3.6 3.6 0 0 0 1.808-.464.163.163 0 0 1 .162.279" data-name="Path 13079"/>
  </g>
  <g data-name="Group 3640" transform="translate(54.404 5.398)">
    <rect width="77.481" height="129.062" fill="#fff" data-name="Rectangle 744" rx="6" transform="translate(1.693 8.163)"/>
    <g data-name="Group 3635">
      <path fill="#ef5388" d="M72.954-.004H7.986A7.984 7.984 0 0 0 0 7.981v121.85a7.97 7.97 0 0 0 2.755 6.033l.17.144a7.94 7.94 0 0 0 5.061 1.808h64.968a7.993 7.993 0 0 0 7.99-7.985V7.985a7.99 7.99 0 0 0-7.991-7.989Zm6.3 126.723a8.636 8.636 0 0 1-8.868 8.385H10.56a8.637 8.637 0 0 1-8.868-8.385V15.89a5.37 5.37 0 0 1 5.516-5.214h66.528a5.37 5.37 0 0 1 5.515 5.214Z" data-name="Path 13080"/>
    </g>
    <g data-name="Group 3639">
      <g data-name="Group 3636">
        <path fill="#fff" d="M12.876 5.594a2.57 2.57 0 1 1-2.57-2.57 2.57 2.57 0 0 1 2.57 2.57" data-name="Path 13081"/>
      </g>
      <g data-name="Group 3637">
        <path fill="#ef5388" d="M12.045 5.594a1.739 1.739 0 1 1-1.738-1.739 1.74 1.74 0 0 1 1.738 1.739" data-name="Path 13082"/>
      </g>
      <g data-name="Group 3638">
        <path fill="#fff" d="M18.136 5.594a1.739 1.739 0 1 1-1.739-1.739 1.74 1.74 0 0 1 1.739 1.739" data-name="Path 13083"/>
      </g>
    </g>
  </g>
  <g data-name="Group 3641">
    <path fill="#ef5388" d="M95.038 33.844a23.992 23.992 0 1 0 23.992 23.992 23.99 23.99 0 0 0-23.992-23.992M72.697 57.836a22.331 22.331 0 0 1 35.235-18.235L80.823 75.064a22.3 22.3 0 0 1-8.126-17.228m22.341 22.341a22.2 22.2 0 0 1-12.9-4.114l27.11-35.46a22.333 22.333 0 0 1-14.2 39.573Z" data-name="Path 13084"/>
  </g>
  <path fill="#ef5388" d="M111.197 101.911H77.633a.646.646 0 0 1-.646-.646.646.646 0 0 1 .646-.646h33.564a.646.646 0 0 1 .646.646.646.646 0 0 1-.646.646" data-name="Path 13085"/>
  <path fill="#ef5388" d="M117.959 108.154H70.871a.646.646 0 0 1-.646-.646.646.646 0 0 1 .646-.646h47.088a.646.646 0 0 1 .646.646.646.646 0 0 1-.646.646" data-name="Path 13086"/>
  <g data-name="Group 3679">
    <g data-name="Group 3649">
      <g data-name="Group 3646">
        <g data-name="Group 3643">
          <g data-name="Group 3642">
            <path fill="#ffceab" d="M53.617 91.801c-.96 13.722-2.362 26.355-2.246 38.021.023 2.29-.386 4.581-.449 6.728 0 0-2.523-.173-2.8-.148-.284-2.174-.7-4.452-.947-6.671-1.122-10.378-1.747-21.269-1.994-32.535Z" data-name="Path 13087"/>
          </g>
        </g>
        <g data-name="Group 3645">
          <g data-name="Group 3644">
            <path fill="#23263d" d="M53.595 89.472c4.926 6.6-3.352 21.4-1.759 40.519l-5.058-.08c-1.122-10.379-1.355-21.448-1.6-32.715Z" data-name="Path 13088"/>
          </g>
        </g>
      </g>
      <g data-name="Group 3648">
        <g data-name="Group 3647">
          <path fill="#23263d" d="m50.981 136.086.857 2.358-.265 3.748-.735.074-.842-3.225-1.078 2.227a2.03 2.03 0 0 1-1.4 1.221c-1.728.316-5.125.552-5.325-.583-.206-1.166 3.087-1.388 3.982-2.727.867-1.3 1.9-2.99 1.9-2.99Z" data-name="Path 13089"/>
        </g>
      </g>
    </g>
    <g data-name="Group 3654">
      <g data-name="Group 3651">
        <g data-name="Group 3650">
          <path fill="#ffceab" d="M46.477 83.019c18.279 14.266-6.056 22.733-5.137 27.079s6.74 10.284 7.349 11.257c.344 1.143.788 3.4-.57 3.083a5.9 5.9 0 0 0-2.793-1.474s1.2.172-.4-.091-9.279-7.452-9.663-10.042c-1.063-7.166 5.629-12.743 7.854-17.956s1.552-7.564 3.36-11.856" data-name="Path 13090"/>
        </g>
      </g>
      <g data-name="Group 3652">
        <path fill="#393d5c" d="M46.413 83.005a11.385 11.385 0 0 1 7.091 11.415c-.438 7.86-11.752 13.215-11.025 16.578.155.715 3.635 6.819 5.324 8.41a26 26 0 0 1-2.591 3.891c-2.677-1.534-10.167-7.152-10.729-10.1-1.382-7.28 9.545-23.152 11.93-30.194" data-name="Path 13091"/>
      </g>
      <g data-name="Group 3653">
        <path fill="#393d5c" d="M48.669 121.259a19 19 0 0 1 1.93-.145c.917.04 2.519.308 3.565.4.038.254.029.494.049.742-1.083.228-2.174.445-3.25.681.664.332 1.514.873 2.14 1.168a2.22 2.22 0 0 1 1.15 1.447c.241 1.266.634 4.891-.81 5.157s-1.558-3.215-2.533-3.938-1.927-1.491-2.87-2.237c.204-1.095.42-2.18.629-3.275" data-name="Path 13092"/>
      </g>
    </g>
    <g data-name="Group 3657">
      <g data-name="Group 3656">
        <g data-name="Group 3655">
          <path fill="#ffceab" d="m46.7 64.463-.2 1.22c.185-.437 4.2-2.042.012 8.1-.782 1.9-3.368 6.215-4.85 6.149-3.615-.161-10.069-8.138-10.069-8.138a5.8 5.8 0 0 1-2.408-5.013c.7-3.744 1.6 1.345 3.372 1.649.392.071.667-1.629 1.255-1 .442.475-.116 2.7-.116 2.7s6.915 4.946 7.069 4.928c.263-.248 3.1-8.887 5.083-10.2a2.7 2.7 0 0 1 .852-.395" data-name="Path 13093"/>
        </g>
      </g>
    </g>
    <g data-name="Group 3659">
      <g data-name="Group 3658">
        <path fill="#ef5388" d="m46.504 65.683 1.467 7.582s-2.09 4.287-2.357 5.15a14.16 14.16 0 0 1-4.845-4.343c1.294-2.287 4.082-9.547 6.069-10.864Z" data-name="Path 13094"/>
      </g>
    </g>
    <g data-name="Group 3672">
      <g data-name="Group 3660">
        <path fill="#393d5c" d="M42.81 58.808a4.04 4.04 0 0 1-1.088-4.374c.843-2.406 4.833-3.29 6.371-2.34a4.775 4.775 0 0 1 .277 7.857Z" data-name="Path 13095"/>
      </g>
      <g data-name="Group 3665">
        <g data-name="Group 3662">
          <g data-name="Group 3661">
            <path fill="#ffceab" d="M54.8 66.583c1.239 4.367.871 6.961.92 10.776.152 2.945-1.927 7.646-3.367 11.123-2.642-.486-6.088-.6-8.732-1.087 0 0 6.731-7.746 5.058-11.523-3.058-7.137-1.841-12.664-1.841-12.664-.219-.425-1.018-1.99-1.25-2.443l2.316-1.365c.545.647 1.747 2.065 2.3 2.722a42.5 42.5 0 0 0 4.6 4.461Z" data-name="Path 13096"/>
          </g>
        </g>
        <g data-name="Group 3664">
          <g data-name="Group 3663">
            <path fill="#c4436f" d="M54.476 86.225c-.673 2.552.346 3.547-.2 3.739-3.207 1.134-8.579-.323-10.868-1.092-1.952-.656 2.637-6.508 1.52-12.751-1.751-9.792 1.906-12.914 1.906-12.914.242 2.442 1.531 1.553 3.368-1.085 7.725 1.889 7.967 12.598 4.274 24.103" data-name="Path 13097"/>
          </g>
        </g>
      </g>
      <g data-name="Group 3667">
        <g data-name="Group 3666">
          <path fill="#e6e6e6" d="M48.855 60.531a7 7 0 0 1-2.351 2.037l-.921-1.8 2.317-1.365Z" data-name="Path 13098"/>
        </g>
      </g>
      <g data-name="Group 3669">
        <g data-name="Group 3668">
          <path fill="#ffceab" d="M48.545 57.106s.913-1.194.244-1.863c-.762-.762-1.78 1.108-1.78 1.108-1.416.469-2.567.147-4.144-.73a.493.493 0 0 0-.724.523c.327 1.7 1.113 4.936 2.45 5.55a2.45 2.45 0 0 0 2.171-.135c1.478-.737 1.79-4.298 1.783-4.453" data-name="Path 13099"/>
        </g>
      </g>
      <g data-name="Group 3670">
        <path fill="#393d5c" d="M47.347 51.811s.576-2.584 2.633-1.558a1.79 1.79 0 0 1-.413 3.448c-1.417.152-2.22-1.89-2.22-1.89" data-name="Path 13100"/>
      </g>
      <g data-name="Group 3671">
        <path fill="#393d5c" d="M42.81 58.807s-.064-2.3-.223-3.293c0 0 .446 1.611 2.9 2a2.43 2.43 0 0 1 2 2.208 4.95 4.95 0 0 0-.479-3.374l-.856-1.412a9 9 0 0 1-1.321-.413c-.014-.081-2.529-.1-2.529-.1l-.56 1.373Z" data-name="Path 13101"/>
      </g>
    </g>
    <g data-name="Group 3674">
      <g data-name="Group 3673">
        <path fill="#ffceab" d="M51.506 85.315c-1.227 1.674-7.117 7.1-8.67 8.73a.77.77 0 0 0-.208.655c.08.505-.146.831-1.22 2.112-1.133 1.338.362 4.984-1.886 2.825-1.684-1.618-.7-4.031.567-6.374l7.2-11.356a67 67 0 0 0 .9-9.553c.037-1.189 3.218-4.923 5.874-.82 1.409 2.17-1.472 12.302-2.557 13.781" data-name="Path 13102"/>
      </g>
    </g>
    <g data-name="Group 3676">
      <g data-name="Group 3675">
        <path fill="#ef5388" d="M54.405 78.22a17.5 17.5 0 0 1-7.026-.893s-1.078-13.822 4.42-12.25c3.795 1.086 3.708 8.381 2.606 13.143" data-name="Path 13103"/>
      </g>
    </g>
    <g data-name="Group 3678">
      <g data-name="Group 3677">
        <path fill="#393d5c" d="m28.338 62.738 1.003-.61 4.255 6.993-1.003.61z" data-name="Rectangle 745"/>
      </g>
    </g>
  </g>
  <path fill="#ef5388" d="M31.148 29.427a10.224 10.224 0 0 1 8.711 15.576l2.274 5.4-6.452-1.589a10.224 10.224 0 1 1-4.532-19.388Z" data-name="Path 13104"/>
  <path fill="#fff" d="m31.527 42.647-3.062-.844.084-.306a3.9 3.9 0 0 1 .527-1.22 2.9 2.9 0 0 1 .773-.745 17 17 0 0 1 1.966-.984q.8-.352.922-.8a.93.93 0 0 0-.072-.761 1.17 1.17 0 0 0-.726-.465 1.32 1.32 0 0 0-1.051.118 2.3 2.3 0 0 0-.844 1.19l-3.02-1.249a4.42 4.42 0 0 1 2.018-2.431 4.84 4.84 0 0 1 3.638-.128 5.14 5.14 0 0 1 2.634 1.515 3.16 3.16 0 0 1 .738 3.047 2.64 2.64 0 0 1-.743 1.217 6.8 6.8 0 0 1-1.976 1.129 4.3 4.3 0 0 0-1.313.752 2.2 2.2 0 0 0-.493.965m-3.391-.059 3.28.9-.8 2.893-3.28-.9Z" data-name="Path 13105"/>
  <g data-name="Group 3681">
    <path fill="#ef5388" d="M171.046 8.961a10.229 10.229 0 1 0 5.179 13.678 10.343 10.343 0 0 0-5.179-13.678m-7.948 17.122a8.551 8.551 0 1 1 11.528-4.073 8.647 8.647 0 0 1-11.53 4.072Z" data-name="Path 13106"/>
    <g data-name="Group 3680">
      <path fill="#ef5388" d="m169.147 16.626-6.159-3.743 1.351 7.061 6.248 3.746-1.438-7.062Z" data-name="Path 13107"/>
      <path fill="#fff" d="M167.748 17.468a1.223 1.223 0 1 1-1.7-.3 1.223 1.223 0 0 1 1.7.3" data-name="Path 13108"/>
    </g>
  </g>
  <g data-name="Group 3682">
    <path fill="#ef5388" d="M168.545 89.687c-1.252-2.745-3.039-5.232-4.16-8.033-2.073-5.18-1.713-10.975-2.674-16.471s-4.031-11.4-9.481-12.59c-4.039-.885-8.285 1.2-11.007 4.309s-4.185 7.111-5.393 11.066c-.857 2.807-1.7 5.794-3.845 7.8-1.437 1.347-3.331 2.12-4.8 3.432a10.67 10.67 0 0 0-3.186 8.461 20.5 20.5 0 0 0 2.857 8.812 22.5 22.5 0 0 1 2.416 5.029c.643 2.441.2 5.027.423 7.542a14.21 14.21 0 0 0 17.791 12.479c7.018 4.017 19.167-1.672 19.647-10.1.43-7.553 4.55-14.856 1.412-21.736" data-name="Path 13109"/>
    <path fill="#ef5388" d="M168.545 89.687c-1.252-2.745-3.039-5.232-4.16-8.034-2.073-5.18-1.713-10.975-2.674-16.471s-4.031-11.4-9.481-12.59c-4.039-.885-8.285 1.2-11.008 4.309q-.473.543-.9 1.12a23 23 0 0 0 1.23 4.362c1.121 2.8 2.907 5.288 4.16 8.034 3.138 6.88-.982 14.183-1.411 21.732-.379 6.664-8.047 11.613-14.711 11.413.127 1.811-.058 3.665.1 5.483a14.21 14.21 0 0 0 17.8 12.478c7.018 4.017 19.167-1.672 19.647-10.1.425-7.553 4.546-14.856 1.408-21.736" data-name="Path 13110"/>
    <path fill="#ef5388" d="M168.545 89.687c-1.252-2.745-3.039-5.232-4.16-8.034-2.073-5.18-1.713-10.975-2.674-16.471s-4.031-11.4-9.481-12.59a9 9 0 0 0-1.421-.19 23 23 0 0 1 .636 2.685c.961 5.5.6 11.291 2.674 16.471 1.121 2.8 2.907 5.288 4.159 8.034 3.139 6.88-.982 14.183-1.411 21.733-.479 8.432-12.628 14.12-19.647 10.1a14.3 14.3 0 0 1-7.089.023 14.19 14.19 0 0 0 17.354 10.073c7.018 4.017 19.167-1.672 19.647-10.1.431-7.551 4.551-14.854 1.413-21.734" data-name="Path 13111"/>
    <path fill="#004057" d="M154.753 80.935c-2.29 2.2-4.471 4.516-6.573 6.9V74.649a.5.5 0 0 0-1 0v14.363a.5.5 0 0 0 0 .292v15.376l-7.718-10.559c-.377-.516-1.248-.016-.866.507l8.351 11.431a.5.5 0 0 0 .23.171v36.17a.5.5 0 0 0 1 0V89.329q3.467-4 7.283-7.684c.468-.449-.242-1.158-.707-.71" data-name="Path 13112"/>
  </g>
  <g data-name="Group 3683" transform="translate(0 142.624)">
    <rect width="182.095" height=".518" fill="#282d47" data-name="Rectangle 746" rx=".259" transform="translate(12.04)"/>
    <rect width="8.892" height=".518" fill="#30334d" data-name="Rectangle 747" rx=".259"/>
    <rect width="8.892" height=".518" fill="#30334d" data-name="Rectangle 748" rx=".259" transform="translate(157.041 7.395)"/>
    <rect width="35.292" height=".518" fill="#30334d" data-name="Rectangle 749" rx=".259" transform="translate(115.811 7.395)"/>
  </g>
  <path fill="#ef5388" d="M174.525 68.625a.468.468 0 0 1-.268.694l-1.568.457a.468.468 0 0 1-.586-.561l.388-1.587a.468.468 0 0 1 .778-.227l1.18 1.13a.5.5 0 0 1 .076.094m-2.052.753.016.02a.1.1 0 0 0 .1.024l1.568-.457a.1.1 0 0 0 .041-.167l-1.18-1.129a.1.1 0 0 0-.165.048l-.388 1.587a.1.1 0 0 0 0 .075Z" data-name="Path 13113"/>
  <path fill="#ef5388" d="M11.328 46.476a.47.47 0 0 1-.268.694l-1.568.457a.468.468 0 0 1-.586-.56l.388-1.587a.468.468 0 0 1 .778-.227l1.18 1.129a.5.5 0 0 1 .076.094m-2.052.754a.1.1 0 0 0 .116.044l1.568-.457a.1.1 0 0 0 .041-.167l-1.18-1.129a.1.1 0 0 0-.165.048l-.388 1.587a.1.1 0 0 0 .007.077Z" data-name="Path 13114"/>
  <path fill="#ef5388" d="m150.127 23.931.577-.577a.335.335 0 0 0-.474-.474l-.577.577-.577-.577a.335.335 0 0 0-.474.474l.577.577-.576.576a.335.335 0 0 0 .474.474l.576-.576.576.576a.335.335 0 0 0 .474-.474Z" data-name="Path 13115"/>
  <path fill="#ef5388" d="m49.871 5.393.577-.577a.335.335 0 1 0-.474-.474l-.577.577-.577-.577a.335.335 0 0 0-.474.474l.577.577-.576.576a.335.335 0 1 0 .474.474l.576-.576.576.576a.335.335 0 0 0 .474-.474Z" data-name="Path 13116"/>
  <path fill="#ef5388" d="M185.512 41.237a1.318 1.318 0 1 1 1.318-1.318 1.32 1.32 0 0 1-1.318 1.318m0-2.223a.9.9 0 1 0 .905.9.9.9 0 0 0-.905-.9" data-name="Path 13117"/>
  <path fill="#ef5388" d="M22.217 98.949a1.318 1.318 0 1 1 1.317-1.317 1.32 1.32 0 0 1-1.317 1.317m0-2.223a.905.905 0 1 0 .9.905.905.905 0 0 0-.9-.905" data-name="Path 13118"/>
  <path fill="#ef5388" d="m142.009 20.563-11.6-20.09a.948.948 0 0 0-1.641 0l-11.6 20.089a.948.948 0 0 0 .821 1.421h23.2a.948.948 0 0 0 .82-1.42" data-name="Path 13119"/>
  <path fill="#fff" d="M140.192 19.898 130.079 2.383a.562.562 0 0 0-.974 0l-10.112 17.515a.562.562 0 0 0 .487.843h20.225a.562.562 0 0 0 .487-.843" data-name="Path 13120"/>
  <path fill="#dde4f0" d="M140.192 19.898 130.08 2.383a.562.562 0 0 0-.974 0l-.054.094 9.723 16.841a.562.562 0 0 1-.487.843h-19.369a.56.56 0 0 0 .562.58h20.225a.562.562 0 0 0 .486-.843" data-name="Path 13121"/>
  <path fill="#dde4f0" d="M129.593 16.261a1.016 1.016 0 0 1-1.007-.925l-.638-7.55a1.01 1.01 0 0 1 1.007-1.1h1.275a1.01 1.01 0 0 1 1.007 1.1l-.638 7.55a1.017 1.017 0 0 1-1.006.925" data-name="Path 13122"/>
  <path fill="#ef5388" d="M130.23 7.017h-1.276a.683.683 0 0 0-.681.741l.638 7.55a.683.683 0 0 0 1.362 0l.638-7.55a.683.683 0 0 0-.681-.741" data-name="Path 13123"/>
  <path fill="#dde4f0" d="M129.592 18.919a1.143 1.143 0 1 1 1.144-1.145 1.143 1.143 0 0 1-1.144 1.145" data-name="Path 13124"/>
  <path fill="#ef5388" d="M128.776 17.775a.816.816 0 1 1 .816.816.816.816 0 0 1-.816-.816" data-name="Path 13125"/>
</svg>
