<svg xmlns="http://www.w3.org/2000/svg" width="44.277" height="47.943" viewBox="0 0 44.277 47.943"><path d="M20.907 43.074h-2.463a2.48 2.48 0 0 0-2.119 1.2H6.129a3.655 3.655 0 0 1-3.666-3.666 1.21 1.21 0 0 0-1.2-1.2A1.26 1.26 0 0 0 0 40.611a6.136 6.136 0 0 0 6.129 6.129h10.2a2.36 2.36 0 0 0 2.119 1.2h2.463a2.435 2.435 0 1 0 0-4.869Z"/><path d="M41.814 28.983h-.344V18.73a18.7 18.7 0 1 0-37.4 0v10.253h-.4a2.445 2.445 0 0 0-2.47 2.463v3.666a2.445 2.445 0 0 0 2.463 2.463h1.2v1.2a2.445 2.445 0 0 0 2.463 2.463h4.926a2.445 2.445 0 0 0 2.463-2.463v-11a2.445 2.445 0 0 0-2.463-2.463H8.936V18.73a13.805 13.805 0 0 1 27.609 0v6.587h-3.323a2.445 2.445 0 0 0-2.463 2.463v11.055a2.445 2.445 0 0 0 2.463 2.465h4.926a2.445 2.445 0 0 0 2.463-2.463v-1.2h1.2a2.445 2.445 0 0 0 2.463-2.463V31.5a2.46 2.46 0 0 0-2.46-2.517"/></svg>