<svg xmlns="http://www.w3.org/2000/svg" width="23.568" height="23.989" viewBox="0 0 23.568 23.989"><path d="M15.333 23.989a2.64 2.64 0 0 1-1.936-.865q-2.04-2.092-4.077-4.186a1 1 0 0 1-.09-.114l-.055-.074-.084-.109-2.386 2.45-.636.656c-.444.459-.9.933-1.361 1.394a2.8 2.8 0 0 1-2 .847 2.7 2.7 0 0 1-2.349-1.351 2.8 2.8 0 0 1-.357-1.435V3.716A3.65 3.65 0 0 1 3.172.033a.5.5 0 0 0 .1-.031h11.573l.169.037c.128.028.26.056.386.09a3.65 3.65 0 0 1 2.719 3.453.83.83 0 0 1-.77.912h-.056a.807.807 0 0 1-.817-.8 2 2 0 0 0-1.194-1.847 2.05 2.05 0 0 0-.824-.182 2062 2062 0 0 0-6.273-.009H3.668a2 2 0 0 0-2 1.889c-.008.12-.009.239-.009.339v17.175a1.9 1.9 0 0 0 .059.573 1.03 1.03 0 0 0 1 .7 1.1 1.1 0 0 0 .784-.324c.431-.433.863-.879 1.281-1.31l.537-.554.965-.992 2.121-2.178a.94.94 0 0 1 .656-.323.93.93 0 0 1 .662.327c1.641 1.683 3.246 3.329 4.833 4.968a1.12 1.12 0 0 0 .817.388 1.2 1.2 0 0 0 .326-.049 1.02 1.02 0 0 0 .768-.994.83.83 0 0 1 .523-.787.8.8 0 0 1 .316-.065.8.8 0 0 1 .569.239.85.85 0 0 1 .247.61 2.67 2.67 0 0 1-2.05 2.608 3.2 3.2 0 0 1-.74.093"/><path d="M17.298 18.644a6.28 6.28 0 0 1-6.267-6.267 6.22 6.22 0 0 1 1.837-4.432 6.23 6.23 0 0 1 4.431-1.84h.009a6.28 6.28 0 0 1 6.26 6.266 6.276 6.276 0 0 1-6.254 6.272Zm0-10.884a4.58 4.58 0 0 0-3.264 1.356 4.58 4.58 0 0 0-1.349 3.263 4.624 4.624 0 0 0 4.616 4.609h.009a4.625 4.625 0 0 0 4.6-4.608 4.58 4.58 0 0 0-1.348-3.263 4.58 4.58 0 0 0-3.265-1.358Z"/><path d="M17.282 15.094a.72.72 0 0 1-.626-.326 1.5 1.5 0 0 1-.177-.592 4 4 0 0 1-.016-.535v-.255a.2.2 0 0 0-.023-.082c0-.008-.008-.017-.014-.03l-.03-.074h-.914a.833.833 0 0 1-.9-.827.83.83 0 0 1 .9-.828h1v-.453c0-.24-.007-.468.007-.694a.785.785 0 0 1 .59-.712 1 1 0 0 1 .243-.035.72.72 0 0 1 .626.326 1.4 1.4 0 0 1 .177.59 4 4 0 0 1 .012.577v.4h1.01a.83.83 0 0 1 .879.825.83.83 0 0 1-.875.829h-1.023v.452c0 .24.007.468-.007.694a.78.78 0 0 1-.591.712 1 1 0 0 1-.248.038"/></svg>