<svg xmlns="http://www.w3.org/2000/svg" width="24.305" height="24" viewBox="0 0 24.305 24"><path fill="#bf9101" d="M10.223 0v.048c5.492 0 10.594 2.913 12.536 7.895a11.67 11.67 0 0 1-4.962 14.04 10.8 10.8 0 0 1-4.094 1.653 1.84 1.84 0 0 0 .921-.1 13.3 13.3 0 0 0 2.405-.8 12.27 12.27 0 0 0 6.836-7.713 11.84 11.84 0 0 0-6.887-13.945A16.2 16.2 0 0 0 10.223 0"/><path fill="#d9a509" d="M21.639 18.208h-.05a10.7 10.7 0 0 1-3.244 3.548 11.63 11.63 0 0 1-7.1 2.182C4.226 23.623-1.074 16.722.3 9.684A11.9 11.9 0 0 1 2 5.494 11.66 11.66 0 0 1 11.952.1a11.04 11.04 0 0 1 5.172 1.412c.681.377 1.275.869 1.928 1.286-.239-.483-1.009-.851-1.458-1.115A11.54 11.54 0 0 0 12.609.095 11.9 11.9 0 0 0 .01 11.467c-.3 6.97 5.658 13.166 12.552 12.482a11.84 11.84 0 0 0 7.429-3.476 6 6 0 0 0 1.648-2.265"/><path fill="#e9c34f" d="M11.104.12a12.58 12.58 0 0 0-7.345 3.215 12 12 0 0 0-2.476 3.41 12.074 12.074 0 0 0 7.688 16.836 11.5 11.5 0 0 0 4.36.245A11.94 11.94 0 0 0 14.137.349 9.4 9.4 0 0 0 11.104.12"/><path fill="#d7a301" d="M11.046 1.838a10.66 10.66 0 0 0-5.817 2.4 10.2 10.2 0 0 0-2.208 2.833 10.58 10.58 0 0 0 2.208 12.723 10.05 10.05 0 0 0 7.731 2.362 9.94 9.94 0 0 0 4.244-1.546A10.557 10.557 0 0 0 19.63 5.649a10.2 10.2 0 0 0-4.947-3.4 8.75 8.75 0 0 0-3.637-.411"/><path fill="#e9c34f" d="M11.396 2.239a10.46 10.46 0 0 0-5.276 2.05 9.956 9.956 0 0 0-.2 15.35 9.48 9.48 0 0 0 11.288.692 9.1 9.1 0 0 0 2.363-2.183 10.106 10.106 0 0 0-1.8-14 9.7 9.7 0 0 0-3.025-1.532 8.4 8.4 0 0 0-3.35-.377"/><path fill="#d9a505" d="M21.636 6.446a31 31 0 0 1 1.439 2.95 9.04 9.04 0 0 1-.331 6.16c-.292.712-.808 1.34-1.108 2.039a4.8 4.8 0 0 0 1.211-2.082 9.3 9.3 0 0 0 .085-6.767 5.16 5.16 0 0 0-1.296-2.3"/><path fill="#bf8f01" d="M11.725 6.963a8.6 8.6 0 0 0 1.171 2.093 16 16 0 0 0 1.285 2.152c.071-.365-.268-.758-.45-1.061-.453-.751-.869-1.522-1.321-2.274-.172-.288-.345-.805-.685-.91"/><path fill="#d7a301" d="m11.759 6.881-1.4 2.881-.576 1.263-.088-.1c-.268.17-.736-.112-1.008-.2a10.2 10.2 0 0 0-2.541-.757v.143c.34.222.5.971.668 1.364l1.4 3.234c.145.335.318 1.045.587 1.262.164.132.525.052.717.052.616 0 1.225-.051 1.84-.051.844 0 1.694.051 2.541.051.273 0 .742.1.991-.03.31-.168.557-1.138.707-1.486.437-1.008.845-2.031 1.293-3.032a6.7 6.7 0 0 0 .646-1.567c-.155.023-.415.054-.438.253a2.6 2.6 0 0 0-1.271.3c-.65.229-1.316.4-1.972.608a8.4 8.4 0 0 0-.74-1.524 14 14 0 0 0-1.356-2.664"/><path fill="#bf8f01" d="M5.474 9.802c.192.3.822.364 1.155.459a25 25 0 0 0 3.144.8c-.2-.258-.815-.324-1.126-.411a15.3 15.3 0 0 0-3.173-.848"/><path fill="#bf9101" d="M18.392 9.761c-.72 1.493-1.49 2.968-2.239 4.447-.214.423-.5 1.41-.9 1.666s-1.5.052-1.976.052h-5.22v.051c1.794 0 3.582.051 5.374.051h1.382c.168 0 .436.049.582-.052.411-.283.692-1.275.915-1.717.745-1.471 1.6-2.93 2.239-4.447Z"/><path fill="#dfb123" d="M5.642 10.011a50 50 0 0 0 3.02 5.913h.051a9.7 9.7 0 0 0-.755-1.567l-1.484-2.931c-.184-.366-.426-1.278-.832-1.415"/><path fill="#e3b735" d="M10.445 15.75v.051h1.433Z"/><path fill="#d9ad25" d="M8.391 15.846v.051h3.685l-1.177-.051Z"/></svg>