<svg xmlns="http://www.w3.org/2000/svg" width="23.998" height="24.002" viewBox="0 0 23.998 24.002"><path d="M23.95 10.76a11 11 0 0 0-1.276-4.3A12.15 12.15 0 0 0 15.131.384a12.8 12.8 0 0 0-4.41-.332 11 11 0 0 0-4.3 1.276A12.14 12.14 0 0 0 .35 8.871 11 11 0 0 0 0 10.986v.188c.031.025.025.063.025.094v.1c-.006.044.013.094-.025.138v.138a.37.37 0 0 1 0 .281v.188a.37.37 0 0 1 0 .281v.138c.038.038.019.088.025.138v.113a.1.1 0 0 1-.025.079v.188c.05.219.031.444.063.669a11.6 11.6 0 0 0 1.132 3.665 12.05 12.05 0 0 0 3.052 3.859 11.9 11.9 0 0 0 5.21 2.559 15 15 0 0 0 1.495.2h.188a.13.13 0 0 1 .094-.025h.25a.09.09 0 0 1 .075.025h.841a.1.1 0 0 1 .075-.025h.175c.044 0 .088-.013.125.025h.138c.244-.044.494-.025.738-.056a11.6 11.6 0 0 0 3.59-1.082 12.22 12.22 0 0 0 6.318-7.531 12.7 12.7 0 0 0 .391-4.573M12.916 21.919c.006-.307 0-.607 0-.913s.006-.594 0-.888a.935.935 0 1 0-1.87.013q-.009.9 0 1.8c0 .144-.044.163-.169.144a10.135 10.135 0 0 1-8.644-7.387 12 12 0 0 1-.3-1.557c-.025-.163.031-.175.169-.175q.854.009 1.708 0a.937.937 0 0 0 1.013-.932.947.947 0 0 0-1.023-.945c-.569 0-1.138-.006-1.708.006-.156 0-.175-.05-.156-.188A10.04 10.04 0 0 1 7.925 2.76a9.7 9.7 0 0 1 2.965-.8c.15-.019.163.031.163.156-.006.544 0 1.095 0 1.639a.945.945 0 1 0 1.876-.013c0-.538.006-1.076 0-1.614 0-.131.013-.188.175-.169a10.16 10.16 0 0 1 8.851 8.3c.031.169.05.338.069.507.038.307.038.307-.281.307h-1.59a.94.94 0 1 0 .006 1.876c.575 0 1.157.006 1.733-.006.156 0 .175.044.156.188a10.02 10.02 0 0 1-7.243 8.588 10 10 0 0 1-1.714.35c-.162.025-.181-.031-.175-.15"/><path d="M13.117 16.008a.336.336 0 0 0-.25.382.939.939 0 1 1-1.867.162c-.006-.163.069-.369-.031-.475s-.3-.088-.457-.138a15 15 0 0 1-.844-.281.935.935 0 1 1 .651-1.751 6.5 6.5 0 0 0 1.72.413.75.75 0 0 0 .45-.081.583.583 0 0 0 .025-1.045 1.33 1.33 0 0 0-.675-.156 2.93 2.93 0 0 1-2.15-.936A2.448 2.448 0 0 1 10.7 8.19a.434.434 0 0 0 .35-.519.91.91 0 0 1 .844-.944.95.95 0 0 1 1.02.9c.012.181-.081.413.038.538s.325.119.5.175.369.125.544.2a.91.91 0 0 1 .557.782.943.943 0 0 1-1.282.932 5.4 5.4 0 0 0-1.557-.375.67.67 0 0 0-.663.306.536.536 0 0 0 .188.788 1.76 1.76 0 0 0 .851.2 2.69 2.69 0 0 1 2.159 1.129 2.46 2.46 0 0 1-1.132 3.706"/></svg>