<svg xmlns="http://www.w3.org/2000/svg" width="201" height="150" fill="none" viewBox="0 0 201 150">
    <path fill="#45536d1a" d="M3.297 61.336a13.35 13.35 0 0 0 13.319 13.319h60.2a12.786 12.786 0 0 1 0 25.572H33.13a8.526 8.526 0 0 0-8.524 8.524 8.52 8.52 0 0 0 8.524 8.524h42.62a8.526 8.526 0 0 1 8.524 8.524 8.52 8.52 0 0 1-8.524 8.524H37.397a5.327 5.327 0 1 0 0 10.655h92.7a5.324 5.324 0 0 0 5.327-5.328 5.327 5.327 0 0 0-5.327-5.327h-14.924a8.52 8.52 0 0 1-6.027-2.497 8.52 8.52 0 0 1 0-12.055 8.52 8.52 0 0 1 6.027-2.496h75.65a8.52 8.52 0 0 0 6.027-2.497 8.52 8.52 0 0 0 0-12.055 8.52 8.52 0 0 0-6.027-2.496h-11.72a12.786 12.786 0 0 1 0-25.572h6.926a13.32 13.32 0 0 0 0-26.637h-63.932a9.057 9.057 0 0 1 0-18.113h26.637a7.99 7.99 0 0 0 7.522-5.327 7.7 7.7 0 0 0 .469-2.664 8 8 0 0 0-7.989-7.992H64.563a8.01 8.01 0 0 0-7.991 7.99c-.003.91.156 1.812.469 2.665a7.97 7.97 0 0 0 7.522 5.327H81.61a9.056 9.056 0 0 1 0 18.113H16.616a13.35 13.35 0 0 0-13.32 13.319"/>
    <path fill="#000" d="M104.973 139.632a53.62 53.62 0 0 1-50.322-35.129 53.61 53.61 0 0 1 15.622-59.348 2.291 2.291 0 0 1 2.967 3.492 49.03 49.03 0 1 0 69.209 68.992 2.285 2.285 0 0 1 2.453-.717 2.28 2.28 0 0 1 1.59 1.999 2.3 2.3 0 0 1-.543 1.675 53.54 53.54 0 0 1-40.974 19.036m51.318-51.322a2.293 2.293 0 0 1-2.291-2.292 49.06 49.06 0 0 0-19.061-38.781 49.07 49.07 0 0 0-42.333-8.677 2.292 2.292 0 0 1-1.152-4.435 53.656 53.656 0 0 1 67.128 51.892 2.29 2.29 0 0 1-2.291 2.292"/>
    <path fill="#1A496D" d="M42.656 122.677a2.75 2.75 0 0 0-1.697-2.54 2.743 2.743 0 0 0-3.748 2.003 2.752 2.752 0 0 0 2.696 3.286 2.75 2.75 0 0 0 2.75-2.749M62.816 26.45a1.833 1.833 0 1 0-3.666 0 1.833 1.833 0 0 0 3.666 0m98.059 120.055a1.833 1.833 0 1 0-3.666.001 1.833 1.833 0 0 0 3.666-.001"/>
    <path fill="#EF5456" d="M171.872 122.678a6.42 6.42 0 0 1-5.927-3.96 6.42 6.42 0 0 1 4.676-8.747 6.42 6.42 0 0 1 7.666 6.292 6.423 6.423 0 0 1-6.415 6.415m0-11a4.586 4.586 0 0 0-4.491 5.476 4.582 4.582 0 0 0 9.076-.891 4.586 4.586 0 0 0-4.582-4.582m-9.167-65.986a4.585 4.585 0 0 1-4.233-2.828 4.58 4.58 0 0 1 3.339-6.248 4.58 4.58 0 0 1 4.132 7.733 4.6 4.6 0 0 1-3.238 1.343m0-7.332a2.748 2.748 0 0 0-.536 5.445 2.747 2.747 0 0 0 2.479-4.638 2.75 2.75 0 0 0-1.943-.807M80.23 12.707a5.5 5.5 0 1 1 0-11 5.5 5.5 0 0 1 0 11m0-9.164a3.666 3.666 0 1 0 2.59 1.073 3.67 3.67 0 0 0-2.59-1.076M5.08 75.937a4.582 4.582 0 1 1 0-9.163 4.582 4.582 0 0 1 0 9.163m0-7.332a2.75 2.75 0 1 0 0 5.5 2.75 2.75 0 0 0 0-5.5"/>
    <path fill="#2FDF84" d="M123.76 13.162a.92.92 0 0 1-.916.916h-3.208v3.208a.916.916 0 1 1-1.833 0v-3.207h-3.208a.917.917 0 0 1 0-1.833h3.208V9.038a.917.917 0 0 1 1.833 0v3.208h3.208a.92.92 0 0 1 .916.916M35.324 40.197a.67.67 0 0 1-.666.666h-2.334v2.333a.666.666 0 0 1-1.332 0v-2.333h-2.334a.667.667 0 0 1 0-1.333h2.334v-2.333a.666.666 0 1 1 1.332 0v2.334h2.333a.67.67 0 0 1 .667.666m164.958 34.825a.833.833 0 0 1-.833.832h-2.916v2.916a.83.83 0 0 1-.833.834.835.835 0 0 1-.833-.834v-2.915h-2.916a.833.833 0 1 1 0-1.666h2.916v-2.916a.834.834 0 0 1 1.666 0v2.916h2.916a.837.837 0 0 1 .833.833"/>
    <path fill="#FFCB5C" d="M105.501 54.606c-8.695 0-15.742 2.433-15.742 5.449V83.91c0 3.015 7.047 5.45 15.742 5.45s15.742-2.435 15.742-5.45V60.055c0-3.016-7.047-5.45-15.742-5.45"/>
    <path fill="#FFE3A8" d="M105.501 65.504c8.694 0 15.742-2.44 15.742-5.45 0-3.009-7.048-5.449-15.742-5.449s-15.742 2.44-15.742 5.45 7.048 5.449 15.742 5.449"/>
    <path fill="#FFCB5C" d="M105.501 63.688c6.955 0 12.594-1.627 12.594-3.633s-5.639-3.633-12.594-3.633-12.594 1.626-12.594 3.633c0 2.006 5.639 3.633 12.594 3.633"/>
    <path fill="#FFB30F" d="M105.501 58.238c5.873 0 10.802 1.163 12.194 2.725.254-.29.4-.593.4-.908 0-2.01-5.643-3.633-12.594-3.633s-12.594 1.623-12.594 3.633q0 .472.4.908c1.392-1.562 6.32-2.725 12.194-2.725m15.742 7.787c0 3.016-7.047 5.45-15.742 5.45s-15.742-2.434-15.742-5.45v5.97c0 3.015 7.047 5.45 15.742 5.45s15.742-2.434 15.742-5.45zm0 11.928c0 3.015-7.047 5.45-15.742 5.45s-15.742-2.435-15.742-5.45v5.958c0 3.015 7.047 5.45 15.742 5.45s15.742-2.435 15.742-5.45z"/>
    <path fill="#FFCB5C" d="M120.153 80.64c-8.694 0-15.742 2.435-15.742 5.45v23.855c0 3.016 7.048 5.45 15.742 5.45s15.743-2.434 15.743-5.45V86.09c0-3.015-7.048-5.45-15.743-5.45"/>
    <path fill="#FFE3A8" d="M120.153 91.54c8.694 0 15.743-2.44 15.743-5.45s-7.049-5.45-15.743-5.45-15.742 2.44-15.742 5.45 7.048 5.45 15.742 5.45"/>
    <path fill="#FFCB5C" d="M120.153 89.723c6.956 0 12.594-1.627 12.594-3.633s-5.638-3.633-12.594-3.633-12.593 1.627-12.593 3.633 5.638 3.633 12.593 3.633"/>
    <path fill="#FFB30F" d="M120.153 84.273c5.873 0 10.802 1.163 12.194 2.725.255-.29.4-.593.4-.908 0-2.01-5.643-3.633-12.594-3.633S107.56 84.08 107.56 86.09q0 .472.399.908c1.393-1.562 6.321-2.725 12.194-2.725m15.743 7.787c0 3.016-7.048 5.45-15.743 5.45s-15.742-2.434-15.742-5.45v5.97c0 3.016 7.048 5.45 15.742 5.45s15.743-2.434 15.743-5.45zm0 11.928c0 3.016-7.048 5.45-15.743 5.45s-15.742-2.434-15.742-5.45v5.958c0 3.015 7.048 5.449 15.742 5.449s15.743-2.434 15.743-5.449z"/>
    <path fill="#FFB30F" d="M90.849 83.79h4.359c8.695 0 15.742 7.047 15.742 15.741 0 8.695-7.047 15.742-15.742 15.742h-4.36c-8.694 0-15.742-7.047-15.742-15.742S82.154 83.79 90.85 83.79"/>
    <path fill="#FFCB5C" d="M90.849 115.273c8.694 0 15.742-7.048 15.742-15.742S99.543 83.79 90.849 83.79s-15.743 7.048-15.743 15.742 7.049 15.742 15.743 15.742"/>
    <path fill="#FFE3A8" d="M75.106 99.531c0 2.58.618 5.026 1.72 7.169.63.061 1.26.097 1.913.097 10.705 0 19.375-8.67 19.375-19.375 0-.642-.036-1.284-.097-1.913a15.7 15.7 0 0 0-7.168-1.72c-8.695 0-15.743 7.048-15.743 15.742"/>
    <path fill="#FFCB5C" d="M90.849 112.125c6.955 0 12.593-5.638 12.593-12.594s-5.638-12.594-12.593-12.594c-6.956 0-12.594 5.639-12.594 12.594 0 6.956 5.638 12.594 12.594 12.594"/>
    <path fill="#FFB30F" d="M80.435 99.531c0-6.587 5.061-11.988 11.504-12.545a11 11 0 0 0-1.09-.049c-6.951 0-12.594 5.644-12.594 12.594 0 6.951 5.643 12.594 12.594 12.594.363 0 .726-.012 1.09-.048-6.443-.557-11.504-5.958-11.504-12.546"/>
    <path fill="#FFCB5C" d="M82.372 76.645a2.43 2.43 0 0 1-2.422 2.421 2.43 2.43 0 0 1 2.422 2.422 2.43 2.43 0 0 1 2.422-2.422 2.43 2.43 0 0 1-2.422-2.422m46.258-14.288a2.43 2.43 0 0 1-2.422 2.421 2.43 2.43 0 0 1 2.422 2.422 2.43 2.43 0 0 1 2.422-2.422 2.43 2.43 0 0 1-2.422-2.422"/>
    <path fill="#399349" d="m91.2 93.295-.351.8-.352-.8a1.73 1.73 0 0 0-1.574-1.03c-.944 0-1.707.763-1.707 1.708 0 .86.315 1.695.872 2.35l2.76 3.208 2.762-3.197c.569-.654.871-1.49.871-2.349 0-.944-.762-1.707-1.707-1.707a1.67 1.67 0 0 0-1.574 1.017m-.702 12.473.35-.8.352.8a1.73 1.73 0 0 0 1.574 1.029c.945 0 1.707-.763 1.707-1.708 0-.859-.314-1.695-.871-2.349l-2.761-3.209-2.761 3.197a3.57 3.57 0 0 0-.872 2.349c0 .945.763 1.708 1.707 1.708a1.67 1.67 0 0 0 1.575-1.017"/>
    <path fill="#399349" d="m84.612 99.18.8.351-.8.351a1.73 1.73 0 0 0-1.029 1.575c0 .944.763 1.707 1.707 1.707.86 0 1.696-.315 2.35-.872l3.209-2.76-3.197-2.762a3.57 3.57 0 0 0-2.35-.872c-.944 0-1.707.763-1.707 1.708a1.67 1.67 0 0 0 1.017 1.574m12.473.702-.8-.35.8-.352a1.73 1.73 0 0 0 1.03-1.574c0-.945-.764-1.708-1.708-1.708a3.64 3.64 0 0 0-2.35.872l-3.208 2.761 3.197 2.761a3.57 3.57 0 0 0 2.349.872c.944 0 1.707-.763 1.707-1.707a1.67 1.67 0 0 0-1.017-1.575"/>
    <path fill="#47B85B" d="M94.481 93.973c0-.945-.762-1.707-1.707-1.707-.678 0-1.296.4-1.574 1.029l-.351.8v5.436l2.76-3.197a3.64 3.64 0 0 0 .872-2.361m-7.265 11.116c0 .945.763 1.708 1.707 1.708.678 0 1.296-.4 1.575-1.029l.35-.8v-5.437l-2.76 3.197a3.65 3.65 0 0 0-.872 2.361"/>
    <path fill="#47B85B" d="M85.29 95.898c-.944 0-1.707.763-1.707 1.708 0 .678.4 1.296 1.03 1.574l.799.351h5.437l-3.197-2.76a3.64 3.64 0 0 0-2.362-.873m11.117 7.266c.944 0 1.707-.763 1.707-1.707 0-.678-.4-1.296-1.029-1.575l-.8-.35H90.85l3.197 2.76a3.64 3.64 0 0 0 2.36.872"/>
</svg>
