<svg xmlns="http://www.w3.org/2000/svg" width="74" height="52.096" viewBox="0 0 74 52.096"><path d="M0 28.366c.284-1.437.477-2.9.868-4.306A21.91 21.91 0 0 1 19.85 8.22a21.987 21.987 0 0 1 23.913 19.1A22.01 22.01 0 0 1 24.18 51.976a3 3 0 0 0-.479.121h-3.468a3 3 0 0 0-.478-.121 21.91 21.91 0 0 1-18.9-15.905c-.386-1.381-.572-2.82-.85-4.231Zm38.73 1.759a16.79 16.79 0 0 0-16.757-16.807 16.777 16.777 0 0 0-16.77 16.717 16.79 16.79 0 0 0 16.716 16.848A16.8 16.8 0 0 0 38.73 30.124ZM50.865.005c5.584 0 11.168-.015 16.751.007a4.017 4.017 0 0 1 3.753 5.568 3.87 3.87 0 0 1-3.711 2.517c-1.563.042-3.128.011-4.693.011H34.3a4.05 4.05 0 0 1-4.236-3.849A4.03 4.03 0 0 1 34.185.012q8.341-.021 16.68-.007"/><path d="M36.314 49.78a37 37 0 0 0 3.132-2.911c1.28-1.493 2.41-3.117 3.565-4.713a.93.93 0 0 1 .851-.488q13.005.018 26.011.013a4.03 4.03 0 0 1 4.117 4.042 4.025 4.025 0 0 1-4.112 4.051q-10.982.023-21.965.007Zm8.348-10.432 1.8-8.089h23.422a3.99 3.99 0 0 1 3.85 2.639 4.015 4.015 0 0 1-1.087 4.422 3.85 3.85 0 0 1-2.63 1.031q-12.641.012-25.282.005c-.072.004-.142-.02-.073-.008m.003-18.506h25.164a4.04 4.04 0 0 1 3.873 5.548 4.03 4.03 0 0 1-3.847 2.547c-3.876.011-7.753 0-11.629 0H46.459Zm-8.356-10.419H60.61a4.027 4.027 0 0 1 3.988 5.1 3.97 3.97 0 0 1-3.8 2.991q-8.518.036-17.036 0a.84.84 0 0 1-.628-.321 24.8 24.8 0 0 0-6.649-7.524 1.4 1.4 0 0 1-.176-.246M21.945 15.63A14.465 14.465 0 0 1 36.42 30.116a14.47 14.47 0 0 1-14.434 14.451A14.46 14.46 0 0 1 7.518 30.082 14.456 14.456 0 0 1 21.945 15.63m1.2 22.4a18 18 0 0 0 2.57-1.771 4.39 4.39 0 0 0 1.187-4.651c-.514-1.658-1.9-2.188-3.446-2.434-1.116-.177-2.243-.3-3.346-.529-.8-.168-1.012-.565-.96-1.37a2.745 2.745 0 0 1 3.384-2.469 2.95 2.95 0 0 1 2.149 2.04c.31.8.827 1.1 1.481.905a1.165 1.165 0 0 0 .7-1.638 5.25 5.25 0 0 0-3.707-3.572c-.126-1.839-.326-2.289-1.125-2.265-1.581.048-1.122 1.358-1.25 2.231a5.1 5.1 0 0 0-3.8 3.694 3.6 3.6 0 0 0 2.79 4.785 7 7 0 0 0 .707.139c1.047.152 2.1.254 3.141.457s1.323.7 1.129 1.721a2.62 2.62 0 0 1-2.118 2.2 2.605 2.605 0 0 1-2.811-1.024 5.7 5.7 0 0 1-.6-1.145 1.163 1.163 0 0 0-1.565-.745 1.17 1.17 0 0 0-.6 1.575c.05.161.116.317.182.472a5.3 5.3 0 0 0 3.524 3.128c.131 1.742.353 2.147 1.158 2.164.842.023 1.092-.398 1.228-1.898Z"/></svg>