<svg xmlns="http://www.w3.org/2000/svg" width="19" height="19" viewBox="0 0 19 19"><path d="M18.992 9.498c0 1.171-.025 2.342.006 3.513a4.29 4.29 0 0 1-1.424 3.324 8.6 8.6 0 0 1-3.474 1.956 15.2 15.2 0 0 1-6.615.57 12.6 12.6 0 0 1-4.317-1.291 6.4 6.4 0 0 1-2.592-2.28 3.8 3.8 0 0 1-.576-2V5.725a4.23 4.23 0 0 1 1.6-3.223A9 9 0 0 1 5.083.647a15.4 15.4 0 0 1 6.1-.551 12.9 12.9 0 0 1 4.533 1.272 6.6 6.6 0 0 1 2.532 2.083 3.96 3.96 0 0 1 .744 2.357c-.013 1.234 0 2.463 0 3.7ZM8.615 10.562c-.07-.082-.114-.152-.171-.209L6.507 8.416a.96.96 0 0 0-.817-.317.9.9 0 0 0-.791.627.92.92 0 0 0 .253 1.019c.912.912 1.823 1.83 2.741 2.741a.96.96 0 0 0 1.5 0q1.092-1.092 2.19-2.184l2.437-2.437a.951.951 0 1 0-1.328-1.357l-3.856 3.858a5 5 0 0 1-.209.2Z"/></svg>