<svg xmlns="http://www.w3.org/2000/svg" width="40.823" height="48.058" viewBox="0 0 40.823 48.058"><path d="M12.632 36.115a.62.62 0 0 0-.574-.4H7.809A7.9 7.9 0 0 0 0 43.579v3.9a.575.575 0 0 0 .574.574h15.79a.62.62 0 0 0 .574-.8Zm20.383-.344h-4.249a.69.69 0 0 0-.574.4l-4.307 11.083a.575.575 0 0 0 .574.8h15.79a.575.575 0 0 0 .574-.574v-3.9a7.817 7.817 0 0 0-7.809-7.81ZM5.742 18.2H3.388a1.493 1.493 0 1 0 0 2.986h2.354a1.493 1.493 0 1 0 0-2.986M20.383 5.282a1.48 1.48 0 0 0 1.493-1.493v-2.3A1.48 1.48 0 0 0 20.383 0a1.435 1.435 0 0 0-1.435 1.493v2.354a1.46 1.46 0 0 0 1.435 1.435M9.416 7.751 7.751 6.086a1.462 1.462 0 0 0-2.067 2.067l1.665 1.665a1.47 1.47 0 0 0 1.033.4 1.38 1.38 0 0 0 1.033-.4 1.455 1.455 0 0 0 .001-2.067m10.967 28.306a1.79 1.79 0 0 0-1.78 1.78v8.21a1.78 1.78 0 1 0 3.56 0v-8.21a1.79 1.79 0 0 0-1.78-1.78M35.139 6.086a1.455 1.455 0 0 0-2.067 0l-1.665 1.665a1.455 1.455 0 0 0 0 2.067 1.53 1.53 0 0 0 2.067 0l1.665-1.665a1.455 1.455 0 0 0 0-2.067M19.12 7.981c-4.593.517-9.072 4.938-9.589 9.531a11.02 11.02 0 0 0 2.986 8.957 7 7 0 0 1 1.952 4.88 1.666 1.666 0 0 0 1.665 1.665h8.44a1.666 1.666 0 0 0 1.665-1.665 6.87 6.87 0 0 1 1.952-4.823 10.7 10.7 0 0 0 3.1-7.636A10.873 10.873 0 0 0 19.12 7.981M21.876 23.2v4.019a1.493 1.493 0 0 1-2.986 0V23.2a3.82 3.82 0 0 1-2.928-3.56 1.493 1.493 0 1 1 2.986 0c0 .4.632.861 1.435.861.861 0 1.435-.459 1.435-.861a1.493 1.493 0 1 1 2.986 0 3.82 3.82 0 0 1-2.928 3.56m15.5-5h-2.352a1.493 1.493 0 0 0 0 2.986h2.354a1.48 1.48 0 0 0 1.493-1.493 1.45 1.45 0 0 0-1.493-1.493Z"/></svg>