<svg xmlns="http://www.w3.org/2000/svg" width="18" height="18.001" viewBox="0 0 18 18.001"><path d="M18 14.455a3.51 3.51 0 0 1-2.744 3.456 3.7 3.7 0 0 1-.818.089H3.557a3.51 3.51 0 0 1-3.524-3.019c0-.023 0-.056-.028-.07H0V3.448c.033-.052.014-.108.014-.164v-.193a2.3 2.3 0 0 1 .3-1.132A3.53 3.53 0 0 1 2.66.062c.15-.038.31-.023.465-.061h7.35a.72.72 0 0 1 .559.7.69.69 0 0 1-.663.7H3.6a2.113 2.113 0 0 0-2.2 2.2V14.39a2.11 2.11 0 0 0 2.2 2.2h10.794a2.11 2.11 0 0 0 2.195-2.2V7.707a.703.703 0 1 1 1.405-.042v1.864C18 11.173 18 12.812 18 14.455"/><path d="M17.659 2.752A2.75 2.75 0 0 0 15.721.465a2.73 2.73 0 0 0-2.949.687Q8.783 5.104 4.834 9.09a5.4 5.4 0 0 0-1.591 3.814 6 6 0 0 0 .111 1.175.69.69 0 0 0 .561.57 5.5 5.5 0 0 0 2.1.024 5.7 5.7 0 0 0 3.068-1.648q3.843-3.851 7.7-7.7a2.4 2.4 0 0 0 .256-.28 2.8 2.8 0 0 0 .62-2.293m-1.774 1.4c-.16.179-.338.343-.508.517L8 12.049a4.16 4.16 0 0 1-3.031 1.267c-.285 0-.285 0-.285-.285v-.092a4.07 4.07 0 0 1 1.179-2.848c1.765-1.779 3.544-3.549 5.318-5.323.247-.247.5-.488.74-.745.092-.1.145-.087.222 0 .121.135.251.261.382.387a.723.723 0 1 0 1.025-1.014q-.202-.21-.411-.411c-.063-.058-.087-.1-.01-.169.237-.222.459-.464.7-.686a1.446 1.446 0 0 1 2.059 2.026Z"/></svg>