<svg xmlns="http://www.w3.org/2000/svg" width="994.188" height="856.374" viewBox="0 0 994.188 856.374">
  <path fill="#ac5e9f" d="M84.428 331.109a166.3 166.3 0 0 1-26.6-20.425 2.762 2.762 0 0 0-3.791 4.017 172 172 0 0 0 27.485 21.1 2.759 2.759 0 0 0 2.9-4.693m82.698 24.946a167.6 167.6 0 0 1-33.251-4.438 2.759 2.759 0 0 0-1.273 5.368 173.3 173.3 0 0 0 34.348 4.584h.247a2.7 2.7 0 0 0 .958-.232 2.758 2.758 0 0 0-1.028-5.279M124.629 29.286a2.758 2.758 0 0 0 .182-4.952 2.74 2.74 0 0 0-2.1-.211 173 173 0 0 0-20.128 7.47 175 175 0 0 0-11.654 5.7l-.217.116a2.759 2.759 0 0 0 2.611 4.86l.213-.115a170 170 0 0 1 11.284-5.517 168 168 0 0 1 19.486-7.231 3 3 0 0 0 .322-.12M50.83 74.803a2.759 2.759 0 0 0-4.016-3.784 172 172 0 0 0-21.09 27.5 2.759 2.759 0 1 0 4.694 2.9A166.3 166.3 0 0 1 50.83 74.803M5.516 184.116a167.7 167.7 0 0 1 4.42-33.253 2.76 2.76 0 0 0-2.049-3.321 2.764 2.764 0 0 0-3.32 2.049A173.3 173.3 0 0 0 0 183.942a2.76 2.76 0 0 0 2.669 2.844h.249a2.76 2.76 0 0 0 2.6-2.668m19.716 83.914a170 170 0 0 1-5.517-11.285 168 168 0 0 1-7.254-19.56 2.758 2.758 0 1 0-5.282 1.59 173 173 0 0 0 7.493 20.207c1.743 3.929 3.66 7.85 5.7 11.656l.076.143a2.77 2.77 0 0 0 2.595 1.447 2.7 2.7 0 0 0 .953-.229q.096-.043.189-.092a2.76 2.76 0 0 0 1.124-3.736ZM211.42 26.905a2.759 2.759 0 0 0 .476-5.44 173 173 0 0 0-34.353-4.551 2.759 2.759 0 1 0-.17 5.515 167.6 167.6 0 0 1 33.255 4.406 2.8 2.8 0 0 0 .793.07m39.695 309.425a170 170 0 0 1-11.285 5.517 167 167 0 0 1-19.639 7.28 2.773 2.773 0 0 0-1.842 3.434 2.756 2.756 0 0 0 3.437 1.848 173 173 0 0 0 20.286-7.518 175 175 0 0 0 11.632-5.686l.1-.051a2.71 2.71 0 0 0 1.088-3.715 2.8 2.8 0 0 0-3.77-1.108m90.855-144.47a2.76 2.76 0 0 0-2.846 2.668 167.8 167.8 0 0 1-4.454 33.249 2.763 2.763 0 0 0 2.046 3.322 2.8 2.8 0 0 0 .8.071 2.8 2.8 0 0 0 .96-.234 2.74 2.74 0 0 0 1.565-1.884 173 173 0 0 0 4.6-34.345 2.76 2.76 0 0 0-2.667-2.847m-8.415-48.772a2.77 2.77 0 0 0 2.427.092 2.76 2.76 0 0 0 1.521-3.313 173 173 0 0 0-7.541-20.366 175 175 0 0 0-5.695-11.651l-.158-.293a2.758 2.758 0 0 0-4.86 2.61l.153.287a170 170 0 0 1 5.517 11.285 168 168 0 0 1 7.3 19.713 2.74 2.74 0 0 0 1.334 1.637m-46.856-75.4a2.759 2.759 0 1 0 3.782-4.017 172 172 0 0 0-27.506-21.076 2.759 2.759 0 1 0-2.9 4.694 166.4 166.4 0 0 1 26.621 20.4m31.241 208.623a2.764 2.764 0 0 0-3.8.894 166.3 166.3 0 0 1-20.438 26.591 2.759 2.759 0 0 0 4.012 3.788 172 172 0 0 0 21.117-27.475 2.763 2.763 0 0 0-.894-3.8"/>
  <path fill="#e03c75" d="M881.181 693.733a13.1 13.1 0 1 1 13.1-13.1 13.12 13.12 0 0 1-13.1 13.1m0-20.833a7.729 7.729 0 1 0 7.73 7.73 7.74 7.74 0 0 0-7.73-7.73m-748.999 63.485h-8.048v-11.348a2.283 2.283 0 1 0-4.566 0v11.348h-8.049a2.284 2.284 0 0 0 0 4.567h8.048V752.3a2.283 2.283 0 0 0 4.566 0v-11.348h8.048a2.284 2.284 0 0 0 0-4.567M863.832 96.441H851.75V79.405a3.427 3.427 0 1 0-6.854 0v17.036H832.82a3.428 3.428 0 1 0 0 6.855h12.079v17.032a3.427 3.427 0 1 0 6.854 0v-17.036h12.079a3.428 3.428 0 0 0 0-6.855"/>
  <path fill="#ac5e9f" d="M539.158 297.458a300 300 0 0 0-26.24 17.579 2.564 2.564 0 0 0 1.637 4.614q.128-.006.255-.022a2.6 2.6 0 0 0 1.183-.488 295 295 0 0 1 25.789-17.277 2.564 2.564 0 1 0-2.624-4.406m-9.477 504.522a298 298 0 0 1-24.926-18.5 2.568 2.568 0 0 0-3.274 3.957 303 303 0 0 0 25.358 18.817 2.56 2.56 0 0 0 1.514.425q.128-.006.255-.022a2.565 2.565 0 0 0 1.066-4.677m86.83-536.227a2.54 2.54 0 0 0-1.941-.245 308 308 0 0 0-30.01 9.857 2.565 2.565 0 0 0 1.018 4.955c.086 0 .173-.011.259-.023a2.6 2.6 0 0 0 .573-.149 301 301 0 0 1 29.502-9.686 2.565 2.565 0 0 0 .594-4.7m-14.331 571.26a298 298 0 0 1-28.987-11.133 2.564 2.564 0 0 0-2.086 4.685 303 303 0 0 0 29.484 11.323 2.5 2.5 0 0 0 .89.126 2 2 0 0 0 .256-.022 2.58 2.58 0 0 0 2.087-1.748 2.565 2.565 0 0 0-1.644-3.231m-125.157-489.2a2.52 2.52 0 0 0-1.792.8 302 302 0 0 0-20.487 24.021 2.565 2.565 0 0 0 2.129 4.122c.086 0 .173-.011.26-.022a2.55 2.55 0 0 0 1.683-.981 297 297 0 0 1 20.138-23.61 2.565 2.565 0 0 0-1.93-4.328m-46.067 66.263a2.564 2.564 0 0 0-3.465 1.067 304 304 0 0 0-13.289 28.65 2.563 2.563 0 0 0 2.478 3.518 2 2 0 0 0 .253-.022 2.57 2.57 0 0 0 2.028-1.584 298 298 0 0 1 13.064-28.165 2.565 2.565 0 0 0-1.069-3.466m-30.517 182.012a296 296 0 0 1-2.258-22.658 2.566 2.566 0 0 0-2.7-2.4 2.5 2.5 0 0 0-1.765.835 2.6 2.6 0 0 0-.656 1.881 300 300 0 0 0 3.576 31.38 2.55 2.55 0 0 0 2.619 2.139c.086 0 .174-.011.263-.023.026 0 .052-.007.068-.011a2.57 2.57 0 0 0 2.105-2.952 292 292 0 0 1-1.255-8.186m3.592-104.865a2.565 2.565 0 0 0-4.663.841 301 301 0 0 0-5.082 31.183 2.563 2.563 0 0 0 2.272 2.826 3 3 0 0 0 .381.014 2 2 0 0 0 .25-.022 2.56 2.56 0 0 0 2.2-2.262 296 296 0 0 1 4.995-30.648 2.55 2.55 0 0 0-.348-1.932m277.394 360.011a295 295 0 0 1-30.92-2.893 2.564 2.564 0 0 0-.746 5.074 300 300 0 0 0 31.458 2.944h.2q.128-.006.255-.022a2.564 2.564 0 0 0-.25-5.1m-231.12-127.038a2.564 2.564 0 1 0-4.216 2.92 300 300 0 0 0 19.335 24.976 2.55 2.55 0 0 0 2.038.889c.085 0 .171-.011.258-.023a2.565 2.565 0 0 0 1.588-4.215 294 294 0 0 1-19-24.547m-36.352-71.818a2.564 2.564 0 1 0-4.848 1.673 304 304 0 0 0 11.842 29.273 2.55 2.55 0 0 0 2.416 1.479c.086 0 .173-.011.26-.023a2.565 2.565 0 0 0 1.971-3.625 299 299 0 0 1-11.641-28.777m487.132 113.818a295 295 0 0 1-23.18 20.621 2.564 2.564 0 0 0 1.7 4.565q.126-.005.251-.022a2.6 2.6 0 0 0 1.247-.536 301 301 0 0 0 23.585-20.981 2.564 2.564 0 0 0-3.607-3.646m60.435-346.74a300 300 0 0 0-15.744-27.378 2.564 2.564 0 1 0-4.3 2.787 295 295 0 0 1 15.47 26.906 2.55 2.55 0 0 0 2.639 1.381 2.5 2.5 0 0 0 .806-.253 2.57 2.57 0 0 0 1.128-3.447m21.758 206.33a2.57 2.57 0 0 0-3.111 1.861 298 298 0 0 1-9.148 29.673 2.564 2.564 0 0 0 2.509 3.445c.084 0 .168-.011.25-.022a2.57 2.57 0 0 0 2.056-1.658 303 303 0 0 0 9.3-30.187 2.565 2.565 0 0 0-1.861-3.112m8.171-80.807h-.011a2.575 2.575 0 0 0-2.473 2.635 294 294 0 0 1-.772 31.046 2.56 2.56 0 0 0 2.358 2.756 3 3 0 0 0 .3.006c.085 0 .17-.011.254-.022a2.58 2.58 0 0 0 2.2-2.341 300 300 0 0 0 .786-31.59 2.57 2.57 0 0 0-2.64-2.491M695.798 254.94a300 300 0 0 0-31.558 1.423 2.52 2.52 0 0 0-1.733.907 2.569 2.569 0 0 0 2.07 4.208q.075-.002.154-.011a295 295 0 0 1 31.028-1.4 2.5 2.5 0 0 0 .373-.023 2.565 2.565 0 0 0-.334-5.1m290.436 245.403q.076-.011.148-.025a2.57 2.57 0 0 0 2.012-3.016 306 306 0 0 0-7.782-30.616l-.133-.427a2.566 2.566 0 1 0-4.9 1.524l.132.425a300 300 0 0 1 7.65 30.1 2.57 2.57 0 0 0 2.611 2.061 2 2 0 0 0 .255-.022m-32.644 201.044a2.57 2.57 0 0 0-3.5.957 298 298 0 0 1-16.772 26.121 2.565 2.565 0 0 0 2.177 4.059c.085 0 .171-.011.258-.023a2.57 2.57 0 0 0 1.729-1.043 304 304 0 0 0 17.061-26.572 2.565 2.565 0 0 0-.957-3.5m-61.318-371.272a2.564 2.564 0 1 0-3.387 3.851 296 296 0 0 1 22.187 21.693 2.55 2.55 0 0 0 2.241.8 2.564 2.564 0 0 0 1.532-4.275 302 302 0 0 0-22.573-22.07M761.548 843.445a297 297 0 0 1-30.564 5.606 2.564 2.564 0 0 0 .45 5.1 2 2 0 0 0 .232-.02q1.355-.176 2.712-.364a302 302 0 0 0 28.359-5.336 2.564 2.564 0 0 0-1.188-4.989m15.299-576.648a301 301 0 0 0-30.761-7.191 2.564 2.564 0 1 0-.9 5.048 296 296 0 0 1 30.236 7.069 2.6 2.6 0 0 0 .811.1q.128-.006.255-.022a2.565 2.565 0 0 0 .362-5m74.838 33.263a304 304 0 0 0-27.687-15.19 2.564 2.564 0 1 0-2.229 4.618 299 299 0 0 1 27.217 14.933 2.6 2.6 0 0 0 1.448.382 3 3 0 0 0 .253-.023 2.564 2.564 0 0 0 1-4.72m-15.047 514.364a296 296 0 0 1-27.921 13.563 2.563 2.563 0 0 0 1.35 4.9 2.6 2.6 0 0 0 .645-.177 302 302 0 0 0 28.407-13.8 2.565 2.565 0 0 0-2.481-4.489"/>
  <path fill="#e03c75" d="M477.397 401.247H512.2V751.51h-34.803z"/>
  <path fill="#551948" d="M477.259 401.378H512.2v12.11h-34.941z"/>
  <path fill="#e03c75" d="M698.554 118.013v166.895L580.542 402.92H413.647L295.635 284.908V118.013L413.647 0h166.895Z"/>
  <path fill="#551948" d="M698.554 118.013v166.895L580.542 402.92H413.647l-78.961-78.961c296.762 43.731 299.84-269.975 299.84-269.975Z"/>
  <path fill="#551948" d="M698.554 201.46S641.82 412.118 413.647 402.919h166.895l118.012-118.011Z"/>
  <path fill="none" stroke="#fff" stroke-miterlimit="10" stroke-width="12" d="M678.973 126.123v150.673L572.431 383.339H421.758L315.216 276.796V126.123L421.758 19.581h150.673Z"/>
  <path fill="#551948" d="M498.227 401.247h13.974V751.51h-13.974z"/>
  <text fill="#fff" font-size="112" transform="translate(365.836 248.036)"><tspan x="0" y="0">OPPS</tspan></text>
  <path fill="#3f1239" d="M754.064 763.361H234.371a5.85 5.85 0 0 1-5.849-5.849v-1.234a5.85 5.85 0 0 1 5.849-5.849h519.693a5.85 5.85 0 0 1 5.849 5.849v1.234a5.85 5.85 0 0 1-5.849 5.849"/>
  <path fill="#3f1239" d="M244.638 763.361h-83.8a6.466 6.466 0 1 1 0-12.932h83.8a6.466 6.466 0 1 1 0 12.932m-121.882 0H33.469a5.85 5.85 0 0 1-5.85-5.849v-1.234a5.85 5.85 0 0 1 5.85-5.849h89.287a5.85 5.85 0 0 1 5.849 5.849v1.234a5.85 5.85 0 0 1-5.849 5.849m743.278 0h-73.483a5.85 5.85 0 0 1-5.849-5.849v-1.234a5.85 5.85 0 0 1 5.849-5.849h73.483a5.85 5.85 0 0 1 5.849 5.849v1.234a5.85 5.85 0 0 1-5.849 5.849m94.069 0h-54.908a6.466 6.466 0 1 1 0-12.932h54.908a6.466 6.466 0 1 1 0 12.932"/>
  <path fill="#e03c75" d="M426.231 724.991h-183.09l3.331-12.06 6.506-23.55 3.94-14.26 5.808-21.023 11.2-40.526 5.808-21.023 40.831-147.8h28.247l14.965 54.166 25.863 93.633 5.808 21.023 11.2 40.526 5.808 21.023 10.446 37.81Z"/>
  <path fill="#7b2167" d="M426.23 725.85H243.14l3.331-12.06 6.506-23.55c127.585-7.537 110.8-190.464 110.8-190.464l59.126 214.014Z"/>
  <path fill="#e03c75" d="M205.678 725.85h258.013v24.531H205.678z"/>
  <path fill="#3f1239" d="M426.231 725.851h-183.09l3.331-12.06H422.9Z"/>
  <path fill="#551948" d="M395.448 614.431s-3.836 80.917-96.8 99.426l124.254-.067Z"/>
  <path fill="#fff" d="M395.449 614.43H273.922l5.808-21.023h109.91Zm17.005 61.551H256.917l5.808-21.023h143.92Z"/>
  <path fill="#551948" d="M404.012 725.85s-34.2 25.819-160.872 24.531h220.553V725.85Z"/>
</svg>
