<svg xmlns="http://www.w3.org/2000/svg" width="17.645" height="18.004" viewBox="0 0 17.645 18.004">
    <path fill="#4285f4"
        d="M17.641 9.2a7.713 7.713 0 0 0-.19-1.84H9v3.34h4.96a4.4 4.4 0 0 1-1.84 2.92l-.017.112 2.672 2.07.185.018a8.8 8.8 0 0 0 2.68-6.62" />
    <path fill="#34a853"
        d="M9 18a8.579 8.579 0 0 0 5.96-2.18l-2.84-2.2a5.327 5.327 0 0 1-3.12.9 5.418 5.418 0 0 1-5.12-3.74l-.106.009L1 12.939l-.036.1A8.994 8.994 0 0 0 9 18" />
    <path fill="#fbbc05"
        d="M3.88 10.78A5.541 5.541 0 0 1 3.58 9a5.822 5.822 0 0 1 .29-1.78l-.005-.12-2.813-2.184-.092.044a8.981 8.981 0 0 0 0 8.08l2.92-2.26" />
    <path fill="#eb4335"
        d="M9 3.48a4.988 4.988 0 0 1 3.48 1.34l2.54-2.48A8.647 8.647 0 0 0 9 0 8.995 8.995 0 0 0 .959 4.961L3.87 7.22A5.44 5.44 0 0 1 9 3.48" />
</svg>
