<svg xmlns="http://www.w3.org/2000/svg" width="24" height="24" viewBox="0 0 24 24">
  <g fill="#fff">
    <path d="M20.4 2.82A2.729 2.729 0 0 0 19.253.58a3.517 3.517 0 0 0-1.274-.539H6.02c-.02.012-.037.032-.058.034a2.869 2.869 0 0 0-2.38 2.953c.036 2.373 0 4.748.015 7.122a8.48 8.48 0 0 0 .138 1.65 8.272 8.272 0 0 0 5.938 6.591c.447.145.918.211 1.376.312v3.387H8.328a.935.935 0 1 0-.007 1.867h7.356a.935.935 0 1 0-.005-1.867h-2.724v-3.414c.134-.019.258-.033.38-.053a8.412 8.412 0 0 0 7.078-8.26A611.8 611.8 0 0 0 20.4 2.82Zm-1.865 7.406A6.536 6.536 0 0 1 5.56 11.418a8.149 8.149 0 0 1-.094-1.208c-.008-2.406 0-4.811 0-7.216a.955.955 0 0 1 1.068-1.082h10.95a.949.949 0 0 1 1.055 1.051v7.261Z" />
    <path d="M1.91 8.822v1.4a.949.949 0 0 1-.774 1.016.942.942 0 0 1-1.06-.674.463.463 0 0 0-.035-.064V4.526C.06 4.483.078 4.441.1 4.4a.942.942 0 0 1 1.04-.607.931.931 0 0 1 .773.946C1.912 6.1 1.91 7.46 1.91 8.822Z" />
    <path d="M23.957 4.781v5.46a.937.937 0 1 1-1.868.006V4.788a.937.937 0 1 1 1.868-.007Z" />
    <path d="M16.437 7.006a.952.952 0 0 0-.854-.656c-.555-.078-1.109-.155-1.661-.251a.44.44 0 0 1-.275-.2c-.267-.5-.516-1.01-.766-1.52a.948.948 0 0 0-1.763 0c-.249.51-.5 1.02-.765 1.521a.436.436 0 0 1-.274.2c-.551.1-1.106.174-1.66.252A.949.949 0 0 0 7.563 7a.929.929 0 0 0 .287 1.019c.407.4.806.8 1.219 1.194a.339.339 0 0 1 .11.348c-.113.627-.212 1.257-.306 1.821a.938.938 0 0 0 1.341.925c.554-.263 1.089-.567 1.641-.839a.372.372 0 0 1 .292 0c.543.268 1.078.556 1.618.831a.888.888 0 0 0 .99-.081.909.909 0 0 0 .361-.928c-.094-.583-.2-1.164-.287-1.749a.408.408 0 0 1 .094-.3c.395-.408.8-.806 1.209-1.2a.946.946 0 0 0 .305-1.035Zm-3.473 2.76a1.461 1.461 0 0 0-1.924.011 1.389 1.389 0 0 0-.586-1.788 3.478 3.478 0 0 0 .965-.322A3.162 3.162 0 0 0 12 6.9a3.046 3.046 0 0 0 .569.763 3.377 3.377 0 0 0 .976.328 1.378 1.378 0 0 0-.582 1.776Z" />
  </g>
</svg>
