<svg xmlns="http://www.w3.org/2000/svg" width="201" height="150" fill="0" viewBox="0 0 201 150">
    <path fill="#45536d1a" d="M200.5 61.336a13.34 13.34 0 0 1-13.3 13.319h-60.142a12.786 12.786 0 0 0 0 25.572h43.64c2.261 0 4.429.898 6.028 2.496a8.527 8.527 0 0 1 0 12.055 8.52 8.52 0 0 1-6.028 2.497h-42.574a8.527 8.527 0 0 0-8.524 8.524 8.524 8.524 0 0 0 8.524 8.524h38.317a5.318 5.318 0 0 1 3.757 9.089 5.28 5.28 0 0 1-3.757 1.566h-92.6a5.33 5.33 0 0 1-4.918-3.288 5.32 5.32 0 0 1 1.161-5.801 5.28 5.28 0 0 1 3.757-1.566h14.9a8.523 8.523 0 0 0 8.524-8.524 8.526 8.526 0 0 0-8.524-8.524H13.173a8.52 8.52 0 0 1-8.524-8.524 8.526 8.526 0 0 1 8.524-8.524h11.708a12.786 12.786 0 0 0 0-25.572h-6.923a13.32 13.32 0 0 1 0-26.637h63.866a9.057 9.057 0 0 0 0-18.113H55.215a7.98 7.98 0 0 1-7.514-5.327 7.7 7.7 0 0 1-.468-2.664 8 8 0 0 1 7.982-7.992H139.3a8 8 0 0 1 7.983 7.99 7.6 7.6 0 0 1-.468 2.665 7.96 7.96 0 0 1-7.514 5.327h-17.03a9.056 9.056 0 0 0 0 18.113h64.926a13.343 13.343 0 0 1 13.3 13.319"/>
    <path d="M104.861 139.633a53.61 53.61 0 0 1-50.322-35.128 53.61 53.61 0 0 1 15.622-59.348 2.29 2.29 0 1 1 2.967 3.492 49.028 49.028 0 0 0 33.846 86.356 49.02 49.02 0 0 0 35.363-17.365 2.3 2.3 0 0 1 1.56-.815 2.3 2.3 0 0 1 1.678.533 2.28 2.28 0 0 1 .805 1.565 2.3 2.3 0 0 1-.543 1.674 53.53 53.53 0 0 1-40.974 19.036m51.318-51.323a2.29 2.29 0 0 1-2.291-2.292 49.08 49.08 0 0 0-39.221-48.03 49.1 49.1 0 0 0-22.173.572 2.292 2.292 0 0 1-1.152-4.435 53.657 53.657 0 0 1 67.128 51.892 2.29 2.29 0 0 1-2.291 2.292"/>
    <path fill="#1A496D" d="M42.618 122.677a2.75 2.75 0 0 0-1.697-2.54 2.744 2.744 0 0 0-3.748 2.003 2.752 2.752 0 0 0 2.696 3.286 2.75 2.75 0 0 0 2.75-2.749M62.756 26.45a1.833 1.833 0 1 0-3.667 0 1.833 1.833 0 0 0 3.667 0m97.955 120.055a1.833 1.833 0 1 0-3.666.001 1.833 1.833 0 0 0 3.666-.001"/>
    <path fill="#EF5456" d="M171.666 122.678a6.42 6.42 0 0 1-5.927-3.96 6.42 6.42 0 0 1 4.675-8.747 6.41 6.41 0 0 1 6.586 2.728 6.414 6.414 0 0 1-5.334 9.979m0-11a4.578 4.578 0 0 0-4.491 5.476 4.582 4.582 0 0 0 9.076-.891 4.587 4.587 0 0 0-4.582-4.582m-9.131-65.986a4.585 4.585 0 0 1-4.233-2.828 4.58 4.58 0 0 1 3.339-6.248 4.585 4.585 0 0 1 4.704 1.949c.503.753.772 1.639.772 2.545a4.585 4.585 0 0 1-4.582 4.582m0-7.332a2.748 2.748 0 0 0-.536 5.445 2.747 2.747 0 0 0 2.479-4.638 2.75 2.75 0 0 0-1.943-.807M80.15 12.707a5.5 5.5 0 1 1 0-10.999 5.5 5.5 0 0 1 0 10.999m0-9.164a3.666 3.666 0 1 0 2.59 1.073 3.67 3.67 0 0 0-2.59-1.076M5.082 75.937a4.582 4.582 0 1 1 0-9.163 4.582 4.582 0 0 1 0 9.163m0-7.332a2.75 2.75 0 1 0 0 5.5 2.75 2.75 0 0 0 0-5.5"/>
    <path fill="#2FDF84" d="M123.637 13.162a.92.92 0 0 1-.916.916h-3.208v3.208a.916.916 0 1 1-1.833 0v-3.207h-3.208a.917.917 0 0 1 0-1.833h3.208V9.038a.917.917 0 0 1 1.833 0v3.208h3.208a.92.92 0 0 1 .916.916M35.325 40.197a.67.67 0 0 1-.666.666h-2.334v2.333a.666.666 0 0 1-1.332 0v-2.333h-2.334a.667.667 0 0 1 0-1.333h2.334v-2.333a.666.666 0 1 1 1.332 0v2.334h2.333a.67.67 0 0 1 .667.666m164.75 34.825a.833.833 0 0 1-.833.832h-2.916v2.916a.83.83 0 0 1-.833.834.835.835 0 0 1-.833-.834v-2.915h-2.916a.833.833 0 1 1 0-1.666h2.916v-2.916a.834.834 0 0 1 1.666 0v2.916h2.916a.837.837 0 0 1 .833.833"/>
    <path fill="#EF5388" d="M107.604 67.81v46.5a3.23 3.23 0 0 0 3.23 3.229c.361 0 .697-.052 1.033-.155l15.5-5.167a3.27 3.27 0 0 0 2.196-3.074v-46.5a3.23 3.23 0 0 0-3.229-3.229c-.362 0-.698.052-1.034.155l-15.5 5.167a3.27 3.27 0 0 0-2.196 3.074"/>
    <path fill="#64B5F6" d="M105.667 67.81a5.19 5.19 0 0 1 3.498-4.904l15.52-5.174c3.506-1.077 6.815 1.509 6.815 4.91v46.501a5.19 5.19 0 0 1-3.498 4.903l-15.52 5.174a5.5 5.5 0 0 1-1.648.256 5.17 5.17 0 0 1-5.167-5.167m20.667-52.958c-.163 0-.308.02-.463.07l-15.456 5.154a1.33 1.33 0 0 0-.873 1.234v46.5c0 .876.917 1.478 1.754 1.222l15.456-5.153c.506-.173.873-.685.873-1.235v-46.5c0-.713-.578-1.292-1.291-1.292"/>
    <path d="M95.98 86.54H71.436a1.938 1.938 0 0 1 0-3.876H95.98a1.938 1.938 0 0 1 0 3.875"/>
    <path d="M86.291 96.227a1.938 1.938 0 0 1-1.37-3.31l8.32-8.318-8.319-8.316a1.938 1.938 0 1 1 2.741-2.74l9.688 9.687a1.94 1.94 0 0 1 0 2.74l-9.688 9.688c-.38.38-.876.569-1.372.569m24.543 23.249a5.17 5.17 0 0 1-5.167-5.166v-46.5a5.2 5.2 0 0 1 3.498-4.906l15.52-5.175c3.472-1.064 6.815 1.512 6.815 4.914v46.5a5.2 5.2 0 0 1-3.495 4.903l-15.526 5.177a5.4 5.4 0 0 1-1.645.253m15.5-58.125c-.168 0-.31.02-.463.067l-15.456 5.154a1.33 1.33 0 0 0-.873 1.237v46.501c0 .88.956 1.475 1.754 1.224l15.456-5.154c.504-.175.873-.687.873-1.237v-46.5c0-.71-.578-1.292-1.291-1.292"/>
    <path d="M92.105 70.393a1.94 1.94 0 0 1-1.938-1.937V64.58a7.11 7.11 0 0 1 7.104-7.104h29.063a1.938 1.938 0 0 1 0 3.875H97.271a3.233 3.233 0 0 0-3.229 3.229v3.875c0 1.07-.868 1.937-1.937 1.937m15.499 41.335H97.271a7.11 7.11 0 0 1-7.104-7.104v-3.875a1.938 1.938 0 0 1 3.875 0v3.875c0 1.78 1.45 3.229 3.23 3.229h10.332a1.938 1.938 0 0 1 0 3.875"/>
</svg>
