<svg xmlns="http://www.w3.org/2000/svg" width="200.208" height="150" viewBox="0 0 200.208 150">
    <path fill="none" d="M.004 0h200v150h-200z"/>
    <path fill="#45536d1a" d="M200.208 61.335a13.35 13.35 0 0 1-13.319 13.319h-60.2a12.786 12.786 0 1 0 0 25.572h43.685a8.524 8.524 0 0 1 0 17.048h-42.616a8.524 8.524 0 1 0 0 17.048h38.358a5.327 5.327 0 0 1 0 10.655h-92.7a5.327 5.327 0 0 1 0-10.655h14.916a8.524 8.524 0 0 0 0-17.048h-75.65a8.524 8.524 0 0 1 0-17.048h11.72a12.786 12.786 0 1 0 0-25.572h-6.925a13.319 13.319 0 0 1 0-26.637h63.929a9.057 9.057 0 0 0 0-18.113H54.769a7.99 7.99 0 0 1-7.522-5.327 7.7 7.7 0 0 1-.469-2.664 8 8 0 0 1 7.991-7.992h84.174a8.01 8.01 0 0 1 7.991 7.991 7.7 7.7 0 0 1-.469 2.664 7.975 7.975 0 0 1-7.522 5.327h-17.048a9.057 9.057 0 0 0 0 18.113h64.995a13.35 13.35 0 0 1 13.318 13.319"/>
    <path d="M104.475 139.632a53.612 53.612 0 0 1-34.7-94.477 2.291 2.291 0 0 1 2.967 3.492 49.03 49.03 0 1 0 69.209 68.992 2.291 2.291 0 1 1 3.5 2.957 53.53 53.53 0 0 1-40.974 19.036m51.318-51.323a2.29 2.29 0 0 1-2.291-2.291A49.074 49.074 0 0 0 92.11 38.56a2.291 2.291 0 0 1-1.152-4.435 53.655 53.655 0 0 1 67.128 51.892 2.29 2.29 0 0 1-2.291 2.291"/>
    <path fill="#1a496d" d="M42.158 122.678a2.749 2.749 0 1 0-2.749 2.749 2.75 2.75 0 0 0 2.749-2.749m20.16-96.226a1.833 1.833 0 1 0-1.833 1.833 1.83 1.83 0 0 0 1.833-1.833m98.059 120.053a1.833 1.833 0 1 0-1.833 1.833 1.83 1.83 0 0 0 1.833-1.833"/>
    <path fill="#ef5456" d="M171.374 122.678a6.415 6.415 0 1 1 6.415-6.415 6.42 6.42 0 0 1-6.415 6.415m0-11a4.582 4.582 0 1 0 4.585 4.585 4.587 4.587 0 0 0-4.582-4.582m-9.167-65.984a4.582 4.582 0 1 1 4.582-4.582 4.587 4.587 0 0 1-4.582 4.582m0-7.332a2.749 2.749 0 1 0 2.749 2.749 2.753 2.753 0 0 0-2.749-2.749M79.732 12.708a5.5 5.5 0 1 1 5.5-5.5 5.5 5.5 0 0 1-5.5 5.5m0-9.164a3.666 3.666 0 1 0 3.664 3.664 3.67 3.67 0 0 0-3.664-3.667M4.582 75.939a4.582 4.582 0 1 1 4.582-4.582 4.587 4.587 0 0 1-4.582 4.582m0-7.332a2.749 2.749 0 1 0 2.749 2.749 2.753 2.753 0 0 0-2.749-2.749"/>
    <path fill="#2fdf84" d="M123.262 13.163a.92.92 0 0 1-.916.916h-3.208v3.208a.917.917 0 1 1-1.833 0V14.08h-3.208a.917.917 0 1 1 0-1.833h3.208V9.039a.917.917 0 1 1 1.833 0v3.208h3.208a.92.92 0 0 1 .916.916M34.826 40.199a.67.67 0 0 1-.666.666h-2.334v2.333a.666.666 0 1 1-1.332 0v-2.333H28.16a.667.667 0 1 1 0-1.333h2.334v-2.333a.666.666 0 1 1 1.332 0v2.334h2.333a.67.67 0 0 1 .666.666m164.959 34.824a.835.835 0 0 1-.833.833h-2.916v2.916a.833.833 0 1 1-1.666 0v-2.916h-2.916a.833.833 0 0 1 0-1.666h2.916v-2.916a.833.833 0 0 1 1.666 0v2.916h2.916a.835.835 0 0 1 .833.833"/>
    <path fill="#ed5588" d="M101.161 70.023v43.3a2.25 2.25 0 0 1-.744 1.833 2.02 2.02 0 0 1-1.782.275l-11.988-2.947a3.8 3.8 0 0 1-1.013-.416 5.05 5.05 0 0 1-2.444-4.122v-43.3a2.25 2.25 0 0 1 .744-1.833 2.01 2.01 0 0 1 1.779-.275l11.991 2.945a4.93 4.93 0 0 1 3.457 4.541"/>
    <path d="M118.672 78.328a1.957 1.957 0 0 0 1.957-1.956V64.405a6.89 6.89 0 0 0-6.88-6.88H86.156a6.89 6.89 0 0 0-6.88 6.88v43.536a8.86 8.86 0 0 0 6.437 8.34l11.991 2.945a6.5 6.5 0 0 0 1.578.2 5.72 5.72 0 0 0 3.55-1.191 6.15 6.15 0 0 0 2.24-4.916v-1.229h8.669a6.89 6.89 0 0 0 6.88-6.88v-11.8a1.958 1.958 0 0 0-3.915 0v11.8a2.97 2.97 0 0 1-2.966 2.966h-8.668V70.025a8.86 8.86 0 0 0-6.44-8.34l-1-.245h16.1a2.97 2.97 0 0 1 2.966 2.966v11.963a1.957 1.957 0 0 0 1.954 1.959ZM97.705 65.484a4.93 4.93 0 0 1 3.457 4.541v43.294a2.25 2.25 0 0 1-.744 1.833 2.02 2.02 0 0 1-1.782.275l-11.988-2.948a3.8 3.8 0 0 1-1.013-.416 5.05 5.05 0 0 1-2.444-4.124V64.645a2.25 2.25 0 0 1 .744-1.833 2.01 2.01 0 0 1 1.779-.275Z"/>
    <path fill="#45536d4d" d="m90.266 113.37-3.619-.891a4.93 4.93 0 0 1-3.457-4.539v-43.3a2.25 2.25 0 0 1 .744-1.833 2.01 2.01 0 0 1 1.779-.275l1.143.282v44.172a7.88 7.88 0 0 0 3.41 6.379"/>
    <path d="M141.42 84.923q.002.075-.007.154v.047a2 2 0 0 1-.022.152c-.01.052-.025.113-.039.169s-.034.113-.056.169a2 2 0 0 1-.078.179q-.037.076-.081.145c-.044.069-.066.1-.1.152s-.076.092-.117.142l-9.05 9.968a1.957 1.957 0 0 1-2.935-2.59l.038-.043 6.06-6.674-20.029.049a1.958 1.958 0 0 1 0-3.915l20.023-.049-6.048-6.579a1.957 1.957 0 0 1 2.882-2.648l9.048 9.843a2 2 0 0 1 .127.152 2 2 0 0 1 .183.3l.015.025q.034.075.063.152a2 2 0 0 1 .1.345 1 1 0 0 1 .022.152v.041c0 .051.007.105.007.157"/>
</svg>
