<svg xmlns="http://www.w3.org/2000/svg" xmlns:xlink="http://www.w3.org/1999/xlink" width="421.997"
    height="421.975" viewBox="0 0 421.997 421.975">
    <defs>
        <linearGradient id="linear-gradient" x1="0.146" y1="0.134" x2="0.854" y2="0.842"
            gradientUnits="objectBoundingBox">
            <stop offset="0" stop-color="#ffae4e" />
            <stop offset="0.2" stop-color="#ffce00" />
            <stop offset="0.375" stop-color="#ffae4e" />
            <stop offset="0.621" stop-color="#ffce00" />
            <stop offset="0.811" stop-color="#ffae4e" />
            <stop offset="1" stop-color="#ffce00" />
        </linearGradient>
    </defs>
    <g id="premium_icon" transform="translate(-199.115 -201.43)">
        <path id="Path_19135"
            d="M615.9,458.4c8.2,23.9-.1,49.6-21.1,63.4-3.4,2.2-8.8,4.7-16.3,7.5-9,3.3-17.9,6.8-26.9,10.2-6.5,2.5-11.2,5.9-13.5,12-3.5,9.3-7.1,18.7-10.6,28-3.2,8.5-6,14.6-8.4,18.1-11.8,17.8-33.6,26.7-54.6,22.9-4-.7-9.2-2.5-15.6-5.3-9.9-4.4-19.7-8.8-29.5-13.4-8.1-3.8-13.8-2.1-22.4,1.8-8.8,4-17.7,8-26.5,12-25.7,11.6-54.7,5.4-70.1-19-2.1-3.4-4.9-9.5-8.2-18.2-3-8.2-6.1-16.3-9.2-24.4-2.9-7.7-6.1-11.1-14-14.3-9-3.6-18.2-6.8-27.3-10.3a104.528,104.528,0,0,1-14.1-6.3c-24.4-14.5-32.8-44-21.1-69.6,3.8-8.4,7.6-16.8,11.3-25.2,4.9-11,7.4-15.3,2.6-25.8-3.8-8.2-7.5-16.5-11.2-24.7s-6-14.5-6.9-18.7c-4.4-20.7,4.2-43.2,22.2-55.3,3.4-2.3,8.8-4.8,16.2-7.7q12.75-4.95,25.5-9.6c9.9-3.7,14.4-7.1,17.5-17,1.3-4.2,4.5-12.7,9.6-25.8,3.2-8,6-13.8,8.5-17.4a54.084,54.084,0,0,1,53.4-21.9c11.5,2.1,25.6,9.6,37.5,15,11.4,5.1,16.2,8.4,26.7,3.7,8.5-3.8,17-7.7,25.5-11.5,8.4-3.8,14.6-6.1,18.7-7a54.029,54.029,0,0,1,56.5,24.2c2,3.3,4.6,9.3,8,18.3l9.3,24.6c3.2,8.4,7.4,11,16.2,14.4l26.7,10.2c6.8,2.6,11.8,5,15.2,7.3A53.794,53.794,0,0,1,618,358.8c-2.3,11.2-9.7,24.9-15,36.5-5.4,11.9-8,16.6-2.8,28.1,5.2,11.3,12.8,26.5,15.7,35Z"
            stroke="#594a0a" stroke-miterlimit="10" stroke-width="4" fill="url(#linear-gradient)" />
        <path id="Path_19136"
            d="M514.5,387.8c-5.1,29.7-10.3,59.4-15.3,89.1-1.5,9-8.5,10-16.9,10H332.8a13.979,13.979,0,0,1-8-2.7c-4.5-4.4-4.2-8.9-5.3-14.8q-4.8-27-9.3-54.2c-2.7-14.6-4.5-25.9-5.7-33.8a11.465,11.465,0,0,1,3.6-9.9c3.7-3.4,8.4-3.7,13.9-1.1q21.15,10.05,42.1,20.3c.2.1.3,0,.4-.1,11.4-20.6,22.9-41.2,34.3-61.7a21.842,21.842,0,0,1,4.2-5.7c4.5-3.3,12.4-2.8,15.7,1.6.5.8,1.7,2.6,3.4,5.5l33.4,60c.2.3.4.4.6.2,14.8-7.1,29.5-14.3,44.3-21.6.7-.4,2.2-.6,4.6-.8,5.6,1.1,8.9,3.9,10.2,8C515.7,378.5,515.5,382.3,514.5,387.8Z"
            fill="#594a0a" />
    </g>
</svg>
