<svg xmlns="http://www.w3.org/2000/svg" width="27" height="34" fill="none" viewBox="0 0 27 34" xmlns:xlink="http://www.w3.org/1999/xlink"><g clip-path="url(#a)"><path fill="url(#b)" d="M25.286 12.267c0-2.294-.678-4.536-1.95-6.444a11.57 11.57 0 0 0-5.19-4.27A11.54 11.54 0 0 0 5.54 4.065a11.625 11.625 0 0 0-2.507 12.639 11.6 11.6 0 0 0 4.26 5.205A11.545 11.545 0 0 0 21.9 20.466a11.6 11.6 0 0 0 3.387-8.2"/><path fill="#000" d="M14.392.67a.67.67 0 0 0-.798-.657.667.667 0 0 0-.486.913.67.67 0 0 0 1.089.217.67.67 0 0 0 .195-.474"/><path fill="#000" d="M13.725 25.263c-.086.142-.148.239-.2.339l-3.87 6.815q-.083.14-.161.28a.66.66 0 0 1-.668.412.67.67 0 0 1-.587-.523 639 639 0 0 0-1.353-3.83c-.05-.139-.104-.277-.167-.444l-2.022.416c-.745.154-1.495.3-2.236.467a.7.7 0 0 1-.783-.215.69.69 0 0 1 .02-.84q1.752-3.085 3.497-6.174c.31-.544.3-.54-.133-.985a12.08 12.08 0 0 1-3.534-7.655 12.27 12.27 0 0 1 2.17-8.075A12.2 12.2 0 0 1 10.531.457c.576-.156 1.01.155.938.678a.68.68 0 0 1-.585.564 9.6 9.6 0 0 0-2.692 1.123 10.65 10.65 0 0 0-4.24 4.409 10.7 10.7 0 0 0-1.123 6.02 10.86 10.86 0 0 0 2.51 6.162 10.8 10.8 0 0 0 5.629 3.53 10.94 10.94 0 0 0 8.137-1.285 11 11 0 0 0 4.947-6.604c.73-2.763.358-5.702-1.038-8.194a10.97 10.97 0 0 0-6.436-5.155c-.299-.082-.545-.21-.605-.545-.091-.509.336-.863.88-.72 1.002.248 1.963.638 2.854 1.16a12 12 0 0 1 4.753 4.732 12.03 12.03 0 0 1 1.474 6.552 11.7 11.7 0 0 1-3.705 8.233.446.446 0 0 0-.1.665c1.196 2.078 2.37 4.169 3.55 6.255.033.056.063.114.1.168a.64.64 0 0 1-.018.783.67.67 0 0 1-.724.221c-1.332-.282-2.668-.547-3.998-.84-.258-.057-.35 0-.434.245-.441 1.29-.907 2.575-1.357 3.862-.113.321-.255.606-.639.636-.367.029-.55-.217-.712-.5a2446 2446 0 0 0-3.962-6.984c-.058-.1-.119-.2-.208-.359m-4.705 5.646 3.616-6.374c-2.208-.207-4.32-1-6.12-2.298L3.46 27.648c.155-.02.24-.026.323-.043l3.09-.643c.518-.108.75.023.93.53q.447 1.273.904 2.552c.1.27.199.537.318.87m5.78-6.373 3.612 6.366c.064-.164.105-.26.14-.359l1.096-3.097a.666.666 0 0 1 .897-.493q1.103.23 2.204.457c.39.08.78.154 1.233.244l-3.068-5.417a12.4 12.4 0 0 1-6.117 2.298"/><path fill="#000" d="M23.627 12.308a9.95 9.95 0 0 1-1.668 5.517 9.9 9.9 0 0 1-4.444 3.658A9.88 9.88 0 0 1 6.72 19.334a9.96 9.96 0 0 1-2.153-10.82 9.93 9.93 0 0 1 3.644-4.46 9.9 9.9 0 0 1 5.5-1.677 9.9 9.9 0 0 1 7.006 2.91 9.96 9.96 0 0 1 2.91 7.021m-9.92 8.61a8.57 8.57 0 0 0 4.773-1.442 8.6 8.6 0 0 0 3.17-3.856 8.63 8.63 0 0 0-1.84-9.386 8.565 8.565 0 0 0-9.352-1.887A8.6 8.6 0 0 0 6.596 7.51a8.63 8.63 0 0 0-1.459 4.778 8.64 8.64 0 0 0 2.506 6.091 8.6 8.6 0 0 0 6.064 2.54"/><path fill="#FF641A" d="M9.022 30.915c-.122-.334-.222-.6-.318-.871a438 438 0 0 0-.904-2.552c-.181-.509-.413-.638-.93-.53q-1.545.32-3.09.643c-.082.017-.168.023-.323.043l3.058-5.407a12.45 12.45 0 0 0 6.12 2.298L9.02 30.913m5.784-6.374a12.4 12.4 0 0 0 6.117-2.298l3.068 5.417c-.452-.09-.843-.164-1.233-.244q-1.103-.227-2.204-.458a.665.665 0 0 0-.896.494c-.37 1.032-.733 2.065-1.097 3.097-.035.1-.075.2-.14.359l-3.612-6.366"/><path fill="#000" d="M13.934 17.815a1 1 0 0 0 .77-.335 1.28 1.28 0 0 0 .304-.894L15 8.063a1.38 1.38 0 0 0-.286-.932.93.93 0 0 0-.735-.328c-.22.01-.433.08-.617.2L10.666 8.6a.74.74 0 0 0-.399.656.8.8 0 0 0 .213.55.67.67 0 0 0 .518.237.67.67 0 0 0 .389-.115l1.478-.91.008 7.523c-.022.341.085.678.299.944a.98.98 0 0 0 .762.33"/></g><defs><linearGradient id="b" x1="4.166" x2="21.96" y1="3.012" y2="22.448" gradientUnits="userSpaceOnUse"><stop stop-color="#FFE9B8"/><stop offset="1" stop-color="#E7B033"/></linearGradient><clipPath id="a"><path fill="#fff" d="M.5 0h26v34H.5z"/></clipPath></defs></svg>