<svg xmlns="http://www.w3.org/2000/svg" width="24" height="24" viewBox="0 -960 960 960"><path d="M320-120q-33 0-56.5-23.5T240-200v-560q0-33 23.5-56.5T320-840h320q33 0 56.5 23.5T720-760v560q0 33-23.5 56.5T640-120zm320-80v-560H320v560zM480-640q17 0 28.5-11.5T520-680t-11.5-28.5T480-720t-28.5 11.5T440-680t11.5 28.5T480-640M0-400v-160q0-17 11.5-28.5T40-600t28.5 11.5T80-560v160q0 17-11.5 28.5T40-360t-28.5-11.5T0-400m120 80v-320q0-17 11.5-28.5T160-680t28.5 11.5T200-640v320q0 17-11.5 28.5T160-280t-28.5-11.5T120-320m760-80v-160q0-17 11.5-28.5T920-600t28.5 11.5T960-560v160q0 17-11.5 28.5T920-360t-28.5-11.5T880-400m-120 80v-320q0-17 11.5-28.5T800-680t28.5 11.5T840-640v320q0 17-11.5 28.5T800-280t-28.5-11.5T760-320M320-200v-560z"/></svg>