<svg xmlns="http://www.w3.org/2000/svg" width="141.358" height="141.811" viewBox="0 0 141.358 141.811"><g fill="#75757c"><path d="M86.271 71.117c.036-.068.055-.129.087-.2.052-.132-.1.233-.087.2"/><path d="M90.034 72.928c.023-1.814-2.814-3.93-3.788-1.71-.594.152-1.494.481-1.262 1.268-1.9 1.775.532 6.789 2.888 4.379 2.062.3 2.488-2.42 2.159-3.937Z"/></g><path fill="#75757c" d="M58.507 71.96c-.749-1.749-3.73-1.152-4.785-.129a12.3 12.3 0 0 0-.933 5.015c1.91 3.547 6.373-2.572 5.718-4.886"/><path fill="#ba8b54" d="m87.594 103.419-.013-.019-.035.026c.258-.494.513-.987.774-1.475.455-.852-.549-2.143-1.455-1.455-.652.494-1.32.968-1.991 1.436.629-1.007 1.252-2.017 1.885-3.02.545-.871-.6-2.152-1.484-1.484a98 98 0 0 1-3.227 2.3c.494-.733.994-1.462 1.523-2.172.623-.833-.587-1.965-1.413-1.413q-.876.586-1.755 1.171.653-.869 1.31-1.723a.874.874 0 0 0-1.236-1.236c-1.142.907-2.327 1.739-3.53 2.549.771-1.071 1.539-2.146 2.336-3.2.758-1-.807-2.007-1.649-1.271q-1.375 1.205-2.743 2.433c.307-.4.613-.791.916-1.187a1.078 1.078 0 0 0-1.523-1.523q-1.825 1.462-3.643 2.933c.219-.252.429-.513.655-.762a.849.849 0 0 0-1.2-1.2l-6.509 5.444c-.313.261-.636.507-.955.758q2.144-3.214 4.285-6.428c.745-1.12-.891-2.288-1.817-1.4l-5.837 5.566a.722.722 0 0 0-1.162-.261c-2.394 2.63-4.682 5.331-6.993 8.035a1.091 1.091 0 0 0 1.542 1.542q3.267-3.078 6.541-6.154l-2.546 3.779c-.807 1.2.9 2.259 1.875 1.446a47 47 0 0 0 2.007-1.788 1.217 1.217 0 0 0 2.049.875c1.865-1.6 3.759-3.169 5.663-4.727a35 35 0 0 0-1.8 2.388c-.771 1.136.926 2.372 1.865 1.439.829-.82 1.678-1.623 2.536-2.417a1.277 1.277 0 0 0 2.11 1.268q.183-.148.361-.307c-.687.949.7 2.288 1.642 1.62.923-.652 1.836-1.313 2.756-1.968a51 51 0 0 0-1.365 1.865c-.681.981.7 2.414 1.684 1.684 1.065-.787 2.127-1.588 3.188-2.388-.6.875-1.184 1.755-1.746 2.656-.61.984.674 2.443 1.681 1.681.813-.616 1.626-1.242 2.44-1.862a44 44 0 0 0-1.117 1.939 1.27 1.27 0 0 0 1.985 1.533c.455-.368.916-.723 1.375-1.078a2 2 0 0 1-.023.168c-.287 1.262 1.642 2.249 2.21.933a6.5 6.5 0 0 0 .432-1.01 4.3 4.3 0 0 0-.032-.958 2.06 2.06 0 0 1 .71-1.575c1.165-1.026-.329-2.64-1.552-2.007Z"/><g fill="#eac485"><path d="M63.321 106.339a59 59 0 0 0-6.392 1.016q-5.421 7.048-10.691 14.2c-.845 1.146 1.075 2.643 1.985 1.533 4.74-5.792 9.752-11.355 14.976-16.709.042-.008.08-.03.122-.04"/><path d="M127.433 57.747c.177-.494-.442-.9-.855-.658a14.4 14.4 0 0 0-3.13 2.82q-1.622 1.733-3.195 3.511c-2.049 2.317-4.114 4.621-6.173 6.928-4.13 4.621-8.141 9.345-12.307 13.931a.614.614 0 0 0 .361 1.026q-5.837 6.428-11.71 12.824l-.077-.048q10.111-12.241 20.21-24.5 5.363-6.525 10.729-13.05a1.504 1.504 0 0 0-2.127-2.127q-2.662 2.314-5.25 4.711c2.8-3.291 5.621-6.573 8.354-9.923 1.223-1.5-.755-3.6-2.168-2.168q-1.592 1.612-3.182 3.227a4 4 0 0 0 .316-.942.642.642 0 0 0-.781-.781l-.061.023c.442-.452.891-.9 1.329-1.355 1.329-1.381 3.124-2.859 3.876-4.644a.965.965 0 0 0-1.181-1.181 6.6 6.6 0 0 0-1.2.674c-.039-.9-1.087-1.814-1.952-1.158a1.3 1.3 0 0 0-.81-.132 63 63 0 0 0 2.478-4.789 1.533 1.533 0 0 0-2.394-1.849l-.307.239a9 9 0 0 0 1.117-2.32.665.665 0 0 0-.965-.742c-1.843.926-3.3 2.888-4.627 4.424q-2.193 2.541-4.353 5.115-4.313 5.16-8.519 10.4-.231.293-.461.581c-.523.594-1.039 1.191-1.571 1.778l-10.82 11.952a4.5 4.5 0 0 1 3.046-.871 3.01 3.01 0 0 1 2.949 2.949 3.14 3.14 0 0 1-1.672 2.669 2.965 2.965 0 0 1 1.065 3.114 2.5 2.5 0 0 1-.158.4q1.873-2.275 3.769-4.534 3.921-3.509 7.709-7.17c-.216.239-.436.478-.652.72-4.608 5.118-9.129 10.336-13.317 15.8a.56.56 0 0 0-.116.3l-4.8 4.869-2.594 2.633q.474-.629.952-1.252 3.959-5.15 8.064-10.181a2.88 2.88 0 0 1-2.491.474 5.689 5.689 0 0 1-1.981-9.758c.645-.807 1.3-1.61 1.936-2.42a1.32 1.32 0 0 0 .074-1.559q11.249-12.348 22.262-24.905a1.306 1.306 0 0 0 .071-1.736 97 97 0 0 0 2.291-2.591 11.9 11.9 0 0 0 2-2.746.892.892 0 0 0-1.21-1.21 11.7 11.7 0 0 0-2.607 2.143c-.8.768-1.578 1.562-2.352 2.356q-2.469 2.512-4.844 5.128a212 212 0 0 0-4.685 5.311 725 725 0 0 0-4.915 4.537c.074-.094.148-.184.223-.278a1.3 1.3 0 0 0 .294-.723c.5-.561 1.01-1.117 1.507-1.684a126 126 0 0 0 11.433-15.1c.8-1.255-.962-2.485-1.994-1.539q-2.27 2.072-4.547 4.134 3.64-3.814 7.283-7.622c.991-1.036-.568-2.6-1.575-1.575q-1.171 1.191-2.346 2.381a1.317 1.317 0 0 0-2.152-.742q-8.688 7.343-17.044 15.07a369 369 0 0 0 5.6-5.318c2.014-1.965 3.992-3.972 5.97-5.973 2.02-2.039 4.169-4.063 5.983-6.292a1.215 1.215 0 0 0-1.717-1.717c-2.143 1.794-4.079 3.914-6.038 5.9q-.653.665-1.3 1.329c.933-1.171 1.865-2.349 2.8-3.521a1.336 1.336 0 0 0-1.888-1.888q-11.181 9.448-21.807 19.529 5.276-5.431 10.6-10.82 8.011-8.083 16.154-16.038c1.01-.984-.371-2.917-1.555-2.014q-.129.103-.258.2s0 0-.006.006C78.497 32.211 61.853 49.347 45.886 66.978c-.7.778-1.4 1.562-2.1 2.343 2.8-3.972 5.712-7.864 8.677-11.717a29 29 0 0 0 3.834-3.476q2.081-1.955 4.134-3.943a299 299 0 0 0 8.038-8.122c5.218-5.457 10.22-11.123 15.06-16.915a85 85 0 0 0 7.754-10.074.518.518 0 0 0-.81-.626c-2.707 2.533-5.04 5.512-7.528 8.258-2.556 2.82-5.111 5.637-7.732 8.4q-4.255 4.492-8.651 8.842 1.805-2.207 3.608-4.418c1.513-1.375 3.024-2.749 4.566-4.092a.583.583 0 0 0-.413-1c3.666-4.511 7.315-9.042 10.988-13.55a1.3 1.3 0 0 0-1.836-1.836 306.4 306.4 0 0 0-32.913 32.164c5.647-7.19 11.462-14.25 17.367-21.233 3.724-4.4 7.39-8.861 11.152-13.237a1.265 1.265 0 0 0-1.788-1.788c-8.913 7.925-17.316 16.38-25.444 25.1q4.322-5.131 8.722-10.2 4.971-5.736 9.952-11.465c.878-1.016-.307-2.92-1.546-2-.087.065-.171.136-.258.2a224 224 0 0 0-18.86 15.854c.278-.326.549-.658.829-.981q5.034-5.854 10.162-11.619c.884-.994-.323-2.878-1.52-1.968-.084.065-.165.136-.252.2l-.016.019a146 146 0 0 0-9.287 7.754 321 321 0 0 1 5.386-5.686c.962-.991-.355-2.9-1.536-1.991-.087.065-.171.136-.255.2l-.01.01q-6.375 4.889-12.469 10.22a.57.57 0 0 0-.42.155c-4.466 3.972-8.732 8.148-12.84 12.478-.962 1-1.907 2.02-2.846 3.04-.374.41-.755.81-1.123 1.223a173 173 0 0 0-4.83 5.546c-.991 1.178.665 2.882 1.71 1.71 6.1-6.838 12.459-13.382 19.161-19.562Q28.597 41.909 18.735 55.647c-.916 1.284 1.188 2.927 2.2 1.7 4.753-5.763 9.374-11.6 14.334-17.2 3.592-4.05 7.293-8.009 11.159-11.8-7.831 9.024-15.485 18.2-22.846 27.6q-4.729 6.036-9.316 12.178c-.955 1.288.971 2.5 2.068 1.588l.026.026q4.327-5.518 8.677-11.01a282 282 0 0 1 31.992-33.5c.8-.7 1.6-1.384 2.407-2.072q-4.264 4.894-8.448 9.849a1.144 1.144 0 0 0-1.846-.158 315.4 315.4 0 0 0-33.785 43.226c-.958 1.446 1.113 2.849 2.307 1.778 5.333-4.795 10.384-10.019 15.333-15.211-.339.5-.684.987-1.02 1.484q-6.53 9.661-12.517 19.681c-.707 1.187 1.013 2.6 1.959 1.51 1.788-2.065 3.6-4.1 5.424-6.128a159 159 0 0 0-4.927 7.693c-.707 1.181 1.029 2.617 1.956 1.51q6.017-7.178 12.023-14.363-6.515 9.2-13.014 18.413c-.794 1.129 1 2.507 1.914 1.478q.207-.233.413-.461c-.407.968.345 2.294 1.552 1.894a16.7 16.7 0 0 0 3.085-1.4c-.245.316-.5.623-.742.942-1.339 1.736-2.975 3.611-3.711 5.7a.477.477 0 0 0 .694.532c1.868-1.2 3.337-3.217 4.763-4.889q2.328-2.735 4.66-5.47c.642-.755 1.3-1.5 1.949-2.249-2.107 3.275-4.163 6.589-5.976 10.032a1.073 1.073 0 0 0 .587 1.594q-1.4 1.786-2.759 3.611c-.833 1.126.852 2.194 1.81 1.391l.023.023c3.34-3.976 6.509-8.1 9.771-12.146q3.485-4.09 7.1-8.077c-3.262 4.134-6.5 8.28-9.787 12.395a1.316 1.316 0 0 0 .213 1.836c-.42.513-.829 1.033-1.249 1.549a361 361 0 0 0-6.115 7.6c-.984 1.262.771 3.062 1.784 1.784q7.043-8.887 14.36-17.554a84 84 0 0 0-5.089 10.549 1 1 0 0 0-.032.087l-4.5 6c-.6.794.6 1.817 1.323 1.32-.352.639-.7 1.278-1.042 1.926a1.153 1.153 0 0 0 1.8 1.391c1.317-1.329 2.623-2.665 3.94-3.995a2.5 2.5 0 0 0 1.039.155q-1.544 2.106-3.088 4.208c-.713.971.855 2.156 1.659 1.281l8.429-9.155a2.82 2.82 0 0 1-.774-3.7c3.911-7.167 12.388-10.665 20.284-10.723a20.93 20.93 0 0 1 11.328 2.947c4.23 2.694 6.183 6.925 8.3 11.284a2.967 2.967 0 0 1-1.8 4.272q-.126.173-.252.342a103 103 0 0 1-8.267 8.061q1.37-1.617 2.785-3.195c1.8-1.684 3.572-3.4 5.337-5.128a3.2 3.2 0 0 1-1.839-.316 40 40 0 0 0-7.654-2.794q-2.319 2.841-4.64 5.679-1.152 1.167-2.307 2.327 2.193-2.793 4.46-5.528c.716-.862 1.452-1.7 2.181-2.556a41.5 41.5 0 0 0-5.489-.968q-.5.6-1 1.191a1.5 1.5 0 0 0-.213.329c-.629.61-1.262 1.213-1.891 1.823.926-1.136 1.885-2.246 2.827-3.369a47.3 47.3 0 0 0-8.335-.094q-6.225 8.03-12.111 16.309c-.813 1.146 1.052 2.6 1.959 1.513q4.008-4.792 8.212-9.426-3.088 4.042-6.06 8.164c-.9 1.258 1.042 2.646 2.1 1.617q5.794-5.649 11.636-11.246c-1.007 1.291-2 2.585-2.978 3.9-2.294 3.091-4.3 6.318-6.376 9.555-.716 1.117.9 2.33 1.82 1.4q3.316-3.335 6.625-6.676-1.1 1.491-2.181 2.991a1.222 1.222 0 0 0 1.046 1.823 7.84 7.84 0 0 0 4.247-1.217q-.176.236-.352.478c-.681.945.681 2.317 1.626 1.626 1.872-1.365 3.7-2.8 5.489-4.282l-.461.578a1.1 1.1 0 0 0 1.326 1.72 55 55 0 0 0 5.305-3.3 26 26 0 0 0-1.058 2.582c-.4 1.146 1.075 1.707 1.849 1.078q2.478-2.023 4.921-4.092a1.344 1.344 0 0 0 2.3.894q5.794-5.847 11.565-11.717l-2.536 3.379c-.949 1.265.839 2.688 2.036 2.036q.649-.353 1.294-.707a1.333 1.333 0 0 0 .639-1.7c4.269-5.725 8.548-11.443 12.743-17.219.926-1.278-1.091-2.769-2.159-1.665-.8.826-1.607 1.639-2.411 2.462q3.006-3.6 5.989-7.225c1.133-1.378-.687-3.311-2-2q-3.412 3.427-6.86 6.825.858-.875 1.72-1.749 6.66-6.583 13.292-13.192a1.45 1.45 0 0 0-2.049-2.049c-10.174 9.99-20.265 20.071-30.378 30.126a185 185 0 0 1 5.131-6.231c5.192-6.054 10.549-11.972 15.841-17.938l9.252-10.436c1.22-1.375-.7-3.34-2.03-2.03q-14.957 14.72-29.8 29.562c1.326-1.575 2.675-3.133 4.011-4.7a.64.64 0 0 0 .736-.148c2.63-2.436 5.157-5.05 7.664-7.615 2.572-2.633 5.137-5.27 7.645-7.967q3.684-3.959 7.315-7.961c2.381-2.63 5.115-5.247 6.783-8.4.3-.565-.326-1.3-.92-.92a21.4 21.4 0 0 0-3.117 2.472 1.57 1.57 0 0 0-.523-.768 98 98 0 0 0 2.5-3.088 14.6 14.6 0 0 0 2.481-3.892ZM72.276 28.51c.287-.274.578-.542.865-.813q-4.7 5.75-9.4 11.514c-4.124 3.549-8.2 7.153-12.144 10.906-.126.119-.248.242-.374.361 6.747-7.577 13.7-14.963 21.046-21.969ZM40.439 55.835c1.51-2.152 3.014-4.331 4.6-6.434q1.137-1.384 2.227-2.8l.048-.061.013-.019q.084-.11.168-.216l-.019-.01a1.21 1.21 0 0 0-.2-1.381q6.418-7.13 13.059-14.047c-6.838 8.149-13.529 16.423-19.902 24.968Zm21.327 16.018q3.558-4.419 7.106-8.842 4.342-4.337 8.78-8.58-8.049 8.616-15.886 17.422m3.153.778-14.8 19.823.074-.132a113 113 0 0 1 7.8-11.526c1.4-1.833 2.856-3.624 4.334-5.392q1.292-1.389 2.591-2.772Zm2.359-24.684c-1.513 1.562-3.011 3.133-4.518 4.7l-.458.368q2.473-2.545 4.976-5.068M43.824 83.319c.636-.942 1.265-1.891 1.92-2.827 1.82-2.6 3.692-5.17 5.583-7.719.3-.326.594-.655.891-.981a2.97 2.97 0 0 1 2.079-2.333c.016-.006.032 0 .048-.01 2.843-3.133 5.557-6.351 8.283-9.577q6.312-6.389 12.833-12.559c-6.948 7.1-13.588 14.5-20.039 22.059a2.965 2.965 0 0 1 2.507 2.149 7.72 7.72 0 0 1-1.3 6.105 3.026 3.026 0 0 1-4.032 1.059 2.97 2.97 0 0 1-1.057-4.038 8 8 0 0 0 .494-.787c.032-.055.058-.113.087-.171.006-.019.013-.035.023-.068a3 3 0 0 0 .1-.348v-.132q-4.245 5.053-8.409 10.178Zm13.689 9.145q-6.568 6.66-13.133 13.324 2.018-3.132 4.243-6.121a1.25 1.25 0 0 0 1.055-.374q5.426-5.489 10.862-10.965-1.515 2.066-3.027 4.136m11.885-20a316 316 0 0 0-7.567 7.709q4.458-5.9 8.916-11.794l2.081-2.756a1.5 1.5 0 0 0 .484-.3Q85.606 54.03 97.966 42.796c-3.366 4.185-6.98 8.158-10.717 12.023Q78.091 63.4 69.397 72.46Zm11.258-4.117q4.918-4.8 9.89-9.539-9.206 10.208-18.581 20.259l8.687-10.72Zm-2.094 16.648a1.4 1.4 0 0 0 .129-.419q.508-.615 1.016-1.226a1.3 1.3 0 0 0 .2.113l-1.349 1.533Zm17.877-22.043q1.985-2.425 3.963-4.85 4.874-5.566 9.807-11.084a1.6 1.6 0 0 0 .374-.729q1.21-.91 2.423-1.8a102 102 0 0 1-5.779 8.545q-5.552 4.779-10.788 9.92Zm7.867 13.6L91.769 91.877a1.56 1.56 0 0 0-.758-1.107c4.341-4.823 8.752-9.584 13.295-14.212ZM87.729 87.365l9.574-9.477q-4.492 5.3-8.974 10.61a1.47 1.47 0 0 0-.6-1.133m-16.318 35.509q1.6-2.106 3.24-4.172a1.4 1.4 0 0 0 .161 1.491 20.5 20.5 0 0 1-3.401 2.687Zm25.3-22.246c-.632.745-1.252 1.5-1.875 2.252a1.5 1.5 0 0 0-.171-.239q1.026-1.007 2.046-2.017Zm3.037 9.839-2.933 3.524-.152.126c-1.181.991-2.378 1.968-3.569 2.949q3.325-3.3 6.654-6.6Z"/><path d="M48.171 117.082q4.313-4.874 8.671-9.71c-.158.035-.313.061-.471.1a2.92 2.92 0 0 1-2.44-.426 3.1 3.1 0 0 1-1.746-.361q-1.05 1.295-2.1 2.585a1.414 1.414 0 0 0 .2 2 185 185 0 0 0-3.643 4.634c-.668.878.8 2 1.53 1.181Z"/></g><g fill="#262c54"><path d="M11.642 65.232c.545-3.282 1.152-7.177 1.872-11.052a7 7 0 0 1 1.171-2.972 2.85 2.85 0 0 1 2.236-.765c.42.042 1.013 1.02 1.055 1.61a9.4 9.4 0 0 1-.5 2.62 58.13 58.13 0 0 0 19.326 56.829c8.167 6.751 17.074 11.82 27.629 13.947 8.445 1.7 16.535 1.1 24.208-2.649 4.5-2.2 8.667-5.069 12.943-7.7 1.375-.845 2.591-1.943 3.93-2.849 1.081-.732 2.452-1.394 3.227.1a3 3 0 0 1-.7 2.759c-9.513 8.016-19.92 14.44-32.692 15.228-9.71.6-18.952-1.994-27.532-6.467a73.9 73.9 0 0 1-20.023-15.4c-8.493-9.148-12.895-20.226-14.9-32.366-.555-3.362-.8-6.78-1.262-10.868Zm113.891 2.003c.281-12.7-4.989-23.392-13.046-32.727a108 108 0 0 0-13.853-12.746c-6.941-5.65-15.118-8.122-24.063-8.074a16.6 16.6 0 0 1-3.74-.226 2.07 2.07 0 0 1-1.2-1.536 2.06 2.06 0 0 1 1-1.672 11.6 11.6 0 0 1 3.669-.6c7.315-.048 14.382 1.284 20.726 5.011 11.672 6.864 21.259 15.893 27.942 27.832a50.42 50.42 0 0 1 5.931 33.831 83 83 0 0 1-7.232 22.5 37.5 37.5 0 0 1-2.746 4.634c-.794 1.181-1.736 2.607-3.437 1.439-1.41-.971-.613-2.23 0-3.337.436-.787.965-1.52 1.388-2.31 5.3-9.987 8.655-20.507 8.661-32.014Z"/><path d="M70.343 89.243c.487.294 2.711.929 2.833 1.846.313 2.333-1.936 1.862-3.456 2a22.55 22.55 0 0 0-17.138 9.949 5.9 5.9 0 0 0-.494 2 5.7 5.7 0 0 0 1.975.207 46.1 46.1 0 0 1 22.466-.339c3.659.845 7.19 2.246 10.778 3.395 1.271.407 1.71-.239 1.488-1.349-.636-3.127-2.507-5.547-4.7-7.722-1.275-1.262-2.84-2.252-4.011-3.595-.581-.665-.571-1.843-.829-2.788.965-.123 2.217-.694 2.853-.294 5.35 3.366 9.377 7.854 10.829 14.192.445 1.939.478 3.992-1.242 5.515-1.83 1.62-3.763.884-5.547-.01-6.431-3.227-13.288-4.376-20.4-4.408a31.8 31.8 0 0 0-13.692 2.543c-1.359.626-2.659 1.22-3.988.032a4.11 4.11 0 0 1-1.11-4.45 20 20 0 0 1 .8-2.575c3.095-7.425 13.492-14.253 22.585-14.153ZM0 66.151A73.6 73.6 0 0 1 6.712 38.07a12.5 12.5 0 0 1 1.981-3.153 2.03 2.03 0 0 1 1.92-.187 2.04 2.04 0 0 1 .887 1.696 18 18 0 0 1-1.258 3.53c-10 23.676-7.883 46.258 6.079 67.791a15 15 0 0 1 1.755 3.291 2.06 2.06 0 0 1-.726 1.807 2 2 0 0 1-1.92-.084 19.7 19.7 0 0 1-2.74-3.282C4.676 97.865.023 82.747 0 66.151m141.322 7.909c-1.507 21.885-11.562 38.965-29.155 51.8-1.242.907-2.472 2.4-4.25 1.01-1.149-.9-.581-2.088 1.878-4.227 3.253-2.83 6.609-5.557 9.694-8.561a52.1 52.1 0 0 0 15.683-29.449c.639-3.9 1.455-7.764 2.181-11.649.236-1.252.4-2.723 2.056-2.652 1.985.087 1.949 1.726 1.949 3.2 0 .181-.019.358-.032.539ZM40.346 84.718c-.632-.41-1.972-.82-2.152-1.523a3.14 3.14 0 0 1 1.265-2.552c2.659-1.839 5.589-3.291 8.216-5.176 3.356-2.407 3.521-4.069.607-6.973-1.617-1.613-3.792-2.653-5.589-4.108-.581-.474-.755-1.452-1.113-2.2a17 17 0 0 1 2.665-1.146 2.48 2.48 0 0 1 1.51.5c4.363 2.507 8.922 4.75 13.008 7.657 4.017 2.859 3.734 6.86-.139 9.874a9 9 0 0 1-1.352.884c-5.182 2.74-10.875 3.666-16.928 4.763Zm16.835-11.346c-.436-.339-1.078-.836-1.72-1.336-.82 1.488-1.649 2.969-2.427 4.479-.042.084.358.568.574.584 1.475.11 3.614-1.914 3.572-3.73Zm41.381 10.392c-4.866-1.423-9.639-2.446-14.108-4.237-4.376-1.752-5.337-6.589-1.7-9.577 3.83-3.146 8.445-5.357 12.8-7.822a2.4 2.4 0 0 1 2.22.774 2.61 2.61 0 0 1-.294 2.365c-.978 1.262-2.407 2.175-3.388 3.433-2.11 2.711-1.781 4.84 1.02 6.867 1.449 1.049 3.108 1.8 4.624 2.762 1.329.839 3.3 1.646 2.385 3.563-.449.939-2.252 1.229-3.566 1.872Zm-11.426-12.42c-.642.681-1.6 1.313-1.939 2.188a2.38 2.38 0 0 0 .794 2.152 7.6 7.6 0 0 0 2.914.678 1.3 1.3 0 0 0 .326-.865 36 36 0 0 0-1.023-3.553c-.077-.223-.539-.313-1.068-.6Zm43.047-40.573c-.381.555-.6 1.233-.981 1.346a2.45 2.45 0 0 1-1.965-.106 15.2 15.2 0 0 1-2.336-2.917c-6.851-10.229-15.654-18.155-27.064-23.021a3.65 3.65 0 0 1-1.4-.771c-.413-.5-.994-1.439-.8-1.733.423-.642 1.346-1.465 1.952-1.381a14.8 14.8 0 0 1 4.56 1.4 63.95 63.95 0 0 1 22.014 17.761 116 116 0 0 1 4.727 6.541 18 18 0 0 1 1.293 2.881m-109.44 14.08c-.72-1.133-1.539-1.836-1.488-2.469a9.9 9.9 0 0 1 1.117-3.521c4.25-8.451 11.007-14.444 19.026-19.165a4.7 4.7 0 0 1 2.017-.632 1.67 1.67 0 0 1 1.371.6c.252.578.41 1.568.09 1.949a11.7 11.7 0 0 1-2.843 2.376A43.2 43.2 0 0 0 23.315 41.73a20 20 0 0 1-2.572 3.117Zm21.81-38.275a23 23 0 0 1-2.736 2.146c-2.82 1.552-5.734 2.936-8.538 4.514a39.2 39.2 0 0 0-11.488 9.623 4.6 4.6 0 0 1-1.526 1.465 2.28 2.28 0 0 1-1.943-.084 2.13 2.13 0 0 1-.587-1.875 8 8 0 0 1 1.587-2.763A53.44 53.44 0 0 1 37.873 5.285a4.85 4.85 0 0 1 2.575-.478c.678.143 1.214.982 2.105 1.769m-9.642 51.392c-1.4 0-1.943.052-2.475-.01-2.391-.268-3.772-1.3-3.362-2.578.594-1.862 2.249-1.375 3.614-1.43 7.406-.307 14.027-2.427 19.3-7.967a3.07 3.07 0 0 1 2.736-.723c1.478.726.987 2.127.187 3.191a14.5 14.5 0 0 1-2.533 2.743 33.2 33.2 0 0 1-17.47 6.776Zm73.041-.4a31.3 31.3 0 0 1-17.635-9.119 9.8 9.8 0 0 1-1.859-3.775 2 2 0 0 1 .9-1.7 2.6 2.6 0 0 1 1.936.268c.439.207.71.787 1.026 1.223 3.356 4.608 8.216 6.857 13.437 8.5a43 43 0 0 1 4.182 1.02c.8.349 1.317 1.355 1.959 2.068-.845.507-1.672 1.052-2.549 1.5-.287.145-.707.023-1.4.023Zm-21.316 83.319c-.816-.587-1.768-.942-1.807-1.381a3.52 3.52 0 0 1 .758-2.256 4.5 4.5 0 0 1 1.862-1.01c3.65-1.471 7.29-2.975 10.988-4.321.694-.252 1.63.165 2.456.274a17.4 17.4 0 0 1-.542 2.827 2.2 2.2 0 0 1-1.213 1.01c-4.147 1.643-8.316 3.237-12.5 4.853ZM59.785 13.788c-.623.8-.926 1.6-1.465 1.817a71 71 0 0 1-7.557 2.591c-.565.152-1.6-.552-2.036-1.146a1.94 1.94 0 0 1 .474-1.817 86 86 0 0 1 8.487-3c.455-.132 1.246.9 2.1 1.555Zm6.825 123.769a47 47 0 0 1 5.1.771c.51.132 1 .975 1.162 1.581a1.55 1.55 0 0 1-.807 1.265 10.34 10.34 0 0 1-7.822-.281 2.03 2.03 0 0 1-.813-1.762 2.47 2.47 0 0 1 1.394-1.413 4.8 4.8 0 0 1 1.786-.161M53.686 0c.855.723 1.843 1.226 2.22 2.02.181.374-.671 1.7-1.288 1.91a28.4 28.4 0 0 1-5.641 1.2c-.4.048-1.084-.807-1.326-1.378a1.49 1.49 0 0 1 .5-1.388c1.73-.842 3.53-1.526 5.534-2.362Z"/></g></svg>