<svg xmlns="http://www.w3.org/2000/svg" width="139.309" height="141.455" viewBox="0 0 139.309 141.455"><path fill="#84b9eb" d="M105.838 91.358a78 78 0 0 1-6.706 7.683c2.585-3.83 5.179-7.651 7.745-11.494a1.219 1.219 0 0 0-1.907-1.471q-2.58 2.832-5.182 5.65l4.582-6.383c.82-1.139-.926-2.349-1.881-1.452q-4.947 4.642-9.894 9.281 4.221-5.833 8.38-11.707c.762-1.084-.9-2.281-1.8-1.388-.742.732-1.462 1.484-2.191 2.227.649-.887 1.3-1.768 1.943-2.659.671-.939-.771-1.965-1.559-1.2-2.753 2.669-5.547 5.3-8.322 7.938q-1.283 1.225-2.569 2.446c1.042-1.475 2.1-2.94 3.224-4.363a131 131 0 0 1 8.577-9.878.9.9 0 0 0-1.265-1.265q-2.139 1.98-4.237 4.011c1.294-1.7 2.588-3.408 3.895-5.1.687-.891-.665-2.21-1.555-1.555l-.4.29c.645-.6-.287-1.784-1.046-1.265a40.7 40.7 0 0 0-9.3 8.913l-.026.019h.006c-.061.081-.129.155-.19.236-.71.942.681 2.288 1.623 1.623a166 166 0 0 0 3.966-2.907q-3.984 5.2-7.954 10.407c-.658.871.429 1.907 1.313 1.678-1.026 1.465-2.014 2.959-2.895 4.5a1.043 1.043 0 0 0 1.63 1.258c1.317-1.336 2.481-2.836 3.885-4.079l4.4-3.892q.31-.277.62-.549c-3.162 4.134-6.292 8.3-9.458 12.424-.787 1.026.987 2.411 1.807 1.394 2.333-2.891 4.682-5.77 7.186-8.513q-3.553 4.918-7.1 9.839c-.826 1.142.929 2.356 1.888 1.455q5.015-4.71 10.029-9.416-4.24 5.881-8.435 11.791c-.768 1.084.945 2.388 1.836 1.417q3.543-3.872 7.122-7.712c-1.559 2.269-3.13 4.527-4.685 6.8-.939 1.371 1.01 2.475 2.107 1.626a78 78 0 0 0 5.783-4.966 327 327 0 0 0-3.462 5.992 1.07 1.07 0 0 0 1.846 1.081c3.759-5.731 7.286-11.614 10.888-17.445.913-1.478-1.275-2.63-2.268-1.326Z"/><path fill="#75757c" d="M95.985 54.419a3.14 3.14 0 0 0-2.9-1.885l.123-.016a2.6 2.6 0 0 0-1.368.336l.09-.039c-3.13.326-4.96 4-2.652 6.454 3.051 3.592 8.904-.865 6.707-4.85m-41.05 2.007c-1.323-4.931-9.487-3.5-8.08 1.875 1.149 5.263 9.52 3.472 8.08-1.875"/><path fill="#eac485" d="M117.75 53.067a165 165 0 0 0-5.328 4.508 1.91 1.91 0 0 0-2.523.077q-8.045 6.249-15.786 12.862a2.535 2.535 0 0 1 2.34 1.9 2.4 2.4 0 0 1 .936.729c.074.09.148.187.219.278.442-.4.874-.8 1.32-1.2a1.02 1.02 0 0 0 1.058.394q-.905.765-1.817 1.523c1 1.307 2 2.733 2.943 4.25q5.126-4.593 10.174-9.268c5.186-4.808 10.31-9.687 15.312-14.686 1.717-1.717-.862-4.243-2.646-2.646q-6.191 5.528-12.466 10.968c.6-.555 1.21-1.113 1.817-1.668 2.062-1.891 4.153-3.746 6.231-5.618q1.636-1.476 3.3-2.927a23.6 23.6 0 0 0 3.2-3.017 1.068 1.068 0 0 0-1.288-1.668 20 20 0 0 0-3.517 2.459q-1.747 1.36-3.475 2.753Zm6.808 5.857-1.371 1.175a1.8 1.8 0 0 0-.968.429q-10.513 9.018-20.917 18.171a40 40 0 0 1 3.178 6.37q2.323-2.352 4.644-4.708a1.62 1.62 0 0 0 .891-.416 89.6 89.6 0 0 0 11.01-11.646l6.409-6.5c1.865-1.891-.907-4.553-2.875-2.875ZM21.327 87.611c9.219-8.7 18.742-17.067 28.284-25.412a4.2 4.2 0 0 1-1.972-.536c-2.168-1.275-2.43-4.121-1.484-6.263q-5.271 4.656-10.471 9.4-2.89 2.638-5.721 5.334c-1.862 1.772-4.2 3.653-5.36 5.989-.281.568.2 1.452.91 1.184 2.065-.778 3.85-2.42 5.528-3.817.855-.71 1.694-1.436 2.543-2.152-4.847 4.663-9.69 9.326-14.476 14.05-1.442 1.426.752 3.608 2.22 2.22Z"/><path fill="#eac485" d="M128.263 68.443c1.01-1.033-.507-2.517-1.571-1.571-6.686 5.941-13.346 11.891-19.894 17.987-.6.558-1.191 1.12-1.791 1.681 1.63 4.979 1.849 10.2-.9 14.766-3.856 6.418-13.553 9.823-19.19 4.089-2.94 2.753-5.863 5.521-8.732 8.351q4.24-4.3 8.487-8.6a11 11 0 0 1-.49-.571c-4.485-5.612-3.13-13.017-1.1-19.265a67 67 0 0 1 2.782-7.648Q78.415 84.24 71.14 91.018a1.7 1.7 0 0 0-.342-1.062q7.759-6.912 15.715-13.6c1.63-3.053 3.843-5.573 6.948-5.828q5.542-4.623 11.117-9.219 8.6-7.091 17.174-14.211c1.52-1.258-.416-3.443-2.02-2.617-4.492 2.314-8.874 4.789-13.192 7.37 4.311-3.979 8.622-7.954 12.879-11.985 1.681-1.591-.59-4.718-2.533-3.282q-11.273 8.325-22.095 17.277c.5-.5 1.02-.978 1.52-1.478a187 187 0 0 0 15.888-17.845 1.792 1.792 0 0 0-2.533-2.533Q96.287 43.191 83.16 54.668q2.885-2.769 5.763-5.544 8.311-8.006 16.631-16.009c1.449-1.391-.523-4.124-2.2-2.859q-8.02 6.036-15.822 12.353c.426-.378.849-.762 1.278-1.139q9.211-8.161 18.471-16.264c1.494-1.313-.455-3.84-2.13-2.762a369 369 0 0 0-36.978 27.777l12.182-11.814c5.4-5.237 10.813-10.455 16.186-15.718 1.868-1.833-.881-4.44-2.827-2.827q-4.86 4.037-9.677 8.122l8.271-7.951a1.717 1.717 0 0 0-2.072-2.685q-8.069 5-15.731 10.558 5.9-5.528 11.8-11.052a1.851 1.851 0 0 0-2.233-2.895 266 266 0 0 0-36.553 26.81q5.7-5.673 11.536-11.2 6.2-5.867 12.537-11.578c1.413-1.275-.507-3.863-2.068-2.682Q55.453 25.926 41.973 37.294c.513-.5 1.023-1.01 1.539-1.51 2.995-2.895 6.121-5.663 9.081-8.593 3.32-3.288 6.715-6.505 10.094-9.736a1.224 1.224 0 0 0-1.476-1.917 168 168 0 0 0-20.307 14.337q-4.889 4.056-9.606 8.338a134 134 0 0 1 9.964-12.575c.907-1.013-.542-2.491-1.5-1.5a128 128 0 0 0-17.7 22.856 1.548 1.548 0 0 0 2.42 1.868c6.018-5.586 11.84-11.372 18.071-16.728q1.346-1.157 2.717-2.3c-6.941 6.46-13.692 13.117-20.084 20.146q-4.713 5.172-9.119 10.622c-1.291 1.6.755 3.795 2.31 2.31q10.838-10.349 22.2-20.12-7.2 7.353-14.15 14.944-5.754 6.302-11.335 12.76a1.662 1.662 0 0 0 2.349 2.349c16.173-15.392 32.572-30.749 50.659-43.9L31.9 63.079c-4.918 4.637-9.858 9.248-14.74 13.918-1.562 1.494.807 3.856 2.369 2.369q10.044-9.27 20.007-18.638 3.606-3.258 7.264-6.451a4.9 4.9 0 0 1 1.717-1.484c5.5-4.766 11.081-9.426 16.815-13.9-2.762 2.323-5.528 4.647-8.267 7q-3.79 3.258-7.535 6.56c1.923-.39 3.45.694 4.55 2.178a2.2 2.2 0 0 1 .419 1.255 2.9 2.9 0 0 1 .258 1.129 3.2 3.2 0 0 1 .729 1.21 2.99 2.99 0 0 1-2.062 3.63 5.6 5.6 0 0 1-2.333.2 5.2 5.2 0 0 1-1.4.142q-6.578 6.4-13.127 12.833c-5.366 5.273-10.755 10.513-15.983 15.922a1.676 1.676 0 0 0 2.369 2.369q3.751-3.383 7.451-6.825c.284-.248.565-.5.852-.749l8.209-7.006q8.248-7.038 16.5-14.073c6.915-5.889 13.853-11.772 20.949-17.451-12.457 11.139-24.738 22.469-36.578 34.26-5.808 5.786-11.5 11.681-17.028 17.742a1.856 1.856 0 0 0 2.623 2.623c15.27-14.234 30.659-28.377 46.513-41.966-9.022 8.651-18.135 17.225-26.809 26.228-5.024 5.215-9.881 10.6-14.427 16.235-1.494 1.852.881 4.392 2.669 2.669q6.839-6.6 13.753-13.111a199 199 0 0 0-14.97 16.38 1.813 1.813 0 0 0 2.562 2.562q15.029-13.495 30.054-26.99a1.6 1.6 0 0 0 .429.161q-5.731 5.373-11.459 10.755l-8.59 8.09c-2.975 2.788-5.8 5.776-8.687 8.658-1.307 1.3.636 3.178 2 2q7.125-6.133 14.089-12.417c-3.078 3-6.115 6.038-9.077 9.152a1.904 1.904 0 0 0 2.695 2.69q1.68-1.452 3.359-2.914l-6.351 7.128a1.802 1.802 0 0 0 2.549 2.549q6.728-6.433 13.479-12.853a118 118 0 0 0-4.847 5.65l-2.975 2.956a1.77 1.77 0 0 0-.549 1.717 86 86 0 0 0-3.675 5.612c-1.071 1.788 1.3 3.4 2.765 2.133q6.336-5.46 12.688-10.9a105 105 0 0 0-4.282 5.979c-1.1 1.655 1.339 3.443 2.7 2.088q3.282-3.253 6.612-6.48-1.873 2.235-3.705 4.506c-1.536 1.907.952 4.582 2.753 2.753q4.39-4.458 8.784-8.906c-1.559 1.623.361 3.85 2.162 3.246-1.933 2.217-3.843 4.453-5.766 6.686a2.027 2.027 0 0 0 2.865 2.866c3.066-2.369 5.95-5.024 8.848-7.622a2.036 2.036 0 0 0 3.12.607 180 180 0 0 1 5.263-4.23c-.984.929-1.956 1.868-2.872 2.853a1.95 1.95 0 0 0 2.756 2.756 60 60 0 0 0 2.44-2.107c1.7-1.4 3.45-2.733 5.15-4.108l4.953-4a64 64 0 0 0-6.15 7.651c-1.039 1.578 1.181 3 2.472 1.907 4.085-3.469 7.435-7.864 10.968-11.881l10.7-12.153a1.82 1.82 0 0 0-.813-3.037c.645-.613 1.294-1.223 1.936-1.839a1.937 1.937 0 0 0 0-2.7 1.75 1.75 0 0 0-1.649-.5c1.371-1.258 2.711-2.543 3.947-3.921.826-.92-.258-2.585-1.394-1.807a129 129 0 0 0-10.087 8.261l-5.363 4.531c1.956-2 3.892-4.024 5.786-6.083q5.257-5.721 10.049-11.83a1.772 1.772 0 0 0-2.5-2.5q-2.735 2.362-5.524 4.673l.31-.31q5.349-5.45 10.678-10.92Zm-52.76 12.188q8.553-7.866 17.051-15.8 4.986-3.456 10.1-6.722c-9.164 7.37-18.258 14.831-27.151 22.517Zm-13.685-1.936q12.861-11.82 26.015-23.318a3.58 3.58 0 0 1 1.646-2.272 3.45 3.45 0 0 1 2.711-.29c.039.01.081.01.119.019s.074.029.11.039l.061.023c1.859.581 3.527 2.136 3.391 4.23a4.35 4.35 0 0 1-2.991 3.908 3.9 3.9 0 0 1-4.55-1.846 5.3 5.3 0 0 1-.529-3.679q-3.708 3.49-7.49 6.9c-6.115 5.479-12.353 10.829-18.493 16.289Z"/><g fill="#262c54"><path d="M71.234 125.475c23.808-1.365 40.6-11.481 50.856-31.856a35 35 0 0 1 2.162-4.327 2.78 2.78 0 0 1 2.288-.616c.387.055.975 1.158.881 1.681a16.3 16.3 0 0 1-1.3 4.079c-9.232 19.245-24.337 30.685-45.457 34.131-28.135 4.589-60.456-13.814-66.5-48.517a56.97 56.97 0 0 1 4.9-35.238 9.8 9.8 0 0 1 1.575-2.8c.655-.645 1.907-1.362 2.617-1.142 1.626.5 1.168 1.939.639 3.14-.432.987-.955 1.936-1.407 2.914a54.843 54.843 0 0 0 35.628 76.31c4.65 1.242 9.523 1.646 13.121 2.243Z"/><path d="M104.39 95.8a15.96 15.96 0 0 0-1.952-9.9c-2.433-4.4-5.044-8.706-7.7-12.979-1.162-1.868-1.639-1.788-3.143.074a48.1 48.1 0 0 0-9.312 18.082 14.34 14.34 0 0 0 .349 9.51c2.7 6.434 9.606 8.835 15.628 5.386.774-.445 1.41-1.246 2.223-1.475.716-.2 1.965-.1 2.3.358a2.58 2.58 0 0 1-.1 2.385 9.9 9.9 0 0 1-6.286 3.846c-6.305 1.465-12.585-.72-15.954-6.257-1.723-2.827-3.421-3.272-6.505-2.933a31.46 31.46 0 0 1-24.483-7.7 24 24 0 0 1-3.3-3.537c-.865-1.1-2.075-2.556-.671-3.792 1.755-1.546 2.83.229 3.856 1.423 6.192 7.212 14.182 10.152 23.5 9.758 3.95-.168 4.063-.41 4.766-4.237a49.2 49.2 0 0 1 8.529-20.191c1.578-2.185 3.027-4.46 4.56-6.673a2.293 2.293 0 0 1 3.7-.539 13.5 13.5 0 0 1 2.927 3.1c2.794 4.4 5.624 8.793 8.083 13.379a32.2 32.2 0 0 1 2.824 8.1 16.3 16.3 0 0 1 0 5.863c-.216 1.475-.436 3.7-2.627 3.4-2.4-.332-1.394-2.407-1.291-3.908.013-.177.045-.355.068-.536Zm22.65-24.42c-.568-10.339-2.346-20.417-7.425-29.591-6.712-12.117-17.106-19.694-30.2-23.769a47 47 0 0 1-5.079-1.726 2.03 2.03 0 0 1-.745-1.784 2.09 2.09 0 0 1 1.417-1.352 9.2 9.2 0 0 1 3.162.41c17.993 4.86 31.111 15.4 38.048 32.976a74.8 74.8 0 0 1 4.831 23.179 28 28 0 0 1-.891 6.893c-.087.436-1.139.994-1.684.933a1.98 1.98 0 0 1-1.362-1.326 44 44 0 0 1-.064-4.84Z"/><path d="M75.439.001c9.719.332 20.542 2.507 30.423 8.274a21.6 21.6 0 0 1 3.85 2.869 2.02 2.02 0 0 1 .1 1.933 2.17 2.17 0 0 1-1.8.745 7.4 7.4 0 0 1-2.427-1.078C85.653 1.32 65.216 1.652 44.432 10.116c-1 .407-1.946.926-2.94 1.346-1.217.513-2.646.862-3.4-.432-.82-1.4.352-2.336 1.494-2.969 1.252-.7 2.556-1.317 3.869-1.894A78.4 78.4 0 0 1 75.439.001m-1.692 141.451c-1.242-.113-3.772-.19-6.238-.623-1.6-.281-4.211-.126-3.795-2.685.355-2.178 2.585-1.249 4.089-1.2 2.336.071 4.669.352 7 .349a56.67 56.67 0 0 0 31.62-9.342c2.856-1.872 5.534-4.008 8.387-5.889 1.5-.991 2.775-3.333 5.063-1.572 1.252.965.507 2.372-2.862 4.866-3.324 2.459-6.686 4.882-10.194 7.06-9.719 6.034-20.423 8.726-33.069 9.039ZM58.01 58.088a6.855 6.855 0 0 1-6.993 7.225 8.127 8.127 0 0 1-8.087-7.735c-.116-4.124 3.256-7.967 7.07-8.051 4.021-.087 7.9 4.053 8.012 8.561Zm-4.16.265c.09-2.365-1.723-4.531-3.727-4.45a3.166 3.166 0 0 0-2.991 3.211 3.856 3.856 0 0 0 3.488 4.059 2.86 2.86 0 0 0 3.231-2.823ZM27.609 36.012c-.594-1.029-1.417-1.81-1.288-2.372a8 8 0 0 1 1.636-3.295 50.7 50.7 0 0 1 22.834-15.454 3.6 3.6 0 0 1 1.568-.242c.484.071 1.2.349 1.317.7.2.6.287 1.659-.055 1.933A14 14 0 0 1 50 19.428a46.77 46.77 0 0 0-19.71 14.4 18.4 18.4 0 0 1-2.682 2.175Zm58.156 20.775c-.09-3.959 2.265-6.8 5.821-7.015 3.592-.219 7.167 3.037 7.141 6.5a7.245 7.245 0 0 1-7.031 6.751c-3.414.023-5.844-2.533-5.928-6.238Zm5.615 2.136c1.872-.077 3.556-1.759 2.985-2.817a4.02 4.02 0 0 0-2.72-1.872c-1.539-.132-2.1 1.333-1.8 2.617.192.853 1.112 1.537 1.535 2.072M.006 72.603c.51-4.527.852-8.448 1.462-12.327.126-.794 1.246-1.433 1.907-2.146.571.771 1.549 1.5 1.633 2.327a20.7 20.7 0 0 1-.223 5.334 35.1 35.1 0 0 0 .032 13.84c.31 1.313.774 3.124-1.21 3.543-1.872.4-2.44-1.258-2.665-2.659C.49 77.704.258 74.858 0 72.603Zm119.571-54.438a9.5 9.5 0 0 1 1.83.978 38.6 38.6 0 0 1 9.452 12.182c.591 1.175.962 2.614-.668 3.088a2.97 2.97 0 0 1-2.6-1.11 61 61 0 0 0-9.148-11.814c-.449-.471-.355-1.6-.242-2.388.048-.332.8-.565 1.371-.936ZM51.346 135.024c-1.187.762-2.1 1.843-2.778 1.707-5.537-1.1-10.678-3.188-14.889-7.086a2.02 2.02 0 0 1-.11-1.93c.287-.468 1.152-.642 1.8-.807.3-.074.691.152 1.016.3 4.243 1.92 8.5 3.814 12.711 5.805a12.5 12.5 0 0 1 2.252 2.01Z"/><path d="M62.369 15.554c-.358 0-.839.148-1.052-.029a5 5 0 0 1-1.655-1.823c-.139-.384.545-1.475 1.039-1.617 4.5-1.288 9.058-2.5 13.792-1.517.7.145 1.236 1.081 1.846 1.649-.571.591-1.081 1.607-1.72 1.7-4.079.568-8.187.929-12.282 1.359zm76.939 31.969c-.6.858-.939 1.888-1.562 2.1a2.35 2.35 0 0 1-2.159-.755 77 77 0 0 1-2.9-7.951c-.145-.468.436-1.626.82-1.694.729-.129 2.017.058 2.269.536 1.3 2.481 2.349 5.1 3.527 7.767Z"/></g></svg>