<svg xmlns="http://www.w3.org/2000/svg" width="142.145" height="138.039" viewBox="0 0 142.145 138.039"><path fill="#ba8b54" d="M83.218 106.498c.061-.171.119-.345.194-.513a1.6 1.6 0 0 0-.407-2.03 1.75 1.75 0 0 0-1.368-.3 1.7 1.7 0 0 0-.665-.478q.018-.05.036-.094c.494-1.336-1.136-2.385-2.249-1.849a1.8 1.8 0 0 0-.784-.552c1.039-1.513-1.349-3.379-2.556-1.975-.155.181-.323.345-.481.52a1.53 1.53 0 0 0-1.688-.687 1.43 1.43 0 0 0-1.449-.432 1.8 1.8 0 0 0-2.552-.41q-.452.362-.894.729a1.594 1.594 0 0 0-2.2.048c-.187.19-.394.358-.591.539a1.8 1.8 0 0 0-.858 0l-.006-.023a9.6 9.6 0 0 0-1.636.758 46 46 0 0 0-4.295 2.12 1.237 1.237 0 0 0-.071 2.114 1.794 1.794 0 0 0 2.572 2.159c.471-.223.92-.484 1.368-.739a1.674 1.674 0 0 0 2.2 0c.352-.294.7-.581 1.055-.875a1.73 1.73 0 0 0 2.027.368c.058-.032.113-.071.168-.1a1.64 1.64 0 0 0 1.826.223q.434-.236.855-.478a1.506 1.506 0 0 0 1.749.5 1.683 1.683 0 0 0 2.53 1.181 1.51 1.51 0 0 0 1.246.442 1.605 1.605 0 0 0 1.746 1.688 1.93 1.93 0 0 0 1.581 1.575 1.593 1.593 0 0 0 2.833.345l.584-.8a1.4 1.4 0 0 0 .187-.216q.24-.393.481-.781a1.45 1.45 0 0 0-.49-1.972Z"/><path fill="#75757c" d="M54.266 72.047a3.42 3.42 0 0 0-2.388-2.507 1.7 1.7 0 0 0-1.63.458l-.023-.013a1.11 1.11 0 0 0-1 .058q.093-.04.187-.074l-.294.123a1.3 1.3 0 0 0-.442.442 3 3 0 0 0-.152.261 4.7 4.7 0 0 0-.374.881 5.2 5.2 0 0 0-.213 1.523 3.8 3.8 0 0 0 1.01 2.578 3.04 3.04 0 0 0 2.772.807A2.6 2.6 0 0 0 53 75.916a2.3 2.3 0 0 0 .6-.962 3.52 3.52 0 0 0 .666-2.907m40.02-1.154a3.7 3.7 0 0 0-.829-1.3 3.8 3.8 0 0 0-1.329-.833 3.2 3.2 0 0 0-2.714.223 3.72 3.72 0 0 0-1.242 5.089 1.7 1.7 0 0 0 .749.642 1.46 1.46 0 0 0 1.02.077c.019-.006.035-.016.058-.023a3.2 3.2 0 0 0 1.146.255 3.3 3.3 0 0 0 1.042-.152 3.46 3.46 0 0 0 1.885-1.416 2.93 2.93 0 0 0 .214-2.562"/><path fill="#84b9eb" d="M111.331 113.046a75 75 0 0 0-3.095 2.675 375 375 0 0 1 2.885-5.2 1.268 1.268 0 0 0-1.985-1.53c-.742.768-1.5 1.523-2.243 2.285 1.242-1.872 2.482-3.75 3.74-5.612.8-1.191-.994-2.543-1.972-1.523q-4.666 4.86-9.316 9.739a111 111 0 0 1 6.605-9.687c.762-.987-.878-2.217-1.717-1.323-.507.539-1.007 1.087-1.513 1.63q2.483-3.524 4.992-7.031c.749-1.046-.907-2.291-1.772-1.365q-3.877 4.153-7.748 8.312c2.01-3 4.014-6.008 6.041-9 .745-1.1-.981-2.456-1.855-1.433a198 198 0 0 1-5.27 5.905c1.591-2.188 3.166-4.385 4.6-6.67.568-.9-.774-1.975-1.5-1.155a49 49 0 0 1-1.733 1.849c1.3-1.572 2.6-3.153 3.853-4.76.829-1.062-.5-2.523-1.523-1.523-2.139 2.1-4.35 4.127-6.583 6.134a437 437 0 0 0 4.063-5.847c.636-.936-.881-2.136-1.588-1.223-3.721 4.811-7.322 9.694-10.871 14.634-.829 1.155.942 2.388 1.907 1.471.487-.458.968-.923 1.452-1.384a489 489 0 0 0-5.231 6.27c-.962 1.178.642 2.869 1.7 1.7 2.059-2.262 4.2-4.427 6.36-6.589-2.269 3.033-4.556 6.054-6.78 9.119-.884 1.22 1.007 2.552 2.033 1.568 1.768-1.7 3.5-3.433 5.208-5.189a403 403 0 0 0-4.873 7.28 1.211 1.211 0 0 0 1.894 1.462 544 544 0 0 1 5.482-6q-3.219 4.39-6.4 8.806c-.875 1.22 1.087 2.73 2.085 1.607q1.762-1.989 3.533-3.969c-.913 1.481-1.8 2.978-2.649 4.514-.7 1.265 1.007 2.691 2.046 1.578 2.133-2.278 4.289-4.534 6.441-6.793q-1.747 2.551-3.488 5.1c-.891 1.307 1.084 2.775 2.165 1.672 1.568-1.6 3.107-3.233 4.65-4.863a161 161 0 0 0-2.427 4.3 1.376 1.376 0 0 0 2.375 1.388 58.6 58.6 0 0 1 9.4-9.955c.975-.839-.426-2.188-1.4-1.4Z"/><g fill="#eac485"><path d="M125.549 61.99c1.3-1.3-.607-3.078-1.975-1.975q-5.658 4.564-11.3 9.135l1.381-1.73c3.433-4.308 6.86-8.606 9.852-13.234.542-.839-.678-1.749-1.368-1.055-3.859 3.876-7.309 8.1-10.765 12.34l-4.337 5.324a1.5 1.5 0 0 0-.833.355L87.872 86.471q1.588-1.505 3.169-3 9.5-8.955 18.6-18.309 2.507-2.59 4.947-5.237a28 28 0 0 0 4.573-5.821.6.6 0 0 0 .061-.274 6 6 0 0 0 1.949-2.552.565.565 0 0 0-.542-.71c-1.965.136-3.766 1.985-5.26 3.137-1.772 1.362-3.495 2.782-5.218 4.2a315 315 0 0 0-10.442 9.016q-2.6 2.343-5.173 4.731a4 4 0 0 1-.129 2.136 4.62 4.62 0 0 1-2.995 2.84 2.48 2.48 0 0 1-1.972-.158l-.213.2a1.6 1.6 0 0 0-.232-.471 3.25 3.25 0 0 1-1.213-1.636 6.5 6.5 0 0 1-.216-1.062 3.3 3.3 0 0 1-.6-.678 3 3 0 0 1 .432-3.546 341 341 0 0 0-32.785 32.924 85 85 0 0 1-7.1 7.454 333 333 0 0 1 21.959-26.4A1.37 1.37 0 0 0 69.785 82c9.358-7.945 18.9-15.767 28.949-22.85l-2.078 2.3a314 314 0 0 0-8.913 7.525 2.5 2.5 0 0 1 .284-.2 4.95 4.95 0 0 1 2.882-.607 3.2 3.2 0 0 1 1.875.384 2.97 2.97 0 0 1 1.355 1.765 2 2 0 0 1 .052.284q.02.042.045.084 3.95-4.143 7.89-8.293 2.168-2.3 4.34-4.6c1.217-1.01 2.423-2.03 3.65-3.024a1.21 1.21 0 0 0 .41-1.275c.2-.216.407-.429.61-.645 1.494-1.6 2.988-3.2 4.44-4.834 1-1.126 3.3-3.059 3.082-4.74a.555.555 0 0 0-.532-.532c-1.72-.158-3.466 2.181-4.563 3.256a220 220 0 0 0-3.872 3.911 1.52 1.52 0 0 0-1.133-.807 30.5 30.5 0 0 0 2.982-3.727 1.3 1.3 0 0 0 .232-.829q2.948-3.253 5.789-6.625a1.42 1.42 0 0 0-2.007-2.007c-2 1.707-3.9 3.543-5.825 5.341a1.17 1.17 0 0 0-1.852-.529q-2.638 1.989-5.253 4.014c1.326-1.371 2.653-2.743 3.924-4.166a32 32 0 0 0 3.824-4.7c.429-.713-.465-1.726-1.2-1.2a31.4 31.4 0 0 0-4.256 4.03c-1.378 1.439-2.7 2.94-4.017 4.434-2.559 2.9-5.108 5.86-7.515 8.893q-2.822 2.27-5.618 4.566a291 291 0 0 0 7.564-7.506 164 164 0 0 0 12.256-14.144l.016-.016c.074-.1.152-.19.226-.287 1.016-1.333-1.094-2.743-2.227-1.717q-8.2 7.425-16.4 14.847 3.379-3.49 6.751-6.986l11.388-11.852a1.025 1.025 0 0 0-1.452-1.435q-10.179 10.092-20.31 20.223 3.151-3.19 6.322-6.354a1.5 1.5 0 0 0-.1-2.259l.574-.645q1.258-1.409 2.514-2.82c.839-.942 1.894-1.665 2.753-2.585a1.39 1.39 0 0 0 .052-1.952 24 24 0 0 0 2.543-3.266c.355-.561-.336-1.175-.878-.878-3.5 1.91-6.344 4.927-9.284 7.609-2.962 2.7-5.867 5.463-8.793 8.2a340 340 0 0 0-8.729 8.49l-7.883 6.964a173 173 0 0 0-5.366 4.9q-2.183 1.893-4.321 3.837 6.138-6.423 12.427-12.708 6.423-6.428 12.895-12.8a1.29 1.29 0 0 0 .2-1.549l7.89-7.712a1.3 1.3 0 0 0 .232-.313l.106-.1c1.555-1.539 3.1-3.085 4.614-4.66a21.3 21.3 0 0 0 3.966-4.847.566.566 0 0 0-.768-.768 21.5 21.5 0 0 0-5 3.817 278 278 0 0 0-4.818 4.453l-.571.545q-17.5 13.234-33.944 27.787a.94.94 0 0 0-.623-.1q1.781-1.718 3.566-3.437c2.72-2.081 5.444-4.153 8.032-6.415 3.249-2.836 6.447-5.731 9.658-8.616 3.149-2.83 6.305-5.654 9.429-8.513 3.1-2.836 6.386-5.6 8.935-8.939.468-.613-.423-1.378-1.02-1.02a31 31 0 0 0-1.607 1.046 1.46 1.46 0 0 0-2.394-1.462L73.315 33.073c-10.087 9.494-20.329 18.828-29.897 28.839l-5.605 5.405-.152.145q2.1-2.444 4.263-4.824c1.349-1.484 2.714-2.953 4.072-4.431.465-.461.92-.929 1.384-1.391a119 119 0 0 0 8.652-9.415.7.7 0 0 0 .081-.148l1.765-1.9a.593.593 0 0 0 1 .232c4.55-4.6 9.319-8.987 14.085-13.363 2.356-2.162 4.724-4.314 7.141-6.412 2.33-2.02 5.121-3.982 6.822-6.593a.6.6 0 0 0-.668-.868c-2.888 1.033-5.379 3.356-7.69 5.308-2.5 2.114-4.96 4.272-7.335 6.525-.236.226-.458.461-.694.687a1.37 1.37 0 0 0-.413-.707q6.346-5.591 12.833-11.007c1.184-.987-.4-3.069-1.662-2.156-15.699 11.35-30.35 24.051-44.662 37.102 7.813-8.188 16.341-15.742 24.573-23.435q6.133-5.736 12.269-11.465c1.165-1.091-.374-3.169-1.73-2.243A237 237 0 0 0 49.798 34.08q1.8-1.8 3.6-3.588 4.748-4.7 9.535-9.352c1.194-1.168-.574-2.875-1.814-1.814-12.983 11.163-26.068 22.215-39.121 33.302 6.673-7.435 13.672-14.569 20.83-21.562 3.188-3.114 6.257-6.351 9.471-9.439a1.155 1.155 0 0 0-1.401-1.807c-12.062 6.909-22.24 16.438-32.04 26.173-.839.836.426 2.085 1.294 1.294 6.686-6.086 13.33-12.32 20.517-17.822a362 362 0 0 0-7.122 6.9c-5.521 5.528-10.923 11.175-16.073 17.048q-4.255 4.85-8.2 9.945l-.023.019c-.071.1-.148.187-.219.278-1 1.3 1.055 2.623 2.159 1.665q7.395-6.419 14.841-12.769c-.429.407-.862.8-1.288 1.213-2.481 2.385-4.992 4.747-7.444 7.164a141 141 0 0 0-3.456 3.514 13.9 13.9 0 0 0-2.949 3.75c-.161.39.313.82.691.691a13.5 13.5 0 0 0 3.74-2.627 126 126 0 0 0 3.885-3.421c.145-.129.284-.265.426-.4l-.136.161a1.6 1.6 0 0 0 .9 2.591 225 225 0 0 0-3.379 3.656c-.7.778-1.371 1.565-2.017 2.388a4.9 4.9 0 0 0-1.278 2.22.517.517 0 0 0 .626.626 4.96 4.96 0 0 0 2.11-1.391 52 52 0 0 0 2.262-2.143q1.186-1.176 2.375-2.352c-.139.2-.287.4-.423.6-.933 1.391 1.107 2.836 2.259 1.743q3.853-3.659 7.741-7.286-2.227 2.386-4.427 4.8c-3.652 4.013-7.252 8.075-10.845 12.138-1.223 1.381.774 3.414 2.039 2.039 13.976-15.2 28.41-29.946 43.6-43.921L49.811 50.369c-.649.7-1.3 1.394-1.956 2.091-3.153 2.885-6.15 5.938-9.158 9.006-5.282 5.389-10.487 10.871-15.463 16.548q-2.144 2.449-4.243 4.937c-1.394 1.659-2.656 3.459-4.14 5.037-.826.878.571 2.214 1.3 1.3 1.171-1.452 2.559-2.717 3.834-4.076q1.81-1.931 3.63-3.856a1.31 1.31 0 0 0 .561 1.291c-.439.452-.887.894-1.323 1.349-1.949 2.017-4.266 4.092-5.615 6.576a.549.549 0 0 0 .745.745c2.43-1.307 4.45-3.54 6.434-5.428.255-.242.5-.494.758-.739a1.8 1.8 0 0 0 1.055.7 184 184 0 0 0-6.247 9.161c-.91 1.426 1.126 2.917 2.3 1.778q7.677-7.44 15.318-14.918c-1.113 1.246-2.23 2.485-3.33 3.743q-5.978 6.825-11.623 13.927c-1.129 1.426.739 3.446 2.052 2.052 6.46-6.857 12.753-13.86 19.407-20.542q2.367-2.377 4.779-4.7a3.65 3.65 0 0 1-1.333-1.914 5.14 5.14 0 0 1 .216-3.23 3.4 3.4 0 0 1 1.355-1.765 2.98 2.98 0 0 1 2.275-.3 3.03 3.03 0 0 1 1.765 1.355 3.2 3.2 0 0 1 .394 1.417q2.033-1.893 4.1-3.753a87 87 0 0 0 1.743-1.307c-1.985 1.81-3.911 3.682-5.818 5.576a3.1 3.1 0 0 1 .649 1.778 2.974 2.974 0 0 1-2.949 2.953 4.4 4.4 0 0 1-1.875-.487q-3.32 3.456-6.554 6.989c-2.9 3.172-5.815 6.331-8.687 9.529a228 228 0 0 0-4.331 4.94c-1.291 1.526-2.791 3.066-3.5 4.963-.252.668.568 1.091 1.094.842a16.8 16.8 0 0 0 4.45-3.727c-.061.1-.126.2-.187.3a.913.913 0 0 0 .684 1.342c-.494.616-.991 1.229-1.475 1.855a1.59 1.59 0 0 0 0 2.168 1.543 1.543 0 0 0 2.168 0 248 248 0 0 1 17.858-20.023c1.129-1.146 2.281-2.269 3.43-3.395a1.3 1.3 0 0 0 .713-.061 209 209 0 0 0-15.522 16.745q-4.056 4.884-7.816 10c-.978 1.329 1.162 2.933 2.272 1.752q5.905-6.283 11.993-12.392a1.7 1.7 0 0 0 .778.245q-2.362 2.914-4.721 5.831l-8.413 10.4c-1.029 1.271.713 3.1 1.83 1.83 5.728-6.5 11.514-13 17.651-19.145q-7 8.572-13.421 17.612c-.939 1.323.833 2.656 2.049 2.049.7-.349 1.375-.729 2.039-1.126-.749 1.391 1.029 3.091 2.262 1.791 3.785-4 7.664-7.9 11.585-11.762a3.243 3.243 0 0 1 .161-5.008 16.45 16.45 0 0 1 10.62-2.807q2.711-2.938 5.512-5.792c-.468.571-.952 1.133-1.4 1.72a19 19 0 0 0-2.207 3.169.707.707 0 0 0 .591 1.02l-.106.116a23.9 23.9 0 0 1 10.013 3.957c3.482-3.327 7.019-6.6 10.575-9.845 1.081-1.865 2.156-3.708 3.088-5.55-.016-.071-.039-.142-.052-.213-.755-3.714 4.934-5.289 5.692-1.568.723 3.559 3.575 6.909 5.421 10.258 1.972-1.523 3.956-3.03 5.915-4.556q1.96-1.53 3.921-3.056-1.873 2.178-3.717 4.379-2.8 2.125-5.6 4.247c.081.165.161.329.232.494a46.6 46.6 0 0 1 2.878 8.555c.039-.029.081-.045.119-.077l1.32-1.117c-.465.487-.916.991-1.378 1.481.181.849.339 1.7.452 2.556.023.174.029.342.048.513a88.8 88.8 0 0 0 12.4-13.74c.807-1.107-.878-2.194-1.8-1.388-.7.61-1.417 1.188-2.136 1.772q3.209-3.616 6.415-7.225a1.274 1.274 0 0 0-1.8-1.8q-2.319 1.912-4.689 3.763a1.6 1.6 0 0 0-.41-1.075c2.256-2.849 4.511-5.7 6.835-8.493.787-.949-.287-2.753-1.442-1.868l-5.392 4.143a1.63 1.63 0 0 0-1.4-.984l7.954-8.68a1.449 1.449 0 0 0-1.449-2.388c.252-.268.51-.532.762-.8 1.055-1.139-.5-2.569-1.659-1.659-3.882 3.037-7.867 5.954-11.817 8.909q.687-.707 1.378-1.41c4.666-4.74 9.329-9.487 14.037-14.185Zm-50.051 2.081q-3.277 3.03-6.525 6.089c-.571.461-1.149.916-1.713 1.384zM60.866 85.63c11.059-10.723 22.356-21.2 34.176-31.082q3.756-3.137 7.586-6.18a.84.84 0 0 0 .158 1.049c-1.368 1.187-2.74 2.369-4.1 3.559q-5.4 4.729-10.8 9.461-10.717 9.385-21.523 18.671a1.2 1.2 0 0 0-.4 1.381q-4.439 3.548-8.577 7.415 1.738-2.139 3.479-4.276Zm46.68-3.043-1.668 1.626a1.6 1.6 0 0 0-.49-.1l2.575-1.943q-.208.205-.419.41Z"/><path d="M83.395 104.791c2.617 2.736-1.51 6.886-4.14 4.2l-.329.339a174 174 0 0 0-5.047 4.376c-2.443 2.214-4.882 4.44-7.235 6.751-1.178 1.155-2.356 2.31-3.488 3.511-.884.939-2.514 2.152-2.5 3.543a.65.65 0 0 0 .636.636c1.333.032 2.511-1.468 3.437-2.288 1.236-1.094 2.446-2.22 3.666-3.33l.1-.087a1.3 1.3 0 0 0 1.439.4c.733-.229 1.442-.5 2.139-.8-.565.594-1.139 1.178-1.7 1.778-1 1.075.365 3.12 1.655 2.146l14.13-10.686a15.2 15.2 0 0 1-.894-3.966 18 18 0 0 1-.023-2.527 361 361 0 0 1-6.1 5.208q-1.249 1.046-2.565 2.017 3.65-3.848 7.393-7.6c.481-.442.955-.891 1.433-1.336a31.9 31.9 0 0 1 3.84-10.445l-7.9 6.36a17 17 0 0 1 2.052 1.8Zm-4.814 18.367c-1.42 1.291.623 3.182 2.059 2.059q.885-.692 1.768-1.391a1.434 1.434 0 0 0 1.859 0q2.362-1.965 4.727-3.927a13.6 13.6 0 0 1-2.54-3.9z"/><path d="m76.552 106.853-.481.387c.142-.142.287-.277.432-.419a17.4 17.4 0 0 0-10.016-2.469l-5.366 4.485L56.5 112.7a154 154 0 0 1 5.715-7.215 9.5 9.5 0 0 0-1.407.833 2.34 2.34 0 0 1-3.1-.052c-.781.971-1.562 1.943-2.32 2.936q-3.93 5.16-7.351 10.678c-.933 1.51 1.094 2.824 2.323 1.794l13.44-11.259q-4.671 4.337-9.348 8.671c-1.317 1.216.607 3.066 1.943 1.943l10.842-9.09q-2.077 2.135-4.121 4.3a.62.62 0 0 0-.474.181c-1.575 1.459-3.2 2.872-4.715 4.392s-2.92 3.149-4.321 4.789a.87.87 0 0 0 1.229 1.229q1.588-1.51 3.111-3.072a1.524 1.524 0 0 0 2.139.126q9.429-7.595 18.861-15.186a13.4 13.4 0 0 0-2.394-1.852Z"/></g><g fill="#262c54"><path d="M130.109 77.362c.358 10.255-4.6 21.765-12.827 32.082a12.3 12.3 0 0 0-2.824 5.615 15.448 15.448 0 0 1-23.543 10.12c-5.815-3.65-8.858-9.1-8.122-15.941.413-3.83-1.188-5.776-4.095-7.283-6.215-3.224-12.4-3.388-18.432.5-.368.236-.494.849-.732 1.288a3.9 3.9 0 0 0 1.307.571c3.059.048 6.128-.11 9.174.068a30.6 30.6 0 0 1 5.821 1.094c1.265.329 2.546 1.158 1.8 2.652a3.24 3.24 0 0 1-2.617 1.1c-3.043-.174-6.079-.949-9.1-.874a82 82 0 0 0-10.665 1.317c-1.413.223-3.127 1.094-3.792-.6a5 5 0 0 1 .6-3.95 20.25 20.25 0 0 1 15.57-9.49 22.72 22.72 0 0 1 14.408 3.585c2.549 1.565 2.582 1.484 3.988-.991 3.111-5.476 6.2-10.968 9.377-16.4 1.672-2.856 2.969-2.882 4.663-.207 1.442 2.278 2.882 4.566 4.13 6.951.323.613-.084 1.607-.155 2.427-.962-.116-1.926-.219-2.882-.365-.139-.023-.245-.248-.368-.381q-1.452-1.563-2.9-3.13a27.4 27.4 0 0 0-3.295 4.079c-2.462 4.585-4.9 9.206-6.973 13.972a12.81 12.81 0 0 0 .568 11.481c2.911 5.479 9.058 8.161 14.56 6.344 5.944-1.965 8.916-7.051 7.4-13.092a50.5 50.5 0 0 0-2.569-6.509c-.542-1.329-1.213-2.617-1.646-3.982-.387-1.213-.6-2.675.994-3.169 1.562-.484 2.175.862 2.723 2.007 1.01 2.107 1.939 4.256 2.985 6.344.987 1.975 1.694 2.072 3.033.31 4.753-6.251 8.306-13.124 9.581-20.914 2.156-13.172.416-25.818-5.9-37.706a12.8 12.8 0 0 1-1.342-2.917 2.1 2.1 0 0 1 .733-1.8 2 2 0 0 1 1.92.048 19.7 19.7 0 0 1 2.811 3.895c4.782 8.948 6.467 18.626 6.638 31.853Z"/><path d="M72.809 127.305c2.872-.165 5.744-.423 8.619-.423a2.42 2.42 0 0 1 1.872 1.394c.113.568-.636 1.613-1.268 1.949a9.3 9.3 0 0 1-3.127.739c-35.644 4.689-61.434-20.068-66.749-46.493a86 86 0 0 1-1.923-19.791c.455-12.846 6.4-23.44 15.751-32.075a69.15 69.15 0 0 1 28.919-16.177c2.11-.578 5.318-2.481 6.2.187 1.075 3.243-2.84 2.862-4.808 3.45a68.7 68.7 0 0 0-26.72 14.715c-10.933 9.836-16.56 21.953-15.357 36.9 1.11 13.789 5.073 26.325 14.521 36.932 11.817 13.269 26.522 19.219 44.076 18.69ZM68.281 0c25.793 1.5 46.425 12.214 61.727 32.937a24.4 24.4 0 0 1 2.463 4.163 1.99 1.99 0 0 1-.374 1.865 2.77 2.77 0 0 1-2.362.106 13.5 13.5 0 0 1-2.343-2.914C113.291 16.512 94.096 5.95 70.04 4.172a57 57 0 0 0-7.535.274c-1.617.1-3.22.349-4.834.471-1.288.1-2.795.1-3-1.507-.2-1.559 1.226-2.143 2.485-2.294C60.898.662 64.657.355 68.291 0Z"/><path d="M46.751 137.993c-1.642-.552-3.724-1.123-5.705-1.936a58.6 58.6 0 0 1-18.593-12.637c-8.893-8.658-15.631-18.7-19.413-30.6a24 24 0 0 1-.939-5.244 1.95 1.95 0 0 1 1.207-1.455 2 2 0 0 1 1.794.674 27 27 0 0 1 1.462 4.027 69.72 69.72 0 0 0 27.53 36.828c3.643 2.5 7.974 4 12.007 5.925.965.461 2.085.632 2.985 1.181.516.316 1.165 1.339 1 1.655a4.9 4.9 0 0 1-1.836 1.549c-.255.161-.7.026-1.507.026Zm10.921-93.471a31 31 0 0 1 3.927.587c.494.123 1.207 1.142 1.091 1.53a3.3 3.3 0 0 1-1.536 1.768 4.7 4.7 0 0 1-2.1.052c-9.3-.332-17.067 3.233-23.8 9.4-1.226 1.123-2.446 3.456-4.227 1.381-1.507-1.755.436-3.311 1.694-4.463 6.825-6.238 14.679-10.129 24.96-10.249ZM97.498 70.95c-.2 5.06-2.949 8.422-6.644 8.135a7.676 7.676 0 0 1-6.489-7.373 7.07 7.07 0 0 1 7.415-6.854c3.9.129 5.873 2.233 5.718 6.089Zm-4.143-.4c-.5-.365-1.339-1.481-2.233-1.523-1.562-.071-2.475 1.155-2.507 2.772a2.725 2.725 0 0 0 2.378 2.978c1.242.233 2.429-1.59 2.361-4.227ZM75.898 13.705a47 47 0 0 1 20.572 6.267c1.3.774 3.433 1.552 2.456 3.495-.958 1.907-2.772.894-4.189.09-6.5-3.675-13.388-5.915-20.949-5.731a4.46 4.46 0 0 1-2.091-.319c-.549-.287-1.313-1.084-1.223-1.481a2.77 2.77 0 0 1 1.413-1.885 20.7 20.7 0 0 1 4.011-.432Zm12.667 30.568c8.651 1.939 16.493 4.418 22.385 10.82 1.02 1.107 2.6 2.265 1.452 4.159-.755 1.246-2.207.874-4.36-1.433-4.218-4.518-9.639-6.757-15.379-8.448a29 29 0 0 1-4.634-1.359 2.9 2.9 0 0 1-1.458-2.32c.145-.671 1.475-1.081 2-1.42ZM52.104 66.361a6.5 6.5 0 0 1 2.53 1.342 15.3 15.3 0 0 1 2.669 4.6 5.61 5.61 0 0 1-3.059 7.17 5.906 5.906 0 0 1-7.58-2.052 7.3 7.3 0 0 1-.416-7.654c1.02-2.11 2.7-3.275 5.854-3.4Zm-1.491 5.1c-.236.307-.807.736-.92 1.262-.358 1.713.5 3.2 1.862 3.095a2.66 2.66 0 0 0 1.888-1.4c.439-1.132-1-2.687-2.829-2.958Zm74.213 44.495a9.7 9.7 0 0 1-1.239-2.707c-.055-.552.678-1.191 1.081-1.775q4.714-6.825 9.442-13.64a6.2 6.2 0 0 1 1.265-1.7c.52-.355 1.572-.655 1.907-.384a4.57 4.57 0 0 1 1.046 2.123 1.4 1.4 0 0 1-.3 1c-3.514 5.15-7.015 10.31-10.613 15.405-.461.655-1.433.952-2.588 1.678ZM0 67.926c.419-3.3.855-6.851 1.342-10.4a4.6 4.6 0 0 1 .616-2.036 10 10 0 0 1 1.917-1.607 12.8 12.8 0 0 1 1.559 2.465 5.5 5.5 0 0 1-.129 2.12q-.523 6.413-1.039 12.83c-.029.355.126.807-.039 1.058-.532.8-1.175 1.53-1.772 2.288-.694-.72-1.73-1.329-2-2.181A22.3 22.3 0 0 1 0 67.93Zm106.059-41.482c.316.055.981-.032 1.333.258 2.32 1.926 4.637 3.863 6.783 5.97a2.4 2.4 0 0 1-.023 2.343 2.29 2.29 0 0 1-2.256.281 87 87 0 0 1-6.883-5.905 1.739 1.739 0 0 1 1.046-2.947m36.086 28.846c-.61.894-.952 1.939-1.568 2.136a2.32 2.32 0 0 1-2.1-.868 101 101 0 0 1-2.865-9.69c-.123-.513.758-1.51 1.407-1.878a1.94 1.94 0 0 1 1.749.742c1.217 3.127 2.258 6.318 3.377 9.558M9.819 42.463c-.329-.626-1.207-1.578-1-2.014 1.339-2.83 2.869-5.576 4.479-8.264.181-.3 1.333-.21 1.92.006.368.136.862 1.016.729 1.268-1.523 2.946-3.143 5.841-4.789 8.719-.113.197-.648.149-1.339.285"/></g></svg>