<svg xmlns="http://www.w3.org/2000/svg" width="140.503" height="141.379" viewBox="0 0 140.503 141.379"><path fill="#ba8b54" d="M87.274 96.249a32 32 0 0 0-5.773-2.268 29.8 29.8 0 0 0-6.092-1.084 37.1 37.1 0 0 0-12.33 1.31 1.78 1.78 0 0 0-1.291 1.533 29 29 0 0 1-3.249.671c-1.955.274-1.165 3.382.833 3.017 1.736-.319 3.479-.584 5.2-1q1.283-.31 2.552-.687c.323-.1.7-.258 1.091-.4q.074-.008.148-.023a2 2 0 0 0 .336.194c1.275.51 2.959.307 4.327.39q2.164.131 4.321.374c2.853.323 5.692.816 8.506 1.368 1.959.384 3.4-2.346 1.433-3.395Z"/><path fill="#75757c" d="M54.667 66.49a5.3 5.3 0 0 0-2.685-.561 1.4 1.4 0 0 0-.4-.2 3.5 3.5 0 0 0-1.091-.11 4.6 4.6 0 0 0-2.094.616 4.48 4.48 0 0 0-2.259 3.592 4.3 4.3 0 0 0 .926 2.849 5.2 5.2 0 0 0 1.112 2.417 3.27 3.27 0 0 0 1.943 1.081.718.718 0 0 0 .871-.871c-.026-.094-.042-.19-.065-.287a4.692 4.692 0 0 0 6.238-4.321 4.61 4.61 0 0 0-2.5-4.208Zm38.629 2.085a4.32 4.32 0 0 0-3.069-1.007 3.5 3.5 0 0 0-.549-.119 2.3 2.3 0 0 0-.949-.252 1.4 1.4 0 0 0-.168.019c-.01 0-.716.1-.3.039s-.3.039-.31.042c-.071.019-.142.052-.21.077a4.85 4.85 0 0 0-1.672 1.062 4.5 4.5 0 0 0-1.423 3.175 4.223 4.223 0 0 0 4.389 4.076h.016a4.1 4.1 0 0 0 2.2.074 4.36 4.36 0 0 0 2.381-1.617c.058-.065.129-.116.181-.184a3.82 3.82 0 0 0-.516-5.376Z"/><path fill="#eac485" d="M88.827 65.876a5.14 5.14 0 0 1 2.953 1.236c5.686-6.121 11.733-11.923 17.848-17.59q4.874-4.521 9.755-9.035c.842-.778-.384-1.949-1.242-1.242-10.184 8.431-20.259 17.013-29.314 26.631"/><path fill="#eac485" d="M130.186 63.263c1.126-1.036-.4-3.1-1.668-2.159q-10.809 8.04-20.933 16.9a516 516 0 0 1 7.48-7.616q5.232-5.2 10.6-10.278c1.016-.955-.371-2.859-1.526-1.978l-.255.2c-.006 0-.01.01-.016.013-5.734 4.4-11.278 9.029-16.7 13.8q3-3.287 6.005-6.564L122.912 55a1.363 1.363 0 0 0-1.926-1.926q-12.507 11.849-25.1 23.6c4.376-4.547 8.868-8.984 13.411-13.359q4.869-4.69 9.787-9.332c1.149-1.087-.374-3.166-1.723-2.233-4.337 3-8.535 6.183-12.64 9.474q2.42-2.348 4.85-4.689 6.249-6.012 12.53-11.991c1.2-1.136-.552-2.8-1.784-1.784-7.686 6.331-15.041 13.082-22.508 19.668l-5.689 5.021a2 2 0 0 1 .155.165 5.19 5.19 0 0 1 2.44 5.5 4 4 0 0 1-.145.526c.9-.8 1.784-1.62 2.688-2.414q-1.457 1.471-2.895 2.956a5.93 5.93 0 0 1-2.694 2.8 305 305 0 0 0-8.474 9.222c-.639.726-1.255 1.475-1.885 2.207a1.06 1.06 0 0 0-1.417-.039c-1.3.949-2.572 1.93-3.837 2.917 3.972 1.036 7.364 3.14 11.5 4.118 3.7.871 2.123 6.56-1.568 5.692-4.095-.965-7.5-3.592-11.7-4.269a21.5 21.5 0 0 0-13.521 2.472c-3.359 1.772-6.341-3.324-2.978-5.1.329-.174.665-.329 1-.494 1.465-1.83 2.94-3.646 4.443-5.431.507-.516 1.007-1.036 1.5-1.533 1.5-1.491 3.007-2.969 4.5-4.463q2.454-2.454 4.937-4.876a353 353 0 0 0-6.767 7.929 269 269 0 0 0-3.714 4.621q-1.7 1.52-3.385 3.059a27.04 27.04 0 0 1 12.2-2.307 18 18 0 0 1 3.462.558c4.744-4.682 9.532-9.316 14.421-13.84a5.69 5.69 0 0 1-6.034-2.662 6.05 6.05 0 0 1-.752-3.107c-.068.081-.139.155-.207.232-.419.494-.829.994-1.242 1.491a1.7 1.7 0 0 0-.2-.523c.561-.632 1.133-1.255 1.7-1.888a6.25 6.25 0 0 1 1.023-2.833 4.87 4.87 0 0 1 3.324-2.233c.087-.013.168-.013.252-.019 4.356-4.782 8.745-9.529 13.085-14.3q6.578-7.227 13.175-14.44a1.338 1.338 0 0 0-1.891-1.891q-12.7 10.32-24.757 21.394 3.979-4.3 7.983-8.571 6.859-7.309 13.769-14.566a1.37 1.37 0 0 0-1.933-1.929C92.966 44.229 79.136 57.85 65.615 71.761q3.6-4.337 7.315-8.571c2.056-1.807 4.1-3.621 6.057-5.547q4.482-4.424 8.9-8.919c2.895-2.94 5.812-5.85 8.726-8.771 1.455-1.459 2.914-2.917 4.356-4.392a26.6 26.6 0 0 0 4.03-4.579.534.534 0 0 0-.726-.726 12.5 12.5 0 0 0-1.933 1.281c.378-.39.749-.787 1.126-1.178a1.36 1.36 0 0 0-1.92-1.923c-9.871 8.89-19.532 18.006-29.1 27.216q8.166-9.39 16.335-18.774l10.481-12.03a1.322 1.322 0 0 0-1.868-1.868C85.935 33.929 74.594 45 63.215 56.033q9.7-11.791 20.368-22.737 5-5.116 10.2-10.032c1.288-1.213-.591-2.988-1.91-1.91-8.7 7.122-17.051 14.676-25.221 22.417l9.677-11.007q5.271-5.988 10.542-11.972a1.336 1.336 0 0 0-1.888-1.888q-7.515 6.846-14.792 13.939 1.946-2.057 3.911-4.1 5.2-5.373 10.568-10.575c1.258-1.22-.6-2.995-1.9-1.9C69.751 27.26 57.587 39.19 45.734 51.414c5.476-6.473 11.255-12.695 17.164-18.8q5.068-5.242 10.2-10.416a1.47 1.47 0 0 0-2.078-2.078Q55.351 35.88 39.681 51.646c6.338-7.457 13.011-14.634 19.8-21.678q5.344-5.542 10.752-11.013a1.411 1.411 0 0 0-1.994-1.994L40.032 44.912c6.025-6.844 12.23-13.534 18.49-20.158q5.369-5.674 10.775-11.321a1.365 1.365 0 0 0-1.93-1.93L44.457 33.34q7.12-7.595 14.418-15.024a1.416 1.416 0 0 0-2-2q-8.809 8.108-17.616 16.218 5-5.252 10.426-10.1c1.265-1.126-.571-2.9-1.839-1.839a203 203 0 0 0-24.695 24.339 1.233 1.233 0 0 0 .11 1.72c-.591.774-1.184 1.539-1.759 2.323a1.236 1.236 0 0 0-.026 1.53c-2.256 3.4-4.214 7.015-6.112 10.6a1.457 1.457 0 0 0 2.278 1.759c.139-.142.271-.29.407-.436a364 364 0 0 1-3.672 5.783c-.978 1.5 1.178 3.043 2.417 1.865 1.1-1.042 2.181-2.114 3.259-3.185a1.46 1.46 0 0 0 1.907-.048q1.583-1.563 3.159-3.133c-.245.361-.484.726-.733 1.084-2.678 3.85-5.624 7.48-8.419 11.239-.945 1.271 1.146 2.869 2.194 1.694.571-.639 1.155-1.262 1.726-1.9a24 24 0 0 0-2.068 3.291l.016.01a.862.862 0 0 0 1.346 1.042 44 44 0 0 0 4.318-5.305c1.333-1.743 2.646-3.5 3.966-5.253l4.179-5.547q.853-.86 1.707-1.726c-1.92 2.6-3.782 5.237-5.547 7.941a1.492 1.492 0 0 0 1.229 2.223c-3.93 4.737-7.444 9.871-10.917 14.815-1.078 1.536 1.384 2.878 2.475 1.449l.116-.152a.805.805 0 0 0 1.236.129c-.755 1.062-1.51 2.123-2.239 3.2-.833 1.229 1.046 2.662 2.049 1.581q6.273-6.728 12.436-13.563 1.864-2.077 3.682-4.189a1 1 0 0 0 .1 0q-1.709 1.873-3.337 3.795a235 235 0 0 0-6.347 7.841c-1.01 1.3-1.994 2.617-2.982 3.937-.671.9-1.536 1.855-2.181 2.872a.56.56 0 0 0-.355.355l-.374 1.123a.9.9 0 0 0 1.31 1.007 10.8 10.8 0 0 0 2.536-2.714c-.571.778-1.152 1.549-1.71 2.333-.939 1.317 1.12 2.927 2.223 1.81a42 42 0 0 0-3.5 5.879c-.513 1.084.9 2.452 1.794 1.384 2.578-3.066 4.611-6.589 6.88-9.887q3.446-5.015 7.125-9.865c3.017-3.979 6.186-7.819 9.429-11.594a5.4 5.4 0 0 1-.665-4.327 2.1 2.1 0 0 1 .113-.6 7 7 0 0 1 .274-.636c.058-.139.106-.281.174-.416a4.3 4.3 0 0 1 .945-1.252 6.2 6.2 0 0 1 1.891-1.468 1.42 1.42 0 0 0-2.023-.184q-.773.616-1.533 1.252c6.05-6.063 12.13-12.094 18.3-18.029q-4.54 5.257-8.884 10.684a313 313 0 0 0-4.569 5.876 3.9 3.9 0 0 1 2.575.5 4.6 4.6 0 0 1 1.846 5.663 3.13 3.13 0 0 1-.106 2.772 4.67 4.67 0 0 1-7.029 1.594 6 6 0 0 1-.649-.6q-9.124 11.917-18.251 23.834c-1.039 1.359 1.168 2.959 2.33 1.8q5.441-5.45 10.878-10.91-6.767 8.611-13.537 17.219c-1.107 1.407.729 3.4 2.027 2.026l.284-.3a.97.97 0 0 0 .784-.284q2.938-2.841 5.86-5.705-3.582 4.584-7.173 9.161l-.016.023c-.071.09-.142.177-.213.271l.035.019c-.665 1.407 1.162 3.095 2.243 1.736.662-.836 1.333-1.662 2-2.488-.123.184-.255.361-.378.545-.887 1.323 1.084 2.778 2.175 1.678l1.446-1.449a1.38 1.38 0 0 0 .639 1.62c-.652.794-1.3 1.591-1.965 2.378a1.384 1.384 0 0 0 .965 2.33c2.388.071 4.382-1.262 6.044-2.856l.106-.106-.177.232a1.48 1.48 0 0 0 1.078 2.369c-.678.826-1.349 1.655-2.026 2.478-1.042 1.268.632 3.046 1.839 1.839q2.8-2.807 5.621-5.612c-1.749 2.078-3.391 4.256-5.2 6.28-1.184 1.326.729 3.279 1.968 1.968 2-2.127 4.1-4.163 6.134-6.263a1.38 1.38 0 0 0 1.584.774q-3.151 3.383-6.3 6.767c-1.075 1.155.4 3.369 1.781 2.307 7.293-5.6 14.544-11.265 21.991-16.651-3.327 3.185-6.6 6.422-9.774 9.758-1.339 1.41.758 3.521 2.139 2.139.632-.632 1.278-1.255 1.917-1.881q-2.047 2.285-4.1 4.573a1.393 1.393 0 0 0 1.968 1.968q5-4.569 10.01-9.142a1.3 1.3 0 0 0 .636.252 136 136 0 0 0-4.043 3.947 1.4 1.4 0 0 0-.374 1.239c-.523.5-1.055.987-1.575 1.491-1.162 1.126.387 3.272 1.772 2.3a856 856 0 0 0 9-6.454c-.816.936-1.639 1.868-2.449 2.811-1.1 1.275.642 3.078 1.868 1.868q3.684-3.645 7.37-7.286 1.176-.992 2.317-2.026a1.57 1.57 0 0 0 1.062-.387c.245-.2.49-.407.739-.61-1.591 2.043-3.13 4.127-4.576 6.289-.71 1.062.662 2.262 1.688 1.688s2.068-1.194 3.095-1.814a1.26 1.26 0 0 0 1.342-.09 197 197 0 0 0 22.688-17.99c1.346-1.233-.655-3.22-2-2-2.11 1.9-4.272 3.73-6.457 5.531 4.563-4.66 9.013-9.4 13.434-14.192a.906.906 0 0 0-.187-1.41l.129-.139a1.532 1.532 0 0 0-2.165-2.165l-10.907 9.068c6.915-6.841 14.05-13.469 21.188-20.078 1.31-1.213-.6-3.043-1.933-1.933q-12.483 10.416-25.044 20.739c7.622-8.171 15.689-15.925 23.769-23.644 1.2-1.142-.365-3.24-1.788-2.317a170 170 0 0 0-13.837 10.052q4.313-4.332 8.7-8.587 5.353-5.184 10.836-10.226ZM98.062 51.156l-4.389 4.773c-2.643 2.117-5.282 4.234-7.812 6.483a164 164 0 0 0-3.614 3.324q7.769-7.44 15.815-14.582Zm-45.858-2.269q-2.836 3.311-5.615 6.667c-1.12 1.359-2.217 2.733-3.317 4.1a1.22 1.22 0 0 0-1.1.381c-.248.248-.487.5-.733.755-.729.5-1.442 1.029-2.139 1.568q6.405-6.778 12.904-13.471m-27.038.793 4.676-4.347q-3.112 3.5-6.189 7.028.765-1.338 1.513-2.681m4.385 3.15a364 364 0 0 0-6.5 8.048q-.427.359-.858.716a538 538 0 0 0 5.289-8.406l9.6-9.119q-3.818 4.337-7.531 8.761m17.7 8.474q-5.305 5.954-10.584 11.93a1.6 1.6 0 0 0-.336.642q-2.028 2.256-4.05 4.521c-.29.323-.587.639-.878.962.407-.6.807-1.2 1.22-1.8q2.667-3.848 5.4-7.648a1.21 1.21 0 0 0 1.149-.461q10.302-11.69 21.167-22.857l-13.1 14.708Zm30.081 23.321a.3.3 0 0 0 .045-.023c-.248.258-.5.513-.745.771-1.362 1.43-2.7 2.878-4.047 4.324a1 1 0 0 0-.019-.09q2.391-2.488 4.766-4.982m-3.114-17.387q-5.586 6.084-11.068 12.269a1.7 1.7 0 0 0-.316-.478q5.663-5.92 11.385-11.788Zm-1.023-8.709q-5.876 6.568-11.491 13.363a1.56 1.56 0 0 0-.353-1.927q5.9-5.736 11.833-11.433Zm-13.944 5.373q8.267-8.045 16.519-16.105-7.691 8.819-15.383 17.635c-.955 1.094-1.907 2.194-2.862 3.288l2.188-2.865a1.46 1.46 0 0 0-.465-1.952Zm-9.539 15.054a1.5 1.5 0 0 0 .4.49q-1.641 1.641-3.275 3.279l2.878-3.769Zm-.739 9.439c-.3.268-.591.545-.887.816l4.027-5.108q-1.595 2.129-3.142 4.291Zm6.054-.494a1.2 1.2 0 0 0-.587-.071l1.3-1.368.42-.336q-.57.887-1.135 1.774Zm9.684 11.972a1.6 1.6 0 0 0 .474.523 288 288 0 0 0-3.617 3.279q1.571-1.895 3.141-3.803Zm-1.717 16.444q1.055-1.157 2.114-2.314a1.26 1.26 0 0 0 .423.442q-1.268.934-2.533 1.872ZM98.7 83.357q-3.466 3.621-6.877 7.29a.56.56 0 0 0-.474.1c-.471.323-.929.658-1.391.994q4.332-4.23 8.742-8.387Zm3.779 2.682q-5.116 5.237-10.084 10.613c-.3.168-.591.342-.884.513a1.4 1.4 0 0 0-.691-.1q5.716-5.629 11.662-11.03Zm-15.654 3.817c-.778.836-1.549 1.672-2.327 2.507a1.4 1.4 0 0 0-.229-.616q3.408-3.229 6.806-6.463-2.125 2.285-4.25 4.576Zm-14.547 16.986c.674-.92 1.365-1.83 2.091-2.72.616-.762 1.246-1.51 1.881-2.256l.461-.5a1.54 1.54 0 0 0 .507 1.178q-2.464 2.159-4.94 4.3Zm2.533.952c1.71-1.465 3.424-2.927 5.121-4.4q.916-.798 1.833-1.591c-.891 1.023-1.788 2.043-2.665 3.078q-2.161 1.434-4.291 2.913Zm14.208 1.191a177 177 0 0 0-7.757 6.322l6.98-7.241a1.3 1.3 0 0 0 .358-.661c1.175-1.246 2.356-2.485 3.53-3.73a.3.3 0 0 0-.023.045c-.868 1.607-1.778 3.191-2.685 4.776-.132.165-.271.326-.4.49Zm1.152 3.249q3.616-3.093 7.312-6.089-1.922 2.014-3.811 4.056-1.757 1.007-3.5 2.03Zm12.759-4.621q-3.533 3.785-7.07 7.57a1.47 1.47 0 0 0-.355 1.484l-2.4 2.391q-.213.139-.419.278a55.3 55.3 0 0 1 9.4-11.007c.035-.032.061-.065.094-.1l.749-.62Zm-6.844-6.98a10 10 0 0 0 .252-1.4c1.307-1.378 2.6-2.762 3.914-4.134a1 1 0 0 0 .126-.19 276 276 0 0 1 6.776-6.057q-5.687 5.75-11.068 11.788Z"/><g fill="#262c54"><path d="M69.259 130.574c-28.661-.1-53.047-22.137-55.745-50.64a102 102 0 0 1-.035-16.66 45.85 45.85 0 0 1 7.832-22.15A75.9 75.9 0 0 1 41.85 19.955c1.407-.965 3.269-2.762 4.708-.852 1.6 2.123-1.039 2.9-2.272 4.017-4.653 4.214-9.629 8.132-13.885 12.714-11.252 12.118-14.812 26.716-13.182 42.94 1.22 12.159 6.37 22.44 14.44 31.285 11.588 12.7 26.215 17.838 43.247 16.331a52.55 52.55 0 0 0 24.315-8.132c3.546-2.291 5.147-2.436 5.531-.913.745 2.962-2.123 3.346-3.737 4.414-9.613 6.37-20.346 8.845-31.759 8.813Zm60.753-61.276c-.613 15.131-4.456 29.242-15.428 40.682-2.2 2.294-3.485 2.914-4.327 1.755-1.317-1.814.239-2.969 1.162-4.208.749-1.01 1.607-1.936 2.4-2.911 10.658-13.117 14.208-28.3 11.023-44.535-2.856-14.55-10.852-26.444-22.985-35.306-.432-.316-.939-.539-1.368-.862-1.129-.842-2.769-1.691-1.555-3.359 1.094-1.51 2.714-.736 3.83.142 3.514 2.765 7.27 5.347 10.287 8.6a72.3 72.3 0 0 1 13.582 21.878c2.365 5.731 3.146 11.775 3.382 18.126Z"/><path d="M72.425 0c11.346.245 22.237 2.149 32.4 7.306a31.4 31.4 0 0 1 5.376 3.546 2.61 2.61 0 0 1 .51 2.356c-.478 1.3-1.649 1.081-2.707.568-.323-.155-.629-.345-.942-.52-23.74-13.169-47.6-11.178-71.431-.394-3.391 1.536-6.3 4.124-9.516 6.086-.6.368-1.613.061-2.436.068a10.7 10.7 0 0 1 .126-2.865c.184-.591.952-1.039 1.526-1.465 1.446-1.068 2.878-2.162 4.4-3.117a72.4 72.4 0 0 1 27.174-9.916C62.031.82 67.249.536 72.425 0M59.027 97.776c-3.249.184-4.882 2.569-6.751 4.753a3.06 3.06 0 0 1-2.643.91c-1.517-.626-1.2-2.088-.413-3.169a17 17 0 0 1 3.5-4.008c7.38-5.25 15.512-8.277 24.721-7.173 6.454.774 11.556 3.746 14.26 9.978a10.4 10.4 0 0 1 .881 3.069 2.186 2.186 0 0 1-3.075 2.43 28 28 0 0 1-2.93-1.342c-7.806-3.495-15.818-4.46-24.1-1.92a14 14 0 0 1-1.523.526c-2.265.423-2.83-.371-2.269-3.127.071-.345.171-.684.255-1.026a24 24 0 0 0 3.146-.487 36.6 36.6 0 0 1 19.658.029c.868.226 1.72.529 2.6.671a4.3 4.3 0 0 0 1.365-.236c-.265-.436-.426-1.02-.807-1.281a16 16 0 0 0-3.682-2.159c-8-2.694-15.431-1.565-22.2 3.566Zm14.101 43.551a41 41 0 0 1-5.36-.081 2.37 2.37 0 0 1-1.584-1.7c.006-.6.913-1.513 1.6-1.717a25 25 0 0 1 3.734-.371c5.508-.768 11.11-1.155 16.493-2.446 17.525-4.211 30.378-14.912 40.046-29.794a52 52 0 0 1 3.3-4.9 1.747 1.747 0 0 1 3.066 1.639 17.5 17.5 0 0 1-1.975 3.8c-12.291 19.9-31 34.27-59.32 35.57m30.449-79.805c-2.785.645-5.437 1.1-7.974 1.923-1.249.4-2.278 1.488-3.4 2.262.916.5 1.878.926 2.743 1.5 4.176 2.778 4.26 7.761.155 10.665a10.45 10.45 0 0 1-8.726 1.552 6.21 6.21 0 0 1-4.957-6.718 10.48 10.48 0 0 1 3.385-7.109c5.96-5.944 13.356-8.145 21.559-7.712 1.633.087 3.256 1.258 4.76 2.139.365.213.52 1.375.284 1.868a2.05 2.05 0 0 1-1.649.981c-2.094-.326-4.15-.891-6.18-1.355Zm-13.84 14.3a15.5 15.5 0 0 0 3.2-1.517c.558-.4 1.016-2.081.8-2.252a26.2 26.2 0 0 0-5.586-3.579c-.968-.41-2.927 3.153-2.74 4.773.174 1.5 1.713 2.607 4.331 2.575ZM50.291 65.355c-3.769-2.988-8.332-2.885-12.766-3.279-1.607-.142-3.23-.139-4.821-.365a1.54 1.54 0 0 1-.965-1.162 2.37 2.37 0 0 1 .771-1.788 6.94 6.94 0 0 1 3.062-.768 39.14 39.14 0 0 1 17.309 3.521 16.3 16.3 0 0 1 4.021 2.682c5.137 4.815 3.327 12.449-3.382 14.566a6.822 6.822 0 0 1-6.505-11.843 17.3 17.3 0 0 1 3.365-1.655c1.136 2.017.578 3.569-1.065 5.108a2.49 2.49 0 0 0-.129 3.8c1.165 1.191 2.575 1.026 3.934.371 2.7-1.3 3.592-4.456 1.578-6.635-1.1-1.191-2.914-1.723-4.4-2.552ZM0 78.691c.255-3.385.316-6.1.739-8.745a3 3 0 0 1 1.92-2.078c1.642-.139 1.823 1.346 1.852 2.656.1 5.018-.016 10.052.384 15.044.226 2.82 1.391 5.557 1.943 8.371.142.72-.442 1.581-.691 2.378-.92-.316-2.256-.361-2.672-1a12.2 12.2 0 0 1-1.736-4.476C1.007 86.594.5 82.315 0 78.691m133.711-40.033c-.332.436-.642 1.226-1.168 1.413a2.22 2.22 0 0 1-1.93-.358 19.4 19.4 0 0 1-1.826-2.64q-4.753-6.52-9.548-13.011c-.823-1.11-2.391-2.165-1.02-3.643 1.329-1.433 2.649-.313 3.717.684 4.8 4.492 8.164 10.016 11.214 15.757a11.5 11.5 0 0 1 .561 1.798M51.83 140.335a45.9 45.9 0 0 1-16.567-7.138 3.7 3.7 0 0 1-1.139-1.72 1.632 1.632 0 0 1 1.8-2.007 17.6 17.6 0 0 1 2.43 1.075q6.113 2.686 12.233 5.363c.655.284 1.523.3 1.985.749a12.2 12.2 0 0 1 1.539 2.414l-2.272 1.265Z"/><path d="M67.936 10.926c1.955.21 3.917.361 5.857.681a1.51 1.51 0 0 1 .92 1.168 2.44 2.44 0 0 1-.894 1.736 5.2 5.2 0 0 1-2.582.529 41.4 41.4 0 0 0-14.9 2.056 2.9 2.9 0 0 1-2.633-.813c-.845-1.423.339-2.491 1.565-2.817 4.14-1.094 8.338-1.985 12.511-2.953q.08.207.156.413m13.628 1.394c4.376.326 7.79 1.255 10.775 3.333a2.39 2.39 0 0 1 .755 2.175 2.46 2.46 0 0 1-2.139.981 94 94 0 0 1-9.184-2.562c-.839-.284-1.43-1.307-2.136-1.988l1.933-1.936Zm58.939 41.618a6.4 6.4 0 0 1-1.888.787c-.62.055-1.71-.155-1.852-.526a60 60 0 0 1-2.136-6.983c-.084-.345.752-1.094 1.3-1.349a1.49 1.49 0 0 1 1.4.416c1.02 2.237 1.904 4.531 3.176 7.655M7.642 55.993c-1.107 1.3-2.014 2.433-3.033 3.462-.106.106-1.026-.294-1.265-.658a3.193 3.193 0 0 1 .571-4.272 2.14 2.14 0 0 1 1.794-.623c.661.3 1.084 1.12 1.933 2.091"/></g></svg>