<svg xmlns="http://www.w3.org/2000/svg" width="151.94" height="151.962" viewBox="0 0 151.94 151.962"><g fill="#eb8486"><path d="M133.015 65.884c-6.867 2.7-13.711 5.466-20.5 8.354q10.383-5.944 20.765-11.885c2.13-1.22.248-4.389-1.914-3.275q-9.589 4.942-19.184 9.868c-1.181 10-8.138 20.407-14.244 26.851-1.5 1.581-3.14 3.269-4.892 4.915q10.523-5.47 21.285-10.475c5.211-2.44 10.442-4.834 15.676-7.228 1.965-.9.571-4.243-1.481-3.511-6.935 2.475-13.782 5.166-20.575 8l10.913-5.431c6.431-3.2 12.869-6.393 19.336-9.523a11.3 11.3 0 0 1-.523-3.924q-7.628 2.328-15.1 5.076 5.779-2.585 11.552-5.179c1.471-.662.413-3.23-1.11-2.633ZM79.14 55.793a32 32 0 0 0 3.279-3.036l-6.705 3.6c.868.642 1.81.684 3.43-.565ZM60.311 45.516a17.03 17.03 0 0 1 8.154 3.708 2.8 2.8 0 0 1 .936 1.313 28.4 28.4 0 0 1 3.8 3.191c.736.739 1.3 1.462 1.833 2.023 7.551-5.076 15.312-9.845 23.163-14.457q6.927-4.071 13.908-8.045c2.03-1.158.248-4.043-1.8-3.085-8.306 3.879-16.489 7.993-24.6 12.253q5.1-2.919 10.242-5.779c5.586-3.1 11.2-6.157 16.806-9.213 2.1-1.142.255-4.124-1.843-3.153Q93.954 32.113 77.476 40.91q3.693-2.348 7.4-4.673 7.4-4.632 14.818-9.219c2.13-1.32.213-4.64-1.972-3.372Q78.99 34.533 60.308 45.516Zm47.552 8.113a18.87 18.87 0 0 1 4.414 14.334l.671-.371q7.667-4.192 15.373-8.319c1.791-.965.532-4.185-1.417-3.362-.145.061-.29.129-.439.19a.4.4 0 0 1-.052.026 459 459 0 0 0-10.736 4.721q8.8-4.463 17.661-8.826c1.83-.907.552-3.863-1.384-3.282-5.812 1.749-11.527 3.756-17.174 5.944 1.739-.781 3.482-1.559 5.218-2.346a53 53 0 0 0 7.738-3.869.95.95 0 0 0-.729-1.726 38.6 38.6 0 0 0-7.173 2.185c-2.236.836-4.45 1.726-6.66 2.63q7.125-3.906 14.279-7.751c2.085-1.126.248-4.192-1.846-3.156-3.1 1.53-6.186 3.1-9.258 4.7 2.6-1.568 5.2-3.149 7.8-4.708 1.665-1 .571-4.011-1.375-3.256-8.106 3.149-16 6.754-23.747 10.652a18.4 18.4 0 0 1 8.829 5.6Z"/><path d="M134.898 82.012c-14.253 6.5-28.487 13.04-42.747 19.523-3.895 3.55-8.309 6.789-12.985 8.193-7.467 2.243-13.172-4.308-18-8.871-5.941-5.615-12.52-10.2-16.509-17.561a44 44 0 0 1-2.672-5.947q-3.369 1.96-6.641 4.072 3.233-2.28 6.467-4.553a33.3 33.3 0 0 1-1.835-15.101c1.329-10.284 10.465-17.4 19.716-16.335q11.06-7.643 22.5-14.728 7.527-4.652 15.212-9.045c1.959-1.12.226-4.043-1.762-3.014q-3.558 1.844-7.083 3.74a1.814 1.814 0 0 0-2.456-2.4c-17.7 8.383-34.476 18.484-51 28.965 9.16-7.222 18.86-13.773 28.681-20.059 4.679-2.995 9.39-5.938 14.1-8.877a1.911 1.911 0 0 0-1.926-3.3 214 214 0 0 0-10.662 5.547c.784-.507 1.562-1.026 2.352-1.523 2.2-1.388.229-4.8-2.046-3.5l-16.015 9.2q3.1-2.256 6.273-4.418c2.207-1.5.271-4.934-2.114-3.614a176 176 0 0 0-23.883 16.048 1.48 1.48 0 0 0-.029 2.359q-1.738 1.505-3.446 3.043c-1.784 1.607.5 4.443 2.527 3.275l4.2-2.43q-2.633 2.149-5.221 4.347a291 291 0 0 0-10.058 8.926c-1.388 1.294.084 3.688 1.691 3.356a180 180 0 0 0-5.224 5.082c-1.449 1.475.445 4.13 2.265 2.936 10.478-6.881 20.946-13.769 31.595-20.358q-6.956 4.986-13.766 10.168-7.024 5.358-13.873 10.939a1.7 1.7 0 0 0-.352.4 273 273 0 0 0-5.453 3.4 1.765 1.765 0 0 0 1.781 3.046l2.136-1.023a31 31 0 0 0-3.421 2.962 1.076 1.076 0 0 0 1.3 1.681 91 91 0 0 0 9.061-5.7q2.469-1.612 4.982-3.156c-5.089 4.266-10.074 8.674-14.815 13.314a1.862 1.862 0 0 0 1.3 3.146 19 19 0 0 0 1.962-.181c-.119.081-.239.158-.358.242-1.956 1.355-.187 4.524 1.891 3.237l.707-.432c-.142.1-.29.2-.432.307-1.291.936-1 3.327.881 3.25.465-.019.92-.074 1.375-.136a1.67 1.67 0 0 0-.555.887 3.6 3.6 0 0 0-1.878 1.968l-.194.119a.505.505 0 0 0 .51.871c.055-.026.11-.048.165-.074.871.368 2.078-.132 3.133-.684a1.83 1.83 0 0 0 1.117-.171c3.285-1.652 6.583-3.279 9.881-4.9l-.323.252c-1.985 1.168-3.972 2.323-5.95 3.5a1.626 1.626 0 0 0-.771 2.02 192 192 0 0 0-6.244 5.6 1.816 1.816 0 0 0 2.191 2.84q4.5-2.793 9.019-5.534 2.391-1.176 4.782-2.359-5.242 3.117-10.487 6.231a1.767 1.767 0 0 0 .613 3.249c-.436.248-.871.49-1.307.739-1.91 1.091-.2 4.008 1.723 2.946.1-.058.207-.113.31-.168a1.659 1.659 0 0 0 2.414 1.894q9.637-4.656 19.268-9.332-10.688 6.394-21.369 12.808a39 39 0 0 1 2.707 2.559l12.395-6.457a111 111 0 0 0-3.327 2.833 1.443 1.443 0 0 0-.3 2c-2.21 1.3-4.4 2.64-6.57 4 .787.891 1.568 1.8 2.362 2.717q11.962-7.035 24.379-13.271c-.445.313-.894.623-1.336.939-5.144 2.949-10.245 5.976-15.25 9.152a2 2 0 0 0 .7 3.659q-1.312.905-2.6 1.852a1.74 1.74 0 0 0-.7 2.139 1.694 1.694 0 0 0 2.023.994l.41-.174q7.348-3.093 14.689-6.2a1.88 1.88 0 0 0 1.462.165 167 167 0 0 0-13.421 9.919 31 31 0 0 0 3.659 1.8l10.981-4.7a1 1 0 0 0 .045.113 2 2 0 0 0 .136.19q-1.878 1.1-3.759 2.207c-1.581.933-.526 3.817 1.3 3.078q4.2-1.7 8.4-3.408a2 2 0 0 0-.116 1.036c-.1.11-.2.216-.29.329a1.658 1.658 0 0 0 1.6 2.746 53 53 0 0 0 5.676-1.271c-.274 1.3.829 2.946 2.317 2.336l14.327-5.847-9.461 5.16c-1.9 1.036-.594 4.4 1.51 3.579q.61-.238 1.213-.478c-.136.084-.274.161-.41.245a1.74 1.74 0 0 0-.874 1.349 26.7 26.7 0 0 0 7.738-.59c1.675-.8 3.343-1.617 4.986-2.478 3.256-1.71 6.486-3.669 9.836-5.163a.577.577 0 0 0 .332-.762q7.382-3.679 14.928-7.022c1.978-.874.552-4.327-1.488-3.527q-4.7 1.844-9.41 3.685l11.639-6.415a1.98 1.98 0 0 0 .055-3.237q3.461-1.515 6.941-2.991c1.956-.829.552-4.208-1.459-3.459l-5.463 2.033c.136-.068.271-.126.4-.2a12.5 12.5 0 0 0 1.613-1.2.855.855 0 0 0-.655-1.555 14 14 0 0 0-1.73.281c-.552.174-1.094.423-1.633.636-.933.371-1.855.762-2.785 1.142-1.907.781-3.821 1.549-5.715 2.356q-4.216 1.8-8.413 3.653 6.743-3.756 13.482-7.515l13.137-7.319c1.936-1.078.552-3.627-1.323-3.343l1.281-.649c2.181-1.1.268-4.2-1.891-3.237q-8.664 3.872-17.332 7.735l9.387-4.947 17.325-9.135c2.156-1.139.265-4.2-1.885-3.224ZM30.921 72.625c-.729.481-1.452.971-2.175 1.459.978-.874 1.952-1.749 2.936-2.614a1.8 1.8 0 0 0 .755.187c-.503.326-1.016.636-1.516.968m22.972 33.65q2.328-1.641 4.718-3.191a1.86 1.86 0 0 0 .068 1.094l-4.789 2.1Zm27.525 14.841-.916.507a1.36 1.36 0 0 0-1.039-.642q5.649-2.522 11.3-5.04-4.67 2.589-9.344 5.175Z"/><path d="M98.915 47.994q3.108-1.66 6.215-3.324l15.254-8.161c2.068-1.107.236-4.227-1.836-3.14-8.784 4.608-17.587 9.232-26.257 14.076a17.4 17.4 0 0 1 6.624.549"/></g><g fill="#262c54"><path d="M139.605 73.286a94.5 94.5 0 0 1-5.75 30.788 72.3 72.3 0 0 1-8.161 15.266 23 23 0 0 1-2.4 2.888c-1.194 1.265-2.53 2.394-3.692 3.685-7 7.745-16.1 11.414-26.035 13.459a43.1 43.1 0 0 1-13.553.248c-2.588-.287-5.186-.487-7.777-.755a73.4 73.4 0 0 1-21.8-5.492 28.5 28.5 0 0 1-4.114-2.117c-3.485-2.256-6.948-4.55-10.323-6.967a27 27 0 0 1-3.775-3.553 96 96 0 0 1-7.373-8.158 53.6 53.6 0 0 1-8.351-15.137 134 134 0 0 1-4.337-15.292c-1.41-6.96-.674-13.831.484-20.7a10.1 10.1 0 0 1 1.016-2.7 1.814 1.814 0 0 1 2.436-.968 1.867 1.867 0 0 1 1.165 2.356c-.226 1.033-.578 2.043-.791 3.078-2.036 9.929-.658 19.529 2.5 29.045a66.2 66.2 0 0 0 6.986 14.876 26.6 26.6 0 0 0 2.743 3.724c4.427 4.815 8.687 9.7 14.34 13.343 5.082 3.279 10.136 6.36 15.973 7.954a91.8 91.8 0 0 0 19.374 3.227c2.795.148 5.586.558 8.374.5a41.54 41.54 0 0 0 25.318-8.69 53.05 53.05 0 0 0 17.261-22.795 86.2 86.2 0 0 0 5.889-24.957c.774-10.639-.378-20.952-6.212-30.394a71 71 0 0 0-10.063-13.362 41 41 0 0 1-2.778-3.33 1.96 1.96 0 0 1-.116-2.646 2.11 2.11 0 0 1 2.882-.252 3.7 3.7 0 0 1 .878.749c3.414 4.179 7.141 8.151 10.142 12.608 4.1 6.089 7.645 12.569 8.606 20.049.49 3.824.768 7.67 1.036 10.429Z"/><path d="M76.645 53.983a17.4 17.4 0 0 1 7.912-6.718c5.786-2.472 11.649-2.281 17.532-.368.549.177 1.065.461 1.607.658 6.36 2.285 9.435 7.131 10.226 13.534 1.333 10.8-2.046 20.368-8.035 29.174a18 18 0 0 1-2.343 2.562c-2.2 2.168-4.34 4.414-6.676 6.428a91 91 0 0 1-7.335 5.625c-3.243 2.262-6.573 4.4-9.907 6.528a7.34 7.34 0 0 1-8.216 0c-1.73-1.039-3.343-2.272-4.992-3.443a89 89 0 0 1-3.485-2.594 7.8 7.8 0 0 1-1.646-1.588 2.165 2.165 0 0 1 .407-2.875 1.97 1.97 0 0 1 2.643.161c1.8 1.459 3.569 2.956 5.418 4.347 1.229.926 2.572 1.7 3.869 2.533a3.49 3.49 0 0 0 3.843 0 86 86 0 0 0 5.173-3.195 224 224 0 0 0 7.59-5.324 49 49 0 0 0 4.214-3.511c2.056-1.9 4.024-3.895 6.041-5.837a29.7 29.7 0 0 0 6.857-10.959c2.043-5.266 3.275-10.733 2.6-16.425a26 26 0 0 0-1.565-6.125 8.65 8.65 0 0 0-4.414-4.427 21.12 21.12 0 0 0-14.586-2.159c-4.5.981-7.97 3.337-9.978 7.6a6.8 6.8 0 0 1-.836 1.51 2.49 2.49 0 0 1-3.995-.045 21 21 0 0 1-1.6-2.749 21.1 21.1 0 0 0-6.128-7.225 11.7 11.7 0 0 0-6.98-2.449c-.965 0-1.936.029-2.9-.055-4.611-.4-7.932 1.868-10.778 5.147-6.47 7.451-6.257 15.789-3.22 24.489.445 1.275 1.1 2.481 1.462 3.772a3.44 3.44 0 0 1-.181 2.172 1.543 1.543 0 0 1-2.456.487 3.6 3.6 0 0 1-1.113-1.3c-3.808-8.561-5.625-17.283-1.546-26.28A23.84 23.84 0 0 1 49.59 43.804a4.1 4.1 0 0 1 1.055-.471c8.738-1.91 16.283-1.265 22.443 5.944 1.236 1.446 2.3 3.04 3.543 4.7ZM.003 72.161c1.033-9.739 2.778-18.7 6.944-27.032.129-.258.232-.532.378-.784C14.302 32.299 22.31 21.192 34.199 13.36c8.122-5.35 16.57-9.942 26.135-12.04A80 80 0 0 1 70.095.31c1.439-.132 2.882-.187 4.324-.3 1.352-.1 2.21.384 2.423 1.465a1.8 1.8 0 0 1-1.288 2.281 14 14 0 0 1-3.679.558 59 59 0 0 0-10.365.869c-4.918.878-9.41 2.933-13.827 5.066-11.117 5.366-20.849 12.62-28.1 22.7-4.5 6.251-8.893 12.624-11.533 20a77.3 77.3 0 0 0-3.14 13.2c-.323 1.9-.5 3.824-.762 5.734a3.6 3.6 0 0 1-.407 1.665c-.431.559-1.143 1.227-1.731 1.22a2.67 2.67 0 0 1-1.7-1.242A2.74 2.74 0 0 1 0 72.161Zm151.852-.278c-.481 4.5-.833 9.019-1.475 13.5-.82 5.718-1.659 11.449-2.866 17.093a57.3 57.3 0 0 1-12.133 24.689 48.6 48.6 0 0 1-13.224 11.565c-.336.19-.655.413-1 .587-1.62.833-2.833.6-3.472-.658-.581-1.139-.126-2.2 1.375-3.007a45.6 45.6 0 0 0 16.6-15.773 57.75 57.75 0 0 0 8.971-23.6q1.51-10.581 2.888-21.181c.187-1.43.094-2.891.2-4.337a20 20 0 0 1 .4-2.849 1.77 1.77 0 0 1 2.1-1.526 1.923 1.923 0 0 1 1.707 2.03 28 28 0 0 1-.219 3.453q.076.005.148.014"/><path d="M64.345 13.201a2.2 2.2 0 0 1 2.43 1.494 1.856 1.856 0 0 1-1.1 2.146 11.7 11.7 0 0 1-2.452.826 91.6 91.6 0 0 0-15.639 5.183c-6.534 2.92-11.627 7.557-16.064 12.985-2.433 2.975-5.069 5.841-6.58 9.487a1.81 1.81 0 0 1-2.346 1.165 2.057 2.057 0 0 1-1.346-2.562 11 11 0 0 1 1.436-3.13 75.5 75.5 0 0 1 13.417-15.5c6.412-5.453 14.047-8.338 22.014-10.526 2.139-.587 4.3-1.087 6.231-1.572Zm-52.954 99.251c-.019-1.449.694-2.436 1.723-2.546a2.005 2.005 0 0 1 2.168 1.539c.4 1.081.662 2.217 1.052 3.3a23.6 23.6 0 0 0 5.715 8.274c3.011 3.114 6.183 6.073 9.287 9.1.139.135.307.239.436.378.945 1.01 1.158 2.049.587 2.856a2.02 2.02 0 0 1-3.069.265 51 51 0 0 1-5.744-4.837c-2.617-2.691-5.076-5.55-7.474-8.448a20.44 20.44 0 0 1-4.372-8.709c-.1-.468-.242-.926-.307-1.175ZM95.281 1.569q.279.073.558.152c7.712 2.21 15.208 4.94 22.011 9.306.161.1.329.2.481.323 1.271 1 1.578 1.968.929 2.943-.665 1-1.549 1.152-3.056.468a14 14 0 0 1-1.778-.962c-5.66-3.621-11.917-5.825-18.3-7.741a10.2 10.2 0 0 1-2.156-.791 1.89 1.89 0 0 1-1-2.43 1.98 1.98 0 0 1 2.317-1.268Zm-2.527 148.947a2.85 2.85 0 0 1-1.258-.174 2.63 2.63 0 0 1-1.217-1.4 2.7 2.7 0 0 1 .678-1.743 2.34 2.34 0 0 1 1.265-.629q6.288-1.559 12.588-3.062a1.894 1.894 0 0 1 2.436.978 1.915 1.915 0 0 1-.749 2.523 4.9 4.9 0 0 1-1.765.936c-3.55.855-7.115 1.642-10.678 2.44a12 12 0 0 1-1.3.131m2.13-135.346a16 16 0 0 1 1.994.658c3.088 1.565 6.18 3.137 9.226 4.779a3.7 3.7 0 0 1 1.626 1.555 2.41 2.41 0 0 1-.155 2.072 2.64 2.64 0 0 1-1.994.649c-.61-.039-1.187-.587-1.784-.9q-4.23-2.193-8.461-4.382a11.6 11.6 0 0 1-1.513-.826 1.7 1.7 0 0 1-.668-2.278c.381-.626 1.226-.968 1.726-1.333ZM55.587 98.244a9 9 0 0 1-1.594-.771c-2.133-1.639-4.272-3.279-6.318-5.024a9.4 9.4 0 0 1-1.946-2.465 1.77 1.77 0 0 1 .4-2.362 1.79 1.79 0 0 1 2.4-.016c2.733 2.269 5.473 4.537 8.106 6.918 1.129 1.023 1.1 2.168.2 3.02a5.7 5.7 0 0 1-1.246.7Zm72.867-77.452a15.4 15.4 0 0 1 2.285 1.4c1.868 1.659 3.672 3.391 5.479 5.118a1.81 1.81 0 0 1 .484 2.556 2.18 2.18 0 0 1-2.83.565 3.8 3.8 0 0 1-.975-.61 402 402 0 0 1-5.618-5.4 1.844 1.844 0 0 1-.42-2.365c.307-.5.965-.784 1.588-1.262Zm-58.336 131.17a32 32 0 0 1-3.356-1.478 1.83 1.83 0 0 1-.739-2.5 1.785 1.785 0 0 1 2.178-.978 14 14 0 0 1 2.911 1.146 1.69 1.69 0 0 1 .9 2.4c-.352.62-1.233.939-1.894 1.41m9.464-135.663a10.6 10.6 0 0 1-2.691-1.344 2.38 2.38 0 0 1-.35-2.06 1.99 1.99 0 0 1 1.52-1.007 11 11 0 0 1 3.1.4 1.8 1.8 0 0 1 1.471 2.139c-.158 1.152-1 1.539-2.059 1.591-.287.013-.574 0-.862 0l-.129.274Z"/></g></svg>