<svg xmlns="http://www.w3.org/2000/svg" width="148.429" height="132.006" viewBox="0 0 148.429 132.006"><path fill="#eb8486" d="M97.307 95.093c-2 .794-3.985 1.62-5.967 2.462q1.341-.939 2.682-1.875c1.336-.933.555-3.569-1.2-2.856q-1.423.576-2.849 1.168a1.333 1.333 0 0 0-1.885-.884c-3.3 1.53-6.589 3.1-9.894 4.634 1.565-1.1 3.13-2.2 4.7-3.288a1.427 1.427 0 0 0-1.439-2.462c-1.752.878-3.514 1.736-5.273 2.6.426-.323.849-.652 1.278-.971a1.412 1.412 0 0 0-1.423-2.436q-2.861 1.491-5.715 3a1.434 1.434 0 0 0-1.736-2.239q-1.5.707-2.991 1.407l.261-.194c1.51-1.116.152-3.64-1.51-2.582-3.93 2.5-7.893 4.947-11.823 7.444a1.12 1.12 0 0 0-.42 1.494l-.9.658a1.564 1.564 0 0 0 1.578 2.7c1.3-.616 2.588-1.255 3.879-1.881-.358.281-.723.555-1.078.836-1.388 1.1.384 3.22 1.849 2.4 1.294-.729 2.6-1.436 3.9-2.143a1.571 1.571 0 0 0 2.081 2.239c.2-.1.394-.2.591-.3-.9 1.113.7 2.823 2.03 2.107a129 129 0 0 1 3.595-1.859 1.678 1.678 0 0 0 2.378 2.01c1.171-.658 2.343-1.3 3.521-1.946a1.654 1.654 0 0 0 1.875 2.7c1.265-.571 2.54-1.12 3.814-1.672a1.666 1.666 0 0 0 2.149 2.417 5 5 0 0 0 .929-.607c4.74-3.066 9.387-6.3 14.211-9.229 1.442-.875.5-3.514-1.2-2.843Z"/><path fill="#ba8b54" d="M113.016 66.267c-.623.352-1.249.7-1.872 1.052a1.628 1.628 0 0 0-2.411-1.733l-.545.316a1.72 1.72 0 0 0-2.53-1.278q-7.348 4.1-14.666 8.251 7.241-5.232 14.489-10.449c1.684-1.207.155-3.985-1.655-2.83q-3.393 2.164-6.8 4.311a1.527 1.527 0 0 0-2.2-1.042q-6.752 3.354-13.334 7.028l.81-.468a61 61 0 0 0 7.228-4.376c.684-.532.232-1.517-.465-1.759l1.139-.8c1.7-1.191.181-3.937-1.655-2.83l-17.54 10.575c.942-.671 1.885-1.342 2.8-2.046 1.133-.865 2.607-1.82 3.233-3.143a.64.64 0 0 0-.116-.758l4.831-3.853c1.459-1.162-.432-3.566-1.988-2.575L69.33 64.524l2.11-1.672c1.381-1.087-.4-3.3-1.862-2.411q-6.351 3.882-12.727 7.716a124 124 0 0 1 5.228-3.921c1.675-1.184.148-3.937-1.636-2.8q-1.747 1.113-3.491 2.23a1.506 1.506 0 0 0-2.1-1.755l-.536.271a1.41 1.41 0 0 0-1.823-.484 56.3 56.3 0 0 0-8.661 5.115 399 399 0 0 0-6.2 3.727 1.539 1.539 0 0 0 1.552 2.656q.701-.365 1.407-.729a2 2 0 0 0 .148-.077q1.81-.939 3.621-1.881l-7.044 5.779c-1.371 1.126.407 3.379 1.888 2.446q1.568-.987 3.133-1.981c-.168.171-.345.329-.513.5a1.628 1.628 0 0 0 1.962 2.546q2.086-1.278 4.169-2.559c-2.3 1.791-4.611 3.575-6.906 5.379-1.5 1.181.445 3.663 2.039 2.643q5.9-3.78 11.8-7.564-5.944 4.739-11.885 9.481c-1.475 1.178.423 3.53 1.994 2.582l1.723-1.039a3.3 3.3 0 0 0-1.368 2.388.67.67 0 0 0 .481.629c1.262.307 2.465-.81 3.427-1.542-.471.445-.945.884-1.41 1.333-1.291 1.252.461 3.692 1.975 2.559.542-.407 1.1-.8 1.642-1.2a1.713 1.713 0 0 0 2.478 1.8c3.343-2.065 6.67-4.156 10.01-6.228a1.712 1.712 0 0 0 1.381 2.23c-.168.123-.336.242-.5.368-1.7 1.268-.223 4.05 1.71 2.924q5.136-2.991 10.268-5.992a1.682 1.682 0 0 0 2.481.994 697 697 0 0 0 6.793-3.814l-5.55 3.911a1.735 1.735 0 0 0 1.749 2.995q2.478-1.234 4.953-2.472a1.78 1.78 0 0 0-.258 1.839 1.817 1.817 0 0 0 2.172 1.068c.148-.061.29-.126.439-.19l.016-.01q2.8-1.186 5.534-2.5a1.8 1.8 0 0 0 .471.358l-.058.042a1.805 1.805 0 0 0-.726 2.22 1.755 1.755 0 0 0 2.1 1.029l.781-.316a1.854 1.854 0 0 0 2.223 1.559l1.623-.355a1.68 1.68 0 0 0 1.907.1l1.139-.845a1.827 1.827 0 0 0-.158-3.127c.1-.107.21-.213.313-.316a1.88 1.88 0 0 0 .132-2.31q1.631-1.171 3.256-2.349a1.8 1.8 0 0 0 .042-3.056c.323-.213.645-.423.965-.639a1.982 1.982 0 0 0 .116-3.233 1.7 1.7 0 0 0 .578-1.226c.368-.245.749-.474 1.11-.733a11.5 11.5 0 0 0 2.8-2.265c.6-.826-.387-1.9-1.271-1.655a11.4 11.4 0 0 0-3.011 1.81c-.484.329-.965.674-1.439 1.023a2 2 0 0 0-.755.213c-1.965.987-3.934 1.965-5.9 2.949q6.7-4.7 13.385-9.423c1.8-1.275.232-4.118-1.755-3Z"/><path fill="#eac485" d="M111.69 66.048a5.5 5.5 0 0 1 1.914 2.865c1.439-.778 2.875-1.559 4.314-2.327 4.973-2.656 9.971-5.27 14.966-7.883 1.775-.929.526-4.079-1.391-3.3q-5.421 2.212-10.746 4.624l12.249-6.867c1.949-1.094.226-4-1.743-2.985l-25.228 13a19.2 19.2 0 0 1 5.663 2.869Z"/><path fill="#eac485" d="M135.369 70.359a954 954 0 0 1-17.067 7.538c.8-.429 1.6-.845 2.388-1.281q6.8-3.737 13.534-7.561c1.255-.71.155-2.485-1.113-1.9-6.131 2.817-12.227 5.679-18.274 8.658.923-.552 1.849-1.094 2.769-1.652q8-4.836 15.863-9.91a1.82 1.82 0 0 0-1.836-3.14l-17.771 9.048c.413 3.492-1.262 7.767-2.336 10.549a45 45 0 0 1-25.138 25.583 35.6 35.6 0 0 1-12.888 2.433c-.187.113-.374.223-.561.339a2 2 0 0 0-.065-.342 30.42 30.42 0 0 1-20.188-7.816 48.2 48.2 0 0 1-11.371-15.683 321 321 0 0 1-4.3 2.649c-.971.587-1.978 1.239-3.024 1.839a260 260 0 0 1 6.851-5.612 26.2 26.2 0 0 1-1.765-14.776 2.63 2.63 0 0 1 1.618-2.053c.026-.019.042-.042.068-.061l.949-.71a2.7 2.7 0 0 1 1.762-.607c14.857-6.812 32.23-7.625 48.2-5.434 3.953.542 9.1 1.1 13.6 2.494a84.4 84.4 0 0 0 11.246-6.489.942.942 0 0 0-.723-1.713c-.987.268-1.959.587-2.917.936q7.038-4.109 14.115-8.164a1.629 1.629 0 0 0-.549-3.02c1.488-1.178-.226-3.656-2.133-2.833-11.749 5.079-23.2 10.742-34.5 16.735 6.625-3.966 13.324-7.8 20.033-11.565q8.142-4.569 16.331-9.042c1.691-.923.52-3.94-1.342-3.188a272 272 0 0 0-12.556 5.466c4.269-2.262 8.535-4.527 12.837-6.728 1.649-.842.484-3.753-1.281-3.04-1.129.455-2.246.939-3.369 1.407a1.086 1.086 0 0 0-1.288-.319q-7.585 2.657-15.07 5.608.881-.571 1.762-1.146 6.443-4.187 12.885-8.367a1.71 1.71 0 0 0 .565-2.433l.126-.081c1.956-1.246.2-4.292-1.826-3.124-7.987 4.6-15.983 9.2-23.9 13.927 5.637-3.711 11.217-7.515 16.912-11.142 1.539-.981.555-3.882-1.313-3.114-.136.055-.271.116-.407.171-1.61.665-3.2 1.365-4.8 2.065a.915.915 0 0 0-1.078-.923c-2.1.332-4.1 1.581-6 2.5-2.014.981-4 2.017-5.989 3.046q-5.683 2.933-11.288 6.018 5.039-3.291 10.12-6.525 8.3-5.266 16.641-10.455a1.794 1.794 0 0 0-1.81-3.095c-8.784 4.353-17.348 9.1-25.777 14.092q4.608-2.991 9.248-5.928 7.662-4.836 15.379-9.584c1.92-1.188.248-3.892-1.739-2.978-7.961 3.663-15.689 7.77-23.272 12.133q2.406-1.665 4.818-3.32 6.544-4.487 13.114-8.942c1.852-1.258.136-4.272-1.772-3.03q-3.025 1.97-6.054 3.937a1.873 1.873 0 0 0-2.359-2.811 292 292 0 0 0-36.979 23.862l-2.049 1.323q10.935-8.009 21.877-16.009 7.086-5.184 14.092-10.491c1.694-1.281.161-4.156-1.713-2.933-13.73 8.948-27.658 17.583-41.575 26.235 7.595-5.782 15.468-11.2 23.468-16.444 4.227-2.772 8.48-5.505 12.733-8.238 1.9-1.223.155-4.256-1.781-3.046l-40.133 25.1c8.165-6.729 16.99-12.683 25.774-18.583a1.781 1.781 0 0 0-1.8-3.072 121 121 0 0 0-24.974 17.878 133 133 0 0 0-14.719 13.66c-1.317 1.439.378 3.908 2.156 2.794q2.744-1.713 5.474-3.427a183 183 0 0 0-7.109 6.454 1.746 1.746 0 0 0 2.107 2.73l20.2-12.827c-3.091 2.291-6.17 4.6-9.187 6.986a131 131 0 0 0-9.968 8.671q-4.366 3.282-8.548 6.828c-1.217 1.036.516 2.665 1.726 1.726 1.568-1.22 3.159-2.41 4.76-3.592a1.61 1.61 0 0 0 1.342.416 162 162 0 0 0-4.114 4.331 1.678 1.678 0 0 0 1.668 2.769c-.439.323-.881.639-1.32.965a1.828 1.828 0 0 0-.074 2.911 75 75 0 0 0-4.963 4.921c-1.329 1.455.365 3.869 2.156 2.795l5.844-3.495c-2.062 1.765-4.1 3.559-6.07 5.441a1.676 1.676 0 0 0 2.023 2.62q5.32-2.967 10.642-5.921a86 86 0 0 0-7.08 6.941 1.639 1.639 0 0 0 1.978 2.562l1.978-1.142q-3.969 2.991-7.883 6.047c-1.5 1.175.449 3.669 2.036 2.64q3.848-2.5 7.7-5c-.355.332-.713.658-1.068.991a1.621 1.621 0 0 0 1.662 2.662q-1.2.963-2.4 1.93c-1.446 1.162.429 3.543 1.975 2.559l3.443-2.194c-1.046.949-2.1 1.888-3.111 2.869a1.589 1.589 0 0 0 1.11 2.682 9.8 9.8 0 0 0 2.623-.29q-1.834 1.263-3.669 2.53c-1.726 1.191-.187 3.947 1.665 2.849q5.644-3.34 11.243-6.757a49 49 0 0 0-2.675 2.891q-3.563 3.035-7.128 6.067c-1.394 1.184.407 3.446 1.939 2.511q3.258-1.989 6.505-3.995c-1.378 1.058-2.762 2.107-4.127 3.182l-.352.271c-1.575 1.239.442 3.7 2.107 2.73 1.355-.794 2.72-1.568 4.082-2.352q-2.372 1.893-4.682 3.866c-1.223 1.052-.2 2.8 1.117 2.949l-1.036.723c-1.73 1.213-.19 4 1.684 2.882q5.915-3.529 11.843-7.038c-1.475 1.442-2.917 2.924-4.272 4.492a1.806 1.806 0 0 0 .9 2.959 1.76 1.76 0 0 0 2.307 2.5q2.294-1.152 4.585-2.31c-.845.649-1.691 1.3-2.527 1.959-1.388 1.1.136 3.191 1.636 2.811a62.6 62.6 0 0 0 14.215-5.56.69.69 0 0 0 .82.139c.9-.419 1.8-.845 2.7-1.265a1.9 1.9 0 0 0 .374 1.533c-1.291.668-2.588 1.323-3.866 2.017-2.12 1.149-4.247 2.294-6.338 3.5-1.965 1.133-4.25 2.2-5.86 3.814a.905.905 0 0 0 .874 1.5c2.227-.494 4.389-1.855 6.422-2.859s4.034-2.023 6.057-3.017l1.965-.968a1.9 1.9 0 0 0 .671.419 880 880 0 0 0-6.057 3.433c-2.056 1.178-.252 4.079 1.826 3.124 8.283-3.808 16.628-7.5 24.986-11.149q-9.545 5.2-19.1 10.4c-2.217 1.2-.265 4.463 1.962 3.359 6.651-3.3 13.3-6.615 20.042-9.707q-2.948 1.559-5.9 3.114c-1.7.9-3.35 1.839-4.982 2.862-1.749 1.1-3.475 2.356-5.3 3.317-1.388.736-.158 2.843 1.233 2.107 1.762-.933 3.7-1.626 5.528-2.427a81 81 0 0 0 5.418-2.617l10.607-5.621c7.07-3.746 14.06-7.641 21.149-11.352 1.743-.913.536-3.659-1.326-3.143a159 159 0 0 0-8.932 2.772q8.8-4.84 17.6-9.674c2.1-1.152.255-4.063-1.836-3.14q-12.667 5.586-25.322 11.2 7.532-4.211 15.063-8.409l14.468-8.041a1.687 1.687 0 0 0 .694-2.149q2.536-1.331 5.073-2.659c2.036-1.062.248-4.008-1.784-3.053l-23.971 11.261c1.236-.6 2.465-1.217 3.7-1.81 2.2-1.052 4.379-2.133 6.576-3.191a136 136 0 0 0 3.482-1.736 4.3 4.3 0 0 0 2.372-2.1.99.99 0 0 0-.681-1.2 2 2 0 0 0-.336-.084 731 731 0 0 0 9.513-5.344c1.536-.881.642-3.53-1.016-3.208.939-.51 1.881-1.016 2.82-1.53 1.81-.991.219-3.543-1.591-2.72ZM51.237 34.911q10.131-6.515 20.259-13.033l-21.688 14.1c.474-.361.955-.713 1.433-1.071Zm-1.933 9.61c1.194-.794 2.385-1.594 3.582-2.385-1.2.887-2.394 1.788-3.585 2.688a1.4 1.4 0 0 0 .003-.303M29.836 65.996q2.527-1.941 5.1-3.808-1.713 1.418-3.4 2.862zM56.4 55.031a1.54 1.54 0 0 0 .787-1.468c9.494-5.921 19.074-11.707 28.9-17.041q-4.071 2.667-8.109 5.4-10.746 7.285-21.217 14.97-11.825 6.946-23.7 13.8c7.305-5.848 15.354-10.782 23.342-15.661Zm-.626 51.108c.607-.516 1.223-1.016 1.843-1.52a1.1 1.1 0 0 0 .026.516l-1.868 1Z"/><g fill="#262c54"><path d="M72.058 126.53c13.269.3 25.012-4.195 35.825-11.472a57.98 57.98 0 0 0 24.508-34.986c2.414-9.526 1.455-18.968-1.123-28.3-2.949-10.675-7.767-20.439-15.367-28.552C107.728 14.5 98.309 7.554 86.24 5.112c-13.059-2.643-25.344-.255-36.932 6.024C38.866 16.8 30.84 25.025 24.677 35.1a69.6 69.6 0 0 0-8.1 17.884c-2.285 8.358-2.63 16.744.187 25.073 3.017 8.906 6.8 17.445 12.34 25.118a57.7 57.7 0 0 0 16.448 15.7 12 12 0 0 1 1.465.929 1.737 1.737 0 0 1 .429 2.546 1.94 1.94 0 0 1-2.507.839 10 10 0 0 1-1.507-.855A58.9 58.9 0 0 1 25.897 105.7 92 92 0 0 1 11.35 73.438a39.1 39.1 0 0 1 1-20.575c5-16.664 14.027-30.662 28.2-41.024A60.27 60.27 0 0 1 69.589.41a51.8 51.8 0 0 1 26.935 3.633 64.3 64.3 0 0 1 16.27 10.468c12.6 10.768 19.984 24.592 23.408 40.63a67.6 67.6 0 0 1 1.564 11.44c.455 11.927-2.907 22.843-9.21 32.943-7.083 11.349-17.045 19.274-28.987 24.992a64.9 64.9 0 0 1-26.864 6.205 60 60 0 0 1-7.222-.455c-1.481-.145-2.385-1.1-2.269-2.127.136-1.194.968-1.9 2.478-1.878 2.123.029 4.247.171 6.37.265Z"/><path d="M47.924 94.087c5.615-1.2 10.746-2.607 15.97-3.346 9.884-1.4 19.82-1.733 29.617.771 2.685.687 5.263 1.8 8.258 2.846.662-.739 1.617-1.665 2.411-2.714a37.6 37.6 0 0 0 5.441-10.5c1.352-3.911 2.669-7.835 4.037-11.852a19.46 19.46 0 0 0-8.138-4.427 72.6 72.6 0 0 0-16.46-3.033 111.1 111.1 0 0 0-40.92 4.2 112 112 0 0 0-10.462 4.166c-.623.255-1.194.662-1.833.852a1.725 1.725 0 0 1-2.22-.865 1.93 1.93 0 0 1 .336-2.407 11.5 11.5 0 0 1 2.191-1.381 70.4 70.4 0 0 1 19.694-6.593 121.5 121.5 0 0 1 28.2-2.4 80.4 80.4 0 0 1 20.568 2.94 56 56 0 0 1 8.8 3.637 20.4 20.4 0 0 1 4.053 3.224 2.28 2.28 0 0 1 .587 2.649c-1.53 4.26-3.027 8.532-4.573 12.785a42.3 42.3 0 0 1-11.778 17.619 40.75 40.75 0 0 1-49.159 3.979 29.9 29.9 0 0 1-11.236-13.676 53.7 53.7 0 0 1-3.627-12.769 14 14 0 0 1-.116-2.6 1.63 1.63 0 0 1 1.329-1.672 1.8 1.8 0 0 1 2.2.958 8.5 8.5 0 0 1 .549 2.217 48.6 48.6 0 0 0 4.163 13.8c.642 1.278 1.459 2.472 2.127 3.588Zm50.269 3.4c-1.368-.571-2.394-1.075-3.469-1.436a47.7 47.7 0 0 0-12.8-2.149 91 91 0 0 0-25.573 2.375c-1.617.378-3.391.5-4.84 1.617 9.61 10.052 32.311 13 46.684-.41ZM5.567 50.001c-.281 2.1-.591 4.1-.81 6.112-1.339 12.227-.8 24.27 3.55 35.938a68.5 68.5 0 0 0 6.951 13.637 38 38 0 0 1 1.346 2.227 1.775 1.775 0 0 1-.529 2.549 1.986 1.986 0 0 1-2.643-.332 10 10 0 0 1-1.2-1.623A70.5 70.5 0 0 1 .743 78.223a90.9 90.9 0 0 1 .684-27.632 8.6 8.6 0 0 1 .675-2.19 1.73 1.73 0 0 1 2.2-.9 1.7 1.7 0 0 1 1.262 1.733c.019.287 0 .578 0 .774Zm84.625-11.262c2.927.449 5.405.681 7.812 1.233 3.937.9 7.838 1.965 11.723 3.059a6.2 6.2 0 0 1 2.472 1.417 2.35 2.35 0 0 1 .449 1.817 1.493 1.493 0 0 1-1.7 1.249 7 7 0 0 1-1.959-.4 67.3 67.3 0 0 0-24.344-4.23 7 7 0 0 1-1.155-.029 1.877 1.877 0 0 1-1.5-2.962 6.1 6.1 0 0 1 1.749-1.868 64.7 64.7 0 0 1 22.349-10.55c2.007-.487 3.049-.129 3.408 1.087.4 1.371-.248 2.2-2.465 2.833a61 61 0 0 0-15.183 6.28c-.4.245-.8.513-1.655 1.068Zm-33.843.696c-3.075-2.436-6.267-3.533-9.381-4.808a110 110 0 0 1-7.367-3.333c-1.817-.9-2.333-1.975-1.81-3.111s1.775-1.32 3.553-.552c3.8 1.639 7.619 3.253 11.4 4.927a34.8 34.8 0 0 1 9.839 6.515 9 9 0 0 1 1.881 2.514 1.98 1.98 0 0 1-.2 1.82c-.452.458-1.513.9-1.962.671-2.714-1.394-5.279-.516-7.858.261-3.872 1.168-7.741 2.34-11.575 3.621a34 34 0 0 0-3.9 1.852c-1.233.594-2.172.423-2.791-.5a1.95 1.95 0 0 1 .581-2.791 14 14 0 0 1 3.53-1.93c4.837-1.617 9.723-3.1 14.589-4.631.348-.11.691-.245 1.471-.526Zm91.45 17.888c-.035.749-.016 1.43-.116 2.091a1.663 1.663 0 0 1-1.794 1.539 3.4 3.4 0 0 1-1.775-1.178 2.35 2.35 0 0 1-.365-1.365c-.613-8.629-3.695-16.493-7.493-24.128a45.9 45.9 0 0 0-8.822-12.8 4.1 4.1 0 0 1-1-1.388 1.86 1.86 0 0 1 .739-2.291 1.573 1.573 0 0 1 2.133.006 43 43 0 0 1 4.385 4.585 71.8 71.8 0 0 1 11.2 22.072c1.052 3.291 1.778 6.693 2.588 10.058a22 22 0 0 1 .32 2.799M15.442 28.08a20 20 0 0 1-1.323 2.523 49.2 49.2 0 0 0-6.251 11.713c-.558 1.468-1.455 1.985-2.582 1.668-1.155-.323-1.733-1.549-1.155-3.1a53 53 0 0 1 2.885-6.622c1.233-2.288 2.749-4.421 4.172-6.6a2.5 2.5 0 0 1 .987-1.023 2.66 2.66 0 0 1 1.855-.184c.587.3.942 1.058 1.407 1.633ZM148.43 69.914c-.416 3.095-.836 6.241-1.265 9.384a1.77 1.77 0 0 1-1.9 1.765 1.976 1.976 0 0 1-1.988-1.759 6.5 6.5 0 0 1 .019-2.007c.323-3.059.674-6.112 1.013-9.168a5.5 5.5 0 0 1 .148-1.139 1.92 1.92 0 0 1 1.862-1.539 1.83 1.83 0 0 1 1.862 1.526 23 23 0 0 1 .248 2.936Zm-36.662 56.729a5 5 0 0 1-.626 1.294c-1.749 2.065-4.195 3.033-6.631 3.959a1.776 1.776 0 0 1-2.178-1.01 1.67 1.67 0 0 1 .345-2.114 5.4 5.4 0 0 1 1.12-.9q2.333-1.423 4.7-2.794c1.621-.939 3.137-.322 3.27 1.565m-52.511-.291a7.6 7.6 0 0 1-1.868 1.517c-1.146.426-3.879-1.016-4.489-2.162-.723-1.359.265-3.078 1.739-2.736a14.7 14.7 0 0 1 3.85 1.846c.332.193.422.809.768 1.535M18.983 18.551a1.684 1.684 0 0 1 1.639 1.549 3.36 3.36 0 0 1-1.992 3.468 1.93 1.93 0 0 1-2.481-.787c-.755-1.481 1.02-4.243 2.836-4.23Z"/></g></svg>