<svg xmlns="http://www.w3.org/2000/svg" width="149.037" height="153.278" viewBox="0 0 149.037 153.278"><path fill="#ba8b54" d="M110.692 98.756c-.332.449-.694.871-1.042 1.3a1.213 1.213 0 0 0-1.994-.242c-1.288 1.626-2.73 3.146-4.172 4.66a43 43 0 0 1 3.5-5.018c1.055-1.262-.642-3.046-1.836-1.836q-3.514 3.558-7.044 7.106a18 18 0 0 1 1.694-2.123 1.452 1.452 0 0 0-2.052-2.052c-1.236 1.042-2.478 2.078-3.714 3.117a12.5 12.5 0 0 1 1.184-1.5c1.246-1.349-.752-3.362-2.023-2.023-.839.884-1.726 1.7-2.633 2.5.707-1.2-.662-3.03-1.981-2.072l-1.568 1.146a1.552 1.552 0 0 0-2.281-1.675l-3.033 1.978c-.255-.955-1.191-1.71-2.223-.987-.758.529-1.517 1.065-2.275 1.594a1.545 1.545 0 0 0-2.346-1l-.749.529a1.525 1.525 0 0 0-2.268-.736l-2.033 1.539a1.653 1.653 0 0 0-2.73-1.036c-.449.439-.907.865-1.365 1.294l.132-.2c.794-1.194-.82-2.891-2.023-2.023a90 90 0 0 0-3.876 2.966c.733-1.439-1.078-2.559-2.256-1.63a50 50 0 0 1-2.007 1.507c.336-.542.687-1.075 1.01-1.626.652-1.107-.71-2.659-1.852-1.852a45 45 0 0 1-2.394 1.562l.465-.71c.723-1.107-.739-2.623-1.852-1.852a160 160 0 0 1-2.4 1.62 1.445 1.445 0 0 0-2.091-1.371 10 10 0 0 1-1.723.645c.494-.829-.31-2.278-1.4-1.855a3.85 3.85 0 0 0-2.611 3.588 1.355 1.355 0 0 0 1.339 1.339 13 13 0 0 0 1.959-.161c-.368.581-.739 1.158-1.107 1.743-.716 1.139.739 2.675 1.891 1.891.542-.368 1.084-.742 1.623-1.113l-.048.068c-.833 1.2.787 2.7 1.972 1.972.71-.439 1.407-.9 2.1-1.368l-1.507 2.272c-.8 1.207.826 2.92 2.043 2.043.707-.51 1.4-1.033 2.1-1.559a576 576 0 0 1-1.946 3.03c-.968 1.5 1.307 3.3 2.5 1.926a71 71 0 0 1 3.646-3.876l-1.171 1.723c-1.033 1.523 1.184 3.02 2.443 1.884q1.413-1.278 2.811-2.578a1.55 1.55 0 0 0 2.162.5l5.021-3.814a1.517 1.517 0 0 0 2.159.539l.865-.613a1.534 1.534 0 0 0 2.33.968c1.165-.826 2.323-1.662 3.485-2.491a1.372 1.372 0 0 0 2.13.768q.784-.513 1.568-1.029c-.029.126-.065.248-.087.374-.226 1.162 1.081 2.611 2.259 1.736.442-.329.878-.661 1.317-.991-.029.1-.074.2-.1.3a1.508 1.508 0 0 0 2.191 1.684c.8-.481 1.571-1 2.323-1.536-.068.261-.139.52-.194.784a1.539 1.539 0 0 0 2.549 1.484c.481-.4.949-.823 1.426-1.229a23 23 0 0 0-.723 2.436 1.517 1.517 0 0 0 2.514 1.465c.62-.639 1.223-1.294 1.839-1.939a73 73 0 0 0-1.375 2.917c-.632 1.436 1.126 3.208 2.362 1.823 1.707-1.91 3.379-3.85 5.053-5.786a1.61 1.61 0 0 0 1.855-.142 46 46 0 0 0 2.265-2.078 1.46 1.46 0 0 0 1.468.545q.715-.115 1.43-.236a1.23 1.23 0 0 0 .481-2.143c1.023-1.788 1.872-3.663 2.743-5.544a1.221 1.221 0 0 0-2.107-1.233Z"/><path fill="#eb8486" d="M89.327 115.284a1.705 1.705 0 0 0-1.917-2.4 2.55 2.55 0 0 0-1.849 1.323c-.207.148-.432.278-.649.416.074-.11.142-.226.223-.332.949-1.255-.878-2.9-2.11-2.11-.668.429-1.352.836-2.026 1.255a1.617 1.617 0 0 0-1.452-1.833q.008-.01.016-.016a1.409 1.409 0 0 0-1.991-1.991c-.823.636-1.7 1.217-2.6 1.784-.239-1.091-1.352-1.988-2.475-1.158q-.9.664-1.836 1.323a1.765 1.765 0 0 0-2.2-.523c-2 1.087-4.03 2.046-5.931 3.3a1.492 1.492 0 0 0-.019 2.394 1.794 1.794 0 0 0 2.582 1.978l.707-.387a1.7 1.7 0 0 0 .355.949 1.744 1.744 0 0 0 2.275.455q1.331-1.026 2.669-2.039c.11 1.181 1.481 2.281 2.591 1.433.168-.129.342-.248.51-.374a1.75 1.75 0 0 0 2.552 1.233c1.2-.8 2.4-1.61 3.611-2.407-.016.126-.039.252-.052.381a1.685 1.685 0 0 0 2.12 1.617 22.5 22.5 0 0 0 3.734-1.884 2.39 2.39 0 0 0 3.646-1.281.95.95 0 0 0-.481-1.1Z"/><path fill="#75757c" d="M105.213 59.456c-8.316-9.1-23.334 3.876-12.921 2.236 2.801.194 16.636 4.224 12.921-2.236M64.457 62.48a6.6 6.6 0 0 0-1.233-2.252c-3.553-4.937-8.977-4.182-14.034-.82a1.835 1.835 0 0 0-.365 2.833c2.123 1.523 4.54-1.542 6.993-.836a1.76 1.76 0 0 0 .436.671l-.061.016c1.094 1.191 3.178.5 4.137 1.717 1.055 2.394 4.831 1.249 4.127-1.329"/><g fill="#eac485"><path d="M42.488 103.486c-4.092 4.292-8.122 8.642-11.975 13.15a1.868 1.868 0 0 0 2.64 2.64l.426-.355a1.96 1.96 0 0 0 2.817.384q5.518-4.937 11.049-9.852a38.6 38.6 0 0 1-4.957-5.963Zm-3.721-6.937a162 162 0 0 0-14.056 15.705 1.751 1.751 0 0 0 2.475 2.475q7.416-5.98 14.881-11.897a41 41 0 0 1-3.3-6.283"/><path d="M137.898 80.795c1.123-1.323-.39-3.8-2.007-2.6-.726.539-1.446 1.094-2.165 1.642a1.7 1.7 0 0 0-1.333.368q-2.13 1.728-4.211 3.514c.413-.458.829-.907 1.242-1.365.8-.887 1.572-1.8 2.352-2.7a7.7 7.7 0 0 0 1.762-2.711c.158-.529-.394-1.178-.958-.958a7.55 7.55 0 0 0-2.549 1.923c-.791.8-1.584 1.6-2.356 2.414a439 439 0 0 0-4.876 5.231c-.52.568-1.029 1.149-1.542 1.726a1.84 1.84 0 0 0-.968-.962c.655-.616 1.326-1.213 1.975-1.836a153 153 0 0 0 12.1-12.959 1.926 1.926 0 0 0-.829-2.949l.413-.323c1.51-1.162.058-3.772-1.526-2.611-1.833 1.346-3.633 2.727-5.447 4.092a1.8 1.8 0 0 0-.407-.674 2 2 0 0 0-.2-.168c1.2-.91 2.4-1.833 3.611-2.73a1.84 1.84 0 0 0 .639-2.433 1.8 1.8 0 0 0-2.369-.674q2.991-2.469 5.986-4.931c1.52-1.258-.507-3.927-2.127-2.756q-12.37 8.921-24.824 17.73l24.266-22.533c1.465-1.359-.507-4.04-2.178-2.82q-9.4 6.859-18.8 13.737 7.626-6.984 15.257-13.96c1.249-1.149-.048-3.5-1.7-2.917-.894.316-1.775.658-2.649 1.01a1.932 1.932 0 0 0-2.759-1.4c-.807.423-1.6.874-2.4 1.32l8.571-6.509c1.781-1.349.161-4.385-1.8-3.088q-10.165 6.709-20.368 13.35 8.374-6.923 16.674-13.938c.923-.781-.329-2.44-1.307-1.694Q104.567 43.939 91.25 54.489a1.74 1.74 0 0 0-1.3-.248l7.825-7.535c2.92-2.811 5.941-5.55 8.7-8.522a25.8 25.8 0 0 0 6.278-10.189 1.666 1.666 0 0 0-2.42-1.862q-3.543 2.348-7.051 4.75a1.4 1.4 0 0 0-1.3.268q-5.382 4.085-10.749 8.19-4.9 3.533-9.732 7.167 1.728-1.442 3.453-2.888l17.961-15c1.791-1.494-.771-4.008-2.552-2.552l-38.4 31.395c.358.058.707.11 1.039.152 3.976.5 4.011 6.8 0 6.3-2.252-.281-4.514-.523-6.764-.823l-.987-.139-2.32 1.9c.684-.649 1.381-1.284 2.068-1.93a9.6 9.6 0 0 0-2.34-.081 2.9 2.9 0 0 1-1.623.962 5.5 5.5 0 0 1-2.252.084h-.019c-1.371 1.317-2.749 2.623-4.1 3.959a180 180 0 0 0-13.417 14.729 1.9 1.9 0 0 0-.442 1.53c-.713.594-1.426 1.194-2.143 1.788q5.179-7.72 10.326-15.46a1.9 1.9 0 0 0 .6-.361q3.9-3.442 7.816-6.864a3.46 3.46 0 0 1-.019-4.585c1.962-2.02 4.84-2.365 7.8-2.156 5.87-5.044 11.791-10.026 17.813-14.886q-.842.77-1.684 1.533c-4.927 4.5-9.9 8.958-14.808 13.479 1.568.187 3.124.478 4.547.723q12.478-11.443 25-22.84l15.909-14.55c1.442-1.32-.461-3.869-2.114-2.74-6.4 4.366-12.637 8.948-18.764 13.676l1.349-1.278 12.214-11.546c1.672-1.581-.81-4.011-2.511-2.511l-47.11 41.555q10.388-10.958 20.771-21.917 6.815-7.193 13.63-14.382a1.788 1.788 0 0 0-2.527-2.527Q64.308 29.773 51.713 41.295l6.8-7.2 11.53-12.2c1.584-1.675-.745-3.83-2.469-2.469q-7.038 5.557-13.843 11.4l.023-.023q5.5-5.078 11.249-9.881a1.81 1.81 0 0 0 0-2.533 1.835 1.835 0 0 0-2.533 0L39.114 36.711c4.166-4 8.574-7.77 12.911-11.507 1.075-.926-.387-2.872-1.536-1.991-4.924 3.782-9.958 7.512-14.5 11.749a84.8 84.8 0 0 0-12.291 13.983 1.813 1.813 0 0 0 .471 2.352 1.86 1.86 0 0 0 2.394-.142l8.354-6.573q-5.197 5.586-10.119 11.413-4.742 5.638-9.2 11.5-.008.01-.016.016c-.09.119-.184.232-.274.352-1.2 1.578 1.41 3.553 2.74 2.114q13.234-14.342 27.68-27.487L27.093 62.168 15.55 74.359a1.788 1.788 0 0 0 2.527 2.527q12.256-11.217 24.521-22.429L28.773 69.046 15.146 83.428a1.781 1.781 0 0 0 2.517 2.517l16.657-14.7q-7.9 11.583-15.757 23.195a1.59 1.59 0 0 0 .862 2.478 2.43 2.43 0 0 0 1.7.965 4.12 4.12 0 0 0 2.84-.994c1.433-1.071 2.785-2.272 4.166-3.4l5.341-4.382q-2.183 2.26-4.321 4.556-5.116 5.508-9.926 11.291a1.727 1.727 0 0 0 2.443 2.441q8.122-6.878 16.26-13.74a18 18 0 0 1-1.307-5.166c-.3-2.833 2.717-3.64 4.685-2.491 5.563-5.563 11.275-10.981 17.054-16.315q4.632-4.279 9.31-8.509a1.3 1.3 0 0 0 .7-.274q9.536-7.227 19.1-14.421l-6.7 7.135C67.58 64.238 54.559 75.077 41.61 85.995a12.4 12.4 0 0 1 1.826-.458 21 21 0 0 1 4.443-.236c4.021-3.369 8.038-6.747 12.075-10.1q-4.182 4.24-8.245 8.593c-.636.539-1.252 1.1-1.875 1.652 1.73.184 3.469.5 5.176.845l1.155-1.233q2.164-1.926 4.334-3.843a1.46 1.46 0 0 0 .494-1.31l6.057-6.463a1.51 1.51 0 0 0 2.252.552l5.2-3.94a2 2 0 0 0 .8.565q-10.223 7.667-20.162 15.7c1.623.336 3.22.7 4.756 1.016a93.2 93.2 0 0 0 22.382 1.4c2.12-1.746 4.237-3.492 6.376-5.215q-2.372 2.57-4.747 5.137c.294-.016.587-.026.878-.042a71 71 0 0 0 15.118-2.259 76 76 0 0 1 9.139-2.275c2.423-.361 4.989-.232 6.76.858l4.014-2.9c-1.152 1.1-2.333 2.185-3.508 3.266a5.05 5.05 0 0 1 1.707 4.592c-.349 5.134-4.279 10.326-7.148 14.356-5.415 7.616-14.324 12.169-23.724 14.269q-7.845 6.925-15.675 13.845c-1.426 1.262.494 3.834 2.065 2.678l17.245-12.679q-4.516 4.6-8.858 9.358c-1.016 1.117-.045 3.288 1.581 2.717a33.6 33.6 0 0 0 7.022-3.517l-4.756 4.514c-1.681 1.594.749 3.808 2.472 2.472q7.909-6.128 15.822-12.253c-1.449 1.775-2.849 3.595-4.153 5.5-.942 1.375.978 3.391 2.359 2.359a182.5 182.5 0 0 0 21.831-19.161c5.944-6.138 13.059-13.643 12.265-22.888a1.74 1.74 0 0 0-2.594-1.488q-3.185 2.1-6.36 4.211 1.457-2.193 2.856-4.421 3.819-4.5 7.635-8.993Zm-34.777-45.816c1.294-.891 2.588-1.784 3.888-2.665a31.6 31.6 0 0 1-2.878 3.527c-2.6 2.778-5.441 5.344-8.19 7.974l-.655.626a2.1 2.1 0 0 0-.6-.465q4.216-4.5 8.435-9ZM91.908 69.323l-3.837 3.127a2.01 2.01 0 0 0-1.342-1.555q2.556-2.44 5.173-4.811a1.423 1.423 0 0 0 2.11.461q2.052-1.539 4.13-3.078Zm10.442-6.121c-2.052-.229-4.095-.445-6.163-.474a3.06 3.06 0 0 1-1.694-.51 11 11 0 0 0-1.223.791c-1.362 1.013-3.54.223-4.308-1.129a3.25 3.25 0 0 1 1.129-4.308 11.32 11.32 0 0 1 13.847-.236c2.262 1.588 1.82 6.251-1.591 5.87Zm12.348 43.385q-4.25 3.635-8.5 7.273c-3.943 3.372-7.854 6.786-11.84 10.113-.891.742-1.8 1.478-2.724 2.188a311 311 0 0 1 23.447-21.5 1.7 1.7 0 0 0 .555.5c-.31.478-.626.955-.939 1.433Zm.481-6.3q4.206-4.182 8.655-8.116l-7.283 8.532a1.57 1.57 0 0 0-1.368-.418Zm8.3 6.831a1.9 1.9 0 0 0-.72 0 186 186 0 0 1 1.975-2.172c.755-.816 1.52-1.626 2.278-2.44-1.2 1.523-2.352 3.075-3.533 4.608Zm8.877-10.336c-.11.39-.248.774-.387 1.158a1.23 1.23 0 0 0-.681.048c-.042.019-.084.055-.129.077q.602-.642 1.194-1.284Zm-3.721 7.277a49 49 0 0 1-3.679 4.44 1.5 1.5 0 0 0-.261-.6c1.315-1.286 2.644-2.547 3.941-3.841Z"/><path d="M70.636 119.824a38 38 0 0 1-5.576-.791c-1.733 1.478-3.479 2.946-5.279 4.334.787-.816 1.6-1.6 2.42-2.365.352-.329.716-.645 1.071-.971l1.365-1.1a37 37 0 0 1-3.976-1.165l-.048.045c-.752.61-1.5 1.223-2.252 1.826-.51.41-1.029.81-1.552 1.21 1.071-1.11 2.172-2.191 3.269-3.275a35.8 35.8 0 0 1-9.116-5.044 2.78 2.78 0 0 1-1.575-.929c-.358-.4-.691-.813-1.007-1.229-.216-.2-.416-.41-.626-.613-.058.058-.123.116-.181.174-3.1 3.069-6.089 6.231-9.035 9.442a1.62 1.62 0 0 0-.458 1.252 4.67 4.67 0 0 0-1.065 2.646 3 3 0 0 0 2.388 2.972c1.691.361 3.233-.684 4.521-1.626.226-.165.458-.329.684-.494-1.123 1.2-2.23 2.417-3.3 3.666a1.74 1.74 0 0 0 2.459 2.459c1.046-.887 2.1-1.765 3.146-2.646a1.542 1.542 0 0 0 2.043 1.488 27 27 0 0 0 3.624-1.549c-.252.5-.49 1-.7 1.526-.6 1.465 1.317 2.536 2.488 1.914a44 44 0 0 0 4.892-3.069c-.6.707-1.191 1.417-1.759 2.152a1.575 1.575 0 0 0 .245 1.907 1.65 1.65 0 0 0 1.907.245q1.563-.668 3.082-1.426c-.958 1.3-1.9 2.6-2.82 3.934a1.716 1.716 0 0 0 .442 2.223 1.76 1.76 0 0 0 2.262-.136q11.428-8.9 22.766-17.9a59 59 0 0 1-14.747.926Zm-23.563-1.736c-1.359.984-2.73 1.946-4.1 2.914-.4.284-.8.578-1.2.862a5 5 0 0 1 .326-.436q.726-.857 1.465-1.7a172 172 0 0 1 3.3-3.627 2.05 2.05 0 0 0 1.307 1.194l-1.094.794Zm20.739 6.205c-.6.371-1.194.739-1.8 1.1a57 57 0 0 1 3.224-2.794 134 134 0 0 0-1.426 1.691Z"/></g><g fill="#262c54"><path d="M70.604 103.997c-6.789-.945-14.779-2.056-22.763-3.178-1.329-.187-2.649-.465-3.976-.678-1.413-.226-2.22.094-1.784 1.8.316 1.236-.026 2.582-1.43 2.569a3.84 3.84 0 0 1-2.73-1.613c-3.1-4.979-5.05-10.378-4.815-16.335.155-3.924 1.655-5.05 5.6-4.479 5.512.8 10.991 1.917 16.525 2.417 16.9 1.526 33.792 1.552 50.562-1.478 3.2-.578 6.305-1.659 9.448-2.53 2.824-.781 4.037-.436 4.76 2.365a19.8 19.8 0 0 1 .445 7.344 31.4 31.4 0 0 1-7.357 16.034c-12.7 15.325-36.929 21.188-55.187 13.334a32.5 32.5 0 0 1-11.739-8.164c-.881-.994-1.923-2.175-.658-3.517 1.246-1.32 2.43-.484 3.5.445 1.449 1.258 2.875 2.549 4.353 3.769 1.943 1.6 3.579 1.975 6.057.223 7.128-5.027 15.166-6.141 23.656-4.192a17.67 17.67 0 0 1 9.468 5.147 2.715 2.715 0 0 0 3.585.71c6.147-3 11.462-7.015 15.3-12.775a4.9 4.9 0 0 0 .374-1.617 4.7 4.7 0 0 0-1.63-.313c-4.715.9-9.394 2.023-14.134 2.769a68 68 0 0 1-9.748.655c-.661.01-1.336-1.094-2-1.684.6-.655 1.117-1.746 1.826-1.891 2.627-.542 5.347-.636 7.983-1.152 6.028-1.181 12.059-2.365 18.022-3.834 3.53-.868 5.1-4.059 3.972-7.5a2.51 2.51 0 0 0-2.156-1.026c-3.214.549-6.36 1.507-9.577 2.01a201.3 201.3 0 0 1-62.024-.394 9.2 9.2 0 0 0-2.814-.458 2.7 2.7 0 0 0-1.868 1.559c-.681 3.863.858 6.157 4.85 7.022a160.2 160.2 0 0 0 32.55 4.1 18 18 0 0 1 4.008.142 2.74 2.74 0 0 1 1.81 1.778 2.54 2.54 0 0 1-1.555 1.965c-2.449.381-4.957.407-8.7.645Zm4.721 15.089c3.872-.565 7.27-.987 10.633-1.6a7.7 7.7 0 0 0 2.3-1.391c-.568-.7-.994-1.707-1.73-2.052-7.783-3.672-15.492-3.217-23.05.716-.407.21-.884.949-.787 1.288a1.83 1.83 0 0 0 1.229 1.046c3.914.736 7.845 1.378 11.4 1.988Z"/><path d="M138.449 79.103c1.446 29.291-22.892 53.78-42.014 58.594a63 63 0 0 1-17.632 2.339c-1.581-.055-4.008.2-4.047-2.188-.042-2.562 2.314-1.965 3.908-1.959 23.043.1 38.723-11.743 49.652-30.92 4.979-8.738 6.425-18.458 5.912-28.41-.732-14.137-4.86-27.154-13.346-38.645a17.7 17.7 0 0 1-2.12-3.4c-.236-.545.006-1.826.384-2a2.99 2.99 0 0 1 2.54-.058 17 17 0 0 1 3 3.453 72.75 72.75 0 0 1 13.763 43.192ZM36.385 29.71c.581 1.4 1.468 2.494 1.226 3.2a9.3 9.3 0 0 1-2.352 3.175 61.07 61.07 0 0 0-17.535 39.11c-1.43 18.774 4.534 34.76 19.09 47.148a82.7 82.7 0 0 0 19.578 11.997 23 23 0 0 1 4.03 2.178 2.19 2.19 0 0 1 .436 2.036 2.3 2.3 0 0 1-1.765 1.055 6.7 6.7 0 0 1-2.759-.636c-9.387-4.085-18.264-9.045-25.567-16.333-16.434-16.42-20.516-36.282-15.627-58.376a63.06 63.06 0 0 1 17.283-31.353 51 51 0 0 1 3.963-3.195ZM81.372 0a70.8 70.8 0 0 1 31.795 8.219 24.6 24.6 0 0 1 4.24 2.911c.426.361.674 1.672.39 1.972a3.35 3.35 0 0 1-2.333 1.036 6.7 6.7 0 0 1-2.572-1.2c-26.557-15.579-66.506-9.11-88.84 12.353a27 27 0 0 1-3.466 3c-.5.332-1.846.294-2.065-.052a3 3 0 0 1-.416-2.527 16.4 16.4 0 0 1 2.956-3.475A75.2 75.2 0 0 1 41.464 8.4C52.772 3.037 66.215.026 81.372 0"/><path d="M77.274 153.208a87.16 87.16 0 0 1-47.242-14.257 18 18 0 0 1-3.495-2.927 2.17 2.17 0 0 1 .006-2.072 2.13 2.13 0 0 1 1.93-.694 35 35 0 0 1 4.482 2.53c15.444 9.577 32.146 14.269 50.395 13.092a49.6 49.6 0 0 0 17.241-4.163c.7-.313 1.394-.639 2.094-.958 1.294-.594 2.653-1.033 3.469.584.826 1.639-.432 2.5-1.62 3.153-6.334 3.488-13.237 5.037-20.359 5.683-2.281.207-4.6.032-6.9.032Zm20.074-88.447c-4.656.252-7.7 2.582-10.829 4.8-1.794 1.271-3.353.378-3.492-1.8a6 6 0 0 1-.01-.574c.139-6.18 5.273-12.9 11.178-14.75 8.49-2.665 15.976 5.934 16.241 12.156.123 2.911-1.678 4.218-4.492 3.2-1.613-.581-3.078-1.572-4.7-2.143a28 28 0 0 0-3.9-.887Zm-5.457-3.369c.019-.213.042-.426.061-.636 3.417.181 6.831.387 10.252.516a8 8 0 0 0 1.936-.4 5.2 5.2 0 0 0-.661-1.5c-3.708-4.114-8.555-4.076-12.488.106a4.6 4.6 0 0 0-.587 1.494c.5.139.991.281 1.488.42Zm-35.234-8.61c7.677.261 13.9 8.358 12.111 15.747-.516 2.12-2.027 2.782-3.876 1.623-.642-.4-1.146-1.023-1.752-1.488-4.382-3.359-8.961-4.218-13.847-1.055-1.481.958-3.272 2.139-4.611.432a7.08 7.08 0 0 1-1.181-4.708c.636-5.933 6.844-10.767 13.156-10.551m-.455 4.208a8.67 8.67 0 0 0-6.851 3.55 2.67 2.67 0 0 0-.265 1.488 1.55 1.55 0 0 0 1.016.194c4.163-1.575 8.18-.984 12.165.658.271.11.962-.081.981-.213a2.44 2.44 0 0 0-.1-1.507 8.19 8.19 0 0 0-6.946-4.17M1.096 87.343c1.284.739 1.962.9 2.188 1.307a7.9 7.9 0 0 1 .929 2.659c1.433 10.584 6.067 19.745 12.369 28.19a18 18 0 0 1 2.178 3.366 2.2 2.2 0 0 1-.52 2 2.26 2.26 0 0 1-2.03.268 6.3 6.3 0 0 1-2.13-1.868C7.049 114.159 1.768 104.242.122 92.687a11.7 11.7 0 0 1 .055-3.385 7.3 7.3 0 0 1 .919-1.959M74.642 13.13c1.313-.061 1.7-.126 2.078-.09 1.51.145 3.375.074 3.511 2.1.152 2.272-1.83 1.985-3.291 2.146-2.665.3-5.324.7-8 .829a44.17 44.17 0 0 0-22.105 7.336 8.4 8.4 0 0 1-2.6 1.1 1.67 1.67 0 0 1-1.478-.536c-.3-.591-.545-1.665-.229-2.036a13.8 13.8 0 0 1 3.395-2.995c5.15-3.007 10.51-5.554 16.525-6.338 4.369-.568 8.745-1.094 12.194-1.523Zm72.33 36.935c-.32.381-.736 1.339-1.249 1.391a3.54 3.54 0 0 1-2.4-.8 4.2 4.2 0 0 1-.868-2.075c-1.9-7.009-5.679-12.924-10.475-18.274a26.6 26.6 0 0 1-3.2-4.047 2.64 2.64 0 0 1 .152-2.494c.461-.474 1.659-.252 2.533-.294.152-.006.339.177.468.316 6.7 7.228 12.737 14.85 14.857 24.815.077.371.1.755.181 1.459Zm-9.826 71.17c-.726-.9-1.52-1.5-1.7-2.243a2.8 2.8 0 0 1 .729-2.065c3.746-4.46 6.147-9.648 8.345-14.966.571-1.378 1.149-3.217 3.143-2.533 2.017.694 1.375 2.465.836 3.892a52.6 52.6 0 0 1-8.116 15.083 27 27 0 0 1-3.237 2.833ZM92.727 15.412c5.854 1.213 11.291 2.32 15.8 5.87a9.1 9.1 0 0 1 2.194 2.546c.542.939-.681 2.465-1.752 2.31a3.4 3.4 0 0 1-1.584-.545c-4.166-3.324-9.142-4.647-14.182-5.825-.187-.042-.378-.068-.561-.11-1.407-.326-2.775-.984-2.233-2.611.261-.778 1.639-1.184 2.32-1.633ZM5.879 66.109c-.678 4.976-1.242 9.142-1.823 13.308-.052.374-.087.887-.332 1.071a5.26 5.26 0 0 1-2.275 1.262c-.426.045-1.339-.945-1.381-1.52a23.4 23.4 0 0 1 .171-5.118c.445-3.024 1.01-6.034 1.684-9.013.3-1.333 1.11-2.753 2.753-1.981.761.358 1.055 1.723 1.203 1.991"/></g></svg>