<svg xmlns="http://www.w3.org/2000/svg" width="147.534" height="146.639" viewBox="0 0 147.534 146.639"><path fill="#fff" d="M78.497 100.522c-.916.845-1.833 1.714-2.74 2.569a2.117 2.117 0 0 1-3.537-1.12c1.814-1.613 3.527-3.3 6.218-1.471a.14.14 0 0 0 .061.019Z"/><path fill="#ba8b54" d="M105.568 98.589a171 171 0 0 1-5.018 4.827 1.213 1.213 0 0 0-2.03-.987q-.724.63-1.41 1.323-.16.136-.326.271a1.1 1.1 0 0 0-1.739-.629 47 47 0 0 1-4.069 2.83q.862-1.254 1.688-2.52a.852.852 0 0 0-1.333-1.029c-.349.339-.687.687-1.033 1.033q-.47.46-.975.91.717-.751 1.42-1.526a.751.751 0 0 0-.907-1.175 22.4 22.4 0 0 0-2.807 1.794 1.19 1.19 0 0 0-.3-1.262 1.3 1.3 0 0 0-1.8 0l-2.3 2.359q-.566.581-1.123 1.175a5.5 5.5 0 0 0-1.265 1.72 1.27 1.27 0 0 0 .462 1.345 1.23 1.23 0 0 0 .981.236 1.162 1.162 0 0 0 1.646 1.417s0 .006.006.013c.061-.039.11-.094.171-.136.023-.019.045-.026.068-.048s.042-.036.061-.055a9.4 9.4 0 0 0 1.129-1q.416-.334.855-.652a51 51 0 0 0-1.5 1.9c-.994 1.326 1.023 2.475 2.107 1.626.71-.555 1.359-1.152 2.062-1.707-.013.019-.032.039-.045.061a1.36 1.36 0 0 0 .926 2.007c-.155.2-.316.387-.465.587-1.023 1.368 1.107 2.775 2.259 1.743s2.372-2.046 3.588-3.04a1.655 1.655 0 0 0 1.572 1.026.947.947 0 0 0 1.568.152c2.559-2.743 4.676-5.9 7.031-8.819a1.4 1.4 0 0 0 .313-.736 76 76 0 0 0 2.478-3.088l.216-.278c.952-1.271-1.087-2.752-2.162-1.668m-26.19 4.288c-.784.487-1.578.952-2.369 1.426.316-1.22-1.462-2.068-2.5-1.259-.626.487-1.268.955-1.917 1.407.452-1.087-.9-2.391-1.952-1.662q-1.389.958-2.8 1.881.257-.29.51-.581a1.452 1.452 0 0 0-2.052-2.052 88 88 0 0 1-5.011 3.895q.569-.681 1.133-1.362a1.445 1.445 0 0 0-2.043-2.043c-.252.194-.5.394-.752.591a1.4 1.4 0 0 0-2.13-1.333q-.953.636-1.9 1.271c.116-.887-1.255-1.5-2.043-.891-.639.5-1.268 1-1.91 1.5.071-.11.136-.223.207-.332.7-1.084-.726-2.591-1.82-1.82l-1.4.981a1.18 1.18 0 0 0-1.794-.813 1.254 1.254 0 0 0-2.072-.945c-.1.1-.2.184-.3.281a1.74 1.74 0 0 0-1.339-1.046 1.66 1.66 0 0 0-1.917-.581 1.72 1.72 0 0 0-1.826-.429 1.363 1.363 0 0 0-1.888-.513c-.323.229-.636.468-.952.7a5.07 5.07 0 0 0-2.087 1.677c-.9 1.181.407 2.288 1.581 2.149a1.5 1.5 0 0 0 .371.432c-.171 1.094.845 2.4 2.023 1.949a1.8 1.8 0 0 0 .678.481c0 .01-.006.019-.006.029a1.63 1.63 0 0 0 1.452 1.949 1.566 1.566 0 0 0 2.31 1.139c.116-.084.223-.184.336-.271a1.3 1.3 0 0 0 1.649.074c.194-.119.374-.258.558-.39-.442 1.152 1.026 2.575 2.133 1.762.145-.106.281-.219.423-.329a1.416 1.416 0 0 0 1.617.745q-.364.405-.723.81a1.501 1.501 0 0 0 2.123 2.123c.532-.455 1.081-.891 1.623-1.336a1.423 1.423 0 0 0 2.1 1.591 92 92 0 0 0 3.921-2.42 1.376 1.376 0 0 0 2.1 1.346c1.839-1.223 3.666-2.472 5.5-3.711a1.614 1.614 0 0 0 2.314 1.462c.755-.4 1.5-.826 2.227-1.265a1.5 1.5 0 0 0 2.165.981c.926-.6 1.843-1.22 2.762-1.833a1.034 1.034 0 0 0 .768 1.107 1.755 1.755 0 0 0 2.085-.816.75.75 0 0 0 .065-.636c.891-1.065 1.662-2.252 2.475-3.359.755-1.026-.7-2.327-1.7-1.7Z"/><path fill="#eb8486" d="M88.014 114.172a1.835 1.835 0 0 0-2.288-1.255 1.836 1.836 0 0 0-2.943-.5 1.762 1.762 0 0 0-2.636-.855c-1.278-1.11-3.233-.006-4.585.574a6.23 6.23 0 0 0-4.737-.936c-.61-1.517-2.5-1.129-3.543-.029-.887-2.549-9.135 2.078-10.52 3.556-1.43 2.459 1.649 2.962 3.12 1.439a1.565 1.565 0 0 0 2.5 1.184c.423 1.52 2.085 1.478 3.2.5q.033.035.071.071c-1.171 2.859 2.585 3.082 4.134 1.513 4.289 2.749 11.762-.278 16.5-.894 1.268-1.033 3.54-2.849 1.72-4.376Zm38.568-69.117c.345-.413.7-.82 1.042-1.233.923-1.1-.1-3.085-1.4-2.685q.323-.384.652-.768c1.017-1.2-.31-3.395-1.781-2.4.381-.436.752-.874 1.136-1.31a1.268 1.268 0 0 0-1.562-1.965c.829-.949 1.672-1.885 2.5-2.833 1.155-1.329-.665-3.2-1.952-1.949q-.169.163-.332.326c.565-.945-.407-2.507-1.491-1.684-.077.058-.155.123-.232.181a179 179 0 0 0-8.145 6.6l1.4-1.43c1.284-1.281 2.575-2.562 3.859-3.843a1.404 1.404 0 0 0-1.985-1.985q-1.4 1.37-2.775 2.759a1.354 1.354 0 0 0-2.2-.458q-2.154 1.955-4.318 3.9a1.351 1.351 0 0 0-2.01-1.42q-2.778 1.781-5.47 3.688c.942-1.02 1.9-2.026 2.84-3.049a1.144 1.144 0 0 0-1.617-1.617c-2.8 2.259-5.657 4.453-8.529 6.622q3.732-4 7.444-8.025c.852-.92-.29-2.64-1.41-1.83-1.068.774-2.156 1.52-3.24 2.272.526-.468 1.046-.942 1.572-1.407.981-.865-.281-2.443-1.381-1.791-1.878 1.113-3.763 2.214-5.647 3.317q1.965-1.743 3.937-3.485c.894-.787-.052-2.565-1.213-2.085a33.5 33.5 0 0 0-11.113 7.464.946.946 0 0 0 .307 1.552c-1.626 1.384-3.256 2.762-4.873 4.159-1.226 1.062.365 3.088 1.726 2.236l6.412-4q-3.248 2.8-6.5 5.6c-1.2 1.039.381 3.114 1.707 2.21 3.027-2.068 5.979-4.237 8.929-6.412q-4.41 4.6-8.751 9.271c-1.146 1.236.542 2.8 1.807 1.807q3.432-2.7 6.854-5.421-4.022 4.114-8.009 8.251a1.441 1.441 0 0 0 2.036 2.036 146 146 0 0 1 12.588-11.136q-4.69 5.015-9.348 10.065a1.468 1.468 0 0 0 2.075 2.075l5.382-4.918q-1.873 2.1-3.746 4.195c-1.191 1.336.691 3.259 1.978 1.978q.26-.261.526-.523a1.424 1.424 0 0 0 2.272.6q6.714-6.922 13.8-13.463c.845-.781 1.7-1.546 2.562-2.314q-1.588 1.82-3.175 3.633-6.8 7.788-13.853 15.344a1.406 1.406 0 0 0 1.655 2.207 1.443 1.443 0 0 0 2.417.452c.413-.452.82-.913 1.233-1.368q-1.563 1.96-3.053 3.969c-.949 1.284 1.158 2.9 2.214 1.707.762-.858 1.507-1.73 2.262-2.594-.642 1.536 1.284 3.32 2.54 1.859 1.071-1.249 2.133-2.507 3.2-3.763a1.57 1.57 0 0 0 2.569.507c.136-.136.278-.268.413-.4a1.421 1.421 0 0 0 2.427 1.139c1.249-1.368 2.523-2.711 3.792-4.059a.8.8 0 0 0 .3-.171c1.484-1.326 3.043-2.5 4.431-3.947a27 27 0 0 0 3.517-4.624 1.23 1.23 0 0 0 .181-.839q1.01-1.139 2.023-2.269a1.5 1.5 0 0 0-1.4-2.511Zm-66.304-.904q-1.094.929-2.188 1.862 2.352-2.5 4.7-5.008a1.569 1.569 0 0 0-2.217-2.217l-4.5 3.743q2.715-2.783 5.437-5.566c1.481-1.517-.736-3.669-2.3-2.3q-5.37 4.657-10.693 9.363 4.734-5.45 9.461-10.9c.933-1.075-.3-3.03-1.626-2.107a165 165 0 0 0-6.509 4.792q2.546-2.9 5.1-5.8a1.5 1.5 0 0 0-2.119-2.114q-4.1 3.625-8.206 7.244c1.194-1.317 2.381-2.643 3.579-3.956a1.388 1.388 0 0 0-1.962-1.962q-4 3.374-8.019 6.731c.968-1.02 1.926-2.046 2.9-3.059.929-.968-.329-2.807-1.5-1.943a804 804 0 0 0-9.268 7.006c1.726-2.107 3.462-4.2 5.257-6.254a1.132 1.132 0 0 0-1.6-1.6c-1.43 1.233-2.869 2.452-4.308 3.675 1.065-1.187 2.146-2.365 3.2-3.559a1.19 1.19 0 0 0-1.681-1.681 184 184 0 0 1-5.266 4.114c1.349-1.465 2.685-2.943 4.037-4.408a1.422 1.422 0 0 0-2.01-2.01c-.532.429-1.075.852-1.607 1.281.416-.552.852-1.087 1.255-1.646.826-1.139-.774-2.614-1.9-1.9a46 46 0 0 0-11.856 10.927 1.23 1.23 0 0 0 .555 1.8c-.813.781-1.62 1.568-2.459 2.327-1.436 1.294.587 3.22 2.049 2.149-.429.455-.852.916-1.284 1.371-1.391 1.475.655 3.366 2.172 2.172q2.3-1.815 4.556-3.679-3.272 3.527-6.541 7.039a1.414 1.414 0 0 0 2 2q2.575-2.207 5.111-4.463c-.229.265-.465.52-.691.787a1.521 1.521 0 0 0 2.149 2.149q2.168-1.728 4.35-3.446-3.674 3.761-7.344 7.525c-1.326 1.365.639 3.24 2.056 2.056q5.441-4.535 10.829-9.139-3.214 3.509-6.431 7.025a1.485 1.485 0 0 0 2.1 2.1q5.087-4.458 10.149-8.948-3.867 4.414-7.725 8.842a146 146 0 0 0-3.917 4.482c-1.165 1.4.791 3.417 2.026 2.026q3.659-4.129 7.306-8.271a143 143 0 0 1 12.243-11.472q-7.667 8.655-15.3 17.335a1.485 1.485 0 0 0 1.607 2.4q-.766.783-1.526 1.565c-1.478 1.52.713 3.611 2.291 2.291l8.467-7.086-5.954 6.334a1.582 1.582 0 0 0 2.236 2.236l6.738-5.725a1.607 1.607 0 0 0 2.74 1.207c4.708-5.157 9.381-10.345 14.085-15.505a1.582 1.582 0 0 0-2.236-2.236Z"/><path fill="#eac485" d="M15.635 68.279q4.453-4.579 8.922-9.135a29 29 0 0 1-3.243-3.45c-2.74 3.543-5.457 7.1-8.109 10.71-1.054 1.433 1.229 3.111 2.43 1.875m44.789-39.534c.177.113.329.232.5.349l6.851-8.822c1.129-1.455-.765-3.527-2.091-2.091q-4.255 4.608-8.529 9.193a11 11 0 0 1 3.269 1.371m3.449 3.246c2.949-3.759 5.854-7.551 8.758-11.346a.9.9 0 0 0 .19-.539c.6-.681 1.194-1.365 1.794-2.046 1.217-1.381-.8-3.417-2.03-2.03q-5.813 6.544-11.6 13.108a11.1 11.1 0 0 1 2.888 2.853M49.749 27.39a16.9 16.9 0 0 1 6.638-.177l4.272-5.182a1.49 1.49 0 0 0 .01-1.907q.185-.207.371-.41a41 41 0 0 0 4.382-5.257c.552-.878-.594-2.143-1.488-1.488a41 41 0 0 0-4.937 4.7c-1.52 1.562-3.027 3.14-4.534 4.715q-2.372 2.488-4.721 5Zm-36.741 36.7c2.74-2.843 5.457-5.7 8.183-8.555a27 27 0 0 1-2.92-4.569q-4.143 5.4-7.925 11.072c-1.075 1.61 1.336 3.427 2.659 2.052Zm92.909-31.475q1.636-2.062 3.269-4.124c1.3-1.639-.842-3.956-2.359-2.359l-.329.352a1.19 1.19 0 0 0-.994.2l.639-.92c.871-1.242-1.078-2.724-2.094-1.617l-3.637 3.954a13.7 13.7 0 0 1 5.505 4.514m-11.22-5.828c1.291-1.572 2.569-3.149 3.869-4.711 1.075-1.291-.687-3.137-1.875-1.875-.378.4-.742.813-1.116 1.22a1.38 1.38 0 0 0-.9.442l-5.857 5.867a15.5 15.5 0 0 1 5.883-.939Zm4.601.865c.965-1.491 1.917-2.988 2.895-4.469.787-1.194-1-2.565-1.978-1.526l-4.86 5.17a15 15 0 0 1 3.943.829Z"/><path fill="#eac485" d="M131.113 81.447c-.574.658-1.123 1.336-1.691 2 .842-1.446 1.691-2.888 2.53-4.334a1.652 1.652 0 0 0-2.585-1.994c-.749.762-1.475 1.542-2.21 2.314.929-1.7 1.855-3.4 2.759-5.111a1.562 1.562 0 0 0-.971-2.239c1.229-1.768 2.475-3.527 3.7-5.305.929-1.352-.781-2.736-2.043-2.152.174-.265.342-.532.516-.794.729-1.091-.971-2.433-1.836-1.417q-4.656 5.484-9.106 11.143 4.109-6.317 8.248-12.608a1.27 1.27 0 0 0-.077-1.52 1.692 1.692 0 0 0-2.8-1.084q-3.132 3.369-6.192 6.8a1.545 1.545 0 0 0-2.562-1.21c-4.014 4.1-7.848 8.361-11.568 12.714a1 1 0 0 0-.2-.665q3.03-4.347 6.079-8.68c1.055-1.494-1.207-3.069-2.452-1.891-1.171 1.1-2.31 2.236-3.437 3.382a1.5 1.5 0 0 0-.223-.432q.186-.264.368-.529c.868-1.281-1.171-2.895-2.168-1.672-.081.1-.168.2-.248.3a1.18 1.18 0 0 0-1.129.29c-.394.384-.794.762-1.191 1.142a1.366 1.366 0 0 0-1.755-.487 1.533 1.533 0 0 0-2.327-1.962l-.048.045a.814.814 0 0 0-1 .194c-.884 1.052-1.759 2.11-2.636 3.169a1.23 1.23 0 0 0-.987.442q-.057.07-.119.139c.255-.352.5-.71.758-1.062.913-1.265-1.107-2.795-2.152-1.662-1.068 1.155-2.11 2.333-3.166 3.5l5.4-8.112c.884-1.329-1.126-2.875-2.21-1.707q-5.344 5.76-10.429 11.723 4.39-6.443 8.764-12.891c.9-1.336-1.187-2.978-2.252-1.739q-.198.234-.4.468a1 1 0 0 0-.177-.052q1.273-1.612 2.549-3.217c-7.69-5.028-12.391-16.147-5.128-23.45a15 15 0 0 1 3-2.32c1.152-1.707 2.3-3.421 3.466-5.124a1.416 1.416 0 0 0-.668-2.072c.987-1.291 1.959-2.6 2.962-3.879 1.107-1.413-.865-3.43-2-2q-6.472 8.129-12.942 16.266l-.071-.032 8.138-10.6a1.17 1.17 0 0 0-.248-1.681c.51-.584 1.01-1.178 1.523-1.759a1.61 1.61 0 0 0-2.275-2.275q-3.132 2.72-6.154 5.557a1.506 1.506 0 0 0-2.6-.962q-5.547 6.2-11.146 12.346c4.614 8.448-6.676 20.723-12.759 25.576a54 54 0 0 1-6.067 4.366c-2.552 3.795-5.124 7.58-7.664 11.381q-2.077 3.108-4.15 6.215a57 57 0 0 1 11.591 3.269q3.374-4.5 6.744-9.006-1.723 2.59-3.45 5.179a1.37 1.37 0 0 0 .036 1.7 1.71 1.71 0 0 0-1.213.742q-.6.858-1.2 1.726.32.117.639.236a2.51 2.51 0 0 1 2.217-.768c4.4.5 8.861 1.068 13.35 1.591q1.186-1.684 2.375-3.366a.63.63 0 0 0 .713-.152c3.053-3.3 6.086-6.593 8.98-10.042l.365-.439q-2.091 2.653-4.179 5.308-3.63 4.381-7.2 8.813c2.9.332 5.808.636 8.719.884q2.473-3.112 4.992-6.183-2.13 3.122-4.256 6.247c13.708 1.12 27.458.878 40.365-4.247q.431-1.162.845-2.323c1.355-3.795 7.441-2.149 6.073 1.675-.878 2.452-1.8 4.915-2.8 7.351q1.66-2.3 3.317-4.611c.426-.461.868-.91 1.3-1.368q-2.26 3.993-4.634 7.925c-.61.726-1.194 1.471-1.794 2.2-3.036 6.531-6.86 12.653-12.314 17.49q-.794.705-1.623 1.362c-.087.129-.177.255-.265.387q-2.3 2.217-4.611 4.434c.72-.945 1.433-1.894 2.149-2.843a41.7 41.7 0 0 1-16.783 6.463l-3.992 4.466c.933-1.446 1.9-2.869 2.849-4.3a46.4 46.4 0 0 1-7.467.365 59 59 0 0 1-2.63-.155 235 235 0 0 0-4.976 8.516q-2.1 3.577-4.137 7.19c1.5.258 3.011.484 4.534.623a23.4 23.4 0 0 0 3.395-2.633q-.02.062-.045.123a1.6 1.6 0 0 0 2.659 1.549q4.652-5.218 9.3-10.436-1.893 3.185-3.653 6.451a1.7 1.7 0 0 0-.991 1.865 194 194 0 0 0-1.594 3.117c1.8-.11 3.592-.3 5.376-.539q.346-.33.694-.665a14.18 14.18 0 0 0 9.326-2.656c-.171.258-.348.51-.52.768a1.64 1.64 0 0 0-.265.749 63 63 0 0 0 7.444-2.44c1.346-1.962 2.549-4.04 3.772-6.015l.3-.5a1.5 1.5 0 0 0 .087.4 1.383 1.383 0 0 0 .513 1.956 1.525 1.525 0 0 0 2.417.523c.629-.555 1.233-1.139 1.849-1.71a1.6 1.6 0 0 0 .139.6 42 42 0 0 0 4.13-3.133 3.2 3.2 0 0 1 1.5-.736 350 350 0 0 0 5.8-9.1 116 116 0 0 0 12-18.116 1.32 1.32 0 0 0-.726-1.817l.174-.326a1.233 1.233 0 0 0-1.471-1.781 773 773 0 0 0 5.544-8.829c.868-1.41-1.21-3.091-2.333-1.8Zm-71.97-9.716q-2.527 3.533-4.973 7.128-1.815 2.135-3.611 4.282a1.4 1.4 0 0 0-.313-1.087 1.59 1.59 0 0 0 1.117-.723q4.066-6.06 8.106-12.136l-.445.891a1.54 1.54 0 0 0 .123 1.646Zm13.692-18.063q-2.29 2.856-4.531 5.747a65 65 0 0 1 5.841-8.3zm4.627-10.51q-.862.736-1.678 1.507.2-.298.4-.607c.9-.884 1.791-1.775 2.691-2.659l-1.413 1.755Zm23.889 38.113c.5-.723.991-1.446 1.491-2.168.09-.132.184-.258.274-.39.407-.352.816-.7 1.239-1.042q-1.515 1.791-3 3.6Zm-30.775 50.22a.56.56 0 0 0-.358.174 15.7 15.7 0 0 1-3.062 2.469l4.75-6.009q-.7 1.665-1.333 3.362Zm11.83-1.433q3.141-5.6 6.68-10.952a2 2 0 0 0 .174.119c-.3.565-.616 1.126-.913 1.694a1.5 1.5 0 0 0 1.284 2.181q-3.611 3.48-7.225 6.957Zm10.132-3.908a1.37 1.37 0 0 0-.136 1.013c-2.094 2.249-4.731 4.314-7.593 5.018q4.758-4.54 9.51-9.084c-.594 1.016-1.2 2.026-1.784 3.049Zm23.719-26.764a1.9 1.9 0 0 0-.765-.278q2.047-3.195 4.024-6.431 1.007-1.181 2.026-2.349-2.648 4.526-5.289 9.058Zm6.06 1.83q-.952 1.202-1.885 2.414c.952-1.442 1.888-2.895 2.83-4.343.123-.123.252-.242.374-.365-.442.764-.879 1.532-1.323 2.293Z"/><path fill="#eac485" d="M31.63 101.7q.128-.169.255-.342c-.2-.265-.413-.523-.6-.8-3.543-5.163-2.782-10.968-4.676-16.635a3.176 3.176 0 0 1 3.037-3.985 29 29 0 0 1 3.817.278c.177-.326.358-.649.532-.978q1.7-3.18 3.417-6.351 3.79-5.048 7.674-10.023c-3.246 1.836-6.776 2.885-10.7 1.836a24.3 24.3 0 0 1-9.545-5.318c-1.242 1.565-2.488 3.127-3.711 4.7q-3 3.872-5.938 7.793c-1.313 1.578-2.63 3.153-3.93 4.744s.865 3.866 2.294 2.294a1.3 1.3 0 0 0 .623-.419c.736-.884 1.462-1.772 2.2-2.656q4.927-5.392 9.887-10.755-6.181 8.529-12.44 17c-.913 1.229.72 2.669 1.926 2.159a1.44 1.44 0 0 0 1.949-.171q2.928-3.267 5.85-6.541a1.7 1.7 0 0 0-.048 1.191c-.645.962-1.284 1.926-1.933 2.885-.313.429-.632.852-.942 1.284-1.213 1.684-2.4 3.379-3.559 5.1s-2.117 3.55-3.195 5.321c-.41.678.607 1.513 1.126.868 1.249-1.552 2.617-3.014 3.843-4.6s2.44-3.175 3.646-4.773c.155-.207.316-.407.471-.613a1.5 1.5 0 0 0 .987-.423c.655-.629 1.3-1.265 1.949-1.9a229 229 0 0 0-5.14 7.68c-1.271 1.994 1.791 3.685 3.124 1.826q.093-.126.181-.252-1.946 3.509-3.888 7.022a1.46 1.46 0 0 0 1.82 2.085 1.75 1.75 0 0 0 1.6.513 1.5 1.5 0 0 0 1.365 2.049l-.042.058q-1.312 1.82-2.594 3.659c-1.2 1.681 1.536 3.2 2.743 1.6q2.217-2.943 4.382-5.925a1.68 1.68 0 0 0 2.188-.487Zm34.619 26.006c1.565-2.443 3.017-4.96 4.466-7.477a60.1 60.1 0 0 1-18.635-4.7c-.287.432-.584.862-.871 1.3-3.34 5.073-6.551 10.232-9.71 15.421-1.136 1.865 1.662 3.411 2.882 1.684 1.413-2 2.8-4.011 4.182-6.034a1.8 1.8 0 0 0 1.449.981q-1.583 2.619-3.114 5.263a8.34 8.34 0 0 1 4.924-.955q2.246-3.282 4.489-6.567c-.142.268-.294.529-.432.8a1.68 1.68 0 0 0 1.27 2.522c-.332.613-.678 1.223-1 1.839a1.691 1.691 0 0 0 2.917 1.707c1.442-2.059 2.914-4.1 4.369-6.151a1.594 1.594 0 0 0 2.817.358Zm-22.834-16.748q-2.12 2.87-4.243 5.737l2.669-4.721a1.38 1.38 0 0 0 1.226-.755q.103-.178.207-.352-.356-.22-.707-.445c-1.462-.958-2.949-1.965-4.392-3.046-.219.4-.445.8-.662 1.2a1.61 1.61 0 0 0 1.249 2.436q-1.912 3.4-3.775 6.825a1.586 1.586 0 0 0 1.649 2.294c-.148.2-.3.4-.445.6-1.094 1.475 1.4 3.421 2.565 1.978 2.636-3.266 5.208-6.583 7.764-9.916q-1.578-.876-3.1-1.839Zm2.204 10.7q2.435-3.422 4.886-6.838-1.573-.726-3.1-1.539-2.323 3.35-4.624 6.715c-1.2 1.765 1.626 3.362 2.84 1.659ZM32.195 101.77q-3.025 5.063-6.044 10.129a3.3 3.3 0 0 1 .762.836 14.2 14.2 0 0 1 1.707 4.821c.329-.568.655-1.139.987-1.7a1.78 1.78 0 0 0 1.678-.652l6.357-8.235a31.3 31.3 0 0 1-5.444-5.2Zm5.163-72.041c1.213.145 2.462 1.339 3.508 1.413 1.868.132 3.627-1.775 5.208-2.52a17 17 0 0 1 2.01-.784q3.161-3.625 6.383-7.193c1.3-1.436-.781-3.553-2.143-2.143q-1.617 1.675-3.243 3.35a1.69 1.69 0 0 0-2.691-.778 201 201 0 0 0-9.316 8.632q.14.007.281.019Z"/><g fill="#262c54"><path d="M28.971 81.815a38.5 38.5 0 0 0 2.769 11.3c.713 1.6 2.343 1.959 3.785 2.375 1.939.561 3.959.836 5.941 1.268a5.3 5.3 0 0 1 2.168.687 2.9 2.9 0 0 1 .907 1.923 1.42 1.42 0 0 1-1.513 1.449 34 34 0 0 1-3.73-.339c-1.02-.116-2.033-.274-3.046-.416l-.274.552a61 61 0 0 0 4.418 4.463c2.888 2.4 5.908 4.647 8.909 6.912a3.41 3.41 0 0 0 4.227.21c4.266-2.43 9.084-3.22 13.9-3.669a49.4 49.4 0 0 1 16.964 1.217 17.2 17.2 0 0 1 8.619 4.685c6.757-3.343 11.423-8.664 16.109-14.818-1.2.31-1.914.468-2.611.678a86 86 0 0 1-17.877 3.411c-5.77.449-11.559.916-17.338.91a87.4 87.4 0 0 1-16.986-1.559 16.4 16.4 0 0 1-2.8-.716 1.87 1.87 0 0 1-1.1-2.394 1.72 1.72 0 0 1 1.936-1.378c.571.019 1.133.213 1.7.281 4.118.487 8.225 1.075 12.353 1.42a112.8 112.8 0 0 0 23.118-.691 77.2 77.2 0 0 0 19.681-4.585 6.36 6.36 0 0 0 3.863-3.227 20 20 0 0 1 2.049-3.143 2.21 2.21 0 0 1 2.73-1.036 2.02 2.02 0 0 1 .862 2.749 30 30 0 0 1-1.578 3.417 68.4 68.4 0 0 1-10.2 15.044 42.4 42.4 0 0 1-24.4 13.434c-10.671 1.946-20.768-.268-30.507-4.4A46.33 46.33 0 0 1 29.847 98.61a37.84 37.84 0 0 1-5.015-19.107c-.048-2.911.913-3.475 3.84-2.643 4.637 1.32 9.258 2.74 13.956 3.811a163 163 0 0 0 25.789 3.458 143 143 0 0 0 19.387-.174c7.912-.558 15.751-1.684 23.2-4.573a68 68 0 0 0 6.244-3.02c1.784-.91 2.924-.9 3.588.152.642 1.016.145 2.32-1.449 3.333a43.3 43.3 0 0 1-12.524 5.208 97.6 97.6 0 0 1-21.159 3.066c-3.763.123-7.532.445-11.284.336-14.618-.419-29.055-2.156-43.1-6.434a14 14 0 0 0-1.4-.355 4 4 0 0 0-.952.161Zm28.222 33.628c10.51 3.714 20.759 4.937 31.414.807-5.553-4.861-25.108-4.921-31.413-.808Z"/><path d="M128.702 54.305c-1.846 1.8-3.533 3.5-5.279 5.128a6.6 6.6 0 0 1-1.917 1.255 1.88 1.88 0 0 1-2.375-.487 1.914 1.914 0 0 1 .236-2.633c.465-.484 1.016-.891 1.53-1.329a22.94 22.94 0 0 0 8.435-20.255 12.6 12.6 0 0 0-1.033-3.885c-1.855-4.318-5.712-6.012-10.22-4.627a13.95 13.95 0 0 0-6.073 3.795c-.933.978-1.8 2.01-2.7 3.02-1.743 1.956-3.317 1.839-4.989-.229-1.084-1.342-2.323-2.562-3.524-3.808a8.13 8.13 0 0 0-5.983-2.485c-.387-.006-.778.019-1.158-.023-1.413-.158-2.091-.8-2.065-1.917a2.073 2.073 0 0 1 2.056-2.039 11.13 11.13 0 0 1 7.493 1.61 40 40 0 0 1 3.595 2.907c.729.616 1.413 1.284 2.546 2.327.616-1.036 1.162-1.952 1.83-3.078-.636-.39-1.588-.991-2.553-1.559-.665-.39-1.381-.7-2.033-1.11-1.268-.8-1.7-1.855-1.229-2.865s1.626-1.352 3-.745c1.146.507 2.236 1.133 3.34 1.733a10.3 10.3 0 0 1 1.723 1.065 2.73 2.73 0 0 0 3.44.287 13 13 0 0 1 6.441-1.384 11.11 11.11 0 0 1 9.858 5.576 15.2 15.2 0 0 1 2.358 7.355 26.45 26.45 0 0 1-1.5 11.388 4.95 4.95 0 0 0 .129 3.572 101 101 0 0 1 2.846 11.194 68 68 0 0 1 1.207 14.973c-.668 17-6.267 31.892-18.99 43.634a60.9 60.9 0 0 1-27.458 14.26 78.7 78.7 0 0 1-28.474 1.326c-3.821-.468-7.606-1.249-11.391-1.975a7.7 7.7 0 0 1-2.93-1.139 2.23 2.23 0 0 1-.726-1.946 2.64 2.64 0 0 1 1.639-1.336 3.86 3.86 0 0 1 1.975.21 83.2 83.2 0 0 0 27.842 2.588c15.47-1.155 29.1-6.612 39.885-18.113a53.47 53.47 0 0 0 13.472-27.429c2.017-10.823 1.075-21.507-1.8-32.069a4 4 0 0 0-.481-.745ZM37.7 27.293c.532.749.92 1.294 1.384 1.943a5.5 5.5 0 0 0 1-.545 18.9 18.9 0 0 1 11.588-4.7 10.9 10.9 0 0 1 7.144 1.83 7 7 0 0 1 1.439 1.391 1.48 1.48 0 0 1-.013 2.107 4.3 4.3 0 0 1-2.016.728 1.6 1.6 0 0 1-1.042-.429c-2.469-1.914-5.292-1.749-8.041-1.129a12.14 12.14 0 0 0-7.461 4.644 17 17 0 0 1-1.033 1.4 2.008 2.008 0 0 1-3.527-.342c-.645-1.071-1.178-2.22-1.91-3.227-3.037-4.176-7.448-5.773-11.888-4.385-5.115 1.6-8.748 6.073-8.961 10.949-.181 4.137 1.355 7.735 3.4 11.181.542.91 1.223 1.743 1.752 2.659 1.187 2.052.616 3.156-1.784 3.559-.278.045-.555.084-.913.136-1.239 1.923-1.281 4.2-1.784 6.322-2.091 8.8-.91 17.445 1.452 25.993.691 2.5 1.684 4.918 2.543 7.373.158.455.542.945.461 1.342a4.05 4.05 0 0 1-.916 1.952 1.42 1.42 0 0 1-2.088-.145 7.3 7.3 0 0 1-1.446-2.12 67.3 67.3 0 0 1-4.611-17.567c-.226-1.72-.41-3.453-.487-5.182a51.7 51.7 0 0 1 3.395-20.684 3.84 3.84 0 0 0-.19-3.53 23.5 23.5 0 0 1-2.872-10.2c-.39-7.89 5.66-14.173 12.194-16.054a13.87 13.87 0 0 1 10.139.887q.782.371 1.572.72c.077.035.187 0 .068 0 2.4-1.881 4.54-3.859 6.96-5.4 6.141-3.9 13.033-5.718 20.178-6.647a55.7 55.7 0 0 1 15.008-.094c2.13.3 3.169 1.071 2.966 2.381-.187 1.213-1.187 1.772-3.214 1.672-1.152-.055-2.3-.326-3.45-.361-9.487-.3-18.687.987-27.261 5.311a19.53 19.53 0 0 0-7.735 6.27Z"/><path d="M55.306 146.621c-.949-.239-2.452-.578-3.934-1a64.7 64.7 0 0 1-22.446-11.7 73 73 0 0 1-22.359-28.7c-.842-1.939-1.462-3.979-2.143-5.986a4.8 4.8 0 0 1-.287-1.688 1.7 1.7 0 0 1 1.559-1.794 3 3 0 0 1 1.943.907 4.8 4.8 0 0 1 .794 1.83c7.028 20.039 20.591 33.844 40.123 41.9a69 69 0 0 0 6.628 2.043c.461.136.958.155 1.413.3 1.536.494 2.168 1.278 1.988 2.414s-1.004 1.59-3.279 1.474m88.1-71.486c-.023-6.683-.058-11.317-1.278-15.831-.4-1.484-.942-2.93-1.449-4.382-.255-.726-.652-1.41-.845-2.149a2.034 2.034 0 0 1 1.162-2.636 1.934 1.934 0 0 1 2.4 1.1 25.4 25.4 0 0 1 3.237 9.526 90.7 90.7 0 0 1-6.238 48.116 8.9 8.9 0 0 1-1.339 2.194 1.58 1.58 0 0 1-2.091.413 1.9 1.9 0 0 1-1.087-2.156 9 9 0 0 1 .62-1.62 84.6 84.6 0 0 0 6.915-32.569ZM62.899 39.536c-.232-1.323-.471-2.646-.694-3.972-.245-1.455.126-2.272 1.158-2.6a2.04 2.04 0 0 1 2.691 1.5 17 17 0 0 1-.852 12.937 24.84 24.84 0 0 1-6.773 8.939c-4.66 3.9-9.39 7.732-14.224 11.41-3.866 2.943-7.135 2.94-11.243.329a30.4 30.4 0 0 1-3.93-2.946c-1.146-1.023-1.184-2.168-.371-3.056.707-.771 1.623-.823 2.875-.006 1.049.684 2 1.523 3.03 2.23 3.014 2.068 4.531 2.194 7.367.026 4.676-3.572 9.31-7.219 13.76-11.062a30.2 30.2 0 0 0 4.782-5.77 13.77 13.77 0 0 0 2.423-7.961ZM70.34.006a79.3 79.3 0 0 1 18.155 2.507c1.962.5 3.927.978 5.886 1.484a14 14 0 0 1 1.926.607 1.91 1.91 0 0 1 1.158 2.369 1.827 1.827 0 0 1-2.214 1.368c-1.046-.145-2.068-.455-3.1-.684-4.227-.945-8.419-2.146-12.695-2.782A55.8 55.8 0 0 0 51.55 7.411a28 28 0 0 1-2.723.962 1.844 1.844 0 0 1-2.156-1.078 1.684 1.684 0 0 1 .594-2.294 9.2 9.2 0 0 1 2.032-1.081A48.9 48.9 0 0 1 64.157.461C66.464.293 68.768.116 70.343 0Zm34.629 70.111a6.97 6.97 0 0 1-4.734-1.7c-4.017-3.149-8.058-6.283-11.923-9.613a35.7 35.7 0 0 1-8.516-11.214 28 28 0 0 1-1.836-5.15c-.481-1.765-.013-2.8 1.12-3.153 1.336-.416 2.32.219 2.785 2.085 1.481 5.947 5.04 10.591 9.429 14.589 3.411 3.107 7.177 5.825 10.775 8.729 1.642 1.326 3.356 1.865 5.311.678a2.7 2.7 0 0 1 .807-.31 1.87 1.87 0 0 1 2.169 1.039 1.68 1.68 0 0 1-.349 2.117 6.25 6.25 0 0 1-5.037 1.907Zm11.832 65.517c-.594-.449-1.313-.736-1.565-1.252a2.3 2.3 0 0 1 .058-1.846 5.1 5.1 0 0 1 1.633-1.591 40 40 0 0 0 12.537-12.969 1.95 1.95 0 0 1 2.665-1.033c1.1.51 1.517 1.555.849 2.933a23.6 23.6 0 0 1-2.452 3.888 44.8 44.8 0 0 1-11.349 10.595c-.713.465-1.5.81-2.375 1.271ZM0 74.296c.119-.855.255-2.094.474-3.317a1.745 1.745 0 0 1 1.768-1.578 1.875 1.875 0 0 1 2 1.681 3.8 3.8 0 0 1 .116 1.417c-.587 3.763.329 7.444.561 11.162.058.955.226 1.907.258 2.862a1.814 1.814 0 0 1-1.559 2.081 2.08 2.08 0 0 1-2.385-1.617 16 16 0 0 1-.452-2.831c-.274-3.153-.5-6.309-.781-9.855Z"/><path d="M21.198 103.568a9.7 9.7 0 0 1 1.833 1.53c1.475 1.894 2.791 3.914 4.234 5.834.981 1.307 2.088 2.514 3.095 3.8.942 1.2.965 2.027.181 2.83-.82.842-1.943.836-3.1-.071a6.7 6.7 0 0 1-1.226-1.217c-2.133-2.846-4.279-5.686-6.328-8.593a4.86 4.86 0 0 1-.774-2.394c-.068-.983.616-1.561 2.085-1.719m60.769-69.049a2.013 2.013 0 0 1-1.83-2.833 10.5 10.5 0 0 1 6.505-5.35 1.8 1.8 0 0 1 2.056 2.514 3.8 3.8 0 0 1-1.068 1.3 118 118 0 0 1-4.153 3.5 10 10 0 0 1-1.507.871Zm5.841-20.943c2.168.716 4.34 1.42 6.5 2.168a1.46 1.46 0 0 1 .858.716c.219.681.545 1.565.284 2.1a2.16 2.16 0 0 1-1.8.984 65 65 0 0 1-6.873-1.959 1.85 1.85 0 0 1-1.246-2.307c.277-1.052 1.117-1.5 2.281-1.7Zm13.956 128.782c-.645-.536-1.471-.894-1.659-1.465-.194-.591.006-1.778.426-2.017a32 32 0 0 1 5.457-2.482c.833-.287 1.626.365 2.02 1.275a1.494 1.494 0 0 1-.587 2.026c-1.766.947-3.621 1.721-5.657 2.663m-60.047-16.427a1.773 1.773 0 0 1-2.575 1.668 20.4 20.4 0 0 1-4.076-3.508 2.54 2.54 0 0 1 .145-2.317 2.17 2.17 0 0 1 1.988-.613 9.4 9.4 0 0 1 4.443 4.208c.09.145.048.371.068.561ZM1.707 61.854a23 23 0 0 1 .9-2.523 1.806 1.806 0 0 1 2.123-1.088 1.79 1.79 0 0 1 1.549 2.085 11.6 11.6 0 0 1-.836 3.017 1.915 1.915 0 0 1-2.336 1.21c-1.058-.294-1.462-1.152-1.4-2.7Zm24.218-3.092c-.229.307-.5 1.016-1 1.281a2.356 2.356 0 0 1-2.843-.652c-.858-.823-1.7-1.73-1.068-2.953a2.52 2.52 0 0 1 1.72-1.188c1.294-.118 3.172 1.921 3.191 3.512m88.646 6.637a2.09 2.09 0 0 1-1.965-2.091 2.284 2.284 0 0 1 2.433-1.968 2.026 2.026 0 0 1 1.814 1.914 2.264 2.264 0 0 1-2.282 2.145"/></g></svg>