<svg xmlns="http://www.w3.org/2000/svg" width="142.571" height="143.413" viewBox="0 0 142.571 143.413"><g fill="#eac485"><path d="M22.699 90.407a1.37 1.37 0 0 0 .458.755c-1.129 1.284.726 3.156 1.936 1.9q4.26-4.439 8.513-8.884a532 532 0 0 1 13.55-13.166c-1.594-.894-2.443-2.991-.655-4.447a11.48 11.48 0 0 1 10.968-2.223q.41-.418.826-.836 4.874-4.932 9.745-9.865a1.235 1.235 0 0 0 .194-1.5c.936-.8 1.865-1.613 2.8-2.414q6.835-5.837 13.714-11.62a1.336 1.336 0 0 0 .142-1.849c.326-.268.649-.542.975-.81q7.038-5.755 14.25-11.3c1.4-1.071.142-3.459-1.426-2.443a248 248 0 0 0-25.144 19.113q4.414-4.41 8.832-8.816 4.826-4.8 9.648-9.6c1.029-1.026-.361-2.991-1.6-2.078l-4.582 3.362a1.516 1.516 0 0 0-2.162-.645q-10.271 6.83-19.936 14.586l17.244-16.234a1.276 1.276 0 0 0-.849-2.191 1.123 1.123 0 0 0-1.7-.978c-6.28 4.129-12.28 8.597-18.087 13.299q-1.067.53-2.123 1.081.28-.247.555-.494l12.34-10.91c1.275-1.126-.565-2.891-1.846-1.846q-7.595 6.2-15.2 12.385 6.641-6.041 13.361-11.995c.984-.868-.281-2.446-1.384-1.794-4.2 2.478-8.267 5.166-12.243 7.98q1.292-1.191 2.588-2.378c.829-.758-.229-2.043-1.175-1.523-7.609 4.2-14.182 9.671-20.533 15.441A161 161 0 0 1 47.26 24.065c1.165-1.1-.542-2.733-1.733-1.733-3.753 3.159-7.474 6.357-11.21 9.535-1.843 1.568-3.679 3.12-5.424 4.782l-5.4 5.14c-.4.384.142 1.133.607.787l5.96-4.411c.5-.374.991-.768 1.484-1.155a110 110 0 0 0-7.925 10.752 1.117 1.117 0 0 0 .874 1.662q-3.408 3.1-6.773 6.254c-1.194 1.123.6 2.9 1.794 1.794q5.867-5.16 11.6-10.468c7.4-6.486 15.024-12.727 23-18.448q-5.91 5.31-11.765 10.684a.806.806 0 0 0-1 .032 110.3 110.3 0 0 0-22.055 21.257 1.173 1.173 0 0 0 .629 1.93q-3.146 3.1-6.347 6.138c-1.223 1.158.584 2.917 1.833 1.833 11.73-10.2 23.334-20.542 34.96-30.862q.852-.558 1.713-1.107c-4.989 4.347-9.849 8.848-14.634 13.44a.73.73 0 0 0-.871.065c-2.185 1.826-4.243 3.788-6.241 5.815-.987 1-1.949 2.02-2.849 3.1a24.5 24.5 0 0 0-2.549 3.417.523.523 0 0 0 .484.784 1.15 1.15 0 0 0 .5.381c-.384.429-.781.845-1.162 1.281q-4.782 5.45-9.155 11.233c-.784 1.036.887 2.243 1.768 1.365q6.7-6.7 13.453-13.363 5.16-4.777 10.362-9.51a1.34 1.34 0 0 0 1.43.791q-5.376 5.204-10.758 10.393-2.319 2.023-4.6 4.1c-3.695 3.388-7.306 6.877-10.694 10.575a1.387 1.387 0 0 0 1.962 1.959q3.209-3.151 6.418-6.309-3.374 3.742-6.767 7.47a1.4 1.4 0 0 0 1.972 1.972c1.936-1.723 3.85-3.466 5.776-5.2-.2.239-.41.474-.61.716a63 63 0 0 0-7.551 10.655.637.637 0 0 0 1 .768c1.378-1.262 2.675-2.6 3.943-3.963Zm6.141-44.915a141 141 0 0 1 17.17-15.257c-5.728 5.079-11.478 10.139-17.17 15.257m23.266-3.5c3.295-3.075 6.6-6.141 9.971-9.126q2.44-1.965 4.927-3.872c.665-.507 1.336-1 2.007-1.5q-1.094 1.089-2.185 2.185-8.195 6.6-16.073 13.588c.452-.423.9-.852 1.352-1.271Zm-5.566 23.6a1.6 1.6 0 0 0 .177.184q-1.6 1.35-3.185 2.717c.687-.658 1.371-1.32 2.062-1.975.319-.303.629-.616.945-.926Zm-3.521-4.147.855-.691a1.8 1.8 0 0 0 .555.587l-7.06 6.476 5.647-6.373Z"/><path d="M130.06 73.102c.407-.7-.29-1.865-1.158-1.507a16.3 16.3 0 0 0-3.93 2.74 209 209 0 0 0-3.934 3.34q-3.8 3.3-7.557 6.657-3.049 2.74-6.041 5.55-6.336 5.179-12.666 10.365c6.622-6.964 13.527-13.666 20.52-20.258q5.053-4.758 10.145-9.474c1.4-1.3-.662-3.314-2.088-2.088q-1.825 1.573-3.65 3.143c1.175-1.065 2.349-2.123 3.517-3.195 1.723-1.581 3.743-3.188 4.879-5.266.223-.407-.155-1.049-.658-.855-2.146.829-3.953 2.517-5.708 3.972-1.81 1.5-3.614 3-5.4 4.534-2.685 2.3-5.347 4.618-8.012 6.935 2.056-2.007 4.082-4.043 6.018-6.147a94.6 94.6 0 0 0 9.958-12.646c.881-1.365-1.029-2.636-2.146-1.655l-14.708 12.85c2.256-2.136 4.5-4.276 6.783-6.386q5.658-5.242 11.4-10.391c1.375-1.233-.629-3.179-2.01-2.01q-18.093 15.3-36.174 30.6l19.094-19.229q5.963-6.007 11.93-12.014c1.323-1.333-.681-3.32-2.056-2.056q-9.618 8.858-19.236 17.719a3.02 3.02 0 0 1 1.058 4.037c-.755 1.262-2.749 2.017-4.037 1.058a6.8 6.8 0 0 0-1.575-.9q-1.733 1.6-3.469 3.2a.8.8 0 0 0-.139-.161c1.075-1.055 2.156-2.1 3.233-3.146a4.31 4.31 0 0 0-4.247 1.217c-2.853 2.491-7.038-1.672-4.172-4.172 3.792-3.311 8.642-4.3 12.917-1.42q4.061-3.921 8.164-7.793 6.81-6.433 13.672-12.814c1.117-1.042-.4-3.12-1.672-2.165-7.483 5.628-14.653 11.639-21.646 17.854q6.07-5.973 12.291-11.785 5.45-5.107 10.942-10.168c1.291-1.194-.571-2.914-1.885-1.885l-6.16 4.834.565-.507c1.507-1.355-.671-3.414-2.191-2.191-6.925 5.576-13.55 11.53-20.162 17.474q-7.449 6.7-14.647 13.666-2.977 2.74-5.87 5.573a1.43 1.43 0 0 0-.455-1.488q9.41-8.785 18.829-17.564 7.241-6.762 14.486-13.521a1.487 1.487 0 0 0 .052-2.065q5.5-4.235 11.036-8.435c1.087-.826.1-2.675-1.1-1.885a350.5 350.5 0 0 0-45.819 36.051c.565-.607 1.123-1.217 1.688-1.82 7.925-8.245 16.322-16.076 24.918-23.576a399 399 0 0 1 4.024-3.356 1.5 1.5 0 0 0 .342-.4c2.782-2.365 5.586-4.7 8.429-6.993 1.449-1.165-.61-3.211-2.046-2.046q-4.347 3.533-8.6 7.18a1.5 1.5 0 0 0-.236.148q-5.3 4.095-10.423 8.409 1.873-1.709 3.743-3.421a1.26 1.26 0 0 0 .455-.994c.487-.394.968-.8 1.459-1.191 2.523-2.007 5.063-4 7.574-6.021q1.878-1.51 3.782-2.995a17.2 17.2 0 0 0 3.614-3.027c.278-.381-.181-.907-.6-.781a16 16 0 0 0-4.014 2.511q-1.98 1.38-3.937 2.794c-2.62 1.891-5.163 3.908-7.645 5.983-.532.445-1.052.9-1.578 1.349a1.4 1.4 0 0 0-1.126.355q-9.889 8.5-19.361 17.47c-2.63 2.5-5.266 5.037-7.838 7.632a27 27 0 0 1 3.385 1.226c3.479 1.51.471 6.593-2.978 5.1a9.2 9.2 0 0 0-5.431-1.036 131 131 0 0 0-2.736 3.1 1.2 1.2 0 0 0-.281-.658q1.065-1.084 2.136-2.165a5 5 0 0 0-1.22.739 3.04 3.04 0 0 1-3.437.323q-7.44 7.512-14.924 14.983c-3.272 3.262-6.6 6.473-9.813 9.8a1.47 1.47 0 0 0 .181 2.259c-.923.981-1.843 1.965-2.74 2.969-1.068 1.2.332 3.353 1.81 2.346a19.7 19.7 0 0 0 5.408-5.512c2.927-3.124 5.8-6.305 8.716-9.416q5.813-6.2 11.63-12.391a.7.7 0 0 0 .284.665c-.378.474-.739.962-1.11 1.439l-.232.248c-2.343 2.552-4.627 5.15-6.809 7.841a198 198 0 0 0-3.188 4.024 18 18 0 0 0-1.139 1.733q-1.51 1.873-3 3.766a256 256 0 0 0-7.332 9.771c-.984 1.384 1.133 2.878 2.288 1.765q4.9-4.715 9.778-9.458c-.055.058-.1.126-.155.184a63 63 0 0 0-3.362 3.934l-.055.048.01.006c-.087.11-.181.213-.265.326-1.139 1.5 1.142 3.114 2.472 2.078q-1.849 2.28-3.634 4.611l-.035.039c-.081.107-.165.207-.242.313-1.055 1.388 1.275 3.182 2.42 1.868q3.34-3.824 6.741-7.586-3.892 5.242-7.551 10.658c-.907 1.342 1.226 3.03 2.272 1.752q8.519-10.426 17.667-20.32c-.171.232-.352.455-.523.687a128 128 0 0 0-7.209 10.91 1.3 1.3 0 0 0-.181.591 108 108 0 0 0-5.5 7.493c-.307.461.387.991.765.591.223-.236.439-.474.658-.71-.594.742-1.2 1.478-1.8 2.223-1.249 1.568.862 3.814 2.256 2.256q2.73-3.054 5.466-6.1a1.62 1.62 0 0 0 1.53.713c-.084.1-.171.2-.252.3a39.2 39.2 0 0 0-5.089 7.228.593.593 0 0 0 .926.716 67 67 0 0 0 6-6.409c1.949-2.2 3.934-4.366 5.938-6.522a488 488 0 0 1 6.015-6.383c-.01.048-.035.094-.042.142-2.665 2.943-5.3 5.918-7.78 9.019a93 93 0 0 0-7.9 11.333 1.521 1.521 0 0 0 2.378 1.836c2.172-2.1 4.327-4.221 6.489-6.334a1.543 1.543 0 0 0 2.511.691l4.518-3.908-6.457 6.438c-1.271 1.265.629 3.117 1.952 1.952s2.646-2.33 3.966-3.495c-.536.694-1.078 1.384-1.6 2.085a1.5 1.5 0 0 0 .39 1.949 1.54 1.54 0 0 0 1.985-.119q6.888-5.4 13.779-10.781-6.21 6.428-12.424 12.856c-1.268 1.307.6 3.066 1.959 1.959q4.482-3.654 8.939-7.338a53 53 0 0 0-2.62 3.959c-.678 1.136.765 2.833 1.939 1.939q4.318-3.287 8.69-6.5l-5.779 5.3a1.421 1.421 0 0 0 1.714 2.214q6.53-4.206 13.03-8.464c-1.985 2.088-3.924 4.218-5.763 6.438-.9 1.091.31 3.137 1.652 2.143q7.227-5.349 14.063-11.188a1.2 1.2 0 0 0 .561-.3c1.2-1.11 2.414-2.207 3.627-3.3q3.011-2.667 5.941-5.421a1.223 1.223 0 0 0-.136-1.926q3.558-3.156 6.935-6.522a1.485 1.485 0 0 0-2.1-2.1q-3.567 3.567-7.412 6.844c6.354-6.838 12.682-13.695 19.081-20.488 1.355-1.436-.642-3.3-2.12-2.12q-10.8 8.645-21.611 17.283 9.84-9.8 19.684-19.591a1.35 1.35 0 0 0 .381-1.462c.639-.574 1.281-1.139 1.917-1.717a16.6 16.6 0 0 0 3.385-3.595ZM38.555 92.389q2.033-2.522 4.127-4.989a1.28 1.28 0 0 0 1.233-.429q5.687-6.447 11.681-12.588a1.66 1.66 0 0 0 .7.936q-8.882 8.524-17.745 17.07Zm27.935-2.962.032-.058c.958-.913 1.9-1.836 2.853-2.762a1.4 1.4 0 0 0 .474.52q-2.653 2.29-5.247 4.644c.636-.778 1.281-1.546 1.891-2.339Zm-5.089 19.978-2.423 2.343c2.314-2.769 4.718-5.466 7.138-8.154l.858-.726a86 86 0 0 0-5.572 6.537Zm9.619 5.382q.862-.978 1.736-1.939a1.3 1.3 0 0 0 .142.487q-.939.726-1.878 1.455Zm-7.025-3.766q4.506-4.443 9.016-8.884a1.57 1.57 0 0 0 .875.461q-4.941 4.212-9.89 8.423Zm8.855-29.852-.9.658c1.062-1.11 2.12-2.22 3.191-3.317q-1.152 1.321-2.291 2.659m40.307-12.388q.076-.068.152-.132c-6.712 7.425-14.408 13.982-21.682 20.92a1.47 1.47 0 0 0-1.384-.655l22.911-20.133Zm-29.042 32.8a1 1 0 0 0 .09-.084.6.6 0 0 0 .252-.107c1.013-.707 2.033-1.388 3.046-2.085q-1.641 1.413-3.275 2.824-1 .862-2 1.73.921-1.155 1.888-2.276Zm-1.772 15.8a1.4 1.4 0 0 0-.455 1.265c-.616.452-1.229.9-1.849 1.352a110.5 110.5 0 0 1 11.142-11.391q-4.419 4.385-8.839 8.774Zm28.661-19.074q-7.7 8.069-15.325 16.209c-1.523.975-3.043 1.956-4.566 2.927l12.1-11.133a1.336 1.336 0 0 0 .077-1.814q3.858-3.1 7.716-6.189Z"/></g><path fill="#eb8486" d="M83.951 101.457a5.7 5.7 0 0 0-1.9-1.826c-.552-.342-1.187-.568-1.723-.933a3.7 3.7 0 0 1 .265-.9c.229-.139.465-.271.684-.413A5.16 5.16 0 0 0 84 93.329a3.574 3.574 0 0 0-3.017-3.663 6.4 6.4 0 0 0-2.44.139 26 26 0 0 0-1.952-1.252 1.88 1.88 0 0 0-1.894 0 1.72 1.72 0 0 0-.867 1.122 1.88 1.88 0 0 0 .484 1.826c.126.1.261.187.39.287a1.44 1.44 0 0 0 .558.787 3.1 3.1 0 0 0 1.359.555c.155.1.31.207.465.313.371.248.736.526 1.12.755.171.1.226.165.242.168a1.4 1.4 0 0 1-.148.52 4.5 4.5 0 0 0-1.271 1.007 3.45 3.45 0 0 0-.4 3.9 6.65 6.65 0 0 0 .723 2.562c.336.662 1 1.368 1.016 2.143a1.89 1.89 0 0 1-1.081 1.62 6.53 6.53 0 0 0-3.185 1.423 1.92 1.92 0 0 0-.152 2.533 1.97 1.97 0 0 0 2.488.5q.49-.215.968-.449c.981-.278 2.11-.2 3.078-.449a5.7 5.7 0 0 0 3.824-3.056 5.51 5.51 0 0 0-.355-5.16Z"/><path fill="#75757c" d="M97.556 67.39c-.549-1.833-2.3-2.62-4.069-2.869a10.26 10.26 0 0 0-4.8.413 8.9 8.9 0 0 0-4.582 3.2 1.57 1.57 0 0 0 .407 2.033 1.61 1.61 0 0 0 2.072-.123c.094-.074.177-.158.265-.239a1.7 1.7 0 0 0 .4.29 10.1 10.1 0 0 0 3.433.681c.958.116 1.917.21 2.878.3a4.04 4.04 0 0 0 3.256-.7 2.85 2.85 0 0 0 .739-2.988Zm-35.619.1a2.01 2.01 0 0 0-1.41-1.849 1.4 1.4 0 0 0-.394-.11q-.769-.205-.419-.016c-.045-.006-.094-.023-.139-.032a12.5 12.5 0 0 0-3.33-1.381 14.1 14.1 0 0 0-5.815-.361 4.65 4.65 0 0 0-2.746 1.1 2.67 2.67 0 0 0-.187 3.462 3.23 3.23 0 0 0 3.407 1.233c.936-.184 1.8-.642 2.736-.855.187-.042.336-.074.474-.1a8.7 8.7 0 0 0 1.817.794 7.7 7.7 0 0 0 3.785.161 1.62 1.62 0 0 0 1.72-.752c.01-.019.013-.039.023-.058a1.73 1.73 0 0 0 .474-1.233Z"/><g fill="#262c54"><path d="M73.144 132.768c-20.994-.936-50.614-13.324-59.778-43.605a26 26 0 0 1-1.036-4.711 2.06 2.06 0 0 1 1.181-1.552 1.97 1.97 0 0 1 1.81.539 14.2 14.2 0 0 1 1.507 3.408c8.164 25.454 27.051 37.532 52.2 41.575a33.13 33.13 0 0 0 20.455-3.511 77.45 77.45 0 0 0 28.443-24.338c4.811-6.725 7.225-14.434 8.732-22.469.465-2.475.784-4.986 1.42-7.412a2.4 2.4 0 0 1 1.943-1.317c.623.084 1.229 1.068 1.62 1.778.223.4.035 1.055-.029 1.591-1.817 14.87-6.828 28.252-17.732 39.042a90.8 90.8 0 0 1-21.488 16.176 42 42 0 0 1-19.255 4.8Z"/><path d="M0 68.436c1.539-26.932 14.921-48.91 41.724-62.263a21.3 21.3 0 0 1 5.069-1.6c.394-.084 1.146.745 1.446 1.307a1.49 1.49 0 0 1-.394 1.407 27.5 27.5 0 0 1-3.7 2.123C22.7 19.69 9.332 36.412 5.218 59.833c-3.734 21.256 1.868 40.252 15.963 56.674a26 26 0 0 1 2.769 3.285 2.49 2.49 0 0 1-.065 2.333 2.35 2.35 0 0 1-2.3.2 20 20 0 0 1-3.514-3.3C6.121 105.294.252 89.279 0 68.436m142.571 2.071c-.358 15.88-3.814 29.452-12.353 41.453a49.3 49.3 0 0 1-15.276 14.244c-2.2 1.288-3.753 1.165-4.166-.171-.584-1.888.974-2.5 2.146-3.24 13.324-8.364 20.575-20.846 23.837-35.809 3.959-18.164 1.291-35.4-8.377-51.385-1.572-2.6-3.64-4.9-5.45-7.357a16 16 0 0 1-1.72-2.688 1.54 1.54 0 0 1 .355-1.449c.516-.355 1.52-.713 1.875-.455a19.3 19.3 0 0 1 3.553 3.22c8.3 9.945 12.882 21.517 14.7 34.234.51 3.553.674 7.154.878 9.4Z"/><path d="M68.827 12.785c19.452 1.655 36.316 7.383 48.213 23.443 3.966 5.353 8.051 10.613 10.142 17.048a18.4 18.4 0 0 1 .771 4.708c.023.432-.823 1.071-1.4 1.307a1.53 1.53 0 0 1-1.375-.523 18.4 18.4 0 0 1-1.351-2.893c-7.909-19.342-21.156-32.611-42.111-37.245a57 57 0 0 0-19.268-1.117c-.891.106-1.778.261-2.665.407-1.355.219-2.743.065-3.017-1.452-.281-1.559 1.055-2.149 2.362-2.346 3.366-.507 6.741-.933 9.694-1.333Zm9.402 73.618c6.773-.077 10.381 4.321 8.842 9.645-.629 2.181-.939 3.83.432 5.918 3 4.569-1.736 10.749-6.089 10.568a91 91 0 0 1-10.597-1.439 1.54 1.54 0 0 1-.939-1.175c.045-.626.41-1.649.826-1.755a15.6 15.6 0 0 1 4.631-.574c1.768.1 3.5.829 5.27.929a3.367 3.367 0 0 0 3.546-2.72c.458-1.668-.526-2.775-1.807-3.54-.907-.542-2.039-.694-2.969-1.207-1.565-.862-1.575-2.417-.032-3.35.755-.458 1.684-.616 2.456-1.052a3.036 3.036 0 0 0 1.378-3.724 2.983 2.983 0 0 0-3.127-2.459 32 32 0 0 0-5.2 1.133 42 42 0 0 1-5.182 1.236 2.48 2.48 0 0 1-1.994-1.32 2.32 2.32 0 0 1 1.01-2.062c3.524-1.259 7.122-2.3 9.542-3.053ZM91.36 60.859c7.593.226 12.056 7.357 12.065 13.395 0 1.923-1.849 2.924-3.34 1.617-5.389-4.708-11.23-1.784-16.912-1.217-.655.065-1.126 1.31-1.823 1.81a1.775 1.775 0 0 1-2.962-1.53c.487-7.215 5.46-13.676 12.972-14.079Zm.361 8.274a27 27 0 0 0 3.35.129 9 9 0 0 0 1.8-.61 5.5 5.5 0 0 0-.878-1.791c-3.114-2.811-7.277-2.472-10.371.839a6.4 6.4 0 0 0-.833 1.852 7 7 0 0 0 1.855.3c2.1-.236 4.182-.584 5.079-.713Zm-25.314 1.91c.071 3.456-1.275 4.808-3.417 3.614-5.789-3.23-11.759-2.491-17.813-1.391-2.546.465-3.314-.194-3.059-2.653.826-7.99 10.429-12.824 17.712-8.8 3.821 2.11 6.257 5.321 6.576 9.229Zm-12.8-6.938c-1.53.755-3.414 1.633-5.228 2.636-.342.19-.41.884-.6 1.346a4.7 4.7 0 0 0 1.329.436c2.652 0 5.305-.09 7.958-.084 1.2 0 2.407.168 3.611.258-.019-1.949-1.546-2.707-2.927-3.4a24.7 24.7 0 0 0-4.141-1.192Zm-41.713 6.654c.949-11.314 3.759-21.788 9.71-31.285.381-.607.691-1.4 1.255-1.717a12.3 12.3 0 0 1 2.791-.833 19 19 0 0 1 .352 2.9c-.01.468-.487.936-.774 1.391-5.666 9.019-8.442 18.948-9.29 29.481-.058.716.152 1.559-.165 2.12a11.7 11.7 0 0 1-1.943 2.117 13.4 13.4 0 0 1-1.8-2.307 4.6 4.6 0 0 1-.136-1.875ZM70.205.077a60 60 0 0 1 20.978 3.876c1.42.532 3.556.984 2.9 3.12-.71 2.307-2.594 1.178-4.043.668-9.086-3.182-18.348-4.673-27.957-3.191a3.4 3.4 0 0 1-1.581-.035c-.445-.152-1.068-.578-1.11-.939-.068-.632.071-1.73.439-1.888a21 21 0 0 1 5.02-1.556 37 37 0 0 1 5.357-.058ZM51.35 47.712c2.294.565 5.8 1.313 9.206 2.365.607.187.816 1.642 1.213 2.514a6.9 6.9 0 0 1-2.281.894 12.5 12.5 0 0 1-3.159-.652 23.3 23.3 0 0 0-18.69 2.514c-1.233.745-2.656 1.978-3.74.352-1.2-1.8.461-2.969 1.791-3.872 4.331-2.946 9.316-3.611 15.66-4.118Zm24.682 95.697c-.436-.3-1.726-.72-1.965-1.468-.481-1.523.813-2.146 2.136-2.414 1.752-.355 3.511-.7 5.276-.994 6.021-1.007 11.972-2.156 17.151-5.757.616-.429 1.872.058 2.833.123-.2.962-.1 2.191-.662 2.827a12.6 12.6 0 0 1-3.462 2.485c-3.7 2.023-16.535 5.182-21.307 5.2Zm17.074-97.035c2.643.471 5.334.771 7.916 1.471a20.3 20.3 0 0 1 4.815 2.317c1.139.674 1.981 1.852 1.223 3.166-.836 1.452-2.091.736-3.282.2a27 27 0 0 0-5.967-2.33c-4.066-.736-8.219-1.213-11.923 1.507-1.139.836-2.5.939-3.262-.4s.161-2.4 1.278-3.137a16.45 16.45 0 0 1 9.2-2.8ZM62.051 141.81c-4.853-1.007-9.216-1.884-13.559-2.84a3.16 3.16 0 0 1-1.82-1.036 3.43 3.43 0 0 1-.6-2.291c.065-.4 1.155-.987 1.678-.894 5.076.913 10.142 1.9 15.176 3.03.623.139 1.584 1.607 1.436 1.833a12.4 12.4 0 0 1-2.307 2.2ZM48.629 21.11a8.4 8.4 0 0 1-1.481 1.81c-3.753 2.7-7.519 5.392-11.394 7.912-.678.439-1.891.055-2.856.052.132-.962-.074-2.22.458-2.84a32.1 32.1 0 0 1 12.185-8.49c1.226-.516 2.472-.336 3.088 1.555Z"/></g></svg>