<svg xmlns="http://www.w3.org/2000/svg" width="147.187" height="151.066" viewBox="0 0 147.187 151.066"><g fill="#75757c"><path d="m92.245 68.582-.023.006c.052-.009.045-.009.023-.006"/><path d="M103.455 68.175a9.88 9.88 0 0 0-9.184-6.589 11.6 11.6 0 0 0-6.1 1.784 10.7 10.7 0 0 0-2.443 1.943 5.1 5.1 0 0 0-.933 1.555 4.5 4.5 0 0 0-.1 1.275c-.071.432.284.987.794.794.365-.139.781-.048 1.171-.219a7.6 7.6 0 0 0 1.094-.565c.523-.339 1.013-.726 1.517-1.087a1.7 1.7 0 0 0 .139.571 1.81 1.81 0 0 0 2.136 1.049c-.207.061.574-.077.691-.1.213-.045.419-.107.632-.161.316-.084.907-.223 1.042-.242s.752-.055 1.068-.048c.226 0 .452.016.678.032 0 0 .384.045.426.045a8.3 8.3 0 0 1 1.972.591 8.8 8.8 0 0 1 1.943 1.384 2.135 2.135 0 0 0 2.5.323 2.09 2.09 0 0 0 .949-2.33Z"/></g><path fill="#75757c" d="M56.9 64.754a10.2 10.2 0 0 0-2.452-2.485 9.84 9.84 0 0 0-5.892-1.952 10.22 10.22 0 0 0-9.535 7.212c-.468 1.639 1.523 3.4 3.04 2.34a20.6 20.6 0 0 1 6.27-3.437 5.94 5.94 0 0 1 5.018.739l.158.1.058.065c.071.084.106.119.132.145s.042.065.081.119c.084.119.158.245.242.365a3.6 3.6 0 0 0 1.249 1.246 1.724 1.724 0 0 0 2.5-1.016 4.13 4.13 0 0 0-.858-3.437Z"/><path fill="#ba8b54" d="M99.683 104.535a6.7 6.7 0 0 0-1.607 1.149q-.755.658-1.484 1.339c-1 .936-1.978 1.888-2.956 2.846q-.207.205-.41.41a.6.6 0 0 0-.155-.261.6.6 0 0 0-.307-.161c.168-.239.342-.474.513-.713q.136-.192.278-.384l.145-.194c.006-.01.006-.006.016-.019a11 11 0 0 0 1.233-1.768.84.84 0 0 0-.065-.926.83.83 0 0 0-.878-.3 8.7 8.7 0 0 0-3.395 2.727 13.1 13.1 0 0 0-2.452 3.914 1.39 1.39 0 0 0 .807 1.642 1.3 1.3 0 0 0 .581.1 6.8 6.8 0 0 0-1.5 2.059 1.286 1.286 0 0 0 1.071 1.61 1.3 1.3 0 0 0 .823-.171v.016a5.7 5.7 0 0 0 1.6-1.375l.2-.213a.76.76 0 0 0 .7-.016 11.3 11.3 0 0 0 2.02-1.755 17 17 0 0 0 1.823-2.139c.52-.674 1.042-1.346 1.533-2.046.252-.358.5-.716.729-1.091a2.1 2.1 0 0 0 .319-.787.4.4 0 0 0 0-.061 9.2 9.2 0 0 0 1.826-2.662c.236-.629-.523-.981-1.007-.775Zm-9.097.626a7 7 0 0 0-.8.494q.035-.048.065-.1a1.27 1.27 0 0 0 .081-.965.89.89 0 0 0-.626-.626 1.27 1.27 0 0 0-.958.087 4 4 0 0 0-.552.429c-.29.239-.565.49-.839.745-.542.513-1.055 1.058-1.568 1.6-.5.526-1.007 1.052-1.475 1.6-.242.284-.474.578-.707.868a2.2 2.2 0 0 0-.645 1.939 1.29 1.29 0 0 0 1.237.956 1.9 1.9 0 0 0 .816-.236 1.85 1.85 0 0 0 .1 1.6.77.77 0 0 0 .674.387 1.91 1.91 0 0 0 1.5-.81c.242-.332.449-.7.658-1.052.41-.694.855-1.362 1.291-2.039q.634-.983 1.336-1.917.36-.473.736-.981a8 8 0 0 0 .616-1.036.7.7 0 0 0-.94-.943"/><g fill="#ba8b54"><path d="m57.704 113.635-.035.035c.039-.031.045-.038.035-.035"/><path d="M80.434 106.149c-.352.219-.7.445-1.052.668a1.408 1.408 0 0 0-2.3-.6c-.271.226-.552.436-.833.649a1.412 1.412 0 0 0-2.317-.516c-.158.129-.323.242-.484.368a.91.91 0 0 0-1.478-.432l-.01-.016c-.687.539-1.394 1.055-2.081 1.594.026-.039.058-.077.084-.116a.739.739 0 0 0-.826-1.075 5.4 5.4 0 0 0-1.307.613 7.5 7.5 0 0 0 1.081-1.423 1.08 1.08 0 0 0-.084-1.188 1.06 1.06 0 0 0-1.123-.384 6 6 0 0 0-1.255.655 14 14 0 0 0-1.078.907 1.34 1.34 0 0 0-.9-.3 4.2 4.2 0 0 0-.936.148 11 11 0 0 0-1.73.645 15.5 15.5 0 0 0-2.811 1.633 20.3 20.3 0 0 0-2.607 2.275 7 7 0 0 0-1.136 1.471 4.2 4.2 0 0 0-.381.939 1.95 1.95 0 0 0 .168 1.165.8.8 0 0 0 .752.571c-.168.006.274.036.332.036a1.8 1.8 0 0 0 .62-.136 2 2 0 0 0 .516-.319c.023-.023.407-.323.439-.342a14 14 0 0 0 1.036-1.036q.523-.552 1.091-1.055.298-.266.607-.513c.048-.042.11-.087.136-.11s.048-.035.071-.052c-.274.339-.565.668-.826 1.02-.539.723-1.3 1.8-.9 2.746.478 1.126 1.833.355 2.449-.194a18 18 0 0 0 1.736-2.007c.119-.145.248-.281.368-.423a1.248 1.248 0 0 0 2.056 1.278c.526-.532.955-1.123 1.5-1.639.084-.081.184-.152.271-.229a1.543 1.543 0 0 0 2.2.91c.465-.219.92-.455 1.371-.694a1.75 1.75 0 0 0 2.233.736 25 25 0 0 0 1.956-1.123 1.48 1.48 0 0 0 1.933.484c.4-.245.791-.494 1.191-.739a1.388 1.388 0 0 0 2.362.742 3.45 3.45 0 0 0 .787-1.207.63.63 0 0 0-.052-.558 5 5 0 0 1 .923-1.52c1.068-1.188-.3-3.2-1.772-2.294Z"/><path d="m57.316 113.935-.058.042c-.002.006.008 0 .058-.042"/></g><path fill="#ba8b54" d="M57.654 104.522q-.852.76-1.723 1.491a1.244 1.244 0 0 0-1.8-.72l-.013-.023c-.055.042-.1.087-.155.129-.035.023-.068.042-.1.068a27.5 27.5 0 0 1-4.569 2.7 56 56 0 0 1 2.978-2.82c1.268-1.107-.39-3.272-1.807-2.343-.136.09-.278.171-.413.261a1.2 1.2 0 0 0-.9.11q-1.38.741-2.765 1.475a5 5 0 0 1 .326-.426.948.948 0 0 0-.913-1.568 4 4 0 0 1-.187.026 1.27 1.27 0 0 0-1.255-.6 15 15 0 0 0-1.878.407 1.21 1.21 0 0 0-1.187-.6 8.3 8.3 0 0 0-4.682 2.152c-1.191 1.075.1 2.762 1.455 2.5.41-.081.816-.181 1.22-.29l.058.019a1.316 1.316 0 0 0 1.781 1.187c.068-.029.132-.065.2-.094a1.33 1.33 0 0 0-.116 1.442 1.53 1.53 0 0 0-.1 1.7 9.8 9.8 0 0 1 3.253 3.036c.813-.4 1.623-.833 2.43-1.265-.358 1.12 1.107 2.081 2.162 1.542 0 .01.006.016.01.026.065-.045.119-.1.181-.142-.236.342-.474.684-.694 1.036-.768 1.239.881 2.243 1.878 1.449 3.514-2.791 6.273-6.6 9.239-9.945a1.354 1.354 0 0 0-1.914-1.914Z"/><path fill="#eb8486" d="M85.575 117.452a.2.2 0 0 1-.11-.087c.807-1.329-.949-2.646-2.181-2.02a1 1 0 0 0-.106.074 2 2 0 0 0-.455-.239 22 22 0 0 0-8.842-1.684c-.436.019-.862.061-1.284.113a1.755 1.755 0 0 0-2.333-.6q-.379.213-.762.419a1.463 1.463 0 0 0-2.01-.271q-.794.503-1.584 1a1.7 1.7 0 0 0-1.007-.555 1.316 1.316 0 0 0-2.2-.881A69 69 0 0 0 57.344 117c-.836.791.229 2.088 1.2 1.559.268-.145.526-.307.787-.461 0 0 0 .006.006.006a1.434 1.434 0 0 0 .6 1.659 1.65 1.65 0 0 0 1.43 1.023 1.99 1.99 0 0 0 2.288.855 2 2 0 0 0 .581.219 26.8 26.8 0 0 0 16.744-2.017 14 14 0 0 1 2.569.242c1.371.277 3.02-1.262 2.023-2.633Z"/><path fill="#abd0f2" d="M135.421 102.906a3.8 3.8 0 0 0 .384-2.288.785.785 0 0 0-1.181-.449.1.1 0 0 0 0-.032c-.048.019-.094.052-.139.074a10 10 0 0 0 .7-1.8.873.873 0 0 0-1.449-.842 18 18 0 0 0-2.307 3.224q-.992 1.578-1.968 3.166c-.649 1.058-1.265 2.136-1.9 3.208-.652 1.107-1.726 2.472-1.507 3.8a1.14 1.14 0 0 0 1.094.833 1.1 1.1 0 0 0 .3-.052v.013l.036-.016a1 1 0 0 0 .232-.119 3.75 3.75 0 0 0 1.281-1.32 1.28 1.28 0 0 0 .8 1.158 1.38 1.38 0 0 0 1.459-.284l.006.01a5.6 5.6 0 0 0 .516-.662 4.3 4.3 0 0 0-.129.981 2.5 2.5 0 0 0 .152.881.95.95 0 0 0 .223.349c.084.607.781.652 1.2.374.823-.194 1.2-1.333 1.468-2.017.31-.784.587-1.584.871-2.378.561-1.575 1.3-3.072 1.846-4.653.4-1.158-1.226-1.943-1.975-1.146Zm-4.589-7.2a31 31 0 0 0-1.452 1.852 11.7 11.7 0 0 0 1.759-3.947.6.6 0 0 0-.868-.668 11.7 11.7 0 0 0-2.759 2.662c-.855.991-1.626 2.085-2.4 3.14q-.968 1.321-1.927 2.665c.352-.591.71-1.178 1.058-1.768l1.8-3.027a17 17 0 0 0 1.856-3.4 1.352 1.352 0 0 0-2.252-1.3l-.013-.016a7 7 0 0 0-.887 1.107q-.185.197-.384.39c.507-.781 1.01-1.565 1.526-2.343.81-1.22-1.107-2.74-2.052-1.584q-.416.507-.845 1.01c.578-1.1-.987-2.459-1.83-1.388a61 61 0 0 0-1.4 1.584l-.048.052c.629-1.007 1.249-2.023 1.807-3.072.636-1.2-.952-2.569-1.943-1.5-.436.471-.887.936-1.355 1.384a59 59 0 0 1 2.049-3.14c.916-1.3-1.023-2.582-2.1-1.62q-.571.513-1.165.978a1.016 1.016 0 0 0-1.5-.523 8.04 8.04 0 0 0-3 3.724c-.39 1.055.887 1.855 1.778 1.433a40 40 0 0 0-1.749 3.272 1.492 1.492 0 0 0 1.617 2.188 43 43 0 0 0-1.365 2.1 1.6 1.6 0 0 0 1.53 2.327 1.643 1.643 0 0 0 1.877 1.668 26 26 0 0 0-1.578 2.511c-.771 1.436 1.229 3.2 2.365 1.826a40 40 0 0 1 2.13-2.352 12.2 12.2 0 0 0-1.346 2.53c-.455 1.31 1.117 2.239 2.194 1.688l.032-.019c-.51.855-1 1.939-.513 2.727.732 1.171 2.22-.094 2.791-.774a59 59 0 0 0 4.1-5.828c-.2.345-.41.691-.61 1.036a78 78 0 0 0-2.165 3.988 12.1 12.1 0 0 0-1.613 4.324 1.169 1.169 0 0 0 1.975.82l.107-.039a.6.6 0 0 0 .516-.684 23.5 23.5 0 0 0 1.765-3.14 201 201 0 0 1 2.033-3.74c1.417-2.562 3.053-5.011 4.392-7.615.61-1.181-.981-2.617-1.943-1.5ZM27.526 86.781q-3.093 2.9-6.215 5.763 3.1-3.35 6.338-6.593c1.291-1.291-.642-3.182-1.988-1.988-.255.226-.52.445-.778.671-.01-1.094-1.168-2.191-2.227-1.375-1.488 1.146-2.991 2.272-4.485 3.4a1.348 1.348 0 0 0-2.107 0c-4.034 3.511-8.106 7-12.03 10.629-1.378 1.278.148 3.024 1.639 2.665a57 57 0 0 0-2 2.165 1.628 1.628 0 0 0 2.3 2.3c1-.952 2.023-1.872 3.066-2.782q-2.7 3.374-5.215 6.867c-1.136 1.581 1.31 3.327 2.636 2.033.962-.939 1.8-1.988 2.782-2.911s1.952-1.846 2.927-2.765q.315-.302.629-.594a135 135 0 0 0-3.553 4.385l-.019.016c-.081.11-.168.213-.248.319-1.1 1.442 1.242 3.143 2.469 1.907.268-.268.542-.532.81-.8-.642.816-1.288 1.633-1.92 2.456l-.01.01c-.084.113-.174.223-.258.332-1.158 1.513 1.284 3.246 2.578 1.988q2.11-2.057 4.2-4.14c-.771 1.733 1.707 3.2 2.691 1.488 1.565-2.733 2.962-5.55 4.385-8.358a1.55 1.55 0 0 0-1.113-2.22q2.115-2.812 4.237-5.608c.952-1.246-1.046-2.643-2.11-1.63l-1 .945c1.8-2.249 3.6-4.5 5.424-6.741a1.3 1.3 0 0 0-1.839-1.839Z"/><path fill="#eac485" d="M59.724 119.75a43.7 43.7 0 0 1-15.1-7.983c-1.087 1.249-2.181 2.491-3.246 3.756.529-.713 1.055-1.43 1.568-2.156.4-.565.933-1.2 1.342-1.872A60.8 60.8 0 0 1 32.15 97.93q-3.621 3.558-7.119 7.238c-.642.678-1.268 1.371-1.9 2.056a38.7 38.7 0 0 1-3.811 6.157 3.55 3.55 0 0 1-2.026 1.342 2 2 0 0 1 .287.084 3.085 3.085 0 0 1 3.721.384c1.407-1.394 2.8-2.8 4.221-4.185l-.374 1.368a1.749 1.749 0 0 0 2.9 1.688c.51-.5 1.013-1.016 1.52-1.52q-2.7 3.258-5.315 6.586c.452.423.91.839 1.391 1.233a3 3 0 0 1 1.791.449q1.651.987 3.24 2.049l1.746-1.907c1.6-1.752 3.22-3.482 4.844-5.211-1.733 2.227-3.456 4.463-5.124 6.738-.229.31-.442.632-.668.945a66 66 0 0 1 4.915 3.721c1.152-1.4 2.327-2.785 3.492-4.176a1.3 1.3 0 0 0 .552-.239 294 294 0 0 0 6.425-5.015q-4.86 5.019-9.542 10.21a61 61 0 0 1 2.494 2.265 3 3 0 0 1 .636.923c1.191-1.381 2.391-2.756 3.579-4.14q1.046-1.22 2.088-2.44 1.046-1.026 2.091-2.059a1.85 1.85 0 0 0 2.946.5l1.681-1.524a1.4 1.4 0 0 0 .236-.106 414 414 0 0 0-5.031 5.789c-1.539 1.81 1.016 4.437 2.64 2.64l9.045-10.023ZM28.711 84.593q7.406-7.532 14.976-14.892c-2.517 1.41-6.121-1.129-4.321-4.185a9.7 9.7 0 0 1 1.991-2.394c2.688-2.785 6.276-4.892 10.21-4.382a3.9 3.9 0 0 1 2.436 1.2q4.26-3.93 8.616-7.754-4.167 4.091-8.254 8.275a2.9 2.9 0 0 1 .352 1.436 2.6 2.6 0 0 1-.09.645 15 15 0 0 1 1.7 1.081Q67.556 52.074 79.34 41.092q8.219-7.643 16.712-14.973c1.507-1.3-.478-3.9-2.143-2.775q-5.252 3.553-10.326 7.332l2.375-2.152a1.768 1.768 0 0 0-.313-2.72 32.6 32.6 0 0 0 4.84-5.382c.855-1.271-1.217-2.314-1.933-1.378a31 31 0 0 0-3.972 3.3c-.3.271-.587.545-.884.816 1.136-1.4-.752-3.814-2.356-2.646q-3.6 2.628-7.148 5.331 1.37-1.457 2.72-2.93a49 49 0 0 0 5.2-6.012c.755-1.165-.745-2.281-1.733-1.726v-.016l-.029.026a1.2 1.2 0 0 0-.281.239 34 34 0 0 0-3.721 3.617 1.79 1.79 0 0 0-2.085.219Q62.697 29.086 51.118 38.9q2.372-2.3 4.747-4.6 6.321-6.133 12.649-12.262a1.8 1.8 0 0 0-.952-3.075c1.029-1.381-.774-3.714-2.3-2.543l-.355.274-.006.006Q53.947 25.117 43.378 34q5.194-5.605 10.436-11.162c1.049-1.11-.374-3.217-1.713-2.22q-4.032 3.006-8 6.105 2.294-2.294 4.589-4.582c1.12-1.12-.532-2.688-1.71-1.71a256 256 0 0 0-24.481 23.303.66.66 0 0 0-.181.561l-14.327 13.9c-1.475 1.433.778 3.682 2.256 2.256 8.984-8.677 18.213-17.061 27.784-25.05-8.984 9.4-18.019 18.745-26.919 28.219-1.578 1.681.9 4.179 2.54 2.54q8.156-8.166 16.661-15.973a389 389 0 0 0-9.761 10.491q-5.944 6.651-11.533 13.6c-1.542 1.926.913 4.569 2.772 2.772.5-.484 1-.975 1.5-1.459a2.05 2.05 0 0 0 .907-.458Q28.299 63.061 42.44 51.03q-9.894 10.116-19.471 20.536Q15.98 79.214 9.261 87.1c-1.559 1.839 1.087 4.518 2.669 2.669.368-.432.745-.855 1.117-1.284a2.67 2.67 0 0 1 1.252-1.452l.013-.006q7.735-8.9 15.951-17.361c-.387.416-.784.823-1.171 1.239q-6.936 7.5-13.469 15.357c-.048.058-.081.119-.123.181a44 44 0 0 1 7.732-2.927 3.6 3.6 0 0 1 .665-.116 3.237 3.237 0 0 1 4.818 1.2ZM68.46 37.168q5.992-5.552 12.04-11.046c-2.7 2.552-5.418 5.089-8.087 7.68-.71.691-1.41 1.391-2.114 2.085q-1.612 1.273-3.211 2.562c.458-.426.913-.855 1.375-1.281Z"/><path fill="#eac485" d="M131.823 74.309a.71.71 0 0 0-1.029-.791 6.5 6.5 0 0 0-1.294 1.1c.016-.055.042-.11.055-.165.136-.6-.419-1.336-1.084-1.084-1.762.668-3.166 2.582-4.434 3.924-.658.7-1.294 1.423-1.943 2.133 1.029-1.546 2.049-3.114 2.966-4.744q2.836-2.58 5.689-5.144c1.465-1.31-.445-3.795-2.1-2.727a243 243 0 0 0-9.881 6.731c2.23-2.127 4.447-4.266 6.683-6.386a1.61 1.61 0 0 0-.058-2.278q.598-.568 1.207-1.136c1.426-1.346-.52-4.017-2.146-2.778q-.179.136-.358.278-9.415 7.183-18.339 14.97 7.159-7.7 14.311-15.4c2.336-2.107 4.666-4.227 7.006-6.334a1.66 1.66 0 0 0 .49-.745c.307-.219.61-.442.92-.658a1.73 1.73 0 0 0 .581-.684 10 10 0 0 0-.1-.278 2.7 2.7 0 0 1-1.855-1.026 39 39 0 0 1-1.846-2.4 213 213 0 0 0-18.577 12.853q.556-.621 1.107-1.242c4.834-5.415 9.581-10.9 14.337-16.38-.691-1.113-1.381-2.227-2.094-3.33-1.41 1.207-2.811 2.423-4.221 3.627a.71.71 0 0 0-.729.055 39 39 0 0 0-3.85 3.146.6.6 0 0 0-.61.077 20.5 20.5 0 0 0-3.74 4.247q-.253.264-.5.529-5.213 4.443-10.413 8.906a13.76 13.76 0 0 1 6.434 3.249c3 2.74-1.465 7.18-4.453 4.453-2.272-2.072-6.867-2.527-9.3-.474-3.078 2.6-7.554-1.833-4.453-4.453a13.81 13.81 0 0 1 11.436-2.845q7.13-6.762 14.2-13.595a1.39 1.39 0 0 0 .174-1.914c1-1.046 2.007-2.091 2.962-3.179a12.4 12.4 0 0 0 2.664-3.768.594.594 0 0 0-.726-.726 11.8 11.8 0 0 0-3.83 2.611c-1.1.952-2.143 1.968-3.175 2.995a26 26 0 0 0 1.717-2.249l.994-.955a1.34 1.34 0 0 0 .1-1.988l.261-.232c1.546-1.381-.723-3.617-2.269-2.269q-4.942 4.235-9.845 8.513a1.32 1.32 0 0 0-1.5.1c-.371.281-.736.571-1.107.855q6.685-6.133 13.4-12.233c1.155-1.049-.545-2.72-1.7-1.7l-2.049 1.8a2 2 0 0 0-1.233-1.075c.813-1.4-.962-3.537-2.469-2.423q-7.866 5.833-15.525 11.93 6.854-6.3 13.718-12.582c1.655-1.51-.787-3.921-2.449-2.449-13.872 12.295-27.732 24.637-41.146 37.439.265.21.542.41.787.639 2.969 2.775-1.494 7.219-4.453 4.453a7 7 0 0 0-.962-.745l-2.962 2.7c.9-.958 1.823-1.9 2.73-2.849a7.8 7.8 0 0 0-3.908-1.207q-5.562 5.823-10.984 11.775-4.806 5.3-9.477 10.71a3.14 3.14 0 0 1 .6 2.533 70.4 70.4 0 0 1-3.224 11.2q3.185-3.417 6.431-6.77a3 3 0 0 1 .9-2.749 11 11 0 0 1-1.21-1.517c-2.246-3.395 3.211-6.544 5.437-3.179a4.2 4.2 0 0 0 1.091 1.094q13.359-13.422 27.59-25.944c-8.048 7.848-15.925 15.867-23.482 24.2-.787.868-1.565 1.746-2.346 2.62 2.911 1 6.944.833 9.271.816 5.708-.035 11.4-.21 17.116-.1l3.421.068c1.142-1.149 2.269-2.317 3.424-3.459-.3.352-.62.7-.92 1.052a.73.73 0 0 0 .323 1.188c-.452.413-.9.829-1.355 1.242 5.463.09 10.942.1 16.357-.339.094-.09.181-.181.274-.268l-.248.268a63.8 63.8 0 0 0 19.862-4.518c1.642-.694 4.008.006 4.66 1.6l.284-.294q-.134.164-.265.329a2.6 2.6 0 0 1-.052 1.917c-5.405 14.147-16.586 25.847-31.311 29.568l-.055.071q-5.17 5.126-10.149 10.426-3.03 3.209-6.041 6.447c1.613.371 3.2.874 4.789 1.388 1.562-1.439 3.13-2.872 4.689-4.314a1.47 1.47 0 0 0 1.188-.5q1.815-2 3.643-3.985 6.7-6.234 13.379-12.491l-13.86 16.089a1.92 1.92 0 0 0 .281 2.859c-.258.332-.523.665-.778 1l-.006.006q-.151.189-.294.378c-1.349 1.778 1.442 3.608 2.949 2.275q5.92-5.247 11.8-10.546c-.613.732-1.236 1.455-1.83 2.207a1.865 1.865 0 0 0 2.636 2.636q2.1-1.873 4.118-3.817c-.9 1.743 1.413 3.869 2.891 2.214 1.058-1.152 2.107-2.317 3.156-3.479a1.7 1.7 0 0 0 .571-.348 107 107 0 0 0 12.788-14.486 1.6 1.6 0 0 0 .21-.407l4.456-5.044c1.291-1.455-.365-3.95-2.168-2.811-.374.236-.732.487-1.1.726.742-.987 1.481-1.978 2.207-2.978a35 35 0 0 1-3.153-5.947q-4.458 4.076-8.91 8.151c2.917-2.972 5.77-6.015 8.5-9.158q-.3-.75-.571-1.52c-1.042-2.917-2.859-6.831-2.859-9.955 0-1.891 2.036-3.772 3.985-3.037a26.7 26.7 0 0 1 7.6 4.453l4.747-4.434a1.7 1.7 0 0 0-.065-2.43c.145-.216.3-.429.442-.645.939-1.436 2.143-2.995 2.449-4.718Zm-56.487-.161a.7.7 0 0 0-.152.255l-.991.884-6.731 6.015 10.513-9.942a96 96 0 0 0-2.636 2.788Zm25.157 38.11c1.481-1.746 2.966-3.482 4.447-5.228a.676.676 0 0 0 .707.513l-5.153 4.714Z"/><path fill="#eac485" d="M69.934 121.254a38 38 0 0 1-9.632-1.339q-5.145 5.484-10.287 10.971c-1.572 1.678.929 4.2 2.53 2.53q.57-.6 1.146-1.2a2 2 0 0 0 .168.329c-.29 1.555 1.736 3.108 3.133 1.691q3.6-3.587 7.151-7.2c1.923-1.936 3.866-3.85 5.8-5.783Zm5.609-.332a40 40 0 0 1-3.711.31c-.8.887-1.613 1.772-2.414 2.662q-5.668 6.3-11.249 12.688a3.3 3.3 0 0 1 1.107-.2 19.4 19.4 0 0 1 3.682.381q7.5-8.229 15.192-16.276-1.288.259-2.6.436Z"/><g fill="#262c54"><path d="M129.655 87.172a60.4 60.4 0 0 0 .523-15.983 55 55 0 0 0-3.812-16.277 61 61 0 0 0-15.425-21.136 73.3 73.3 0 0 0-25.9-14.983 50.8 50.8 0 0 0-13.643-2.385c-.868-.052-1.746-.013-2.6-.123a2.014 2.014 0 0 1-1.917-1.855 1.95 1.95 0 0 1 2-2.036 41.5 41.5 0 0 1 6.076.168c13.976 1.6 26 7.641 36.709 16.493a64.65 64.65 0 0 1 18.318 23.937 49.8 49.8 0 0 1 4 15.928 97 97 0 0 1 .5 9.816 70 70 0 0 1-.865 9.494 3.62 3.62 0 0 0 1.087 3.324 38.3 38.3 0 0 1 4.627 5.892 12.43 12.43 0 0 1 .6 12.2c-2.546 5.224-8.3 7.467-14 5.631-1-.323-1.968-.755-3.156-1.217-.9.991-1.839 1.939-2.678 2.969a64.44 64.44 0 0 1-25.459 18.633 12.3 12.3 0 0 1-3.34.765 1.42 1.42 0 0 1-1.623-1.326 2.4 2.4 0 0 1 .61-1.759 7.7 7.7 0 0 1 2.262-1.213 61 61 0 0 0 21.875-14.867c1.755-1.907 3.424-3.9 5.247-5.979-3.492-3.934-5.544-8.477-7.59-13.537-.726 1.181-1.217 1.972-1.7 2.769-4.882 8.09-11.091 14.934-19.523 19.342-14.634 7.654-29.016 6.6-42.927-2.033a54.95 54.95 0 0 1-16.047-15.7c-.494-.71-1.007-1.4-1.784-2.478-1.855 4.708-3.575 9.174-6.986 12.733a29.1 29.1 0 0 0 8.416 8.432 80.06 80.06 0 0 0 35.2 13.96 55 55 0 0 0 13.576.21c.471-.045 1.068-.194 1.4.026.6.394 1.355.978 1.452 1.575a2.17 2.17 0 0 1-.945 1.836 11.3 11.3 0 0 1-3.624.816c-9.5.729-18.664-.971-27.6-4.037a79.5 79.5 0 0 1-21.875-11.1 35.3 35.3 0 0 1-8.18-7.728 8 8 0 0 0-1.084-1.026c-.758.323-1.465.61-2.159.923-5.592 2.5-11.072.781-14.256-4.482a17.34 17.34 0 0 1 1.371-19.31 13.3 13.3 0 0 1 2.114-2.375 3.274 3.274 0 0 0 1.168-3.785c-2.452-11.085-1.122-21.86 2.94-32.367a42.2 42.2 0 0 1 6.238-11.058 14 14 0 0 1 1.778-1.9c1.1-.962 1.985-.984 2.827-.2.826.771.858 1.642.081 2.869a10 10 0 0 1-.72.907c-5.566 6.649-8.326 14.487-9.649 22.916a48.2 48.2 0 0 0 0 15.854c.113.642.336 1.265.561 2.085.762-.177 1.381-.329 2-.468a1.784 1.784 0 0 1 2.159 1.013 1.82 1.82 0 0 1-.507 2.346c-.561.516-1.307.829-1.888 1.333a54 54 0 0 0-5.56 5.037 12.82 12.82 0 0 0-1.626 14.6c2.356 4.166 6.209 5.211 10.313 2.746a18.4 18.4 0 0 0 6.841-8.054 48.1 48.1 0 0 0 3.863-13.295c.381-2.178.691-4.372 1.058-6.747-1.329-.132-2.391.584-3.543.887a12 12 0 0 1-3.082.581 2.01 2.01 0 0 1-1.452-1.11 2.24 2.24 0 0 1 .374-1.8 3.47 3.47 0 0 1 1.655-1.087c2.469-.829 4.937-1.691 7.461-2.31 2.888-.707 3.782.287 3.22 3.108a227 227 0 0 0-1.775 9.961 4.1 4.1 0 0 0 .394 2.43 54.26 54.26 0 0 0 18.18 19.894c1.652 1.068 2.917 1.265 4.7.084 2.924-1.939 6.347-2.736 9.784-3.395a38.5 38.5 0 0 1 14.389-.139 19.2 19.2 0 0 1 10.364 4.927c5.308-2.93 9.5-6.906 13.64-12.049-3.395.752-6.092 1.317-8.777 1.952a72 72 0 0 1-14.621 1.852 108 108 0 0 1-11.278-.549c-5.87-.449-11.73-1-17.593-1.53-2.017-.181-4.03-.41-6.044-.632a3.8 3.8 0 0 1-1.117-.274 1.957 1.957 0 0 1-1.3-2.307 1.72 1.72 0 0 1 1.9-1.426c1.255.016 2.511.094 3.759.207 5.763.516 11.52 1.171 17.293 1.555 5.486.368 11 .726 16.489.62 7.97-.155 15.654-2.075 23.2-4.6a5.7 5.7 0 0 0 3.356-2.959c.629-1.178 1.4-2.275 2.317-3.734-.181-.745-.445-1.843-.758-3.146-1.684.51-3.217 1.029-4.776 1.439a140 140 0 0 1-22.527 3.75 190 190 0 0 1-25.773.426 65.7 65.7 0 0 1-17.677-2.795 14 14 0 0 1-2.168-.8 2.1 2.1 0 0 1-1.058-2.691 1.824 1.824 0 0 1 2.4-1.046c1.959.507 3.879 1.191 5.85 1.633 7.206 1.61 14.537 1.833 21.888 1.868a151.2 151.2 0 0 0 35.347-3.637c2.52-.591 4.992-1.4 7.548-2.127.061-1.071.052-1.93.174-2.772a2.1 2.1 0 0 1 2.046-2.046c1.081-.016 1.662.629 1.933 2.085.745 3.979 1.326 8 2.3 11.92a33.1 33.1 0 0 0 6.354 13.208 11.2 11.2 0 0 0 6.357 4.272 7.2 7.2 0 0 0 8.868-6.709 10.07 10.07 0 0 0-1.852-6.554 35.2 35.2 0 0 0-12.449-10.617c-1.184-.652-2.4-1.246-3.562-1.933-1.668-.984-2.12-1.859-1.626-2.93.539-1.171 1.707-1.517 3.521-.642 2.34 1.129 4.563 2.494 6.828 3.772.49.278.945.61 1.775 1.149Zm-44.505 30.92c-1.171-1.62-2.8-2.023-4.331-2.436a34.18 34.18 0 0 0-21.82 1.413 10.6 10.6 0 0 0-1.6 1.036 36.65 36.65 0 0 0 27.751-.013"/><path d="M70.922 4.076c-8.59-.226-16.661 1.981-24.35 5.541A86.2 86.2 0 0 0 5.913 48.175c-.684 1.275-1.184 2.643-1.839 3.934a4.7 4.7 0 0 1-1.178 1.607 1.756 1.756 0 0 1-2.893-1.401 7.6 7.6 0 0 1 .774-2.74 79.5 79.5 0 0 1 11.089-17.932A90.2 90.2 0 0 1 43.848 6.338c9.6-4.485 19.61-7 30.288-6.186a17.3 17.3 0 0 1 3.12.536 1.746 1.746 0 0 1 1.368 2.2 1.747 1.747 0 0 1-1.921 1.433c-1.93-.048-3.859-.158-5.789-.242Zm30.308 64.16c-1.71-5.528-6.638-7.8-11.568-5.4a11.66 11.66 0 0 0-5.453 5.405c-.723 1.462-1.2 3.043-1.814 4.56a8.6 8.6 0 0 1-1.1 2.317 2.33 2.33 0 0 1-1.743.636 1.51 1.51 0 0 1-1.368-1.607 5.6 5.6 0 0 1 .081-1.436c1.113-4.824 3.156-9.122 7.257-12.149 4.214-3.108 9.878-3.9 14.615-.781a10.86 10.86 0 0 1 4.382 5.25 59 59 0 0 1 2.072 7.78 2.365 2.365 0 0 1-1.233 2.711c-1.036.542-1.852.039-2.572-.691A14.5 14.5 0 0 0 89.94 70.3c-1.491.194-2.252-.41-2.41-1.459a2.215 2.215 0 0 1 1.649-2.407 2.8 2.8 0 0 1 1.126-.229c2.2.145 4.418.19 6.58.552a27.4 27.4 0 0 1 4.347 1.475Zm-44.813-.704a9.73 9.73 0 0 0-3.472-5.479 6.48 6.48 0 0 0-7.564-.419 13.74 13.74 0 0 0-5.989 7.877c-.374 1.091-.587 2.239-.991 3.317-.487 1.3-1.368 1.788-2.423 1.478a1.86 1.86 0 0 1-1.294-2.285 19.53 19.53 0 0 1 5.1-11.1 13.5 13.5 0 0 1 6.257-3.985 9.9 9.9 0 0 1 9.506 1.962c4.34 3.559 5.87 8.425 5.928 13.866a2.34 2.34 0 0 1-1.333 2.372c-1.1.5-1.8-.177-2.523-.865a33 33 0 0 0-2.988-2.707 9.36 9.36 0 0 0-7.645-1.807c-1.991.381-3.072-.11-3.33-1.275-.252-1.139.707-2.265 2.494-2.662a12.2 12.2 0 0 1 7.119.416c.881.339 1.746.72 3.149 1.3Zm4.04 83.406c-7.209-.126-14.25-2.485-20.994-5.592-3.462-1.594-6.528-4.059-9.739-6.183a1.95 1.95 0 0 1-1.046-2.188 1.885 1.885 0 0 1 2.924-1.246 36 36 0 0 1 4.189 2.556 48.6 48.6 0 0 0 26.206 8.667 7.1 7.1 0 0 1 2.795.558 2.3 2.3 0 0 1 1.084 1.778 2.58 2.58 0 0 1-1.355 1.6 4.6 4.6 0 0 1-1.968.152c-.578.006-1.155-.048-2.094-.1Zm58.375-85.712c-.416.445-.829 1.236-1.423 1.417a2.68 2.68 0 0 1-2.081-.423 4.85 4.85 0 0 1-1.21-1.92 28.5 28.5 0 0 0-6.154-8.655c-2.6-2.549-5.863-4-9.026-5.589a9.6 9.6 0 0 0-5.96-.455c-.565.094-1.213.394-1.675.216a2.83 2.83 0 0 1-1.643-1.349 2.33 2.33 0 0 1 .645-1.975 4.3 4.3 0 0 1 2.327-1 16.86 16.86 0 0 1 10.31 1.9c4.427 2.462 8.616 5.16 11.472 9.429 1.488 2.223 2.633 4.676 3.914 7.035a12 12 0 0 1 .5 1.375ZM48.241 46.041a7.3 7.3 0 0 1 1.258.116c.978.232 1.859.649 1.991 1.8.11.968-.733 1.836-2 2.078-.565.106-1.149.116-1.723.174-8.235.829-14.389 5.069-19.126 11.639a23 23 0 0 1-1.362 1.862 1.912 1.912 0 0 1-3.182-2.107 36 36 0 0 1 3.443-4.982 29.95 29.95 0 0 1 19.655-10.529c.287-.032.578-.032 1.042-.058Zm82.595 75.904a13 13 0 0 1-.868 2.12 30.6 30.6 0 0 1-3.178 4.453c-3.937 4.1-7.97 8.116-12.053 12.075a22.2 22.2 0 0 1-3.956 2.888 1.85 1.85 0 0 1-2.769-.51 2.14 2.14 0 0 1 .665-2.824c5.234-3.714 9.5-8.451 13.847-13.088 1.436-1.533 2.6-3.317 3.888-4.992.349-.455.587-1.116 1.042-1.346a3 3 0 0 1 2.1-.358c.565.21.891 1.062 1.284 1.581Z"/><path d="M45.933 22.275a6.6 6.6 0 0 1-.82 1.391 5 5 0 0 1-1.423.958c-5.618 3.014-10.9 6.46-15.124 11.339a3.5 3.5 0 0 1-1.142.852 1.693 1.693 0 0 1-2.556-1.642 4.8 4.8 0 0 1 1.152-2.536 56.5 56.5 0 0 1 16.974-12.22c1.568-.749 2.895.013 2.936 1.859Zm71.924-4.811c-.065 1.817-1.146 2.633-2.414 2.23a5.5 5.5 0 0 1-1.494-.858 44.3 44.3 0 0 0-13.8-6.544 23 23 0 0 1-3.533-1.268 1.937 1.937 0 0 1-1.21-2.585A2.066 2.066 0 0 1 98.071 7.3c4.756 1.578 9.635 2.862 13.973 5.5a50 50 0 0 1 4.379 2.817 7.6 7.6 0 0 1 1.434 1.847m29.328 58.31c-.613 5.344-.539 10.594-2.7 15.447-.268.6-.5 1.375-.994 1.684a2.78 2.78 0 0 1-2.094.326 2.02 2.02 0 0 1-.984-1.549 7 7 0 0 1 .52-2.5 40.9 40.9 0 0 0 1.875-15.015c-.081-1.855.62-2.882 2.027-2.811a1.88 1.88 0 0 1 1.872 1.5 14 14 0 0 1 .3 1.41c.089.569.137 1.144.178 1.508M16.858 125.288a6.3 6.3 0 0 1 1.465 1.046c1.071 1.223 2.017 2.556 3.024 3.84a2.02 2.02 0 0 1 .255 2.643 2.055 2.055 0 0 1-2.869.3 11.46 11.46 0 0 1-4.03-5.179c-.539-1.452.278-2.617 2.156-2.653ZM57.74 14.369c1.149.126 1.991.484 2.317 1.565a1.72 1.72 0 0 1-.991 2.149c-1.73.8-3.508 1.517-5.308 2.149a2.62 2.62 0 0 1-1.659-.174c-1.352-.536-1.694-2.591-.439-3.24a65 65 0 0 1 6.08-2.449m71.56 15.71c-.319.468-.574 1.191-1.075 1.468a3.14 3.14 0 0 1-1.868.077 1.76 1.76 0 0 1-.878-.716c-1.062-1.371-2.149-2.73-3.107-4.172-.794-1.194-.658-2.107.184-2.849a1.784 1.784 0 0 1 2.785.319c1.262 1.446 2.343 3.049 3.472 4.611a6 6 0 0 1 .491 1.262Z"/></g></svg>