<svg xmlns="http://www.w3.org/2000/svg" width="142.464" height="144.41" viewBox="0 0 142.464 144.41"><path fill="#eac485" d="M125.006 66.326c-.113.084-.219.174-.332.258-.658.5-1.307 1.013-1.962 1.52.452-.523.91-1.042 1.355-1.568q.598-.7 1.168-1.42c.484-.61.781-1.368 1.278-1.959a.708.708 0 0 0-1-1c-.52.474-1.181.739-1.723 1.191-.471.39-.923.8-1.375 1.213q-1.52 1.389-3.014 2.807c-1.93 1.843-3.782 3.766-5.65 5.67-3.74 3.808-7.428 7.67-11.126 11.517a1.673 1.673 0 0 0 2.365 2.365c2.724-2.5 5.521-4.9 8.358-7.264-.084.11-.174.216-.258.326-.52.674.536 1.317 1.1.849a150 150 0 0 0 12.816-11.923c1.233-1.288-.449-3.753-1.994-2.582Zm-21.252 9.196a9.2 9.2 0 0 0-3.04 2.281q-1.457 1.3-2.936 2.559a218 218 0 0 1-6.005 4.96c-1.985 1.575-4.021 3.082-6.044 4.6-2.052 1.542-4.282 2.907-5.821 4.973-.465.623.3 1.378.942 1.223 2.472-.584 4.56-2.194 6.641-3.611 2.2-1.5 4.33-3.111 6.438-4.74a162 162 0 0 0 6.063-4.892q1.486-1.263 2.94-2.556a8.76 8.76 0 0 0 2.656-2.972c.442-1.062-.839-2.146-1.833-1.833Z"/><path fill="#ba8b54" d="m85.387 99.492-1.536 1.094a1.683 1.683 0 0 0-2.281-.762c-.3.19-.607.378-.91.568a1.616 1.616 0 0 0-2.375-1.536c-.829.549-1.665 1.094-2.5 1.639a1.48 1.48 0 0 0-2.349-.436c-.319.258-.652.494-.981.736a1.657 1.657 0 0 0-2.149-.958c-.839.371-1.681.732-2.527 1.1.226-1.081-1.242-2.02-2.259-1.494-.316.165-.636.316-.952.478a1.35 1.35 0 0 0-2.026-1.226c-.284.145-.578.274-.868.41a1.382 1.382 0 0 0-1.872-.965l-.907.323a1.24 1.24 0 0 0-.923-1.065 4.4 4.4 0 0 0-1.023-.132 1.5 1.5 0 0 0-.8.081 3.82 3.82 0 0 0-2.13 1.342 1.74 1.74 0 0 0-.268 1.807q-.088.133-.171.268a1.657 1.657 0 0 0 1.852 2.41q.396-.141.791-.287a1.62 1.62 0 0 0 1.894 1.426 1.563 1.563 0 0 0 2.349 1.2q.609-.335 1.217-.665a1.588 1.588 0 0 0 2.346 1.249 75 75 0 0 0 2.43-1.175c-.21 1.184 1.326 2.117 2.446 1.584.248-.116.484-.252.726-.374a1.424 1.424 0 0 0 2.243.862c.662-.432 1.313-.881 1.972-1.323a1.694 1.694 0 0 0 2.459 1.252c.284-.177.561-.358.845-.536a1.61 1.61 0 0 0 2.362 1.123l3-2.169a1.02 1.02 0 0 0 1.649.294 39 39 0 0 1 3.088-3.73c1.271-1.152-.426-3.433-1.862-2.414Z"/><path fill="#75757c" d="M103.066 70.931c-.642-6.547-18.319-9.061-13.366-2.727 3.166-.165 6.612-.355 8.735 2.52.716 2.743 4.953 3.953 4.631.21ZM56.08 66.939c-3.166-2.265-10.952-3.14-11.272 1.755 1.972 2.207 6-.713 8.584 1.388 1.268 1.707 5.705-.82 2.688-3.146Z"/><g fill="#eac485"><path d="M118.81 47.313q-9.492 8.819-19.581 16.97a6.8 6.8 0 0 1 3.7 2.281q9.1-8.456 17.964-17.164c1.367-1.335-.691-3.378-2.083-2.087"/><path d="M128.195 85.548a12 12 0 0 0-3.8 2.117 207 207 0 0 0-4.008 2.83q-1.9 1.365-3.766 2.765c1.326-1.02 2.659-2.039 3.976-3.072 1.53-1.2-.468-3.785-2.085-2.7q-.707.474-1.417.942c1.562-1.546 3.127-3.088 4.676-4.65a44.3 44.3 0 0 0 5.683-6.189.817.817 0 0 0-1.11-1.11c-.052.032-.1.071-.155.106a.95.95 0 0 0-1.268-.745 2 2 0 0 0-.126.055q.207-.237.41-.474a1.373 1.373 0 0 0 .013-1.9c.194-.21.4-.416.587-.629a1.137 1.137 0 0 0-1.607-1.607c-2.278 1.788-4.353 3.866-6.486 5.828l-3.846 3.537c-1.559.691-3.117 1.378-4.669 2.075 1.22-.929 2.443-1.852 3.663-2.785a1.78 1.78 0 0 0 .616-2.356 1.734 1.734 0 0 0-2.356-.616q-2.072 1.505-4.15 3.007 1.559-1.8 3.195-3.55a162 162 0 0 1 13.153-12.5c1.3-1.107-.436-3.4-1.843-2.388l-12.343 8.877a418 418 0 0 0 5.76-5.473c3.195-3.1 6.244-6.363 9.494-9.4a1.5 1.5 0 0 0-1.81-2.346c-6.693 4.195-13.095 8.942-19.549 13.508a5.54 5.54 0 0 1 .975 2.327 3.1 3.1 0 0 1 0 1.065q2.88-2.018 5.786-4.017-3.137 3.035-6.328 6.012-1.8 1.665-3.614 3.3c-6.383 4.747-12.72 9.568-18.906 14.569q-.82.623-1.639 1.242a.7.7 0 0 0-.413.152 59 59 0 0 1-2.2 1.581q5.126-4.821 10.252-9.645a1.46 1.46 0 0 0 .39-1.5l12.988-9.11a2.37 2.37 0 0 1-2-2.081c-.077-.432.029-.371-.691-.607a9.3 9.3 0 0 0-2.356-.378c-1.739-.1-3.475.026-5.218.042-3.8.036-3.795-5.867 0-5.9a47 47 0 0 1 7.586.207q3.2-2.759 6.393-5.534c5.631-4.918 11.165-9.939 16.68-14.986a1.307 1.307 0 0 0-.323-2.094c.11-.1.226-.187.332-.287a.891.891 0 0 0-.862-1.478c-3.876.991-7.415 3.408-10.849 5.4s-6.777 4.079-10.094 6.231a269 269 0 0 0-5.8 3.892q1.3-1.152 2.6-2.3c6.825-4.64 13.663-9.268 20.246-14.244 1.213-.916.155-2.93-1.229-2.1-6.15 3.685-12.123 7.657-18.084 11.649a1.5 1.5 0 0 0-.365.042c1.136-1.046 2.278-2.085 3.391-3.156q2.469-2.372 4.84-4.844c1.578-1.646 3.24-3.23 4.779-4.9a1.52 1.52 0 0 0 .381-1.217q.716-.566 1.433-1.136c1.439-1.142-.41-3.43-1.939-2.514-7.551 4.527-14.973 9.277-22.127 14.418-1.326.952-2.627 1.939-3.93 2.924.842-.745 1.694-1.481 2.533-2.23 5.215-4.653 10.358-9.374 15.341-14.273 1.284-1.262-.429-3.653-1.975-2.559q-10.954 7.73-21.682 15.721l7.735-7.2q6.539-6.101 13.021-12.256c1.339-1.268-.413-3.617-1.994-2.585q-8.543 5.566-16.861 11.449c3.488-2.94 6.97-5.886 10.481-8.8 1.488-1.236-.478-3.808-2.081-2.7q-12.527 8.674-24.57 18.016 5.194-4.477 10.449-8.88c4.9-4.1 9.716-8.309 14.544-12.488.855-.739-.307-2.288-1.226-1.588-18 13.743-35.56 28.132-51.65 44.1-4.537 4.5-8.948 9.132-13.182 13.921a1.669 1.669 0 0 0 2.359 2.359q4.589-4.308 9.284-8.5c-.239.232-.484.458-.726.691-4.86 4.711-9.716 9.481-14.215 14.54-1.481 1.665.907 4.1 2.462 2.462q3.427-3.49 6.87-6.954c6.867-6.709 14.073-13.082 21.4-19.261q14.589-12.3 30.178-23.343c.2-.142.4-.278.6-.419q-13.262 12.31-26.483 24.668c-1.068.887-2.12 1.794-3.178 2.691.11 0 .229.006.336.013a10.76 10.76 0 0 1 4.773 1.062q3.229-2.691 6.483-5.341 6.873-5.581 13.918-10.946a517 517 0 0 1-5.131 4.389c-4.9 4.121-9.874 8.145-14.892 12.123a5.2 5.2 0 0 1 1.223 1.142 2.5 2.5 0 0 1 .216 2.44q4.589-3.635 9.1-7.37c-.136.555.491 1.226 1.052.82q5.305-3.858 10.662-7.651-3.737 2.928-7.49 5.837a1.7 1.7 0 1 0 2.075 2.688q5.644-4.381 11.323-8.722-3.35 2.744-6.747 5.428c-2.288 1.8-4.569 3.637-6.9 5.4q-1.922 1.321-3.775 2.72c-.1.068-.194.139-.29.2-.052.035-.094.077-.142.116s-.126.09-.187.139l.013.013a1.674 1.674 0 0 0 .242 2.452L50.994 83.299q8.04-8.233 16.025-16.522c1.384-1.442-.642-3.3-2.133-2.133-11.51 9.01-23.15 17.861-34.77 26.728q1.922-2.231 3.9-4.411.459-.34.916-.671 3.751-2.72 7.464-5.492 4.468-3.34 8.874-6.757c.536-.3 1.058-.613 1.6-.9a.57.57 0 0 0 .319-.594l1.743-1.359a3 3 0 0 1-1.943-.632 1 1 0 0 1-.1-.036 6 6 0 0 1-.739-.174c-.09-.019-.139-.029-.171-.039s-.1-.006-.184-.016q-.455-.044-.91-.068c-.6-.029-1.2-.01-1.8.013a3.16 3.16 0 0 1-3.185.11 2.8 2.8 0 0 1-1.055-1.1q-7.488 6.6-14.631 13.588c-3.078 3.027-6.141 6.067-9.142 9.171-1.4 1.449.678 3.433 2.178 2.178.7-.587 1.407-1.165 2.11-1.749a218 218 0 0 0-5.4 6.828c-.874 1.155.871 2.914 2.03 2.03 9.3-7.135 18.568-14.315 27.871-21.449q-9.1 9.269-18.187 18.561a1.557 1.557 0 0 0 1.1 2.682 43 43 0 0 0-6.631 5.757 1.008 1.008 0 0 0 1.217 1.575 37 37 0 0 0 6.318-4.3 1.7 1.7 0 0 0 .387.642 1.77 1.77 0 0 0 2.449 0q3.388-2.691 6.783-5.373 1.3-.794 2.569-1.633c.8-.529 1.588-1.068 2.381-1.607a210 210 0 0 0-14.217 16.486q-.013.01-.026.023l-.274.345c-1.258 1.633 1.329 3.311 2.714 2.094l13.04-11.428a73.6 73.6 0 0 0-7.754 9.168c-.916 1.294.936 3.2 2.23 2.23q7.183-5.382 14.411-10.713a19 19 0 0 1-2.588-2.007l-1.975 1.462c.574-.568 1.168-1.117 1.755-1.675a20 20 0 0 1-.71-.707c-2.611-2.759 1.559-6.938 4.172-4.172.3.319.616.61.936.891 6.176-5.324 12.817-10.152 19.429-15.018.813-.6.081-1.956-.813-1.388-6.309 4-12.724 8.177-18.732 12.84q12.972-11.37 25.941-22.746a.74.74 0 0 0 .245.51c-1.713 1.933-3.43 3.863-5.128 5.808-1.033 1.181.045 3.253 1.439 2.953-.4.323-.8.649-1.188.991a1.45 1.45 0 0 0-.355 1.713Q70.731 91.261 60.67 98.728q.474.364.968.684a2.914 2.914 0 0 1 3.9-1.058c2.6 1.368 6.967.445 9.816.313q.405-.02.81-.052 4.037-3.466 8.164-6.825a1.17 1.17 0 0 0 .739-.219c7.128-4.953 14.173-10.032 21.185-15.15-2.969 3.295-5.857 6.706-8.542 10.242l-9.039 6.554a964 964 0 0 0-6.534 4.773c2.036-.265 4.072-.539 6.125-.71a2.4 2.4 0 0 1 1.365.294l8.613-6.544q.243-.183.487-.371l.694-.326q-4.719 3.727-9.4 7.509c1.475 1.217 1.733 4.034-.268 4.937a61 61 0 0 1-10.22 3.6q-8.117 6.651-16.215 13.317a1.34 1.34 0 0 0-.494 1.275c-.316.126-.629.252-.949.371-1.949.716-1.191 3.763.871 3.166a93 93 0 0 0 10.865-3.93 1.3 1.3 0 0 0 .478-.2 124 124 0 0 0 12.375-6.28q-4.627 4.1-9.19 8.267a1.594 1.594 0 0 0 1.923 2.494q2.662-1.747 5.357-3.44c-.513.478-1.036.945-1.542 1.426-1.368 1.3.436 3.763 2.056 2.665q5.566-3.771 11.036-7.69a.98.98 0 0 0 1.417.21c4.356-3.1 8.784-6.015 12.943-9.4s8.212-6.893 12.156-10.526c1.439-1.326-.632-3.22-2.091-2.091-.52.4-1.046.8-1.568 1.2a1.535 1.535 0 0 0-1.836-.11 178 178 0 0 0-4.176 2.549c.523-.39 1.052-.774 1.575-1.168a295 295 0 0 0 7.332-5.683c1.275-1.026 2.549-2.049 3.8-3.1a12.6 12.6 0 0 0 3.224-3.243.628.628 0 0 0-.7-.91Zm-6.909-5.6c.607-.3 1.213-.587 1.82-.887-.991.923-1.943 1.891-2.911 2.811-1.091 1.036-2.168 2.085-3.253 3.127q2.178-2.522 4.347-5.053ZM79.243 67.333a1.8 1.8 0 0 0 .529.429c-1.691 1.178-3.382 2.356-5.06 3.55q2.265-1.987 4.531-3.979m-23.1 25.828q6.588-6.322 13.734-12.085a1.57 1.57 0 0 0 .136-2.246q6.578-4.86 13.3-9.523Q69.707 81.214 56.142 93.16Zm41.243 16.46c-.816.516-1.63 1.039-2.443 1.559 1-.884 1.991-1.775 2.988-2.662a.625.625 0 0 0 .042.729c-.2.126-.394.248-.591.374Zm8.726-22.069a.9.9 0 0 0 .31-.507l1.062-.5c-.6.558-1.2 1.113-1.8 1.675l-2.043 1.5c.82-.726 1.652-1.436 2.469-2.165Zm-3.688 16.971q2.183-1.946 4.366-3.888.934-.678 1.862-1.362c1.258-.926 2.5-1.872 3.753-2.811-3.391 2.61-6.731 5.282-9.981 8.061"/><path d="M77.423 106.869a34.8 34.8 0 0 1-8.584.694c-.61.423-1.213.855-1.83 1.271a44 44 0 0 1-5.253 3.095 223 223 0 0 1 4.731-4.6 20.5 20.5 0 0 1-7.274-2.454 456 456 0 0 0-7.09 6.738 1.473 1.473 0 0 0 .132 2.352q-2.12 2.168-4.2 4.372a1.7 1.7 0 0 0 0 2.339c3.095 3.688 8.29 2.046 11.6-.329 4.327-3.1 8.5-6.444 12.743-9.665l5.018-3.814Zm-21.388 11.646a5.43 5.43 0 0 1-4.3.726c.726-.791 1.449-1.584 2.191-2.359a1.87 1.87 0 0 0 1.962.8 24 24 0 0 0 2.327-.594 24 24 0 0 1-2.18 1.427M43.151 50.669Q55.368 39.086 68.3 28.281c4.918-4.111 9.884-8.174 14.931-12.13 1.626-1.275-.452-3.75-2.156-2.791q-2.309 1.3-4.585 2.649c.471-.4.949-.781 1.413-1.191.71-.626-.2-1.733-.991-1.284a137 137 0 0 0-13.772 9.235q-5.358 3.959-10.652 8.006 1.491-1.5 2.985-2.995c3.149-3.149 6.315-6.286 9.445-9.452 1.52-1.536-.713-3.624-2.323-2.323q-7.227 5.843-14.444 11.689 3.224-2.744 6.454-5.479c1.368-1.162-.4-3.411-1.907-2.475-5.576 3.482-10.968 7.29-16.228 11.23s-10.175 8.16-15.028 12.565c-.833.755.368 1.878 1.21 1.21 4.189-3.324 8.509-6.5 12.853-9.632q-1.307 1.2-2.614 2.388C26.44 43.377 19.941 49.26 13.759 55.42c-1.381 1.375.649 3.282 2.1 2.1 8.707-7.122 17.519-14.115 26.335-21.108q-5.915 5.953-11.833 11.892-2.89 2.435-5.725 4.94c-4.631 4.114-9.035 8.535-13.8 12.491-.532.442.145 1.181.7.907a79 79 0 0 0 8.141-4.7 26 26 0 0 0-2.895 3.3c-.936 1.391 1.249 3.114 2.343 1.807.045-.035.087-.081.132-.119a.713.713 0 0 0 1.071.148 41.3 41.3 0 0 0 5.4-5.805 1.26 1.26 0 0 0 .094-1.517c1.888-2.107 3.795-4.2 5.605-6.376a1.34 1.34 0 0 0 .313-.749q6.35-5.429 12.871-10.645 7.716-6.174 15.812-11.85Q44.595 43.67 29.864 58.424c-4.531 4.54-9.035 9.122-13.282 13.927-1.491 1.688.891 4.13 2.494 2.494 7.958-8.133 15.809-16.341 24.075-24.169Z"/></g><g fill="#262c54"><path d="M72.86 125.801c3.675-.768 7.338-1.613 11.036-2.249.868-.148 2.314.11 2.7.7.884 1.359-.187 2.582-1.423 2.888-3.643.907-7.351 2.156-11.042 2.181-25.873.181-49.433-13.572-58.978-41.308-5.912-17.174-3.524-33.279 5.541-48.736 3.556-6.065 9.109-10.125 14.104-14.765a2.3 2.3 0 0 1 1.391-.745 4.14 4.14 0 0 1 2.32.745 2 2 0 0 1-.177 1.914c-2.02 2.046-4.289 3.85-6.263 5.938-2.7 2.859-5.7 5.605-7.738 8.909-9.061 14.66-10.9 30.172-4.976 46.558 9.081 25.1 30.669 37.235 53.5 37.965Zm56.81-52.976c-.084 20.171-8.993 35.541-25.528 46.726a20.5 20.5 0 0 1-4.314 2.165 2 2 0 0 1-1.826-.645 2.85 2.85 0 0 1 .3-2.333 12.6 12.6 0 0 1 2.6-1.881c2.333-1.688 4.782-3.24 6.957-5.111 15.021-12.927 19.771-29.542 17.048-48.659a57.67 57.67 0 0 0-13.479-29.595c-1.978-2.336-4.047-4.608-5.844-7.073-.442-.607.016-1.865.061-2.827a24 24 0 0 1 2.481.226c.3.058.565.426.813.684 13.092 13.456 20.843 29.2 20.726 48.326Z"/><path d="M70.656 144.401a73.75 73.75 0 0 1-30.675-8.513 25 25 0 0 1-4.8-3.437c-.413-.371-.307-1.672 0-2.356.168-.378 1.291-.607 1.878-.461a9.5 9.5 0 0 1 2.362 1.252c21.046 12.333 50.227 14.773 74-5.312a28 28 0 0 1 4.253-3.291c.71-.394 1.907.094 2.885.184a13.3 13.3 0 0 1-.39 2.449c-.158.458-.694.807-1.1 1.162-12.988 11.446-27.755 18.5-48.42 18.329ZM70.765 3.83 58.406 4.895a14.8 14.8 0 0 1-3.753.213c-.865-.155-1.6-1.039-2.394-1.6a9.7 9.7 0 0 1 1.646-1.881 4.8 4.8 0 0 1 2.062-.552C71.362-.991 86.529-.329 101.199 5.237c10.52 3.992 19.465 10.158 25.525 19.878a59 59 0 0 1 4.011 8.219c.542 1.278.962 3.027-.878 3.679-1.549.549-2.114-.9-2.653-2.052q-.23-.489-.436-.987c-4.5-11.391-12.992-18.8-23.9-23.7C92.673 5.7 81.882 4.027 70.756 3.83Zm.966 106.698c-5.053-.207-9.345-.665-13.24-2.8a9.6 9.6 0 0 1-2.991-2.236c-.532-.678-.426-1.859-.6-2.814.981-.042 2.243-.5 2.9-.058 6.451 4.369 13.466 4.853 20.688 2.888 2.7-.732 5.14-2.423 7.67-3.73.229-.119.255-.629.374-.958a2.8 2.8 0 0 0-.955-.3c-3.937.329-7.861.855-11.8 1.01a43.8 43.8 0 0 1-15.967-2.107 18.3 18.3 0 0 1-4.414-1.943c-.665-.452-.771-1.72-1.133-2.617.949-.239 2.094-.942 2.811-.636a42 42 0 0 0 15.218 3.3c7.764.258 15.492.119 22.43-4.259a2.93 2.93 0 0 1 2.794.084 3.22 3.22 0 0 1 .2 2.888c-3.569 7.525-9.677 11.888-17.712 13.595a55 55 0 0 1-6.267.7ZM93.59 64.731a14 14 0 0 0-2.591.736 10 10 0 0 0-1.988 1.6 7.8 7.8 0 0 0 2.223.6c2.972-.106 5.792.3 8.019 2.423a2.58 2.58 0 0 1 .681 2.285c-.274.542-1.478.874-2.246.829-.842-.048-1.63-.716-2.485-.971a10.03 10.03 0 0 0-10.8 2.872c-.49.513-.784 1.229-1.3 1.7a1.78 1.78 0 0 1-2.914-1.023 5.6 5.6 0 0 1-.184-1.591c.316-8.761 10.584-15.686 18.748-12.662 4.979 1.843 8.425 7.983 7.167 13.088-.206.839-1.288 1.462-1.965 2.185-.674-.7-1.617-1.3-1.949-2.139-.378-.955-.148-2.133-.284-3.2-.539-4.282-3.414-6.809-8.132-6.728ZM62.601 73.87c-.281.436-.823 1.281-1.365 2.127-.81-.52-1.626-1.029-2.42-1.575-.116-.081-.148-.326-.168-.5-.232-2.117-1.233-1.384-2.478-.839a3.73 3.73 0 0 1-2.588-.132c-3.943-1.568-7.386-.436-10.675 1.762a21 21 0 0 1-1.752 1.252c-2.072 1.1-3.524.21-3.559-2.13-.081-5.483 5.453-11.378 11.226-11.959 6.954-.7 13.792 4.963 13.776 11.994Zm-12.182-8.471c-1.71.6-3.043 1-4.311 1.555-.416.184-.658.765-.978 1.168.416.174.9.587 1.236.49a14.66 14.66 0 0 1 8.835.581 2.5 2.5 0 0 0 .965-.094c-.1-.313-.106-.8-.316-.913-1.817-.981-3.669-1.891-5.434-2.788Zm42.942-20.361c7.425.361 12.924 2.188 17.4 6.531a8.9 8.9 0 0 1 1.923 2.517 2.03 2.03 0 0 1-.449 1.855 2.1 2.1 0 0 1-1.9.252 12.8 12.8 0 0 1-2.54-1.946c-6.515-5.654-13.869-6.083-21.694-3.475-1.013.339-1.917 1.11-2.936 1.281a2.49 2.49 0 0 1-2.159-.791 2.53 2.53 0 0 1 .471-2.336 7.86 7.86 0 0 1 3.214-1.846c3.262-.891 6.586-1.562 8.671-2.039Zm-44.37.029c3.111.82 6.244 1.555 9.313 2.511a6.1 6.1 0 0 1 2.559 1.862 2.04 2.04 0 0 1 .087 1.917 2.64 2.64 0 0 1-1.778.842 3.04 3.04 0 0 1-1.494-.529c-8.261-4.076-15.734-1.807-22.9 2.846-.749.487-1.3 1.355-2.091 1.668-.681.271-1.917.3-2.291-.11a2.62 2.62 0 0 1-.236-2.378 6.4 6.4 0 0 1 2.146-2.336 35.1 35.1 0 0 1 16.68-6.289Z"/><path d="M65.952 15.993c-6.012-.342-11.759 1.542-17.277 4.382-1.552.8-3.588 2.375-4.747.326-1.213-2.146 1.313-2.933 2.785-3.775 7.6-4.35 15.863-5.518 24.46-4.96 1.4.09 3.2.119 3.159 2.075s-1.788 1.917-3.233 1.946c-1.617.035-3.237.006-5.144.006ZM.003 51.854c.132-.755.281-1.82.516-2.866 1.61-7.157 5.157-13.346 9.636-19.052a6 6 0 0 1 1.972-1.755 2.13 2.13 0 0 1 1.917.236 2.1 2.1 0 0 1 .471 1.868 12 12 0 0 1-1.7 2.714c-4.326 5.834-7.859 12.024-8.788 19.387-.045.355-.013.829-.223 1.033-.694.668-1.484 1.239-2.236 1.846-.5-.674-1.046-1.323-1.475-2.039-.161-.271-.058-.7-.087-1.375Zm141.154 12.139a13 13 0 0 1-.6 1.836 1.637 1.637 0 0 1-2.685.219 4.7 4.7 0 0 1-.6-1.465 1630 1630 0 0 1-3.524-15.683c-.329-1.513-1.142-3.227.845-4.263 1.271-.662 2.133.361 2.991 3.472.9 3.275 1.888 6.531 2.675 9.836.455 1.907.591 3.888.9 6.044ZM11.846 104.516c.371.8.8 1.572 1.1 2.394a32.9 32.9 0 0 0 8.122 11.9 8 8 0 0 1 .7.82c.7.926 1.207 2.11.029 2.759a3.1 3.1 0 0 1-2.836-.252 31.7 31.7 0 0 1-9.335-12.946 5.95 5.95 0 0 1-.187-2.607 8 8 0 0 1 .771-1.991q.818-.04 1.636-.074Zm71.372-91.941c4.866.126 8.567 1.926 12.117 4.034.539.319.984 1.991.768 2.165a3.6 3.6 0 0 1-2.611.958c-1.707-.442-3.253-1.475-4.937-2.052s-3.462-.871-5.186-1.329c-1.252-.332-2.659-.839-2.081-2.43.265-.729 1.536-1.094 1.933-1.349Zm59.245 64.948a32 32 0 0 1-1.707 5.06c-.358.691-1.636.9-2.494 1.329-.336-.752-1.023-1.549-.936-2.246a35.3 35.3 0 0 1 1.362-6.276 2.73 2.73 0 0 1 1.968-1.294c.429-.065 1.171.729 1.462 1.3a7 7 0 0 1 .345 2.127"/></g></svg>