<svg xmlns="http://www.w3.org/2000/svg" width="136.843" height="141.111" viewBox="0 0 136.843 141.111"><path fill="#75757c" d="M93.659 70.968c-.032-.013-.058-.029-.09-.042-.081-.032-.161-.061-.245-.1l.332.142Zm4.649-4.531a3.43 3.43 0 0 0-1.365-1.739 3.6 3.6 0 0 0-2.691-.41c-.065 0-.129-.01-.194-.01a1.96 1.96 0 0 0-.987.226 3 3 0 0 0-.339.219 3.7 3.7 0 0 0-.994 1.068 3.4 3.4 0 0 0-.439 1.113 3.44 3.44 0 0 0 .413 2.507 3.6 3.6 0 0 0 .713.833 4.4 4.4 0 0 0 1.146.678 3.7 3.7 0 0 0 1.391.3 3.8 3.8 0 0 0 1.684-.429 3.59 3.59 0 0 0 1.846-2.933 3.16 3.16 0 0 0-.184-1.426Zm-49.983-.926c-.065-.042-.136-.065-.2-.1a2 2 0 0 0 .016-.174.4.4 0 0 0-.01-.061q.025-.124.042-.258l-.029.039a1.365 1.365 0 0 0-1.02-1.42c-1.51-.374-2.753 1.207-3.459 2.34a7.6 7.6 0 0 0-1.11 3.369 2.97 2.97 0 0 0 2.039 3.282 5 5 0 0 0 .481.068l-.142-.019q-.422-.058.274.035a2 2 0 0 0 .268.006 3 3 0 0 0 .9-.165 3.6 3.6 0 0 0 1.575-1.01 3.5 3.5 0 0 0 .591-1.023 3.013 3.013 0 0 0-.21-4.915Z"/><path fill="#ba8b54" d="m88.489 103.812-.3.2c.207-.261.4-.532.629-.771.691-.739-.09-2.068-.971-1.781a1.163 1.163 0 0 0-1.9-1.233l-.468.394c.726-1-.787-1.881-1.61-1.226-.7.558-1.407 1.1-2.127 1.636a66 66 0 0 1 1.63-2.091 1.126 1.126 0 0 0-1.591-1.591q-1.491 1.22-2.978 2.443c.526-.668 1.046-1.342 1.575-2.007.794-.991-.5-2.385-1.43-1.43-.116.116-.232.229-.345.348.11-.126.213-.255.326-.381a1.21 1.21 0 0 0-1.71-1.71c-.629.594-1.271 1.178-1.9 1.772.3-.394.587-.791.887-1.184.639-.839-.439-2.062-1.342-1.781a1.1 1.1 0 0 0-1.549-.213c-1.194 1.036-2.43 2.01-3.659 2.988a1.129 1.129 0 0 0-1.865-1.107c-.061.052-.119.11-.177.161a1.11 1.11 0 0 0-1.678-.181 144 144 0 0 0-5.4 4.885c.465-.7.936-1.4 1.4-2.11.691-1.049-.926-2.33-1.755-1.355l-4.424 5.192a.685.685 0 0 0-1.075.094c-1.4 2.014-2.888 3.988-4.169 6.079a1.1 1.1 0 0 0 1.41 1.526 1.141 1.141 0 0 0 1.907.642c.116-.129.239-.255.355-.384a1 1 0 0 0 1.71.4q1.457-1.655 2.966-3.259c-.245.371-.5.733-.739 1.107-.878 1.368 1.217 2.507 2.139 1.252a91 91 0 0 1 1.649-2.165 1.15 1.15 0 0 0 1.956.371q.432-.487.868-.975c-.461 1.107 1.213 2.152 2.149 1.271q1.263-1.191 2.523-2.385a1.38 1.38 0 0 0 1.075 1.146q-.311.363-.616.726a1.283 1.283 0 0 0 1.814 1.814l2.459-2.1c-.278 1.081 1.336 1.9 2.269 1.136q.615-.5 1.223-1.013-.15.185-.3.365a1.279 1.279 0 0 0 1.807 1.807c.2-.158.4-.329.6-.49a1.29 1.29 0 0 0 2.146.545l1.442-1.236a1.25 1.25 0 0 0 1.878 1.042c.074-.045.145-.1.216-.142a1.27 1.27 0 0 0 2.475.478 9.3 9.3 0 0 1 2.052-3.666c.855-.945-.274-2.669-1.436-1.862Z"/><g fill="#eac485"><path d="M40.075 108.542q4.419-4.066 8.835-8.138a1.5 1.5 0 0 0-.035.413q-4.188 5.038-8.388 10.08a1.523 1.523 0 0 0 2.152 2.152q3.456-2.948 6.915-5.892a7.9 7.9 0 0 1 .177-2.659 2.53 2.53 0 0 1 2.656-2.1c3.35-4.547 10.291-7.515 16.112-8.432l13.563-14.9c-3.182-3.843-4.886-8.861-3.869-13.695L63.511 82.783l-8.1 7.444q3.233-3.863 6.47-7.725a1.6 1.6 0 0 0 .394-1.168q8.04-8.229 16.044-16.489c1.739-6.583 11.714-15.518 18.961-12.995q1.418-1.733 2.833-3.469 5.363-6.564 10.733-13.127c1.078-1.31-.726-3.195-1.894-1.894l-5.947 6.609c1.133-1.346 2.256-2.7 3.391-4.043 1.1-1.3-.668-3.143-1.894-1.894q-12.183 12.4-24.366 24.789 7.6-9.134 15.205-18.264l11-13.2c1.091-1.31-.684-3.175-1.9-1.9l-4.886 5.092-.1-.084a1.3 1.3 0 0 0-1.562.2c-2.817 2.7-5.405 5.689-8.032 8.577-2.582 2.843-5.173 5.683-7.722 8.558q-4.134 4.656-8.19 9.374c-1.326 1.375-2.646 2.756-3.976 4.127q8.117-9.8 16.235-19.591l11.723-14.131a1.373 1.373 0 0 0-1.944-1.94 160 160 0 0 0-3.95 3.414 360 360 0 0 0 4.224-5.166 1.094 1.094 0 0 0-1.546-1.546c-.6.532-1.2 1.075-1.8 1.613a.89.89 0 0 0-1.491-.194q-4.124 4.627-8.287 9.213-2.72 2.59-5.4 5.228 2.827-3.432 5.657-6.86c2.94-3.575 5.831-7.193 8.771-10.768.987-1.2-.62-2.9-1.743-1.743q-.949.983-1.894 1.965c.077-1.123-1.3-2.152-2.133-1.081q-5.315 6.868-10.9 13.5-1.471 1.51-2.92 3.04c4.192-5.192 8.329-10.433 12.178-15.873a.74.74 0 0 0 .132-.568c.458-.487.913-.981 1.371-1.468a1.144 1.144 0 0 0-1.617-1.617c-.339.29-.671.591-1.01.881-.084-.336-.452-.613-.778-.361a54 54 0 0 0-7.454 7.561q-4.894 4.356-9.69 8.813 2.672-3.02 5.347-6.034c3.13-3.514 6.228-7.044 9.264-10.639.9-1.065-.623-2.614-1.542-1.542C73.807 20.628 68.937 25.949 64.1 31.3q4.351-5.629 8.709-11.252a1.3 1.3 0 0 0-1.83-1.83c-.184.152-.361.31-.545.461a1.24 1.24 0 0 0-1.187.361q-2.938 2.841-5.86 5.7-3.214 2.856-6.341 5.808 5.668-6.622 11.336-13.25c.636-.742-.423-1.826-1.084-1.084l-2.466 2.755c.807-1.171-.678-2.72-1.762-1.617-1.446 1.471-2.84 3.007-4.282 4.489q.987-1.118 1.978-2.236a1.167 1.167 0 0 0-1.649-1.649q-8.8 7.735-17.18 15.928 1.839-2.9 3.688-5.789.19-.193.374-.387c3.738-3.859 7.888-7.39 11.408-11.446.432-.5-.116-1.326-.733-.949a58.4 58.4 0 0 0-10.132 8.371.9.9 0 0 0-.823.307q-5.8 6.554-11.588 13.111c2.165-3.224 4.237-6.515 6.144-9.894a1.238 1.238 0 0 0-1.936-1.499 159 159 0 0 0-21.152 25c-.523.791.72 1.781 1.333 1.029 4.608-5.654 9.248-11.249 14.156-16.612a195 195 0 0 1-5.46 8.329 179 179 0 0 1-13.059 16.196c-.913 1.023.591 2.54 1.51 1.513q10.746-12.207 21.556-24.355l.416-.432-3.433 5.252q-5.209 5.348-10.246 10.862-4.739 5.208-9.313 10.568c-.939 1.1.591 2.685 1.607 1.607 1.294-1.371 2.594-2.733 3.892-4.1a170 170 0 0 0-9.09 15.7c-.616 1.21 1.039 2.73 2 1.546l33.657-41.403 5.657-5.628q2.987-2.962 5.97-5.925c1.255-1.249 2.594-2.42 3.934-3.588a1 1 0 0 0 .526-.032q-6.273 7-12.533 14.024-8.748 9.489-17.113 19.325a16.8 16.8 0 0 1 11.258-3.556 3 3 0 0 1 .345.042q3.955-4.506 7.9-9.019-3.548 4.618-7.083 9.239a2.8 2.8 0 0 1 .816.568 17.4 17.4 0 0 1 13.843 7.8l1.607-1.72q-.773.912-1.542 1.823a15 15 0 0 1 .9 1.613 18 18 0 0 1 .971 2.549q3.243-3.727 6.489-7.451 5.692-6.539 11.355-13.114 2.454-2.348 4.966-4.634L62.541 65.401a16.06 16.06 0 0 1-.281 7.59q3.175-3.35 6.376-6.673 5.562-5.75 11.126-11.494-7.27 8.65-14.534 17.3l-9.965 11.859a1.394 1.394 0 0 0-.307-1.868 16.1 16.1 0 0 1-5.624 1.778c-9.129 1.171-18.739-3.169-21.13-12.23-1.639 1.981-3.285 3.959-4.9 5.957-2.265 2.8-4.9 5.634-6.531 8.858-.326.645.558 1.462 1.068.826a.03.03 0 0 1 .013-.013c2.8-2.152 5.066-5.089 7.37-7.748.336-.387.665-.784 1-1.171-.042.152-.09.3-.119.452a.506.506 0 0 0 .594.613q-2.812 3.775-5.621 7.551c-1.133 1.546 1.436 3.007 2.562 1.5 1.6-2.194 3.272-4.331 5-6.415-.3.452-.607.9-.91 1.352-.029.035-.065.071-.094.106-1.081 1.294-2.146 2.6-3.153 3.956-1.078 1.446-1.923 2.982-2.872 4.508a.47.47 0 0 0 0 .52l-2.8 4.156c-.971 1.439 1.229 3.13 2.4 1.855Q28 91.159 34.772 83.769q-3.974 5.412-8.306 10.549c-1.2 1.494.868 3.643 2.143 2.143a80 80 0 0 1 7.448-8.038l-11.02 14.46c-1.029 1.349 1.188 3 2.33 1.8.781-.823 1.568-1.642 2.349-2.465a1.576 1.576 0 0 0 2.249.177l9.232-7.248q-6.11 7.317-11.716 15.054c-1.062 1.465 1.223 3.108 2.452 1.894q3.277-3.238 6.554-6.473l-.623.742a1.557 1.557 0 0 0 2.2 2.2Zm38.768-31.54-5.676 6.751q-2.372 2.822-4.73 5.656a1.7 1.7 0 0 0-.671-.6q5.542-5.9 11.078-11.807ZM60.55 91.546q3.766-4.211 7.528-8.425-3.771 4.593-7.545 9.184a1.49 1.49 0 0 0-.21 1.613q-3.025 2.585-6.054 5.169 3.141-3.771 6.276-7.541Zm-5.7-7.077-.665.791a1.6 1.6 0 0 0-.374.836l-4.8 4.734q2.866-3.224 5.837-6.36Zm69.186-20.104-3.4 3.937q.767-1.202 1.51-2.423c.816-1.346-1.152-2.378-2.052-1.2q-.04.055-.077.1 2.2-3.267 4.353-6.567a1.263 1.263 0 0 0-.639-1.881 1.342 1.342 0 0 0-2.259-.629q-2.328 2.265-4.66 4.527c.407-.629.823-1.252 1.223-1.885a34.4 34.4 0 0 0 3.426-5.953c.319-.842-.913-1.5-1.491-.868a36 36 0 0 0-3.295 4.792q-1.694 2.609-3.443 5.182c-.649.955-1.31 1.9-1.972 2.846a14 14 0 0 1 1.391 5.65q.343-.397.687-.787c-.226.323-.458.639-.684.958.068 6.215-4.45 11.481-10.433 14q-6.355 8.146-13.082 16.009a8.26 8.26 0 0 1 1.61 4.431c.229 3.537-2.294 6.086-5.641 6.609-.223.036-.455.048-.684.077-.1.084-.207.158-.3.242l.207-.229a36 36 0 0 1-5.75.132c-.6.445-1.213.878-1.814 1.326q.684-.679 1.375-1.342c-2.63-.126-5.279-.361-7.754-.329-.4 0-.865.029-1.365.068q-3.664 3.829-7.335 7.648a1.475 1.475 0 0 0-.052 1.943c-.342.39-.694.774-1.033 1.171a1.47 1.47 0 0 0 1.439 2.427c0 .006-.01.01-.013.016a1.418 1.418 0 0 0 2 2c.762-.626 1.539-1.226 2.3-1.843a1.27 1.27 0 0 0 .845.026c.7-.213 1.391-.458 2.081-.7l-.407.452a1.425 1.425 0 0 0 2.014 2.014 81 81 0 0 1 5.931-4.718c-.313.745-.6 1.5-.855 2.278a1.2 1.2 0 0 0-.052.387l-1.271 1.142c-1.2 1.081.39 3.2 1.749 2.269q2.251-1.554 4.36-3.282l.058.032a1.305 1.305 0 0 0 1.972.916 137 137 0 0 0 3.24-2.411 33 33 0 0 0 8.248-5.36 1.7 1.7 0 0 0 .436.236 1.447 1.447 0 0 0 2.343.923q2.362-1.951 4.647-3.988a1.338 1.338 0 0 0 2.175.365c4.6-5.821 9.4-11.384 14.489-16.783a1.324 1.324 0 0 0-.742-2.2 80 80 0 0 0 7.461-11.249c.3-.561-.484-1.258-.926-.716a268 268 0 0 0-4.36 5.547c.513-.836 1.013-1.672 1.5-2.517a1.428 1.428 0 0 0-1.336-2.139 39.5 39.5 0 0 0 5.428-9.261c.216-.591-.594-.962-1-.581a32 32 0 0 0-3.575 4.056 2 2 0 0 0-.207-.087l1.039-1.439a14 14 0 0 0 1.381-2.017c.3-.632.4-1.61-.455-1.865a1.26 1.26 0 0 0-1.21.287 174 174 0 0 0 4.824-8.112c.726-1.294-1.087-2.836-2.123-1.639Zm-41.02 53.486-2.23 2c.342-.574.7-1.136 1.091-1.681.49-.3.981-.613 1.478-.907-.113.2-.226.39-.336.587Zm12.9-8.467a2 2 0 0 0-.1.1q-1.733 1.423-3.472 2.836a1.17 1.17 0 0 0-.439-1.775q6.96-7.28 14.121-14.382-5.058 6.607-10.1 13.221Zm1.078-9.3c3.433-4.066 6.857-8.138 10.329-12.172q1.723-2 3.443-4c-4.378 5.572-9.047 10.932-13.771 16.169Z"/><path d="M60.412 111.872c-5.137.2-10.129-.449-10.81-4.508q-5.334 6.355-10.413 12.924l-.006.006-.232.3c-1.084 1.41 1.136 2.811 2.323 1.794q6.239-5.339 12.472-10.681a266 266 0 0 0-4.527 5.3 1.45 1.45 0 0 0 2.049 2.049q4.574-3.592 9.142-7.183Zm.296-.01L50.64 122.036a1.425 1.425 0 0 0 2.014 2.014q7.14-6.636 14.724-12.762c-1.968.194-4.321.468-6.667.574Zm38.774-26.779a20 20 0 0 1-2.862.532 15.76 15.76 0 0 1-10.755-3.033q-2.885 3.606-5.766 7.212l-3.424 4.282c3.846.623 8.19 1.975 11.026 4.508q5.888-6.752 11.781-13.501M85.59 94.602q2.807-2.74 5.618-5.479a366 366 0 0 0-3.482 4.15c-.465.561-.913 1.136-1.375 1.7a1.27 1.27 0 0 0-.763-.371Zm-2.726-14.634c-3.311 3.695-6.667 7.351-9.987 11.039a1.44 1.44 0 0 0-.365.745c-.791.665-1.572 1.336-2.362 2a19 19 0 0 1 2.827-.077c.478.026.984.065 1.5.116.206-.2.407-.4.613-.594a1.3 1.3 0 0 0 .429-.826Q80.296 87.187 85.071 82a19.4 19.4 0 0 1-2.21-2.03Zm15.38-27.7a8.4 8.4 0 0 1 2.652 2.165 19 19 0 0 1 2.375 1.349q.265-.29.526-.581c-.158.207-.326.4-.484.61a27.7 27.7 0 0 1 4.4 3.682l1.63-2.043q5.436-6.815 10.884-13.621c1.058-1.32-.7-3.2-1.9-1.9l-8.106 8.755a262 262 0 0 0 7.17-10.426 1.208 1.208 0 0 0-1.888-1.459q-6.307 6.878-12.614 13.76 4.942-5.9 9.894-11.8c1.1-1.3-.7-3.178-1.9-1.9L98.246 52.27Zm20.4-4.679q-5.315 6.1-10.684 12.156a22.5 22.5 0 0 1 2.207 2.678q.703-.874 1.4-1.749 4.492-5.6 8.939-11.223c1.029-1.3-.729-3.166-1.865-1.865ZM22.837 76.987c1.775-1.894 3.521-3.817 5.27-5.737a17 17 0 0 1-.361-2.107 17.33 17.33 0 0 1 1.943-10.455l-.555.655c-3.546 3.947-7.093 7.893-10.539 11.92a1.34 1.34 0 0 0-.242 1.391c-.707.9-1.417 1.788-2.12 2.688-.945 1.213.652 2.946 1.739 1.739.281-.313.568-.623.849-.933a10.9 10.9 0 0 0-1.655 2.93.5.5 0 0 0 .045.423 26 26 0 0 0-1.61 2.223c-.6.952.91 1.868 1.488 1.049a57.5 57.5 0 0 0 5.744-5.783Z"/></g><g fill="#262c54"><path d="M125.537 69.215c-.468-10.229-3-19.636-8.777-28.084-.61-.891-1.21-1.791-1.746-2.724-.581-1.01-.842-2.291.407-2.743a3.45 3.45 0 0 1 2.775.755 13.4 13.4 0 0 1 2.249 3.007c6.664 9.949 9.271 21.052 8.58 32.837-1.455 24.908-14.8 41.759-36.654 52.44a56.1 56.1 0 0 1-19.622 5.612 26.8 26.8 0 0 1-6.418-.352c-.561-.087-1.187-1.236-1.323-1.981-.071-.394.774-1.2 1.352-1.4a8.6 8.6 0 0 1 2.662-.236c11.549-.181 21.978-4.1 31.22-10.61 11.146-7.851 19.542-18.122 22.988-31.646 1.233-4.84 1.562-9.91 2.307-14.873Zm-79.63 17.181c-11.252.032-18.555-5.831-20.081-15.334-1.562-9.732 4.218-19.916 13.1-22.879 1.488-.5 3.337-1 4.7-.552 4.389 1.459 8.98 2.811 12.846 5.231 5.837 3.656 8.622 9.555 8.622 16.464 0 6.464-3.011 11.336-8.751 14.408a21.74 21.74 0 0 1-10.442 2.659ZM29.692 66.425c.09 9.4 4.563 14.87 12.475 15.757a25.15 25.15 0 0 0 10.016-1.1c6.615-2.068 9.916-7.738 8.79-14.173-1.333-7.615-7.59-13.614-13.666-12.737-1.481.213-2.956.381-3.817-1.146-1.129-1.994-2.64-1.494-4.137-.723-6.322 3.249-9.581 8.429-9.661 14.118Z"/><path d="M42.745 20.344c.574.371 1.246.565 1.388.952a2.4 2.4 0 0 1 .013 1.936 11.8 11.8 0 0 1-2.449 2.033c-2.614 1.9-5.382 3.614-7.854 5.686C18.388 43.898 12.68 60.39 16.303 80.136a101 101 0 0 0 2.74 10.975c2.4 7.916 6.425 14.818 13.1 19.962 1.246.958 3.146 2.081 1.8 3.846-1.323 1.743-3.082.4-4.169-.707-3.13-3.191-6.77-6.15-8.987-9.923-8.409-14.3-11.446-29.842-8.322-46.2 3.196-16.692 13.897-28.006 27.869-36.667a19 19 0 0 1 2.414-1.084Zm53.834 68.05a22.9 22.9 0 0 1-13.3-3.717c-5.766-3.772-8.487-9.155-7.861-16.051a20.67 20.67 0 0 1 5.357-12.688c1.781-1.872 4.292-3.127 6.635-4.347.645-.339 1.875.439 2.836.707-.41.874-.774 1.775-1.255 2.607-.152.261-.61.352-.933.507-5.679 2.685-7.835 7.667-8.525 13.45-.694 5.8 1.762 10.126 6.8 12.975a19.93 19.93 0 0 0 15.144 1.9c7.738-1.965 11.9-10.781 9.151-19.119a14.71 14.71 0 0 0-8.845-9.568c-.833-.329-1.888-.355-2.5-.9a8.7 8.7 0 0 1-1.4-2.478c.916-.368 1.936-1.194 2.727-1.016a19.9 19.9 0 0 1 5.5 2.085c7.267 4.189 10.959 13.6 8.777 21.972-2.256 8.655-8.922 13.64-18.3 13.682Z"/><path d="M71.413.006a75.2 75.2 0 0 1 35.8 8.687c2.669 1.388 3.527 2.8 2.546 3.917-1.526 1.733-3.014.29-4.343-.381-10.445-5.273-21.436-8.387-33.2-8.138-18.684.394-35.225 6.441-49.143 19.145a21 21 0 0 1-3.295 2.756 2.39 2.39 0 0 1-2.29-.195 2.66 2.66 0 0 1-.048-2.385 9.7 9.7 0 0 1 2.149-2.385A75.03 75.03 0 0 1 63.878.68c2.323-.255 4.656-.419 7.535-.674m-7.074 107.31c5.082.62 9.181 1.265 13.3 1.568a30 30 0 0 0 8.048-.281c3.872-.781 4.727-3.792 2.269-6.851a10 10 0 0 0-1.126-1.158 21.92 21.92 0 0 0-33.744 4.553c-.855 1.368-1.572 2.843-2.543 4.118a1.98 1.98 0 0 1-1.846.491 4.7 4.7 0 0 1-1.174-2.092c-.1-.265.136-.691.274-1.017 3.785-8.884 13.666-17.993 26.2-15.576 4.824.933 9.552 2.146 13.527 5.082a18.5 18.5 0 0 1 5.024 5.473 6.62 6.62 0 0 1-2.914 9.642 16.6 16.6 0 0 1-7.2 1.791 101 101 0 0 1-12.346-1.065 34.3 34.3 0 0 0-13.4.545 2.96 2.96 0 0 1-2.636-.949c-.82-1.475.445-2.433 1.688-2.711 3.133-.7 6.325-1.168 8.606-1.572Zm5.35 33.793c-24.192-1.542-43.815-11.559-58.472-30.952-1-1.326-2.927-3.169-.936-4.6 2.462-1.775 3.275 1.207 4.311 2.575 10.481 13.876 24.266 22.685 41.03 26.964a53.8 53.8 0 0 0 19.762 1.475c.536-.065 1.065-.2 1.6-.216 1.317-.042 2.788.113 2.688 1.762a3 3 0 0 1-2 1.975c-2.627.532-5.328.713-7.987 1.029Z"/><path d="M86.137 17.627a33.2 33.2 0 0 0-16.283-1.93c-4.608.581-9.193 1.368-13.782 2.107a21.5 21.5 0 0 1-3.127.723 6.4 6.4 0 0 1-2.243-.952c.407-.865.768-1.755 1.252-2.578.145-.248.623-.326.962-.432 9.916-3.033 19.962-4.292 30.23-2.03a11 11 0 0 1 3.537 1.22c.758.484 1.136 1.562 1.684 2.378l-2.233 1.494Zm27.265 105.869c-.536-1.229-1.413-2.33-1.152-2.83a14.3 14.3 0 0 1 2.772-3.2c5.224-5.2 10.542-10.316 14.266-16.777 1.252-2.168 2.3-4.456 3.414-6.7.574-1.155 1.223-2.475 2.73-1.959 1.872.645 1.568 2.294.862 3.6-2.217 4.088-4.156 8.422-6.973 12.065-3.608 4.666-7.925 8.787-12.03 13.056a27 27 0 0 1-3.888 2.74ZM50.679 35.924c1.026.216 2.982.516 4.869 1.065a6 6 0 0 1 2.714 1.607 2.9 2.9 0 0 1 .342 2.356c-.11.4-1.126.7-1.762.765-.474.048-.984-.374-1.494-.539-8.587-2.765-16.638-1.426-24.25 3.188-1.191.723-2.3 2.03-3.795.732-1.133-.987-.416-2.891 1.891-4.279a33.76 33.76 0 0 1 21.485-4.9Zm43.466 38.281c-4.014-.074-6.66-2.594-6.512-6.2.155-3.734 3.724-7.4 7.19-7.393a7.544 7.544 0 0 1 7.08 7.322c-.087 3.866-3.169 6.36-7.758 6.276Zm3.579-6.605c-.158-1.684-1.462-2.114-2.956-2.2a2.522 2.522 0 0 0-2.885 2.43c-.2 1.633.949 2.114 2.307 2.2 2.043.141 3.508-.836 3.534-2.431Zm-3.168-32.334a24.96 24.96 0 0 1 16.225 6.451 11.1 11.1 0 0 1 2.34 2.869 2.02 2.02 0 0 1-.419 1.872 2.13 2.13 0 0 1-1.891.271 7.7 7.7 0 0 1-2.139-1.581 20.68 20.68 0 0 0-16.828-5.47 28.3 28.3 0 0 1-4.818.113c-.555-.039-1.533-.8-1.491-1.139.087-.736.587-1.9 1.12-2.026 2.6-.607 5.263-.929 7.9-1.355Zm25.562-13.698a11.5 11.5 0 0 1 2.582 1.388 34.4 34.4 0 0 1 4.3 4.8c2.43 3.553 4.653 7.251 6.9 10.926a19.6 19.6 0 0 1 1.63 3.395c.49 1.326 1.191 2.985-.52 3.792-1.82.858-2.456-.845-3.085-2.123-3.191-6.467-6.812-12.643-11.843-17.893a3.14 3.14 0 0 1-1.024-1.825 7.7 7.7 0 0 1 1.06-2.46M53.206 126.6c-4.137-1.672-8.261-3.282-12.33-5.031a3.73 3.73 0 0 1-1.839-1.843 3.02 3.02 0 0 1 .316-2.349 1.91 1.91 0 0 1 1.855-.248c3.917 2.653 8.325 3.985 12.84 5.121 1.236.313 2.562 1.058 1.9 2.591-.313.723-1.565 1.042-2.74 1.759ZM6.28 93.933c-.184.219-.6 1.068-1.262 1.368-.413.187-1.275-.352-1.8-.752a2.4 2.4 0 0 1-.813-1.359c-.8-4.2-1.61-8.406-2.217-12.637-.074-.529.968-1.655 1.578-1.72a2.39 2.39 0 0 1 1.91 1.365c.945 4.36 1.691 8.764 2.6 13.73Zm102.822-65.996c-1.039.394-2.056 1.133-2.469.878q-5.242-3.2-10.245-6.783c-.39-.281-.29-1.668.019-2.346a1.96 1.96 0 0 1 1.862-.471c3.211 1.93 6.37 3.95 9.445 6.086.619.429.804 1.474 1.388 2.636M4.135 69.407a21.4 21.4 0 0 1-.762 3.627 2.08 2.08 0 0 1-1.652 1c-.552-.019-1.513-.678-1.549-1.117a30.2 30.2 0 0 1 0-6.392c.094-.7 1.407-1.242 2.162-1.855a7.9 7.9 0 0 1 1.479 2.036 9.2 9.2 0 0 1 .058 2.669l.258.032Zm47.838-1.646c.006 4.321-1.733 6.534-5.228 6.664a6.8 6.8 0 0 1-7.186-6.392 7.31 7.31 0 0 1 7.273-7.086c3.208.061 5.137 2.617 5.144 6.815Zm-6.291-3.363c-.907 1.9-1.726 2.862-1.749 3.846a1.933 1.933 0 0 0 2.536 1.9 2.75 2.75 0 0 0 1.43-2.272c-.108-.934-1.069-1.77-2.217-3.474"/></g></svg>