<svg xmlns="http://www.w3.org/2000/svg" width="250" height="97.456" viewBox="0 0 250 97.456"><g fill="#fff"><path d="M66.328 97.456a19 19 0 0 1-1.415-.056c-4.125-.341-7.481-3.366-8.466-7.522a9.83 9.83 0 0 1 7.144-11.874 9.83 9.83 0 0 1 12.063 7.332 9.87 9.87 0 0 1-7.666 11.9 10.3 10.3 0 0 1-1.66.219M187.1.054a5.9 5.9 0 0 1 2.757 1.106 5.74 5.74 0 0 1 2.332 3.887 5.74 5.74 0 0 1-1.178 4.472 5.65 5.65 0 0 1-3.491 2.153 5.87 5.87 0 0 1-6.582-3.497 5.2 5.2 0 0 1-.424-1.856 5.9 5.9 0 0 1 .313-2.394A5.8 5.8 0 0 1 185.206.14a5.4 5.4 0 0 1 .979-.134 4.4 4.4 0 0 1 .915.05m-.738 1.876a3.926 3.926 0 0 0-3.991 3.968 3.99 3.99 0 0 0 4.031 4.001 4.035 4.035 0 0 0 3.968-4.016 3.98 3.98 0 0 0-4.007-3.953M60.544 72.541c-.351-.247-4.374-4.263-4.659-4.657.053-.11.103-.235.169-.353a26.5 26.5 0 0 0 2.862-7.574 26.5 26.5 0 0 0 .5-3.585 25 25 0 0 0 .071-2.484 26.3 26.3 0 0 0-3.044-11.719 26.4 26.4 0 0 0-10.197-10.616 26.2 26.2 0 0 0-8.66-3.162 20.6 20.6 0 0 0-3.291-.351c-.397-.006-.793-.063-1.188-.06a26.6 26.6 0 0 0-12.169 2.915 26.5 26.5 0 0 0-5.849 4.071 26.3 26.3 0 0 0-7.925 13.559 26.5 26.5 0 0 0-.582 3.728 25 25 0 0 0-.054 3.776 26.3 26.3 0 0 0 4.457 13.232 25.7 25.7 0 0 0 2.891 3.584.9.9 0 0 0 .418.325c.179-.044.294-.207.425-.337q1.306-1.296 2.604-2.597 2.95-2.947 5.897-5.897c.144-.144.281-.297.403-.429a.97.97 0 0 0-.341-.493 13.1 13.1 0 0 1-2.882-5.038 13 13 0 0 1-.566-4.549 13.15 13.15 0 0 1 6.569-10.715 12.5 12.5 0 0 1 4.615-1.61 12.94 12.94 0 0 1 10.672 3.149 12.8 12.8 0 0 1 4.249 7.518 13.2 13.2 0 0 1 .179 3.041 12.9 12.9 0 0 1-2.018 6.338 11 11 0 0 1-1.576 1.982q-2.263 2.243-4.506 4.506a1.2 1.2 0 0 0-.39.493 1.5 1.5 0 0 0 .143.199q.178.188.363.369 6.246 6.244 12.49 12.491a1.8 1.8 0 0 1 .4.456c-.854.921-5.529 3.162-8.365 4.015a32.87 32.87 0 0 1-17.488.507 32.35 32.35 0 0 1-14.994-8.212 32.99 32.99 0 0 1-.565-47.119 33.03 33.03 0 0 1 47.309.588 32.8 32.8 0 0 1 6.853 10.826 32.65 32.65 0 0 1 2.179 13.135 32.5 32.5 0 0 1-2.878 12.269c-.835 1.859-2.079 4.057-2.532 4.479m37.631 1.712a1.2 1.2 0 0 0-.556.259 30.3 30.3 0 0 1-4.949 2.476 21 21 0 0 1-4.903 1.247 25 25 0 0 1-4.6.162 15.6 15.6 0 0 1-4.606-.901 10.38 10.38 0 0 1-5.988-5.484 15.4 15.4 0 0 1-1.265-4.359 23.5 23.5 0 0 1-.222-3.613q.01-11.915.015-23.828c0-.241.007-.484.003-.725a1.97 1.97 0 0 1 1.74-1.826c.154-.015.31-.012.466-.012H84.81a3 3 0 0 1 .619.031 2.09 2.09 0 0 1 1.413 1.044 1.3 1.3 0 0 1 .179.641q.013.415.015.829l.021 20.513a13 13 0 0 0 .16 2.322 5.2 5.2 0 0 0 .424 1.381 2.31 2.31 0 0 0 2.449 1.36 11 11 0 0 0 2.719-.618c.21-.075.409-.179.616-.269l2.146-.907c.191-.081.376-.175.565-.26a.41.41 0 0 0 .25-.413c-.003-.207.003-.415.003-.622l.009-22.376c0-.259-.006-.518.004-.776a1.985 1.985 0 0 1 1.813-1.869c.172-.012.346-.007.518-.007h11.294c.121 0 .243.006.363 0a1.934 1.934 0 0 1 1.901 1.872l.003.622.012 34.965c0 .224.006.449-.007.672a1.934 1.934 0 0 1-1.859 1.81h-.259c-2.953 0-5.906-.004-8.859.004a2.5 2.5 0 0 1-1.331-.354 1.7 1.7 0 0 1-.682-.756c-.293-.625-.606-1.24-.913-1.857-.06-.121-.135-.234-.218-.375m57.268-10.293a1.5 1.5 0 0 0 .276.081c.172.009.346.007.518.007h11.034c.207 0 .415.006.622.003a2.04 2.04 0 0 1 1.918 1.944c-.003.138.003.276.003.415v8.857l-.003.415a1.99 1.99 0 0 1-1.89 1.904q-.259.004-.518.003h-31.6c-.138 0-.276-.004-.415 0a1.94 1.94 0 0 1-1.91-1.868l-.006-.415v-7.821c0-.103.004-.207 0-.31a.63.63 0 0 1 .182-.468q.346-.387.682-.779l7.165-8.184 5.187-5.924c.121-.138.281-.254.301-.437-.059-.126-.151-.121-.234-.124q-.259-.009-.518-.007-4.715 0-9.428-.003a3.5 3.5 0 0 1-.821-.072 1.9 1.9 0 0 1-1.469-1.504 3.7 3.7 0 0 1-.081-.874c.006-1.537.028-3.072.037-4.609.007-1.365.003-2.728.006-4.091 0-.224.01-.449.018-.672a1.85 1.85 0 0 1 1.725-1.696q.285-.007.569-.009h29.943c.19 0 .379.009.569.012a1.875 1.875 0 0 1 1.644 1.363 4 4 0 0 1 .103.819c.009 2.815.004 5.628.012 8.443a.97.97 0 0 1-.266.697q-2.224 2.459-4.432 4.932l-6.959 7.744-1.594 1.771c-.112.124-.212.26-.371.457m-39.794-6.865V39.121q-.001-.363.009-.725a2.06 2.06 0 0 1 .507-1.275 1.32 1.32 0 0 1 1.031-.518q.181-.006.362-.007c3.109 0 6.218.007 9.328-.004a4.3 4.3 0 0 1 2.497.872 3 3 0 0 1 .382.349 1.13 1.13 0 0 1 .36.881c-.012.449 0 .897 0 1.346l.016 34.963c0 .276 0 .553-.015.828a2.06 2.06 0 0 1-.538 1.262 1.32 1.32 0 0 1-1.043.49h-11.038a1.76 1.76 0 0 1-1.854-1.69c-.026-.274-.022-.551-.022-.828V57.088Zm14.578-29.86a7.28 7.28 0 0 1-7.337 7.332 7.346 7.346 0 0 1-7.36-7.378 7.34 7.34 0 0 1 7.354-7.334 7.28 7.28 0 0 1 7.343 7.379m81.634 31.068h-7.456a5.2 5.2 0 0 1-1.531-.209 4.235 4.235 0 0 1-2.972-4.004q-.016-1.863 0-3.728a4.206 4.206 0 0 1 3.571-4.14 6 6 0 0 1 .824-.072q7.585-.007 15.171-.003a4.26 4.26 0 0 1 3.175 1.276 4.12 4.12 0 0 1 1.225 2.882 78 78 0 0 1 0 3.831 4.2 4.2 0 0 1-3.524 4.081 7.4 7.4 0 0 1-1.081.082c-2.466.007-4.934.003-7.401.003m.034-1.943h7.25a6 6 0 0 0 .825-.051 2.2 2.2 0 0 0 1.65-1.126 2.56 2.56 0 0 0 .329-1.34v-3.21q.001-.103-.003-.207a2.37 2.37 0 0 0-2.304-2.341q-.181-.009-.362-.006H204.47q-.207-.003-.413.01a2.35 2.35 0 0 0-2.197 1.996 3 3 0 0 0-.034.516q-.003 1.631 0 3.262v.156a2.34 2.34 0 0 0 2.146 2.321q.335.026.672.024h7.253Zm-26.225 1.943h-7.507a5.2 5.2 0 0 1-1.431-.187 4.24 4.24 0 0 1-3.05-4.049q.01-1.838 0-3.676a4.22 4.22 0 0 1 3.543-4.163 6 6 0 0 1 .822-.076q7.637-.007 15.275 0a4.2 4.2 0 0 1 2.268.618 4.13 4.13 0 0 1 2.054 3.51q.078 1.941.004 3.882a4.176 4.176 0 0 1-3.597 4.066 9 9 0 0 1-1.031.071q-3.674.01-7.349.004m.01-10.228h-7.25c-.172 0-.346-.006-.518.006a2.43 2.43 0 0 0-1.471.565 2.32 2.32 0 0 0-.831 1.824v2.849c0 .259-.007.518.004.776a2.31 2.31 0 0 0 2.013 2.221 4.4 4.4 0 0 0 .619.044q7.432.003 14.865 0a3.5 3.5 0 0 0 .721-.065 2.235 2.235 0 0 0 1.821-1.765 3.5 3.5 0 0 0 .081-.821c.009-.984.004-1.968.004-2.951 0-.138.003-.276-.009-.413a2.37 2.37 0 0 0-2.332-2.262c-.172-.009-.346-.004-.518-.004Zm52.379 10.228h-7.46a5 5 0 0 1-1.581-.231 4.25 4.25 0 0 1-2.901-3.956 121 121 0 0 1 .003-3.781 4.19 4.19 0 0 1 3.551-4.109 7 7 0 0 1 .875-.075q7.563-.007 15.126-.003a4.32 4.32 0 0 1 3.181 1.269 4.1 4.1 0 0 1 .987 1.565 2.2 2.2 0 0 1 .15.757q-.003 2.459.003 4.919a2.2 2.2 0 0 1-.172.857 4.15 4.15 0 0 1-3.274 2.703 6 6 0 0 1-1.031.081q-3.729.012-7.46.006m.049-10.228h-7.457a3.1 3.1 0 0 0-1.019.144 2.34 2.34 0 0 0-1.587 2.207c-.016.69-.004 1.381-.003 2.071 0 .518-.013 1.037.006 1.553a2.324 2.324 0 0 0 2.076 2.275 4 4 0 0 0 .568.032q7.406.003 14.812 0a4.4 4.4 0 0 0 .721-.056 2.265 2.265 0 0 0 1.853-1.731 3.7 3.7 0 0 0 .085-.769c.01-.966.006-1.934.006-2.9 0-.156.003-.31-.003-.466a2.37 2.37 0 0 0-2.287-2.354c-.172-.012-.346-.006-.518-.007Zm-5.046 27.468a1 1 0 0 0 .224.081 3 3 0 0 0 .413.016h8.804a.93.93 0 0 0 .649-.112 1.6 1.6 0 0 0 .056-.663q.004-6.86.004-13.722a4 4 0 0 1 .015-.569.965.965 0 0 1 1.404-.74.87.87 0 0 1 .501.735c.012.154.012.31.012.466l.003 15.224-.006.413a.94.94 0 0 1-.897.901c-.121.009-.241.006-.362.006h-11.601a3 3 0 0 1-.413-.015.926.926 0 0 1-.797-.831q-.01-.234-.012-.466l.003-15.224c0-.156-.003-.312.012-.466a.93.93 0 0 1 .784-.844.956.956 0 0 1 1.022.541 1.5 1.5 0 0 1 .109.449 4 4 0 0 1 .007.518L233 74.856a1.6 1.6 0 0 0 .062.682m-26.209.012a1.5 1.5 0 0 0 .279.076 3 3 0 0 0 .413.01h8.7a1.4 1.4 0 0 0 .687-.087 1.5 1.5 0 0 0 .059-.282c.01-.172.006-.344.006-.518L217 61.13a4 4 0 0 1 .015-.569.96.96 0 0 1 1.496-.672.85.85 0 0 1 .409.685q.015.285.013.569l.003 15.016c0 .172.003.346-.012.518a.935.935 0 0 1-.906.893c-.121.01-.241.006-.362.006h-11.549c-.138 0-.276.004-.413-.009a.94.94 0 0 1-.84-.847 9 9 0 0 1-.013-.466l.003-15.224a4 4 0 0 1 .013-.466.93.93 0 0 1 .791-.838.97.97 0 0 1 .994.506 1.6 1.6 0 0 1 .128.493 4 4 0 0 1 .007.518l.003 13.618a1.5 1.5 0 0 0 .071.687m-26.224-.006a1 1 0 0 0 .224.078 3 3 0 0 0 .413.016h8.804a.93.93 0 0 0 .65-.112 1.5 1.5 0 0 0 .057-.663q.004-6.86.004-13.722a4 4 0 0 1 .013-.569.962.962 0 0 1 1.532-.656.85.85 0 0 1 .374.651c.012.172.012.344.012.518l.003 15.121c0 .156.004.312-.007.466a.937.937 0 0 1-.897.901c-.119.01-.241.006-.362.006h-11.601a3 3 0 0 1-.362-.007.926.926 0 0 1-.844-.84 4 4 0 0 1-.019-.465l.003-15.224q.003-.234.015-.466a.926.926 0 0 1 .837-.851.95.95 0 0 1 .991.597 1.6 1.6 0 0 1 .09.453c.015.171.006.344.006.518q0 6.784.003 13.566a1.6 1.6 0 0 0 .065.684M49.125 14.478a3 3 0 0 1-.066-.299c-.009-.156-.006-.31-.006-.466 0-1.899-.006-3.797.004-5.696.013-2.466.04-4.935.062-7.403.004-.55.047-.599.587-.6q3.547-.006 7.096 0h.103c.413.018.468.068.474.496q.01.7-.004 1.399c-.006.262-.081.325-.35.34-.138.007-.276.003-.415.003h-4.091c-.628 0-.646.019-.647.632q0 1.269.004 2.537-.001.103.003.207c.019.354.069.415.44.418 1.225.007 2.451.004 3.676.004.156 0 .312-.003.466.006.21.013.291.078.296.281q.016.828.004 1.656c0 .174-.085.241-.265.256-.137.01-.276.009-.413.009h-3.471c-.204 0-.41.012-.628.019a1.5 1.5 0 0 0-.093.313q-.003 1.682.004 3.363a.6.6 0 0 0 .037.14.52.52 0 0 0 .437.132q.571.004 1.14.003h3.159c.206 0 .41.015.628.024a1.5 1.5 0 0 1 .1.307 7.4 7.4 0 0 1-.076 1.863 1.03 1.03 0 0 1-.544.065q-1.475.003-2.951 0h-4.091c-.188.004-.376-.004-.612-.012M13.407 8.278a.85.85 0 0 0-.134.56q0 1.399.004 2.796c.004.557.038.594.585.596 1.435.004 2.866 0 4.299.003a1.2 1.2 0 0 1 .593.071 7.4 7.4 0 0 1 0 2.131 1.2 1.2 0 0 1-.544.057q-1.968.004-3.935 0h-3.159a1.24 1.24 0 0 1-.582-.069 3 3 0 0 1-.049-.288c-.009-.172-.004-.344-.004-.518l.02-12.893c0-.707 0-.709.724-.71h6.887c.703 0 .703.003.704.728 0 .397.004.794-.006 1.191-.006.238-.075.299-.318.313-.138.009-.276.004-.415.004h-4.298c-.462.012-.526.057-.529.499q-.007 1.425.012 2.849a2 2 0 0 0 .075.366 1.3 1.3 0 0 0 .653.084q1.787.003 3.574 0c.632 0 .634.003.637.624 0 .415.006.829 0 1.243-.004.269-.071.325-.344.338q-.181.006-.362.003h-3.523c-.19.004-.376.016-.565.024m178.402 34.195.187-3.731.019-.413c.043-.81.068-1.621.134-2.429.051-.618.156-1.231.238-1.846l.375-2.821.354-2.613.269-2.051.354-2.613.269-2.051.247-1.846.269-2.05c.084-.632.172-1.263.253-1.897a1.41 1.41 0 0 0-.926-1.509 1.38 1.38 0 0 0-1.753.865 3 3 0 0 0-.104.454c-.151.919-.297 1.838-.449 2.757a9 9 0 0 1-.096.509.935.935 0 0 1-1.141.781.92.92 0 0 1-.7-1.099c.124-.835.262-1.669.396-2.503l.157-.918a3.09 3.09 0 0 1 2.349-2.675 3.197 3.197 0 0 1 4.049 2.268 3.4 3.4 0 0 1 .09.974c-.024.532-.09 1.065-.156 1.596-.122.975-.257 1.949-.39 2.922q-.191 1.382-.376 2.768c-.119.906-.229 1.813-.35 2.719-.154 1.162-.316 2.324-.472 3.485-.119.888-.231 1.778-.349 2.666-.124.941-.26 1.878-.374 2.819-.09.735-.174 1.474-.218 2.213-.065 1.068-.094 2.138-.134 3.206-.038.966-.071 1.931-.113 2.897a1.5 1.5 0 0 1-.084.454.93.93 0 0 1-1.019.619.9.9 0 0 1-.801-.876c-.016-.328-.003-.656-.003-1.026m46.294-10.734c.449 0 .897-.018 1.346.003a9.9 9.9 0 0 1 3.715.831 5.7 5.7 0 0 1 2.294 1.804 4.9 4.9 0 0 1 .909 2.444c.084.824.184 1.646.275 2.466l.238 2.212q.084.799.176 1.594a1.3 1.3 0 0 1-.044.662.97.97 0 0 1-.926.624.94.94 0 0 1-.887-.743 6 6 0 0 1-.093-.615c-.082-.788-.157-1.579-.241-2.368q-.132-1.21-.269-2.416c-.044-.412-.094-.824-.129-1.235a2.94 2.94 0 0 0-1.238-2.181 5.3 5.3 0 0 0-1.815-.859 8.8 8.8 0 0 0-2.454-.329c-.707.007-1.416-.013-2.124.009a8.1 8.1 0 0 0-2.968.646 4 4 0 0 0-1.422 1.013 2.7 2.7 0 0 0-.688 1.425c-.076.546-.134 1.096-.193 1.644q-.149 1.413-.293 2.831-.118 1.132-.229 2.266a.96.96 0 0 1-.453.772.965.965 0 0 1-1.451-.707 1.5 1.5 0 0 1 0-.31q.119-1.132.243-2.263l.265-2.522c.072-.687.115-1.378.229-2.056a4.78 4.78 0 0 1 1.8-2.993 6.9 6.9 0 0 1 2.435-1.228 10.4 10.4 0 0 1 2.909-.428h1.088ZM220.973 43.32a.97.97 0 0 1-1.337.987.9.9 0 0 1-.56-.751c-.076-.582-.14-1.166-.204-1.749q-.149-1.337-.29-2.675c-.076-.703-.163-1.404-.224-2.107a2.96 2.96 0 0 0-1.229-2.185 5.3 5.3 0 0 0-1.813-.863 8.8 8.8 0 0 0-2.454-.332c-.707.006-1.416-.013-2.124.009a8.1 8.1 0 0 0-2.968.641 4 4 0 0 0-1.39.972 2.72 2.72 0 0 0-.741 1.562q-.103.925-.201 1.851l-.269 2.521-.243 2.316a.93.93 0 0 1-.529.775.96.96 0 0 1-1.371-.794 1.5 1.5 0 0 1 .003-.259c.084-.772.175-1.543.256-2.313.09-.841.163-1.682.251-2.522.071-.687.113-1.378.237-2.056a4.82 4.82 0 0 1 1.828-2.976 7.2 7.2 0 0 1 2.793-1.304 10.3 10.3 0 0 1 2.457-.321c.812-.004 1.624-.021 2.434.007a10 10 0 0 1 3.722.804 6.2 6.2 0 0 1 1.65 1.057 4.82 4.82 0 0 1 1.604 3.209c.079.824.184 1.646.275 2.466l.234 2.16.187 1.697.018.176M42.866 14.444a15.6 15.6 0 0 1-2.684-.016 1.5 1.5 0 0 1-.056-.279c-.01-.172-.006-.346-.004-.518l.016-10.56a7 7 0 0 0-.019-.568.243.243 0 0 0-.235-.232 4 4 0 0 0-.468-.019h-2.381q-.181.003-.362 0c-.322-.015-.381-.069-.391-.409-.01-.362-.006-.725-.003-1.087a4 4 0 0 1 .019-.465.235.235 0 0 1 .237-.229 3 3 0 0 1 .362-.013h9.319c.571 0 .578.01.582.576q.004.544 0 1.087c-.004.524-.019.538-.565.54q-1.268.003-2.537 0c-.138 0-.276-.003-.415.004-.281.016-.356.09-.384.378a3 3 0 0 0-.009.31l.028 5.125.037 5.849a.9.9 0 0 1-.088.526m-18.421-2.27a1.3 1.3 0 0 0 .682.099c1.156.003 2.312 0 3.468.003a.9.9 0 0 1 .544.076 7.7 7.7 0 0 1-.004 2.075 1.03 1.03 0 0 1-.543.066q-2.097.004-4.193 0h-2.226c-.169 0-.338-.016-.524-.026-.025-.129-.053-.228-.062-.325-.01-.121-.004-.241-.004-.362L21.597.686c0-.637.003-.638.624-.64q.75-.003 1.501 0c.121 0 .241 0 .362.013a.25.25 0 0 1 .244.224 3 3 0 0 1 .024.359c.021 2.018.044 4.035.059 6.054.01 1.622.006 3.244.009 4.865 0 .207.016.409.024.616m188.951-6.26c.184.197.319.351.465.497l3.001 3.004a3 3 0 0 1 .35.379.9.9 0 0 1 .191.729.956.956 0 0 1-1.534.582 3 3 0 0 1-.34-.319l-3.041-3.038a1.4 1.4 0 0 0-.488-.394 1.25 1.25 0 0 0-.475.379q-1.525 1.516-3.041 3.038a4 4 0 0 1-.338.321.953.953 0 0 1-1.546-.547.91.91 0 0 1 .204-.774 3.5 3.5 0 0 1 .354-.376l3.001-3.004a1.3 1.3 0 0 0 .39-.484 1.25 1.25 0 0 0-.384-.479q-1.516-1.525-3.038-3.041a3 3 0 0 1-.35-.381.944.944 0 0 1 .504-1.493.8.8 0 0 1 .554.026 1.8 1.8 0 0 1 .576.429l3.076 3.075c.146.144.3.281.429.4.262-.009.368-.184.499-.313.65-.643 1.296-1.293 1.943-1.938q.622-.624 1.247-1.244a2.4 2.4 0 0 1 .351-.303.88.88 0 0 1 1.141.081.88.88 0 0 1 .207 1.126 2 2 0 0 1-.351.443q-1.204 1.213-2.415 2.419-.404.401-.804.807c-.107.107-.201.228-.344.391m24.768 1.422a1.3 1.3 0 0 0-.544.413q-1.525 1.516-3.04 3.037a3 3 0 0 1-.381.349.96.96 0 0 1-1.487-.554.96.96 0 0 1 .218-.821 3 3 0 0 1 .319-.338l3.037-3.04a1.25 1.25 0 0 0 .382-.479 1.3 1.3 0 0 0-.391-.484q-1.553-1.559-3.112-3.113a1.5 1.5 0 0 1-.432-.632.87.87 0 0 1 .269-.938.83.83 0 0 1 1-.168 2.4 2.4 0 0 1 .528.407c1.031 1.019 2.053 2.049 3.079 3.071.144.144.3.279.429.399.262-.012.368-.187.499-.318q1.541-1.534 3.076-3.074a3.5 3.5 0 0 1 .421-.382.85.85 0 0 1 .778-.168.965.965 0 0 1 .524 1.499 3 3 0 0 1-.35.379l-3.037 3.04a1.25 1.25 0 0 0-.385.482 1.3 1.3 0 0 0 .387.481q1.499 1.503 3.001 3.004.147.146.29.296a1 1 0 0 1 .215 1.013.75.75 0 0 1-.565.553 1.01 1.01 0 0 1-1.01-.232q-.149-.144-.294-.291-1.479-1.484-2.965-2.966c-.143-.146-.297-.282-.453-.429"/><path d="M186.385 30.15a4.99 4.99 0 0 1-5.032-5.018 5.034 5.034 0 0 1 5.022-4.991 5.05 5.05 0 0 1 5.004 5.012 4.996 4.996 0 0 1-4.994 4.997m-3.128-4.978a3.07 3.07 0 0 0 3.094 3.094 3.06 3.06 0 0 0 3.134-3.107 3.094 3.094 0 0 0-3.121-3.125 3.14 3.14 0 0 0-3.109 3.138Zm28.721-4.741a4.926 4.926 0 0 1 5.032 5.013 4.98 4.98 0 0 1-5.016 4.999 4.994 4.994 0 0 1-5.009-5.062 4.926 4.926 0 0 1 4.993-4.949m.038 8.104a3.1 3.1 0 0 0 3.1-3.16 3.074 3.074 0 0 0-3.14-3.071 3.074 3.074 0 0 0-3.1 3.109 3.1 3.1 0 0 0 3.14 3.124Zm26.068 1.9a4.965 4.965 0 0 1-4.99-5.022 4.993 4.993 0 0 1 5.06-5.003 4.985 4.985 0 0 1 4.963 4.994 4.963 4.963 0 0 1-5.034 5.031m.015-1.901a3.14 3.14 0 0 0 3.137-3.121 3.103 3.103 0 0 0-3.144-3.11 3.074 3.074 0 0 0-3.103 3.094 3.12 3.12 0 0 0 3.109 3.137ZM33.907 14.446a14.7 14.7 0 0 1-2.646-.021 3 3 0 0 1-.056-.279c-.01-.137-.006-.276-.006-.413L31.221.699c.001-.651.004-.653.663-.654.569 0 1.138-.004 1.707.004.299.004.351.069.371.374q.004.128.003.259l.028 13.085a1.4 1.4 0 0 1-.084.678m151.271 17.3c.172 0 .346-.009.518 0a.91.91 0 0 1 .897.888.92.92 0 0 1-.793.99 3 3 0 0 1-.516.022 8.7 8.7 0 0 0-2.834.524 5 5 0 0 0-1.184.628 3.09 3.09 0 0 0-1.309 2.307c-.126 1.269-.263 2.537-.393 3.804-.082.807-.154 1.615-.24 2.418a1.8 1.8 0 0 1-.113.499.926.926 0 0 1-1.015.544.91.91 0 0 1-.782-.894 3.5 3.5 0 0 1 .016-.516c.087-.824.182-1.644.269-2.466s.159-1.647.244-2.469c.056-.531.107-1.063.191-1.59a4.8 4.8 0 0 1 2.054-3.225 7.5 7.5 0 0 1 2.988-1.24 9.7 9.7 0 0 1 2-.222m48.374 11.141c.069-.822.138-1.612.199-2.401.051-.671.09-1.341.144-2.01a3 3 0 0 1 .107-.659.87.87 0 0 1 1.025-.588.876.876 0 0 1 .775.834 10 10 0 0 1-.035 1.084c-.049.687-.116 1.374-.168 2.063-.047.635-.081 1.272-.128 1.909a3.5 3.5 0 0 1-.087.562.92.92 0 0 1-.956.706.897.897 0 0 1-.876-.857c-.007-.225-.001-.449-.001-.641"/><path d="M184.082 38.368q-.054.876-.116 1.754-.087 1.187-.185 2.372a25 25 0 0 1-.099 1.031.935.935 0 0 1-.934.865.975.975 0 0 1-.962-.906 2 2 0 0 1 .006-.31q.043-.593.09-1.187.087-.979.169-1.959l.128-1.704c.006-.085.004-.174.016-.259a.926.926 0 0 1 .993-.85.93.93 0 0 1 .903.941c-.006.069 0 .138 0 .207Zm23.362 4.563c.066-.8.134-1.572.194-2.344.053-.687.093-1.375.147-2.063a3.5 3.5 0 0 1 .099-.662.875.875 0 0 1 1.041-.634.875.875 0 0 1 .771.838 10 10 0 0 1-.035 1.137c-.044.653-.115 1.304-.165 1.957s-.082 1.307-.131 1.96a3.4 3.4 0 0 1-.09.56.92.92 0 0 1-.959.703.897.897 0 0 1-.874-.86c-.003-.206.001-.413.001-.593m35.215-.022c0 .25.013.424-.003.593a.906.906 0 0 1-.796.818.926.926 0 0 1-1.018-.612 2.2 2.2 0 0 1-.097-.506c-.082-.994-.154-1.988-.237-2.982-.049-.582-.112-1.166-.168-1.746a1.3 1.3 0 0 1 .076-.709.926.926 0 0 1 1.015-.54.91.91 0 0 1 .787.776q.062.407.096.821c.082.994.156 1.988.238 2.982.032.397.076.787.109 1.104m-26.11.101c0 .134.012.307-.003.479a.906.906 0 0 1-.787.831.92.92 0 0 1-1.04-.656 2.5 2.5 0 0 1-.085-.457c-.044-.532-.081-1.066-.126-1.599q-.082-.953-.169-1.907c-.044-.499-.101-.996-.124-1.494a.94.94 0 0 1 .706-.965.94.94 0 0 1 1.093.49.9.9 0 0 1 .09.293c.044.376.076.756.11 1.132l.168 1.854c.057.653.109 1.306.166 1.997"/></g></svg>