<svg width="50" height="50" viewBox="0 0 50 50" fill="none" xmlns="http://www.w3.org/2000/svg">
<mask id="mask0_1834_15523" style="mask-type:luminance" maskUnits="userSpaceOnUse" x="4" y="4" width="42" height="42">
<path d="M46 4H4V46H46V4Z" fill="white"/>
</mask>
<g mask="url(#mask0_1834_15523)">
<path d="M13.0554 5.60047V9.60608C13.0554 10.4799 12.3294 11.1965 11.4268 11.1965H5.62859C4.73581 11.1867 4 10.47 4 9.59626V5.59066C4 4.7267 4.73581 4.01001 5.62859 4.01001H11.4268C11.8192 4.01001 12.1822 4.13764 12.4569 4.37326C12.8297 4.65798 13.0554 5.11941 13.0554 5.60047Z" fill="#EF5388"/>
<path d="M23.5924 5.60028V9.60589C23.5924 10.4895 22.8566 11.1964 21.9736 11.1964H16.1657C15.2631 11.1964 14.5371 10.4797 14.5371 9.59607V5.59046C14.5371 4.70687 15.2631 4 16.1657 4H21.9736C22.6015 4 23.1706 4.36325 23.4256 4.92286C23.5237 5.09958 23.5924 5.3352 23.5924 5.60028Z" fill="#EF5388"/>
<path d="M34.1101 5.59066V9.59626C34.1101 10.47 33.3841 11.1867 32.4913 11.1867H26.6833C25.7905 11.1867 25.0645 10.47 25.0645 9.59626V5.59066C25.0645 5.28631 25.1528 4.99178 25.3294 4.7267C25.6335 4.27509 26.1339 4.01001 26.6833 4.01001H32.4913C33.3841 4.01001 34.1101 4.7267 34.1101 5.59066Z" fill="#EF5388"/>
<path d="M44.6373 5.59046V9.59607C44.6373 10.3717 44.0781 11.0393 43.2932 11.1669C43.1951 11.1964 43.1166 11.1964 43.0185 11.1964H37.2007C36.308 11.1964 35.582 10.4797 35.582 9.59607V5.59046C35.582 4.70687 36.308 4 37.2007 4H43.0185C43.9113 4 44.6373 4.71669 44.6373 5.59046Z" fill="#EF5388"/>
<path d="M13.0554 14.0042V18C13.0554 18.8836 12.3294 19.5905 11.4366 19.5905H5.62855C4.73577 19.5806 4.00977 18.864 4.00977 18V13.9944C4.00977 13.1206 4.73577 12.4039 5.62855 12.4039H11.4268C11.78 12.4039 12.1135 12.5217 12.398 12.7279C12.8003 13.0028 13.0554 13.4839 13.0554 14.0042Z" fill="#EF5388"/>
<path d="M23.5924 13.9944V18C23.5924 18.8836 22.8566 19.5905 21.9736 19.5905H16.1657C15.2631 19.5905 14.5371 18.8738 14.5371 18V13.9944C14.5371 13.1108 15.2631 12.3941 16.1657 12.3941H21.9736C22.8664 12.3941 23.5924 13.1108 23.5924 13.9944Z" fill="#EF5388"/>
<path d="M34.1101 13.9944V18C34.1101 18.8738 33.3841 19.5806 32.4913 19.5806H26.6833C25.7905 19.5806 25.0645 18.864 25.0645 18V13.9944C25.0645 13.1206 25.7905 12.4039 26.6833 12.4039H32.4913C33.3841 12.4039 34.1101 13.1206 34.1101 13.9944Z" fill="#EF5388"/>
<path d="M44.7938 19.3058C44.7349 19.345 44.6172 19.3647 44.4995 19.3843L38.8485 20.6901C38.7307 20.7195 38.613 20.7293 38.4953 20.7293H38.4855C37.7497 20.7293 37.1021 20.2483 36.9059 19.561C36.7882 19.2469 36.5429 18.4025 35.7875 15.791L35.7679 15.7321V15.6732C35.6894 15.3394 35.7679 14.9173 35.9935 14.5736C36.2192 14.2202 36.5822 13.9748 36.9844 13.8962L42.6845 12.5905C42.7826 12.5708 42.9199 12.5512 43.0671 12.5512C43.4301 12.5512 43.7735 12.6592 44.058 12.885C44.3425 13.0912 44.5583 13.3955 44.6466 13.749L45.7553 17.5484V17.6073C45.9122 18.2847 45.51 19.0309 44.784 19.3058H44.7938Z" fill="#EF5388"/>
<path d="M26.8095 39.6185C20.3638 39.6185 15.0169 35.1024 13.9868 28.9664C13.8985 28.986 13.8102 28.9958 13.7022 28.9958C13.4864 28.9958 13.2804 28.9467 13.0842 28.8387C12.7898 28.6816 12.5838 28.4166 12.4955 28.1122C12.4072 27.8079 12.4465 27.4741 12.6034 27.1795L13.9083 24.9018C14.1241 24.5288 14.5263 24.2931 14.958 24.2833C15.4191 24.2833 15.8116 24.4895 16.047 24.8528L17.5186 27.1108C17.8914 27.6802 17.7149 28.4362 17.136 28.7995C16.9496 28.9173 16.7338 28.986 16.4983 28.986C17.499 33.7377 21.7471 37.1936 26.7898 37.1936C27.5256 37.1936 28.0751 37.7434 28.0751 38.4208C28.0751 39.0982 27.5256 39.648 26.8291 39.648H26.7898L26.8095 39.6283V39.6185Z" fill="#EF5388"/>
<path d="M46.0007 33.1192V38.0182C46.0007 38.1066 45.9909 38.2048 45.9713 38.2931C45.9516 38.7448 45.9124 39.2356 45.8634 39.7363C45.8045 40.2665 45.7358 40.7966 45.6573 41.3268L45.6377 41.4348C45.4317 42.7602 45.2158 44.115 44.48 45.2833C44.3427 45.4797 44.1759 45.7153 43.9012 45.8429C43.6755 45.9509 43.4107 46 43.0477 46C42.8612 45.9902 42.6847 45.9804 42.5081 45.9607C42.3707 45.9607 42.2334 45.9411 42.1156 45.9411H35.199C35.1009 45.9313 35.0126 45.9411 34.9047 45.9411C34.7477 45.9411 34.6398 45.9509 34.5319 45.9509C34.2572 45.9509 34.0413 45.9215 33.8549 45.8626C33.3742 45.6957 33.1191 45.1459 32.9327 44.7532L32.815 44.5372C32.5599 44.0463 32.3146 43.5358 32.0792 43.0351C31.8732 42.5933 31.6769 42.1417 31.4807 41.6999L31.4219 41.5722C31.1962 41.0617 30.9608 40.5414 30.7351 40.0407L29.6755 37.7924C29.3812 37.1739 29.1948 36.7714 29.1556 36.7027C28.4982 35.3969 28.3707 34.3268 28.7533 33.5021C28.9888 32.9916 29.4008 32.6185 29.9208 32.4222C30.1955 32.2749 30.5781 32.1964 30.9608 32.1964H31.0687C31.3139 32.1964 31.5886 32.2455 31.8535 32.3436C32.3539 32.54 32.7954 32.8345 33.1976 33.1978L33.2369 25.6283C33.2957 24.3128 34.3749 23.2819 35.6896 23.2819H35.8073C37.1416 23.2819 38.1521 24.3815 38.1521 25.8345V27.9846H38.4072C39.2313 27.9944 39.9671 28.4166 40.3791 29.094C40.6048 29.0547 40.7912 29.0351 40.9874 29.0351C42.0077 29.0351 42.9103 29.6732 43.2439 30.6157C43.391 30.6157 43.5088 30.6059 43.6461 30.6059C44.0778 30.6255 44.4898 30.7532 44.843 30.979C45.2845 31.2441 45.6377 31.6466 45.8241 32.1276C45.9517 32.432 46.0203 32.7658 46.0007 33.1192Z" fill="#EF5388"/>
</g>
</svg>
