<svg xmlns="http://www.w3.org/2000/svg" width="62" height="62" viewBox="0 0 62 62"><g transform="translate(.396 .094)"><rect width="62" height="62" fill="#f3f7fa" rx="5" transform="translate(-.396 -.094)"/><path fill="#263b80" d="M44.431 11.083c-2.03-2.32-5.8-3.48-11.02-3.48H18.91a2.49 2.49 0 0 0-2.03 1.74l-5.8 37.992a1.327 1.327 0 0 0 1.16 1.45h8.99l2.32-14.211v.58a2.49 2.49 0 0 1 2.03-1.74h4.35c8.41 0 14.791-3.48 16.821-13.05v-.87c.29-3.77-.29-6.09-2.32-8.41"/><path fill="#139ad6" d="M46.459 19.493v.87c-2.03 9.86-8.41 13.05-16.821 13.05h-4.35a2.49 2.49 0 0 0-2.03 1.74l-2.899 17.691a1.062 1.062 0 0 0 1.16 1.16h7.54a1.624 1.624 0 0 0 1.74-1.45v-.29l1.45-8.99v-.58a1.624 1.624 0 0 1 1.74-1.45h1.16c7.25 0 13.05-2.9 14.5-11.6.58-3.48.29-6.67-1.45-8.7a2.97 2.97 0 0 0-1.74-1.45"/><path fill="#232c65" d="M44.431 18.624c-.29 0-.58-.29-.87-.29a1.07 1.07 0 0 1-.87-.29 15.3 15.3 0 0 0-3.77-.29h-11.31a1.07 1.07 0 0 0-.87.29 1.6 1.6 0 0 0-.87 1.45l-2.32 15.08v.58a2.49 2.49 0 0 1 2.03-1.74h4.35c8.41 0 14.791-3.48 16.821-13.05a1.07 1.07 0 0 1 .29-.87c-.58-.29-.87-.58-1.45-.58-.87-.29-.87-.29-1.16-.29"/></g></svg>