<svg xmlns="http://www.w3.org/2000/svg" width="170" height="64.912" fill="none" viewBox="0 0 170 64.912"><path fill="#EF5388" d="M127.362.114a3.997 3.997 0 0 1 2.651 6.418 3.83 3.83 0 0 1-2.367 1.459 3.98 3.98 0 0 1-4.463-2.371 3.5 3.5 0 0 1-.287-1.259 4 4 0 0 1 .212-1.619 3.93 3.93 0 0 1 2.969-2.567 3.6 3.6 0 0 1 .664-.091 3 3 0 0 1 .62.03m-.501 1.272a2.66 2.66 0 0 0-2.706 2.615v.075a2.7 2.7 0 0 0 .788 1.916 2.7 2.7 0 0 0 1.911.798h.033a2.733 2.733 0 0 0 2.69-2.723 2.7 2.7 0 0 0-.803-1.902 2.7 2.7 0 0 0-1.913-.777m17.287 38.215h-5.06a3.4 3.4 0 0 1-1.038-.142 2.87 2.87 0 0 1-2.015-2.715 146 146 0 0 1 0-2.53 2.854 2.854 0 0 1 2.422-2.807 4 4 0 0 1 .558-.048H149.3a2.9 2.9 0 0 1 2.152.866 2.78 2.78 0 0 1 .831 1.954 52 52 0 0 1 0 2.597 2.85 2.85 0 0 1-2.388 2.767 5 5 0 0 1-.733.056c-1.667.008-3.342.003-5.014.003m.022-1.316h4.916a4 4 0 0 0 .559-.035 1.5 1.5 0 0 0 1.118-.764 1.73 1.73 0 0 0 .224-.911v-2.317a1.605 1.605 0 0 0-1.562-1.588c-.082-.005-.164 0-.246 0h-10.043q-.14-.002-.28.007a1.59 1.59 0 0 0-1.49 1.353 2 2 0 0 0-.022.35v2.312a1.59 1.59 0 0 0 1.455 1.573q.227.018.456.016h4.917zm-17.779 1.32h-5.09a3.5 3.5 0 0 1-.97-.127 2.875 2.875 0 0 1-2.068-2.744q.007-1.247 0-2.494a2.86 2.86 0 0 1 2.401-2.822 4 4 0 0 1 .559-.052h10.357a2.86 2.86 0 0 1 1.537.419 2.8 2.8 0 0 1 1.394 2.38c.035.876.034 1.756 0 2.631a2.834 2.834 0 0 1-2.438 2.757q-.348.045-.699.049-2.489.006-4.982.003m.007-6.934h-5.267a1.64 1.64 0 0 0-.998.382 1.57 1.57 0 0 0-.564 1.237v1.931c0 .176-.005.351 0 .526a1.57 1.57 0 0 0 1.365 1.506q.209.03.42.03h10.078a2.4 2.4 0 0 0 .489-.043 1.52 1.52 0 0 0 1.234-1.196q.06-.276.055-.556c.006-.669 0-1.334 0-2.002q.001-.14-.006-.28a1.6 1.6 0 0 0-.486-1.08 1.6 1.6 0 0 0-1.094-.453c-.116-.006-.234 0-.351 0zm35.515 6.931h-5.06a3.3 3.3 0 0 1-1.072-.157 2.88 2.88 0 0 1-1.967-2.682 88 88 0 0 1 0-2.563 2.84 2.84 0 0 1 .692-1.836 2.84 2.84 0 0 1 1.717-.95 5 5 0 0 1 .593-.052h10.257a2.94 2.94 0 0 1 2.156.861 2.84 2.84 0 0 1 .669 1.061c.063.164.098.338.101.513v3.339a1.5 1.5 0 0 1-.118.581 2.81 2.81 0 0 1-2.218 1.833 4 4 0 0 1-.701.055q-2.521.003-5.05-.003m.032-6.934h-5.06a2.1 2.1 0 0 0-.691.101 1.58 1.58 0 0 0-1.076 1.497c-.011.467 0 .936 0 1.405 0 .351-.008.702 0 1.053a1.576 1.576 0 0 0 1.409 1.542 3 3 0 0 0 .385.022h10.042q.246 0 .49-.037a1.53 1.53 0 0 0 .807-.395 1.53 1.53 0 0 0 .448-.779q.056-.257.058-.521c.007-.656 0-1.316 0-1.966v-.316a1.604 1.604 0 0 0-1.551-1.597c-.116-.008-.234 0-.35 0zm-3.422 18.626q.073.036.152.055.14.014.28.011h5.971c.151.03.308.003.44-.076a1.1 1.1 0 0 0 .039-.45v-9.303q-.009-.193.01-.385a.653.653 0 0 1 .647-.581c.106 0 .211.026.305.075a.58.58 0 0 1 .34.498c.008.101.008.211.008.316v10.602a.65.65 0 0 1-.186.421.64.64 0 0 1-.422.186c-.081.006-.164 0-.246 0h-7.865q-.141.006-.28-.01a.63.63 0 0 1-.54-.564c0-.101-.008-.211-.008-.316V41.454c0-.101 0-.212.008-.316a.63.63 0 0 1 .531-.573.65.65 0 0 1 .693.367q.06.146.074.303.012.175.005.351v9.233a1.1 1.1 0 0 0 .043.477m-17.772.007a1 1 0 0 0 .189.053 3 3 0 0 0 .28.007h5.901a.95.95 0 0 0 .466-.059q.027-.094.04-.191c.007-.116 0-.234 0-.351v-9.234a3 3 0 0 1 .01-.385.65.65 0 0 1 1.012-.456.58.58 0 0 1 .278.464q.01.192.009.387v10.181c0 .117 0 .235-.008.351a.634.634 0 0 1-.614.607c-.081.007-.164 0-.246 0h-7.831q-.14.002-.28-.006a.635.635 0 0 1-.569-.574 7 7 0 0 1-.009-.316V41.457q-.004-.158.009-.316a.63.63 0 0 1 .536-.568.65.65 0 0 1 .674.343q.07.16.087.335.013.175.005.35v9.233a1 1 0 0 0 .061.467m-17.78-.005q.073.035.152.054.14.014.28.011h5.971c.151.03.308.003.44-.076a1.05 1.05 0 0 0 .04-.449v-9.303q-.008-.193.008-.385a.65.65 0 0 1 .725-.571.65.65 0 0 1 .314.126.58.58 0 0 1 .253.441 6 6 0 0 1 .008.351v10.251c0 .101 0 .21-.005.316a.636.636 0 0 1-.607.607c-.081.007-.164 0-.246 0h-7.865q-.123.004-.246-.005a.63.63 0 0 1-.573-.569 3 3 0 0 1-.013-.316V41.457c0-.101.006-.211.01-.316a.63.63 0 0 1 .567-.578.64.64 0 0 1 .404.089.65.65 0 0 1 .267.316q.05.148.061.304c.01.116 0 .234 0 .351v9.198a1.1 1.1 0 0 0 .043.464zm7.582-22.422.127-2.53c0-.093.008-.187.013-.28.03-.55.045-1.099.091-1.647.035-.419.101-.835.162-1.252l.254-1.913.24-1.773.182-1.391.24-1.772.182-1.391.167-1.251.182-1.39c.057-.429.117-.856.171-1.286a.96.96 0 0 0-.629-1.022.94.94 0 0 0-1.188.586q-.046.149-.071.303l-.303 1.869a7 7 0 0 1-.065.344.634.634 0 0 1-.715.54l-.059-.011a.62.62 0 0 1-.481-.499.6.6 0 0 1 .005-.243c.084-.566.177-1.131.268-1.697.033-.209.072-.415.106-.623a2.09 2.09 0 0 1 1.592-1.813 2.17 2.17 0 0 1 2.713 1.427q.017.055.03.11.078.326.061.66c-.016.361-.061.723-.101 1.082-.083.661-.175 1.321-.264 1.981-.084.625-.172 1.251-.255 1.876s-.156 1.23-.237 1.844c-.101.787-.212 1.575-.32 2.363-.081.607-.157 1.205-.236 1.808-.084.638-.176 1.273-.253 1.912-.061.499-.117.999-.148 1.501-.044.724-.064 1.449-.091 2.174-.026.655-.047 1.31-.077 1.964a1 1 0 0 1-.057.304.63.63 0 0 1-.691.42.61.61 0 0 1-.543-.594c-.015-.218-.005-.441-.005-.691m31.387-7.275c.304 0 .607-.012.911 0a6.7 6.7 0 0 1 2.519.564 3.85 3.85 0 0 1 1.555 1.224 3.34 3.34 0 0 1 .616 1.657c.056.559.125 1.113.186 1.672l.163 1.5c.04.36.076.721.12 1.081a.9.9 0 0 1-.03.448.66.66 0 0 1-.629.423.63.63 0 0 1-.387-.15.64.64 0 0 1-.214-.356 3 3 0 0 1-.063-.417c-.058-.534-.106-1.071-.164-1.605s-.121-1.092-.183-1.638c-.03-.279-.063-.558-.088-.837a2 2 0 0 0-.84-1.478 3.6 3.6 0 0 0-1.231-.583 6 6 0 0 0-1.665-.224c-.481 0-.96-.008-1.44.006a5.5 5.5 0 0 0-2.012.437 2.7 2.7 0 0 0-.964.687 1.83 1.83 0 0 0-.467.967c-.052.37-.091.742-.131 1.113-.068.638-.132 1.279-.202 1.923-.053.512-.101 1.024-.155 1.536a.65.65 0 0 1-.304.524.65.65 0 0 1-.867-.181.65.65 0 0 1-.117-.299 1 1 0 0 1 0-.211q.081-.768.164-1.534c.061-.57.118-1.14.179-1.709.05-.466.078-.934.156-1.395a3.24 3.24 0 0 1 1.22-2.029 4.7 4.7 0 0 1 1.651-.833 7.1 7.1 0 0 1 1.972-.29h.738zm-11.616 7.847a.657.657 0 0 1-.906.67.61.61 0 0 1-.379-.506 59 59 0 0 1-.139-1.186q-.101-.911-.196-1.814c-.052-.477-.11-.952-.152-1.429a2 2 0 0 0-.834-1.482 3.6 3.6 0 0 0-1.23-.585 6 6 0 0 0-1.664-.225c-.48 0-.96-.008-1.44.006a5.5 5.5 0 0 0-2.013.434 2.7 2.7 0 0 0-.942.659 1.84 1.84 0 0 0-.506 1.059l-.137 1.255-.182 1.709q-.081.784-.165 1.57a.6.6 0 0 1-.107.312.6.6 0 0 1-.252.213.65.65 0 0 1-.606-.024.65.65 0 0 1-.323-.514 1 1 0 0 1 0-.175q.089-.784.173-1.569c.061-.57.111-1.141.17-1.71.049-.466.076-.935.161-1.394a3.27 3.27 0 0 1 1.239-2.019 4.9 4.9 0 0 1 1.893-.884 7 7 0 0 1 1.666-.218c.551 0 1.101-.014 1.651 0a6.8 6.8 0 0 1 2.524.546 4.1 4.1 0 0 1 1.118.716 3.27 3.27 0 0 1 1.088 2.176c.054.559.124 1.113.186 1.672.054.488.101.977.159 1.464q.063.576.128 1.151a.6.6 0 0 1 .022.123m-5.138-25.359c.125.134.217.239.315.336q1.012 1.019 2.035 2.037.129.119.238.257a.61.61 0 0 1 .129.494.647.647 0 0 1-.736.528.65.65 0 0 1-.303-.132q-.122-.101-.23-.216l-2.062-2.06a.95.95 0 0 0-.331-.267.85.85 0 0 0-.322.257q-1.033 1.028-2.062 2.059-.108.115-.229.216a.647.647 0 0 1-.902-.074.65.65 0 0 1-.145-.297.62.62 0 0 1 .139-.524 2.5 2.5 0 0 1 .24-.256l2.035-2.037a.9.9 0 0 0 .264-.328.86.86 0 0 0-.26-.325 823 823 0 0 0-2.059-2.062 2 2 0 0 1-.237-.258.64.64 0 0 1 .342-1.012.54.54 0 0 1 .376.017 1.2 1.2 0 0 1 .391.292l2.087 2.085c.101.101.202.19.29.271.177-.006.249-.126.338-.212q.66-.654 1.316-1.316.421-.423.845-.843a1.6 1.6 0 0 1 .239-.202.633.633 0 0 1 .911.819 1.3 1.3 0 0 1-.238.304 291 291 0 0 1-1.637 1.64q-.274.271-.546.548c-.069.07-.128.151-.23.262m16.789.965a.9.9 0 0 0-.369.28 858 858 0 0 0-2.061 2.058q-.119.13-.258.237a.638.638 0 0 1-.861-.932q.1-.123.216-.23l2.059-2.06a.85.85 0 0 0 .259-.325.9.9 0 0 0-.265-.328q-1.052-1.058-2.109-2.11a1.05 1.05 0 0 1-.294-.429.59.59 0 0 1 .182-.636.56.56 0 0 1 .678-.113 1.6 1.6 0 0 1 .357.276c.699.691 1.391 1.388 2.088 2.083.101.101.202.189.29.27.177-.008.25-.127.338-.214q1.045-1.039 2.086-2.083a2.5 2.5 0 0 1 .284-.26.58.58 0 0 1 .527-.115.65.65 0 0 1 .476.554.7.7 0 0 1-.02.256.7.7 0 0 1-.101.212 2 2 0 0 1-.238.257l-2.059 2.061a.86.86 0 0 0-.261.327c.06.128.15.239.262.326q1.012 1.019 2.034 2.037.1.099.196.203a.68.68 0 0 1 .146.687.51.51 0 0 1-.382.375.68.68 0 0 1-.685-.157c-.067-.066-.134-.13-.202-.202q-1.003-1.006-2.01-2.012c-.093-.103-.199-.193-.304-.294"/><path fill="#EF5388" d="M126.875 20.519a3.384 3.384 0 0 1-3.412-3.355v-.047a3.4 3.4 0 0 1 5.799-2.404 3.4 3.4 0 0 1 .744 3.699 3.4 3.4 0 0 1-3.131 2.107m-2.125-3.375a2.08 2.08 0 0 0 1.267 1.932c.251.107.521.163.795.165h.036a2.08 2.08 0 0 0 1.482-.572 2.08 2.08 0 0 0 .643-1.452v-.084a2.1 2.1 0 0 0-.599-1.49 2.1 2.1 0 0 0-1.477-.63h-.038a2.125 2.125 0 0 0-2.108 2.125zm19.477-3.215a3.34 3.34 0 0 1 3.413 3.262v.137a3.374 3.374 0 0 1-3.361 3.389h-.041a3.385 3.385 0 0 1-3.396-3.375v-.057a3.34 3.34 0 0 1 3.32-3.356zm.026 5.495a2.1 2.1 0 0 0 1.485-.614 2.1 2.1 0 0 0 .617-1.484v-.044a2.08 2.08 0 0 0-1.289-1.925 2.1 2.1 0 0 0-.798-.158h-.042a2.086 2.086 0 0 0-2.102 2.067v.038a2.1 2.1 0 0 0 2.083 2.118h.046zm17.668 1.288a3.366 3.366 0 0 1-3.384-3.347v-.058a3.385 3.385 0 0 1 3.377-3.392h.055a3.4 3.4 0 0 1 3.204 2.063 3.4 3.4 0 0 1 .018 2.626 3.4 3.4 0 0 1-1.859 1.855 3.4 3.4 0 0 1-1.316.252zm.01-1.289a2.125 2.125 0 0 0 2.125-2.115 2.105 2.105 0 0 0-1.296-1.947 2.1 2.1 0 0 0-.805-.162h-.03a2.08 2.08 0 0 0-2.104 2.059v.038a2.1 2.1 0 0 0 .61 1.497 2.1 2.1 0 0 0 1.49.628h.009zm-35.87 2.176c.117 0 .235-.006.351 0a.641.641 0 0 1 .071 1.273q-.175.022-.35.014a5.8 5.8 0 0 0-1.923.354 3.4 3.4 0 0 0-.803.426 2.09 2.09 0 0 0-.888 1.565c-.086.86-.178 1.72-.266 2.58-.056.548-.101 1.095-.162 1.639a1.2 1.2 0 0 1-.077.338.63.63 0 0 1-.688.369.62.62 0 0 1-.53-.607q-.007-.175.011-.35c.059-.558.125-1.113.182-1.672.058-.559.107-1.113.166-1.674.038-.36.073-.721.129-1.078a3.26 3.26 0 0 1 1.394-2.187 5.1 5.1 0 0 1 2.024-.841 6.5 6.5 0 0 1 1.358-.15m32.793 7.554c.047-.558.093-1.093.135-1.628.035-.454.061-.911.101-1.363q.01-.227.074-.446a.63.63 0 0 1 .676-.401.63.63 0 0 1 .544.568 7 7 0 0 1-.024.736c-.033.467-.079.931-.113 1.399-.032.431-.055.863-.087 1.294a2.4 2.4 0 0 1-.059.381.62.62 0 0 1-.649.479.607.607 0 0 1-.594-.581c-.009-.154-.004-.306-.004-.436"/><path fill="#EF5388" d="M125.313 26.089q-.037.594-.079 1.19-.061.805-.126 1.609-.027.35-.067.699a.634.634 0 0 1-.634.586.66.66 0 0 1-.652-.614 1.3 1.3 0 0 1 0-.211q.029-.402.061-.805c.037-.442.079-.885.114-1.328q.044-.576.086-1.156c0-.058 0-.117.011-.175a.645.645 0 0 1 .673-.581.645.645 0 0 1 .613.644v.141zm15.84 3.094c.045-.543.091-1.066.132-1.59.035-.466.064-.932.101-1.399q.012-.227.067-.448a.63.63 0 0 1 .671-.434.63.63 0 0 1 .557.573 8 8 0 0 1-.024.77c-.03.442-.078.884-.111 1.327s-.056.886-.089 1.329a2.3 2.3 0 0 1-.061.381.62.62 0 0 1-.238.357.62.62 0 0 1-.412.119.61.61 0 0 1-.593-.583c-.003-.14 0-.276 0-.402m23.874-.014c0 .169.008.286 0 .405a.614.614 0 0 1-.539.555.63.63 0 0 1-.69-.415 1.5 1.5 0 0 1-.067-.343c-.057-.674-.101-1.348-.161-2.024-.032-.396-.076-.79-.114-1.184a.9.9 0 0 1 .052-.481.63.63 0 0 1 .688-.364.62.62 0 0 1 .533.526q.042.277.065.556c.056.674.101 1.348.162 2.024.021.266.051.531.072.746m-17.7.069c0 .091.008.209 0 .325a.615.615 0 0 1-.533.564.624.624 0 0 1-.708-.445 1.7 1.7 0 0 1-.058-.311c-.03-.361-.056-.723-.086-1.084l-.114-1.292c-.03-.338-.069-.675-.084-1.012a.645.645 0 0 1 1.214-.322.6.6 0 0 1 .061.202c.03.255.052.512.075.768q.058.628.113 1.258c.047.437.086.879.121 1.349M33.311 9.891a2 2 0 0 1-.044-.203c-.006-.101 0-.211 0-.316V5.51c.009-1.672.026-3.347.042-5.019 0-.374.033-.405.398-.405h4.881c.28.012.317.045.322.334v.948c0 .177-.056.221-.237.23h-3.064c-.426 0-.438.013-.439.429v1.861c.013.241.047.281.299.283.831.005 1.661 0 2.493 0h.316c.143.009.202.053.202.19q.011.561 0 1.123c0 .117-.058.164-.179.173-.093.007-.187.006-.28.006h-2.353c-.139 0-.278.008-.426.013a1 1 0 0 0-.063.212v2.28a.4.4 0 0 0 .025.095.35.35 0 0 0 .297.089h2.914c.14 0 .278.01.426.016q.045.101.068.209c.037.422.019.847-.052 1.264a.7.7 0 0 1-.368.044h-4.775c-.12.014-.247.008-.402.003m-24.223-4.2a.57.57 0 0 0-.091.38v1.895c0 .379.026.405.397.405h2.914a.8.8 0 0 1 .405.049 5 5 0 0 1 0 1.444.8.8 0 0 1-.369.039h-4.81a.8.8 0 0 1-.396-.048 2 2 0 0 1-.032-.195c-.006-.116 0-.234 0-.35L7.121.566c0-.48 0-.481.491-.482h4.669c.476 0 .478 0 .478.494v.808c0 .161-.051.203-.216.212-.093.006-.187 0-.281 0H9.347c-.314.008-.357.04-.359.338q-.002.966.008 1.931.013.127.05.249a.9.9 0 0 0 .442.057h2.424c.429 0 .429 0 .431.423v.843c0 .182-.048.221-.233.229H9.471zM29.063 9.87a10.5 10.5 0 0 1-1.822-.011 1 1 0 0 1-.038-.19c-.007-.116 0-.234 0-.35l.011-7.16c0-.128 0-.257-.013-.385a.164.164 0 0 0-.16-.158 3 3 0 0 0-.316-.013H24.86c-.218-.01-.259-.047-.265-.277-.007-.246 0-.492 0-.737q-.001-.158.013-.315a.16.16 0 0 1 .16-.156 2 2 0 0 1 .245-.009h6.319c.388 0 .392.007.396.392v.737c0 .355-.013.365-.382.365h-2.002c-.19.011-.241.061-.26.257q-.009.105-.006.211a4850 4850 0 0 0 .044 7.44.6.6 0 0 1-.059.36M16.572 8.33a.9.9 0 0 0 .463.067h2.351a.6.6 0 0 1 .368.052 5.2 5.2 0 0 1 0 1.407.7.7 0 0 1-.367.044h-4.356c-.115 0-.229-.011-.355-.017q-.027-.109-.042-.221c-.007-.082 0-.164 0-.246q0-4.439.01-8.878c0-.432 0-.432.422-.434h1.018q.123-.002.245.008a.17.17 0 0 1 .166.152q.016.121.016.243c.014 1.368.03 2.732.039 4.105.007 1.1 0 2.199.006 3.298-.002.145.014.282.014.421m6.417 1.539a10 10 0 0 1-1.794-.014 1.4 1.4 0 0 1-.038-.189c-.007-.093 0-.187 0-.28L21.169.55c0-.441 0-.442.448-.443h1.158c.202 0 .239.048.251.254v.175l.019 8.872a.95.95 0 0 1-.058.463m21.981 54.974c-.323 0-.741-.016-.959-.038a6.5 6.5 0 0 1-5.74-5.1 6.7 6.7 0 0 1 .741-5.067 6.7 6.7 0 0 1 1.749-1.938 6.69 6.69 0 0 1 7.425-.381 6.7 6.7 0 0 1 3.06 4.107l.049.202a6.69 6.69 0 0 1-5.197 8.068 7 7 0 0 1-1.126.148m-3.921-16.892c-.238-.167-2.965-2.891-3.158-3.157.035-.075.07-.16.115-.24a17.9 17.9 0 0 0 1.94-5.135 18 18 0 0 0 .339-2.429q.066-.84.048-1.684a18 18 0 0 0-14.85-17.288 14 14 0 0 0-2.226-.239c-.269 0-.537-.043-.809-.041A18 18 0 0 0 4.463 34.202a17 17 0 0 0-.036 2.561 17.8 17.8 0 0 0 3.022 8.972 17.4 17.4 0 0 0 1.96 2.429.6.6 0 0 0 .283.22c.122-.03.203-.14.289-.229a626 626 0 0 0 1.766-1.761l3.998-3.997c.101-.101.19-.203.273-.291a.66.66 0 0 0-.232-.334 8.9 8.9 0 0 1-1.954-3.415 8.8 8.8 0 0 1-.383-3.085 8.92 8.92 0 0 1 4.453-7.264 8.5 8.5 0 0 1 3.129-1.092 8.89 8.89 0 0 1 9.59 5.419 8.9 8.9 0 0 1 .646 3.874 8.74 8.74 0 0 1-1.368 4.298 7.5 7.5 0 0 1-1.069 1.344 408 408 0 0 0-3.054 3.054.8.8 0 0 0-.264.335q.046.071.101.135c.079.086.164.168.246.25l8.468 8.468a1.2 1.2 0 0 1 .271.309 20.9 20.9 0 0 1-5.667 2.722 22.3 22.3 0 0 1-11.857.344 21.93 21.93 0 0 1-10.166-5.566 22.36 22.36 0 0 1-5.389-24.265 22.4 22.4 0 0 1 4.688-7.361q.156-.162.314-.322a22.4 22.4 0 0 1 15.834-6.57A22.4 22.4 0 0 1 38.6 20.352a22.36 22.36 0 0 1 4.172 24.564 15.3 15.3 0 0 1-1.725 3.034m25.511 1.157a.8.8 0 0 0-.378.175 20.6 20.6 0 0 1-3.355 1.679 14.3 14.3 0 0 1-3.324.846 17 17 0 0 1-3.119.109 10.6 10.6 0 0 1-3.123-.607 7.04 7.04 0 0 1-4.06-3.718 10.4 10.4 0 0 1-.857-2.955 16 16 0 0 1-.15-2.45l.01-16.155c0-.164.005-.328 0-.492a1.34 1.34 0 0 1 1.18-1.239c.101-.01.211-.008.316-.008h7.798a2 2 0 0 1 .42.02 1.42 1.42 0 0 1 .958.708.9.9 0 0 1 .122.435c0 .187.01.375.01.562l.014 13.907a9 9 0 0 0 .108 1.573 3.5 3.5 0 0 0 .286.937 1.56 1.56 0 0 0 1.66.922 7.5 7.5 0 0 0 1.844-.419c.143-.051.277-.121.417-.182q.727-.302 1.455-.615c.129-.055.255-.118.382-.176a.28.28 0 0 0 .169-.28v-.421l.006-15.171v-.527a1.345 1.345 0 0 1 1.23-1.267c.116-.008.234-.005.351-.005h7.904a1.315 1.315 0 0 1 1.289 1.269v.421q0 11.853.008 23.706.001.228-.005.456a1.315 1.315 0 0 1-1.26 1.228h-6.182a1.7 1.7 0 0 1-.902-.24 1.15 1.15 0 0 1-.463-.512c-.202-.424-.411-.841-.619-1.26-.034-.082-.086-.16-.142-.255m38.832-6.978q.091.036.187.055c.116.006.234.005.351.005h7.902a1.38 1.38 0 0 1 1.3 1.316v6.569a1.35 1.35 0 0 1-1.281 1.291H91.79a1.315 1.315 0 0 1-1.295-1.266v-5.795a.43.43 0 0 1 .123-.317c.158-.173.304-.352.463-.528l4.857-5.549 3.517-4.016c.082-.093.19-.173.202-.297-.04-.086-.101-.082-.158-.084-.116-.005-.234 0-.351 0H92.76a2.4 2.4 0 0 1-.556-.049 1.28 1.28 0 0 1-.997-1.02 2.5 2.5 0 0 1-.055-.592c0-1.041.019-2.084.025-3.125.005-.925 0-1.85 0-2.775 0-.152.007-.303.011-.456a1.26 1.26 0 0 1 1.17-1.149c.128 0 .257-.006.387-.006h20.301c.128 0 .257.006.386.008a1.27 1.27 0 0 1 1.113.925 2.6 2.6 0 0 1 .07.556c.006 1.909 0 3.816.008 5.724a.7.7 0 0 1-.043.254.7.7 0 0 1-.137.218 916 916 0 0 0-3.005 3.34l-4.718 5.25c-.36.405-.722.799-1.081 1.2-.076.088-.142.18-.249.314M78.411 37.48V25.292q-.001-.246.006-.492a1.4 1.4 0 0 1 .344-.864.9.9 0 0 1 .699-.35h6.57a2.9 2.9 0 0 1 1.693.592q.139.107.259.236a.77.77 0 0 1 .245.597c-.008.304 0 .607 0 .911l.01 23.705c0 .187 0 .375-.01.562a1.4 1.4 0 0 1-.365.855.9.9 0 0 1-.708.332h-7.483a1.193 1.193 0 0 1-1.256-1.125v-.019c-.018-.186-.015-.374-.015-.562V37.475zm9.884-20.249a4.937 4.937 0 0 1-4.901 4.971h-.073a4.98 4.98 0 0 1-4.989-4.968v-.032a4.98 4.98 0 0 1 4.982-4.973 4.936 4.936 0 0 1 4.978 4.895 1 1 0 0 1 .003.107"/></svg>