<svg xmlns="http://www.w3.org/2000/svg" width="18" height="18" viewBox="0 0 18 18"><path fill-rule="evenodd" d="M8.981 4.5A8.9 8.9 0 0 1 9.837.693l.275-.614A8.946 8.946 0 0 0 0 8.31h.881a1 1 0 0 1 .2.023 8.99 8.99 0 0 1 6.99 8.534v1.086a9 9 0 0 0 .91.047 9.03 9.03 0 0 0 7.837-4.566l-.659-.124A9.04 9.04 0 0 1 8.981 4.5m2.922-4-.427.948a7.1 7.1 0 0 0-.695 3.052 7.23 7.23 0 0 0 5.729 7.045l1.054.2A8.97 8.97 0 0 0 11.903.5m1.586 7.6a.9.9 0 1 1 .9-.9.9.9 0 0 1-.9.9M.04 10.11h.733a7.18 7.18 0 0 1 5.491 6.78v.69A9.04 9.04 0 0 1 .04 10.11"/></svg>