<svg xmlns="http://www.w3.org/2000/svg" width="18" height="17.998" viewBox="0 0 18 17.998"><path fill-rule="evenodd" d="M2.7-.001h2.7a2.706 2.706 0 0 1 2.7 2.7v2.7a2.706 2.706 0 0 1-2.7 2.7H2.7a2.71 2.71 0 0 1-2.7-2.7v-2.7a2.71 2.71 0 0 1 2.7-2.7m0 9.9h2.7a2.706 2.706 0 0 1 2.7 2.7v2.7a2.706 2.706 0 0 1-2.7 2.7H2.7a2.71 2.71 0 0 1-2.7-2.7v-2.7a2.71 2.71 0 0 1 2.7-2.7m12.6 0h-2.7a2.706 2.706 0 0 0-2.7 2.7v2.7a2.706 2.706 0 0 0 2.7 2.7h2.7a2.71 2.71 0 0 0 2.7-2.7v-2.7a2.71 2.71 0 0 0-2.7-2.7m-2.7-9.9h2.7a2.71 2.71 0 0 1 2.7 2.7v2.7a2.71 2.71 0 0 1-2.7 2.7h-2.7a2.706 2.706 0 0 1-2.7-2.7v-2.7a2.706 2.706 0 0 1 2.7-2.7m.83 4.784a.9.9 0 1 0-.216-1.255.9.9 0 0 0 .216 1.255"/></svg>