<svg xmlns="http://www.w3.org/2000/svg" width="56" height="56" viewBox="0 0 56 56"><circle cx="28" cy="28" r="28" fill="#ffda45"/><path fill="#ffbc36" d="M39.222 53.658a28 28 0 0 0 16.771-25.14l-18.5-18.5-.064.58-2.715-2.715-19.968 21.3Z"/><path fill="#b9eaff" d="M20.739 36.6h18.344v5.724H16.99V36.6Z"/><path fill="#91cdff" d="M27.995 36.605h11.088v5.724H27.995z"/><path fill="#4d4d4d" d="M14.575 27.629c0-1.015.656-1.015.656-2.029s-.656-1.015-.656-2.029.656-1.015.656-2.03-.656-1.015-.656-2.03c0-.58.691-1.108.764-1.668s-.456-1.261-.31-1.808.953-.888 1.171-1.412-.113-1.333.172-1.826 1.15-.607 1.5-1.06.234-1.316.638-1.72 1.266-.289 1.72-.638.563-1.21 1.06-1.5 1.3.048 1.826-.172.856-1.022 1.412-1.171 1.235.384 1.808.31 1.084-.76 1.664-.76 1.108.691 1.668.764 1.261-.456 1.808-.31.888.953 1.412 1.171 1.333-.113 1.826.172.607 1.15 1.06 1.5 1.316.234 1.72.638.289 1.266.638 1.72 1.21.563 1.5 1.06-.048 1.3.172 1.826 1.022.856 1.171 1.412-.384 1.235-.31 1.808.764 1.088.764 1.668c0 1.014-.656 1.014-.656 2.028s.656 1.014.656 2.029-.656 1.015-.656 2.029.656 1.014.656 2.029Z"/><path fill="#333" d="M40.769 21.54c0-1.014.656-1.014.656-2.028 0-.58-.691-1.108-.764-1.668s.456-1.261.31-1.808-.953-.888-1.171-1.412.113-1.333-.172-1.826-1.15-.607-1.5-1.06-.234-1.316-.638-1.72-1.266-.289-1.72-.638-.563-1.21-1.06-1.5-1.3.048-1.826-.172-.856-1.022-1.412-1.171-1.235.384-1.808.31S28.58 6.086 28 6.086h-.005v21.542h13.43c0-1.014-.656-1.014-.656-2.029s.656-1.015.656-2.029-.656-1.016-.656-2.03"/><circle cx="3.175" cy="3.175" r="3.175" fill="#aa6e4d" transform="translate(13.98 23.94)"/><circle cx="3.175" cy="3.175" r="3.175" fill="#9b6043" transform="translate(35.669 23.94)"/><path fill="#aa6e4d" d="M28 56a27.88 27.88 0 0 0 17.417-6.077l-.692-6.364a3.576 3.576 0 0 0-3.109-3.159l-9.551-1.1v-5.725h-8.129v5.718l-9.551 1.1a3.576 3.576 0 0 0-3.109 3.161l-.692 6.364A27.88 27.88 0 0 0 28 56"/><path fill="#9b6043" d="m45.417 49.923-.692-6.364a3.576 3.576 0 0 0-3.109-3.159l-9.551-1.1v-5.725h-4.07V56H28a27.88 27.88 0 0 0 17.417-6.077"/><path fill="#c18761" d="M28 37.486a11.2 11.2 0 0 1-11.2-11.2v-6.4A11.2 11.2 0 0 1 28 8.686a11.2 11.2 0 0 1 11.2 11.2v6.4a11.2 11.2 0 0 1-11.2 11.2"/><path fill="#aa6e4d" d="M28 8.686h-.005v28.8H28a11.2 11.2 0 0 0 11.2-11.2v-6.4A11.2 11.2 0 0 0 28 8.686"/><path fill="#9b6043" d="M28 34.379a3.327 3.327 0 0 1-3.323-3.323h1.313a2.01 2.01 0 0 0 4.021 0h1.313A3.327 3.327 0 0 1 28 34.379"/><path fill="#7f462d" d="M30.01 31.056a2.013 2.013 0 0 1-2.01 2.01h-.005v1.313H28a3.327 3.327 0 0 0 3.323-3.323Z"/><path fill="#91cdff" d="M44.725 43.559a3.576 3.576 0 0 0-3.109-3.159l-9.059-1.05a5.159 5.159 0 0 1-9.115 0l-9.058 1.05a3.576 3.576 0 0 0-3.109 3.161l-.692 6.364a28 28 0 0 0 34.834 0Z"/><path fill="#1e8ce6" d="m45.417 49.923-.692-6.364a3.576 3.576 0 0 0-3.109-3.159l-9.059-1.05A5.16 5.16 0 0 1 28 42.091h-.005V56H28a27.88 27.88 0 0 0 17.417-6.077"/><path fill="#4d4d4d" d="M23.246 28.155a.89.89 0 0 1-.889-.889v-1.3a.89.89 0 0 1 .889-.889.89.89 0 0 1 .889.889v1.3a.89.89 0 0 1-.889.889"/><path fill="#333" d="M32.754 28.155a.89.89 0 0 1-.889-.889v-1.3a.89.89 0 0 1 .889-.889.89.89 0 0 1 .889.889v1.3a.89.89 0 0 1-.889.889"/><path fill="#4d4d4d" d="m35.853 10.859-1.386-.79a3.42 3.42 0 0 0-3.691-2.617l-4.546.485a12.206 12.206 0 0 0-10.911 12.138v3.011l1.012-.312v5.716a1.66 1.66 0 0 0 1.662 1.663v-.043a.84.84 0 0 1 .461-.736 1.02 1.02 0 0 0-.124-1.856.5.5 0 0 1-.321-.493v-.013a.51.51 0 0 1 .455-.478 1 1 0 0 0 .172-.037 1.02 1.02 0 0 0 .435-1.685.49.49 0 0 1-.041-.643l.01-.013a.49.49 0 0 1 .636-.126 1.02 1.02 0 0 0 1.524-.693 1 1 0 0 0-.008-.41.433.433 0 0 1 .277-.514l.031-.013a.45.45 0 0 1 .539.215 1.02 1.02 0 0 0 1.857-.147.5.5 0 0 1 .479-.328.5.5 0 0 1 .479.328 1.02 1.02 0 0 0 1.926-.009.46.46 0 0 1 .429-.319h.057a.46.46 0 0 1 .429.319 1.021 1.021 0 0 0 1.892.095.81.81 0 0 1 .584-.472l.051-.009a.9.9 0 0 1 .67.13 1.02 1.02 0 0 0 1.582-1.016.62.62 0 0 1 .14-.5v-.005a.68.68 0 0 1 .479-.233 1 1 0 0 0 .3-.066 1.03 1.03 0 0 0 .658-.843 1.02 1.02 0 0 0-.208-.735 1.24 1.24 0 0 1-.26-.76v-.005h.217a.365.365 0 0 1 .361.34 1 1 0 0 0 .05.241 1.03 1.03 0 0 0 .862.694 1.02 1.02 0 0 0 .909-.387.15.15 0 0 1 .207-.033l.024.018a.15.15 0 0 1 .023.215 1 1 0 0 0-.216.709 1.02 1.02 0 0 0 1.336.891.293.293 0 0 1 .361.177l.007.02a.294.294 0 0 1-.139.356 1.02 1.02 0 0 0 .058 1.8.65.65 0 0 1 .358.579.65.65 0 0 1-.358.579 1.021 1.021 0 0 0 .032 1.846.54.54 0 0 1 .327.484v.051a.54.54 0 0 1-.327.484 1.02 1.02 0 0 0-.212 1.733 1.48 1.48 0 0 1 .539 1.169v.146a1.66 1.66 0 0 0 1.663-1.663V17.428a7.56 7.56 0 0 0-3.812-6.569"/><path fill="#333" d="m35.853 10.859-1.386-.79a3.42 3.42 0 0 0-3.691-2.617l-2.782.3v15.155a1.02 1.02 0 0 0 1.588-.35.81.81 0 0 1 .584-.472l.051-.009a.9.9 0 0 1 .67.13 1.02 1.02 0 0 0 1.582-1.016.62.62 0 0 1 .14-.5v-.005a.68.68 0 0 1 .479-.233 1 1 0 0 0 .3-.066 1.03 1.03 0 0 0 .658-.843 1.02 1.02 0 0 0-.208-.735 1.24 1.24 0 0 1-.26-.76v-.005h.222a.365.365 0 0 1 .361.34 1 1 0 0 0 .05.241 1.03 1.03 0 0 0 .862.694 1.02 1.02 0 0 0 .909-.387.15.15 0 0 1 .207-.033l.024.018a.15.15 0 0 1 .023.215 1 1 0 0 0-.216.709 1.02 1.02 0 0 0 1.336.891.293.293 0 0 1 .361.177l.007.019a.294.294 0 0 1-.139.356 1.02 1.02 0 0 0 .058 1.8.647.647 0 0 1 0 1.158 1.021 1.021 0 0 0 .031 1.847.54.54 0 0 1 .327.484v.051a.54.54 0 0 1-.327.484 1.02 1.02 0 0 0-.212 1.733 1.48 1.48 0 0 1 .539 1.169v.146a1.66 1.66 0 0 0 1.663-1.663V17.428a7.56 7.56 0 0 0-3.811-6.569"/><path fill="#f1333f" d="M38.719 40.76a2.2 2.2 0 0 0-.121-.712l-6.041-.7a5.159 5.159 0 0 1-9.115 0l-6.419.742a1.5 1.5 0 0 0-.107.668c.283 1.964 11.078 8.747 11.078 8.747S38.719 43.4 38.719 40.76"/><path fill="#ae283f" d="m38.6 40.049-6.041-.7A5.16 5.16 0 0 1 28 42.091h-.005v7.416S38.719 43.4 38.719 40.76a2.2 2.2 0 0 0-.119-.711"/><path fill="#fff" d="M19.284 41.958a2.87 2.87 0 0 1-1.42-2.479 2.875 2.875 0 0 1 2.875-2.879H16.8a2.875 2.875 0 0 0-2.875 2.875 2.87 2.87 0 0 0 1.42 2.479l12.648 7.549-.128-.749a.6.6 0 0 0-.047-.152 7.73 7.73 0 0 0-3.129-3.477Z"/><path fill="#e0e0e0" d="M36.716 41.958a2.87 2.87 0 0 0 1.42-2.479 2.875 2.875 0 0 0-2.875-2.879H39.2a2.875 2.875 0 0 1 2.875 2.875 2.87 2.87 0 0 1-1.42 2.479l-12.66 7.553.138-.749a.6.6 0 0 1 .047-.152 7.73 7.73 0 0 1 3.129-3.477Z"/><path fill="#008cc3" d="M25.1 54.25a.656.656 0 0 1-.656-.656v-6.617a.656.656 0 0 1 1.313 0v6.617a.656.656 0 0 1-.657.656"/><path fill="#0074a3" d="M30.9 54.25a.656.656 0 0 1-.656-.656v-6.617a.656.656 0 0 1 1.313 0v6.617a.656.656 0 0 1-.657.656"/></svg>