<svg xmlns="http://www.w3.org/2000/svg" width="57" height="56" viewBox="0 0 57 56"><g transform="translate(.5)"><circle cx="28" cy="28" r="28" fill="#ff3f84"/><path fill="#983262" d="m18.9 33.7 20.066 20.07a28.01 28.01 0 0 0 17-24.517l-19.08-19.085Z"/><path fill="#ffda45" d="M28 37.322a13.254 13.254 0 0 1-13.254-13.254V20A13.254 13.254 0 0 1 28 6.748 13.254 13.254 0 0 1 41.254 20v4.065A13.254 13.254 0 0 1 28 37.322"/><path fill="#ffbc36" d="M28 6.748h-.005v30.574H28a13.254 13.254 0 0 0 13.254-13.254V20A13.254 13.254 0 0 0 28 6.748"/><path fill="#733c82" d="M28 8.286c-6.584 0-11.921 5.078-11.921 11.342v3.122c0-6.264 5.337-11.342 11.921-11.342s11.921 5.078 11.921 11.342v-3.122c0-6.264-5.337-11.342-11.921-11.342"/><path fill="#4b285a" d="M28 8.286h-.005v3.122H28c6.584 0 11.921 5.078 11.921 11.342v-3.122c0-6.264-5.337-11.342-11.921-11.342"/><circle cx="2.93" cy="2.93" r="2.93" fill="#ffcdbe" transform="translate(15.062 24.577)"/><circle cx="2.93" cy="2.93" r="2.93" fill="#faa68e" transform="translate(35.077 24.577)"/><path fill="#ffcdbe" d="M28 56a27.87 27.87 0 0 0 14.7-4.164l-1.02-9.328a3.3 3.3 0 0 0-2.869-2.918l-7.061-.844v-5.277h-7.5v5.277l-7.061.844a3.3 3.3 0 0 0-2.869 2.918l-1.02 9.328A27.87 27.87 0 0 0 28 56"/><path fill="#faa68e" d="m42.7 51.836-1.02-9.328a3.3 3.3 0 0 0-2.869-2.918l-7.061-.844v-5.277h-3.755V56H28a27.87 27.87 0 0 0 14.7-4.164"/><path fill="#ffdecf" d="M28 37.078a10.336 10.336 0 0 1-10.336-10.336v-5.906A10.336 10.336 0 0 1 28 10.5a10.336 10.336 0 0 1 10.336 10.336v5.906A10.336 10.336 0 0 1 28 37.078"/><path fill="#ffbeaa" d="M28 10.5h-.005v26.578H28a10.336 10.336 0 0 0 10.336-10.336v-5.906A10.336 10.336 0 0 0 28 10.5"/><path fill="#4d4d4d" d="M23.246 28.155a.89.89 0 0 1-.889-.889v-1.3a.89.89 0 0 1 .889-.889.89.89 0 0 1 .889.889v1.3a.89.89 0 0 1-.889.889"/><path fill="#333" d="M32.754 28.155a.89.89 0 0 1-.889-.889v-1.3a.89.89 0 0 1 .889-.889.89.89 0 0 1 .889.889v1.3a.89.89 0 0 1-.889.889"/><path fill="#ff6838" d="M28 34.262a3.12 3.12 0 0 1-3.117-3.117H26.2a1.8 1.8 0 0 0 3.609 0h1.313A3.12 3.12 0 0 1 28 34.262"/><path fill="#e86035" d="M29.8 31.145a1.807 1.807 0 0 1-1.8 1.8h-.005v1.313H28a3.12 3.12 0 0 0 3.117-3.117Z"/><path fill="#4b285a" d="M41.68 42.508a3.3 3.3 0 0 0-2.869-2.918l-4.554-.544a6.617 6.617 0 0 1-12.725.025l-4.343.519a3.3 3.3 0 0 0-2.869 2.918l-1.02 9.328a28.02 28.02 0 0 0 29.391 0Z"/><path fill="#330822" d="m42.7 51.836-1.02-9.328a3.3 3.3 0 0 0-2.869-2.918l-4.554-.544a6.62 6.62 0 0 1-6.262 4.813V56H28a27.87 27.87 0 0 0 14.7-4.164"/><path fill="#ffda45" d="M40.513 22.681a12.512 12.512 0 1 0-25.025 0h1.356V28a1.83 1.83 0 0 0 1.831 1.831v-3.747a3.4 3.4 0 0 1 3.4-3.4h11.847a3.4 3.4 0 0 1 3.4 3.4v3.749A1.83 1.83 0 0 0 39.156 28v-5.319Z"/><path fill="#ffbc36" d="M28 10.168h-.005v12.513h5.927a3.4 3.4 0 0 1 3.4 3.4v3.749A1.83 1.83 0 0 0 39.156 28v-5.319h1.356A12.51 12.51 0 0 0 28 10.168"/><path fill="#ff3f84" d="m20.182 39.232 3.866 5.4a2.12 2.12 0 0 0 3.5-.073l.451-.7-4.56-5.015Z"/><path fill="#983262" d="m35.818 39.232-3.866 5.4a2.12 2.12 0 0 1-3.5-.073l-.462-.7 4.571-5.015Z"/></g></svg>