<svg xmlns="http://www.w3.org/2000/svg" width="23.994" height="23.987" viewBox="0 0 23.994 23.987"><path d="M23.881 4.2a5.6 5.6 0 0 0-1.689-2.778A5.25 5.25 0 0 0 18.626 0H5.4a4 4 0 0 0-.676.044 5.43 5.43 0 0 0-3.366 1.87A5.35 5.35 0 0 0 0 5.531c.013 4.361.006 8.722.006 13.082a4 4 0 0 0 .044.676 5.58 5.58 0 0 0 2.884 4.073 4.8 4.8 0 0 0 2.058.626h13.953c.263-.05.538-.031.8-.106a5.66 5.66 0 0 0 3.629-2.828 4.86 4.86 0 0 0 .619-2.077V5.08a8 8 0 0 0-.112-.88m-5.562 17.917H5.706A3.77 3.77 0 0 1 1.9 18.35V5.662a3.73 3.73 0 0 1 3.768-3.773q6.344-.009 12.688 0a3.73 3.73 0 0 1 3.766 3.773q.009 6.335 0 12.663a3.737 3.737 0 0 1-3.803 3.792"/><path d="M12.951 10.3v7.114a.936.936 0 1 1-1.871.006c-.006-1.182 0-2.371 0-3.554v-3.58a.92.92 0 0 1 .726-.913.936.936 0 0 1 1.032.463.96.96 0 0 1 .113.464m.231-3.5a1.167 1.167 0 1 1-1.176-1.164A1.164 1.164 0 0 1 13.182 6.8"/></svg>