<svg xmlns="http://www.w3.org/2000/svg" width="14.635" height="17.996" viewBox="0 0 14.635 17.996"><path d="M10.619 4.338a4.07 4.07 0 0 1 3.559 1.8l-.092.058a2 2 0 0 0-.2.138l-.259.213a4 4 0 0 0-.3.294q-.15.161-.311.363a3 3 0 0 0-.294.455 5 5 0 0 0-.242.541 3.6 3.6 0 0 0-.173.639 4 4 0 0 0-.063.72 3.9 3.9 0 0 0 .248 1.4 3.5 3.5 0 0 0 .566 1.022 4.7 4.7 0 0 0 .708.679 4.3 4.3 0 0 0 .587.4 2 2 0 0 0 .282.127 3 3 0 0 1-.121.4q-.109.311-.415.95a8.6 8.6 0 0 1-.7 1.2q-.357.518-.6.829a8 8 0 0 1-.61.679 2.6 2.6 0 0 1-.754.541 2 2 0 0 1-.823.173 3.6 3.6 0 0 1-1.409-.349 3.8 3.8 0 0 0-1.532-.362 4.1 4.1 0 0 0-1.6.374 3.8 3.8 0 0 1-1.4.374 1.9 1.9 0 0 1-.76-.161 2.5 2.5 0 0 1-.731-.53 8 8 0 0 1-.628-.7q-.259-.328-.674-.9a10.7 10.7 0 0 1-1.347-2.782 10.1 10.1 0 0 1-.53-3.184 6.5 6.5 0 0 1 .392-2.3 4.8 4.8 0 0 1 1.031-1.693 4.6 4.6 0 0 1 1.434-1.011 4.1 4.1 0 0 1 1.657-.354 4.6 4.6 0 0 1 1.624.392 4.6 4.6 0 0 0 1.3.392 2.3 2.3 0 0 0 .789-.207q.512-.207 1.157-.415a4 4 0 0 1 1.234-.2Zm-.645-1.474a3.6 3.6 0 0 1-1.14.916 2.8 2.8 0 0 1-1.3.363 1.2 1.2 0 0 1-.242-.023 1.3 1.3 0 0 1-.034-.323 3.3 3.3 0 0 1 .28-1.307 4.3 4.3 0 0 1 .708-1.134A3.9 3.9 0 0 1 9.472.4a3.4 3.4 0 0 1 1.422-.4 1.7 1.7 0 0 1 .035.357 3.85 3.85 0 0 1-.955 2.507"/></svg>