<svg xmlns="http://www.w3.org/2000/svg" width="375" height="518.1" viewBox="0 0 375 518.1"><g fill="#fff" opacity=".1"><path d="m277.91.001-86.06 267.23-.01.03.01-.08L243.08.001Zm80.01 0-11.23 18.09-154.73 249.13-.05.07L315.63.121l.06-.12ZM375 128.631v32.38l-183.07 106.34Zm-171.35 353.67q-8.265-.51-16.57-.51-4.845 0-9.68.18l1.36-20.17 13.04-193.86.01-.18v-.15l.01.21Zm-11.91-214.87-.26.11L0 349.441v-26.48l191.6-55.49Zm.04-.06L0 201.931v-27.45l173.14 83.89Zm-.02-.05L0 143.531v-36.26Zm-.01-.03L0 62.781V4.911l17.76 24.3Zm.06.04-61.04-109.41-81.86-146.72-6.24-11.2h40.29Zm0-.04L119.44.001h34.11Zm-.07.21-.13.16L5.63 498.621 0 505.611v-51.96l191.66-186.08Zm.04-.13L0 251.111v-23.95l120.23 25.22Z"/><path d="M251.88 488.751c-9.46-1.92-19.16-3.53-29-4.71l-31.04-216.47v.15l-.02.1-.02.12-41.5 216.23c-10.15 1.25-20.14 2.95-29.85 4.98l71.38-221.68-.05.05-106.77 230.57c-17.6 5.19-33.46 10.96-46.58 16.24l153.18-246.67.05-.09.05-.07L0 412.741v-33.94l191.48-111.26.12-.07.14-.08L0 298.271v-23.7l69.85-2.62 121.93-4.58h.14l.01.02v.01l.01.06.01.01.05.18.01.04.07.29.1.35Z"/><path d="M327.61 510.961c-12.43-4.72-26.76-9.65-42.35-14.07l-93.08-228.56-.27-.67.17.32ZM209.83.001l-17.98 267.18v.05l-.01.12v-.09L177.1.001ZM375 462.811v55.29l-9.09-12.45-173.9-237.96-.1-.13.09.09Zm0-77.14v34.58l-183.05-152.78Zm0-55.73v26.2l-85.63-41.48-97.42-47.19 141.34 48.23Zm0-47.02v22.91l-118.94-24.97-64.13-13.46Zm0-45.04v22.63l-171.21 6.42-11.8.46.17-.08Zm-182.79 29.41L375 189.101v25.25ZM375 39.931v49.64l-183.09 177.77h-.04l.04-.05.05-.07Z"/><path d="m191.83 267.291.01-.03v.01Zm0 .18.08.19-.08-.14Z"/></g></svg>