<svg xmlns="http://www.w3.org/2000/svg" width="60" height="60" viewBox="0 0 60 60"><path d="M2.188 45.674v4.587c0 3.792 9.238 6.875 20.625 6.875s20.625-3.083 20.625-6.875v-4.587c-4.437 3.126-12.547 4.587-20.625 4.587S6.625 48.8 2.188 45.674m34.375-29.788c11.387 0 20.625-3.083 20.625-6.875S47.95 2.136 36.563 2.136 15.938 5.219 15.938 9.011s9.238 6.875 20.625 6.875M2.188 34.406v5.543c0 3.792 9.238 6.875 20.625 6.875s20.625-3.088 20.625-6.875v-5.543c-4.437 3.652-12.558 5.543-20.625 5.543S6.625 38.058 2.188 34.406m44.688 1.182c6.155-1.193 10.312-3.406 10.312-5.952v-4.587c-2.492 1.762-6.155 2.965-10.312 3.706ZM22.813 19.324c-11.387 0-20.625 3.845-20.625 8.593s9.238 8.594 20.625 8.594 20.625-3.846 20.625-8.594-9.238-8.593-20.625-8.593m23.558 6.048c6.445-1.161 10.817-3.436 10.817-6.048v-4.588c-3.813 2.7-10.366 4.146-17.263 4.49 3.169 1.537 5.5 3.599 6.446 6.145Z"/></svg>