<svg xmlns="http://www.w3.org/2000/svg" width="92" height="92" viewBox="0 0 92 92"><path fill="#45536d" d="M46 76.489c17.782 0 32.286-1.969 32.286-4.383S63.786 67.723 46 67.723s-32.285 1.969-32.285 4.383 14.5 4.383 32.285 4.383"/><path fill="#ffd112" d="M34.573 60.749c-9.213 0-16.683 1.614-16.683 3.6v5.125c0 1.99 7.469 3.6 16.683 3.6s16.683-1.614 16.683-3.6v-5.125c0-1.991-7.469-3.6-16.683-3.6"/><path fill="#fff" d="M17.952 64.042a.9.9 0 0 0-.062.311v5.125a1.27 1.27 0 0 0 .578.943v-4.367a16 16 0 0 0 5.278 1.228l-4.413-3.591Z"/><path fill="#f2a500" d="M34.574 61.017c-2.157 0-4.321.086-6.469.282a44 44 0 0 0-5.271.767c-.677.146-1.353.316-2.012.527a10 10 0 0 0-1.5.6 2.6 2.6 0 0 0-1.1.9l.109-.013 5.344 1.723.794 1.611a43 43 0 0 0 5.451 1.13c1.207.669 1.52 3.178-.547 3.389a29.5 29.5 0 0 1-9.315-.957q.379.148.761.268c.659.211 1.336.381 2.012.527a44 44 0 0 0 5.271.768c2.148.2 4.312.282 6.469.282s4.321-.086 6.469-.282a44 44 0 0 0 5.271-.768 21 21 0 0 0 2.012-.527 10 10 0 0 0 1.5-.6c.389-.2 1.165-.648 1.165-1.165v-5.125c0-.516-.776-.966-1.165-1.165a10 10 0 0 0-1.5-.6 21 21 0 0 0-2.012-.527 44 44 0 0 0-5.271-.767 70 70 0 0 0-6.469-.282"/><path fill="#b33d2f" d="M34.573 60.934a58.5 58.5 0 0 0-11.758 1.052c-2.929.633-4.74 1.472-4.74 2.368v5.125c0 .9 1.812 1.736 4.74 2.368a66.3 66.3 0 0 0 23.515 0c2.929-.633 4.74-1.472 4.74-2.368v-5.125c0-.9-1.812-1.736-4.74-2.368a58.5 58.5 0 0 0-11.758-1.052m-11.836.691a66.6 66.6 0 0 1 23.671 0c3.109.672 5.032 1.634 5.032 2.729v5.125c0 1.094-1.923 2.057-5.032 2.729a66.6 66.6 0 0 1-23.671 0c-3.109-.672-5.032-1.635-5.032-2.729v-5.125c0-1.095 1.923-2.057 5.032-2.729"/><path fill="#ffd112" d="M34.573 67.958c9.189 0 16.683-1.619 16.683-3.6s-7.494-3.6-16.683-3.6-16.683 1.619-16.683 3.6 7.494 3.6 16.683 3.6"/><path fill="#fff" d="M21.667 62.069c-2.36.622-3.777 1.417-3.777 2.284a.9.9 0 0 0 .092.38l.209.012c-.125-.768.654-1.471 2.664-1.919.271-.266.541-.51.812-.758"/><path fill="#f2a500" d="M18.666 65.11a4.3 4.3 0 0 0 .658.407 10 10 0 0 0 1.5.6c.66.211 1.336.381 2.012.527a44 44 0 0 0 5.271.768c2.148.2 4.312.282 6.469.282s4.321-.086 6.469-.282a44 44 0 0 0 5.266-.774 21 21 0 0 0 2.012-.527 10 10 0 0 0 1.5-.6c.389-.2 1.165-.649 1.165-1.164s-.776-.966-1.165-1.165a10 10 0 0 0-1.5-.6 21 21 0 0 0-2.012-.527 41 41 0 0 0-4.093-.649q.485.142.959.312a8 8 0 0 1 1.315.6c.342.2 1.023.648 1.023 1.165s-.681.966-1.023 1.165a8 8 0 0 1-1.315.6 17 17 0 0 1-1.767.526 34 34 0 0 1-4.628.768 57.4 57.4 0 0 1-11.361 0 34 34 0 0 1-4.628-.768 17 17 0 0 1-1.767-.526q-.181-.066-.363-.139"/><path fill="#b33d2f" d="M34.573 60.934a58.5 58.5 0 0 0-11.758 1.052c-2.929.633-4.74 1.472-4.74 2.368s1.812 1.736 4.74 2.368a66.3 66.3 0 0 0 23.515 0c2.929-.633 4.74-1.472 4.74-2.368s-1.812-1.736-4.74-2.368a58.5 58.5 0 0 0-11.758-1.052m-11.836.691a66.6 66.6 0 0 1 23.671 0c3.109.672 5.032 1.634 5.032 2.729s-1.923 2.058-5.032 2.729a66.6 66.6 0 0 1-23.671 0c-3.109-.672-5.032-1.635-5.032-2.729s1.923-2.057 5.032-2.729m11.652 7.362a.185.185 0 0 1 .37 0v3.067a.185.185 0 1 1-.37 0Zm-14.534-1.985a.185.185 0 1 1 .37 0v3.136a.185.185 0 1 1-.37 0Zm2.907.847a.185.185 0 0 1 .37 0v3.163a.185.185 0 0 1-.37 0Zm2.907.539a.185.185 0 1 1 .37 0v3.132a.185.185 0 0 1-.37 0Zm2.906.344a.185.185 0 1 1 .37 0v3.1a.185.185 0 1 1-.37 0Zm2.907.193a.185.185 0 1 1 .37 0v3.078a.185.185 0 1 1-.37 0Zm17.441-1.923a.185.185 0 1 1 .37 0v3.136a.185.185 0 1 1-.37 0Zm-2.907.847a.185.185 0 0 1 .37 0v3.163a.185.185 0 1 1-.37 0Zm-2.907.539a.185.185 0 1 1 .37 0v3.132a.185.185 0 0 1-.37 0Zm-2.906.344a.185.185 0 1 1 .37 0v3.1a.185.185 0 1 1-.37 0Zm-2.907.193a.185.185 0 1 1 .37 0v3.078a.185.185 0 1 1-.37 0Z"/><path fill="#ffd112" d="M37.724 54.932c-9.214 0-16.683 1.614-16.683 3.6v5.125c0 1.991 7.469 3.6 16.683 3.6s16.683-1.614 16.683-3.6v-5.125c0-1.991-7.469-3.6-16.683-3.6"/><path fill="#fff" d="M21.041 61.562v2.1a1.4 1.4 0 0 0 .726 1.055l.231-.05c-.554-.594-.671-1.111-.772-3.105Z"/><path fill="#f2a500" d="M37.722 55.2c-2.157 0-4.321.086-6.469.282a44 44 0 0 0-5.271.767c-.677.146-1.353.316-2.012.527a10 10 0 0 0-1.5.6c-.389.2-1.165.648-1.165 1.165v2.672a30.8 30.8 0 0 0 8.27 1.18c0 .453.667 2.818-1.242 3.011a12.05 12.05 0 0 1-6.212-.775c.128.079.251.145.349.2a10 10 0 0 0 1.5.6c.659.211 1.336.381 2.012.527a44 44 0 0 0 5.271.768c2.148.2 4.312.282 6.469.282s4.321-.086 6.469-.282a44 44 0 0 0 5.271-.768 22 22 0 0 0 2.012-.527 10 10 0 0 0 1.5-.6c.389-.2 1.165-.648 1.165-1.164v-5.126c0-.516-.776-.966-1.165-1.165a10 10 0 0 0-1.5-.6 22 22 0 0 0-2.012-.527 44 44 0 0 0-5.271-.767 70 70 0 0 0-6.469-.282"/><path fill="#b33d2f" d="M37.724 55.118a58.5 58.5 0 0 0-11.758 1.052c-2.929.633-4.74 1.472-4.74 2.368v5.126c0 .9 1.812 1.735 4.74 2.368a66.3 66.3 0 0 0 23.515 0c2.929-.633 4.741-1.473 4.741-2.368v-5.125c0-.9-1.812-1.735-4.741-2.368a58.5 58.5 0 0 0-11.758-1.052m-11.836.69a66.6 66.6 0 0 1 23.671 0c3.109.672 5.032 1.635 5.032 2.729v5.126c0 1.095-1.923 2.057-5.032 2.729a66.6 66.6 0 0 1-23.671 0c-3.109-.672-5.032-1.634-5.032-2.729v-5.125c0-1.094 1.923-2.058 5.032-2.729"/><path fill="#f2a500" d="M37.724 62.141c9.188 0 16.683-1.619 16.683-3.6s-7.494-3.6-16.683-3.6-16.683 1.619-16.683 3.6 7.494 3.6 16.683 3.6"/><path fill="#b33d2f" d="M37.724 55.118a58.5 58.5 0 0 0-11.758 1.052c-2.929.633-4.74 1.472-4.74 2.368s1.812 1.736 4.74 2.368a66.3 66.3 0 0 0 23.515 0c2.929-.633 4.741-1.472 4.741-2.368s-1.812-1.735-4.741-2.368a58.5 58.5 0 0 0-11.758-1.052m-11.836.69a66.6 66.6 0 0 1 23.671 0c3.109.672 5.032 1.635 5.032 2.729s-1.923 2.057-5.032 2.729a66.6 66.6 0 0 1-23.671 0c-3.109-.672-5.032-1.634-5.032-2.729s1.923-2.058 5.032-2.729m11.652 7.362a.185.185 0 1 1 .37 0v3.067a.185.185 0 1 1-.37 0Zm-14.534-1.985a.185.185 0 0 1 .37 0v3.136a.185.185 0 1 1-.37 0Zm2.907.847a.185.185 0 1 1 .37 0v3.164a.185.185 0 1 1-.37 0Zm2.907.538a.185.185 0 0 1 .37 0v3.132a.185.185 0 0 1-.37 0Zm2.907.344a.185.185 0 0 1 .37 0v3.1a.185.185 0 1 1-.37 0Zm2.907.194a.185.185 0 1 1 .37 0v3.078a.185.185 0 1 1-.37 0Zm17.44-1.923a.185.185 0 0 1 .37 0v3.137a.185.185 0 0 1-.37 0Zm-2.907.847a.185.185 0 0 1 .37 0v3.164a.185.185 0 1 1-.37 0Zm-2.907.538a.185.185 0 0 1 .37 0v3.132a.185.185 0 0 1-.37 0Zm-2.907.344a.185.185 0 0 1 .37 0v3.1a.185.185 0 1 1-.37 0Zm-2.907.194a.185.185 0 1 1 .37 0v3.078a.185.185 0 0 1-.37 0Z"/><path fill="#ffd112" d="M30.862 48.979c-9.214 0-16.683 1.614-16.683 3.6v5.125c0 1.99 7.469 3.6 16.683 3.6s16.683-1.615 16.683-3.6v-5.125c0-1.991-7.469-3.6-16.683-3.6"/><path fill="#fff" d="M16.481 50.756c-1.462.536-2.3 1.161-2.3 1.828v5.125a1.31 1.31 0 0 0 .629.984v-4.2a35.2 35.2 0 0 0 13.509 1.843Z"/><path fill="#f2a500" d="M29.319 54.841h6.765v5.317l-7.946-.591c.767-.21 1.244-.756 1.18-1.932Z"/><path fill="#f2a500" d="M30.861 49.247c-2.157 0-4.321.086-6.469.282a44 44 0 0 0-5.271.768 22 22 0 0 0-2.012.526 10 10 0 0 0-1.5.6c-.389.2-1.165.648-1.165 1.165v.572a7 7 0 0 1 .958-.375c.445-.142.9-.257 1.359-.356a30 30 0 0 1 3.559-.518c1.451-.133 2.912-.191 4.368-.191s2.918.058 4.369.191a30 30 0 0 1 3.559.518c.457.1.913.214 1.359.356a7 7 0 0 1 1.011.4c.263.134.787.438.787.786v3.461c0 .348-.524.652-.787.786a7 7 0 0 1-1.011.4c-.445.142-.9.257-1.359.356a30 30 0 0 1-3.559.518c-1.451.133-2.912.191-4.369.191s-2.918-.058-4.368-.191a30 30 0 0 1-3.559-.518 15 15 0 0 1-1.359-.356 7 7 0 0 1-.463-.161 4.3 4.3 0 0 0 .671.417 10 10 0 0 0 1.5.6c.66.211 1.335.381 2.012.527a44 44 0 0 0 5.271.768c2.148.2 4.312.282 6.469.282s4.321-.086 6.469-.282a44 44 0 0 0 5.271-.768 21 21 0 0 0 2.012-.527 10 10 0 0 0 1.5-.6c.389-.2 1.165-.648 1.165-1.164v-5.125c0-.516-.776-.966-1.165-1.165a10 10 0 0 0-1.5-.6 22 22 0 0 0-2.012-.526 44 44 0 0 0-5.271-.768 70 70 0 0 0-6.469-.282"/><path fill="#b33d2f" d="M30.862 49.164a58.5 58.5 0 0 0-11.758 1.051c-2.929.633-4.741 1.472-4.741 2.369v5.125c0 .9 1.812 1.735 4.741 2.368a66.2 66.2 0 0 0 23.515 0c2.929-.633 4.74-1.472 4.74-2.368v-5.123c0-.9-1.812-1.736-4.74-2.369a58.5 58.5 0 0 0-11.758-1.051m-11.836.69a66.6 66.6 0 0 1 23.671 0c3.109.672 5.032 1.635 5.032 2.73v5.125c0 1.1-1.923 2.057-5.032 2.729a66.6 66.6 0 0 1-23.671 0c-3.109-.672-5.032-1.634-5.032-2.729v-5.125c0-1.095 1.923-2.058 5.032-2.73"/><path fill="#ffd112" d="M30.862 56.189c9.189 0 16.683-1.619 16.683-3.6s-7.494-3.6-16.683-3.6-16.683 1.619-16.683 3.6 7.494 3.6 16.683 3.6"/><path fill="#fff" d="M20.475 49.763c-3.837.66-6.3 1.678-6.3 2.821a.9.9 0 0 0 .125.441l.237.042c-.226-.919 1.259-2.034 4.681-2.525.368.155.735.411 1.1.566Z"/><path fill="#f2a500" d="M14.931 53.324a4 4 0 0 0 .681.425 10 10 0 0 0 1.5.6c.659.211 1.335.381 2.012.527a44 44 0 0 0 5.271.767c2.148.2 4.313.282 6.469.282s4.321-.086 6.469-.282a44 44 0 0 0 5.271-.767 21 21 0 0 0 2.012-.527 10 10 0 0 0 1.5-.6c.389-.2 1.165-.648 1.165-1.164s-.776-.966-1.165-1.165a10 10 0 0 0-1.5-.6c-.66-.21-1.336-.38-2.012-.526a39 39 0 0 0-3.33-.558q.477.123.944.271a9 9 0 0 1 1.387.552c.36.184 1.078.6 1.078 1.078s-.718.894-1.078 1.078a9 9 0 0 1-1.387.551c-.61.2-1.236.352-1.863.488a41 41 0 0 1-4.879.711c-1.989.182-3.992.261-5.989.261s-4-.079-5.989-.261a41 41 0 0 1-4.879-.711 21 21 0 0 1-1.688-.433"/><path fill="#b33d2f" d="M30.862 49.164a58.5 58.5 0 0 0-11.758 1.051c-2.929.633-4.741 1.472-4.741 2.369s1.812 1.736 4.741 2.368a66.3 66.3 0 0 0 23.515 0c2.929-.633 4.74-1.473 4.74-2.368s-1.812-1.736-4.74-2.369a58.5 58.5 0 0 0-11.758-1.051m-11.836.69a66.6 66.6 0 0 1 23.671 0c3.109.672 5.032 1.635 5.032 2.73s-1.923 2.057-5.032 2.729a66.6 66.6 0 0 1-23.671 0c-3.109-.672-5.032-1.634-5.032-2.729s1.923-2.058 5.032-2.73m11.652 7.363a.185.185 0 0 1 .37 0v3.067a.185.185 0 0 1-.37 0Zm-14.534-1.985a.185.185 0 0 1 .37 0v3.137a.185.185 0 0 1-.37 0Zm2.907.847a.185.185 0 0 1 .37 0v3.163a.185.185 0 1 1-.37 0Zm2.907.538a.185.185 0 1 1 .37 0v3.132a.185.185 0 0 1-.37 0Zm2.907.344a.185.185 0 0 1 .37 0v3.1a.185.185 0 1 1-.37 0Zm2.907.193a.185.185 0 1 1 .37 0v3.079a.185.185 0 1 1-.37 0Zm17.441-1.923a.185.185 0 1 1 .37 0v3.137a.185.185 0 1 1-.37 0Zm-2.907.847a.185.185 0 0 1 .37 0v3.163a.185.185 0 1 1-.37 0Zm-2.907.538a.185.185 0 0 1 .37 0v3.132a.185.185 0 0 1-.37 0Zm-2.907.344a.185.185 0 0 1 .37 0v3.1a.185.185 0 1 1-.37 0Zm-2.907.193a.185.185 0 1 1 .37 0v3.079a.185.185 0 0 1-.37 0Z"/><path fill="#ffd112" d="M36.09 43.082c-9.214 0-16.683 1.614-16.683 3.6v5.125c0 1.991 7.469 3.6 16.683 3.6s16.683-1.614 16.683-3.6v-5.125c0-1.991-7.469-3.6-16.683-3.6"/><path fill="#fff" d="M19.407 46.805v5.01a1.23 1.23 0 0 0 .537.91v-4.35c3.453 1.8 7.96 2.045 12.72 2.028l-11.8-4.075Z"/><path fill="#f2a500" d="M34.664 55.406q.7.013 1.424.013c9.214 0 16.683-1.614 16.683-3.6v-5.125c0-1.117-2.351-2.115-6.041-2.776H33.953v7.519a2.554 2.554 0 0 1-2.152 2.719 4.48 4.48 0 0 1 2.863 1.254"/><path fill="#f2a500" d="M20.024 52.439a3.8 3.8 0 0 0 .816.54 10 10 0 0 0 1.5.6c.659.211 1.335.381 2.012.527a44 44 0 0 0 5.271.767c2.148.2 4.312.282 6.469.282s4.321-.086 6.469-.282a44 44 0 0 0 5.27-.767 21 21 0 0 0 2.012-.527 10 10 0 0 0 1.5-.6c.389-.2 1.165-.648 1.165-1.164V46.69c0-.516-.776-.966-1.165-1.164a9 9 0 0 0-.982-.421.9.9 0 0 1 .349.625v5.125c0 .516-.776.966-1.165 1.164a10 10 0 0 1-1.5.6c-.66.211-1.336.381-2.012.527a44 44 0 0 1-5.271.768c-2.148.2-4.312.282-6.469.282s-4.321-.086-6.469-.282a44 44 0 0 1-5.271-.768 21 21 0 0 1-2.012-.527 13 13 0 0 1-.516-.176"/><path fill="#b33d2f" d="M36.09 43.27a58.5 58.5 0 0 0-11.758 1.051c-2.929.633-4.74 1.472-4.74 2.368v5.125c0 .9 1.811 1.735 4.74 2.368a66.3 66.3 0 0 0 23.515 0c2.929-.633 4.74-1.472 4.74-2.368v-5.125c0-.9-1.811-1.736-4.74-2.368a58.5 58.5 0 0 0-11.758-1.051m-11.835.69a66.6 66.6 0 0 1 23.671 0c3.109.672 5.032 1.635 5.032 2.729v5.125c0 1.095-1.923 2.057-5.032 2.729a66.6 66.6 0 0 1-23.671 0c-3.109-.672-5.032-1.634-5.032-2.729v-5.125c0-1.095 1.923-2.058 5.032-2.729"/><path fill="#ffd112" d="M36.09 50.293c9.189 0 16.683-1.619 16.683-3.6s-7.494-3.6-16.683-3.6-16.683 1.619-16.683 3.6 7.494 3.6 16.683 3.6"/><path fill="#fff" d="M23.355 44.361c-2.462.628-3.948 1.441-3.948 2.328a.8.8 0 0 0 .023.191l.162.053c.259-.839 1.365-1.411 3.3-1.723Z"/><path fill="#f2a500" d="M19.815 47.081a3 3 0 0 0 1.024.772 10 10 0 0 0 1.5.6c.659.211 1.336.381 2.012.527a44 44 0 0 0 5.271.768c2.148.2 4.312.282 6.469.282s4.321-.086 6.469-.282a44 44 0 0 0 5.27-.768 21 21 0 0 0 2.012-.527 10 10 0 0 0 1.5-.6c.389-.2 1.165-.648 1.165-1.164s-.776-.966-1.165-1.165a9 9 0 0 0-.946-.408.7.7 0 0 1 .141.393c0 .516-.776.966-1.165 1.164a10 10 0 0 1-1.5.6c-.659.211-1.336.381-2.012.527a44 44 0 0 1-5.271.768c-2.148.2-4.313.282-6.469.282s-4.321-.086-6.469-.282a44 44 0 0 1-5.271-.768 22 22 0 0 1-2.012-.527 15 15 0 0 1-.551-.188"/><path fill="#b33d2f" d="M36.09 43.27a58.5 58.5 0 0 0-11.758 1.051c-2.929.633-4.74 1.472-4.74 2.368s1.811 1.735 4.74 2.368a66.3 66.3 0 0 0 23.515 0c2.929-.633 4.74-1.472 4.74-2.368s-1.811-1.736-4.74-2.368a58.5 58.5 0 0 0-11.758-1.051m-11.835.69a66.6 66.6 0 0 1 23.671 0c3.109.672 5.032 1.635 5.032 2.729s-1.923 2.058-5.032 2.729a66.6 66.6 0 0 1-23.671 0c-3.109-.672-5.032-1.635-5.032-2.729s1.923-2.058 5.032-2.729m11.649 7.363a.185.185 0 0 1 .37 0v3.068a.185.185 0 1 1-.37 0Zm-14.534-1.985a.185.185 0 1 1 .37 0v3.137a.185.185 0 1 1-.37 0Zm2.907.847a.185.185 0 0 1 .37 0v3.164a.185.185 0 1 1-.37 0Zm2.907.538a.185.185 0 0 1 .37 0v3.132a.185.185 0 0 1-.37 0Zm2.907.344a.185.185 0 1 1 .37 0v3.1a.185.185 0 0 1-.37 0Zm2.907.193a.185.185 0 1 1 .37 0v3.079a.185.185 0 1 1-.37 0Zm17.441-1.923a.185.185 0 1 1 .37 0v3.137a.185.185 0 1 1-.37 0Zm-2.907.847a.185.185 0 0 1 .37 0v3.164a.185.185 0 1 1-.37 0Zm-2.907.538a.185.185 0 0 1 .37 0v3.132a.185.185 0 1 1-.37 0Zm-2.907.344a.185.185 0 1 1 .37 0v3.1a.185.185 0 1 1-.37 0Zm-2.907.193a.185.185 0 0 1 .37 0v3.079a.185.185 0 0 1-.37 0Z"/><path fill="#ffd112" d="M38.226 36.196c-9.214 0-16.683 1.614-16.683 3.6v5.125c0 1.991 7.469 3.6 16.683 3.6s16.683-1.614 16.683-3.6v-5.125c0-1.991-7.469-3.6-16.683-3.6"/><path fill="#fff" d="M21.905 39.051a1.1 1.1 0 0 0-.362.75v5.125a1.32 1.32 0 0 0 .637.99v-4.3c6.525 2.6 14.81 2.809 24.4 1.494l.182-.872-16.442-4.264-.082-.007Z"/><path fill="#f2a500" d="m24.288 46.628.187.061c.659.211 1.335.38 2.012.527a44 44 0 0 0 5.271.767c2.148.2 4.312.282 6.469.282s4.321-.086 6.469-.282a44 44 0 0 0 5.271-.767 21 21 0 0 0 2.012-.527 10 10 0 0 0 1.5-.6c.389-.2 1.165-.648 1.165-1.165v-5.125c0-.516-.776-.966-1.165-1.165a10 10 0 0 0-1.5-.6 22 22 0 0 0-2.012-.527 39 39 0 0 0-3.171-.538 9.5 9.5 0 0 1 1.311.535c.389.2 1.165.648 1.165 1.165v5.125c0 .516-.776.966-1.165 1.165a10 10 0 0 1-1.5.6c-.659.211-1.336.381-2.012.527a44 44 0 0 1-5.271.768c-2.148.2-4.312.282-6.469.282s-4.321-.086-6.469-.282q-1.05-.095-2.1-.23"/><path fill="#b33d2f" d="M38.224 36.381a58.5 58.5 0 0 0-11.756 1.054c-2.929.633-4.74 1.472-4.74 2.368v5.125c0 .9 1.811 1.736 4.74 2.369a66.3 66.3 0 0 0 23.515 0c2.929-.633 4.74-1.472 4.74-2.369v-5.125c0-.9-1.812-1.736-4.74-2.368a58.5 58.5 0 0 0-11.758-1.051m-11.835.69a66.6 66.6 0 0 1 23.671 0c3.109.672 5.032 1.635 5.032 2.729v5.125c0 1.095-1.923 2.058-5.032 2.73a66.6 66.6 0 0 1-23.671 0c-3.109-.672-5.032-1.635-5.032-2.73v-5.125c0-1.095 1.923-2.058 5.032-2.729"/><path fill="#ffd112" d="M38.226 43.405c9.189 0 16.683-1.619 16.683-3.6s-7.494-3.6-16.683-3.6-16.683 1.619-16.683 3.6 7.494 3.6 16.683 3.6"/><path fill="#fff" d="M38.226 36.196c-9.214 0-16.683 1.614-16.683 3.6a.9.9 0 0 0 .1.394l.172-.053c.121-1.945 7.165-3.091 18.623-3.729v-.185q-1.086-.031-2.213-.032"/><path fill="#f2a500" d="m22.919 40.936.057.029a10 10 0 0 0 1.5.6c.659.211 1.336.381 2.012.527a44 44 0 0 0 5.271.768c2.148.2 4.312.282 6.469.282s4.321-.086 6.469-.282a44 44 0 0 0 5.271-.768 21 21 0 0 0 2.012-.527 10 10 0 0 0 1.5-.6c.389-.2 1.165-.648 1.165-1.165s-.776-.966-1.165-1.165a10 10 0 0 0-1.5-.6 21 21 0 0 0-2.012-.527l-.412-.086-3.566 3.422a44 44 0 0 1-5.271.767c-2.148.2-4.312.282-6.469.282s-4.321-.086-6.469-.282a45 45 0 0 1-4.859-.681"/><path fill="#b33d2f" d="M38.224 36.381a58.5 58.5 0 0 0-11.756 1.054c-2.929.633-4.74 1.472-4.74 2.368s1.811 1.735 4.74 2.368a66.3 66.3 0 0 0 23.515 0c2.929-.633 4.74-1.472 4.74-2.368s-1.812-1.736-4.74-2.368a58.5 58.5 0 0 0-11.758-1.051m-11.835.69a66.6 66.6 0 0 1 23.671 0c3.109.672 5.032 1.635 5.032 2.729s-1.923 2.058-5.032 2.729a66.6 66.6 0 0 1-23.671 0c-3.109-.672-5.032-1.634-5.032-2.729s1.923-2.058 5.032-2.729m11.652 7.36a.185.185 0 1 1 .37 0V47.5a.185.185 0 1 1-.37 0Zm-14.536-1.985a.185.185 0 0 1 .37 0v3.137a.185.185 0 0 1-.37 0Zm2.907.847a.185.185 0 1 1 .37 0v3.163a.185.185 0 1 1-.37 0Zm2.907.538a.185.185 0 0 1 .37 0v3.132a.185.185 0 0 1-.37 0Zm2.906.344a.185.185 0 1 1 .37 0v3.1a.185.185 0 1 1-.37 0Zm2.907.193a.185.185 0 1 1 .37 0v3.079a.185.185 0 1 1-.37 0Zm17.44-1.923a.185.185 0 1 1 .37 0v3.136a.185.185 0 1 1-.37 0Zm-2.907.847a.185.185 0 1 1 .37 0v3.163a.185.185 0 0 1-.37 0Zm-2.907.538a.185.185 0 0 1 .37 0v3.132a.185.185 0 0 1-.37 0Zm-2.907.344a.185.185 0 1 1 .37 0v3.1a.185.185 0 1 1-.37 0Zm-2.907.193a.185.185 0 1 1 .37 0v3.079a.185.185 0 1 1-.37 0Z"/><path fill="#cd900f" d="m63.043 44.822 2.8.752a13.402 13.402 0 1 1-6.937 25.89l-2.8-.751a13.402 13.402 0 1 1 6.937-25.89"/><path fill="#a87300" d="M46.767 60.683a13.15 13.15 0 0 0 9.408 9.77l2.8.752a13.134 13.134 0 0 0 15.11-18.632 13.136 13.136 0 0 1-16.207 15.6l-2.805-.752a13.1 13.1 0 0 1-7.975-6.119q-.177-.307-.336-.621"/><path fill="#b33d2f" d="m63.091 44.644 2.8.751a13.586 13.586 0 0 1 3.277 24.889 13.54 13.54 0 0 1-10.309 1.357l-2.8-.751a13.54 13.54 0 0 1-8.249-6.33 13.54 13.54 0 0 1-1.364-10.284l.006-.024a13.55 13.55 0 0 1 6.33-8.25 13.54 13.54 0 0 1 10.284-1.364Zm2.709 1.108-2.781-.745-.024-.006a13.18 13.18 0 0 0-10.029 1.319 13.18 13.18 0 0 0-6.158 8.024 13.18 13.18 0 0 0 1.32 10.029 13.18 13.18 0 0 0 8.025 6.158l2.8.752a13.18 13.18 0 0 0 10.03-1.32 13.217 13.217 0 0 0-3.187-24.213"/><path fill="#b33d2f" d="M60.906 58.314a.185.185 0 1 1 .1-.357l13.476 3.611a.185.185 0 0 1-.1.357Zm-2.932-12.662a.185.185 0 1 1 .1-.357l12.068 3.234a.185.185 0 0 1-.1.357Zm2.049 3.518 13.261 3.553a.185.185 0 0 0 .1-.357l-13.261-3.553a.185.185 0 0 0-.1.357m1.042 3.248a.185.185 0 1 1 .1-.357l13.454 3.6a.185.185 0 1 1-.1.357Zm.259 3.039 13.479 3.612a.185.185 0 1 0 .1-.356l-13.479-3.612a.185.185 0 1 0-.1.357m-9.288 12.356a.185.185 0 0 1 .1-.357l12.068 3.234a.185.185 0 0 1-.1.357Zm3.533-2.022 13.261 3.554a.185.185 0 1 0 .1-.357l-13.261-3.553a.185.185 0 0 0-.1.357m2.526-2.292a.185.185 0 0 1 .1-.357l13.454 3.605a.185.185 0 0 1-.1.357Zm1.744-2.5 13.479 3.612a.185.185 0 1 0 .1-.357l-13.48-3.612a.185.185 0 0 0-.1.357"/><path fill="#ffd112" d="M63.043 44.822a13.4 13.4 0 1 1-16.413 9.476 13.4 13.4 0 0 1 16.413-9.476"/><path fill="#fff" d="M63.043 44.822a13.34 13.34 0 0 1 6.52 4.009q.062.145.121.292a13.7 13.7 0 0 0-23.366 9.714q0 .641.058 1.268a13.405 13.405 0 0 1 16.667-15.282"/><path fill="#f2a500" d="m46.928 54.222-.04.145a13.132 13.132 0 1 0 23.141-4.551 12.136 12.136 0 1 1-23.1 4.406"/><path fill="#b33d2f" d="m63.066 44.637.024.007a13.54 13.54 0 0 1 8.249 6.33 13.55 13.55 0 0 1 1.365 10.285l-.007.024a13.55 13.55 0 0 1-6.33 8.249 13.55 13.55 0 0 1-10.285 1.364l-.024-.007a13.54 13.54 0 0 1-8.249-6.33 13.54 13.54 0 0 1-1.364-10.284l.006-.024a13.587 13.587 0 0 1 16.614-9.614m7.955 6.521a13.18 13.18 0 0 0-8.021-6.156 13.215 13.215 0 0 0-16.186 9.341 13.18 13.18 0 0 0 1.319 10.029 13.18 13.18 0 0 0 8.023 6.158 13.18 13.18 0 0 0 10.029-1.32 13.18 13.18 0 0 0 6.157-8.024 13.18 13.18 0 0 0-1.32-10.029Z"/><path fill="#ffd112" d="M62.293 47.626a10.5 10.5 0 1 1-12.857 7.423 10.5 10.5 0 0 1 12.857-7.423"/><path fill="#fff" d="M68.782 52.725a10.5 10.5 0 0 1-5.2 14.744l-.277-.087c5.395-3.164 7.707-7.81 5.2-14.772Z"/><path fill="#f2a500" d="M62.224 47.885a10.233 10.233 0 0 0-12.706 11.759 10.5 10.5 0 0 1 18.714-7.329 10.2 10.2 0 0 0-6.008-4.429"/><path fill="#f2a500" d="M62.141 67.948a10.5 10.5 0 0 1-10.768-16.734 12.142 12.142 0 0 1 10.768 16.734"/><path fill="#b33d2f" d="M62.341 47.449a10.65 10.65 0 0 1 6.486 4.977 10.682 10.682 0 0 1-11.99 15.666l-.024-.006a10.65 10.65 0 0 1-6.486-4.977 10.65 10.65 0 0 1-1.074-8.081l.007-.024a10.65 10.65 0 0 1 4.977-6.486 10.65 10.65 0 0 1 8.105-1.068m6.167 5.161a10.315 10.315 0 0 0-14.089-3.775 10.28 10.28 0 0 0-4.8 6.261 10.28 10.28 0 0 0 1.03 7.826 10.28 10.28 0 0 0 6.26 4.8 10.313 10.313 0 0 0 11.6-15.118Z"/><path fill="#b33d2f" d="m58.025 61.188.854-3.185a4.73 4.73 0 0 1-2.009-1.918 3.2 3.2 0 0 1-.19-2.3 2.95 2.95 0 0 1 1.411-1.868 3.64 3.64 0 0 1 2.518-.373l.2-.749 1.2.321-.2.749a3.84 3.84 0 0 1 1.874 1.388 3.22 3.22 0 0 1 .5 2.091l-2.16-.311a1.64 1.64 0 0 0-.67-1.484l-.8 2.972a5.7 5.7 0 0 1 2.363 2 2.97 2.97 0 0 1 .179 2.213 3.33 3.33 0 0 1-1.527 2.077 4.35 4.35 0 0 1-2.835.5l-.381 1.42-1.2-.321.376-1.4a4.1 4.1 0 0 1-2.046-1.59 4 4 0 0 1-.519-2.608l2.206.34a2.5 2.5 0 0 0 .214 1.18 2.3 2.3 0 0 0 .634.853m2.14-7.987a1.6 1.6 0 0 0-.906.32 1.33 1.33 0 0 0-.5.731 1.27 1.27 0 0 0 .056.817 1.84 1.84 0 0 0 .641.768Zm-.976 8.433a1.9 1.9 0 0 0 1.156-.275 1.46 1.46 0 0 0 .657-.889 1.3 1.3 0 0 0-.094-.964 2.2 2.2 0 0 0-.92-.854Z"/><path fill="#9c2517" d="m58.025 61.189.854-3.185a4.74 4.74 0 0 1-2.009-1.917 3.4 3.4 0 0 1 .2-3.2 12 12 0 0 1 1.733 1.237 1 1 0 0 0-.042.132 1.27 1.27 0 0 0 .056.817 1.84 1.84 0 0 0 .641.768l.234-.874a12 12 0 0 1 .974 1.159l-.108.4q.342.188.638.376.115.184.224.373a12.1 12.1 0 0 1 1.463 4.077 3.25 3.25 0 0 1-1.31 1.468 4.35 4.35 0 0 1-2.835.5l-.381 1.419-1.2-.321.376-1.4a4.1 4.1 0 0 1-2.046-1.59 4 4 0 0 1-.519-2.608l2.206.34a2.5 2.5 0 0 0 .214 1.18 2.3 2.3 0 0 0 .634.853m1.165.446a1.9 1.9 0 0 0 1.156-.276 1.46 1.46 0 0 0 .657-.889 1.3 1.3 0 0 0-.094-.964 2.2 2.2 0 0 0-.92-.854Z"/><path fill="#cd900f" d="M36.891 15.697h2.9a13.4 13.4 0 0 1 0 26.8h-2.9a13.4 13.4 0 0 1 0-26.8"/><path fill="#a87300" d="M25.143 34.976a13.13 13.13 0 0 0 11.748 7.258h2.9a13.134 13.134 0 0 0 10.352-21.217 13.138 13.138 0 0 1-11.748 19.01h-2.9a13.11 13.11 0 0 1-10.352-5.051"/><path fill="#b33d2f" d="M36.89 15.511h2.9a13.587 13.587 0 0 1 0 27.173h-2.9a13.587 13.587 0 0 1 0-27.173m2.9.37h-2.9a13.217 13.217 0 0 0 0 26.433h2.9a13.217 13.217 0 0 0 0-26.433"/><path fill="#b33d2f" d="M38.318 29.284a.185.185 0 1 1 0-.37h13.951a.185.185 0 1 1 0 .37Zm-6.109-11.471a.185.185 0 1 1 0-.37h12.493a.185.185 0 0 1 0 .37Zm2.89 2.868a.185.185 0 0 1 0-.37h13.729a.185.185 0 0 1 0 .37Zm1.847 2.868a.185.185 0 0 1 0-.37h13.929a.185.185 0 0 1 0 .37Zm1.037 2.868a.185.185 0 1 1 0-.37h13.955a.185.185 0 0 1 0 .37Zm-5.774 14.339a.185.185 0 0 1 0-.37h12.493a.185.185 0 0 1 0 .37Zm2.889-2.868a.185.185 0 0 1 0-.37h13.729a.185.185 0 0 1 0 .37Zm1.847-2.868a.185.185 0 0 1 0-.37h13.929a.185.185 0 1 1 0 .37Zm1.037-2.868a.185.185 0 1 1 0-.37h13.955a.185.185 0 0 1 0 .37Z"/><path fill="#ffd112" d="M36.891 42.5a13.4 13.4 0 1 0-13.4-13.4 13.427 13.427 0 0 0 13.4 13.4"/><path fill="#fff" d="M36.893 15.697a13.34 13.34 0 0 1 6.927 1.927l-.045.188c-9.619-4.431-17.6 1.188-19.864 8.8l-.15-.193A13.406 13.406 0 0 1 36.894 15.7"/><path fill="#f2a500" d="M44.524 18.409a13.132 13.132 0 1 1-20.639 8.871 11.96 11.96 0 0 0 5.324 9.333l.085.086a10.747 10.747 0 0 0 18.346-7.6q0-.2-.007-.4a11.99 11.99 0 0 0-3.108-10.29"/><path fill="#b33d2f" d="M36.89 15.512a13.587 13.587 0 1 1-9.607 3.98 13.54 13.54 0 0 1 9.607-3.98m9.346 4.241a13.217 13.217 0 1 0 3.871 9.345 13.18 13.18 0 0 0-3.871-9.345"/><path fill="#ffd112" d="M36.891 39.597a10.5 10.5 0 1 0-10.5-10.5 10.52 10.52 0 0 0 10.5 10.5"/><path fill="#fff" d="M46.662 25.243a10.5 10.5 0 0 1-17.5 10.957l.053-.216c8.064 7.6 20.447 0 17.208-10.833Z"/><path fill="#f2a500" d="M36.892 18.869a10.23 10.23 0 0 1 9.006 5.375 10.231 10.231 0 0 0-17.37 10.747 10.231 10.231 0 0 1 8.364-16.121"/><path fill="#b33d2f" d="M36.89 18.416a10.682 10.682 0 1 1-7.554 3.129 10.65 10.65 0 0 1 7.554-3.129m7.292 3.39a10.313 10.313 0 1 0 3.02 7.292 10.28 10.28 0 0 0-3.02-7.292"/><path fill="#b33d2f" d="M36.281 32.805v-3.3a4.74 4.74 0 0 1-2.437-1.332 3.2 3.2 0 0 1-.777-2.169 2.95 2.95 0 0 1 .879-2.169 3.64 3.64 0 0 1 2.335-1.012v-.775h1.24v.775a3.84 3.84 0 0 1 2.169.856 3.22 3.22 0 0 1 1.028 1.89l-2.167.258a1.64 1.64 0 0 0-1.031-1.26v3.077a5.7 5.7 0 0 1 2.8 1.324 2.98 2.98 0 0 1 .745 2.091 3.33 3.33 0 0 1-.938 2.4 4.35 4.35 0 0 1-2.609 1.217v1.47h-1.24v-1.453a4.1 4.1 0 0 1-2.388-1.007 4 4 0 0 1-1.176-2.385l2.219-.242a2.5 2.5 0 0 0 .512 1.085 2.3 2.3 0 0 0 .833.659m0-8.269a1.6 1.6 0 0 0-.792.544 1.33 1.33 0 0 0-.291.834 1.27 1.27 0 0 0 .265.775 1.84 1.84 0 0 0 .818.576Zm1.24 8.4a1.9 1.9 0 0 0 1.045-.565 1.46 1.46 0 0 0 .4-1.028 1.32 1.32 0 0 0-.341-.907 2.2 2.2 0 0 0-1.109-.587Z"/><path fill="#fff" d="M32.253 17.627c.223.386-.2 1.05-.95 1.482s-1.535.468-1.758.082.2-1.05.95-1.482 1.535-.469 1.759-.082"/><path fill="#cd900f" d="M45.069 48.886h2.9a13.4 13.4 0 1 1 0 26.8h-2.9a13.4 13.4 0 0 1 0-26.8"/><path fill="#a87300" d="M47.974 75.42a13.135 13.135 0 0 0 11.112-20.136 13.14 13.14 0 0 1-12.59 16.881h-2.9a13.12 13.12 0 0 1-11.113-6.131 13.14 13.14 0 0 0 12.59 9.386Z"/><path fill="#b33d2f" d="M45.07 48.701h2.9a13.587 13.587 0 0 1 0 27.173h-2.9a13.587 13.587 0 0 1 0-27.173m2.9.37h-2.9a13.217 13.217 0 0 0 0 26.433h2.9a13.217 13.217 0 0 0 0-26.433"/><path fill="#b33d2f" d="M46.498 62.472a.185.185 0 0 1 0-.37h13.951a.185.185 0 1 1 0 .37Zm-6.109-11.471a.185.185 0 1 1 0-.37h12.493a.185.185 0 1 1 0 .37Zm2.889 2.868a.185.185 0 0 1 0-.37h13.729a.185.185 0 1 1 0 .37Zm1.847 2.868a.185.185 0 1 1 0-.37h13.929a.185.185 0 0 1 0 .37Zm1.037 2.867a.185.185 0 1 1 0-.369h13.955a.185.185 0 1 1 0 .369Zm-5.773 14.339a.185.185 0 0 1 0-.37h12.493a.185.185 0 0 1 0 .37Zm2.89-2.868a.185.185 0 0 1 0-.37h13.729a.185.185 0 0 1 0 .37Zm1.847-2.868a.185.185 0 1 1 0-.37h13.929a.185.185 0 0 1 0 .37Zm1.037-2.868a.185.185 0 0 1 0-.37h13.955a.185.185 0 1 1 0 .37Z"/><path fill="#ffd112" d="M45.069 75.693a13.4 13.4 0 1 0-13.4-13.4 13.427 13.427 0 0 0 13.4 13.4"/><path fill="#fff" d="M45.069 48.886a13.4 13.4 0 0 1 3.917.582l.116.23c-8.851-1.166-14.388 2.529-17.071 10.412l-.16-.16a13.405 13.405 0 0 1 13.2-11.063"/><path fill="#f2a500" d="M49.864 50.056a13.131 13.131 0 1 1-17.808 10.447 11.495 11.495 0 1 0 17.808-10.447"/><path fill="#b33d2f" d="M45.071 48.701a13.587 13.587 0 1 1-9.607 3.98 13.54 13.54 0 0 1 9.607-3.98m9.346 4.241a13.216 13.216 0 1 0 3.871 9.345 13.18 13.18 0 0 0-3.871-9.345"/><path fill="#ffd112" d="M45.071 72.785a10.5 10.5 0 1 0-10.5-10.5 10.52 10.52 0 0 0 10.5 10.5"/><path fill="#fff" d="M55.117 59.237a10.5 10.5 0 0 1-19.306 8c0-.05-.007-.1-.009-.15a10.5 10.5 0 0 0 19.132-8.055l.184.2"/><path fill="#f2a500" d="M45.07 52.057a10.21 10.21 0 0 1 8.137 4.031 10.5 10.5 0 0 0-17.593 10.108 10.234 10.234 0 0 1 9.456-14.138"/><path fill="#b33d2f" d="M45.071 51.605a10.683 10.683 0 1 1-7.554 3.129 10.65 10.65 0 0 1 7.554-3.129m7.292 3.39a10.314 10.314 0 1 0 3.02 7.293 10.28 10.28 0 0 0-3.02-7.293"/><path fill="#b33d2f" d="M44.458 65.993v-3.3a4.74 4.74 0 0 1-2.437-1.333 3.2 3.2 0 0 1-.778-2.17 2.94 2.94 0 0 1 .88-2.169 3.64 3.64 0 0 1 2.335-1.012v-.775h1.241v.775a3.84 3.84 0 0 1 2.169.856 3.22 3.22 0 0 1 1.028 1.89l-2.166.258a1.64 1.64 0 0 0-1.031-1.26v3.076a5.7 5.7 0 0 1 2.8 1.324 2.97 2.97 0 0 1 .746 2.091 3.33 3.33 0 0 1-.938 2.4 4.35 4.35 0 0 1-2.609 1.217v1.47h-1.241v-1.453a4.1 4.1 0 0 1-2.388-1.007 4 4 0 0 1-1.176-2.385l2.219-.242a2.5 2.5 0 0 0 .513 1.084 2.3 2.3 0 0 0 .833.66m0-8.268a1.6 1.6 0 0 0-.792.543 1.33 1.33 0 0 0-.291.835 1.28 1.28 0 0 0 .265.775 1.84 1.84 0 0 0 .818.576Zm1.241 8.4a1.9 1.9 0 0 0 1.045-.565 1.46 1.46 0 0 0 .4-1.028 1.3 1.3 0 0 0-.341-.907 2.2 2.2 0 0 0-1.109-.587Z"/><path fill="#fff" d="M40.098 50.95c.206.357-.2.976-.9 1.381s-1.438.444-1.645.087.2-.976.9-1.381 1.438-.444 1.645-.086"/><path fill="#62b5a4" d="M67.293 35.324a14 14 0 0 1-1.08 1.11 13.64 13.64 0 0 1-6.35 3.33c-.08-.07-.17-.14-.25-.2-.09-.08-.18-.15-.27-.23a13.3 13.3 0 0 1-2.37-2.67 3 3 0 0 1-.24-.38 13.14 13.14 0 0 1 9.418-19.95l.52.49a.01.01 0 0 0 .01.01 13.7 13.7 0 0 1 2.46 3.48.03.03 0 0 0 .01.02 13.8 13.8 0 0 1-1.86 14.99"/><path fill="#238c77" d="M59.46 39.594a13.353 13.353 0 0 0 10.553-15.406c.215 2.738-1.693 8.325-5.649 10.059s-6.947.18-8.682-3.777a7.8 7.8 0 0 1-.648-2.758 13.37 13.37 0 0 0 4.426 11.887Z"/><path fill="#fff" d="m69.443 21.394-.01.49a12.5 12.5 0 0 0-3.85-4.92c-5.56.89-8.66 4.48-10.36 9.63a2 2 0 0 0-.08.23l-.11-.4c.04-.15.07-.32.12-.47-.03-.07-.07-.15-.1-.23a13.39 13.39 0 0 1 10.69-9.52 8 8 0 0 1 .93.62.01.01 0 0 0 .01.01 13.7 13.7 0 0 1 2.46 3.48.03.03 0 0 0 .01.02 6 6 0 0 1 .29 1.06"/><path fill="#b33d2f" d="M69.151 20.334a.03.03 0 0 1-.01-.02 13.7 13.7 0 0 0-2.458-3.48.01.01 0 0 1-.01-.01l-.522-.49-.05-.05-.128-.12-.17.03c-.02 0-.04.01-.06.01a13.39 13.39 0 0 0-10.692 9.52 13.2 13.2 0 0 0 .1 7.55 13.37 13.37 0 0 0 3.99 6.13 4 4 0 0 0 .37.3l.13.1.16-.03c.02 0 .04-.01.06-.01a13.64 13.64 0 0 0 6.35-3.33 14 14 0 0 0 1.08-1.11 13.8 13.8 0 0 0 1.86-14.99m.95 7.91a13.27 13.27 0 0 1-3.09 6.84 13 13 0 0 1-1.048 1.08 13.14 13.14 0 0 1-5.73 3.14c-.32-.08-.59-.14-.91-.22a13.06 13.06 0 0 1-3.83-5.92 12.7 12.7 0 0 1-.5-5.11c.01-.11.02-.21.04-.32a11 11 0 0 1 .19-1.14 12.96 12.96 0 0 1 10.628-10.05 13.14 13.14 0 0 1 3.58 5.34 13.4 13.4 0 0 1 .77 5.2c-.02.39-.05.77-.1 1.16"/><path fill="#b33d2f" d="M59.04 41.196a.185.185 0 1 1-.356-.1l5.425-20.245a.185.185 0 0 1 .357.1Z"/><path fill="#b33d2f" d="M62.526 27.973a.184.184 0 0 1-.319.183l-3.241-5.614a.184.184 0 1 1 .312-.195l.007.012Zm-.905 3.372a.184.184 0 0 1-.183-.319l5.613-3.241a.184.184 0 0 1 .183.319Zm-.726 2.709a.184.184 0 1 1-.312.195l-.007-.012-3.241-5.614a.184.184 0 1 1 .312-.195l.007.012Z"/><path fill="#62b5a4" d="M60.251 40.772a10.1 10.1 0 0 0 17.592-4.714 10.1 10.1 0 0 0-17.592 4.714"/><path fill="#fff" d="M77.225 35.4a10.1 10.1 0 0 0-16 2.57l-.041.5c4.008-6.329 10.822-7.061 16.006-2.851Z"/><path fill="#238c77" d="M60.538 40.692a9.833 9.833 0 0 0 17.013-4.559q-.132-.152-.269-.293a9.834 9.834 0 0 1-16.272 3.23 10 10 0 0 0-.475 1.622"/><path fill="#b33d2f" d="M60.451 40.718a9.916 9.916 0 0 0 17.2-4.608 9.916 9.916 0 0 0-17.2 4.608m4.44 3.3a10.34 10.34 0 0 1-4.776-3.13.2.2 0 0 1-.043-.156 10.285 10.285 0 0 1 17.911-4.8.2.2 0 0 1 .043.156 10.286 10.286 0 0 1-12.008 8.21 10 10 0 0 1-1.127-.278"/><path fill="#b33d2f" d="M58.908 41.322a.185.185 0 1 1-.1-.357l15.552-4.167a.185.185 0 0 1 .095.357Z"/><path fill="#b33d2f" d="M69.069 38.544a.184.184 0 1 1-.319-.185l2.49-4.312a.184.184 0 0 1 .319.185Zm-2.649.71a.184.184 0 1 1 .171-.326l.012.007 4.313 2.49a.184.184 0 0 1-.184.319Zm-2.023.542a.184.184 0 0 1-.319-.185l2.49-4.312a.184.184 0 0 1 .319.185Z"/><path fill="#fff" d="M63.258 18.427c.281.486-.155 1.264-.974 1.737s-1.711.462-1.992-.025.155-1.264.974-1.737 1.711-.462 1.991.025"/></svg>