<svg xmlns="http://www.w3.org/2000/svg" xmlns:xlink="http://www.w3.org/1999/xlink" width="75.93" height="27.65" viewBox="0 0 75.93 27.65"><defs><linearGradient id="e" x1=".5" x2=".5" y2="1" gradientUnits="objectBoundingBox"><stop offset="0" stop-color="#8be7e0"/><stop offset=".05" stop-color="#a2ebe4"/><stop offset=".13" stop-color="#bef0ea"/><stop offset=".22" stop-color="#d5f5ef"/><stop offset=".32" stop-color="#e7f8f3"/><stop offset=".45" stop-color="#f3fbf6"/><stop offset=".61" stop-color="#fafcf7"/><stop offset="1" stop-color="#fdfdf8"/></linearGradient><linearGradient id="f" x1=".5" x2=".5" y2="2.624" gradientUnits="objectBoundingBox"><stop offset="0" stop-color="#8be7e0"/><stop offset=".28" stop-color="#b4eee8"/><stop offset=".6" stop-color="#dbf6f0"/><stop offset=".85" stop-color="#f4fbf6"/><stop offset="1" stop-color="#fdfdf8"/></linearGradient><linearGradient id="a" x1="105.266" x2="105.266" y1=".001" y2="1.001" gradientUnits="objectBoundingBox"><stop offset="0" stop-color="#fff"/><stop offset=".51" stop-color="#fff" stop-opacity=".478"/><stop offset="1" stop-color="#fff" stop-opacity="0"/></linearGradient><linearGradient xlink:href="#a" id="g" x1="-80.51" x2="-80.51" y1=".001" y2="1.001"/><linearGradient xlink:href="#a" id="h" x1="-49.456" x2="-49.456" y1=".005" y2="1.005"/><linearGradient xlink:href="#a" id="i" x1="122.548" x2="122.548" y1=".003" y2="1.006"/><linearGradient id="j" x1="54.347" x2="54.347" y1=".999" gradientUnits="objectBoundingBox"><stop offset="0" stop-color="#70ce85"/><stop offset="1" stop-color="#b8efa5"/></linearGradient><linearGradient id="b" x1=".5" x2=".5" y1="1" gradientUnits="objectBoundingBox"><stop offset="0" stop-color="#51c169"/><stop offset="1" stop-color="#9ae281"/></linearGradient><linearGradient id="d" x1="67.165" x2="67.165" y2="1" gradientUnits="objectBoundingBox"><stop offset="0" stop-color="#fff"/><stop offset=".51" stop-color="#797979"/><stop offset="1"/></linearGradient><linearGradient xlink:href="#b" id="k" x1=".5" x2=".5" y1="1" y2="-.001"/><linearGradient id="c" x1="2555.28" x2="2555.28" y1="18.352" y2="-12.916" gradientUnits="objectBoundingBox"><stop offset="0" stop-color="#2f825b"/><stop offset="1" stop-color="#72b85a"/></linearGradient><linearGradient xlink:href="#c" id="l" x1="1805.873" x2="1805.873" y1="12.634" y2="-9.347"/><linearGradient xlink:href="#c" id="m" x1="2257.222" x2="2257.222" y1="11.706" y2="-8.661"/><linearGradient xlink:href="#c" id="n" x1="1488.445" x2="1488.445" y1="10" y2="-8.049"/><linearGradient xlink:href="#c" id="o" x1="1855.337" x2="1855.337" y1="9.318" y2="-7.5"/><linearGradient xlink:href="#c" id="p" x1="1147.983" x2="1147.983" y1="7.415" y2="-6.547"/><linearGradient xlink:href="#c" id="q" x1="1440.96" x2="1440.96" y1="6.855" y2="-6.052"/><linearGradient xlink:href="#c" id="r" x1="934.313" x2="934.313" y1="5.679" y2="-5.648"/><linearGradient xlink:href="#c" id="s" x1="1167.767" x2="1167.767" y1="5.275" y2="-5.246"/><linearGradient xlink:href="#c" id="t" x1="801.702" x2="801.702" y1="4.496" y2="-5.241"/><linearGradient xlink:href="#c" id="u" x1="1003.486" x2="1003.486" y1="4.167" y2="-4.858"/><linearGradient xlink:href="#c" id="v" x1="2570.564" x2="2570.564" y1="22.056" y2="-9.211"/><linearGradient xlink:href="#c" id="w" x1="1799.54" x2="1799.54" y1="15.098" y2="-6.667"/><linearGradient xlink:href="#c" id="x" x1="2230.721" x2="2230.721" y1="14" y2="-6.182"/><linearGradient xlink:href="#c" id="y" x1="1483.225" x2="1483.225" y1="12.138" y2="-5.911"/><linearGradient xlink:href="#c" id="z" x1="1848.83" x2="1848.83" y1="11.226" y2="-5.466"/><linearGradient xlink:href="#c" id="A" x1="1143.957" x2="1143.957" y1="9.069" y2="-4.893"/><linearGradient xlink:href="#c" id="B" x1="1428.313" x2="1428.313" y1="8.384" y2="-4.523"/><linearGradient xlink:href="#c" id="C" x1="931.037" x2="931.037" y1="7.02" y2="-4.306"/><linearGradient xlink:href="#c" id="D" x1="1158.683" x2="1158.683" y1="6.491" y2="-3.981"/><linearGradient xlink:href="#c" id="E" x1="798.891" x2="798.891" y1="5.645" y2="-4.092"/><linearGradient xlink:href="#c" id="F" x1="996.281" x2="996.281" y1="5.232" y2="-3.793"/><linearGradient xlink:href="#c" id="G" x1="3275.672" x2="3275.672" y1="33.875" y2="-5.768"/><linearGradient xlink:href="#c" id="H" x1="2315.715" x2="2315.715" y1="23.747" y2="-4.354"/><linearGradient xlink:href="#c" id="I" x1="2888.289" x2="2888.289" y1="22.071" y2="-4.047"/><linearGradient xlink:href="#c" id="J" x1="1905.218" x2="1905.218" y1="19.368" y2="-4"/><linearGradient xlink:href="#c" id="K" x1="2377.183" x2="2377.183" y1="17.864" y2="-3.689"/><linearGradient xlink:href="#c" id="L" x1="1468.067" x2="1468.067" y1="14.524" y2="-3.379"/><linearGradient xlink:href="#c" id="M" x1="1827.468" x2="1827.468" y1="13.44" y2="-3.127"/><linearGradient xlink:href="#c" id="N" x1="1194.122" x2="1194.122" y1="11.507" y2="-3.099"/><linearGradient xlink:href="#c" id="O" x1="1492.526" x2="1492.526" y1="10.665" y2="-2.872"/><linearGradient xlink:href="#c" id="P" x1="1025.554" x2="1025.554" y1="9.497" y2="-3.045"/><linearGradient xlink:href="#c" id="Q" x1="1279.377" x2="1279.377" y1="8.801" y2="-2.822"/><linearGradient xlink:href="#c" id="R" x1="2839.065" x2="2839.065" y1="13.323" y2="-20.831"/><linearGradient xlink:href="#c" id="S" x1="1975.156" x2="1975.156" y1="9.054" y2="-14.817"/><linearGradient xlink:href="#c" id="T" x1="2477.794" x2="2477.794" y1="8.42" y2="-13.78"/><linearGradient xlink:href="#c" id="U" x1="1642.078" x2="1642.078" y1="7.134" y2="-12.687"/><linearGradient xlink:href="#c" id="V" x1="2034.097" x2="2034.097" y1="6.603" y2="-11.744"/><linearGradient xlink:href="#c" id="W" x1="1262.083" x2="1262.083" y1="5.158" y2="-10.048"/><linearGradient xlink:href="#c" id="X" x1="1566.605" x2="1566.605" y1="4.766" y2="-9.285"/><linearGradient xlink:href="#c" id="Y" x1="1024.944" x2="1024.944" y1="3.844" y2="-8.489"/><linearGradient xlink:href="#c" id="Z" x1="1279.849" x2="1279.849" y1="3.567" y2="-7.876"/><linearGradient xlink:href="#c" id="aa" x1="879.539" x2="879.539" y1="2.923" y2="-7.699"/><linearGradient xlink:href="#c" id="ab" x1=".5" x2=".5" y1="2.705" y2="-7.124"/><linearGradient xlink:href="#c" id="ac" x1="2450.44" x2="2450.44" y1="12.827" y2="-14.58"/><linearGradient xlink:href="#c" id="ad" x1="1721.667" x2="1721.667" y1="8.774" y2="-10.53"/><linearGradient xlink:href="#c" id="ae" x1="2141.787" x2="2141.787" y1="8.137" y2="-9.766"/><linearGradient xlink:href="#c" id="af" x1="1424.288" x2="1424.288" y1="6.829" y2="-9.029"/><linearGradient xlink:href="#c" id="ag" x1="1777.906" x2="1777.906" y1="6.331" y2="-8.371"/><linearGradient xlink:href="#c" id="ah" x1="1097.049" x2="1097.049" y1="4.961" y2="-7.304"/><linearGradient xlink:href="#c" id="ai" x1="1367.049" x2="1367.049" y1="4.582" y2="-6.745"/><linearGradient xlink:href="#c" id="aj" x1="892.118" x2="892.118" y1="3.674" y2="-6.237"/><linearGradient xlink:href="#c" id="ak" x1="1110.473" x2="1110.473" y1="3.415" y2="-5.797"/><linearGradient xlink:href="#c" id="al" x1="766.538" x2="766.538" y1="2.777" y2="-5.762"/><linearGradient xlink:href="#c" id="am" x1="954.687" x2="954.687" y1="2.569" y2="-5.331"/><linearGradient xlink:href="#c" id="an" x1="2715.94" x2="2715.94" y1="15.75" y2="-16.897"/><linearGradient xlink:href="#c" id="ao" x1="1886.224" x2="1886.224" y1="10.784" y2="-12.103"/><linearGradient xlink:href="#c" id="ap" x1="2382.466" x2="2382.466" y1="9.962" y2="-11.181"/><linearGradient xlink:href="#c" id="aq" x1="1561.096" x2="1561.096" y1="8.556" y2="-10.419"/><linearGradient xlink:href="#c" id="ar" x1="1954.058" x2="1954.058" y1="7.944" y2="-9.675"/><linearGradient xlink:href="#c" id="as" x1="1202.023" x2="1202.023" y1="6.27" y2="-8.336"/><linearGradient xlink:href="#c" id="at" x1="1509.078" x2="1509.078" y1="5.776" y2="-7.679"/><linearGradient xlink:href="#c" id="au" x1="984.356" x2="984.356" y1="4.754" y2="-7.118"/><linearGradient xlink:href="#c" id="av" x1="1223.671" x2="1223.671" y1="4.401" y2="-6.589"/><linearGradient xlink:href="#c" id="aw" x1="843.804" x2="843.804" y1="3.693" y2="-6.491"/><linearGradient xlink:href="#c" id="ax" x1="1052.997" x2="1052.997" y1="3.426" y2="-6.021"/><linearGradient xlink:href="#c" id="ay" x1="2357.806" x2="2357.806" y1="16.036" y2="-10.393"/><linearGradient xlink:href="#c" id="az" x1="1663.631" x2="1663.631" y1="10.967" y2="-7.533"/><linearGradient xlink:href="#c" id="aA" x1="2069.897" x2="2069.897" y1="10.202" y2="-7.008"/><linearGradient xlink:href="#c" id="aB" x1="1376.593" x2="1376.593" y1="8.697" y2="-6.614"/><linearGradient xlink:href="#c" id="aC" x1="1705.472" x2="1705.472" y1="8.083" y2="-6.147"/><linearGradient xlink:href="#c" id="aD" x1="1055.327" x2="1055.327" y1="6.422" y2="-5.449"/><linearGradient xlink:href="#c" id="aE" x1="1322.893" x2="1322.893" y1="5.946" y2="-5.045"/><linearGradient xlink:href="#c" id="aF" x1="861.104" x2="861.104" y1="4.883" y2="-4.77"/><linearGradient xlink:href="#c" id="aG" x1="1072.005" x2="1072.005" y1="4.51" y2="-4.406"/><linearGradient xlink:href="#c" id="aH" x1="739.167" x2="739.167" y1="3.802" y2="-4.481"/><linearGradient xlink:href="#c" id="aI" x1="919.451" x2="919.451" y1="3.514" y2="-4.141"/><linearGradient xlink:href="#c" id="aJ" x1="3060.86" x2="3060.86" y1="29.034" y2="-8.593"/><linearGradient xlink:href="#c" id="aK" x1="2154.992" x2="2154.992" y1="20.131" y2="-6.298"/><linearGradient xlink:href="#c" id="aL" x1="2693.62" x2="2693.62" y1="18.582" y2="-5.813"/><linearGradient xlink:href="#c" id="aM" x1="1772.289" x2="1772.289" y1="16.196" y2="-5.569"/><linearGradient xlink:href="#c" id="aN" x1="2207.973" x2="2207.973" y1="15.018" y2="-5.164"/><linearGradient xlink:href="#c" id="aO" x1="1374.542" x2="1374.542" y1="12.105" y2="-4.586"/><linearGradient xlink:href="#c" id="aP" x1="1705.008" x2="1705.008" y1="11.259" y2="-4.266"/><linearGradient xlink:href="#c" id="aQ" x1="1113.359" x2="1113.359" y1="9.482" y2="-4.055"/><linearGradient xlink:href="#c" id="aR" x1="1388.707" x2="1388.707" y1="8.835" y2="-3.778"/><linearGradient xlink:href="#c" id="aS" x1="955.507" x2="955.507" y1="7.795" y2="-3.889"/><linearGradient xlink:href="#c" id="aT" x1="1192.147" x2="1192.147" y1="7.224" y2="-3.605"/><linearGradient xlink:href="#c" id="aU" x1="2717.703" x2="2717.703" y1="27.701" y2="-5.433"/><linearGradient xlink:href="#c" id="aV" x1="1908.319" x2="1908.319" y1="19.274" y2="-4.095"/><linearGradient xlink:href="#c" id="aW" x1="2381.051" x2="2381.051" y1="17.777" y2="-3.777"/><linearGradient xlink:href="#c" id="aX" x1="1573.615" x2="1573.615" y1="15.539" y2="-3.765"/><linearGradient xlink:href="#c" id="aY" x1="1964.023" x2="1964.023" y1="14.411" y2="-3.492"/><linearGradient xlink:href="#c" id="aZ" x1="1212.22" x2="1212.22" y1="11.671" y2="-3.228"/><linearGradient xlink:href="#c" id="ba" x1="1511.748" x2="1511.748" y1="10.801" y2="-2.988"/><linearGradient xlink:href="#c" id="bb" x1="985.857" x2="985.857" y1="9.114" y2="-2.951"/><linearGradient xlink:href="#c" id="bc" x1="1228.823" x2="1228.823" y1="8.427" y2="-2.729"/><linearGradient xlink:href="#c" id="bd" x1="846.419" x2="846.419" y1="7.414" y2="-2.912"/><linearGradient xlink:href="#c" id="be" x1="1055.412" x2="1055.412" y1="6.871" y2="-2.698"/><linearGradient xlink:href="#c" id="bf" x1="2580.267" x2="2580.267" y1="28.789" y2="-2.479"/><linearGradient xlink:href="#c" id="bg" x1="1801.15" x2="1801.15" y1="19.98" y2="-2"/><linearGradient xlink:href="#c" id="bh" x1="2255.088" x2="2255.088" y1="18.514" y2="-1.853"/><linearGradient xlink:href="#c" id="bi" x1="1491.031" x2="1491.031" y1="16.164" y2="-2.033"/><linearGradient xlink:href="#c" id="bj" x1="1863.663" x2="1863.663" y1="14.939" y2="-1.879"/><linearGradient xlink:href="#c" id="bk" x1="1151.986" x2="1151.986" y1="12.236" y2="-1.904"/><linearGradient xlink:href="#c" id="bl" x1="1435.239" x2="1435.239" y1="11.3" y2="-1.759"/><linearGradient xlink:href="#c" id="bm" x1="935.33" x2="935.33" y1="9.567" y2="-1.876"/><linearGradient xlink:href="#c" id="bn" x1="1167.003" x2="1167.003" y1="8.838" y2="-1.733"/><linearGradient xlink:href="#c" id="bo" x1="803.782" x2="803.782" y1="7.823" y2="-2"/><linearGradient xlink:href="#c" id="bp" x1="1001.604" x2="1001.604" y1="7.246" y2="-1.852"/><linearGradient xlink:href="#c" id="bq" x1="2576.017" x2="2576.017" y1="32.5" y2=".786"/><linearGradient xlink:href="#c" id="br" x1="1810.316" x2="1810.316" y1="22.49" y2=".29"/><linearGradient xlink:href="#c" id="bs" x1="2251.348" x2="2251.348" y1="20.824" y2=".269"/><linearGradient xlink:href="#c" id="bt" x1="1488.564" x2="1488.564" y1="18.057" y2="-.139"/><linearGradient xlink:href="#c" id="bu" x1="1860.58" x2="1860.58" y1="16.817" y2="-.13"/><linearGradient xlink:href="#c" id="bv" x1="1145.168" x2="1145.168" y1="13.627" y2="-.424"/><linearGradient xlink:href="#c" id="bw" x1="1432.859" x2="1432.859" y1="12.591" y2="-.392"/><linearGradient xlink:href="#c" id="bx" x1="933.78" x2="933.78" y1="10.758" y2="-.686"/><linearGradient xlink:href="#c" id="by" x1="1165.072" x2="1165.072" y1="9.986" y2="-.636"/><linearGradient xlink:href="#c" id="bz" x1="802.453" x2="802.453" y1="8.845" y2="-.978"/><linearGradient xlink:href="#c" id="bA" x1="999.948" x2="999.948" y1="8.226" y2="-.909"/><linearGradient xlink:href="#c" id="bB" x1="2310.184" x2="2310.184" y1="19.279" y2="-8.823"/><linearGradient xlink:href="#c" id="bC" x1="1618.663" x2="1618.663" y1="13.221" y2="-6.425"/><linearGradient xlink:href="#c" id="bD" x1="2017.171" x2="2017.171" y1="12.246" y2="-5.951"/><linearGradient xlink:href="#c" id="bE" x1="1331.698" x2="1331.698" y1="10.526" y2="-5.679"/><linearGradient xlink:href="#c" id="bF" x1="1658.373" x2="1658.373" y1="9.743" y2="-5.257"/><linearGradient xlink:href="#c" id="bG" x1="1028.003" x2="1028.003" y1="7.781" y2="-4.691"/><linearGradient xlink:href="#c" id="bH" x1="1281.227" x2="1281.227" y1="7.214" y2="-4.349"/><linearGradient xlink:href="#c" id="bI" x1="837.136" x2="837.136" y1="6.014" y2="-4.17"/><linearGradient xlink:href="#c" id="bJ" x1="1043.873" x2="1043.873" y1="5.555" y2="-3.852"/><linearGradient xlink:href="#c" id="bK" x1="717.3" x2="717.3" y1="4.757" y2="-3.949"/><linearGradient xlink:href="#c" id="bL" x1="895.314" x2="895.314" y1="4.411" y2="-3.662"/><linearGradient xlink:href="#c" id="bM" x1="2480.976" x2="2480.976" y1="11.037" y2="-16.037"/><linearGradient xlink:href="#c" id="bN" x1="1749.554" x2="1749.554" y1="7.534" y2="-11.603"/><linearGradient xlink:href="#c" id="bO" x1="2200.923" x2="2200.923" y1="6.992" y2="-10.768"/><linearGradient xlink:href="#c" id="bP" x1="1451.843" x2="1451.843" y1="5.823" y2="-9.922"/><linearGradient xlink:href="#c" id="bQ" x1="1819.513" x2="1819.513" y1="5.401" y2="-9.204"/><linearGradient xlink:href="#c" id="bR" x1="1118.745" x2="1118.745" y1="4.164" y2="-7.967"/><linearGradient xlink:href="#c" id="bS" x1="1392.603" x2="1392.603" y1="3.868" y2="-7.401"/><linearGradient xlink:href="#c" id="bT" x1="910.007" x2="910.007" y1="3.049" y2="-6.818"/><linearGradient xlink:href="#c" id="bU" x1="1137.383" x2="1137.383" y1="2.823" y2="-6.313"/><linearGradient xlink:href="#c" id="bV" x1=".5" x2=".5" y1="2.228" y2="-6.239"/><linearGradient xlink:href="#c" id="bW" x1=".5" x2=".5" y1="2.065" y2="-5.777"/><linearGradient xlink:href="#c" id="bX" x1=".483" x2=".5" y1="1.316" y2="-.007"/><linearGradient xlink:href="#b" id="bY" x1=".499" x2=".499" y1="1.001" y2=".001"/><linearGradient xlink:href="#d" id="bZ" x1="94.004" x2="94.004" y1="0" y2="1"/><linearGradient xlink:href="#d" id="ca" x1="102.358" x2="102.358" y1="0" y2=".999"/><linearGradient xlink:href="#c" id="cb" x1="621.816" x2="621.816" y1="18.391" y2="-12.971"/><linearGradient xlink:href="#c" id="cc" x1="438.822" x2="438.822" y1="12.566" y2="-9.293"/><linearGradient xlink:href="#c" id="cd" x1="547.47" x2="547.47" y1="11.626" y2="-8.598"/><linearGradient xlink:href="#c" id="ce" x1="362.056" x2="362.056" y1="10.067" y2="-8.118"/><linearGradient xlink:href="#c" id="cf" x1="451.169" x2="451.169" y1="9.287" y2="-7.488"/><linearGradient xlink:href="#c" id="cg" x1="279.956" x2="279.956" y1="7.413" y2="-6.548"/><linearGradient xlink:href="#c" id="ch" x1="348.299" x2="348.299" y1="6.839" y2="-6.042"/><linearGradient xlink:href="#c" id="ci" x1="227.433" x2="227.433" y1="5.705" y2="-5.684"/><linearGradient xlink:href="#c" id="cj" x1="283.664" x2="283.664" y1="5.288" y2="-5.268"/><linearGradient xlink:href="#c" id="ck" x1="195.015" x2="195.015" y1="4.495" y2="-5.252"/><linearGradient xlink:href="#c" id="cl" x1="243.829" x2="243.829" y1="4.176" y2="-4.879"/><linearGradient xlink:href="#c" id="cm" x1="627.902" x2="627.902" y1="21.8" y2="-9.114"/><linearGradient xlink:href="#c" id="cn" x1="438.822" x2="438.822" y1="15.152" y2="-6.707"/><linearGradient xlink:href="#c" id="co" x1="542.83" x2="542.83" y1="14.019" y2="-6.206"/><linearGradient xlink:href="#c" id="cp" x1="360.023" x2="360.023" y1="12.125" y2="-5.908"/><linearGradient xlink:href="#c" id="cq" x1="451.169" x2="451.169" y1="11.192" y2="-5.454"/><linearGradient xlink:href="#c" id="cr" x1="278.739" x2="278.739" y1="9.065" y2="-4.897"/><linearGradient xlink:href="#c" id="cs" x1="348.299" x2="348.299" y1="8.363" y2="-4.518"/><linearGradient xlink:href="#c" id="ct" x1="227.433" x2="227.433" y1="6.984" y2="-4.286"/><linearGradient xlink:href="#c" id="cu" x1="283.664" x2="283.664" y1="6.478" y2="-3.976"/><linearGradient xlink:href="#c" id="cv" x1="194.424" x2="194.424" y1="5.649" y2="-4.099"/><linearGradient xlink:href="#c" id="cw" x1="242.905" x2="242.905" y1="5.225" y2="-3.792"/><linearGradient xlink:href="#c" id="cx" x1="810.57" x2="810.57" y1="34.222" y2="-5.852"/><linearGradient xlink:href="#c" id="cy" x1="566.832" x2="566.832" y1="23.74" y2="-4.364"/><linearGradient xlink:href="#c" id="cz" x1="703.747" x2="703.747" y1="22.024" y2="-4.048"/><linearGradient xlink:href="#c" id="cA" x1="467.62" x2="467.62" y1="19.28" y2="-3.989"/><linearGradient xlink:href="#c" id="cB" x1="582.282" x2="582.282" y1="17.93" y2="-3.71"/><linearGradient xlink:href="#c" id="cC" x1="360.028" x2="360.028" y1="14.617" y2="-3.417"/><linearGradient xlink:href="#c" id="cD" x1="448.021" x2="448.021" y1="13.492" y2="-3.154"/><linearGradient xlink:href="#c" id="cE" x1="292.717" x2="292.717" y1="11.514" y2="-3.108"/><linearGradient xlink:href="#c" id="cF" x1="364.114" x2="364.114" y1="10.65" y2="-2.875"/><linearGradient xlink:href="#c" id="cG" x1="251.463" x2="251.463" y1="9.517" y2="-3.064"/><linearGradient xlink:href="#c" id="cH" x1="312.673" x2="312.673" y1="8.801" y2="-2.833"/><linearGradient xlink:href="#c" id="cI" x1="681.297" x2="681.297" y1="13.188" y2="-20.625"/><linearGradient xlink:href="#c" id="cJ" x1="478.075" x2="478.075" y1="9.111" y2="-14.933"/><linearGradient xlink:href="#c" id="cK" x1="593.046" x2="593.046" y1="8.367" y2="-13.714"/><linearGradient xlink:href="#c" id="cL" x1="395.531" x2="395.531" y1="7.138" y2="-12.716"/><linearGradient xlink:href="#c" id="cM" x1="492.77" x2="492.77" y1="6.593" y2="-11.746"/><linearGradient xlink:href="#c" id="cN" x1="305.238" x2="305.238" y1="5.162" y2="-10.077"/><linearGradient xlink:href="#c" id="cO" x1="381.423" x2="381.423" y1="4.76" y2="-9.292"/><linearGradient xlink:href="#c" id="cP" x1=".5" x2=".5" y1="3.85" y2="-8.506"/><linearGradient xlink:href="#c" id="cQ" x1=".5" x2=".5" y1="3.569" y2="-7.881"/><linearGradient xlink:href="#c" id="cR" x1=".5" x2=".5" y1="2.914" y2="-7.691"/><linearGradient xlink:href="#c" id="cS" x1=".5" x2=".5" y1="2.704" y2="-7.123"/><linearGradient xlink:href="#c" id="cT" x1="593.046" x2="593.046" y1="12.81" y2="-14.582"/><linearGradient xlink:href="#c" id="cU" x1="416.052" x2="416.052" y1="8.777" y2="-10.545"/><linearGradient xlink:href="#c" id="cV" x1="516.589" x2="516.589" y1="8.124" y2="-9.76"/><linearGradient xlink:href="#c" id="cW" x1="344.559" x2="344.559" y1="6.846" y2="-9.066"/><linearGradient xlink:href="#c" id="cX" x1="427.133" x2="427.133" y1="6.333" y2="-8.388"/><linearGradient xlink:href="#c" id="cY" x1="264.942" x2="264.942" y1="4.944" y2="-7.282"/><linearGradient xlink:href="#c" id="cZ" x1="330.371" x2="330.371" y1="4.581" y2="-6.749"/><linearGradient xlink:href="#c" id="da" x1="215.248" x2="215.248" y1="3.679" y2="-6.248"/><linearGradient xlink:href="#c" id="db" x1="269.386" x2="269.386" y1="3.413" y2="-5.796"/><linearGradient xlink:href="#c" id="dc" x1=".5" x2=".5" y1="2.778" y2="-5.762"/><linearGradient xlink:href="#c" id="dd" x1=".5" x2=".5" y1="2.571" y2="-5.339"/><linearGradient xlink:href="#c" id="de" x1="653.521" x2="653.521" y1="15.803" y2="-16.985"/><linearGradient xlink:href="#c" id="df" x1="460.899" x2="460.899" y1="10.726" y2="-12.053"/><linearGradient xlink:href="#c" id="dg" x1="571.892" x2="571.892" y1="9.99" y2="-11.225"/><linearGradient xlink:href="#c" id="dh" x1="379.171" x2="379.171" y1="8.553" y2="-10.43"/><linearGradient xlink:href="#c" id="di" x1="474.541" x2="474.541" y1="7.927" y2="-9.667"/><linearGradient xlink:href="#c" id="dj" x1="292.717" x2="292.717" y1="6.27" y2="-8.351"/><linearGradient xlink:href="#c" id="dk" x1="364.114" x2="364.114" y1="5.8" y2="-7.725"/><linearGradient xlink:href="#c" id="dl" x1="237.522" x2="237.522" y1="4.758" y2="-7.132"/><linearGradient xlink:href="#c" id="dm" x1="295.41" x2="295.41" y1="4.418" y2="-6.622"/><linearGradient xlink:href="#c" id="dn" x1="204.309" x2="204.309" y1="3.698" y2="-6.509"/><linearGradient xlink:href="#c" id="do" x1="254.452" x2="254.452" y1="3.424" y2="-6.026"/><linearGradient xlink:href="#c" id="dp" x1="577.036" x2="577.036" y1="16" y2="-10.39"/><linearGradient xlink:href="#c" id="dq" x1="402.987" x2="402.987" y1="10.957" y2="-7.538"/><linearGradient xlink:href="#c" id="dr" x1="504.401" x2="504.401" y1="10.175" y2="-7"/><linearGradient xlink:href="#c" id="ds" x1="332.083" x2="332.083" y1="8.771" y2="-6.686"/><linearGradient xlink:href="#c" id="dt" x1="413.374" x2="413.374" y1="8.079" y2="-6.158"/><linearGradient xlink:href="#c" id="du" x1="257.51" x2="257.51" y1="6.393" y2="-5.432"/><linearGradient xlink:href="#c" id="dv" x1="318.886" x2="318.886" y1="5.939" y2="-5.046"/><linearGradient xlink:href="#c" id="dw" x1="208.954" x2="208.954" y1="4.862" y2="-4.756"/><linearGradient xlink:href="#c" id="dx" x1="259.591" x2="259.591" y1="4.521" y2="-4.421"/><linearGradient xlink:href="#c" id="dy" x1="179.759" x2="179.759" y1="3.79" y2="-4.469"/><linearGradient xlink:href="#c" id="dz" x1="223.481" x2="223.481" y1="3.509" y2="-4.138"/><linearGradient xlink:href="#c" id="dA" x1="753.389" x2="753.389" y1="28.776" y2="-8.534"/><linearGradient xlink:href="#c" id="dB" x1="525.049" x2="525.049" y1="19.855" y2="-6.217"/><linearGradient xlink:href="#c" id="dC" x1="660.247" x2="660.247" y1="18.517" y2="-5.798"/><linearGradient xlink:href="#c" id="dD" x1="435.843" x2="435.843" y1="16.1" y2="-5.54"/><linearGradient xlink:href="#c" id="dE" x1="538.278" x2="538.278" y1="14.907" y2="-5.13"/><linearGradient xlink:href="#c" id="dF" x1="335.555" x2="335.555" y1="12.069" y2="-4.577"/><linearGradient xlink:href="#c" id="dG" x1="418.771" x2="418.771" y1="11.207" y2="-4.25"/><linearGradient xlink:href="#c" id="dH" x1="272.821" x2="272.821" y1="9.528" y2="-4.082"/><linearGradient xlink:href="#c" id="dI" x1="339.1" x2="339.1" y1="8.808" y2="-3.773"/><linearGradient xlink:href="#c" id="dJ" x1="234.058" x2="234.058" y1="7.8" y2="-3.897"/><linearGradient xlink:href="#c" id="dK" x1="291.386" x2="291.386" y1="7.215" y2="-3.605"/><linearGradient xlink:href="#c" id="dL" x1="667.115" x2="667.115" y1="27.815" y2="-5.477"/><linearGradient xlink:href="#c" id="dM" x1="464.232" x2="464.232" y1="19.183" y2="-4.086"/><linearGradient xlink:href="#c" id="dN" x1="582.273" x2="582.273" y1="17.84" y2="-3.8"/><linearGradient xlink:href="#c" id="dO" x1="386.012" x2="386.012" y1="15.545" y2="-3.777"/><linearGradient xlink:href="#c" id="dP" x1="478.075" x2="478.075" y1="14.388" y2="-3.496"/><linearGradient xlink:href="#c" id="dQ" x1="296.773" x2="296.773" y1="11.61" y2="-3.212"/><linearGradient xlink:href="#c" id="dR" x1="370.416" x2="370.416" y1="10.728" y2="-2.968"/><linearGradient xlink:href="#c" id="dS" x1="241.083" x2="241.083" y1="9.128" y2="-2.961"/><linearGradient xlink:href="#c" id="dT" x1="300.948" x2="300.948" y1="8.423" y2="-2.732"/><linearGradient xlink:href="#c" id="dU" x1="206.936" x2="206.936" y1="7.431" y2="-2.923"/><linearGradient xlink:href="#c" id="dV" x1="258.544" x2="258.544" y1="6.872" y2="-2.704"/><linearGradient xlink:href="#c" id="dW" x1="627.902" x2="627.902" y1="28.87" y2="-2.493"/><linearGradient xlink:href="#c" id="dX" x1="441.848" x2="441.848" y1="20.061" y2="-2.02"/><linearGradient xlink:href="#c" id="dY" x1="552.181" x2="552.181" y1="18.724" y2="-1.886"/><linearGradient xlink:href="#c" id="dZ" x1="366.189" x2="366.189" y1="16.28" y2="-2.059"/><linearGradient xlink:href="#c" id="ea" x1="454.369" x2="454.369" y1="15.008" y2="-1.898"/><linearGradient xlink:href="#c" id="eb" x1="282.419" x2="282.419" y1="12.156" y2="-1.896"/><linearGradient xlink:href="#c" id="ec" x1="352.121" x2="352.121" y1="11.277" y2="-1.759"/><linearGradient xlink:href="#c" id="ed" x1="229.054" x2="229.054" y1="9.566" y2="-1.884"/><linearGradient xlink:href="#c" id="ee" x1="286.192" x2="286.192" y1="8.863" y2="-1.745"/><linearGradient xlink:href="#c" id="ef" x1="196.804" x2="196.804" y1="7.832" y2="-2.005"/><linearGradient xlink:href="#c" id="eg" x1="245.693" x2="245.693" y1="7.239" y2="-1.853"/><linearGradient xlink:href="#c" id="eh" x1="627.902" x2="627.902" y1="32.13" y2=".768"/><linearGradient xlink:href="#c" id="ei" x1="444.91" x2="444.91" y1="22.367" y2=".286"/><linearGradient xlink:href="#c" id="ej" x1="552.181" x2="552.181" y1="20.679" y2=".264"/><linearGradient xlink:href="#c" id="ek" x1="364.108" x2="364.108" y1="18.042" y2="-.143"/><linearGradient xlink:href="#c" id="el" x1="457.607" x2="457.607" y1="16.773" y2="-.133"/><linearGradient xlink:href="#c" id="em" x1="281.18" x2="281.18" y1="13.623" y2="-.429"/><linearGradient xlink:href="#c" id="en" x1="352.121" x2="352.121" y1="12.639" y2="-.398"/><linearGradient xlink:href="#c" id="eo" x1="229.054" x2="229.054" y1="10.762" y2="-.688"/><linearGradient xlink:href="#c" id="ep" x1="286.192" x2="286.192" y1="9.922" y2="-.634"/><linearGradient xlink:href="#c" id="eq" x1="196.804" x2="196.804" y1="8.855" y2="-.982"/><linearGradient xlink:href="#c" id="er" x1="244.756" x2="244.756" y1="8.219" y2="-.911"/><linearGradient xlink:href="#c" id="es" x1="556.983" x2="556.983" y1="19.273" y2="-8.831"/><linearGradient xlink:href="#c" id="et" x1="393.11" x2="393.11" y1="13.227" y2="-6.445"/><linearGradient xlink:href="#c" id="eu" x1="489.015" x2="489.015" y1="12.227" y2="-5.958"/><linearGradient xlink:href="#c" id="ev" x1="325.35" x2="325.35" y1="10.485" y2="-5.664"/><linearGradient xlink:href="#c" id="ew" x1="402.987" x2="402.987" y1="9.757" y2="-5.271"/><linearGradient xlink:href="#c" id="ex" x1="249.51" x2="249.51" y1="7.759" y2="-4.678"/><linearGradient xlink:href="#c" id="ey" x1="312.673" x2="312.673" y1="7.219" y2="-4.353"/><linearGradient xlink:href="#c" id="ez" x1="203.66" x2="203.66" y1="6" y2="-4.16"/><linearGradient xlink:href="#c" id="eA" x1="253.447" x2="253.447" y1="5.557" y2="-3.852"/><linearGradient xlink:href="#c" id="eB" x1="174.875" x2="174.875" y1="4.762" y2="-3.964"/><linearGradient xlink:href="#c" id="eC" x1="217.434" x2="217.434" y1="4.423" y2="-3.682"/><linearGradient xlink:href="#c" id="eD" x1="604.227" x2="604.227" y1="11.152" y2="-16.24"/><linearGradient xlink:href="#c" id="eE" x1="424.311" x2="424.311" y1="7.474" y2="-11.509"/><linearGradient xlink:href="#c" id="eF" x1="529.388" x2="529.388" y1="6.927" y2="-10.667"/><linearGradient xlink:href="#c" id="eG" x1="350.202" x2="350.202" y1="5.832" y2="-9.964"/><linearGradient xlink:href="#c" id="eH" x1="435.844" x2="435.844" y1="5.399" y2="-9.223"/><linearGradient xlink:href="#c" id="eI" x1="269.387" x2="269.387" y1="4.151" y2="-7.939"/><linearGradient xlink:href="#c" id="eJ" x1="335.555" x2="335.555" y1="3.85" y2="-7.363"/><linearGradient xlink:href="#c" id="eK" x1=".502" x2=".502" y1="3.045" y2="-6.813"/><linearGradient xlink:href="#c" id="eL" x1=".5" x2=".5" y1="2.826" y2="-6.31"/><linearGradient xlink:href="#c" id="eM" x1=".5" x2=".5" y1="2.236" y2="-6.236"/><linearGradient xlink:href="#c" id="eN" x1=".5" x2=".5" y1="2.073" y2="-5.782"/><linearGradient xlink:href="#c" id="eO" x1=".581" x2=".548" y1="1.346" y2="0"/></defs><path fill="url(#e)" d="M75.93 13.82a13.65 13.65 0 0 1-1.7 6.63 4 4 0 0 1-.23.4 13.77 13.77 0 0 1-11.89 6.79H13.82a13.85 13.85 0 0 1-11.55-6.23 13.9 13.9 0 0 1-2.11-5.46A15 15 0 0 1 0 13.82a5 5 0 0 1 .02-.56.3.3 0 0 1 0-.13A13.82 13.82 0 0 1 13.82 0h48.29a13.795 13.795 0 0 1 13.82 13.82" transform="translate(0 .01)"/><g transform="translate(0 .01)"><path fill="#fff" d="M56.87 5.79a13.6 13.6 0 0 1-.24 2.57 10 10 0 0 1-.32 1.4 12.6 12.6 0 0 1-.69 1.89 14.4 14.4 0 0 1-3.29 4.63c-.33.3-.67.6-1.03.87a3.4 3.4 0 0 1-.38.28c0 .02-.03.03-.05.04a14.28 14.28 0 0 1-8.38 2.7h-.11a14.25 14.25 0 0 1-5.84-1.29 13 13 0 0 1-2.34-1.35.24.24 0 0 1-.09-.06 13 13 0 0 1-1.46-1.19 14.4 14.4 0 0 1-1.75-1.99 13.8 13.8 0 0 1-1.78-3.21c-.1-.23-.18-.47-.26-.71a14.2 14.2 0 0 1-.75-4.58c0-.51.03-1.01.07-1.5A14.4 14.4 0 0 1 29.33 0h26.32a14.2 14.2 0 0 1 1.22 5.79" data-name="Path 16709" opacity=".2"/><path fill="#fff" d="M54.11 5.79v.03a5 5 0 0 1-.02.53 11.5 11.5 0 0 1-.66 3.38 2 2 0 0 0-.08.22l-.21.51a12 12 0 0 1-.61 1.19 11.83 11.83 0 0 1-5.02 4.63c-.21.1-.42.19-.64.28a11 11 0 0 1-1.65.52 11.2 11.2 0 0 1-2.73.33 11.6 11.6 0 0 1-1.97-.17 11.6 11.6 0 0 1-3.05-.96c-.36-.18-.7-.36-1.04-.57h-.01a11.7 11.7 0 0 1-4.15-4.38c-.04-.08-.09-.16-.13-.25a11.6 11.6 0 0 1-1.27-5.29 5 5 0 0 1 .02-.53A11.46 11.46 0 0 1 32.41 0h20.16a11.56 11.56 0 0 1 1.54 5.79" data-name="Path 16710" opacity=".2"/><path fill="#fff" d="M51.35 5.79c0 .19-.01.37-.02.56a8.8 8.8 0 0 1-1.31 4.12h-.01a8 8 0 0 1-.88 1.17 8.857 8.857 0 0 1-13.75-.57 8.6 8.6 0 0 1-1.39-2.8 8.6 8.6 0 0 1-.36-2.49 8.8 8.8 0 0 1 2.15-5.79H49.2a8.7 8.7 0 0 1 1.76 3.19h.01c.03.1.05.2.08.29v.03a8.6 8.6 0 0 1 .3 2.28Z" data-name="Path 16711" opacity=".2"/><path fill="#fff" d="M48.6 5.79a5 5 0 0 1-.03.56 6 6 0 0 1-2.3 4.22 4.5 4.5 0 0 1-.75.51 6.07 6.07 0 0 1-6.06 0 6.06 6.06 0 0 1-2.79-3.45 5.9 5.9 0 0 1-.29-1.84A6.09 6.09 0 0 1 40.57 0h3.84a5.95 5.95 0 0 1 3.16 2.41 6.05 6.05 0 0 1 1.03 3.38" data-name="Path 16712" opacity=".2"/><circle cx="3.35" cy="3.35" r="3.35" fill="#fef66b" data-name="Ellipse 293" transform="translate(39.14 2.44)"/></g><path fill="url(#f)" d="M68.4 16.28v9.85a13.8 13.8 0 0 1-6.29 1.51H13.82A13.77 13.77 0 0 1 4.7 24.2v-7.92Z" data-name="Path 16713" transform="translate(0 .01)"/><path fill="url(#a)" d="M21.81 10.94a.51.51 0 0 1 .44 0 .34.34 0 0 1 .3-.19h.04a.8.8 0 0 1 .38-.47 1.4 1.4 0 0 1-.09-.5 1.51 1.51 0 0 1 1.51-1.51.8.8 0 0 1 .22.02 1.05 1.05 0 0 1 .31-.67 1.4 1.4 0 0 1-.03-.29 1.51 1.51 0 0 1 1.51-1.51h.14a2.449 2.449 0 0 1 4.62-.01h.05a1.51 1.51 0 0 1 1.51 1.51 1.025 1.025 0 0 1 1.02.95 1 1 0 0 1 .17-.02.82.82 0 0 1 .62.28.97.97 0 0 1 .89-.57.9.9 0 0 1 .36.07.951.951 0 0 1 1.74.51 1.46 1.46 0 0 1 1.11 1.34 1 1 0 0 1 .45-.11.9.9 0 0 1 .51.15.97.97 0 0 1 1.92-.2 1.6 1.6 0 0 1 .38-.05 1.38 1.38 0 0 1 1.27.82.7.7 0 0 1 .45-.15.76.76 0 0 1 .58.28.5.5 0 0 1 .27-.07.53.53 0 0 1 .48.3.7.7 0 0 1 .28-.06.6.6 0 0 1 .23.04.593.593 0 0 1 1.09.04.76.76 0 0 1 .68 0 .35.35 0 0 1 .27-.14.337.337 0 0 1 .34.34H21.62a.5.5 0 0 1 .18-.14Z" data-name="Path 16714" transform="translate(0 .01)"/><path fill="url(#g)" d="M70.86 11.51a.51.51 0 0 0-.44 0 .34.34 0 0 0-.3-.19h-.04a.8.8 0 0 0-.38-.47 1.4 1.4 0 0 0 .09-.5c0-.17-.68-1.51-1.51-1.51a.8.8 0 0 0-.22.02 1.05 1.05 0 0 0-.31-.67 1.4 1.4 0 0 0 .03-.29 1.51 1.51 0 0 0-1.51-1.51h-.14a2.449 2.449 0 0 0-4.62-.01h-.05a1.51 1.51 0 0 0-1.51 1.51 1.025 1.025 0 0 0-1.02.95 1 1 0 0 0-.17-.02.82.82 0 0 0-.62.28.97.97 0 0 0-.89-.57.9.9 0 0 0-.36.07.951.951 0 0 0-1.74.51 1.46 1.46 0 0 0-1.11 1.34 1 1 0 0 0-.45-.11.9.9 0 0 0-.51.15.97.97 0 0 0-1.92-.2 1.6 1.6 0 0 0-.38-.05 1.38 1.38 0 0 0-1.27.82.7.7 0 0 0-.45-.15.76.76 0 0 0-.58.28.5.5 0 0 0-.27-.07.53.53 0 0 0-.48.3.7.7 0 0 0-.28-.06.6.6 0 0 0-.23.04.593.593 0 0 0-1.09.04.76.76 0 0 0-.68 0 .35.35 0 0 0-.27-.14.337.337 0 0 0-.34.34h26.21a.5.5 0 0 0-.18-.14Z" data-name="Path 16715" transform="translate(0 .01)"/><path fill="url(#h)" d="M55.49 5.92a.44.44 0 0 0-.34.17 1 1 0 0 0-.42-.1 1 1 0 0 0-.43.1.75.75 0 0 0-.56-.47 1.4 1.4 0 0 0-.69-.57 1.3 1.3 0 0 0 .03-.28 1.24 1.24 0 0 0-1.24-1.24 1.3 1.3 0 0 0-.49.1.63.63 0 0 0-.3-.13 1.2 1.2 0 0 0-.1-.32 1.23 1.23 0 0 0-1.11-.72 1.3 1.3 0 0 0-.45.08 1.181 1.181 0 0 0-2.16.64 1.8 1.8 0 0 0-1.38 1.67 1.2 1.2 0 0 0-.56-.14 1.26 1.26 0 0 0-.64.18 1.208 1.208 0 0 0-2.39-.25 1.8 1.8 0 0 0-.47-.06A1.76 1.76 0 0 0 40.2 5.6a.9.9 0 0 0-.56-.19.93.93 0 0 0-.72.35.64.64 0 0 0-.34-.09.66.66 0 0 0-.6.38.7.7 0 0 0-.06.28H55.9a.427.427 0 0 0-.43-.43Z" data-name="Path 16716" transform="translate(0 .01)"/><path fill="url(#i)" d="M8.89 5.52a.32.32 0 0 1 .26.13.7.7 0 0 1 .32-.08.8.8 0 0 1 .33.08.56.56 0 0 1 .43-.36 1.02 1.02 0 0 1 .53-.43.8.8 0 0 1-.03-.22.95.95 0 0 1 .95-.95 1 1 0 0 1 .38.08.44.44 0 0 1 .23-.1 1 1 0 0 1 .07-.25.945.945 0 0 1 1.19-.49.908.908 0 0 1 1.66.49 1.39 1.39 0 0 1 1.06 1.28.9.9 0 0 1 .43-.1.9.9 0 0 1 .49.14.931.931 0 0 1 1.84-.2 1.5 1.5 0 0 1 .36-.05 1.34 1.34 0 0 1 1.22.78.694.694 0 0 1 .98.12.56.56 0 0 1 .26-.07.51.51 0 0 1 .46.29.6.6 0 0 1 .05.22H8.57a.333.333 0 0 1 .33-.33Z" data-name="Path 16717" transform="translate(0 .01)"/><path fill="url(#j)" d="M29.39 10.29c3.19 0 8.81 7.19 28.86 7.19H7.18c12.83 0 19.61-7.19 22.21-7.19" data-name="Path 16718" transform="translate(0 .01)"/><path fill="url(#b)" d="M53.34 17.47H42.41c-.84 0-1.65 0-2.42.02h-.02c-2.15.01-4.07.02-5.77.04-1.4.02-2.65.03-3.79.05l-1.33.03c-.21 0-.42.01-.62.01-9.81.22-7.83.67-5.63 1.3 1.93.55-.22.61-2.99 1.06-.23.04-.46.07-.69.12l-.18.03h-.02a1 1 0 0 1-.2.04c-.01.01-.02.01-.04.01-.08.02-.16.03-.24.05-.26.05-.5.11-.76.18h-.01l-.15.03-.02.01-.14.03c-.01 0-.02.01-.03.01l-.24.06c-.42.12-.82.25-1.21.4a.4.4 0 0 0-.09.04c-.05.02-.11.04-.17.06a.4.4 0 0 1-.11.05c-.01.01-.03.01-.04.02-.06.03-.11.05-.16.08a3 3 0 0 0-.36.18.1.1 0 0 0-.06.03c-.06.03-.13.07-.19.1-.11.07-.21.13-.31.2a2 2 0 0 1-.22.12.6.6 0 0 1-.14.05.3.3 0 0 1-.08.04h-.01a.1.1 0 0 1-.03.01 1 1 0 0 1-.15.04 1 1 0 0 1-.16.04l-.07.02-.21.04-.23.03a1 1 0 0 1-.18.02h-.01a4 4 0 0 1-.36.04h-.01c-.25.02-.51.04-.8.04-.12.01-.25.01-.38.01a58 58 0 0 1-6.68-.49c-.79-.09-1.6-.2-2.43-.31a13.9 13.9 0 0 1-2.11-5.46A15 15 0 0 1 0 13.82a5 5 0 0 1 .02-.56.3.3 0 0 1 0-.13c.9-.4 1.74-.81 2.54-1.23l.12-.06a.6.6 0 0 0 .14-.08h.01l.08-.04c.1-.06.2-.11.29-.16.01 0 .02-.01.03-.02a.8.8 0 0 0 .16-.08.3.3 0 0 0 .08-.04C7.66 9.2 10.45 7.2 12.09 7.2a.6.6 0 0 1 .13.01c.12 0 .24.02.37.03a5.6 5.6 0 0 1 .81.17c.15.04.3.09.46.14s.31.1.48.16.33.12.51.19a5 5 0 0 1 .54.22c.19.07.38.15.58.24 1.58.67 3.5 1.59 5.81 2.59.11.04.21.08.32.13.59.25 1.2.51 1.85.76.36.16.73.3 1.12.45 1.75.68 3.69 1.37 5.82 2 .85.26 1.74.51 2.66.74.46.12.93.24 1.41.35.35.08.7.16 1.06.24l.39.09c.01 0 .01.01.02 0 .23.06.46.11.7.15q.675.15 1.38.27c.27.05.54.1.82.15.77.14 1.56.27 2.37.38l.24.03a41 41 0 0 0 1.95.25c.43.05.87.1 1.32.14.36.04.72.07 1.09.1s.74.05 1.12.08c.47.04.95.07 1.43.09s.99.05 1.49.06a5 5 0 0 0 .57.02c.22.01.45.02.68.02.57.01 1.15.02 1.74.02Z" data-name="Path 16719" transform="translate(0 .01)"/><path fill="url(#d)" d="M12.1 7.2c4.56 0 16.6 10.27 41.25 10.27H42.42c-6.2.02-10.71.07-13.95.15-6.46-.5-12.58-6.4-13-7.19s4.67 1.44 4.03.53-6.14-3.75-7.39-3.75Z" data-name="Path 16720" opacity=".3" transform="translate(0 .01)"/><path fill="url(#k)" d="M74.23 20.45a4 4 0 0 1-.23.4h-7.2s-9.88 6.94-12.82 5.7a13.8 13.8 0 0 0-2.74-.64 2 2 0 0 1-.21-.03h-.02l-1.38-.21h-.01a1 1 0 0 1-.12-.01c-.13-.02-.25-.03-.38-.05h-.03l-.21-.03c-.05-.01-.09-.01-.14-.02a1 1 0 0 1-.13-.02h-.08l-.43-.06h-.01c-.06 0-.11-.02-.17-.02-.13-.02-.27-.04-.39-.06h-.04c-.06-.01-.11-.01-.16-.02-.11-.01-.22-.03-.32-.04s-.21-.03-.31-.04c-.24-.03-.48-.06-.71-.1a2 2 0 0 1-.22-.02 3 3 0 0 0-.28-.04.2.2 0 0 0-.08-.01l-.4-.06H45a.2.2 0 0 0-.05-.01c-.09-.02-.17-.03-.25-.04h-.01l-.14-.03c-.13-.02-.25-.04-.37-.06a.6.6 0 0 0-.13-.02h-.02a.5.5 0 0 0-.16-.03 4 4 0 0 0-.42-.09c-.05 0-.09-.03-.14-.03h-.01c-.07-.02-.12-.04-.18-.06h-.01a1 1 0 0 1-.09-.02c-.06-.02-.11-.03-.16-.05s-.12-.03-.17-.05c-.68-.25-.74-.53.23-.88a.5.5 0 0 1 .17-.06 2 2 0 0 1 .29-.1h.02a.1.1 0 0 0 .05-.02c.01 0 .02-.01.03-.01h.02c.08-.02.14-.05.21-.07a.2.2 0 0 1 .08-.02c.03-.01.05-.02.08-.03l.09-.03c2.62-.91.49-1.66-5.01-2.1-.19-.01-.38-.03-.58-.04s-.4-.03-.61-.04a.5.5 0 0 0-.11-.01c-.54-.03-1.01-.05-1.42-.08h-.07c-.3-.01-.57-.02-.81-.04l-.63-.03-.82-.03c-.16-.01-.29-.01-.41-.02-.14 0-.27-.01-.41-.01-.11 0-.21-.01-.32-.01-.23-.01-.45-.02-.69-.02-.53-.02-1.07-.03-1.62-.04-.31 0-.62-.01-.93-.01q-1.875-.03-3.93-.03c.5 0 .99 0 1.48-.04.68-.03 1.36-.09 2.02-.17l.77-.09c.87-.13 1.72-.28 2.56-.48q.315-.06.63-.15c.32-.07.64-.15.95-.24.42-.11.83-.23 1.24-.36.44-.14.88-.28 1.31-.44h.01s.11-.04.16-.06c.54-.19 1.07-.39 1.59-.61q.825-.33 1.62-.69l.06-.03h.02l.02-.02c.17-.07.34-.15.51-.23.4-.19.8-.38 1.19-.58.25-.12.49-.25.73-.38.3-.15.6-.31.89-.48h.01c.99-.54 1.94-1.09 2.83-1.63q.45-.27.87-.54c1.14-.7 2.18-1.38 3.11-1.98 1.07-.68 2-1.27 2.78-1.67a5 5 0 0 1 .5-.25 5 5 0 0 1 .95-.34c.09-.02.18-.03.26-.04h.05a.6.6 0 0 1 .13-.01 3.4 3.4 0 0 1 1.49.43 18 18 0 0 1 2.83 1.89c.92.7 1.94 1.52 3.03 2.37a.6.6 0 0 1 .09.07.5.5 0 0 1 .12.09c.01 0 .02.01.03.02s0 .01.02.02.03.02.05.04c.04.02.08.06.13.09a.01.01 0 0 0 .01.01c.06.05.13.1.2.15a.6.6 0 0 0 .1.07h.01c.11.1.22.18.33.27l.02.02h.03c.21.17.43.33.66.5.06.04.11.08.17.12l.11.08c.02.01.03.03.05.04l.09.06h.02l.07.07.28.19c.09.06.18.13.27.19s.16.11.24.16h.01c.09.07.18.13.27.19.11.08.22.15.33.22h.01c.8.54 1.64 1.05 2.51 1.52a22.2 22.2 0 0 0 5.83 2.24Z" data-name="Path 16721" transform="translate(0 .01)"/><g data-name="trees"><path fill="url(#c)" d="m53.66 18.62.53.71-.53-.11-.53.11Z" data-name="Path 16722" transform="translate(0 .01)"/><path fill="url(#l)" d="m53.66 18.89.75 1.01-.75-.17-.75.17Z" data-name="Path 16723" transform="translate(0 .01)"/><path fill="url(#m)" d="m53.66 18.89.6 1.09-.6-.18-.6.18Z" data-name="Path 16724" transform="translate(0 .01)"/><path fill="url(#n)" d="m53.66 19.35.91 1.23-.91-.2-.91.2Z" data-name="Path 16725" transform="translate(0 .01)"/><path fill="url(#o)" d="m53.66 19.35.73 1.32-.73-.21-.73.21Z" data-name="Path 16726" transform="translate(0 .01)"/><path fill="url(#p)" d="m53.66 19.86 1.18 1.59-1.18-.26-1.18.26Z" data-name="Path 16727" transform="translate(0 .01)"/><path fill="url(#q)" d="m53.66 19.86.94 1.72-.94-.29-.94.29Z" data-name="Path 16728" transform="translate(0 .01)"/><path fill="url(#r)" d="m53.66 20.52 1.45 1.96-1.45-.33-1.45.33Z" data-name="Path 16729" transform="translate(0 .01)"/><path fill="url(#s)" d="m53.66 20.52 1.16 2.11-1.16-.35-1.16.35Z" data-name="Path 16730" transform="translate(0 .01)"/><path fill="url(#t)" d="m53.66 21.4 1.69 2.28-1.69-.37-1.69.37Z" data-name="Path 16731" transform="translate(0 .01)"/><path fill="url(#u)" d="m53.66 21.4 1.35 2.46-1.35-.4-1.35.4Z" data-name="Path 16732" transform="translate(0 .01)"/><path fill="url(#v)" d="m58.41 15.99.52.71-.52-.11-.53.11Z" data-name="Path 16733" transform="translate(0 .01)"/><path fill="url(#w)" d="m58.41 16.25.75 1.02-.75-.17-.75.17Z" data-name="Path 16734" transform="translate(0 .01)"/><path fill="url(#x)" d="m58.41 16.25.6 1.1-.6-.18-.61.18Z" data-name="Path 16735" transform="translate(0 .01)"/><path fill="url(#y)" d="m58.41 16.72.91 1.23-.91-.2-.91.2Z" data-name="Path 16736" transform="translate(0 .01)"/><path fill="url(#z)" d="m58.41 16.72.73 1.33-.73-.22-.73.22Z" data-name="Path 16737" transform="translate(0 .01)"/><path fill="url(#A)" d="m58.41 17.23 1.18 1.59-1.18-.26-1.18.26Z" data-name="Path 16738" transform="translate(0 .01)"/><path fill="url(#B)" d="m58.41 17.23.94 1.72-.94-.28-.95.28Z" data-name="Path 16739" transform="translate(0 .01)"/><path fill="url(#C)" d="m58.41 17.89 1.45 1.96-1.45-.32-1.45.32Z" data-name="Path 16740" transform="translate(0 .01)"/><path fill="url(#D)" d="m58.41 17.89 1.16 2.12-1.16-.35-1.17.35Z" data-name="Path 16741" transform="translate(0 .01)"/><path fill="url(#E)" d="m58.41 18.78 1.69 2.28-1.69-.37-1.69.37Z" data-name="Path 16742" transform="translate(0 .01)"/><path fill="url(#F)" d="m58.41 18.78 1.35 2.46-1.35-.4-1.36.4Z" data-name="Path 16743" transform="translate(0 .01)"/><path fill="url(#G)" d="m64.87 12.68.41.56-.41-.09-.41.09Z" data-name="Path 16744" transform="translate(0 .01)"/><path fill="url(#H)" d="m64.87 12.89.58.79-.58-.13-.58.13Z" data-name="Path 16745" transform="translate(0 .01)"/><path fill="url(#I)" d="m64.87 12.89.46.85-.46-.14-.47.14Z" data-name="Path 16746" transform="translate(0 .01)"/><path fill="url(#J)" d="m64.87 13.25.7.95-.7-.15-.71.15Z" data-name="Path 16747" transform="translate(0 .01)"/><path fill="url(#K)" d="m64.87 13.25.56 1.03-.56-.17-.57.17Z" data-name="Path 16748" transform="translate(0 .01)"/><path fill="url(#L)" d="m64.87 13.64.91 1.24-.91-.2-.92.2Z" data-name="Path 16749" transform="translate(0 .01)"/><path fill="url(#M)" d="m64.87 13.64.73 1.34-.73-.22-.74.22Z" data-name="Path 16750" transform="translate(0 .01)"/><path fill="url(#N)" d="m64.87 14.16 1.12 1.52-1.12-.25-1.13.25Z" data-name="Path 16751" transform="translate(0 .01)"/><path fill="url(#O)" d="m64.87 14.16.9 1.64-.9-.27-.9.27Z" data-name="Path 16752" transform="translate(0 .01)"/><path fill="url(#P)" d="m64.87 14.84 1.31 1.77-1.31-.29-1.31.29Z" data-name="Path 16753" transform="translate(0 .01)"/><path fill="url(#Q)" d="m64.87 14.84 1.05 1.91-1.05-.31-1.05.31Z" data-name="Path 16754" transform="translate(0 .01)"/><path fill="url(#R)" d="m45.18 22.99.48.65-.48-.11-.48.11Z" data-name="Path 16755" transform="translate(0 .01)"/><path fill="url(#S)" d="m45.18 23.23.69.93-.69-.15-.69.15Z" data-name="Path 16756" transform="translate(0 .01)"/><path fill="url(#T)" d="m45.18 23.23.55 1-.55-.16-.55.16Z" data-name="Path 16757" transform="translate(0 .01)"/><path fill="url(#U)" d="m45.18 23.66.83 1.12-.83-.18-.83.18Z" data-name="Path 16758" transform="translate(0 .01)"/><path fill="url(#V)" d="m45.18 23.66.67 1.21-.67-.2-.67.2Z" data-name="Path 16759" transform="translate(0 .01)"/><path fill="url(#W)" d="m45.18 24.12 1.08 1.46-1.08-.24-1.08.24Z" data-name="Path 16760" transform="translate(0 .01)"/><path fill="url(#X)" d="m45.18 24.12.87 1.58-.87-.26-.87.26Z" data-name="Path 16761" transform="translate(0 .01)"/><path fill="url(#Y)" d="m45.18 24.73 1.33 1.8-1.33-.3-1.33.3Z" data-name="Path 16762" transform="translate(0 .01)"/><path fill="url(#Z)" d="m45.18 24.73 1.07 1.94-1.07-.32-1.06.32Z" data-name="Path 16763" transform="translate(0 .01)"/><path fill="url(#aa)" d="m45.18 25.54 1.55 2.09-1.55-.34-1.55.34Z" data-name="Path 16764" transform="translate(0 .01)"/><path fill="url(#ab)" d="M46.33 27.64h-.45l-.7-.21-.56.17-.14.04h-.45l.06-.11.04-.08.06-.11.12-.22h.01l.11-.2.02-.06.17-.29.03-.06.1-.18.43-.79.43.79.1.18.14.26.42.76Z" data-name="Path 16765" transform="translate(0 .01)"/><path fill="url(#ac)" d="m47.97 21.26.56.81-.56-.14-.55.14Z" data-name="Path 16766" transform="translate(0 .01)"/><path fill="url(#ad)" d="m47.97 21.56.79 1.15-.79-.19-.79.19Z" data-name="Path 16767" transform="translate(0 .01)"/><path fill="url(#ae)" d="m47.97 21.56.64 1.24-.64-.2-.63.2Z" data-name="Path 16768" transform="translate(0 .01)"/><path fill="url(#af)" d="m47.97 22.09.96 1.4-.96-.23-.95.23Z" data-name="Path 16769" transform="translate(0 .01)"/><path fill="url(#ag)" d="m47.97 22.09.77 1.51-.77-.25-.76.25Z" data-name="Path 16770" transform="translate(0 .01)"/><path fill="url(#ah)" d="m47.97 22.67 1.24 1.81-1.24-.3-1.24.3Z" data-name="Path 16771" transform="translate(0 .01)"/><path fill="url(#ai)" d="m47.97 22.67 1 1.96-1-.33-.99.33Z" data-name="Path 16772" transform="translate(0 .01)"/><path fill="url(#aj)" d="m47.97 23.42 1.53 2.24-1.53-.37-1.52.37Z" data-name="Path 16773" transform="translate(0 .01)"/><path fill="url(#ak)" d="m47.97 23.42 1.23 2.41-1.23-.39-1.22.39Z" data-name="Path 16774" transform="translate(0 .01)"/><path fill="url(#al)" d="m47.97 24.43 1.78 2.6-1.78-.43-1.77.43Z" data-name="Path 16775" transform="translate(0 .01)"/><path fill="url(#am)" d="m47.97 24.43 1.43 2.81-1.43-.46-1.42.46Z" data-name="Path 16776" transform="translate(0 .01)"/><path fill="url(#an)" d="m49.97 20.94.5.68-.5-.11-.5.11Z" data-name="Path 16777" transform="translate(0 .01)"/><path fill="url(#ao)" d="m49.97 21.19.72.97-.72-.16-.72.16Z" data-name="Path 16778" transform="translate(0 .01)"/><path fill="url(#ap)" d="m49.97 21.19.57 1.05-.57-.17-.57.17Z" data-name="Path 16779" transform="translate(0 .01)"/><path fill="url(#aq)" d="m49.97 21.64.87 1.17-.87-.19-.87.19Z" data-name="Path 16780" transform="translate(0 .01)"/><path fill="url(#ar)" d="m49.97 21.64.69 1.26-.69-.2-.7.2Z" data-name="Path 16781" transform="translate(0 .01)"/><path fill="url(#as)" d="m49.97 22.12 1.13 1.52-1.13-.25-1.13.25Z" data-name="Path 16782" transform="translate(0 .01)"/><path fill="url(#at)" d="m49.97 22.12.9 1.65-.9-.27-.9.27Z" data-name="Path 16783" transform="translate(0 .01)"/><path fill="url(#au)" d="m49.97 22.76 1.38 1.87-1.38-.31-1.38.31Z" data-name="Path 16784" transform="translate(0 .01)"/><path fill="url(#av)" d="m49.97 22.76 1.11 2.02-1.11-.34-1.11.34Z" data-name="Path 16785" transform="translate(0 .01)"/><path fill="url(#aw)" d="m49.97 23.6 1.61 2.18-1.61-.36-1.61.36Z" data-name="Path 16786" transform="translate(0 .01)"/><path fill="url(#ax)" d="m49.97 23.6 1.29 2.35-1.29-.38-1.29.38Z" data-name="Path 16787" transform="translate(0 .01)"/><path fill="url(#ay)" d="m52.23 18.18.58.84-.58-.14-.57.14Z" data-name="Path 16788" transform="translate(0 .01)"/><path fill="url(#az)" d="m52.23 18.49.82 1.2-.82-.2-.81.2Z" data-name="Path 16789" transform="translate(0 .01)"/><path fill="url(#aA)" d="m52.23 18.49.66 1.29-.66-.21-.65.21Z" data-name="Path 16790" transform="translate(0 .01)"/><path fill="url(#aB)" d="m52.23 19.04.99 1.45-.99-.24-.98.24Z" data-name="Path 16791" transform="translate(0 .01)"/><path fill="url(#aC)" d="m52.23 19.04.8 1.56-.8-.25-.79.25Z" data-name="Path 16792" transform="translate(0 .01)"/><path fill="url(#aD)" d="m52.23 19.64 1.29 1.87-1.29-.3-1.28.3Z" data-name="Path 16793" transform="translate(0 .01)"/><path fill="url(#aE)" d="m52.23 19.64 1.03 2.02-1.03-.33-1.02.33Z" data-name="Path 16794" transform="translate(0 .01)"/><path fill="url(#aF)" d="m52.23 20.42 1.58 2.3-1.58-.38-1.57.38Z" data-name="Path 16795" transform="translate(0 .01)"/><path fill="url(#aG)" d="m52.23 20.42 1.27 2.49-1.27-.41-1.26.41Z" data-name="Path 16796" transform="translate(0 .01)"/><path fill="url(#aH)" d="m52.23 21.46 1.84 2.68-1.84-.44-1.83.44Z" data-name="Path 16797" transform="translate(0 .01)"/><path fill="url(#aI)" d="m52.23 21.46 1.48 2.9-1.48-.48-1.47.48Z" data-name="Path 16798" transform="translate(0 .01)"/><path fill="url(#aJ)" d="m61.13 14.52.44.59-.44-.09-.44.09Z" data-name="Path 16799" transform="translate(0 .01)"/><path fill="url(#aK)" d="m61.13 14.74.63.84-.63-.13-.62.13Z" data-name="Path 16800" transform="translate(0 .01)"/><path fill="url(#aL)" d="m61.13 14.74.5.91-.5-.15-.5.15Z" data-name="Path 16801" transform="translate(0 .01)"/><path fill="url(#aM)" d="m61.13 15.13.76 1.02-.76-.17-.76.17Z" data-name="Path 16802" transform="translate(0 .01)"/><path fill="url(#aN)" d="m61.13 15.13.61 1.1-.61-.18-.61.18Z" data-name="Path 16803" transform="translate(0 .01)"/><path fill="url(#aO)" d="m61.13 15.55.98 1.33-.98-.22-.98.22Z" data-name="Path 16804" transform="translate(0 .01)"/><path fill="url(#aP)" d="m61.13 15.55.79 1.43-.79-.23-.79.23Z" data-name="Path 16805" transform="translate(0 .01)"/><path fill="url(#aQ)" d="m61.13 16.1 1.21 1.64-1.21-.27-1.21.27Z" data-name="Path 16806" transform="translate(0 .01)"/><path fill="url(#aR)" d="m61.13 16.1.97 1.76-.97-.29-.97.29Z" data-name="Path 16807" transform="translate(0 .01)"/><path fill="url(#aS)" d="m61.13 16.84 1.41 1.9-1.41-.31-1.41.31Z" data-name="Path 16808" transform="translate(0 .01)"/><path fill="url(#aT)" d="m61.13 16.84 1.13 2.05-1.13-.34-1.13.34Z" data-name="Path 16809" transform="translate(0 .01)"/><path fill="url(#aU)" d="m62.68 13.09.49.67-.49-.11-.5.11Z" data-name="Path 16810" transform="translate(0 .01)"/><path fill="url(#aV)" d="m62.68 13.34.7.95-.7-.15-.71.15Z" data-name="Path 16811" transform="translate(0 .01)"/><path fill="url(#aW)" d="m62.68 13.34.56 1.03-.56-.17-.57.17Z" data-name="Path 16812" transform="translate(0 .01)"/><path fill="url(#aX)" d="m62.68 13.78.85 1.15-.85-.19-.86.19Z" data-name="Path 16813" transform="translate(0 .01)"/><path fill="url(#aY)" d="m62.68 13.78.68 1.24-.68-.2-.69.2Z" data-name="Path 16814" transform="translate(0 .01)"/><path fill="url(#aZ)" d="m62.68 14.26 1.11 1.49-1.11-.24-1.11.24Z" data-name="Path 16815" transform="translate(0 .01)"/><path fill="url(#ba)" d="m62.68 14.26.89 1.61-.89-.26-.89.26Z" data-name="Path 16816" transform="translate(0 .01)"/><path fill="url(#bb)" d="m62.68 14.88 1.36 1.84-1.36-.3-1.37.3Z" data-name="Path 16817" transform="translate(0 .01)"/><path fill="url(#bc)" d="m62.68 14.88 1.09 1.99-1.09-.33-1.1.33Z" data-name="Path 16818" transform="translate(0 .01)"/><path fill="url(#bd)" d="m62.68 15.71 1.59 2.15-1.59-.36-1.59.36Z" data-name="Path 16819" transform="translate(0 .01)"/><path fill="url(#be)" d="m62.68 15.71 1.27 2.32-1.27-.38-1.28.38Z" data-name="Path 16820" transform="translate(0 .01)"/><path fill="url(#bf)" d="m66.21 11.21.52.71-.52-.12-.52.12Z" data-name="Path 16821" transform="translate(0 .01)"/><path fill="url(#bg)" d="m66.21 11.47.74 1.01-.74-.17-.75.17Z" data-name="Path 16822" transform="translate(0 .01)"/><path fill="url(#bh)" d="m66.21 11.47.59 1.09-.59-.18-.6.18Z" data-name="Path 16823" transform="translate(0 .01)"/><path fill="url(#bi)" d="m66.21 11.93.9 1.22-.9-.2-.9.2Z" data-name="Path 16824" transform="translate(0 .01)"/><path fill="url(#bj)" d="m66.21 11.93.72 1.32-.72-.22-.72.22Z" data-name="Path 16825" transform="translate(0 .01)"/><path fill="url(#bk)" d="m66.21 12.44 1.16 1.57-1.16-.26-1.17.26Z" data-name="Path 16826" transform="translate(0 .01)"/><path fill="url(#bl)" d="m66.21 12.44.93 1.7-.93-.28-.94.28Z" data-name="Path 16827" transform="translate(0 .01)"/><path fill="url(#bm)" d="m66.21 13.09 1.43 1.94-1.43-.32-1.44.32Z" data-name="Path 16828" transform="translate(0 .01)"/><path fill="url(#bn)" d="m66.21 13.09 1.15 2.1-1.15-.35-1.15.35Z" data-name="Path 16829" transform="translate(0 .01)"/><path fill="url(#bo)" d="m66.21 13.97 1.67 2.26-1.67-.37-1.67.37Z" data-name="Path 16830" transform="translate(0 .01)"/><path fill="url(#bp)" d="m66.21 13.97 1.34 2.44-1.34-.4-1.34.4Z" data-name="Path 16831" transform="translate(0 .01)"/><path fill="url(#bq)" d="m68.43 8.9.52.7-.52-.11-.52.11Z" data-name="Path 16832" transform="translate(0 .01)"/><path fill="url(#br)" d="m68.43 9.16.74 1-.74-.16-.74.16Z" data-name="Path 16833" transform="translate(0 .01)"/><path fill="url(#bs)" d="m68.43 9.16.6 1.08-.6-.18-.59.18Z" data-name="Path 16834" transform="translate(0 .01)"/><path fill="url(#bt)" d="m68.43 9.62.9 1.22-.9-.2-.9.2Z" data-name="Path 16835" transform="translate(0 .01)"/><path fill="url(#bu)" d="m68.43 9.62.72 1.31-.72-.21-.72.21Z" data-name="Path 16836" transform="translate(0 .01)"/><path fill="url(#bv)" d="m68.43 10.12 1.17 1.58-1.17-.26-1.17.26Z" data-name="Path 16837" transform="translate(0 .01)"/><path fill="url(#bw)" d="m68.43 10.12.94 1.71-.94-.28-.93.28Z" data-name="Path 16838" transform="translate(0 .01)"/><path fill="url(#bx)" d="m68.43 10.78 1.44 1.94-1.44-.32-1.43.32Z" data-name="Path 16839" transform="translate(0 .01)"/><path fill="url(#by)" d="m68.43 10.78 1.15 2.09-1.15-.34-1.15.34Z" data-name="Path 16840" transform="translate(0 .01)"/><path fill="url(#bz)" d="m68.43 11.66 1.67 2.26-1.67-.38-1.67.38Z" data-name="Path 16841" transform="translate(0 .01)"/><path fill="url(#bA)" d="m68.43 11.66 1.34 2.43-1.34-.4-1.34.4Z" data-name="Path 16842" transform="translate(0 .01)"/><path fill="url(#bB)" d="m56.52 16.42.59.79-.59-.13-.58.13Z" data-name="Path 16843" transform="translate(0 .01)"/><path fill="url(#bC)" d="m56.52 16.71.84 1.13-.84-.18-.83.18Z" data-name="Path 16844" transform="translate(0 .01)"/><path fill="url(#bD)" d="m56.52 16.71.67 1.22-.67-.2-.67.2Z" data-name="Path 16845" transform="translate(0 .01)"/><path fill="url(#bE)" d="m56.52 17.23 1.02 1.37-1.02-.22-1.01.22Z" data-name="Path 16846" transform="translate(0 .01)"/><path fill="url(#bF)" d="m56.52 17.23.82 1.48-.82-.24-.81.24Z" data-name="Path 16847" transform="translate(0 .01)"/><path fill="url(#bG)" d="m56.52 17.8 1.32 1.78-1.32-.3-1.31.3Z" data-name="Path 16848" transform="translate(0 .01)"/><path fill="url(#bH)" d="m56.52 17.8 1.06 1.92-1.06-.32-1.05.32Z" data-name="Path 16849" transform="translate(0 .01)"/><path fill="url(#bI)" d="m56.52 18.54 1.62 2.18-1.62-.36-1.61.36Z" data-name="Path 16850" transform="translate(0 .01)"/><path fill="url(#bJ)" d="m56.52 18.54 1.3 2.36-1.3-.39-1.29.39Z" data-name="Path 16851" transform="translate(0 .01)"/><path fill="url(#bK)" d="m56.52 19.52 1.89 2.55-1.89-.42-1.88.42Z" data-name="Path 16852" transform="translate(0 .01)"/><path fill="url(#bL)" d="m56.52 19.52 1.51 2.75-1.51-.45-1.51.45Z" data-name="Path 16853" transform="translate(0 .01)"/><path fill="url(#bM)" d="m43.43 22.6.55.82-.55-.13-.55.13Z" data-name="Path 16854" transform="translate(0 .01)"/><path fill="url(#bN)" d="m43.43 22.91.78 1.16-.78-.19-.78.19Z" data-name="Path 16855" transform="translate(0 .01)"/><path fill="url(#bO)" d="m43.43 22.91.62 1.25-.62-.2-.62.2Z" data-name="Path 16856" transform="translate(0 .01)"/><path fill="url(#bP)" d="m43.43 23.44.94 1.41-.94-.23-.94.23Z" data-name="Path 16857" transform="translate(0 .01)"/><path fill="url(#bQ)" d="m43.43 23.44.75 1.52-.75-.25-.75.25Z" data-name="Path 16858" transform="translate(0 .01)"/><path fill="url(#bR)" d="m43.43 24.03 1.22 1.83-1.22-.31-1.22.31Z" data-name="Path 16859" transform="translate(0 .01)"/><path fill="url(#bS)" d="m43.43 24.03.98 1.97-.98-.32-.98.32Z" data-name="Path 16860" transform="translate(0 .01)"/><path fill="url(#bT)" d="m43.43 24.79 1.5 2.25-1.5-.37-1.5.37Z" data-name="Path 16861" transform="translate(0 .01)"/><path fill="url(#bU)" d="m43.43 24.79 1.2 2.43-1.2-.4-1.2.4Z" data-name="Path 16862" transform="translate(0 .01)"/><path fill="url(#bV)" d="M44.65 27.64h-2.44l.35-.53.18-.27.69-1.04.45.68.03.04.21.32.05.07.13.2.01.01.14.21.07.11.1.16Z" data-name="Path 16863" transform="translate(0 .01)"/><path fill="url(#bW)" d="M44.34 27.64h-1.82l.31-.62.11-.23.49-.99.49.99.11.23.02.04.14.28.04.08.04.07Z" data-name="Path 16864" transform="translate(0 .01)"/></g><path fill="url(#bX)" d="M75.93 13.82a13.65 13.65 0 0 1-1.7 6.63 4 4 0 0 1-.23.4 13.77 13.77 0 0 1-11.89 6.79H43.62a.4.4 0 0 0 .06-.02h.01a.03.03 0 0 0 .02-.01c.14-.05.28-.1.42-.16l.1-.03c.07-.03.15-.06.22-.09.47-.18.94-.37 1.4-.56.07-.03.12-.05.18-.08h.01s.08-.03.12-.05a.14.14 0 0 1 .06-.02 2 2 0 0 1 .23-.1.1.1 0 0 1 .04-.02.4.4 0 0 1 .1-.04c.15-.07.3-.14.45-.2.48-.22.96-.44 1.43-.66h.01c.02 0 .03-.01.05-.02l.06-.03c.03 0 .06-.03.09-.04s.03-.02.05-.02c.07-.04.14-.07.22-.11.01 0 .02-.01.03-.01h.01a2 2 0 0 1 .21-.11c.43-.21.85-.43 1.28-.65h.02s.09-.05.13-.07a.16.16 0 0 0 .07-.04.8.8 0 0 0 .16-.08 2 2 0 0 0 .22-.12 2 2 0 0 0 .23-.11c.01-.01.02-.01.03-.02l.84-.45a.04.04 0 0 1 .03-.01c.07-.04.13-.08.2-.12.02 0 .03-.01.05-.03.21-.11.43-.23.64-.35.07-.04.14-.08.22-.12.31-.18.63-.36.94-.55a.3.3 0 0 0 .07-.04.2.2 0 0 0 .08-.05.6.6 0 0 0 .14-.08.2.2 0 0 0 .08-.05 2 2 0 0 0 .23-.14c.09-.05.18-.1.27-.16a1 1 0 0 0 .13-.08h.01v-.01c.49-.29.96-.58 1.43-.88.16-.09.31-.19.46-.28.02-.01.03-.02.04-.02a.4.4 0 0 1 .12-.08c.01-.01.02-.02.03-.02l.09-.06a1 1 0 0 1 .12-.07c.09-.06.17-.12.25-.17.29-.19.59-.38.88-.57.06-.04.11-.08.16-.11a.03.03 0 0 1 .02-.01.5.5 0 0 1 .09-.06c.08-.06.16-.11.24-.17a1.4 1.4 0 0 0 .2-.13c.2-.13.4-.27.59-.4.15-.1.28-.2.43-.3a.01.01 0 0 1 .01-.01h.01c.34-.22.67-.46 1-.68.06-.04.11-.08.16-.12.02-.01.03-.02.05-.03a.1.1 0 0 1 .04-.02v-.01l.02-.02.09-.06a.5.5 0 0 1 .09-.06 2 2 0 0 1 .18-.13c.36-.25.7-.5 1.05-.75.01 0 .02-.01.03-.02l.12-.09a.04.04 0 0 1 .02-.01c.06-.05.13-.09.19-.14s.12-.09.19-.14h.02a2 2 0 0 1 .14-.1c.14-.1.28-.2.42-.31h.01a2 2 0 0 0 .17-.13 2 2 0 0 0 .22-.16 2 2 0 0 0 .2-.14c.07-.05.14-.1.21-.16a.2.2 0 0 0 .06-.04c.07-.05.14-.1.2-.14h.01l.01-.02a1 1 0 0 0 .1-.07.2.2 0 0 1 .06-.04l.03-.03s.08-.05.12-.08c.01-.01.03-.02.04-.03s.02-.02.03-.02c.22-.16.43-.32.64-.47.02-.01.03-.03.05-.03.1-.08.2-.15.3-.22.02-.02.04-.03.06-.05.02 0 .04-.03.06-.04a1 1 0 0 1 .1-.08l.02-.02a.4.4 0 0 1 .07-.05h.01s.06-.05.1-.08a1 1 0 0 0 .12-.09.01.01 0 0 0 .01-.01c.51-.35.99-.71 1.46-1.04a2 2 0 0 0 .13-.09l.03-.03h.01l.07-.05c.08-.06.16-.11.24-.17l.19-.13q.39-.27.75-.51c.08-.05.15-.1.22-.15 1.83-1.21 3.26-1.95 4.27-1.95a3 3 0 0 1 .59.06 14 14 0 0 1 .65 4.21Z" transform="translate(0 .01)"/><path fill="url(#bY)" d="M34.5 24.63c-1.97 0-4.1.08-6.19.22-.15.01-.31.02-.46.04a.3.3 0 0 0-.1 0 2 2 0 0 0-.23.02h-.02a1 1 0 0 0-.12.01h-.03c-.08.01-.17.01-.25.02-.04 0-.08.01-.12.01-.3.02-.61.05-.91.08h-.08c-.07.01-.14.01-.21.02h-.01a.3.3 0 0 0-.07.01h-.01a2 2 0 0 0-.23.02h-.11c-.5.05-.99.11-1.48.17a2 2 0 0 1-.21.02c-.09.02-.17.03-.25.04a.4.4 0 0 0-.1.01l-.63.09a.6.6 0 0 0-.13.02 3 3 0 0 0-.27.04 1 1 0 0 0-.18.02c-.03.01-.06.01-.1.02a.4.4 0 0 0-.12.02c-.1.01-.2.03-.3.05a.5.5 0 0 0-.12.02 2 2 0 0 0-.22.04h-.04c-.19.04-.38.07-.57.11-.06.01-.12.03-.18.04a3 3 0 0 0-.32.07c-2.29.47-3.82 1.07-3.9 1.76h-2.37a13.85 13.85 0 0 1-11.55-6.23A13.9 13.9 0 0 1 .2 15.93c.57-.32 1.12-.63 1.63-.93.16-.08.31-.17.46-.25a1 1 0 0 1 .16-.09c.29-.17.58-.33.85-.47.06-.04.12-.07.18-.11.02 0 .04 0 .05-.02a1 1 0 0 0 .11-.06c.09-.04.17-.09.25-.13a2 2 0 0 1 .21-.1c.27-.15.53-.28.77-.39.1-.05.2-.09.29-.13a.04.04 0 0 1 .03-.01.6.6 0 0 1 .12-.06 1 1 0 0 1 .14-.07 5 5 0 0 1 1.84-.5.4.4 0 0 1 .11.01.25.25 0 0 1 .12.01h.03a3.8 3.8 0 0 1 .81.17c.1.03.21.07.32.11a8 8 0 0 1 .92.41 20 20 0 0 1 2.13 1.26c.31.2.63.41.95.63.48.33.99.68 1.52 1.05q.24.15.48.33c.4.28.82.57 1.26.86.83.57 1.7 1.15 2.62 1.72.22.14.44.28.67.41.2.13.41.26.62.38.48.29.98.58 1.49.85.31.18.62.34.94.51.55.28 1.12.56 1.71.82q.27.135.54.24a27 27 0 0 0 3.09 1.15 25 25 0 0 0 2.41.61 5 5 0 0 0 .7.13 8 8 0 0 0 .85.13c.29.05.58.08.88.11s.61.05.92.07c.37.02.75.03 1.13.03Z" data-name="Path 16866" transform="translate(0 .01)"/><path fill="url(#bZ)" d="M49.7 13.86c3.12-1.08-3.23 5.82-10.77 7.4-3.33-.26-7.88-.41-13.36-.41 15.12 0 25.92-11.52 29.25-11.52-1.48 0-8.24 5.62-5.12 4.54Z" data-name="Path 16867" opacity=".3" transform="translate(0 .01)"/><path fill="url(#ca)" d="M7.28 12.63c4.47 0 14.15 12 27.22 12a76.4 76.4 0 0 0-14.92 1.36 31.7 31.7 0 0 1-8.2-8.95c-.55-1.32 4.39 2.76 4 1.67s-6.09-6.07-8.11-6.07Z" data-name="Path 16868" opacity=".3" transform="translate(0 .01)"/><g data-name="trees"><g data-name="trees"><path fill="url(#cb)" d="m17.47 20.09-.52.69.52-.11.51.11Z" data-name="Path 16869" transform="translate(0 .01)"/><path fill="url(#cc)" d="m17.47 20.34-.73.99.73-.16.73.16Z" data-name="Path 16870" transform="translate(0 .01)"/><path fill="url(#cd)" d="m17.47 20.34-.59 1.07.59-.18.58.18Z" data-name="Path 16871" transform="translate(0 .01)"/><path fill="url(#ce)" d="m17.47 20.8-.89 1.19.89-.19.88.19Z" data-name="Path 16872" transform="translate(0 .01)"/><path fill="url(#cf)" d="m17.47 20.8-.71 1.29.71-.21.71.21Z" data-name="Path 16873" transform="translate(0 .01)"/><path fill="url(#cg)" d="m17.47 21.29-1.15 1.55 1.15-.25 1.14.25Z" data-name="Path 16874" transform="translate(0 .01)"/><path fill="url(#ch)" d="m17.47 21.29-.92 1.68.92-.28.92.28Z" data-name="Path 16875" transform="translate(0 .01)"/><path fill="url(#ci)" d="m17.47 21.94-1.41 1.9 1.41-.31 1.41.31Z" data-name="Path 16876" transform="translate(0 .01)"/><path fill="url(#cj)" d="m17.47 21.94-1.13 2.05 1.13-.33 1.13.33Z" data-name="Path 16877" transform="translate(0 .01)"/><path fill="url(#ck)" d="m17.47 22.8-1.65 2.22 1.65-.37 1.64.37Z" data-name="Path 16878" transform="translate(0 .01)"/><path fill="url(#cl)" d="m17.47 22.8-1.32 2.39 1.32-.39 1.31.39Z" data-name="Path 16879" transform="translate(0 .01)"/><path fill="url(#cm)" d="m12.84 17.52-.51.7.51-.12.51.12Z" data-name="Path 16880" transform="translate(0 .01)"/><path fill="url(#cn)" d="m12.84 17.78-.73.99.73-.16.73.16Z" data-name="Path 16881" transform="translate(0 .01)"/><path fill="url(#co)" d="m12.84 17.78-.59 1.07.59-.18.59.18Z" data-name="Path 16882" transform="translate(0 .01)"/><path fill="url(#cp)" d="m12.84 18.23-.89 1.2.89-.2.89.2Z" data-name="Path 16883" transform="translate(0 .01)"/><path fill="url(#cq)" d="m12.84 18.23-.71 1.3.71-.22.71.22Z" data-name="Path 16884" transform="translate(0 .01)"/><path fill="url(#cr)" d="m12.84 18.73-1.15 1.55 1.15-.25 1.15.25Z" data-name="Path 16885" transform="translate(0 .01)"/><path fill="url(#cs)" d="m12.84 18.73-.92 1.68.92-.28.92.28Z" data-name="Path 16886" transform="translate(0 .01)"/><path fill="url(#ct)" d="m12.84 19.37-1.41 1.92 1.41-.32 1.41.32Z" data-name="Path 16887" transform="translate(0 .01)"/><path fill="url(#cu)" d="m12.84 19.37-1.13 2.07 1.13-.34 1.13.34Z" data-name="Path 16888" transform="translate(0 .01)"/><path fill="url(#cv)" d="m12.84 20.24-1.65 2.22 1.65-.36 1.65.36Z" data-name="Path 16889" transform="translate(0 .01)"/><path fill="url(#cw)" d="m12.84 20.24-1.32 2.4 1.32-.39 1.32.39Z" data-name="Path 16890" transform="translate(0 .01)"/><path fill="url(#cx)" d="m6.54 14.3-.39.54.39-.09.4.09Z" data-name="Path 16891" transform="translate(0 .01)"/><path fill="url(#cy)" d="m6.54 14.5-.56.77.56-.13.57.13Z" data-name="Path 16892" transform="translate(0 .01)"/><path fill="url(#cz)" d="m6.54 14.5-.45.83.45-.14.46.14Z" data-name="Path 16893" transform="translate(0 .01)"/><path fill="url(#cA)" d="m6.54 14.85-.68.93.68-.15.69.15Z" data-name="Path 16894" transform="translate(0 .01)"/><path fill="url(#cB)" d="m6.54 14.85-.55 1 .55-.16.55.16Z" data-name="Path 16895" transform="translate(0 .01)"/><path fill="url(#cC)" d="m6.54 15.24-.89 1.2.89-.2.89.2Z" data-name="Path 16896" transform="translate(0 .01)"/><path fill="url(#cD)" d="m6.54 15.24-.71 1.3.71-.22.72.22Z" data-name="Path 16897" transform="translate(0 .01)"/><path fill="url(#cE)" d="m6.54 15.74-1.09 1.48 1.09-.25 1.1.25Z" data-name="Path 16898" transform="translate(0 .01)"/><path fill="url(#cF)" d="m6.54 15.74-.88 1.6.88-.27.88.27Z" data-name="Path 16899" transform="translate(0 .01)"/><path fill="url(#cG)" d="m6.54 16.41-1.27 1.72 1.27-.28 1.28.28Z" data-name="Path 16900" transform="translate(0 .01)"/><path fill="url(#cH)" d="m6.54 16.41-1.02 1.86 1.02-.31 1.03.31Z" data-name="Path 16901" transform="translate(0 .01)"/><path fill="url(#cI)" d="m25.73 24.34-.47.64.47-.11.47.11Z" data-name="Path 16902" transform="translate(0 .01)"/><path fill="url(#cJ)" d="m25.73 24.58-.67.9.67-.14.67.14Z" data-name="Path 16903" transform="translate(0 .01)"/><path fill="url(#cK)" d="m25.73 24.58-.54.98.54-.16.54.16Z" data-name="Path 16904" transform="translate(0 .01)"/><path fill="url(#cL)" d="m25.73 25-.81 1.09.81-.18.81.18Z" data-name="Path 16905" transform="translate(0 .01)"/><path fill="url(#cM)" d="m25.73 25-.65 1.18.65-.2.65.2Z" data-name="Path 16906" transform="translate(0 .01)"/><path fill="url(#cN)" d="m25.73 25.45-1.05 1.42 1.05-.23 1.05.23Z" data-name="Path 16907" transform="translate(0 .01)"/><path fill="url(#cO)" d="m25.73 25.45-.84 1.54.84-.26.84.26Z" data-name="Path 16908" transform="translate(0 .01)"/><path fill="url(#cP)" d="M26.92 27.64h-.6l-.17-.05-.39-.08a.1.1 0 0 0-.03-.01l-.42.09-.17.04h-.04l-.56.01.34-.46.18-.24.14-.18.53-.72.53.72.13.17h.01l.1.15.05.06.07.09.03.05.12.16z" data-name="Path 16909" transform="translate(0 .01)"/><path fill="url(#cQ)" d="M26.61 27.64h-.81l-.07-.02-.07.02h-.81l.22-.39.2-.38.08-.15.38-.68.38.68.08.15.11.2.02.05.2.35Z" data-name="Path 16910" transform="translate(0 .01)"/><path fill="url(#cR)" d="M26.33 27.64h-1.2l.01-.01.2-.28.39-.52.59.8Z" data-name="Path 16911" transform="translate(0 .01)"/><path fill="url(#cS)" d="M26.18 27.64h-.9l.03-.05.12-.21.3-.55.42.76Z" data-name="Path 16912" transform="translate(0 .01)"/><path fill="url(#cT)" d="m23.01 22.66-.54.79.54-.13.54.13Z" data-name="Path 16913" transform="translate(0 .01)"/><path fill="url(#cU)" d="m23.01 22.95-.77 1.12.77-.18.77.18Z" data-name="Path 16914" transform="translate(0 .01)"/><path fill="url(#cV)" d="m23.01 22.95-.62 1.21.62-.2.62.2Z" data-name="Path 16915" transform="translate(0 .01)"/><path fill="url(#cW)" d="m23.01 23.47-.93 1.36.93-.23.93.23Z" data-name="Path 16916" transform="translate(0 .01)"/><path fill="url(#cX)" d="m23.01 23.47-.75 1.47.75-.24.75.24Z" data-name="Path 16917" transform="translate(0 .01)"/><path fill="url(#cY)" d="M23.01 24.03 21.8 25.8l1.21-.29 1.21.29Z" data-name="Path 16918" transform="translate(0 .01)"/><path fill="url(#cZ)" d="m23.01 24.03-.97 1.91.97-.31.97.31Z" data-name="Path 16919" transform="translate(0 .01)"/><path fill="url(#da)" d="m23.01 24.76-1.49 2.18 1.49-.36 1.49.36Z" data-name="Path 16920" transform="translate(0 .01)"/><path fill="url(#db)" d="m23.01 24.76-1.19 2.35 1.19-.38 1.19.38Z" data-name="Path 16921" transform="translate(0 .01)"/><path fill="url(#dc)" d="M24.3 27.64h-2.58l.33-.49.1-.14V27l.03-.03v-.01l.15-.21v-.01l.03-.04.28-.41.37-.54.65.95.03.04v.01l.18.25v.01Z" data-name="Path 16922" transform="translate(0 .01)"/><path fill="url(#dd)" d="M23.97 27.64h-1.92l.21-.43.03-.04.08-.17.04-.08.05-.09.07-.13.19-.38.29-.57.44.86.04.09.12.22Z" data-name="Path 16923" transform="translate(0 .01)"/><path fill="url(#de)" d="m21.06 22.35-.49.66.49-.11.49.11Z" data-name="Path 16924" transform="translate(0 .01)"/><path fill="url(#df)" d="m21.06 22.59-.69.95.69-.16.7.16Z" data-name="Path 16925" transform="translate(0 .01)"/><path fill="url(#dg)" d="m21.06 22.59-.56 1.02.56-.17.56.17Z" data-name="Path 16926" transform="translate(0 .01)"/><path fill="url(#dh)" d="m21.06 23.03-.84 1.14.84-.19.85.19Z" data-name="Path 16927" transform="translate(0 .01)"/><path fill="url(#di)" d="m21.06 23.03-.67 1.23.67-.2.68.2Z" data-name="Path 16928" transform="translate(0 .01)"/><path fill="url(#dj)" d="m21.06 23.5-1.09 1.48 1.09-.24 1.1.24Z" data-name="Path 16929" transform="translate(0 .01)"/><path fill="url(#dk)" d="m21.06 23.5-.88 1.6.88-.26.88.26Z" data-name="Path 16930" transform="translate(0 .01)"/><path fill="url(#dl)" d="m21.06 24.12-1.35 1.82 1.35-.3 1.35.3Z" data-name="Path 16931" transform="translate(0 .01)"/><path fill="url(#dm)" d="m21.06 24.12-1.08 1.96 1.08-.32 1.09.32Z" data-name="Path 16932" transform="translate(0 .01)"/><path fill="url(#dn)" d="m21.06 24.94-1.57 2.12 1.57-.35 1.57.35Z" data-name="Path 16933" transform="translate(0 .01)"/><path fill="url(#do)" d="m21.06 24.94-1.26 2.29 1.26-.38 1.26.38Z" data-name="Path 16934" transform="translate(0 .01)"/><path fill="url(#dp)" d="m18.86 19.66-.56.82.56-.14.55.14Z" data-name="Path 16935" transform="translate(0 .01)"/><path fill="url(#dq)" d="m18.86 19.96-.8 1.17.8-.2.79.2Z" data-name="Path 16936" transform="translate(0 .01)"/><path fill="url(#dr)" d="m18.86 19.96-.64 1.26.64-.21.63.21Z" data-name="Path 16937" transform="translate(0 .01)"/><path fill="url(#ds)" d="m18.86 20.5-.97 1.4.97-.23.96.23Z" data-name="Path 16938" transform="translate(0 .01)"/><path fill="url(#dt)" d="m18.86 20.5-.78 1.52.78-.25.77.25Z" data-name="Path 16939" transform="translate(0 .01)"/><path fill="url(#du)" d="m18.86 21.08-1.25 1.83 1.25-.3 1.24.3Z" data-name="Path 16940" transform="translate(0 .01)"/><path fill="url(#dv)" d="m18.86 21.08-1.01 1.97 1.01-.32 1 .32Z" data-name="Path 16941" transform="translate(0 .01)"/><path fill="url(#dw)" d="m18.86 21.84-1.54 2.25 1.54-.37 1.53.37Z" data-name="Path 16942" transform="translate(0 .01)"/><path fill="url(#dx)" d="m18.86 21.84-1.24 2.42 1.24-.4 1.23.4Z" data-name="Path 16943" transform="translate(0 .01)"/><path fill="url(#dy)" d="m18.86 22.85-1.79 2.62 1.79-.43 1.78.43Z" data-name="Path 16944" transform="translate(0 .01)"/><path fill="url(#dz)" d="m18.86 22.85-1.44 2.83 1.44-.47 1.43.47Z" data-name="Path 16945" transform="translate(0 .01)"/><path fill="url(#dA)" d="m10.19 16.09-.43.58.43-.1.42.1Z" data-name="Path 16946" transform="translate(0 .01)"/><path fill="url(#dB)" d="m10.19 16.3-.61.83.61-.14.61.14Z" data-name="Path 16947" transform="translate(0 .01)"/><path fill="url(#dC)" d="m10.19 16.3-.49.89.49-.14.48.14Z" data-name="Path 16948" transform="translate(0 .01)"/><path fill="url(#dD)" d="m10.19 16.68-.74 1 .74-.17.73.17Z" data-name="Path 16949" transform="translate(0 .01)"/><path fill="url(#dE)" d="m10.19 16.68-.6 1.08.6-.18.59.18Z" data-name="Path 16950" transform="translate(0 .01)"/><path fill="url(#dF)" d="m10.19 17.09-.96 1.3.96-.22.95.22Z" data-name="Path 16951" transform="translate(0 .01)"/><path fill="url(#dG)" d="m10.19 17.09-.77 1.4.77-.23.76.23Z" data-name="Path 16952" transform="translate(0 .01)"/><path fill="url(#dH)" d="m10.19 17.63-1.18 1.59 1.18-.26 1.17.26Z" data-name="Path 16953" transform="translate(0 .01)"/><path fill="url(#dI)" d="m10.19 17.63-.95 1.72.95-.28.94.28Z" data-name="Path 16954" transform="translate(0 .01)"/><path fill="url(#dJ)" d="M10.19 18.35 8.82 20.2l1.37-.3 1.37.3Z" data-name="Path 16955" transform="translate(0 .01)"/><path fill="url(#dK)" d="m10.19 18.35-1.1 2 1.1-.33 1.1.33Z" data-name="Path 16956" transform="translate(0 .01)"/><path fill="url(#dL)" d="m8.68 14.7-.48.65.48-.11.48.11Z" data-name="Path 16957" transform="translate(0 .01)"/><path fill="url(#dM)" d="m8.68 14.94-.69.93.69-.15.69.15Z" data-name="Path 16958" transform="translate(0 .01)"/><path fill="url(#dN)" d="m8.68 14.94-.55 1 .55-.16.55.16Z" data-name="Path 16959" transform="translate(0 .01)"/><path fill="url(#dO)" d="m8.68 15.37-.83 1.12.83-.18.83.18Z" data-name="Path 16960" transform="translate(0 .01)"/><path fill="url(#dP)" d="m8.68 15.37-.67 1.21.67-.2.67.2Z" data-name="Path 16961" transform="translate(0 .01)"/><path fill="url(#dQ)" d="M8.68 15.83 7.6 17.29l1.08-.24 1.08.24Z" data-name="Path 16962" transform="translate(0 .01)"/><path fill="url(#dR)" d="m8.68 15.83-.87 1.58.87-.26.86.26Z" data-name="Path 16963" transform="translate(0 .01)"/><path fill="url(#dS)" d="m8.68 16.44-1.33 1.79 1.33-.29 1.33.29Z" data-name="Path 16964" transform="translate(0 .01)"/><path fill="url(#dT)" d="m8.68 16.44-1.07 1.94 1.07-.32 1.06.32Z" data-name="Path 16965" transform="translate(0 .01)"/><path fill="url(#dU)" d="m8.68 17.25-1.55 2.09L8.68 19l1.55.34Z" data-name="Path 16966" transform="translate(0 .01)"/><path fill="url(#dV)" d="m8.68 17.25-1.24 2.26 1.24-.37 1.24.37Z" data-name="Path 16967" transform="translate(0 .01)"/><path fill="url(#dW)" d="m5.24 12.86-.51.69.51-.11.51.11Z" data-name="Path 16968" transform="translate(0 .01)"/><path fill="url(#dX)" d="m5.24 13.12-.73.98.73-.16.72.16Z" data-name="Path 16969" transform="translate(0 .01)"/><path fill="url(#dY)" d="m5.24 13.12-.58 1.05.58-.17.58.17Z" data-name="Path 16970" transform="translate(0 .01)"/><path fill="url(#dZ)" d="m5.24 13.57-.88 1.18.88-.19.87.19Z" data-name="Path 16971" transform="translate(0 .01)"/><path fill="url(#ea)" d="m5.24 13.57-.71 1.28.71-.21.7.21Z" data-name="Path 16972" transform="translate(0 .01)"/><path fill="url(#eb)" d="M5.24 14.06 4.1 15.6l1.14-.26 1.13.26Z" data-name="Path 16973" transform="translate(0 .01)"/><path fill="url(#ec)" d="m5.24 14.06-.91 1.66.91-.28.91.28Z" data-name="Path 16974" transform="translate(0 .01)"/><path fill="url(#ed)" d="m5.24 14.7-1.4 1.89 1.4-.31 1.4.31Z" data-name="Path 16975" transform="translate(0 .01)"/><path fill="url(#ee)" d="m5.24 14.7-1.12 2.04 1.12-.34 1.12.34Z" data-name="Path 16976" transform="translate(0 .01)"/><path fill="url(#ef)" d="m5.24 15.55-1.63 2.2 1.63-.36 1.63.36Z" data-name="Path 16977" transform="translate(0 .01)"/><path fill="url(#eg)" d="m5.24 15.55-1.31 2.38 1.31-.39 1.3.39Z" data-name="Path 16978" transform="translate(0 .01)"/><path fill="url(#eh)" d="m3.07 10.61-.51.69.51-.12.51.12Z" data-name="Path 16979" transform="translate(0 .01)"/><path fill="url(#ei)" d="m3.07 10.86-.72.98.72-.16.72.16Z" data-name="Path 16980" transform="translate(0 .01)"/><path fill="url(#ej)" d="m3.07 10.86-.58 1.06.58-.17.58.17Z" data-name="Path 16981" transform="translate(0 .01)"/><path fill="url(#ek)" d="m3.07 11.31-.88 1.19.88-.2.88.2Z" data-name="Path 16982" transform="translate(0 .01)"/><path fill="url(#el)" d="m3.07 11.31-.7 1.28.7-.21.7.21Z" data-name="Path 16983" transform="translate(0 .01)"/><path fill="url(#em)" d="m3.07 11.8-1.14 1.54 1.14-.25 1.14.25Z" data-name="Path 16984" transform="translate(0 .01)"/><path fill="url(#en)" d="m3.07 11.8-.91 1.66.91-.27.91.27Z" data-name="Path 16985" transform="translate(0 .01)"/><path fill="url(#eo)" d="m3.07 12.44-1.4 1.89 1.4-.31 1.4.31Z" data-name="Path 16986" transform="translate(0 .01)"/><path fill="url(#ep)" d="m3.07 12.44-1.12 2.05 1.12-.34 1.12.34Z" data-name="Path 16987" transform="translate(0 .01)"/><path fill="url(#eq)" d="m3.07 13.3-1.63 2.2 1.63-.36 1.63.36Z" data-name="Path 16988" transform="translate(0 .01)"/><path fill="url(#er)" d="m3.07 13.3-1.31 2.37 1.31-.39 1.31.39Z" data-name="Path 16989" transform="translate(0 .01)"/><path fill="url(#es)" d="m14.68 17.94-.58.77.58-.12.57.12Z" data-name="Path 16990" transform="translate(0 .01)"/><path fill="url(#et)" d="m14.68 18.23-.82 1.1.82-.18.81.18Z" data-name="Path 16991" transform="translate(0 .01)"/><path fill="url(#eu)" d="m14.68 18.23-.66 1.19.66-.2.65.2Z" data-name="Path 16992" transform="translate(0 .01)"/><path fill="url(#ev)" d="m14.68 18.73-.99 1.34.99-.22.98.22Z" data-name="Path 16993" transform="translate(0 .01)"/><path fill="url(#ew)" d="m14.68 18.73-.8 1.44.8-.23.79.23Z" data-name="Path 16994" transform="translate(0 .01)"/><path fill="url(#ex)" d="m14.68 19.28-1.29 1.74 1.29-.29 1.28.29Z" data-name="Path 16995" transform="translate(0 .01)"/><path fill="url(#ey)" d="m14.68 19.28-1.03 1.87 1.03-.3 1.02.3Z" data-name="Path 16996" transform="translate(0 .01)"/><path fill="url(#ez)" d="m14.68 20-1.58 2.13 1.58-.35 1.57.35Z" data-name="Path 16997" transform="translate(0 .01)"/><path fill="url(#eA)" d="m14.68 20-1.27 2.3 1.27-.37 1.26.37Z" data-name="Path 16998" transform="translate(0 .01)"/><path fill="url(#eB)" d="m14.68 20.97-1.84 2.48 1.84-.41 1.83.41Z" data-name="Path 16999" transform="translate(0 .01)"/><path fill="url(#eC)" d="m14.68 20.97-1.48 2.67 1.48-.44 1.47.44Z" data-name="Path 17000" transform="translate(0 .01)"/><path fill="url(#eD)" d="m27.44 23.97-.53.79.53-.13.53.13Z" data-name="Path 17001" transform="translate(0 .01)"/><path fill="url(#eE)" d="m27.44 24.26-.76 1.14.76-.19.75.19Z" data-name="Path 17002" transform="translate(0 .01)"/><path fill="url(#eF)" d="m27.44 24.26-.61 1.23.61-.2.6.2Z" data-name="Path 17003" transform="translate(0 .01)"/><path fill="url(#eG)" d="m27.44 24.79-.92 1.37.92-.23.91.23Z" data-name="Path 17004" transform="translate(0 .01)"/><path fill="url(#eH)" d="m27.44 24.79-.74 1.48.74-.25.73.25Z" data-name="Path 17005" transform="translate(0 .01)"/><path fill="url(#eI)" d="m27.44 25.35-1.19 1.79 1.19-.3 1.19.3Z" data-name="Path 17006" transform="translate(0 .01)"/><path fill="url(#eJ)" d="m27.44 25.35-.96 1.93.96-.32.95.32Z" data-name="Path 17007" transform="translate(0 .01)"/><path fill="url(#eK)" d="M28.47 27.64H26.4l.12-.17.13-.19.04-.07.15-.22.6-.9.6.9.14.22Z" data-name="Path 17008" transform="translate(0 .01)"/><path fill="url(#eL)" d="M28.21 27.64h-1.54l.1-.2.15-.31.09-.18.43-.86.42.86.1.18v.01Z" data-name="Path 17009" transform="translate(0 .01)"/><path fill="url(#eM)" d="M27.81 27.64h-.74l.37-.55Z" data-name="Path 17010" transform="translate(0 .01)"/><path fill="url(#eN)" d="M27.71 27.64h-.54l.27-.55Z" data-name="Path 17011" transform="translate(0 .01)"/></g><path fill="url(#eO)" d="M26.14 27.64H13.82a13.85 13.85 0 0 1-11.55-6.23 13.9 13.9 0 0 1-2.11-5.46A15 15 0 0 1 0 13.82a5 5 0 0 1 .02-.56q.795.42 1.71.99a1 1 0 0 1 .08.05c.06.04.12.07.18.11a.4.4 0 0 1 .07.05 1 1 0 0 1 .11.06l.17.11a.4.4 0 0 1 .08.05c.25.16.5.32.76.48a.01.01 0 0 0 .01.01c.14.09.29.18.43.27a.01.01 0 0 1 .01.01c.24.15.46.3.71.47.05.03.11.07.17.11.08.05.17.1.25.16l.09.06c0 .01.03.02.04.03.03 0 .06.03.09.06l.15.09c.2.13.4.27.61.4.05.03.1.07.15.1s.1.07.16.11h.02l.03.03a.3.3 0 0 1 .06.04 1 1 0 0 1 .08.05c.12.08.24.16.37.24.24.16.5.32.75.49.05.03.1.07.16.11a1 1 0 0 1 .16.1.2.2 0 0 1 .06.04h.01l.18.12s.01 0 .02.02c.04 0 .08.04.12.07q.525.345 1.08.69c.05.03.11.07.16.1.01 0 .01.01.02.01h.01c.06.04.12.07.17.11a2 2 0 0 1 .13.08c.08.05.14.1.22.14a.01.01 0 0 0 .01.01l.84.51a.01.01 0 0 1 .01.01c.18.1.34.21.52.31.01 0 .01.01.02.01.19.13.4.25.6.37.06.04.11.08.18.12.08.05.16.09.24.15.03.01.07.04.11.06.01.01.02.01.04.02.05.04.11.07.17.11q.405.24.84.48c.08.05.16.1.24.14a2 2 0 0 0 .25.14.01.01 0 0 0 .01.01h.01s.08.06.13.09h.01s.05.03.08.05a.1.1 0 0 1 .04.02c.51.29 1.02.58 1.55.86h.01c.2.11.4.22.61.33l.06.03c.02.01.03.02.05.03h.01a1 1 0 0 0 .14.08c.08.04.16.09.25.13a1 1 0 0 0 .11.06l.01.01c.06.03.13.07.2.1s.17.09.26.13.17.09.25.13l.02.02a3 3 0 0 1 .24.11c0 .01.01.01.02.01h.01a1 1 0 0 0 .15.08.3.3 0 0 0 .1.05c.14.08.29.15.44.22q.63.315 1.29.63a3 3 0 0 1 .24.11c.05.02.11.05.17.08s.1.05.16.07c.04.02.08.04.13.06l.07.03c.14.07.29.14.44.2.02.01.03.02.05.02h.01a1.5 1.5 0 0 0 .26.12h.01a3 3 0 0 0 .24.11c.11.05.22.1.34.15l.02.01h.01a2 2 0 0 0 .16.07q.15.075.33.15a.16.16 0 0 1 .08.03c.24.1.48.2.73.29a2 2 0 0 0 .21.09 1 1 0 0 0 .23.09l.02.01s.1.04.16.06c.27.11.54.22.81.32.06.02.12.05.19.07.09.03.18.07.27.1l.09.03.3.12a.05.05 0 0 1 .03.01c.12.04.25.08.38.13Z" transform="translate(0 .01)"/></g></svg>