<svg xmlns="http://www.w3.org/2000/svg" width="200.003" height="150" viewBox="0 0 200.003 150">
  <path fill="#45536d" d="M2.799 61.335a13.35 13.35 0 0 0 13.319 13.319h60.2a12.786 12.786 0 1 1 0 25.572H32.633a8.524 8.524 0 0 0 0 17.048h42.62a8.524 8.524 0 1 1 0 17.048H36.899a5.327 5.327 0 0 0 0 10.655h92.7a5.327 5.327 0 0 0 0-10.655h-14.924a8.524 8.524 0 1 1 0-17.048h75.65a8.524 8.524 0 0 0 0-17.048h-11.72a12.786 12.786 0 0 1 0-25.572h6.926a13.319 13.319 0 0 0 0-26.637h-63.932a9.057 9.057 0 0 1 0-18.113h26.637a7.99 7.99 0 0 0 7.522-5.327 7.7 7.7 0 0 0 .469-2.664 8 8 0 0 0-7.989-7.992H64.065a8.01 8.01 0 0 0-7.991 7.991 7.7 7.7 0 0 0 .469 2.664 7.975 7.975 0 0 0 7.522 5.327h17.047a9.057 9.057 0 0 1 0 18.113H16.118A13.35 13.35 0 0 0 2.799 61.335" opacity=".11"/>
  <path d="M104.475 139.632a53.612 53.612 0 0 1-34.7-94.477 2.291 2.291 0 0 1 2.967 3.492 49.03 49.03 0 1 0 69.209 68.992 2.291 2.291 0 1 1 3.5 2.957 53.53 53.53 0 0 1-40.974 19.036m51.318-51.323a2.29 2.29 0 0 1-2.291-2.291A49.074 49.074 0 0 0 92.11 38.56a2.291 2.291 0 0 1-1.152-4.435 53.655 53.655 0 0 1 67.128 51.892 2.29 2.29 0 0 1-2.291 2.291"/>
  <path fill="#1a496d" d="M42.158 122.678a2.749 2.749 0 1 0-2.749 2.749 2.75 2.75 0 0 0 2.749-2.749m20.16-96.226a1.833 1.833 0 1 0-1.833 1.833 1.83 1.83 0 0 0 1.833-1.833m98.059 120.053a1.833 1.833 0 1 0-1.833 1.833 1.83 1.83 0 0 0 1.833-1.833"/>
  <path fill="#ef5388" d="M171.374 122.678a6.415 6.415 0 1 1 6.415-6.415 6.42 6.42 0 0 1-6.415 6.415m0-11a4.582 4.582 0 1 0 4.585 4.585 4.587 4.587 0 0 0-4.582-4.582m-9.167-65.984a4.582 4.582 0 1 1 4.582-4.582 4.587 4.587 0 0 1-4.582 4.582m0-7.332a2.749 2.749 0 1 0 2.749 2.749 2.753 2.753 0 0 0-2.749-2.749M79.732 12.708a5.5 5.5 0 1 1 5.5-5.5 5.5 5.5 0 0 1-5.5 5.5m0-9.164a3.666 3.666 0 1 0 3.664 3.664 3.67 3.67 0 0 0-3.664-3.667M4.582 75.939a4.582 4.582 0 1 1 4.582-4.582 4.587 4.587 0 0 1-4.582 4.582m0-7.332a2.749 2.749 0 1 0 2.749 2.749 2.753 2.753 0 0 0-2.749-2.749"/>
  <path fill="#2fdf84" d="M123.262 13.163a.92.92 0 0 1-.916.916h-3.208v3.208a.917.917 0 1 1-1.833 0V14.08h-3.208a.917.917 0 1 1 0-1.833h3.208V9.039a.917.917 0 1 1 1.833 0v3.208h3.208a.92.92 0 0 1 .916.916M34.826 40.199a.67.67 0 0 1-.666.666h-2.334v2.333a.666.666 0 1 1-1.332 0v-2.333H28.16a.667.667 0 1 1 0-1.333h2.334v-2.333a.666.666 0 1 1 1.332 0v2.334h2.333a.67.67 0 0 1 .666.666m164.959 34.824a.835.835 0 0 1-.833.833h-2.916v2.916a.833.833 0 1 1-1.666 0v-2.916h-2.916a.833.833 0 0 1 0-1.666h2.916v-2.916a.833.833 0 0 1 1.666 0v2.916h2.916a.835.835 0 0 1 .833.833"/>
  <path fill="#ef5388" d="M128.003 61h-46a6 6 0 0 0-6 6v5.472A1.53 1.53 0 0 0 77.531 74h54.944a1.53 1.53 0 0 0 1.528-1.528V67a6 6 0 0 0-6-6"/>
  <path d="M83.003 67v5.47a1.524 1.524 0 0 0 1.53 1.53h-7a1.524 1.524 0 0 1-1.53-1.53V67a6 6 0 0 1 6-6h7a6 6 0 0 0-6 6" opacity=".2"/>
  <path d="M128.003 59h-9v-3.24a4.77 4.77 0 0 0-4.76-4.76h-18.48a4.77 4.77 0 0 0-4.76 4.76V59h-9a8.01 8.01 0 0 0-8 8v5.47a3.53 3.53 0 0 0 3.53 3.53h1.47v35a8.01 8.01 0 0 0 8 8h35a8.01 8.01 0 0 0 8-8V76h2.47a3.53 3.53 0 0 0 3.53-3.53V67a8.01 8.01 0 0 0-8-8m-33-3.24a.76.76 0 0 1 .76-.76h18.48a.76.76 0 0 1 .76.76V59h-20Zm37 16.24h-11a2 2 0 0 0 0 4h5v35a4 4 0 0 1-4 4h-35a4 4 0 0 1-4-4V76h28a2 2 0 0 0 0-4h-33v-5a4 4 0 0 1 4-4h46a4 4 0 0 1 4 4Z"/>
  <path d="M93.003 103a2 2 0 0 1-2-2V91a2 2 0 0 1 4 0v10a2 2 0 0 1-2 2m12 4a2 2 0 0 1-2-2V87a2 2 0 0 1 4 0v18a2 2 0 0 1-2 2m12-4a2 2 0 0 1-2-2V91a2 2 0 0 1 4 0v10a2 2 0 0 1-2 2"/>
</svg>