<svg xmlns="http://www.w3.org/2000/svg" width="47.997" height="44.934" viewBox="0 0 47.997 44.934">
  <path fill="#fff" d="M28.779.173a4.61 4.61 0 1 0 3.235 5.661A4.594 4.594 0 0 0 28.779.173ZM6.772 22.758a3.389 3.389 0 0 0-2.426-4.217 3.44 3.44 0 0 0-1.791 6.643 3.507 3.507 0 0 0 4.217-2.426Zm12.592 20.506A15.516 15.516 0 0 0 41.891 30.44a82.6 82.6 0 0 1-10.744 7.22 85.823 85.823 0 0 1-11.783 5.604Zm28.188-27.379c-1.733-2.946-7.278-2.022-13.285.115a15.5 15.5 0 0 0-23.394 13.17c-3.7 3-6.527 6.007-7.162 8.433A3.564 3.564 0 0 0 4 40.433c.751 1.328 2.31 1.848 4.332 1.848 5.718 0 15.191-4.332 21.141-7.682 8.26-4.621 17.1-11.321 18.368-15.885a3.563 3.563 0 0 0-.289-2.829ZM6.945 38.7c0-.809 1.444-2.83 4.39-5.43a15.581 15.581 0 0 0 1.56 3.812c.173.289.347.52.52.809-3.466 1.04-5.776 1.209-6.47.809Zm14.9-17.213a9.033 9.033 0 0 0-4.563 7.336 1.447 1.447 0 0 1-1.444 1.329h-.115a1.417 1.417 0 0 1-1.329-1.5 11.953 11.953 0 0 1 6.007-9.588 1.425 1.425 0 0 1 1.964.52 1.372 1.372 0 0 1-.517 1.903Zm18.6 1.329a6.592 6.592 0 0 0-.578-1.1 15.855 15.855 0 0 0-2.366-3.116c3.812-1.155 6.354-1.386 7.047-.924 0 .75-1.386 2.656-4.101 5.14Z"/>
</svg>
