<svg xmlns="http://www.w3.org/2000/svg" viewBox="0 0 299.02 305.02">
    <path
        d="M152.51 76.59c-8.28 0-15-6.72-15-15V15c0-8.28 6.72-15 15-15s15 6.72 15 15v46.59c0 8.28-6.72 15-15 15Zm0 228.43a9 9 0 0 1-9-9v-46.59a9 9 0 0 1 18 0v46.59a9 9 0 0 1-9 9ZM58.59 167.51H12c-6.63 0-12-5.37-12-12s5.37-12 12-12h46.59c6.63 0 12 5.37 12 12s-5.37 12-12 12Zm234.43-6h-46.59c-3.31 0-6-2.69-6-6s2.69-6 6-6h46.59c3.31 0 6 2.69 6 6s-2.69 6-6 6Zm-93.55-83.34c-.68 0-1.37-.17-2-.54a3.992 3.992 0 0 1-1.46-5.46l23.3-40.36a3.992 3.992 0 0 1 5.46-1.46 3.992 3.992 0 0 1 1.46 5.46l-23.3 40.36c-.74 1.28-2.08 2-3.47 2ZM82.24 287.21c-1.7 0-3.42-.43-4.99-1.34-4.78-2.76-6.42-8.88-3.66-13.66l23.3-40.36c2.76-4.78 8.88-6.42 13.66-3.66 4.78 2.76 6.42 8.88 3.66 13.66l-23.3 40.36c-1.85 3.21-5.21 5-8.67 5Zm191.96-54.44c-1.19 0-2.39-.3-3.49-.94l-40.36-23.3a6.988 6.988 0 0 1-2.56-9.56 6.988 6.988 0 0 1 9.56-2.56l40.36 23.3a6.988 6.988 0 0 1 2.56 9.56 6.992 6.992 0 0 1-6.07 3.5ZM71.16 121.55c-2.21 0-4.44-.56-6.49-1.74l-40.36-23.3c-6.22-3.59-8.35-11.54-4.76-17.76 3.59-6.22 11.54-8.35 17.76-4.76l40.36 23.3c6.22 3.59 8.35 11.54 4.76 17.76a13 13 0 0 1-11.27 6.5Zm34.4-33.38c-4.84 0-9.54-2.51-12.14-7l-23.3-40.36c-3.87-6.7-1.57-15.26 5.12-19.12s15.26-1.57 19.12 5.12l23.3 40.36c3.87 6.7 1.57 15.26-5.12 19.12-2.2 1.27-4.61 1.88-6.99 1.88Zm117.22 197.04c-2.77 0-5.45-1.43-6.94-4l-23.3-40.36a7.998 7.998 0 0 1 2.93-10.93c3.83-2.21 8.72-.9 10.93 2.93l23.3 40.36a7.998 7.998 0 0 1-6.92 12Zm11.07-171.66c-1.73 0-3.41-.9-4.33-2.5a5.002 5.002 0 0 1 1.83-6.83l40.36-23.3a5.002 5.002 0 0 1 6.83 1.83c1.38 2.39.56 5.45-1.83 6.83l-40.36 23.3c-.79.45-1.65.67-2.5.67ZM30.82 236.77c-3.8 0-7.5-1.97-9.54-5.5-3.04-5.26-1.23-11.99 4.03-15.03l40.36-23.3c5.26-3.04 11.99-1.23 15.03 4.03 3.04 5.26 1.23 11.99-4.03 15.03l-40.36 23.3c-1.73 1-3.62 1.48-5.49 1.48Z" />
</svg>
