<svg xmlns="http://www.w3.org/2000/svg" width="201" height="150" fill="none" viewBox="0 0 201 150">
    <path fill="#45536d" d="M3.297 61.336a13.35 13.35 0 0 0 13.319 13.319h60.199a12.786 12.786 0 0 1 0 25.572H33.13a8.526 8.526 0 0 0-8.524 8.524 8.52 8.52 0 0 0 8.524 8.524h42.62a8.526 8.526 0 0 1 8.524 8.524 8.52 8.52 0 0 1-8.524 8.524H37.397a5.326 5.326 0 1 0 0 10.655h92.7a5.326 5.326 0 0 0 5.326-5.328 5.326 5.326 0 0 0-5.326-5.326h-14.924a8.52 8.52 0 0 1-6.027-2.497 8.52 8.52 0 0 1 0-12.055 8.52 8.52 0 0 1 6.027-2.496h75.65a8.52 8.52 0 0 0 6.027-2.497 8.52 8.52 0 0 0 0-12.055 8.52 8.52 0 0 0-6.027-2.496h-11.72a12.786 12.786 0 0 1 0-25.572h6.926a13.32 13.32 0 0 0 0-26.637h-63.932a9.057 9.057 0 0 1 0-18.113h26.637a7.99 7.99 0 0 0 7.522-5.326 7.7 7.7 0 0 0 .469-2.664 8 8 0 0 0-7.989-7.992H64.563a8.01 8.01 0 0 0-7.991 7.99 7.6 7.6 0 0 0 .469 2.665 7.97 7.97 0 0 0 7.522 5.326h17.046a9.056 9.056 0 0 1 0 18.113H16.616a13.35 13.35 0 0 0-13.321 13.32" opacity=".1"/>
    <path fill="#000" d="M104.973 139.632a53.62 53.62 0 0 1-50.322-35.129 53.61 53.61 0 0 1 15.622-59.348 2.291 2.291 0 0 1 2.967 3.492 49.03 49.03 0 1 0 69.209 68.992 2.28 2.28 0 0 1 2.453-.717 2.28 2.28 0 0 1 1.59 1.999 2.3 2.3 0 0 1-.543 1.675 53.54 53.54 0 0 1-40.974 19.036m51.318-51.322a2.29 2.29 0 0 1-2.291-2.292 49.06 49.06 0 0 0-19.061-38.781 49.07 49.07 0 0 0-42.333-8.677 2.292 2.292 0 0 1-1.152-4.435 53.657 53.657 0 0 1 67.128 51.892 2.29 2.29 0 0 1-2.291 2.292"/>
    <path fill="#45536d" d="M42.656 122.677a2.75 2.75 0 0 0-1.697-2.54 2.744 2.744 0 0 0-3.748 2.003 2.752 2.752 0 0 0 2.696 3.286 2.75 2.75 0 0 0 2.75-2.749m20.158-96.229a1.833 1.833 0 1 0-3.666 0 1.833 1.833 0 0 0 3.666 0m98.059 120.055a1.833 1.833 0 1 0-3.666.001 1.833 1.833 0 0 0 3.666-.001"/>
    <path fill="#FF6169" d="M171.872 122.678a6.42 6.42 0 0 1-5.927-3.96 6.42 6.42 0 0 1 4.676-8.747 6.42 6.42 0 0 1 7.666 6.292 6.42 6.42 0 0 1-6.415 6.415m0-11a4.586 4.586 0 0 0-4.491 5.476 4.582 4.582 0 0 0 9.076-.891 4.586 4.586 0 0 0-4.582-4.582m-9.167-65.986a4.58 4.58 0 0 1-4.233-2.828 4.58 4.58 0 0 1 3.339-6.248 4.58 4.58 0 0 1 4.132 7.733 4.6 4.6 0 0 1-3.238 1.343m0-7.332a2.748 2.748 0 0 0-.536 5.445 2.747 2.747 0 0 0 2.479-4.638 2.75 2.75 0 0 0-1.943-.807M80.23 12.707a5.5 5.5 0 1 1 0-11 5.5 5.5 0 0 1 0 11m0-9.164a3.666 3.666 0 1 0 2.59 1.073 3.67 3.67 0 0 0-2.59-1.076M5.08 75.937a4.582 4.582 0 1 1 0-9.163 4.582 4.582 0 0 1 0 9.163m0-7.332a2.75 2.75 0 1 0 0 5.5 2.75 2.75 0 0 0 0-5.5"/>
    <path fill="#5DB760" d="M123.76 13.162a.92.92 0 0 1-.916.916h-3.208v3.208a.916.916 0 1 1-1.833 0v-3.207h-3.208a.917.917 0 0 1 0-1.833h3.208V9.038a.917.917 0 0 1 1.833 0v3.208h3.208a.92.92 0 0 1 .916.916M35.324 40.197a.67.67 0 0 1-.666.666h-2.334v2.333a.666.666 0 0 1-1.332 0v-2.333h-2.334a.667.667 0 0 1 0-1.333h2.334v-2.333a.666.666 0 1 1 1.332 0v2.334h2.333a.67.67 0 0 1 .667.666m164.957 34.826a.834.834 0 0 1-.833.832h-2.916v2.916a.83.83 0 0 1-.833.834.834.834 0 0 1-.833-.834v-2.914h-2.916a.833.833 0 1 1 0-1.666h2.916v-2.916a.834.834 0 0 1 1.666 0v2.916h2.916a.837.837 0 0 1 .833.833"/>
    <path fill="#f279a2" d="M124.105 81.056c0 7.129-4.008 13.322-9.893 16.443l-3.294 8.711h-10.835L96.79 97.5c-5.886-3.122-9.894-9.315-9.894-16.444 0-10.275 8.33-18.605 18.605-18.605s18.604 8.33 18.604 18.605"/>
    <path fill="#EF5388" d="M124.106 81.056c0 7.129-4.008 13.322-9.893 16.444l-3.294 8.711h-10.835l-1.435-3.793h2.432a8.06 8.06 0 0 0 7.529-5.208l.357-.954c.585-1.552 1.663-2.85 3.017-3.81 4.999-3.553 8.169-9.519 7.819-16.198-.222-4.113-1.81-7.892-4.316-10.89 5.184 3.3 8.619 9.098 8.619 15.698" opacity=".2"/>
    <path fill="#474747" d="M109.237 112.562v.787a2.21 2.21 0 0 1-2.21 2.21h-3.053a2.21 2.21 0 0 1-2.21-2.21v-.787zm-3.736-53.381a.643.643 0 0 1-.644-.643v-3.451a.644.644 0 0 1 1.287 0v3.45a.643.643 0 0 1-.643.644m-11.913 2.705-1.725-2.99a.644.644 0 0 1 1.114-.642l1.726 2.989a.644.644 0 0 1-1.115.643m-8.078 8.51-2.988-1.726a.644.644 0 0 1 .643-1.115l2.99 1.726a.644.644 0 0 1-.644 1.114m42.325 24.436-2.989-1.725a.643.643 0 1 1 .644-1.114l2.989 1.725a.644.644 0 0 1-.644 1.115M82.79 81.783h-3.451a.643.643 0 1 1 0-1.287h3.45a.643.643 0 0 1 0 1.287m48.874 0h-3.451a.643.643 0 1 1 0-1.287h3.451a.643.643 0 0 1 0 1.287M82.286 94.492a.643.643 0 0 1 .236-.879l2.989-1.726a.643.643 0 1 1 .643 1.115l-2.989 1.726a.643.643 0 0 1-.879-.236m42.326-24.438a.643.643 0 0 1 .235-.879l2.989-1.725a.643.643 0 0 1 .644 1.114l-2.989 1.726a.643.643 0 0 1-.879-.236m-8.077-8.112a.643.643 0 0 1-.236-.88l1.726-2.988a.643.643 0 1 1 1.114.643l-1.725 2.99a.643.643 0 0 1-.879.235m-2.917 47.444a3.176 3.176 0 0 1-3.175 3.176h-9.884a3.176 3.176 0 0 1 0-6.351h9.884a3.176 3.176 0 0 1 3.175 3.175"/>
    <path fill="#F8CE74" d="M113.618 109.385a3.176 3.176 0 0 1-3.176 3.176h-9.883a3.16 3.16 0 0 1-3.063-2.362q.388.11.814.112h9.883a3.176 3.176 0 0 0 3.175-3.175c0-.278-.039-.556-.112-.814a3.16 3.16 0 0 1 2.362 3.063" opacity=".12"/>
    <path fill="#EF5388" d="M116.083 81.136c0 5.85-4.738 10.587-10.586 10.587-5.84 0-10.578-4.738-10.578-10.587 0-5.84 4.737-10.577 10.578-10.577 5.849 0 10.586 4.737 10.586 10.577"/>
    <path fill="#E8F1F8" d="M105.506 83.815a.643.643 0 0 1-.643-.643v-.539c0-.944.577-1.797 1.507-2.226a2.11 2.11 0 0 0 1.126-2.512 2.04 2.04 0 0 0-1.463-1.413 2.092 2.092 0 0 0-2.616 2.025.644.644 0 0 1-1.287 0c0-2.17 2.016-3.798 4.201-3.276a3.34 3.34 0 0 1 2.404 2.316c.459 1.632-.309 3.326-1.825 4.028-.477.22-.762.615-.762 1.058v.54a.64.64 0 0 1-.643.642m-.005 3.333a.643.643 0 0 1-.644-.644v-.488a.644.644 0 0 1 1.287 0v.488a.643.643 0 0 1-.643.644"/>
</svg>
