<svg xmlns="http://www.w3.org/2000/svg" width="56" height="56" viewBox="0 0 56 56"><circle cx="28" cy="28" r="28" fill="#ffda45"/><path fill="#ffbc36" d="m15.319 29.7 23.938 23.943a28.01 28.01 0 0 0 16.724-24.671L37.324 10.314Z"/><path fill="#8c6239" d="M28 35.323a13.1 13.1 0 0 1-13.1-13.1v-2.712A13.1 13.1 0 0 1 28 6.414a13.1 13.1 0 0 1 13.1 13.1v2.714A13.1 13.1 0 0 1 28 35.323"/><path fill="#754c24" d="M28 6.414h-.005v28.909H28a13.1 13.1 0 0 0 13.1-13.1v-2.712A13.1 13.1 0 0 0 28 6.414"/><circle cx="3.175" cy="3.175" r="3.175" fill="#ffcdbe" transform="translate(13.98 23.94)"/><circle cx="3.175" cy="3.175" r="3.175" fill="#faa68e" transform="translate(35.669 23.94)"/><path fill="#ffcdbe" d="M28 56a27.88 27.88 0 0 0 17.417-6.077l-.692-6.364a3.576 3.576 0 0 0-3.109-3.159l-9.551-1.1v-5.725h-8.129v5.718l-9.551 1.1a3.576 3.576 0 0 0-3.109 3.161l-.692 6.364A27.88 27.88 0 0 0 28 56"/><path fill="#faa68e" d="m45.417 49.923-.692-6.364a3.576 3.576 0 0 0-3.109-3.159l-9.551-1.1v-5.725h-4.07V56H28a27.88 27.88 0 0 0 17.417-6.077"/><path fill="#ffdecf" d="M28 37.486a11.2 11.2 0 0 1-11.2-11.2v-6.4A11.2 11.2 0 0 1 28 8.686a11.2 11.2 0 0 1 11.2 11.2v6.4a11.2 11.2 0 0 1-11.2 11.2"/><path fill="#ffbeaa" d="M28 8.686h-.005v28.8H28a11.2 11.2 0 0 0 11.2-11.2v-6.4A11.2 11.2 0 0 0 28 8.686"/><path fill="#ff9451" d="M28 34.379a3.327 3.327 0 0 1-3.323-3.323h1.313a2.01 2.01 0 0 0 4.021 0h1.313A3.327 3.327 0 0 1 28 34.379"/><path fill="#f7674f" d="M30.01 31.056a2.013 2.013 0 0 1-2.01 2.01h-.005v1.313H28a3.327 3.327 0 0 0 3.323-3.323Z"/><path fill="#8c6239" d="M38.007 22.471v7.682a1.66 1.66 0 0 0 1.663-1.663V17.428a7.56 7.56 0 0 0-3.816-6.568l-1.386-.79a3.42 3.42 0 0 0-3.691-2.617l-4.546.485a12.206 12.206 0 0 0-10.912 12.137v3.011l1.012-.312v5.716a1.66 1.66 0 0 0 1.662 1.663v-2.9a5.113 5.113 0 0 1 5.113-5.113h6.371a4.1 4.1 0 0 0 4.1-4.1 4.43 4.43 0 0 1 4.43 4.431"/><path fill="#754c24" d="m35.853 10.859-1.386-.79a3.42 3.42 0 0 0-3.691-2.617l-2.782.3v14.392h1.482a4.1 4.1 0 0 0 4.1-4.1 4.43 4.43 0 0 1 4.429 4.429v7.682a1.66 1.66 0 0 0 1.663-1.663V17.428a7.56 7.56 0 0 0-3.815-6.569"/><path fill="#666" d="M23.16 30.844a4.484 4.484 0 1 1 4.484-4.484 4.49 4.49 0 0 1-4.484 4.484m0-7.656a3.172 3.172 0 1 0 3.172 3.172 3.175 3.175 0 0 0-3.172-3.172"/><path fill="#4d4d4d" d="M32.84 30.844a4.484 4.484 0 1 1 4.484-4.484 4.49 4.49 0 0 1-4.484 4.484m0-7.656a3.172 3.172 0 1 0 3.172 3.172 3.175 3.175 0 0 0-3.172-3.172"/><path fill="#666" d="M26.934 25.594h2.242v1.313h-2.242z"/><path fill="#4d4d4d" d="M27.995 25.594h1.181v1.313h-1.181z"/><path fill="#06a" d="M44.725 43.559a3.576 3.576 0 0 0-3.109-3.159l-9.059-1.05a5.159 5.159 0 0 1-9.115 0l-9.058 1.05a3.576 3.576 0 0 0-3.109 3.161l-.692 6.364a28 28 0 0 0 34.834 0Z"/><path fill="#1e2d64" d="m45.417 49.923-.692-6.364a3.576 3.576 0 0 0-3.109-3.159l-9.059-1.05A5.16 5.16 0 0 1 28 42.091h-.005V56H28a27.88 27.88 0 0 0 17.417-6.077"/><path fill="#4d4d4d" d="M23.246 28.155a.89.89 0 0 1-.889-.889v-1.3a.89.89 0 0 1 .889-.889.89.89 0 0 1 .889.889v1.3a.89.89 0 0 1-.889.889"/><path fill="#333" d="M32.754 28.155a.89.89 0 0 1-.889-.889v-1.3a.89.89 0 0 1 .889-.889.89.89 0 0 1 .889.889v1.3a.89.89 0 0 1-.889.889"/></svg>