<svg xmlns="http://www.w3.org/2000/svg" width="56" height="56" viewBox="0 0 56 56"><circle cx="28" cy="28" r="28" fill="#733c82"/><path fill="#4b285a" d="M36.972 54.532a28.03 28.03 0 0 0 18.818-23.1L40.5 16.121l-.474.543-3.863-3.864-21.437 16.359 6.395 6.395-2.039 1.088Z"/><path fill="#ff6838" d="M28 20.119a13.06 13.06 0 0 1-9.4-3.979 2.144 2.144 0 0 0-3.7 1.455v2.771A13.1 13.1 0 0 0 28 33.463a13.1 13.1 0 0 0 13.1-13.1v-2.768a2.145 2.145 0 0 0-3.7-1.455 13.06 13.06 0 0 1-9.4 3.979"/><path fill="#e86035" d="M41.1 17.595a2.145 2.145 0 0 0-3.7-1.455 13.06 13.06 0 0 1-9.4 3.979h-.005v13.344H28a13.1 13.1 0 0 0 13.1-13.1z"/><circle cx="3.175" cy="3.175" r="3.175" fill="#ffcdbe" transform="translate(13.98 23.94)"/><circle cx="3.175" cy="3.175" r="3.175" fill="#faa68e" transform="translate(35.669 23.94)"/><path fill="#ffcdbe" d="M28 56a27.88 27.88 0 0 0 17.417-6.077l-.692-6.364a3.576 3.576 0 0 0-3.109-3.159l-9.551-1.1v-5.725h-8.129v5.718l-9.551 1.1a3.576 3.576 0 0 0-3.109 3.161l-.692 6.364A27.88 27.88 0 0 0 28 56"/><path fill="#faa68e" d="m45.417 49.923-.692-6.364a3.576 3.576 0 0 0-3.109-3.159l-9.551-1.1v-5.725h-4.07V56H28a27.88 27.88 0 0 0 17.417-6.077"/><path fill="#ffdecf" d="M28 37.486a11.2 11.2 0 0 1-11.2-11.2v-5.815A11.2 11.2 0 0 1 28 9.271a11.2 11.2 0 0 1 11.2 11.2v5.815a11.2 11.2 0 0 1-11.2 11.2"/><path fill="#ffbeaa" d="M28 9.271h-.005v28.215H28a11.2 11.2 0 0 0 11.2-11.2v-5.815A11.2 11.2 0 0 0 28 9.271"/><path fill="#c18761" d="M44.725 43.559a3.576 3.576 0 0 0-3.109-3.159l-9.059-1.05a5.159 5.159 0 0 1-9.115 0l-9.058 1.05a3.576 3.576 0 0 0-3.109 3.161l-.692 6.364a28 28 0 0 0 34.834 0Z"/><path fill="#aa6e4d" d="m45.417 49.923-.692-6.364a3.576 3.576 0 0 0-3.109-3.159l-9.059-1.05A5.16 5.16 0 0 1 28 42.091h-.005V56H28a27.88 27.88 0 0 0 17.417-6.077"/><path fill="#4d4d4d" d="M23.246 28.155a.89.89 0 0 1-.889-.889v-1.3a.89.89 0 0 1 .889-.889.89.89 0 0 1 .889.889v1.3a.89.89 0 0 1-.889.889"/><path fill="#333" d="M32.754 28.155a.89.89 0 0 1-.889-.889v-1.3a.89.89 0 0 1 .889-.889.89.89 0 0 1 .889.889v1.3a.89.89 0 0 1-.889.889"/><path fill="#fc5427" d="M38.746 26.578a3.8 3.8 0 0 0-2.92 1.351 4.43 4.43 0 0 1-3.41 1.6h-8.833a4.43 4.43 0 0 1-3.41-1.6 3.8 3.8 0 0 0-2.92-1.351v5.667a6.2 6.2 0 0 0 6.2 6.2h9.093a6.2 6.2 0 0 0 6.2-6.2z"/><path fill="#e03d1e" d="M35.826 27.93a4.43 4.43 0 0 1-3.41 1.6h-4.421v8.919h4.552a6.2 6.2 0 0 0 6.2-6.2v-5.671a3.8 3.8 0 0 0-2.921 1.352"/><path fill="#ff9451" d="M28 34.379a3.33 3.33 0 0 1-3.136-2.225l1.239-.434a2.011 2.011 0 0 0 3.795 0l1.239.434A3.33 3.33 0 0 1 28 34.379"/><path fill="#f7674f" d="M29.9 31.721a2.01 2.01 0 0 1-1.9 1.346h-.005v1.313H28a3.33 3.33 0 0 0 3.136-2.225Z"/><path fill="#ff6838" d="M15.463 16.434a13 13 0 0 0-.315 2.838h1.393v8.973a1.88 1.88 0 0 0 1.881 1.881v-7.36a3.49 3.49 0 0 1 1.415-2.809 11.5 11.5 0 0 1-2.462-3.688 1.009 1.009 0 0 0-1.912.165"/><path fill="#e86035" d="M38.624 16.27a11.5 11.5 0 0 1-2.462 3.688 3.49 3.49 0 0 1 1.415 2.809v7.359a1.88 1.88 0 0 0 1.881-1.881v-8.974h1.393a13 13 0 0 0-.315-2.838 1.009 1.009 0 0 0-1.912-.163"/></svg>