<svg xmlns="http://www.w3.org/2000/svg" width="56" height="56" viewBox="0 0 56 56"><circle cx="28" cy="28" r="28" fill="#ff3f84"/><path fill="#983262" d="m16.432 36.729 18.424 18.424A28.01 28.01 0 0 0 55.97 29.275L37.423 10.681Z"/><path fill="#4d4d4d" d="M36.4 37.907H19.6a4.854 4.854 0 0 1-4.854-4.854V20A13.254 13.254 0 0 1 28 6.748 13.254 13.254 0 0 1 41.254 20v13.053a4.854 4.854 0 0 1-4.854 4.854"/><path fill="#333" d="M28 6.748h-.005v31.159H36.4a4.854 4.854 0 0 0 4.854-4.854V20A13.254 13.254 0 0 0 28 6.748"/><circle cx="2.93" cy="2.93" r="2.93" fill="#ffcdbe" transform="translate(15.062 24.577)"/><circle cx="2.93" cy="2.93" r="2.93" fill="#faa68e" transform="translate(35.077 24.577)"/><path fill="#ffcdbe" d="M28 56a27.87 27.87 0 0 0 14.7-4.164l-1.02-9.328a3.3 3.3 0 0 0-2.869-2.918l-7.061-.844v-5.277h-7.5v5.277l-7.061.844a3.3 3.3 0 0 0-2.869 2.918l-1.02 9.328A27.87 27.87 0 0 0 28 56"/><path fill="#faa68e" d="m42.7 51.836-1.02-9.328a3.3 3.3 0 0 0-2.869-2.918l-7.061-.844v-5.277h-3.755V56H28a27.87 27.87 0 0 0 14.7-4.164"/><path fill="#ffdecf" d="M28 37.078a10.336 10.336 0 0 1-10.336-10.336v-5.906A10.336 10.336 0 0 1 28 10.5a10.336 10.336 0 0 1 10.336 10.336v5.906A10.336 10.336 0 0 1 28 37.078"/><path fill="#ffbeaa" d="M28 10.5h-.005v26.578H28a10.336 10.336 0 0 0 10.336-10.336v-5.906A10.336 10.336 0 0 0 28 10.5"/><path fill="#4d4d4d" d="M18.362 36.729v-9.8a4.915 4.915 0 0 1 4.915-4.915H29.4a3.943 3.943 0 0 0 3.943-3.943 4.257 4.257 0 0 1 4.257 4.258v11.476a1.6 1.6 0 0 0 1.6-1.6V17.481a7.27 7.27 0 0 0-3.668-6.313l-1.332-.76a3.286 3.286 0 0 0-3.55-2.515l-4.37.466a11.733 11.733 0 0 0-10.489 11.666v14.133a2.57 2.57 0 0 0 2.571 2.571"/><path fill="#333" d="m35.529 11.167-1.329-.759a3.286 3.286 0 0 0-3.55-2.515l-2.655.283v13.838h1.4a3.943 3.943 0 0 0 3.943-3.943 4.257 4.257 0 0 1 4.262 4.258v11.476a1.6 1.6 0 0 0 1.6-1.6V17.481a7.27 7.27 0 0 0-3.671-6.314"/><path fill="#4d4d4d" d="M23.246 28.155a.89.89 0 0 1-.889-.889v-1.3a.89.89 0 0 1 .889-.889.89.89 0 0 1 .889.889v1.3a.89.89 0 0 1-.889.889"/><path fill="#333" d="M32.754 28.155a.89.89 0 0 1-.889-.889v-1.3a.89.89 0 0 1 .889-.889.89.89 0 0 1 .889.889v1.3a.89.89 0 0 1-.889.889"/><path fill="#ff6838" d="M28 34.262a3.12 3.12 0 0 1-3.117-3.117H26.2a1.8 1.8 0 0 0 3.609 0h1.313A3.12 3.12 0 0 1 28 34.262"/><path fill="#e86035" d="M29.8 31.145a1.807 1.807 0 0 1-1.8 1.8h-.005v1.313H28a3.12 3.12 0 0 0 3.117-3.117Z"/><path fill="#91cdff" d="m13.958 45.828-.658 6.008a28.02 28.02 0 0 0 29.391 0l-.654-6.008Z"/><path fill="#1e8ce6" d="m42.7 51.836-.654-6.008H27.995V56H28a27.87 27.87 0 0 0 14.7-4.164"/><path fill="#fff" d="M27.021 51.982A.984.984 0 0 1 28 51a.984.984 0 0 1 .985.983.984.984 0 0 1-.982.985.985.985 0 0 1-.982-.986m-1.711.184a.985.985 0 0 1-.316-1.356.984.984 0 0 1 1.356-.315.983.983 0 0 1 .315 1.355.98.98 0 0 1-.837.465 1 1 0 0 1-.518-.15Zm4.035-.32a.984.984 0 0 1 .313-1.356.983.983 0 0 1 1.356.313.984.984 0 0 1-.312 1.356 1 1 0 0 1-.522.15.98.98 0 0 1-.835-.464Zm-5.97-1.481a.984.984 0 0 1 .18-1.38.984.984 0 0 1 1.38.182.984.984 0 0 1-.18 1.38 1 1 0 0 1-.6.2.98.98 0 0 1-.779-.383Zm7.877.173a.985.985 0 0 1-.183-1.38.983.983 0 0 1 1.38-.183.984.984 0 0 1 .183 1.379.98.98 0 0 1-.782.386.98.98 0 0 1-.597-.203Zm-9.163-2.343a.985.985 0 0 1 .487-1.3.984.984 0 0 1 1.3.487.985.985 0 0 1-.487 1.3 1 1 0 0 1-.408.089.98.98 0 0 1-.892-.577Zm10.523.476a.984.984 0 0 1-.488-1.3.985.985 0 0 1 1.3-.488.985.985 0 0 1 .488 1.3.98.98 0 0 1-.9.576 1 1 0 0 1-.4-.089Zm-11.351-2.8a.985.985 0 0 1 .7-1.206.985.985 0 0 1 1.206.7.985.985 0 0 1-.7 1.206 1 1 0 0 1-.256.034.986.986 0 0 1-.95-.734m12.275.684a.983.983 0 0 1-.7-1.205.983.983 0 0 1 1.205-.7.984.984 0 0 1 .7 1.205.986.986 0 0 1-.95.73 1 1 0 0 1-.254-.031ZM20.8 43.477a.985.985 0 0 1 .854-1.1.985.985 0 0 1 1.1.854.985.985 0 0 1-.854 1.1 1 1 0 0 1-.124.008.985.985 0 0 1-.976-.862m13.31.842a.985.985 0 0 1-.855-1.1.986.986 0 0 1 1.1-.855.984.984 0 0 1 .854 1.1.984.984 0 0 1-.976.862 1 1 0 0 1-.127-.007Zm-13.46-3.264a.984.984 0 0 1 .983-.984.984.984 0 0 1 .985.983.985.985 0 0 1-.983.985.984.984 0 0 1-.988-.984Zm12.738-.012v-.023a.984.984 0 0 1 .983-.985.984.984 0 0 1 .985.983v.025a.984.984 0 0 1-.984.984.984.984 0 0 1-.987-.984Zm-11.738-1.31a.985.985 0 0 1-.856-1.1.985.985 0 0 1 1.1-.856.985.985 0 0 1 .856 1.1.986.986 0 0 1-.977.864 1 1 0 0 1-.123-.008m11.6-.89a.985.985 0 0 1 .854-1.1.984.984 0 0 1 1.1.853.983.983 0 0 1-.853 1.1 1 1 0 0 1-.125.008.986.986 0 0 1-.978-.862Z"/><path fill="#e0e0e0" d="M34.223 39.7a1 1 0 0 0 .125-.008.985.985 0 1 0-.125.008m-.795 7.178a.984.984 0 1 0 .488 1.3.985.985 0 0 0-.488-1.3m.922-4.513a.984.984 0 1 0-.244 1.953 1 1 0 0 0 .123.008.984.984 0 0 0 .121-1.961m.018-2.33a.984.984 0 0 0-.983.985v.023a.984.984 0 0 0 1.969 0v-.025a.984.984 0 0 0-.986-.983m-.323 4.618a.984.984 0 1 0 .7 1.205.983.983 0 0 0-.7-1.205m-1.595 4.321a.984.984 0 1 0 .183 1.379.983.983 0 0 0-.183-1.379M28 51h-.01v1.968h.013A.984.984 0 0 0 28 51m1.658-.511a.984.984 0 1 0 1.356.313.984.984 0 0 0-1.356-.313"/></svg>