<svg xmlns="http://www.w3.org/2000/svg" xmlns:xlink="http://www.w3.org/1999/xlink" width="56" height="56" viewBox="0 0 56 56"><defs><path id="a" fill="#06a" d="M0 0h22.203v1.823H0z"/><path id="b" fill="#1e2d64" d="M0 0h11.107v1.823H0z"/></defs><circle cx="28" cy="28" r="28" fill="#733c82"/><path fill="#4b285a" d="M27.681 40.514 40.317 53.15a28 28 0 0 0 15.654-23.905l-18.23-18.23Z"/><path fill="#ffda45" d="M28 39.076v9.356a13.254 13.254 0 0 1-13.254-13.255V20A13.254 13.254 0 0 1 28 6.748 13.254 13.254 0 0 1 41.254 20v5.82A13.254 13.254 0 0 1 28 39.076"/><path fill="#ffbc36" d="M28 6.748h-.005v41.683H28v-9.355a13.254 13.254 0 0 0 13.254-13.254V20A13.254 13.254 0 0 0 28 6.748"/><path fill="#ffcdbe" d="M28 56a27.87 27.87 0 0 0 14.7-4.164l-1.02-9.328a3.3 3.3 0 0 0-2.869-2.918l-7.061-.844v-5.277h-7.5v5.277l-7.061.844a3.3 3.3 0 0 0-2.869 2.918l-1.02 9.328A27.87 27.87 0 0 0 28 56"/><path fill="#faa68e" d="m42.7 51.836-1.02-9.328a3.3 3.3 0 0 0-2.869-2.918l-7.061-.844v-5.277h-3.755V56H28a27.87 27.87 0 0 0 14.7-4.164"/><path fill="#fff" d="M41.68 42.508a3.3 3.3 0 0 0-2.869-2.918l-4.554-.544a6.617 6.617 0 0 1-12.725.025l-4.343.519a3.3 3.3 0 0 0-2.869 2.918l-1.02 9.328a28.02 28.02 0 0 0 29.391 0Z"/><path fill="#e0e0e0" d="m42.7 51.836-1.02-9.328a3.3 3.3 0 0 0-2.869-2.918l-4.554-.544a6.62 6.62 0 0 1-6.262 4.812V56H28a27.87 27.87 0 0 0 14.7-4.164"/><path fill="#f2f2f2" d="M16.9 53.71a28.06 28.06 0 0 0 22.2 0V39.64a3 3 0 0 0-.29-.05l-4.554-.544a6.617 6.617 0 0 1-12.726.025l-4.343.519c-.1.012-.2.029-.291.05v14.07Z"/><path fill="#e6e6e6" d="m38.811 39.59-4.554-.544a6.62 6.62 0 0 1-6.262 4.812V56H28a27.9 27.9 0 0 0 11.1-2.29V39.64a3 3 0 0 0-.289-.05"/><circle cx="2.93" cy="2.93" r="2.93" fill="#ffcdbe" transform="translate(15.062 24.577)"/><circle cx="2.93" cy="2.93" r="2.93" fill="#faa68e" transform="translate(35.077 24.577)"/><path fill="#ffdecf" d="M28 37.078a10.336 10.336 0 0 1-10.336-10.336v-5.906A10.336 10.336 0 0 1 28 10.5a10.336 10.336 0 0 1 10.336 10.336v5.906A10.336 10.336 0 0 1 28 37.078"/><path fill="#ffbeaa" d="M28 10.5h-.005v26.578H28a10.336 10.336 0 0 0 10.336-10.336v-5.906A10.336 10.336 0 0 0 28 10.5"/><path fill="#ff6838" d="M28 34.262a3.12 3.12 0 0 1-3.117-3.117H26.2a1.8 1.8 0 0 0 3.609 0h1.313A3.12 3.12 0 0 1 28 34.262"/><path fill="#e86035" d="M29.8 31.145a1.807 1.807 0 0 1-1.8 1.8h-.005v1.313H28a3.12 3.12 0 0 0 3.117-3.117Z"/><path fill="#ffda45" d="M26.245 7.938a12.206 12.206 0 0 0-10.912 12.137v3.011l1.012-.312v5.716a1.66 1.66 0 0 0 1.662 1.663v-2.9a5.113 5.113 0 0 1 5.113-5.113h6.37a4.1 4.1 0 0 0 4.1-4.1 4.43 4.43 0 0 1 4.429 4.429v7.682a1.66 1.66 0 0 0 1.663-1.663v-11.06a7.56 7.56 0 0 0-3.816-6.568Z"/><path fill="#ffbc36" d="m35.867 10.859-7.872-2.39v13.675h1.5a4.1 4.1 0 0 0 4.1-4.1 4.43 4.43 0 0 1 4.429 4.429v7.682a1.66 1.66 0 0 0 1.663-1.663V17.428a7.56 7.56 0 0 0-3.82-6.569"/><path fill="#4d4d4d" d="M23.246 28.155a.89.89 0 0 1-.889-.889v-1.3a.89.89 0 0 1 .889-.889.89.89 0 0 1 .889.889v1.3a.89.89 0 0 1-.889.889"/><path fill="#333" d="M32.754 28.155a.89.89 0 0 1-.889-.889v-1.3a.89.89 0 0 1 .889-.889.89.89 0 0 1 .889.889v1.3a.89.89 0 0 1-.889.889"/><path fill="#ffda45" d="M22.729 45.363h-7.984V35h5.807a2.177 2.177 0 0 1 2.177 2.177z"/><path fill="#06a" d="M16.9 53.71a28.06 28.06 0 0 0 22.2 0v-.791H16.9Z"/><path fill="#1e2d64" d="M27.995 52.919V56H28a27.9 27.9 0 0 0 11.1-2.29v-.791Z"/><use xlink:href="#a" transform="translate(16.898 49.287)"/><use xlink:href="#b" transform="translate(27.995 49.287)"/><path fill="#06a" d="m13.525 49.815 3.374 1.3v-1.828L13.71 48.11Zm.365-3.356 3.01 1.156v-1.823l-2.823-1.043Zm3.01 6.461-3.57-1.32-.025.235A28 28 0 0 0 16.9 53.71Z"/><path fill="#1e2d64" d="m42.29 48.11-3.19 1.177v1.823l3.374-1.3Zm-.366-3.361L39.1 45.792v1.823l3.009-1.155ZM39.1 53.71a28 28 0 0 0 3.6-1.874l-.03-.236-3.57 1.32Z"/><use xlink:href="#a" transform="translate(16.898 45.792)"/><use xlink:href="#b" transform="translate(27.995 45.792)"/><path fill="#ffbc36" d="m18.841 39.8-1.292-.455a2.8 2.8 0 0 1-2.8-2.8v-1.297h1.292a2.8 2.8 0 0 1 2.8 2.8Z"/><path fill="#ffda45" d="M18.841 41.532H17.55a2.8 2.8 0 0 1-2.8-2.8v-1.295h1.292a2.8 2.8 0 0 1 2.8 2.8Z"/><path fill="#ffbc36" d="m18.632 42 1.292-.513a2.8 2.8 0 0 0 2.8-2.8v-1.295h-1.288a2.8 2.8 0 0 0-2.8 2.8Z"/><path fill="#ffda45" d="M18.632 43.691h1.292a2.8 2.8 0 0 0 2.8-2.8V39.6h-1.288a2.8 2.8 0 0 0-2.8 2.8Z"/><path fill="#ffbc36" d="m18.841 44.1-1.292-.378a2.8 2.8 0 0 1-2.8-2.8v-1.297h1.292a2.8 2.8 0 0 1 2.8 2.8Z"/><path fill="#ffda45" d="M18.841 45.909H17.55a2.8 2.8 0 0 1-2.8-2.8v-1.296h1.292a2.8 2.8 0 0 1 2.8 2.8Z"/><path fill="#ffbc36" d="m18.632 46.238 1.292-.344a2.8 2.8 0 0 0 2.8-2.8V41.8h-1.288a2.8 2.8 0 0 0-2.8 2.8Z"/><g fill="#ffda45"><path d="M18.632 48.1h1.292a2.8 2.8 0 0 0 2.8-2.8V44h-1.288a2.8 2.8 0 0 0-2.8 2.8Z"/><path d="m18.765 53.543 1.1-1.1a3.39 3.39 0 0 0 0-4.8l-1.1-1.1-1.1 1.1a3.39 3.39 0 0 0 0 4.8Z"/></g><path fill="#ffbc36" d="M18.841 48.1H17.55a2.8 2.8 0 0 1-2.8-2.8V44h1.292a2.8 2.8 0 0 1 2.8 2.8Z"/><path fill="#666" d="M29.176 25.594h-1.6a4.485 4.485 0 1 0 .032 1.313h1.566Zm-6.016 3.937a3.172 3.172 0 1 1 3.172-3.172 3.175 3.175 0 0 1-3.172 3.172"/><path fill="#4d4d4d" d="M32.84 21.875a4.49 4.49 0 0 0-4.418 3.719h-.427v1.313h.4a4.484 4.484 0 1 0 4.45-5.031Zm0 7.656a3.172 3.172 0 1 1 3.172-3.172 3.175 3.175 0 0 1-3.172 3.172"/></svg>