<svg xmlns="http://www.w3.org/2000/svg" width="56" height="56" viewBox="0 0 56 56"><circle cx="28" cy="28" r="28" fill="#91cdff"/><path fill="#1e8ce6" d="M37.265 10.254 14.9 29.353l24.31 24.31A28.01 28.01 0 0 0 55.981 28.97Z"/><path fill="#aa6e4d" d="M28 35.323a13.1 13.1 0 0 1-13.1-13.1v-2.712A13.1 13.1 0 0 1 28 6.414a13.1 13.1 0 0 1 13.1 13.1v2.714A13.1 13.1 0 0 1 28 35.323"/><path fill="#9b6043" d="M28 6.414h-.005v28.908H28a13.1 13.1 0 0 0 13.1-13.1v-2.711A13.1 13.1 0 0 0 28 6.414"/><path fill="#c18761" d="M14.9 20.672v1.553A13.1 13.1 0 0 0 28 35.323a13.1 13.1 0 0 0 13.1-13.1v-1.551Z"/><path fill="#aa6e4d" d="M27.995 20.672v14.65H28a13.1 13.1 0 0 0 13.1-13.1v-1.55Z"/><circle cx="3.175" cy="3.175" r="3.175" fill="#ffcdbe" transform="translate(13.98 23.94)"/><circle cx="3.175" cy="3.175" r="3.175" fill="#faa68e" transform="translate(35.669 23.94)"/><path fill="#ffcdbe" d="M28 56a27.88 27.88 0 0 0 17.417-6.077l-.692-6.364a3.576 3.576 0 0 0-3.109-3.159l-9.551-1.1v-5.725h-8.129v5.718l-9.551 1.1a3.576 3.576 0 0 0-3.109 3.161l-.692 6.364A27.88 27.88 0 0 0 28 56"/><path fill="#faa68e" d="m45.417 49.923-.692-6.364a3.576 3.576 0 0 0-3.109-3.159l-9.551-1.1v-5.725h-4.07V56H28a27.88 27.88 0 0 0 17.417-6.077"/><path fill="#ffdecf" d="M28 37.486a11.2 11.2 0 0 1-11.2-11.2v-6.4A11.2 11.2 0 0 1 28 8.686a11.2 11.2 0 0 1 11.2 11.2v6.4a11.2 11.2 0 0 1-11.2 11.2"/><path fill="#ffbeaa" d="M28 8.686h-.005v28.8H28a11.2 11.2 0 0 0 11.2-11.2v-6.4A11.2 11.2 0 0 0 28 8.686"/><path fill="#ff9451" d="M28 33.906a3.327 3.327 0 0 1-3.323-3.323h1.313a2.01 2.01 0 0 0 4.021 0h1.313A3.327 3.327 0 0 1 28 33.906"/><path fill="#f7674f" d="M30.01 30.583a2.013 2.013 0 0 1-2.01 2.01h-.005v1.313H28a3.327 3.327 0 0 0 3.323-3.323Z"/><path fill="#aa6e4d" d="M25.5 8.422a9.17 9.17 0 0 0-9.171 9.171v10.9a1.66 1.66 0 0 0 1.662 1.663V16.924a2.42 2.42 0 0 1 2.422-2.424 2.42 2.42 0 0 1 2.419 2.419v.016a2.42 2.42 0 0 0 2.419 2.419h5.5a2.42 2.42 0 0 0 2.419-2.419v-.016a2.42 2.42 0 0 1 2.418-2.419 2.42 2.42 0 0 1 2.419 2.419v13.234a1.66 1.66 0 0 0 1.662-1.663v-10.9A9.17 9.17 0 0 0 30.5 8.422Z"/><path fill="#9b6043" d="M30.5 8.422H28v10.937h2.754a2.42 2.42 0 0 0 2.419-2.419v-.016a2.419 2.419 0 1 1 4.839 0v13.229a1.66 1.66 0 0 0 1.663-1.663v-10.9A9.17 9.17 0 0 0 30.5 8.422"/><path fill="#c18761" d="M16.331 28.49a1.66 1.66 0 0 0 1.662 1.663v-9.481h-1.662Z"/><path fill="#aa6e4d" d="M38.007 20.672v9.481a1.66 1.66 0 0 0 1.663-1.663v-7.818Z"/><path fill="#4d4d4d" d="M23.246 28.155a.89.89 0 0 1-.889-.889v-1.3a.89.89 0 0 1 .889-.889.89.89 0 0 1 .889.889v1.3a.89.89 0 0 1-.889.889"/><path fill="#333" d="M32.754 28.155a.89.89 0 0 1-.889-.889v-1.3a.89.89 0 0 1 .889-.889.89.89 0 0 1 .889.889v1.3a.89.89 0 0 1-.889.889"/><path fill="#aa6e4d" d="M33.434 32.747a1.92 1.92 0 0 0-1.476.683 2.24 2.24 0 0 1-1.724.808h-4.467a2.24 2.24 0 0 1-1.724-.808 1.92 1.92 0 0 0-1.476-.683v2.866a3.135 3.135 0 0 0 3.133 3.135h4.6a3.135 3.135 0 0 0 3.135-3.135z"/><g fill="#9b6043"><path d="M31.958 33.43a2.24 2.24 0 0 1-1.724.808h-2.239v4.51h2.3a3.135 3.135 0 0 0 3.135-3.135v-2.866a1.92 1.92 0 0 0-1.472.683"/><path d="M22.566 33.456a1.92 1.92 0 0 0 1.476-.683 2.24 2.24 0 0 1 1.724-.808h4.467a2.24 2.24 0 0 1 1.724.808 1.92 1.92 0 0 0 1.476.683v-.527a3.135 3.135 0 0 0-3.133-3.135h-4.6a3.135 3.135 0 0 0-3.135 3.135z"/></g><path fill="#7c4a35" d="M30.3 29.794H28v2.171h2.239a2.24 2.24 0 0 1 1.724.808 1.92 1.92 0 0 0 1.476.683v-.527a3.135 3.135 0 0 0-3.139-3.135"/><path fill="#e6e6e6" d="M44.725 43.559a3.576 3.576 0 0 0-3.109-3.159l-9.059-1.05c-.867 1.63-2.582 6.186-4.557 6.186s-3.691-4.556-4.557-6.186l-9.059 1.05a3.576 3.576 0 0 0-3.109 3.161l-.692 6.364a28 28 0 0 0 34.834 0Z"/><path fill="#ccc" d="m45.417 49.923-.692-6.364a3.576 3.576 0 0 0-3.109-3.159l-9.059-1.05c-.867 1.63-2.582 6.186-4.557 6.186h-.005V56H28a27.88 27.88 0 0 0 17.417-6.077"/><path fill="#e0e0e0" d="M32.557 39.35 28 45.536l4.63 2.364 2.712-8.227Z"/><path fill="#fff" d="m23.443 39.35 4.552 6.186L23.37 47.9l-2.712-8.227Z"/></svg>