<svg xmlns="http://www.w3.org/2000/svg" width="56" height="56" viewBox="0 0 56 56"><circle cx="28" cy="28" r="28" fill="#06a"/><path fill="#1e2d64" d="m14.815 29.26 24.4 24.4A28.01 28.01 0 0 0 55.98 29L34.769 7.788Z"/><path fill="#ff6838" d="M14.465 27.043c0-1.883.875-1.883.875-3.766s-.875-1.883-.875-3.766c0-1.173 1.014-2.2 1.3-3.278.3-1.119-.059-2.511.508-3.491s1.965-1.377 2.771-2.183 1.189-2.2 2.183-2.771 2.372-.209 3.491-.508c1.082-.289 2.105-1.3 3.278-1.3s2.2 1.014 3.278 1.3c1.119.3 2.511-.059 3.491.508s1.377 1.965 2.183 2.771 2.2 1.189 2.771 2.183.209 2.372.508 3.491c.289 1.081 1.3 2.105 1.3 3.278 0 1.883-.875 1.883-.875 3.766s.875 1.883.875 3.766Z"/><path fill="#e86035" d="M40.66 23.277c0-1.883.875-1.883.875-3.766 0-1.173-1.014-2.2-1.3-3.278-.3-1.119.059-2.511-.508-3.491s-1.965-1.377-2.771-2.183-1.189-2.2-2.183-2.771-2.373-.209-3.495-.508c-1.082-.289-2.105-1.3-3.278-1.3h-.005v21.063h13.54c0-1.884-.875-1.884-.875-3.766"/><circle cx="3.175" cy="3.175" r="3.175" fill="#ffcdbe" transform="translate(13.98 23.94)"/><circle cx="3.175" cy="3.175" r="3.175" fill="#faa68e" transform="translate(35.669 23.94)"/><path fill="#ffcdbe" d="M28 56a27.88 27.88 0 0 0 17.417-6.077l-.692-6.364a3.576 3.576 0 0 0-3.109-3.159l-9.551-1.1v-5.725h-8.129v5.718l-9.551 1.1a3.576 3.576 0 0 0-3.109 3.161l-.692 6.364A27.88 27.88 0 0 0 28 56"/><path fill="#faa68e" d="m45.417 49.923-.692-6.364a3.576 3.576 0 0 0-3.109-3.159l-9.551-1.1v-5.725h-4.07V56H28a27.88 27.88 0 0 0 17.417-6.077"/><path fill="#ffdecf" d="M28 37.486a11.2 11.2 0 0 1-11.2-11.2v-6.4A11.2 11.2 0 0 1 28 8.686a11.2 11.2 0 0 1 11.2 11.2v6.4a11.2 11.2 0 0 1-11.2 11.2"/><path fill="#ffbeaa" d="M28 8.686h-.005v28.8H28a11.2 11.2 0 0 0 11.2-11.2v-6.4A11.2 11.2 0 0 0 28 8.686"/><path fill="#ff9451" d="M28 34.379a3.327 3.327 0 0 1-3.323-3.323h1.313a2.01 2.01 0 0 0 4.021 0h1.313A3.327 3.327 0 0 1 28 34.379"/><path fill="#f7674f" d="M30.01 31.056a2.013 2.013 0 0 1-2.01 2.01h-.005v1.313H28a3.327 3.327 0 0 0 3.323-3.323Z"/><path fill="#f2f2f2" d="M44.725 43.559a3.576 3.576 0 0 0-3.109-3.159l-9.059-1.05a5.159 5.159 0 0 1-9.115 0l-9.058 1.05a3.576 3.576 0 0 0-3.109 3.161l-.692 6.364a28 28 0 0 0 34.834 0Z"/><path fill="#e6e6e6" d="m45.417 49.923-.692-6.364a3.576 3.576 0 0 0-3.109-3.159l-9.059-1.05A5.16 5.16 0 0 1 28 42.091h-.005V56H28a27.88 27.88 0 0 0 17.417-6.077"/><path fill="#4d4d4d" d="M23.246 28.155a.89.89 0 0 1-.889-.889v-1.3a.89.89 0 0 1 .889-.889.89.89 0 0 1 .889.889v1.3a.89.89 0 0 1-.889.889"/><path fill="#333" d="M32.754 28.155a.89.89 0 0 1-.889-.889v-1.3a.89.89 0 0 1 .889-.889.89.89 0 0 1 .889.889v1.3a.89.89 0 0 1-.889.889"/><path fill="#ff6838" d="m35.853 10.859-1.386-.79a3.42 3.42 0 0 0-3.691-2.617l-4.546.485a12.206 12.206 0 0 0-10.911 12.138v3.011l1.012-.312v5.716a1.66 1.66 0 0 0 1.662 1.663v-2.9a5.11 5.11 0 0 1 2.413-4.342 3.1 3.1 0 0 0 1.973.71h3a3.1 3.1 0 0 0 2.643-1.481h1.459a4.1 4.1 0 0 0 4.1-4.1 4.43 4.43 0 0 1 4.429 4.429v7.682a1.66 1.66 0 0 0 1.663-1.663v-11.06a7.56 7.56 0 0 0-3.82-6.569"/><path fill="#e86035" d="m35.853 10.859-1.386-.79a3.42 3.42 0 0 0-3.691-2.617l-2.782.3V22.18l.023-.035h1.458a4.1 4.1 0 0 0 4.1-4.1 4.43 4.43 0 0 1 4.429 4.429v7.682a1.66 1.66 0 0 0 1.663-1.663V17.428a7.56 7.56 0 0 0-3.814-6.569"/><path fill="silver" d="m36.908 52.081-2.178 1.207-2.063-1.2a1.93 1.93 0 0 1-.959-1.667V46.1H37.9v4.29a1.93 1.93 0 0 1-.992 1.691"/></svg>