<svg xmlns="http://www.w3.org/2000/svg" xmlns:xlink="http://www.w3.org/1999/xlink" width="56" height="56" viewBox="0 0 56 56"><defs><path id="a" fill="#ffcdbe" d="M28 56a27.87 27.87 0 0 0 14.7-4.164l-1.02-9.328a3.3 3.3 0 0 0-2.869-2.918l-7.061-.844v-5.277h-7.5v5.277l-7.061.844a3.3 3.3 0 0 0-2.869 2.918l-1.02 9.328A27.87 27.87 0 0 0 28 56"/><path id="b" fill="#ff6838" d="M28 34.262a3.12 3.12 0 0 1-3.117-3.117H26.2a1.8 1.8 0 0 0 3.609 0h1.313A3.12 3.12 0 0 1 28 34.262"/></defs><circle cx="28" cy="28" r="28" fill="#06a"/><path fill="#1e2d64" d="M10.734 28.155 3.681 25l30.345 30.348a28.03 28.03 0 0 0 21.383-33.093l-11-11Z"/><path fill="#e89f00" d="M52.319 25a6.376 6.376 0 0 1-6.345-5.833v-3.981a5.64 5.64 0 0 0-5.483-5.669 5.58 5.58 0 0 0-5.674 5.577v7.159a6.563 6.563 0 0 0 6.563 6.563h.729a9.3 9.3 0 0 0 3.96-.882Z"/><path fill="#ffbc36" d="M3.681 25a6.376 6.376 0 0 0 6.345-5.833v-3.981a5.64 5.64 0 0 1 5.483-5.669 5.58 5.58 0 0 1 5.674 5.577v7.159a6.563 6.563 0 0 1-6.562 6.563h-.731a9.3 9.3 0 0 1-3.96-.882Z"/><circle cx="6.289" cy="6.289" r="6.289" fill="#ff6838" transform="translate(14.019 8.094)"/><circle cx="6.289" cy="6.289" r="6.289" fill="#e86035" transform="translate(29.403 8.094)"/><use xlink:href="#a"/><path fill="#ffda45" d="M28 35.568a13.254 13.254 0 0 1-13.254-13.255V20A13.254 13.254 0 0 1 28 6.748 13.254 13.254 0 0 1 41.254 20v2.311A13.254 13.254 0 0 1 28 35.568"/><path fill="#ffbc36" d="M28 6.748h-.005v28.819H28a13.254 13.254 0 0 0 13.254-13.254V20A13.254 13.254 0 0 0 28 6.748"/><circle cx="2.93" cy="2.93" r="2.93" fill="#ffcdbe" transform="translate(15.062 24.577)"/><circle cx="2.93" cy="2.93" r="2.93" fill="#faa68e" transform="translate(35.077 24.577)"/><use xlink:href="#a"/><path fill="#faa68e" d="m42.7 51.836-1.02-9.328a3.3 3.3 0 0 0-2.869-2.918l-7.061-.844v-5.277h-3.755V56H28a27.87 27.87 0 0 0 14.7-4.164"/><path fill="#ffdecf" d="M28 37.078a10.336 10.336 0 0 1-10.336-10.336v-5.906A10.336 10.336 0 0 1 28 10.5a10.336 10.336 0 0 1 10.336 10.336v5.906A10.336 10.336 0 0 1 28 37.078"/><path fill="#ffbeaa" d="M28 10.5h-.005v26.578H28a10.336 10.336 0 0 0 10.336-10.336v-5.906A10.336 10.336 0 0 0 28 10.5"/><path fill="#4d4d4d" d="M23.246 28.155a.89.89 0 0 1-.889-.889v-1.3a.89.89 0 0 1 .889-.889.89.89 0 0 1 .889.889v1.3a.89.89 0 0 1-.889.889"/><path fill="#333" d="M32.754 28.155a.89.89 0 0 1-.889-.889v-1.3a.89.89 0 0 1 .889-.889.89.89 0 0 1 .889.889v1.3a.89.89 0 0 1-.889.889"/><use xlink:href="#b"/><use xlink:href="#b"/><path fill="#e86035" d="M29.8 31.145a1.807 1.807 0 0 1-1.8 1.8h-.005v1.313H28a3.12 3.12 0 0 0 3.117-3.117Z"/><path fill="#ffda45" d="M40.513 22.681a12.512 12.512 0 1 0-25.025 0h1.356V28a1.83 1.83 0 0 0 1.831 1.831v-3.747a3.4 3.4 0 0 1 3.4-3.4h11.847a3.4 3.4 0 0 1 3.4 3.4v3.749A1.83 1.83 0 0 0 39.156 28v-5.319Z"/><path fill="#ffbc36" d="M28 10.168h-.005v12.513h5.927a3.4 3.4 0 0 1 3.4 3.4v3.749A1.83 1.83 0 0 0 39.156 28v-5.319h1.356A12.51 12.51 0 0 0 28 10.168"/><path fill="#ff3f84" d="M41.68 42.508a3.3 3.3 0 0 0-2.869-2.918l-6.073-.726a5.63 5.63 0 0 1-9.477 0l-6.073.726a3.3 3.3 0 0 0-2.869 2.918L13.3 51.836a28.02 28.02 0 0 0 29.391 0Z"/><path fill="#983262" d="m42.7 51.836-1.02-9.328a3.3 3.3 0 0 0-2.869-2.918l-6.073-.726A5.63 5.63 0 0 1 28 41.453h-.005V56H28a27.87 27.87 0 0 0 14.7-4.164"/></svg>