<svg xmlns="http://www.w3.org/2000/svg" width="145.719" height="145.684" viewBox="0 0 145.719 145.684"><path fill="#75757c" d="M104.574 54.032c-.5.245-1.007.49-1.51.736.442-.5.884-1 1.339-1.488a1.366 1.366 0 0 0-1.649-2.136c-.4.223-.8.436-1.2.655a132 132 0 0 1 2.811-2.73c1.1-1.033-.365-3.024-1.639-2.127-.052.035-.1.071-.158.106a1.39 1.39 0 0 0-1.365-1.029q.731-.668 1.465-1.333c.891-.807-.242-2.036-1.213-1.575-.649.31-1.3.6-1.959.9a44 44 0 0 0 1.881-1.22.806.806 0 0 0-.419-1.478 1.218 1.218 0 0 0-1.775-.571l-7.018 4.886a1.23 1.23 0 0 0-.5 1.371c-.4.339-.8.671-1.2 1.01-1.178 1.01.323 2.636 1.568 2.033.413-.2.823-.41 1.236-.616-1.559 1.11-3.124 2.214-4.669 3.337a1.548 1.548 0 0 0 .468 2.759c-1.262 1.139.5 3.117 1.946 2.349.061-.032.119-.071.181-.1a1.6 1.6 0 0 0 2.239 2q1.254-.736 2.5-1.475l-.242.258a1.541 1.541 0 0 0 1.859 2.41c.632-.342 1.265-.7 1.891-1.055a26 26 0 0 0-2.465 3.5c-.458.8.545 1.417 1.188.916 3.02-2.352 5.289-5.592 7.9-8.371a1.226 1.226 0 0 0-1.478-1.917Zm-49.779-.88-1.291.774c.694-.7 1.391-1.4 2.107-2.075a1.161 1.161 0 0 0-1.4-1.817c-1.791 1.087-3.572 2.191-5.36 3.291 1.61-1.655 3.259-3.272 4.908-4.892.939-.923-.287-2.6-1.43-1.855-.281.181-.558.368-.839.552a1.255 1.255 0 0 0-.726-1.92c.171-.129.332-.274.507-.4 1.252-.923.152-2.978-1.249-2.139l-.077.045c.507-.994-.51-2.385-1.7-1.675q-.062.04-.129.074l.077-.071c1.229-1.181-.768-3.124-1.852-1.852-3.453 2.924-6.8 5.976-10.174 8.993a1.43 1.43 0 0 0 .4 2.307c-.223.213-.458.413-.678.629a1.43 1.43 0 0 0 1.726 2.236l.048-.029a1.548 1.548 0 0 0 1.694 1.71c-.926 1.126.468 3.107 1.778 2.139.549-.407 1.107-.8 1.662-1.194a59 59 0 0 0-2.449 2.472c-.952 1.029.29 2.872 1.562 2.023.894-.6 1.8-1.178 2.7-1.759-.571.532-1.149 1.062-1.707 1.61-1.194 1.181.361 3.3 1.823 2.362q1.481-.949 2.959-1.9c-.445.471-.891.949-1.336 1.42a1.511 1.511 0 0 0 2.136 2.136 13.8 13.8 0 0 1 3-2.136.864.864 0 0 0 .065-1.5c1.581-1.865 3.172-3.721 4.811-5.528a1.3 1.3 0 0 0-1.572-2.036Z"/><path fill="#ba8b54" d="M89.198 99.974q-2.561 1.568-5.14 3.1 2.715-2.241 5.46-4.45c1.1-.878-.319-2.649-1.491-1.93q-3.9 2.4-7.79 4.821c2.746-2.4 5.5-4.789 8.28-7.144 1.11-.939-.319-2.724-1.536-1.991l-9.2 5.528c3.272-2.607 6.589-5.16 9.978-7.612 1.249-.9.09-2.988-1.229-2.1a506 506 0 0 1-5.311 3.5 849 849 0 0 1 5.24-4.311c1.171-.955-.345-2.875-1.607-2.081q-3.287 2.067-6.593 4.108l6.728-5.441c.913-.739-.065-2.22-1.058-1.994.181-.136.358-.278.539-.413 1.275-.949.142-3.069-1.278-2.188-4.195 2.6-8.425 5.15-12.659 7.69l.571-.513c.881-.49 1.752-1 2.594-1.562a220 220 0 0 0 3.969-2.74c1.388-.971 3.117-1.9 4.127-3.272.8-1.094-.52-2.485-1.678-2.181a8.4 8.4 0 0 0-2.317 1.242c-.72.461-1.43.939-2.143 1.413a198 198 0 0 0-3.072 2.065l-5.36 3.385a211 211 0 0 1 10.568-8.148c1.275-.916.136-3-1.255-2.149q-2.4 1.471-4.815 2.9c.726-.536 1.446-1.081 2.178-1.6 1.126-.8.11-2.649-1.1-1.891a229 229 0 0 1-5.537 3.346q1.617-1.472 3.262-2.914c.6-.529-.165-1.349-.8-1.029l-.013-.023c-2.369 1.8-4.75 3.585-7.209 5.266-2.411 1.646-4.637 3.611-6.877 5.483-.984.82.052 2.33 1.136 2.11-.161.145-.329.278-.49.423-1.165 1.046.336 2.93 1.655 2.146q.183-.107.361-.219c-2.062 1.762-4.072 3.585-5.967 5.515-1.113 1.133.365 3.24 1.752 2.272 3.049-2.12 6.144-4.176 9.255-6.212a284 284 0 0 0-4.856 4.166c-1.152 1.013.336 2.9 1.63 2.11q2.26-1.38 4.514-2.772c-2.1 1.73-4.153 3.511-6.086 5.4a1.54 1.54 0 0 0 .161 2.217c-.248.2-.5.39-.752.59-1.3 1.033.381 3.156 1.765 2.288q2.861-1.791 5.712-3.595-3.32 2.7-6.554 5.5c-1.184 1.029.394 3.124 1.7 2.2.594-.423 1.2-.832 1.8-1.246-.132.116-.268.226-.4.342-1.313 1.162.378 3.279 1.852 2.4a204 204 0 0 0 4.65-2.866c-1.252.839-2.511 1.668-3.717 2.572a8.4 8.4 0 0 0-1.807 1.588c-.307.41-.662 1.149-.084 1.513a2.04 2.04 0 0 0 1.891-.11 1.384 1.384 0 0 0 1.988.72l3.821-2.43q-1.079.857-2.156 1.717c-1.281 1.023.365 3.043 1.726 2.236q2.381-1.409 4.737-2.856-3.48 2.89-6.96 5.776c-1.268 1.052.378 3.153 1.755 2.278 1.626-1.036 3.243-2.088 4.866-3.133a1.375 1.375 0 0 0 2.01 1.171s.006.01.006.013a66 66 0 0 0 6.512-5.35c2.152-1.875 4.3-3.756 6.476-5.6 1.2-1.013-.361-3.017-1.678-2.175q-.784.5-1.575 1 2.251-1.907 4.5-3.817c1.136-.965-.332-2.811-1.581-2.046Zm-15.305 3.488-.894.755c-.855.455-1.7.923-2.53 1.42q1.709-1.089 3.421-2.175Z"/><path fill="#eac485" d="M106.275 51.142a16.18 16.18 0 0 1-4.437 9.874q4.255-2.783 8.545-5.515c5.424-3.446 10.881-6.838 16.338-10.233a1.68 1.68 0 0 0-1.694-2.9q-6.462 3.195-12.775 6.66 6.36-4.148 12.753-8.248c1.794-1.152.171-3.982-1.681-2.875q-8.664 5.184-17.264 10.468a9 9 0 0 1 .213 2.765Zm14.108-18.652c-.8.429-1.575.884-2.369 1.32a1.574 1.574 0 0 0-2.327-.916q-7.207 4.25-14.373 8.59a8.4 8.4 0 0 1 2.249 3.014 6.1 6.1 0 0 1 1.849 2.146c.223-.152.445-.307.668-.455 5.324-3.6 10.684-7.16 16.044-10.713a1.728 1.728 0 0 0-1.742-2.982Z"/><path fill="#eac485" d="M133.86 71.92q-7.343 3.3-14.5 6.957 6.5-3.9 13.021-7.774a1.7 1.7 0 0 0-1.713-2.933q-20.48 12.043-40.959 24.089a32 32 0 0 1 .106 7.083q4.289-2.609 8.619-5.147-4.347 2.783-8.667 5.605a29 29 0 0 1-1.865 7.606c5.576-3.285 11.236-6.431 17-9.381q-7.256 4.719-14.386 9.626a1.83 1.83 0 0 0-2.02-.255c-.239.11-.478.216-.72.326-2.091 5.011-5.725 9.126-11.072 10.852a13.73 13.73 0 0 1-11.794-1.226q-1.965 1.244-3.924 2.494-1.844.837-3.692 1.672 3.354-2.415 6.8-4.692c-5.634-3.932-9.034-11.781-9.534-18.716-.013-.161-.013-.332-.023-.494-2.41 1.972-4.8 3.963-7.16 6-.523.313-1.052.616-1.575.933q2.425-2.067 4.869-4.1c1.275-1.058 2.565-2.1 3.853-3.14-.384-8.277 2.21-19.91 10.746-22.634 5.983-4.44 14.037-.913 19.068 4.924 8.48-5.847 17.112-11.478 25.806-16.99q9.081-5.755 18.222-11.41a1.69 1.69 0 0 0-1.7-2.917c-15.57 8.18-30.575 17.361-45.341 26.9 5.805-4.269 11.749-8.348 17.761-12.33-.187.074-.374.155-.568.213-4.066 1.249-6.457-1.665-7.567-5.266-.994.626-1.991 1.249-2.985 1.878q-3.867 2.449-7.735 4.918a465 465 0 0 1 10.468-7.7 16.4 16.4 0 0 1-.274-6.689 19 19 0 0 1 .636-2.333c-1.807 1.146-3.617 2.291-5.408 3.462Q75.227 57.66 64.806 63.998c8.971-7.015 18.361-13.492 27.939-19.678a10.05 10.05 0 0 1 2.8-2.985 4.9 4.9 0 0 1 3.333-.926q3.906-2.459 7.838-4.876c4.9-3 9.819-5.96 14.744-8.916q-1.38-1.148-2.643-2.417C99.556 34.839 81.372 47.272 63.689 60.354c-.068-.032-.142-.058-.213-.084 10.023-7.9 20.533-15.17 31.178-22.2 6.073-4.014 12.194-7.954 18.322-11.878a1.61 1.61 0 0 0-1.623-2.778c-14.708 8.463-29.045 17.476-43.169 26.84 7.574-5.518 15.315-10.813 23.121-15.98q8.446-5.591 16.97-11.068a1.623 1.623 0 0 0-.161-2.807c.768-.494 1.536-.994 2.3-1.488 1.681-1.078.145-3.753-1.575-2.691Q96.76 23.674 84.896 31.448q2.594-1.917 5.2-3.817c4.547-3.317 9.055-6.683 13.592-10.016 1.62-1.191.165-3.885-1.617-2.762-14.189 8.929-28.226 18.067-41.972 27.655 8.3-6.664 16.932-12.921 25.66-19 4.924-3.427 9.813-6.9 14.731-10.336 1.642-1.149.1-3.859-1.588-2.717q-3.538 2.357-7.064 4.737-14.652 9.8-29.4 19.468 9.828-7.781 20.022-15.11c3.937-2.849 7.912-5.644 11.878-8.451a1.553 1.553 0 0 0-1.565-2.682c-.865.461-1.713.945-2.572 1.42a1.29 1.29 0 0 0-1.926-1.129q-3.325 1.951-6.615 3.982c.6-1.375-.8-3.227-2.385-2.23-1.275.8-2.54 1.62-3.8 2.436a1.484 1.484 0 0 0-1.878-.161C60.214 20.728 47.374 29.544 34.824 38.76c.662-.6 1.31-1.207 1.981-1.8 6.689-5.879 13.656-11.439 20.772-16.79 4.014-3.02 8.045-6.025 12.117-8.964 1.646-1.191.126-3.934-1.623-2.775q-4.7 3.112-9.335 6.334c.248-.2.49-.394.739-.591 1.107-.878-.345-2.765-1.517-1.965q-9.807 6.7-19.591 13.424c-1.339.92-2.691 1.82-4.043 2.72q7.222-6.663 14.421-13.356c1.142-1.065-.316-2.836-1.633-2.114A97.8 97.8 0 0 0 25.65 28.815c-.742.729.352 1.768 1.123 1.123q4.429-3.679 9.139-6.948-8.809 8-17.6 16.028c-1.242 1.133.4 3.327 1.82 2.359 2.653-1.8 5.273-3.656 7.89-5.515a246 246 0 0 0-6.483 5.8c-3.288 3.056-6.5 6.2-9.594 9.452a1.605 1.605 0 0 0 2.269 2.269q2.319-2.052 4.663-4.072a127 127 0 0 0-3.553 3.856 1.726 1.726 0 0 0 2.44 2.44c5.844-4.779 11.859-9.339 17.929-13.824q-.803.708-1.6 1.417-3.219 2.677-6.4 5.408a1.6 1.6 0 0 0-.561.91c-.4.371-.8.732-1.2 1.107-4.221 3.982-8.4 8.025-12.333 12.3a1.59 1.59 0 0 0-.055 2.168c-1.058.968-2.1 1.962-3.146 2.943.023 1.817.058 3.633.116 5.45C19 66.544 27.56 59.709 36.638 53.604a13 13 0 0 1-.21-2.085 2.85 2.85 0 0 1 .82-2.152v-.081c-1.333.858-2.669 1.707-3.982 2.6q.185-.148.365-.307c1.265-1.071 2.517-2.168 3.772-3.266a10.6 10.6 0 0 1 .82-2.452c1.839-3.859 6.941-8.38 11.12-5.6.035.023.058.052.09.074.052.016.1.048.152.068.82-.61 1.626-1.229 2.449-1.833-.31.255-.629.5-.939.762-.455.378-.9.762-1.352 1.142a3 3 0 0 1 .313.142c2.669 1.6 4.8 5.492 5.308 9.245.5-.361 1-.732 1.5-1.094l-1.475 1.223c.374 2.978-.281 5.854-2.527 7.4q-.105.368-.219.716c-.784 2.336-2.233 4.653-4.779 5.273a5.91 5.91 0 0 1-5.331-1.63 10 10 0 0 1-1.175-.671q-.203.142-.4.284l.358-.316a11.08 11.08 0 0 1-4.66-7.357Q23.842 65.574 11.023 77.451a1.7 1.7 0 0 0-.3.371c.048.581.1 1.162.136 1.743a1.706 1.706 0 0 0 2.559.278 248 248 0 0 1 20.63-16.961 3 3 0 0 0 .077.219Q22.493 73.609 11.213 84.49c.061.626.113 1.252.181 1.878a2.66 2.66 0 0 1 .913 1.142l.255.594.21-.181q-.104.097-.207.187.8 1.844 1.591 3.688c6.434-4.679 12.875-9.361 19.413-13.9a1.4 1.4 0 0 0 1.239-.219q-7.309 5.213-14.3 10.859-2.89 2.338-5.7 4.76c.5 1.155 1.023 2.3 1.539 3.45q8.248-6.491 16.47-13.017c-.161.174-.323.342-.484.516a1.5 1.5 0 0 0-.373 1.243q-4.143 3.577-8.258 7.193c-2.2 1.939-4.382 3.9-6.567 5.857q.019.045.042.09c.642.971 1.288 1.936 1.93 2.907q9.337-7.44 18.955-14.515-4.773 4.279-9.406 8.706-4.1 3.926-8.158 7.9c.542.813 1.081 1.633 1.623 2.443.042.058.094.106.132.171l.261.419q.024.033.048.071c6.828-4.6 13.63-9.232 20.533-13.7a96 96 0 0 0-2.891 3.095 1.83 1.83 0 0 0-.019 2.3q-7.609 5.91-15.212 11.833c.639.923 1.291 1.839 1.943 2.756q12.077-9.284 24.86-17.545c-1.113.92-2.227 1.833-3.34 2.753-6.735 5.57-13.4 11.23-19.833 17.148q.11.148.219.307a3.24 3.24 0 0 1 2.185.839c.336.3.662.6.987.9q7.411-5.107 15.086-9.81a1.3 1.3 0 0 0 .3.032c-1.3.962-2.614 1.907-3.9 2.888a1.68 1.68 0 0 0-.607 1.859L33.66 119q1.413 1.409 2.753 2.885 4.2-2.406 8.442-4.737a2.1 2.1 0 0 0 .358 1.158 528 528 0 0 0-7.228 5.344q1.278 1.471 2.53 2.972a459 459 0 0 1 13.411-7.254 2 2 0 0 0 .132.384c-3.633 2.546-7.183 5.215-10.558 8.119a1.43 1.43 0 0 0-.413 1.839l.032.039c.455.339.916.671 1.375 1.007a1.84 1.84 0 0 0 1.146-.113l8.616-3.892a1.67 1.67 0 0 0 2.317.407q3.979-2.478 7.906-5.028 3.049-1.38 6.1-2.756-9.264 6.278-18.461 12.65c-1.258.871-.116 2.914 1.217 2.081q6.065-3.795 12.107-7.625c-.436.358-.884.707-1.317 1.068-1.526 1.271.432 3.672 2.088 2.707l6.738-3.94a1.675 1.675 0 0 0 2.275.471q11.075-6.375 22.14-12.772l-15.344 10.7c-2.488 1.388-4.973 2.807-7.525 4.014-1.042.494-.132 2.043.907 1.549.91-.432 1.839-.836 2.772-1.229a1.68 1.68 0 0 0 2.436.884l.145-.077c-.8 1.371.626 3.4 2.272 2.378q15.712-9.719 31.42-19.455c.49-.268.975-.539 1.465-.8a1.8 1.8 0 0 0 .545-.442l4.147-2.569a1.73 1.73 0 0 0-1.746-2.985q-8.088 4.23-16.183 8.461L128.53 96.29a81 81 0 0 0 2.223-6.925 1.53 1.53 0 0 0-1.513.084l-40.394 23.589c8.164-5.737 16.519-11.21 24.931-16.573 4.637-2.956 9.293-5.876 13.94-8.813a1.887 1.887 0 0 0-.316-3.243c1.707-.936 3.414-1.875 5.128-2.8q.234-1.242.429-2.485a1.6 1.6 0 0 0-1.817-.3q-3.635 1.68-7.215 3.462 4.71-2.914 9.423-5.821c.2-1.523.374-3.043.51-4.55Zm-99.287 1.155c-.749.5-1.491 1.016-2.236 1.523q4.724-4.168 9.532-8.242l.006.006q-3.722 3.282-7.3 6.709Zm.642 4.308q3.345-2.522 6.715-5.008-1.471 1.2-2.946 2.388c-1.262.868-2.52 1.736-3.769 2.62M32.74 95.944q5-4.729 10.178-9.274a1.473 1.473 0 0 0 2.207.571q9.371-7 18.793-13.94-5.474 4.671-10.688 9.629c-6.96 4.127-13.766 8.516-20.494 13.014Z"/><path fill="#eac485" d="M86.411 82.394c6.312-3.911 12.688-7.716 19.171-11.343q-5.576 3.693-11.107 7.454a336 336 0 0 0-7.89 4.176 20 20 0 0 1 1.048 1.985 26.6 26.6 0 0 1 2.068 7.538c6.38-4.247 12.814-8.406 19.265-12.533q6-3.843 12.036-7.641c1.478-.823 2.949-1.652 4.431-2.469 1.746-.962.774-3.23-.82-3.395q3.1-1.834 6.2-3.656a1.079 1.079 0 0 0-1.087-1.862c-3.327 1.675-6.7 3.3-10.026 5q6.452-4.192 12.966-8.29a1.577 1.577 0 0 0-1.591-2.72 403 403 0 0 0-46.613 25.1 23 23 0 0 1 1.949 2.662Z"/><g fill="#262c54"><path d="M69.607 134.725a64.6 64.6 0 0 1-20.829-3.209 34.6 34.6 0 0 1-9.535-4.808 19 19 0 0 1-2.565-2.332 1.66 1.66 0 0 1-.061-2.369 1.95 1.95 0 0 1 2.594-.523 3.4 3.4 0 0 1 .71.5c4.563 4.037 10.1 5.97 15.909 7.235a63.8 63.8 0 0 0 21.317.845 81 81 0 0 0 9.658-1.73c4.94-1.217 9.248-3.83 13.45-6.622a83 83 0 0 0 23.147-22.44 48.9 48.9 0 0 0 7.651-20.133 91 91 0 0 0 1.136-12.953c.189-12.57-3.311-24.022-11.211-33.938-2.827-3.543-5.792-6.983-8.816-10.362-5.776-6.454-13.166-9.871-21.591-11.456a73.3 73.3 0 0 0-24.205-.165 129 129 0 0 0-13.931 2.53 50.1 50.1 0 0 0-24.316 13.928 53.6 53.6 0 0 0-10.678 17.1 73.9 73.9 0 0 0-5.063 30.893c.1 2.788.532 5.566.8 8.348a6 6 0 0 1 .055 1.72 1.944 1.944 0 0 1-3.756.368 12.3 12.3 0 0 1-.507-2.259c-1.862-15.56-.265-30.614 6.589-44.9 6.47-13.495 16.844-22.6 30.891-27.632a81.4 81.4 0 0 1 18.038-4.024 98.6 98.6 0 0 1 17.323-1.011 62.2 62.2 0 0 1 19.213 3.856 33.5 33.5 0 0 1 10.123 6.1 89.8 89.8 0 0 1 17.548 21.075 53.5 53.5 0 0 1 7.228 22.7 77.1 77.1 0 0 1-2.73 28.916c-2.162 7.574-6.231 14.079-11.259 20.052a90.2 90.2 0 0 1-25.212 20.607 42.3 42.3 0 0 1-17.012 5.315c-3.362.307-6.731.52-10.1.771Z"/><path d="M92.934 96.576c-.1 6.486-1.926 12.9-6.664 18.158-8.922 9.91-21.143 7.606-27.919-1.381a28.18 28.18 0 0 1-5.628-18.735 6 6 0 0 1 .061-.865c.229-1.246 1.1-2.117 2.072-2.014a2.02 2.02 0 0 1 1.791 1.985 33 33 0 0 1 .155 3.463 23.5 23.5 0 0 0 4.66 13.459c5.712 7.77 15.751 9.471 22.859.048 6.567-8.706 6.034-22.717-1.055-31a18 18 0 0 0-4.931-3.93 11.47 11.47 0 0 0-12.346.536c-.813.513-1.542 1.165-2.369 1.659a2.21 2.21 0 0 1-2.911-.216 2.1 2.1 0 0 1 .42-2.853 15.7 15.7 0 0 1 7.225-4.092c7.244-1.846 13.133.684 17.874 6.063 4.811 5.457 6.683 12.046 6.7 19.723ZM34.211 51.941c.177-5.237 1.384-9.2 4.7-12.3 4.372-4.088 10.045-4.008 14.189.287 4.85 5.028 7 14.321 1.93 21.623-2.233 3.22-5.2 5.153-9.339 4.566a6 6 0 0 1-3.785-1.93 1.67 1.67 0 0 1-.278-2.127 1.87 1.87 0 0 1 2.2-.971 11 11 0 0 1 1.075.432c2.678 1.02 4.343.668 6.154-1.536a12.05 12.05 0 0 0 2.227-11.439 12.6 12.6 0 0 0-3.127-5.8c-2.594-2.582-5.486-2.749-8.216-.294-3.337 3-3.988 6.889-3.421 11.123.113.858.316 1.71.358 2.569a1.69 1.69 0 0 1-1.43 1.891 1.773 1.773 0 0 1-2.3-1.239c-.468-1.855-.736-3.763-.939-4.86Zm53.408.371a17.04 17.04 0 0 1 3-10.091 10.13 10.13 0 0 1 4.44-3.595 1.9 1.9 0 0 1 2.527.745c.687 1.007.226 1.826-.52 2.559a8 8 0 0 1-.678.539 12.84 12.84 0 0 0-3.243 16.112c2.052 3.682 5.679 3.979 8.077.51a13.58 13.58 0 0 0 1.336-13.492 7.3 7.3 0 0 1-.852-2.123 2.48 2.48 0 0 1 .791-1.933 2.34 2.34 0 0 1 2.088.106 4.7 4.7 0 0 1 1.565 2.014 17.7 17.7 0 0 1-1.8 18.1 8.4 8.4 0 0 1-5.663 3.727 8.14 8.14 0 0 1-8.109-3.395 15.45 15.45 0 0 1-2.962-9.787Zm-21.688 93.32c-7.315.219-14.144-1.768-20.617-4.915-6.234-3.03-12.343-6.341-18.406-9.7a35.6 35.6 0 0 1-5.218-4.076 4.46 4.46 0 0 1-1.2-1.6 1.89 1.89 0 0 1 .591-2.336 1.68 1.68 0 0 1 2.136-.071c.4.252.739.607 1.12.9 1.978 1.523 3.8 3.35 5.976 4.5 6.806 3.608 13.456 7.522 20.662 10.358a40.6 40.6 0 0 0 14.073 2.856c1.926.045 3.856 0 5.786.029 1.646.026 2.372.594 2.427 1.83s-.571 2.03-2.156 2.191c-1.71.171-3.45.039-5.179.039Zm75.69-83.123a54.3 54.3 0 0 0-1.768-16.041 61.4 61.4 0 0 0-10.095-20.039 24 24 0 0 0-2.036-2.052 12 12 0 0 1-1.51-1.73 1.864 1.864 0 0 1 .132-2.411 1.8 1.8 0 0 1 2.62-.158 26.5 26.5 0 0 1 4.111 4.043c6.244 8.4 10.7 17.587 12.085 28.113a94 94 0 0 1 .371 16.473 6.7 6.7 0 0 1-.529 2.233 1.811 1.811 0 0 1-3.54-.613c.006-1.639.106-3.279.148-4.921.023-.965 0-1.93 0-2.895ZM25.063 12.044c.536.384 1.317.655 1.5 1.146a3.02 3.02 0 0 1-.094 2.165 4.94 4.94 0 0 1-1.662 1.552c-6.9 4.918-11.5 11.61-14.721 19.3-1.781 4.26-3.314 8.629-4.8 13a47 47 0 0 0-1.223 5.628c-.039.187-.023.387-.055.574-.307 1.735-1.12 2.608-2.282 2.453-1.207-.161-1.768-1.029-1.723-2.881a14.5 14.5 0 0 1 .332-3.156c2.546-10.065 6.141-19.681 12.13-28.274a41.4 41.4 0 0 1 10.681-10.488 21 21 0 0 1 1.917-1.029Zm75.551 11.045c4.35-.168 7.877 2.21 10.984 5.45a4.2 4.2 0 0 1 .507.7 1.843 1.843 0 0 1-.339 2.594 1.726 1.726 0 0 1-2.381.052c-.92-.7-1.752-1.513-2.649-2.243a11.15 11.15 0 0 0-12.471-1.125 11 11 0 0 0-2.094 1.933 1.78 1.78 0 0 1-2.327.507 2.02 2.02 0 0 1-.975-2.485 5.5 5.5 0 0 1 2.736-3.227 18 18 0 0 1 9.006-2.152Zm-42.643 4.438c-.026 1.7-1.246 2.572-2.459 2.175a7 7 0 0 1-1.5-.845c-5.121-3.24-11.272-3.188-16.412 1.755-.278.268-.51.7-.829.781a4.13 4.13 0 0 1-2.146.171 1.634 1.634 0 0 1-.829-2.21 4.7 4.7 0 0 1 1.191-1.926c6.625-6.173 14.853-6.147 21.259-1.92a8.5 8.5 0 0 1 1.726 2.02Zm-23.653 89.93c.026 1.755-1.094 2.746-2.285 2.262a8 8 0 0 1-2.572-1.781 65.8 65.8 0 0 1-9.216-12.191 20 20 0 0 1-1.475-2.478 1.95 1.95 0 0 1 .558-2.591 1.89 1.89 0 0 1 2.611.378 12.7 12.7 0 0 1 1.539 2.081 61.3 61.3 0 0 0 9.784 12.83 7.5 7.5 0 0 1 1.052 1.5Zm48.907 25.902c-.532-.035-1.133.1-1.468-.139a3.33 3.33 0 0 1-1.384-1.617 2.02 2.02 0 0 1 .849-1.655 9.6 9.6 0 0 1 2.465-.755l8.884-2.507c.552-.158 1.126-.549 1.639-.474a3.2 3.2 0 0 1 1.93.887 1.693 1.693 0 0 1-.378 2.34 4.3 4.3 0 0 1-1.181.82 38.2 38.2 0 0 1-11.355 3.1Zm61.446-61.782c-.833 3.633-1.636 7.27-2.523 10.891a4.6 4.6 0 0 1-1.01 1.714 1.81 1.81 0 0 1-2.54.571 1.96 1.96 0 0 1-.8-2.5c.691-2.185 1.381-4.379 1.917-6.605.358-1.484.384-3.046.678-4.55.265-1.349 1.1-2.072 2.049-1.994a2.69 2.69 0 0 1 2.229 2.473M41.64 6.223a6.5 6.5 0 0 1-1.455 1.5 52 52 0 0 1-5.14 2.507 3.5 3.5 0 0 1-1.946.184c-1.342-.271-2-2.039-.962-2.885a14.66 14.66 0 0 1 7.677-3.521c1.075-.116 1.849.787 1.83 2.217Z"/><path d="M53.811 86.379a13.8 13.8 0 0 1 3.4-6.88 1.537 1.537 0 0 1 2.1-.187 1.79 1.79 0 0 1 .91 2.2 50 50 0 0 1-2.972 5.841 2.13 2.13 0 0 1-1.968.594c-.645-.236-1.058-1.1-1.471-1.575Zm79.088 21.327a1.74 1.74 0 0 1-1.81-1.839 7.32 7.32 0 0 1 2.643-4.937 1.723 1.723 0 0 1 2.665 1.129c.4 1.494-1.484 5.024-2.959 5.537a4 4 0 0 1-.539.11M17.435 95.485c-.161 1.436-.494 2.3-1.649 2.507a1.8 1.8 0 0 1-2.12-1.1 27 27 0 0 1-1.187-3.24 1.89 1.89 0 0 1 1.187-2.343 1.806 1.806 0 0 1 2.491.791 23 23 0 0 1 1.281 3.379ZM48.978 4.603c-1.684 0-2.572-.632-2.762-1.672-.181-.991.429-1.868 1.684-2.281a16 16 0 0 1 2.488-.613 1.84 1.84 0 0 1 2.239 1.31 1.84 1.84 0 0 1-1.1 2.352 19 19 0 0 1-2.549.9Z"/></g></svg>