<svg xmlns="http://www.w3.org/2000/svg" width="155.037" height="150.183" viewBox="0 0 155.037 150.183"><path fill="#75757c" d="M106.842 57.384c-.726-2.252-1.252-4.547-2.782-6.422a7.34 7.34 0 0 0-6.709-2.469 10.14 10.14 0 0 0-6.4 3.517 17.2 17.2 0 0 0-2.772 4.208q-.262.15-.529.3a2.015 2.015 0 0 0 2.033 3.479c2.017-.875 4.021-1.8 6.067-2.611.378-.152.771-.3 1.168-.436a1.3 1.3 0 0 0 .323.381 3 3 0 0 0 1.049.649 5.5 5.5 0 0 0 1.155.1c.636.032 1.271.01 1.907.042a1.6 1.6 0 0 0 .658-.126 10 10 0 0 0 1.717 1.772 2.128 2.128 0 0 0 3.111-2.391Zm-41.356.552c-2.414-4.4-4.785-10.326-10.739-10.284a12.06 12.06 0 0 0-7.157 2.83c-1.891 1.471-4.331 4.13-2.966 6.657q-.53.81-1.039 1.62a2.11 2.11 0 0 0 .326 2.52 2.17 2.17 0 0 0 2.52.326c4.708-2.123 11.333-5.376 15.621-1.02 1.763 1.794 4.622-.487 3.434-2.649"/><path fill="#eac485" d="M65.199 55.229q7.837-7.653 15.922-15.054 6.994-6.389 14.169-12.572a1.828 1.828 0 0 0-.365-2.856c1.094-.839 2.172-1.7 3.272-2.523 1.507-1.136.207-3.608-1.523-2.6a276.6 276.6 0 0 0-39.755 28.61 13.3 13.3 0 0 1 8.28 7Z"/><path fill="#eac485" d="M144.162 66.446a1.009 1.009 0 0 0-1.426-1.426c-4.208 3.856-8.07 8.1-11.914 12.327a1.446 1.446 0 0 0-1.362-1.149q1.157-.958 2.314-1.92a1.384 1.384 0 0 0 .194-2.088q1.147-1.229 2.269-2.485a87 87 0 0 0 2.227-2.565 3.35 3.35 0 0 0 1.113-2.714.74.74 0 0 0-.707-.539 3.48 3.48 0 0 0-2.54 1.384c-.813.787-1.594 1.6-2.375 2.417q-1.21 1.268-2.394 2.559a1.44 1.44 0 0 0-.778.268c-.2.142-.4.294-.6.439a24 24 0 0 0 1.881-2.72 1.6 1.6 0 0 0-.284-2.017c1.633-1.362 3.259-2.736 4.892-4.1a1.46 1.46 0 0 0 .058-2.188l.084-.071c.984-.852 2.056-1.684 2.969-2.633a.4.4 0 0 0 .11-.006 2.35 2.35 0 0 0 .81-.481 1.11 1.11 0 0 0 .284-1.081 1.74 1.74 0 0 0-.31-.726 1.275 1.275 0 0 0-1.7-.445 24.3 24.3 0 0 0-3.692 2.782l-3.695 3.04a458 458 0 0 0-5 4.214q-2.73 1.757-5.412 3.579c.558-.574 1.12-1.142 1.675-1.72q2.149-2.246 4.343-4.443c.771-.768 1.542-1.536 2.3-2.32a3.74 3.74 0 0 0 1.417-2.44.56.56 0 0 0-.252-.478c1.468-1.381 2.917-2.785 4.3-4.247.649-.684-.194-1.894-1.039-1.349q-.483.316-.962.642a1.776 1.776 0 0 0-2.4-.92 129 129 0 0 0-12.779 7.932c-1.92 1.3-3.811 2.64-5.689 4l.313-.313q7.285-7.309 14.586-14.6a1.5 1.5 0 0 0 .349-.523c.865-.733 1.733-1.462 2.594-2.2 1.588-1.352-.536-4.163-2.252-2.917-2 1.449-3.976 2.924-5.957 4.4q.731-.644 1.465-1.294a1.412 1.412 0 0 0 .015-2.213q1.752-1.689 3.5-3.382a1.768 1.768 0 0 0-2.133-2.765c-5.213 3.047-10.257 6.347-15.158 9.847 3.475-3.343 6.935-6.709 10.4-10.062a1.41 1.41 0 0 0 .471-1.294 1.813 1.813 0 0 0-.329-2.423l1.552-1.217c1.62-1.268-.51-4.043-2.21-2.865a359 359 0 0 0-5.859 4.161 1.316 1.316 0 0 0-2.036-1.02 256 256 0 0 0-20.688 15.005q.397-.369.794-.733 7.28-6.66 14.621-13.25a1.86 1.86 0 0 0 .5-2.046q1.8-1.694 3.592-3.385c1.875-1.759-.845-4.289-2.762-2.762q-7.067 5.639-14.118 11.3 1.559-1.438 3.095-2.895c1.791-1.707 4.195-3.469 5.37-5.679.39-.733-.284-1.959-1.21-1.572-2.3.958-4.2 3.03-6.07 4.631-2.039 1.749-4.03 3.553-6.041 5.334-3.953 3.508-7.9 7.028-11.785 10.613q-4.724 4.361-9.39 8.793c.1.2.2.4.294.61a3.162 3.162 0 0 1-4.927 3.827c-.378.368-.765.726-1.142 1.094a2 2 0 0 0 0-.171c.339-.339.684-.671 1.023-1.01-2.9-2.34-7.874-1.523-10.384.962a2.87 2.87 0 0 1-2.54.871c-1.672 2.336-6.276.61-5.57-2.869a16 16 0 0 1 .752-2.562c-.452.452-.916.891-1.365 1.342a1.78 1.78 0 0 0-.713-1.265c1.255-1.123 2.53-2.227 3.8-3.33a12.1 12.1 0 0 1 4.76-4.043q5.726-4.768 11.659-9.277-4.981 4.221-9.8 8.609a11 11 0 0 1 1.617-.313 11.3 11.3 0 0 1 3.408.132c6.154-5.56 12.52-10.891 18.945-16.093 5.16-4.176 10.374-8.277 15.592-12.382 1.326-1.042-.378-3.143-1.781-2.307-.458.274-.907.561-1.365.836.82-1.362-.645-3.433-2.243-2.378q-11.5 7.565-22.537 15.8c1.329-1.123 2.656-2.246 4-3.353 4.185-3.45 8.429-6.825 12.772-10.071 1.542-1.152.2-3.679-1.549-2.653q-8.6 5.024-16.925 10.487 5.2-3.829 10.549-7.467c1.7-1.175.1-3.972-1.636-2.8q-2.895 1.96-5.75 3.979l-24.484 16.94q5.683-4.792 11.62-9.271 4.593-3.291 9.155-6.625c1.762-1.291.09-4.266-1.739-2.978a290 290 0 0 0-7.019 5.118c-8.538 6.277-16.999 12.656-25.492 18.984a1.482 1.482 0 0 0 .11 2.42 317 317 0 0 0-5.861 5.673c-1.242 1.242.4 3.556 1.93 2.5q3.756-2.59 7.506-5.182-5.082 4.666-9.968 9.545c-1.578 1.584.774 3.863 2.43 2.43q3.863-3.345 7.812-6.586c-.42.474-.858.933-1.275 1.41a144 144 0 0 0-4.053 4.85 30.3 30.3 0 0 0-3.73 5.17 3.9 3.9 0 0 0-.29 2.859q-3.224 4.26-6.438 8.525a3.2 3.2 0 0 1 .758 1.891c.055.781.094 1.581.139 2.372q1.622-1.549 3.272-3.059a1.5 1.5 0 0 0 1.684-.429 326 326 0 0 1 6.218-6.438q1.409-1.162 2.843-2.3c.374-.184.745-.368 1.117-.539l.129-.061q-7.357 9.139-14.724 18.271c.245 1.733.513 3.462.736 5.2q2.919-2.493 5.837-4.982l-5.608 6.973c.132 1.3.223 2.614.239 3.93a1.66 1.66 0 0 0 1.359-.49l6.98-6.46-2.575 3.4c-1.046 1.381 1.046 3.485 2.427 2.427l8.761-6.718q-6.438 7.9-12.111 16.386c.145.187.287.381.432.568h.006l.019.035a77 77 0 0 1 1.952 2.665q2.125-1.917 4.269-3.814a1.7 1.7 0 0 0 .284.555l-3.746 4.427q1.046 1.53 2.049 3.085l.316-.368a1.7 1.7 0 0 0-.106.7q.523.813 1.042 1.626a1.8 1.8 0 0 0 .526.2q-.115.128-.236.255c.652 1.026 1.3 2.056 1.959 3.082.045-.013.087-.019.132-.029a195 195 0 0 1 19.039-17.538q-7.987 9.492-15.97 18.987.29.369.581.733a3 3 0 0 1 .671.413 17 17 0 0 1 1.552 1.513l.345-.365a1.52 1.52 0 0 0 1.6-.494 130 130 0 0 1 10.171-9.92 1.91 1.91 0 0 0 2.4.736q-1.868 2.415-3.708 4.86a1.692 1.692 0 0 0 .733 2.517c-1.794 2.2-3.63 4.369-5.492 6.518q.238.267.471.536a2.82 2.82 0 0 1 4.014.268c1.087 1.2 2.01 2.53 3.169 3.611q.513-.47 1.029-.939a1.84 1.84 0 0 0 .652 1.116 1.75 1.75 0 0 0 2.256-.136q4.492-3.519 8.919-7.128-4.008 4.3-8.012 8.6c-1.281 1.378.455 3.982 2.117 2.746q5.349-3.988 10.7-7.974c-.371.371-.749.732-1.117 1.107q-4.9 5-9.471 10.307c-1.439 1.681.858 4.066 2.459 2.459q11.745-11.779 24.383-22.615-7.377 7.382-14.753 14.76c-1.565 1.568.752 3.785 2.4 2.4l3.007-2.533a1.734 1.734 0 0 0 2.565.284c8.342-7.409 16.722-14.834 25.534-21.685a1.9 1.9 0 0 0 .652.339q-10.775 10.562-21.549 21.12c-1.578 1.546.758 3.8 2.4 2.4q1.442-1.234 2.888-2.465a2 2 0 0 0 .816-.426c.636-.542 1.265-1.087 1.9-1.63-.665 1.375 1.023 3.333 2.478 2.281q2.009-1.452 3.972-2.966a1.572 1.572 0 0 0 2.375.658q4.095-2.7 8.045-5.612a1.615 1.615 0 0 0 2.207-.161q2.967-2.778 5.925-5.563a71 71 0 0 0 6.973-6.547l1.123-1.055q1.907-1.747 3.772-3.54a1.57 1.57 0 0 0 .513-1.4 113 113 0 0 0 12.211-16.438c.7-1.178-.794-2.943-2.01-2.01-2.223 1.7-4.46 3.353-6.664 5.044.594-.862 1.181-1.726 1.746-2.6.752-1.175-.774-2.782-1.962-1.962l-.558.387c2.152-2.314 4.3-4.637 6.46-6.941 1.152-1.229-.348-3.414-1.865-2.417a101 101 0 0 0-4.637 3.246q.886-1.3 1.746-2.607c4.156-4.418 8.358-8.842 12.1-13.618ZM40.268 46.568a1.29 1.29 0 0 0-.136-1.759q7.517-5.779 15.3-11.207-8.7 7.449-16.986 15.389.91-1.215 1.823-2.427Zm-8.477 60.7q-.7.721-1.391 1.452 2.193-2.444 4.447-4.834-1.508 1.712-3.056 3.383Zm1.968-12.5q2.836-3.693 5.831-7.257a2.2 2.2 0 0 0 .826 1.659q-3.35 2.774-6.657 5.6ZM50.923 74.19c-.394.413-.778.833-1.168 1.249a2 2 0 0 0-.126-.581l1.762-1.42q-.232.374-.468.749Zm-6.464-3.711c-1.313 1.359-2.611 2.733-3.911 4.1a1.56 1.56 0 0 0-.523-1.039q7.691-7.367 15.67-14.424-5.682 5.613-11.235 11.36Zm26.632 6.619q-1.52.992-3.04 1.988 3.926-3.408 7.854-6.806c-1.612 1.597-3.21 3.211-4.814 4.818m22.976-14.9c-1.036.665-2.065 1.336-3.1 2q3.766-3.243 7.638-6.354a4.55 4.55 0 0 0-3.372.749 2.54 2.54 0 0 1-2.694.336c-.042.09-.09.177-.126.274-1.384 3.456-6.722 2.291-6.276-.9L75.65 67.374q4.4-4.158 8.945-8.167.194-.148.387-.307.622-.49 1.246-.975a3 3 0 0 1 .113-.394c1.607-4.011 4.673-7.386 9.081-8.222a9.43 9.43 0 0 1 9.41 3.717c.8-.6 1.6-1.21 2.41-1.8.491-.358.991-.7 1.481-1.055q-1.757 1.684-3.514 3.379a12 12 0 0 1 .758 1.275c1.284 2.523-1.578 6.354-4.308 4.308a7 7 0 0 0-1.413-.813q-1.67 1.607-3.343 3.214l-1.22.984a1.137 1.137 0 0 0-1.617-.316Zm14.327 6.267q-5.678 5.818-11.294 11.7a1.91 1.91 0 0 0-1.8-.945q6.341-5.629 13.1-10.758Zm-6.935 16.786q-2.657 1.665-5.231 3.443a139 139 0 0 1 1.562-1.6c3.443-2.727 6.964-5.353 10.529-7.922-.165.165-.332.326-.494.494a.7.7 0 0 0-.184.387q-3.1 2.594-6.183 5.2Zm8.525 8.238q-1.2 1.124-2.4 2.252a1.33 1.33 0 0 0-1.055.01 2.3 2.3 0 0 0-.265-.319l10.775-8.934q1.317-1.089 2.63-2.181a.6.6 0 0 0 .1-.055c.09-.077.174-.165.265-.245l1.136-.942c-.6.571-1.2 1.139-1.8 1.694q-4.7 4.351-9.387 8.722Zm6.815.245a1.62 1.62 0 0 0-1.075.032q1.215-1.549 2.472-3.049l3.282-3.137c.629-.6 1.275-1.207 1.923-1.81l-.042.048c-2.1 2.514-4.321 4.937-6.393 7.474a.75.75 0 0 0-.168.439Zm3.169 8.238a1.95 1.95 0 0 0-1.42-.423l1.578-1.546a116 116 0 0 1 4.382-3.672 333 333 0 0 1-2.975 3.753c-.513.636-1.042 1.262-1.565 1.891Zm11.31-5.557c-2.21 2.856-4.482 5.66-6.9 8.364a95 95 0 0 1-1.459 1.588 1.53 1.53 0 0 0-1.907-.2l.116-.142a133 133 0 0 1 5.031-5 146 146 0 0 1 5.115-4.608Z"/><g fill="#262c54"><path d="M43.744 123.216a7.5 7.5 0 0 0-.016-1.655c-1.081-4.021-.3-7.9 1.107-11.63a51 51 0 0 0 2.973-16.432 42 42 0 0 1 .733-6.886 11.16 11.16 0 0 1 4.23-6.735c4.085-3.133 8.945-1.449 10.055 3.559a37.4 37.4 0 0 1 .536 5.46c.068.929.013 1.868.013 2.8q.284.117.568.229c1.252-1.168 2.5-2.339 3.753-3.5 4.037-3.737 8.025-7.525 12.14-11.175a13.93 13.93 0 0 1 7.548-3.43c3.237-.423 6.741 1.475 7.735 4.372a23 23 0 0 1 .616 3.888c.584.035 1.217.094 1.852.107a32 32 0 0 1 3.472.052c4.15.536 7.464 4.195 5.86 9.035-.361 1.091-.916 2.117-1.471 3.379 3.066 1.068 5.521 2.827 5.55 6.418.029 3.359-2.072 5.7-4.492 8.07a5.96 5.96 0 0 1 1.568 5.844 8.58 8.58 0 0 1-3.895 5.57 71 71 0 0 1-8.706 4.527c-2.73 1.207-5.689 1.891-8.413 3.111a85 85 0 0 0-7.893 4.272 37.7 37.7 0 0 1-15.838 5.205c-5.279.449-10.074-1.142-13.543-5.563a36 36 0 0 0-2.494-2.817 1.84 1.84 0 0 0-1.191-.642c-1.723.158-2.933-.855-4.2-1.7-15.254-10.226-24.615-24.408-27.484-42.5s1.691-34.452 13.041-48.882a60.5 60.5 0 0 1 13.827-12.676 14.6 14.6 0 0 1 2.252-1.3 1.79 1.79 0 0 1 2.3.687 1.85 1.85 0 0 1-.145 2.41 9 9 0 0 1-1.826 1.407 58.32 58.32 0 0 0-15.058 82.835 54.8 54.8 0 0 0 14.934 14.3Zm15.337-34.173.332-.035c-.161-1.433-.232-2.885-.51-4.3-.468-2.388-2.081-2.888-3.976-1.3a6.78 6.78 0 0 0-2.407 4.189c-.342 2.185-.461 4.4-.7 6.6-.381 3.543-.578 7.125-1.239 10.613a75 75 0 0 1-2.5 8.306 14.42 14.42 0 0 0 2.5 13.659c.862 1.146 2.123 1.991 3 3.13 2.559 3.317 6.244 3.817 9.89 3.543a30.2 30.2 0 0 0 13.359-4.424 69.6 69.6 0 0 1 15.2-7.044 58 58 0 0 0 8.435-3.795 6.34 6.34 0 0 0 3.43-3.759 2.92 2.92 0 0 0-.336-2.1c-.468-.765-1.291-.578-2.068-.207-1.3.626-2.646 1.181-3.979 1.749-1.423.6-2.83 1.249-4.285 1.762-1.5.529-2.607.171-3.027-.813-.442-1.042 0-2.12 1.336-2.836 1.016-.545 2.136-.9 3.179-1.4a89 89 0 0 0 8.251-4.159 11.1 11.1 0 0 0 3.44-3.785c1.194-2.03.126-3.746-2.214-3.637a14.2 14.2 0 0 0-4.443 1.1c-2.959 1.178-5.844 2.533-8.761 3.814a12 12 0 0 1-1.333.568 2 2 0 0 1-2.646-1.065 1.9 1.9 0 0 1 .981-2.449c.807-.516 1.736-.845 2.578-1.31 2.7-1.484 5.421-2.93 8.061-4.514a9.45 9.45 0 0 0 4.192-4.663c.9-2.362-.168-4-2.691-4.26a11.34 11.34 0 0 0-7.2 1.73c-2.385 1.455-4.666 3.075-7.012 4.589a7.9 7.9 0 0 1-2.275 1.194 1.739 1.739 0 0 1-1.991-2.511 5.5 5.5 0 0 1 1.52-1.7c1.2-.975 2.514-1.8 3.692-2.8a33 33 0 0 0 3.556-3.388 3.33 3.33 0 0 0 .642-4.021 2.95 2.95 0 0 0-3.572-1.252 12.5 12.5 0 0 0-4.666 2.1c-4.24 3.643-8.258 7.545-12.395 11.31a32 32 0 0 1-4.866 4.056c-2.869 1.717-5.444.442-6.1-2.794a36 36 0 0 1-.381-3.708ZM75.416.003c15.121.31 29.326 2.978 42.582 9.726a58.9 58.9 0 0 1 17.093 12.724 17.5 17.5 0 0 1 1.582 2.057 1.485 1.485 0 0 1-.265 2.094 3.03 3.03 0 0 1-2.1.449 3.34 3.34 0 0 1-1.584-1.168c-8.806-9.723-20.055-15.163-32.482-18.522a93.8 93.8 0 0 0-19.975-3.03 88.2 88.2 0 0 0-34.131 4.853 61.6 61.6 0 0 0-11.956 5.8 9.7 9.7 0 0 1-2.049 1.046 1.876 1.876 0 0 1-2.265-.836 1.714 1.714 0 0 1 .4-2.34 11.2 11.2 0 0 1 1.865-1.362 71.5 71.5 0 0 1 22.711-9.139A108 108 0 0 1 75.416 0Z"/><path d="M142.081 77.311c-1.239 4.947-2.269 9.958-3.759 14.828-4.008 13.095-11.6 23.853-21.988 32.685-6.393 5.437-14.008 8.442-21.982 10.62-2.6.71-5.282 1.094-7.928 1.61a6 6 0 0 1-1.439.116 2.167 2.167 0 0 1-2.246-1.83c-.074-.984.639-1.8 1.968-2.117 1.033-.242 2.094-.349 3.137-.542 12.052-2.233 22.866-6.854 31.372-16.054a69.1 69.1 0 0 0 17.354-33.489c.429-2.075.749-4.172 1.11-6.26a10 10 0 0 1 .155-1.146c.265-.878.729-1.6 1.778-1.623a1.985 1.985 0 0 1 2.056 1.681 7 7 0 0 1 .1 1.439l.316.087ZM44.618 60.475a70 70 0 0 1 7.754-3.4 10.28 10.28 0 0 1 9.155 1.278 9 9 0 0 1 1.881 1.765 1.67 1.67 0 0 1-.052 2.365 1.96 1.96 0 0 1-2.378.461 5.8 5.8 0 0 1-1.191-.81 7.29 7.29 0 0 0-7.144-.949 12 12 0 0 0-6.331 4.347c-1.642 2.3-4.266 2.036-5.208-.733a15.05 15.05 0 0 1-.687-5.967c.555-6.457 4.079-11.343 10.065-13.153A14.77 14.77 0 0 1 66.907 51.9a17.33 17.33 0 0 1 2.427 11.672c-.168 1.475-1.052 2.362-2.114 2.32s-1.839-1-1.891-2.485c-.045-1.349.084-2.711-.032-4.05a11.22 11.22 0 0 0-8.18-9.807 9.67 9.67 0 0 0-11.781 5.889 10 10 0 0 0-.716 5.031Zm61.013-2.045a14.04 14.04 0 0 0-2.653-6.008 6.34 6.34 0 0 0-8.132-1.484c-4.2 2.165-6.36 5.757-6.938 10.362-.107.858-.01 1.739-.09 2.6a1.983 1.983 0 0 1-1.762 1.985 1.9 1.9 0 0 1-2.117-1.9 23.7 23.7 0 0 1 .545-6.286 15.98 15.98 0 0 1 7.515-9.9c5-2.9 12.159-2.733 15.728 4.418a34.3 34.3 0 0 1 3.133 11.072 4.04 4.04 0 0 1-.339 1.962 1.879 1.879 0 0 1-3.269.587 11 11 0 0 1-.839-1.175 9.94 9.94 0 0 0-13.366-2.665 14 14 0 0 1-1.22.778c-.955.432-1.933.5-2.575-.487a2.07 2.07 0 0 1 .265-2.662 5.8 5.8 0 0 1 1.129-.9c3.969-2.653 8.158-3.327 12.627-1.349.678.3 1.355.6 2.359 1.042ZM78.43 150.18a82.3 82.3 0 0 1-35.086-7.609 89 89 0 0 1-9.413-5.641 5.7 5.7 0 0 1-1.981-2.062 2.32 2.32 0 0 1 .148-2.094 2.78 2.78 0 0 1 2.033-.568 2.9 2.9 0 0 1 1.478.842c5.95 5.086 13.069 7.8 20.436 9.913a76.1 76.1 0 0 0 25.183 3.088c3.166-.168 6.312-.713 9.468-1.071a19 19 0 0 1 2.3-.174 1.493 1.493 0 0 1 1.584 1.394 2.76 2.76 0 0 1-.791 1.946 5.2 5.2 0 0 1-2.133.787 50.2 50.2 0 0 1-13.23 1.246Zm61.643-85.807c0 .481.029.965-.006 1.446a1.775 1.775 0 0 1-1.523 1.836 1.983 1.983 0 0 1-2.262-1.388 2.6 2.6 0 0 1-.19-.839c-.4-6.531-3.078-12.288-6.163-17.88a55 55 0 0 0-7.712-10.807 25.1 25.1 0 0 0-7.157-5.789 6 6 0 0 1-1.217-.768 1.687 1.687 0 0 1-.51-2.307 1.86 1.86 0 0 1 2.175-1.029 10.8 10.8 0 0 1 2.123.9c3.617 1.82 6.367 4.682 8.909 7.716a63.6 63.6 0 0 1 12.136 21.856c.72 2.281 1.11 4.669 1.652 7.006q-.125.025-.248.052ZM77.759 11.12c2.859.3 5.731.578 8.6.9a4.7 4.7 0 0 1 1.646.449 1.68 1.68 0 0 1 .955 2.168 3.24 3.24 0 0 1-1.607 1.381 3.14 3.14 0 0 1-1.71-.01c-6.948-1.281-13.821-.494-20.665.755-2.93.536-5.9 1-8.548 2.514a3.2 3.2 0 0 1-1.094.339 1.869 1.869 0 0 1-1.633-3.295 10.2 10.2 0 0 1 3.017-1.646c3.433-.916 6.886-1.823 10.384-2.407s7.073-.781 10.662-1.149ZM4.734 99.825c.323-.387.72-1.271 1.359-1.517a2.36 2.36 0 0 1 1.968.642 6.9 6.9 0 0 1 1.236 2.239 64.3 64.3 0 0 0 8.993 15.734c1.513 1.862 3.22 3.566 4.827 5.353.707.787 1.41 1.575 2.059 2.407a1.71 1.71 0 0 1-.152 2.365 1.754 1.754 0 0 1-2.359.319 6.2 6.2 0 0 1-1.12-.9 64.2 64.2 0 0 1-16.214-24.27 11 11 0 0 1-.387-1.084c-.077-.274-.1-.568-.213-1.291Zm140.806 11.587a25 25 0 0 1-.978 2.411 44.8 44.8 0 0 1-8.506 11.585c-1.307 1.278-2.611 2.562-3.934 3.827a4.7 4.7 0 0 1-1.129.881 2.035 2.035 0 0 1-2.636-.361 1.87 1.87 0 0 1 .168-2.62 22 22 0 0 1 1.81-1.862c4.647-4.266 8.758-8.932 11.255-14.828a2.07 2.07 0 0 1 2.469-1.5c.936.194 1.542 1.113 1.484 2.465Zm7.764-51.749a12.4 12.4 0 0 1-.5 1.846 1.846 1.846 0 0 1-3.621-.449c-.081-.855-.016-1.723-.132-2.572a35.1 35.1 0 0 0-4.343-13.062 25.4 25.4 0 0 1-1.714-3.333 1.756 1.756 0 0 1 .694-2.285 1.91 1.91 0 0 1 2.4.252 4.2 4.2 0 0 1 .942 1.078 43.7 43.7 0 0 1 6.231 17.554c.023.19.023.384.052.971ZM.294 80.302c0-1.155-.058-2.314.016-3.462a1.853 1.853 0 0 1 1.872-1.846c1.139-.064 1.736.726 1.972 1.746a12 12 0 0 1 .129 1.72q.286 3.442.578 6.877c.016.19.058.381.071.574.126 1.61-.39 2.511-1.526 2.662a2.18 2.18 0 0 1-2.423-1.988c-.442-2.059-.665-4.166-.981-6.251l.29-.029Zm103.783-58.169c-.878-.255-1.446-.371-1.972-.584q-2.8-1.133-5.583-2.336a3.8 3.8 0 0 1-1.194-.781 1.764 1.764 0 0 1-.287-2.365c.4-.516 1.433-1.1 1.9-.916 2.765 1.071 5.473 2.3 8.141 3.6a1.394 1.394 0 0 1 .468 2.033 7 7 0 0 1-1.471 1.346Zm46.341 54.548c.219-2.152.339-4.079.655-5.97a2.02 2.02 0 0 1 1.165-1.417 2.31 2.31 0 0 1 2 .536 5.65 5.65 0 0 1 .8 2.933 23 23 0 0 1-.636 4.279c-.352 1.7-1.233 2.491-2.423 2.339s-1.636-.994-1.565-2.7Z"/></g></svg>