<svg xmlns="http://www.w3.org/2000/svg" width="124.049" height="136.295" viewBox="0 0 124.049 136.295"><path fill="#75757c" d="M82.702 82.841c-1.394-6.292-9.545 1.068-2.749 2.7-.152-.019-.3-.042-.455-.061a2.6 2.6 0 0 0 3.069-1.93l-.023.055a1.85 1.85 0 0 0 .158-.771Zm-36.58-.365c-.265-3.395-6.057-2.972-5.305.542v-.019c.545 4.227 5.6 3.54 5.308-.523Z"/><path fill="#eb8486" d="M85.645 47.68c-3.059 3.32-5.382 7.493-7.667 11.365-1.133 1.92-2.23 3.879-3.224 5.876-.52 1.046-1.046 2.094-1.494 3.172a4.55 4.55 0 0 0-.591 3 .747.747 0 0 0 .907.516c1.765-.674 2.665-3.285 3.537-4.824.349-.616.694-1.236 1.039-1.852a.6.6 0 0 0 1.036-.01c1.368-2.275 2.772-4.531 4.085-6.841.632-1.113 1.262-2.236 1.823-3.388a14.3 14.3 0 0 0 1.526-3.734.7.7 0 0 0-.036-.336c.294-.516.578-1.039.839-1.571.539-1.094-.858-2.372-1.778-1.371Zm-3.275-3.598c-1.907.555-3.053 2.8-4.156 4.324-1.362 1.872-2.727 3.74-4.069 5.624a85 85 0 0 0-7.312 11.494c-.326.658.494 1.381 1.055.813a84 84 0 0 0 8.387-10.578c1.3-1.83 2.575-3.669 3.853-5.508 1.117-1.6 3.046-3.569 2.943-5.637a.56.56 0 0 0-.7-.532Z"/><path fill="#eb8486" d="M85.99 44.821a1.44 1.44 0 0 0-1.552.084.545.545 0 0 0 0 .9 55 55 0 0 0-3.007 5.179c-1.21 2.2-2.391 4.424-3.6 6.628-2.31 4.214-5.15 8.364-6.886 12.859-.229.594.616.994 1.023.594 3.424-3.359 5.9-7.925 8.251-12.059 1.21-2.12 2.369-4.276 3.424-6.476a30.2 30.2 0 0 0 2.707-6.851.78.78 0 0 0-.352-.865Zm3.111 14.45a.6.6 0 0 0-.887-.51 2.1 2.1 0 0 0-.587.355 4 4 0 0 0-.5.594c-.242.339-.458.707-.678 1.058-.474.758-.891 1.562-1.326 2.343a19.4 19.4 0 0 0-2.13 4.986.669.669 0 0 0 1.11.645 19.2 19.2 0 0 0 3.011-4.466c.416-.794.871-1.578 1.242-2.394.174-.384.352-.765.52-1.152a3.4 3.4 0 0 0 .242-.749 2.2 2.2 0 0 0-.013-.71Zm-.432-8.4a7.5 7.5 0 0 0-.971.555 12 12 0 0 0-.784.723 18 18 0 0 0-1.542 1.836 46 46 0 0 0-2.73 3.892q-1.215 1.931-2.259 3.959c-.71 1.388-1.749 3.027-1.82 4.614a1.2 1.2 0 0 0 .529 1.01 12.3 12.3 0 0 0-.745 2.875.646.646 0 0 0 1.094.452 19.6 19.6 0 0 0 2.391-3.55c.707-1.233 1.359-2.491 2.036-3.74s1.375-2.488 2.062-3.73a18.6 18.6 0 0 0 1.93-3.9.76.76 0 0 0-.187-.82c.316-.468.642-.933.929-1.42.2-.339.41-.691.581-1.046s.2-.7.329-1.052c.177-.478-.439-.894-.842-.649Z"/><path fill="#eb8486" d="m87.259 43.814.023-.042a.916.916 0 0 0-1.584-.916c0-.006-.01-.013-.013-.019-.423.587-.826 1.187-1.233 1.784-.607.62-1.3 1.191-1.833 1.73a.545.545 0 0 0 .129.868c-1.281 2.023-2.517 4.076-3.772 6.115q-1.6 2.6-3.2 5.205a39.4 39.4 0 0 0-3.066 5.363c-.336.807.378 1.423 1.11 1.468a11 11 0 0 0-1.468 4.327.957.957 0 0 0 1.617.668c1.633-1.559 2.427-4.095 3.443-6.083 1.1-2.143 2.246-4.26 3.4-6.37 2.317-4.224 4.75-8.383 7.044-12.62a.993.993 0 0 0-.6-1.481Zm-7.068-.835c-.507.639-1 1.281-1.5 1.926q1.186-1.631 2.4-3.23l-.023-.013c.436-.926-.749-2.036-1.475-1.142-2.817 3.462-5.605 7.015-8.248 10.671 1.875-3.546 3.7-7.112 5.405-10.726a1.066 1.066 0 0 0-.59-1.494c.152-.268.313-.529.461-.8.42-.742-.668-1.675-1.229-.949-.2.261-.4.529-.6.791a.8.8 0 0 0-1.213-.529c-.058.042-.11.087-.168.132l-.01.006A100 100 0 0 0 61.113 48.8c.839-1.123 1.681-2.246 2.491-3.388 1.055-1.488 2.11-2.975 3.133-4.482a75 75 0 0 0 1.5-2.278c.439-.694.984-1.371.72-2.22a.815.815 0 0 0-.778-.591c-.891.074-1.271.665-1.768 1.349a76 76 0 0 0-1.568 2.243 287 287 0 0 0-3.088 4.708c-.436.674-.845 1.362-1.268 2.043q-5.082 6.254-10.526 12.178c4.634-6.9 9.526-13.608 14.482-20.307.642-.868-.82-2.007-1.507-1.162-3.1 3.808-6.412 7.461-9.665 11.146q1.96-2.909 3.914-5.821a.942.942 0 0 0-.352-1.436q.116-.136.232-.278a1.137 1.137 0 0 0-1.607-1.607 221 221 0 0 0-8.493 8.619 92 92 0 0 1 4.744-5.66c1.055-1.158-.632-2.872-1.73-1.73-.21.216-.416.439-.626.655.419-.471.82-.958 1.249-1.423 1-1.094-.574-2.691-1.633-1.633-.51.51-1.029 1.007-1.546 1.507-.09-1.007-1.333-1.83-2.117-.858q-4.114 5.107-8.229 10.21a1.202 1.202 0 0 0 1.7 1.7l.023-.023a138 138 0 0 0-4.034 5.876 1.167 1.167 0 0 0 1.826 1.407c.733-.765 1.468-1.523 2.2-2.285a94 94 0 0 0-2.485 4.4c-.587 1.113.965 2.507 1.843 1.42 1.21-1.5 2.452-2.972 3.7-4.437a95 95 0 0 0-5.6 9.055 1.134 1.134 0 0 0 1.955 1.146c.9-1.278 1.826-2.543 2.756-3.8a1.148 1.148 0 0 0 1.878.407q2.59-3 5.144-6.031-2.957 4.526-5.776 9.122a1.041 1.041 0 0 0 1.63 1.255q2.7-2.711 5.3-5.524c-1.7 2.369-3.385 4.756-4.96 7.206-.745 1.158 1.062 2.175 1.83 1.068a149 149 0 0 0 3.443-4.766 208 208 0 0 1 7.583-9.523 85 85 0 0 0-4.64 8.238c-.529 1.075.945 2.465 1.788 1.381l8-10.31-3.078 4.944c-.687 1.1-1.336 2.223-1.985 3.346q-.16.248-.323.49a1.2 1.2 0 0 0-.155.339c-.691 1.2-1.384 2.4-2.114 3.585-.652 1.055 1.01 2.023 1.662.971a110 110 0 0 1 2.043-3.159 1.24 1.24 0 0 0 .684-.494l6.6-9.339q-1.752 3.33-3.479 6.654a1.216 1.216 0 0 0 .739 1.814c-.152.284-.313.565-.461.852a1.257 1.257 0 0 0 2.168 1.268c1.249-1.933 2.459-3.843 3.814-5.712.636-.874 1.284-1.739 1.926-2.611q-2.406 4.322-4.543 8.78a1.171 1.171 0 0 0 1.83 1.413c.687-.681 1.194-1.52 1.814-2.262.568-.684 1.146-1.355 1.681-2.068a32.3 32.3 0 0 0 3.014-4.9c.326-.649-.61-1.21-.978-.571q-.784 1.36-1.694 2.636 4.865-8.863 10.475-17.293c.649-.981-.9-2.22-1.652-1.275Z"/><path fill="#d9dbeb" d="m104.958 31.552-.968 1.01c.394-.671.8-1.329 1.191-2 .539-.939-.791-2.056-1.542-1.191a319 319 0 0 1-3.575 4.034c.294-.51.6-1.01.881-1.526a.923.923 0 0 0-1.081-1.339 274 274 0 0 0 2.569-3.966c.765-1.213-1.094-2.72-2.027-1.565-1.53 1.9-3.046 3.8-4.569 5.708q2.933-4.56 5.821-9.145a1.207 1.207 0 0 0-1.058-1.881 1.1 1.1 0 0 0-.174-1.213c.261-.426.549-.849.781-1.294a1.84 1.84 0 0 0 .232-1.739.86.86 0 0 0-.749-.429c-1.065-.045-1.81 1.41-2.362 2.152-.035.048-.068.1-.1.142-.023-.029-.055-.045-.081-.074.142-.236.287-.468.41-.713a1.19 1.19 0 0 0-.3-1.52 1.25 1.25 0 0 0-1.152-.171 3.4 3.4 0 0 0 .452-1.346.872.872 0 0 0-1.3-.745 3.1 3.1 0 0 0-.942.916c-.255.332-.516.665-.762 1.007q-.692.966-1.362 1.943c-.884 1.3-1.684 2.646-2.565 3.947a.5.5 0 0 0-.055.126 48 48 0 0 0-1 1.123 271 271 0 0 0 3.746-5.847 1.3 1.3 0 0 0-2.033-1.568q-2.725 2.861-5.266 5.883c.526-.887 1.055-1.772 1.575-2.659a1.29 1.29 0 0 0-.81-1.8q1.215-1.641 2.423-3.288c.768-1.049-.9-2.272-1.778-1.371l-.729.733a1.22 1.22 0 0 0-1.339-.452l.058-.136a5.4 5.4 0 0 0 .684-2.949.8.8 0 0 0-1.158-.471 6.1 6.1 0 0 0-1.668 2.517c-.429.842-.858 1.681-1.281 2.527-.794 1.578-1.42 3.22-2.159 4.821-1.146 1.4-2.281 2.8-3.424 4.2 1.949-3.1 3.892-6.192 5.67-9.4a1.115 1.115 0 0 0-.278-1.488q.484-.818.942-1.649a12.4 12.4 0 0 0 1.349-3.162.938.938 0 0 0-1.555-.907 15.5 15.5 0 0 0-1.943 2.811l-.255.423c-.119.158-.232.319-.349.478a.7.7 0 0 0-.336.226c-7.254 9.051-13.495 18.919-20.02 28.5-.884 1.3 1.155 2.4 2.065 1.207q2.556-3.359 5.118-6.715c-1.081 1.965-2.1 3.959-2.982 6-.645 1.488 1.407 2.807 2.239 1.31.2-.368.429-.723.639-1.087a1.12 1.12 0 0 0 .787-.413q.046-.059.094-.113c-.052.087-.11.174-.161.261-.858 1.42 1.236 2.546 2.175 1.271 1.439-1.949 2.759-4.014 4.3-5.886a155 155 0 0 1 2.84-3.337q-2.159 3.863-4.111 7.8c-.642 1.294 1.226 2.42 1.952 1.142q1.936-3.214 3.892-6.422a49 49 0 0 1 2.975-4.04l-2.57 3.902c-1.368 2.094-2.9 4.153-4.085 6.354a1.175 1.175 0 0 0 1.843 1.417l.023.023a34 34 0 0 0 1.3-1.7q1.336-1.752 2.672-3.5a.43.43 0 0 0 .055-.481l.248-.365q2.086-3.016 4.176-6.028c.92-1.329 1.82-2.678 2.724-4.024a.6.6 0 0 0 .971.245c.116-.129.242-.248.361-.378-3.427 4.715-6.731 9.526-10.042 14.311-.839 1.21 1.142 2.772 2.062 1.591q.13-.164.255-.329a1.135 1.135 0 0 0 1.291 1.336c-.21.316-.423.629-.629.945-.8 1.229.923 2.33 1.891 1.475-.849 1.333-1.7 2.662-2.54 4-.791 1.262 1.133 2.827 2.107 1.626a180 180 0 0 0 2.972-3.785c-.61 1.194 1.191 2.569 2.11 1.459.071-.087.132-.177.2-.265l.026-.036c.513-.655.978-1.342 1.446-2.03a1.159 1.159 0 0 0 1.943.784l.016.016c.426-.516.833-1.046 1.223-1.581a58 58 0 0 1 2.217-2.607c-.052.084-.106.161-.158.245a1.273 1.273 0 0 0 1.991 1.536l3.149-3.266-.029.058a1.391 1.391 0 0 0 1.368 2 1.06 1.06 0 0 0 .813-.365l2.149-2.281a1.19 1.19 0 0 0-.1-1.788c.687-1.391 1.362-2.785 2.062-4.166.639-1.258-.965-2.662-2.023-1.562ZM75.591 8.47c-.1.1-.194.207-.294.307a1.13 1.13 0 0 0-1.439-.074c-.6.5-1.171 1.026-1.759 1.539a7 7 0 0 0 1.213-2.779.711.711 0 0 0-1.029-.791c-1.626.794-2.8 2.782-3.85 4.195-1.194 1.6-2.365 3.22-3.5 4.866a179 179 0 0 0-3.485 5.228c-.626.726-1.268 1.446-1.875 2.188.068-.113.129-.226.2-.339 1.365-2.256 2.84-4.443 4.159-6.722 1.355-2.346 2.736-4.666 4.23-6.928.7-1.062-.862-2.217-1.736-1.339a72 72 0 0 0-3.049 3.266c.858-1.5 1.736-2.995 2.678-4.453a.979.979 0 0 0-1.533-1.182 177 177 0 0 0-3.734 4.3c.168-.3.332-.6.507-.891a1.17 1.17 0 0 0-.51-1.591c.332-.452.671-.894.994-1.352a8.6 8.6 0 0 0 1.233-2.079 1.3 1.3 0 0 0 .145-.6c.006-.048.026-.09.032-.139l-.045.026a1.342 1.342 0 0 0-1.981-1.188 6.4 6.4 0 0 0-1.978 2.114c-.6.781-1.21 1.552-1.807 2.336-.187.245-.381.487-.568.733a1 1 0 0 0-.142-.094c.458-.6.923-1.2 1.355-1.82.526-.755 1.907-2.623.384-3.149-1.142-.394-2.1 1.317-2.659 2.052-.665.874-1.3 1.765-1.9 2.691-.571.894-1.075 1.83-1.63 2.733-.591.958-1.21 1.9-1.759 2.888a.66.66 0 0 0 .552.958 232 232 0 0 0-2.552 4.13q-.032.038-.065.081c.152-.365.3-.729.455-1.091 1.142-2.72 2.094-5.518 3.249-8.235.532-1.255-1.22-2.381-1.885-1.1q-.503.964-1 1.923a1.128 1.128 0 0 0-1.875.1q-2.551 4.172-4.8 8.5-3.364 6.128-6.457 12.385c1.772-5.06 3.882-10.01 6.018-14.928a1.3 1.3 0 0 0-2.043-1.546q1.131-2.513 2.288-5.013a1.328 1.328 0 0 0-2.291-1.339 217 217 0 0 0-2.52 4.269c.116-.326.242-.652.358-.978a1 1 0 0 0 .032-.578c.329-.8.649-1.6.929-2.41.371-1.065-1.1-1.465-1.675-.707a46 46 0 0 0-4.365 7.258 3 3 0 0 0 0-.891.685.685 0 0 0-.842-.478c-1.852.768-2.885 3.391-3.779 5.06-1.123 2.1-2.21 4.214-3.217 6.37q-.017.033-.032.071c.2-.668.374-1.342.549-2.02.913-1.891 1.814-3.788 2.623-5.731.013-.026.019-.055.032-.081.5-1.049 1-2.094 1.488-3.146.326-.7 1.8-3.269.755-3.943-.129-.529-.942-.845-1.313-.368A10.7 10.7 0 0 0 27.75 11.4c-.261.532-.526 1.065-.787 1.6a288 288 0 0 0-2.5 5.273q-1 2.154-1.926 4.324a77 77 0 0 0-2.456 3.84 65 65 0 0 0 2.049-7.28.7.7 0 0 0-1.268-.529l-.026-.016c-.226.461-.429.929-.639 1.4-.61 1.2-1.336 2.372-1.952 3.556-.5.962-.994 1.93-1.488 2.895a32 32 0 0 0 .907-3.937c.11-.7-.836-1.239-1.226-.516a56.5 56.5 0 0 0-3.126 7.722 76 76 0 0 0-2.7 8.109 1.136 1.136 0 0 0 2.188.6c.006-.026.019-.052.026-.077q.497-1.178.916-2.394c.378-.807.8-1.6 1.2-2.4l.758-1.507q-.207.586-.413 1.178a30.3 30.3 0 0 0-1.713 5.3 1.085 1.085 0 0 0 1.972.826c.006 0 .013.01.019.013a28 28 0 0 0 1.812-4.894q.188-.563.381-1.126a65 65 0 0 1 2.2-4.4c.161-.3.332-.6.5-.9-.081.242-.171.478-.248.723a.54.54 0 0 0 .384.7c-.019.048-.035.1-.055.148-1.326 3.54-2.74 7.09-3.763 10.729a1.247 1.247 0 0 0 .858 1.51 1.657 1.657 0 0 0 2.227-1.968.6.6 0 0 0-.165-.255c.242-.6.468-1.21.7-1.817a.8.8 0 0 0 1.071-.084c1.481-1.7 2.2-4.072 3.13-6.1a276 276 0 0 1 2.936-6.254l.91-1.859c-.426.965-.852 1.93-1.265 2.9q-.695 1.619-1.366 3.247a17.7 17.7 0 0 0-1.31 3.606 1.228 1.228 0 0 0 1.217 1.41 83 83 0 0 0-3.117 7.958c-.387 1.326 1.417 1.885 2.068.868l.016.013c.387-.745.733-1.517 1.065-2.3.226-.413.455-.816.684-1.223q-.958 2.686-1.878 5.386c-.561 1.659 2.049 2.362 2.614.72q2.188-6.332 4.947-12.462a70 70 0 0 0-2.32 10.171 1.304 1.304 0 0 0 2.514.694c.342-.839.7-1.672 1.046-2.507a1.14 1.14 0 0 0 1.62-.41l4.434-8.636c-.8 2.049-1.607 4.1-2.385 6.16-.5 1.329 1.71 2.275 2.31.975.378-.813.768-1.62 1.152-2.43a.975.975 0 0 0 1.423-.407c.413-.752.842-1.494 1.265-2.243a1.192 1.192 0 0 0 2.156.365l5.079-8.26q2.188-3.345 4.521-6.589-3.437 5.954-6.689 12.017a1.213 1.213 0 0 0 2.094 1.223 455 455 0 0 1 4.353-7.006 99 99 0 0 0-4.243 9.374c-.439 1.139 1.375 1.868 1.956.823a88.5 88.5 0 0 1 6.644-10.223.55.55 0 0 0 .423-.2c2.252-2.556 4.411-5.247 6.5-7.951.613-.639 1.229-1.275 1.859-1.9q-2.493 3.417-4.869 6.918c-.532.768-1.052 1.546-1.568 2.323q-1.089 1.641-2.159 3.3-1.568 2.449-3.108 4.918a.966.966 0 0 0 .145 1.268q-.963 1.544-1.92 3.095c-.745 1.213 1.162 2.323 1.9 1.113 3.188-5.186 6.638-10.229 10.194-15.17s7.348-9.707 10.875-14.657c.742-1.039-.871-2.22-1.739-1.342ZM26.803 38.986a.7.7 0 0 0-.084-.184c.384-1.013.765-2.023 1.158-3.017l.316-.6q-.706 1.894-1.39 3.801"/><path fill="#ba8b54" d="M101.976 58.761a1.04 1.04 0 0 0-1.036-.913 1.7 1.7 0 0 0-.71.213c-.09.052-.177.113-.265.171a5 5 0 0 0-.671.549c-.161.155-.3.332-.455.5a4 4 0 0 0 .355-.413.76.76 0 0 0-.116-.913.78.78 0 0 0-.913-.119 5.5 5.5 0 0 0-1.033.816.92.92 0 0 0-1.01.168 8.3 8.3 0 0 1-1.723 1.226 14 14 0 0 0 1.223-1.572c.513-.813-.468-1.494-1.158-1.129l-.01-.039a6.1 6.1 0 0 0-1.475 1.081q-.601.353-1.226.668c.023-.023.042-.052.065-.074a28 28 0 0 1 2.246-2.094c.678-.574-.184-1.53-.9-1.171a15 15 0 0 0-3.182 2.2 12.4 12.4 0 0 0-1.268 1.3 2.1 2.1 0 0 0-.7 1.943 1.37 1.37 0 0 0 1.665.945 2.2 2.2 0 0 0 .6-.281 4.4 4.4 0 0 0-.252.565 1.1 1.1 0 0 0 1.146 1.355c-.348.378-.691.758-1.013 1.152a1.22 1.22 0 0 0-.039 1.555 1.126 1.126 0 0 0 1.22 1.7 8.77 8.77 0 0 0 3.988-3.024.62.62 0 0 0 .09-.642 68 68 0 0 0 1.713-1.688v.006a.9.9 0 0 0 .552.62.92.92 0 0 0 .849-.048 2.3 2.3 0 0 0 .736-.662q.166-.253.323-.51c.157-.257.219-.361.339-.536.055-.077.107-.158.165-.236l.094-.129c0-.006.013-.016.019-.026s.006-.006.006-.01q.05-.064.1-.123.101-.121.207-.242.199-.23.413-.439c.214-.209.29-.278.426-.426l.213-.232a1.8 1.8 0 0 0 .381-.623.03.03 0 0 1-.016 0 1.1 1.1 0 0 0 .035-.416ZM34.34 61.103c-.184.11-.368.216-.552.326a1 1 0 0 1 .01-.09 1.05 1.05 0 0 0-.913-1.016c.581-1.084 1.155-2.165 1.668-3.285a1.009 1.009 0 0 0-1.743-1.016c-.326.455-.632.92-.936 1.388a54 54 0 0 1-.791.8q-1.031 1.021-2.114 1.981-.431.382-.878.736l.129-.242c.787-1.43 1.775-2.756 2.514-4.2.419-.82-.671-1.8-1.342-1.036a12.7 12.7 0 0 0-1.61 1.788c-.142.152-.294.294-.439.445.342-.529.687-1.055 1-1.6a.957.957 0 0 0-1.5-1.155c-.229.236-.468.458-.713.681a.648.648 0 0 0-1-.542 16.6 16.6 0 0 0-2.82 2.394 12.4 12.4 0 0 0-2.317 2.982c-.536 1.075.842 2.317 1.743 1.342q.745-.8 1.542-1.549a7.5 7.5 0 0 0-.662 2.13c-.11.852.82 1.175 1.478.91-.113.281-.229.558-.316.845a1.144 1.144 0 0 0 1.9 1.1 150 150 0 0 1 3.34-3.078 9 9 0 0 0-.471 1.188 1.073 1.073 0 0 0 1.31 1.31 8 8 0 0 0 .778-.313 1.334 1.334 0 0 0 1.329.962q-.023.233-.042.465a.907.907 0 0 0 1.359.778 4.6 4.6 0 0 0 1.539-1.707c.4-.678.807-1.352 1.213-2.03a1.248 1.248 0 0 0-1.694-1.694Zm32.511 40.169a31 31 0 0 0-2.194 2.117c-.119.094-.242.187-.358.281q-.87.705-1.746 1.41c.862-1.255 1.72-2.517 2.562-3.782.813-1.071-1.046-2.52-1.878-1.449q-.091.121-.187.242-.002.008-.01.016-1.263 1.636-2.511 3.288a20.6 20.6 0 0 1-2.233 2.2c-.239.2-.49.381-.736.568a77 77 0 0 1 4.224-5.221c.532-.581 1.071-1.155 1.581-1.762a1.171 1.171 0 0 0-1.655-1.655c-.384.342-.755.7-1.126 1.052.555-.8 1.1-1.6 1.6-2.423l-.029-.016c.529-1.113-.887-2.456-1.788-1.384-1.63 1.936-3.053 4.053-4.54 6.1q-.029.038-.058.081c-.094.094-.184.194-.277.287l-.116.1q2.207-2.972 4.343-5.989c.771-1.084-1.033-2.5-1.862-1.436a370 370 0 0 0-4.644 6.067l-2.239 3.011a35 35 0 0 0-2.31 3.175c-.752 1.288.9 2.356 1.949 1.5.29-.236.568-.487.852-.726-.029.048-.065.094-.094.142a1.348 1.348 0 0 0 1.023 1.93c-.223.365-.449.733-.665 1.1a1.371 1.371 0 0 0 1.862 1.862c.494-.277.975-.584 1.449-.9-.539 1.2 1.181 2.3 2.185 1.381.8-.736 1.6-1.481 2.4-2.223-.239.426-.471.852-.687 1.278-.636 1.258 1 2.733 2.049 1.581a57 57 0 0 0 1.4-1.6 1.09 1.09 0 0 0 1.768-.148 25.3 25.3 0 0 1 3.1-4.618 1.136 1.136 0 0 0-.487-1.9q.829-.977 1.662-1.949c.929-1.094-.536-2.62-1.6-1.6Z"/><path fill="#eac485" d="M106.972 81.356c-2.223 2.433-4.531 4.8-6.864 7.148a68 68 0 0 0 7.206-12.424c.461-1.068-.855-2.43-1.775-1.368-.226.261-.468.513-.7.774a1 1 0 0 0-1.284.116q-3.529 3.32-6.9 6.8 3.829-5.552 7.661-11.1a1.16 1.16 0 0 0-.216-1.536l1.168-1.5c1.029-1.323-.639-3.156-1.9-1.9q-5.615 5.615-11.226 11.236l5.554-6.534c.881-1.036-.287-2.943-1.565-2.03a129 129 0 0 0-7.625 5.915q1.563-1.786 3.127-3.569a1.322 1.322 0 0 0-1.868-1.868l-10.6 10.02a3.14 3.14 0 0 1 1.6-.516 3 3 0 0 1 2.107.874 3.04 3.04 0 0 1 .874 2.107 3 3 0 0 1-.084.645 172 172 0 0 1 3.5-3.191l-5.7 6.7a2.9 2.9 0 0 1-2.114 1.643c-.261.255-.513.516-.758.752-.858.826-1.72 1.655-2.569 2.491a165 165 0 0 0-4.869 4.982c-.313.332-.616.671-.926 1.007a1.4 1.4 0 0 0-.2-.613c2.7-2.9 5.441-5.773 8.242-8.574-.106-.013-.213-.019-.316-.042a3.033 3.033 0 0 1-2.081-3.669 7.4 7.4 0 0 1 1.3-2.7l-5.16 4.879q4.647-5.547 9.658-10.778a1.27 1.27 0 0 0 .339-1.039l.21-.2c.71-.684 1.394-1.4 2.085-2.1.345-.352.691-.707 1.007-1.087a2.73 2.73 0 0 0 .571-1.291.68.68 0 0 0-.826-.826 2.46 2.46 0 0 0-1.207.458q-.576.45-1.116.945c-.733.662-1.468 1.323-2.178 2.007-1.016.975-2.017 1.965-3.02 2.953a200 200 0 0 0-5.412 4.44l4.508-5.466a1.262 1.262 0 0 0-1.258-2.085 1.391 1.391 0 0 0-2.256-1.433c-2.194 1.73-4.308 3.55-6.386 5.408.158-.168.31-.342.468-.51a1.226 1.226 0 0 0-1.733-1.733 292 292 0 0 0-7.315 6.476c1.823-2.088 3.64-4.179 5.483-6.244a1.379 1.379 0 0 0-1.949-1.949q-7.241 6.709-14.479 13.421 5.983-6.946 11.969-13.892a1.265 1.265 0 0 0-1.788-1.788q-5.349 5.044-10.681 10.1l.029.026a3.76 3.76 0 0 1 1.065 2.456 3.44 3.44 0 0 1-.41 1.559c-.11.255-.042.226.029.068a2.33 2.33 0 0 1-.971 1.288 3.28 3.28 0 0 1-.836 2.44 3.033 3.033 0 0 1-4.218 0c-2.478-2.259-1.1-5.957 1.123-7.809a3.175 3.175 0 0 1 3.856-.332q2.759-3.1 5.518-6.209a1.002 1.002 0 0 0-1.417-1.417q-7.875 6.8-15.783 13.556 5.116-5.61 10.233-11.217a1.089 1.089 0 0 0-1.539-1.539q-5.323 4.151-10.663 8.301 4.047-4.226 8.119-8.422c.829-.852-.31-2.5-1.326-1.717l-.223.171q-1.544 1.2-3.091 2.391l3.563-3.479c.887-.868-.316-2.552-1.365-1.768l-7.183 5.363c.945-.939 1.881-1.888 2.833-2.824.891-.874-.323-2.582-1.378-1.784-.874.665-1.755 1.326-2.63 1.988.92-.981 1.839-1.965 2.765-2.94a.968.968 0 0 0-1.368-1.368 80 80 0 0 1-6.828 5.115c.713-.8 1.423-1.6 2.146-2.4a1.162 1.162 0 0 0-1.642-1.643c-.7.623-1.43 1.2-2.175 1.755a42 42 0 0 0 1.533-2.381 1.136 1.136 0 0 0-1.542-1.542q-1.075.55-2.156 1.091c.326-1-1-2.1-1.865-1.168l-3.734 4.027a1.124 1.124 0 0 0 1.355 1.759q1.713-.866 3.43-1.73a42 42 0 0 1-3.356 3.685c-1.062 1.039.278 2.507 1.5 1.943.21-.1.41-.213.616-.316l-1.549 1.717c-.871.968.242 2.6 1.436 1.862a73 73 0 0 0 2.62-1.694q-1.791 1.791-3.562 3.6c-.962.987.358 2.895 1.536 1.991l.113-.087c-.3.3-.594.591-.891.884-.887.887.319 2.6 1.388 1.8l6.241-4.673c-1.933 1.885-3.859 3.775-5.8 5.65-.91.878.339 2.611 1.388 1.8q.116-.088.232-.181l.01-.006a836 836 0 0 0 6.4-5q-4.013 4.139-8.032 8.277c-1.049 1.081.484 2.478 1.607 1.607q6.394-4.966 12.746-9.994-6.346 6.985-12.659 14a1.014 1.014 0 0 0 1.433 1.433q8.379-7.193 16.741-14.4l-16.1 17.9a1.121 1.121 0 0 0 1.584 1.584q8-7.473 16-14.937l-11.649 13.45a1.31 1.31 0 0 0-.013 1.778 59 59 0 0 0-1.542 2.233 1.186 1.186 0 0 0 .7 1.733 2.9 2.9 0 0 0 1.5-.058 1.2 1.2 0 0 0 1.41-.313c.523-.529 1.033-1.075 1.552-1.607q-1.457 2.144-2.907 4.292c-.278.361-.565.716-.842 1.078l-.052.065q-.104.13-.207.265c-.891 1.168 1.142 2.756 2.052 1.581.265-.342.545-.674.81-1.016a89 89 0 0 0 5.26-3.9 94 94 0 0 0-2.223 3.4c-.678 1.091.742 2.694 1.859 1.859 2.065-1.549 4.072-3.175 6.05-4.831a117 117 0 0 0-2.853 4.45c-.713 1.175.8 2.936 2.01 2.01a100 100 0 0 0 2.407-1.907q-.658 1.05-1.294 2.114c-.006.01-.006.019-.013.029-.09.142-.19.281-.278.426-.9 1.468 1.058 2.727 2.252 1.739.891-.739 1.8-1.462 2.7-2.185-.1.2-.21.407-.3.61a1.565 1.565 0 0 0 .658 1.939c-.4.6-.807 1.21-1.217 1.8-.933 1.359 1.052 2.665 2.175 1.678l1.772-1.562q-.093.17-.181.339a1.394 1.394 0 0 0 2.178 1.681c1.033-.945 2.056-1.92 3.078-2.891a11.6 11.6 0 0 0-.684 2.156c-.223 1.107 1.262 2.32 2.12 1.233.3-.374.62-.729.929-1.091a1.054 1.054 0 0 0 1.694.132l.023-.029a1.24 1.24 0 0 0 .833-.41q3.146-3.287 6.289-6.576a2.2 2.2 0 0 0 .187.839c-.145.2-.294.387-.439.581-.307.349-.613.7-.907 1.055a1.4 1.4 0 0 0-.261.5c-.055.068-.1.139-.155.207-1.394 1.755-2.933 3.375-4.385 5.076a1.261 1.261 0 0 0 1.52 1.972 7.15 7.15 0 0 0 2.349-2.1.5.5 0 0 0 .084-.478c.62-.742 1.217-1.5 1.8-2.262a1.4 1.4 0 0 0 1.087-.277l.145-.119a7.6 7.6 0 0 0-1.623 3.1.71.71 0 0 0 1.029.791 9.8 9.8 0 0 0 2.759-2.575c.49-.594.994-1.178 1.494-1.768a1.33 1.33 0 0 0 .5 1.407l-.3.3c-1.123 1.023.549 2.688 1.665 1.665a217 217 0 0 0 4.3-4.059 22.5 22.5 0 0 0 6.015-5.815c2.252-2.5 4.411-5.1 6.554-7.7-1.552 2.191-3.082 4.4-4.514 6.667a1.2 1.2 0 0 0-.165.429 281 281 0 0 0-4.192 5.121c-.842 1.062.549 2.565 1.53 1.53 7.1-7.512 13.727-15.518 20.436-23.379.975-1.142-.594-2.791-1.623-1.791a166 166 0 0 0 2.594-3.9 1.15 1.15 0 0 0-.1-1.375 222 222 0 0 0 3.6-4.5c.916-1.175-.623-2.849-1.688-1.688Zm-41.959 2.807q-4.545 5.392-9.061 10.81a1.44 1.44 0 0 0-1.223-.845c3.358-3.395 6.769-6.738 10.283-9.965Zm-18.974 6.263c-.778.939-1.533 1.894-2.3 2.836a1.5 1.5 0 0 0-.439-.31l2.74-2.527Zm-3.692 15.144q.489-.718.987-1.426a1.5 1.5 0 0 0 .371.252q-.678.591-1.359 1.178Zm3.374-8.451a82 82 0 0 1-6.554 6.341 242 242 0 0 1 10.988-12.059q-2.255 2.83-4.434 5.718m22.753 4.776q.176-.169.352-.332a1.3 1.3 0 0 0 .019.194l-.3.281a6.52 6.52 0 0 1 .184 5.576 9.55 9.55 0 0 1-5.408 4.966c-.7.855-1.4 1.72-2.136 2.578q.553-1.01 1.126-2.007a1.5 1.5 0 0 0 .1-.242 12.6 12.6 0 0 1-6.251.4 7.6 7.6 0 0 1-6.157-8.835c-.413.4-.81.81-1.229 1.2.445-.626.907-1.239 1.362-1.859a9.1 9.1 0 0 1 1.342-3.04 15.9 15.9 0 0 1 3.1-3.3 5.83 5.83 0 0 1 3.637-3.55 5.6 5.6 0 0 1 2.985-.026c1.978-2.052 3.982-4.079 6.054-6.038a212 212 0 0 0-4.937 6.441 3.8 3.8 0 0 1 2.356 3.4c0 .026-.006.048-.006.074.042.048.077.1.116.148a1.35 1.35 0 0 0 .023-1.105q3.2-3.035 6.405-6.07-3.18 3.635-6.357 7.27a10 10 0 0 1 .6.833 7.85 7.85 0 0 1 3.027 3.049Zm13.214-2.372a1.03 1.03 0 0 0-.187.836 92 92 0 0 0-10.651 11.16c-.09.094-.174.187-.261.281a.7.7 0 0 0-.2.058c.132-.184.258-.352.352-.5q.61-.939 1.242-1.859 3.272-3.282 6.357-6.738 2.12-2.212 4.24-4.421c-.3.394-.6.781-.894 1.178Zm-1.7-3.211a1.4 1.4 0 0 0-.307.936q-1.68 1.733-3.291 3.537l-3.078 3.069q1.747-2.851 3.356-5.789a1.32 1.32 0 0 0 .029-1.268q6.617-6.607 13.234-13.217l-9.939 12.739Zm4.766-1.291a.85.85 0 0 0 .136-.361l4.569-5.486a1.23 1.23 0 0 0 .394.5 157 157 0 0 0-5 5.786 1.2 1.2 0 0 0-.1-.439Zm4.511 3.091a1.4 1.4 0 0 0-.171-.223c.355-.478.7-.958 1.046-1.442a1 1 0 0 0 .1-.139q1.946-2.735 3.685-5.6a.966.966 0 0 0 .907-.845l.113-.871q.19-.198.381-.4c1.743-1.82 3.463-3.685 5.2-5.537a125 125 0 0 1-7.89 11.059 121 121 0 0 1-3.362 3.992Z"/><g fill="#262c54"><path d="M62.612 124.568a52.03 52.03 0 0 1-30.648-9.858 33.4 33.4 0 0 1-9.426-10.475c-.587-1-.791-2.246.526-2.749a3.4 3.4 0 0 1 2.42.49 5.1 5.1 0 0 1 1.391 1.646c6.844 9.729 16.757 14.337 28.029 16.254 26.787 4.556 43.97-12.7 50.73-31.782a34.9 34.9 0 0 0 .1-22.043c-.784-2.575-1.439-2.7-3.821-1.091-2.1 1.426-4.172 2.911-6.167 4.489-2.452 1.939-5.044 2.82-8.112 1.675a10.17 10.17 0 0 0-9.387 1.139c-4.324 2.7-8.648 2.63-12.746-.4-4.063-3-7.99-2.972-12.1-.132a16.3 16.3 0 0 1-4.4 2.11 2.55 2.55 0 0 1-2.288-.765 2.34 2.34 0 0 1 .532-2.262c3.311-1.862 6.6-3.95 10.178-5.069 2-.629 4.6.236 6.815.842a18.2 18.2 0 0 1 4.276 2.375 6.21 6.21 0 0 0 6.75.255c4.434-2.64 8.942-3.9 14.031-1.952a4 4 0 0 0 3.085-.5 80 80 0 0 0 6.576-4.847c1.352-1.075.975-2.2-.261-3.12a16 16 0 0 0-1.878-1.1q-5.4-2.956-6.083 3.195c-.019.181-.023.365-.048.542-.248 1.562-.016 3.775-2.291 3.63s-1.814-2.269-1.743-3.866c.174-3.814.342-7.628.555-11.439.106-1.91-.158-3.627-1.865-4.824a2.6 2.6 0 0 1-.768-.768c-2.372-4.15-5.221-6.948-10.713-5.589-1.559.384-3.663-1.158-5.412-2.026-.39-.194-.62-1.388-.407-1.917a2.06 2.06 0 0 1 1.646-1.013 26 26 0 0 1 3.137.826c4.2.829 5.9-.006 8.342-3.943a4.8 4.8 0 0 1 1.359-1.655 2.4 2.4 0 0 1 1.968-.248 2.34 2.34 0 0 1 .9 1.739 8.2 8.2 0 0 1-.549 2.085 9.207 9.207 0 0 0 8.49 11.42 8.34 8.34 0 0 0 4.169-.871 60 60 0 0 0 6.26-4.178 4.82 4.82 0 0 0 2.065-4.756c-.268-2.288-1.078-3.553-3.892-3.166a1.648 1.648 0 0 1-1.481-2.862c2.388-2.281 4.4-4.576 2.517-8.016a11.56 11.56 0 0 0-9.636-6.238 11 11 0 0 0-2.178.068 3.8 3.8 0 0 1-4.153-1.956c-2.442-4.663-6.688-4.379-10.422-2.947-3.5 1.342-5.521.742-8.1-1.739-3.543-3.417-8.2-3.679-12.833-2.582a19.63 19.63 0 0 0-10.923 6.806 15 15 0 0 1-1.991 2.575 9.4 9.4 0 0 1-2.807.975 8.6 8.6 0 0 1-.587-2.452c.065-1.165 1.507-2.394.081-3.446a8.1 8.1 0 0 0-3.428-1.464c-6.276-.933-13.159 4.666-13.54 11.126-.11 1.846-.6 2.714-2.443 2.727-4.889.029-6.341 3.7-7.454 7.4-1.165 3.876-.626 7.628 2.346 10.642 2.036 2.068 3.621 2.081 5.889-.11 1.468-1.417 2.42-1.291 3.459.274a2.7 2.7 0 0 1 .255.481c1.1 2.807 2.946 4.763 6.163 4.24 3.593-.58 6.709-2.18 7.316-6.227.358-2.385 1.507-2.956 3.679-2.875a6.45 6.45 0 0 0 6.17-3.746c.258-.481.384-1.129.778-1.417a20.4 20.4 0 0 1 2.588-1.407c.378.749 1.22 1.636 1.049 2.227-.739 2.549.455 3.611 2.6 4.5a3.01 3.01 0 0 1 1.607 2.336c-.268 1.623-1.8 1.426-3.088 1.239a5.5 5.5 0 0 1-1.046-.31c-1.63-.574-3.037-2.065-5.05-.778-2.194 1.4-4.892 1.572-6.554 4.372-1.633 2.753-2.856 5.3-2.953 8.5-.081 2.72-.458 5.437-.8 8.145-.181 1.442-.416 3.153-2.388 3.02-1.668-.113-1.665-1.636-1.713-2.924a6.6 6.6 0 0 0-.11-2.149 2.34 2.34 0 0 0-1.436-1.286 13.7 13.7 0 0 0-3.8-.119c-2.946.319-5.631 2.772-5.2 4.585.749 3.124 4.4 5.634 7.228 4.931.881-.219 1.73-.565 2.6-.823 4.2-1.242 7.409.142 9.235 4.163a2.5 2.5 0 0 1-.378 2.346c-.5.394-1.636.142-2.433-.065a2.6 2.6 0 0 1-1.184-1.087c-1.442-2.068-3.288-1.926-5.315-1.087-.5.207-1.065.265-1.568.468-3.724 1.513-6.715.784-8.974-2.7-.423-.652-1.359-.975-2.056-1.446a11.4 11.4 0 0 0-1.233 2.269 35.3 35.3 0 0 0 .239 20.436c.436 1.388.929 2.756 1.417 4.127.458 1.288.713 2.62-.9 3.169-1.565.532-2.417-.655-2.807-1.9a71 71 0 0 1-2.948-10.457 41.46 41.46 0 0 1 2.24-20.41 20.1 20.1 0 0 1 6.044-8.267 10.4 10.4 0 0 1 7.037-2.533 14 14 0 0 0 3.753-.429c.484-.139.739-1.075 1.1-1.646-.432-.242-.916-.758-1.291-.687-3.5.649-6.37-.526-9.122-2.633-.845-.649-2.336-.587-3.537-.613a10.61 10.61 0 0 1-10.429-7.28 16.56 16.56 0 0 1 5.941-19.372 11.7 11.7 0 0 0 4.2-4.7A18.33 18.33 0 0 1 30.93 3.959c3.317-.913 6.647-.962 9.51.845 2.511 1.581 4.14.913 6.283-.578A21.9 21.9 0 0 1 61.664.106a16.05 16.05 0 0 1 9.022 3.53c1.72 1.462 3.324 1.613 5.5 1.075a27.2 27.2 0 0 1 7.022-.4c1.042.023 2.491.284 3.037.994 2.933 3.792 7.354 3.914 11.381 5.257 4.4 1.465 8.245 4.247 9.49 9.055.607 2.349-.194 5.04.271 7.454.468 2.433 2.172 4.65 2.514 7.077.49 3.485-1.229 6.331-4.166 8.338a39.3 39.3 0 0 1-5.879 3.84c-2.094.929-4.489 1.168-6.735 1.778-.455.123-1.071.468-1.175.836a1.58 1.58 0 0 0 .5 1.371c1.475 1.055 3.049 1.972 4.573 2.962 2.882 1.872 5.815 3.672 8.613 5.66a11.98 11.98 0 0 1 4.46 7.312 41.52 41.52 0 0 1-1.684 26.238 56.9 56.9 0 0 1-13.563 19.607 44.2 44.2 0 0 1-32.23 12.478Z"/><path d="M0 76.386c.2-1.581-.665-3.756 1.759-4.46 1.413-.41 2.127 1.055 2.4 4.679C5.637 95.845 14.4 111.167 29.3 123.128a49.4 49.4 0 0 0 16.844 8.722 19 19 0 0 1 3.5 1.413 1.55 1.55 0 0 1 .523 1.42c-.226.584-.829 1.4-1.317 1.43a8.6 8.6 0 0 1-3.711-.423c-4.353-1.791-8.948-3.266-12.885-5.754C13.585 118.155 3.149 100.998.171 79.21.048 78.313.058 77.396 0 76.386m59.588 39.346c-7.015.045-11.836-5.04-11.181-11.546a15.9 15.9 0 0 1 5.624-10.81c3.885-3.311 7.858-3.066 11.485.581a20 20 0 0 0 1.952 1.852c3.714 2.82 5.1 6.483 3.882 10.988-1.317 4.869-4.827 7.464-9.513 8.677a13.3 13.3 0 0 1-2.246.261Zm8.061-11.678c.152-2.714-1.791-4.163-3.408-5.857-3.921-4.108-6.728-3.927-9.748.81a14.2 14.2 0 0 0-1.591 3.414c-.926 2.978-.587 5.805 1.946 7.874s5.415 1.772 8.171.481a7.34 7.34 0 0 0 4.637-6.722Zm56.399-28.871c-.219 9.119-1.836 18.18-6.7 26.393a21.8 21.8 0 0 1-3.417 4.153 2 2 0 0 1-1.926-.113 2.1 2.1 0 0 1-.549-1.868 16.4 16.4 0 0 1 1.572-2.833c7.561-13.4 9.313-27.332 3.869-41.94-.532-1.426-1.981-2.949-.145-4.392 1.168-.92 2.543.126 3.85 2.788 2.033 4.134 3.4 11.11 3.44 17.816Zm-86.906 8.183c.11-3.695 2.6-7.138 5.2-7.167 3.73-.042 6.3 2.717 6.238 6.715-.052 3.672-2.256 6.138-5.515 6.173a5.527 5.527 0 0 1-5.918-5.718Zm5.86 1.985a8.8 8.8 0 0 0 1.288-2.469c.042-.349-.829-.81-1.284-1.223a6.5 6.5 0 0 0-1.368 1.859c-.101.342.67.942 1.364 1.833m47.792 45.331c-.545-.478-1.3-.836-1.488-1.391a2.82 2.82 0 0 1 .371-1.93c.226-.429.8-.691 1.252-.987a58.6 58.6 0 0 0 13.379-11.778c.342-.416.7-.962 1.158-1.1a12.7 12.7 0 0 1 2.472-.3 18 18 0 0 1 .187 2.895c-.039.461-.568.894-.907 1.32a58.2 58.2 0 0 1-13.772 12.136 17 17 0 0 1-2.653 1.139ZM74.487 82.673c.416-3.485 3.621-6.363 6.525-5.86 2.6.452 4.65 3.633 4.263 6.625a6.04 6.04 0 0 1-6.589 5.044c-2.769-.232-4.563-2.72-4.195-5.808Zm6.754.474c-.445-.733-.7-1.162-.962-1.588a5.8 5.8 0 0 0-1.446 1.226c-.139.223.368.842.581 1.281ZM10.536 52.14a4.6 4.6 0 0 1-.1 1.233c-1.31 3.182-2.549 6.4-4.069 9.481-.323.652-1.694.787-2.585 1.162-.3-.784-1.039-1.73-.82-2.32a115 115 0 0 1 4.23-9.939c.232-.481 1.546-.578 2.362-.581.352 0 .707.681.981.968Zm67.057 79.507a7.3 7.3 0 0 1 2.2.148c.574.29 1.317.794 1.42 1.317s-.368 1.607-.794 1.726a52 52 0 0 1-6.738 1.452c-.468.071-1.51-.707-1.5-1.084.01-.752.371-1.917.923-2.165a31 31 0 0 1 4.489-1.4Z"/></g></svg>