<svg xmlns="http://www.w3.org/2000/svg" width="141.958" height="141.369" viewBox="0 0 141.958 141.369"><path fill="#262c54" d="M95.449 57.44a2.4 2.4 0 0 0-.468-.426 6.6 6.6 0 0 0-2.023-.645l-1.746-.445-1.478-.378a8 8 0 0 1-.636-.687 1.31 1.31 0 0 0-1.733-.1 1.4 1.4 0 0 0-.213.216 1.92 1.92 0 0 0-1.446.745 1.88 1.88 0 0 0-.148 2.13 7 7 0 0 0 .652.8 2.8 2.8 0 0 0 .971.587l.071.052c.09.058.19.1.281.158.152.094.294.213.445.307a8.1 8.1 0 0 0 2.549 1.039 6.65 6.65 0 0 0 3.014.071 2.5 2.5 0 0 0 .523-.2q.173-.122.332-.258h.006l-.09.081.148-.09q.09-.025.181-.055a2 2 0 0 0 .168 0 1.546 1.546 0 0 0 1.507-1.329 1.53 1.53 0 0 0-.862-1.568Z"/><path fill="#eb8486" d="M76.943 94.009q.193.124-.171-.245a1.4 1.4 0 0 0-.41-.361c-.065-.039-.7-.332-.749-.352a6.2 6.2 0 0 0-1.765-.145 26 26 0 0 0-2.988.123 27 27 0 0 0-6.157 1.32 1.634 1.634 0 0 0-1.113 1.962 1.61 1.61 0 0 0 1.962 1.113 25.3 25.3 0 0 1 5.528-1.107 26 26 0 0 1 2.878-.071 5.3 5.3 0 0 0 1.655-.019 2.65 2.65 0 0 0 1.133-.61.9.9 0 0 0 .2-1.61Z"/><path fill="#ba8b54" d="M102.5 97.148a3 3 0 0 0-1.342-.3l.923-1.83a1.134 1.134 0 0 0-1.539-1.539c-.516.294-1.02.607-1.52.923l1.678-2.9a1.068 1.068 0 0 0-1.633-1.323c.042-.052.077-.11.119-.161.9-1.133-.6-2.746-1.63-1.63l-.084.087a1.038 1.038 0 0 0-1.672-1.078c.155-.2.316-.4.471-.607q.088-.11.171-.219c.807-1.046-.836-2.059-1.713-1.323q-1.893 1.583-3.792 3.162a17 17 0 0 0 .987-1.542c.594-1.065 1.207-2.156 1.9-3.156.526-.755-.584-1.465-1.2-.929q-3.291 2.827-6.547 5.7a54 54 0 0 1 4.066-5.008.966.966 0 0 0-1.365-1.365c-.584.549-1.162 1.1-1.743 1.649l.313-.429c.774-1.065-.826-2.043-1.7-1.313l-.394.326q.054-.072.11-.139l.013-.01.2-.258c.949-1.239-.981-2.4-2.014-1.555q-2.406 1.975-4.811 3.953c.361-.449.736-.887 1.136-1.307 1.075-1.123-.5-2.578-1.665-1.665q-1.273 1.007-2.559 2c.248-.381.5-.758.749-1.139.584-.891-.713-1.839-1.449-1.12q-.905.886-1.833 1.746c.526-.852 1.058-1.7 1.568-2.562a1.2 1.2 0 0 0-1.875-1.446l-3.821 3.617q.406-.622.807-1.246a1.193 1.193 0 0 0-1.865-1.439q-.987 1.075-1.978 2.149c.8-1.168-.7-2.753-1.726-1.607q-2.972 3.335-5.947 6.667a115 115 0 0 1 3.195-4.76c.791-1.11-1-2.494-1.9-1.462l-3.84 4.411a1.249 1.249 0 0 0-2.039-1.294 265 265 0 0 0-5.644 6.376 186 186 0 0 1 4.553-6.883c.713-1.026-.865-2.2-1.713-1.323a146 146 0 0 0-4.537 4.924q.281-.47.558-.939c.387-.649-.6-1.213-1.007-.587q-3.461 5.3-6.922 10.613c-.513.784.716 1.768 1.32 1.016q1.583-1.98 3.224-3.9a162 162 0 0 0-4.585 8.187c-.581 1.113.975 2.52 1.843 1.423.668-.845 1.352-1.678 2.026-2.514-.187 1.026 1.281 1.994 2.085 1.068q3.369-3.877 6.731-7.754c-.387.726-.784 1.446-1.155 2.181-.584 1.152.929 2.52 1.881 1.452l1.5-1.691a1.206 1.206 0 0 0 2.033.82q2.744-2.977 5.486-5.957a1.248 1.248 0 0 0 2.03.62q2.614-2.473 5.231-4.944c-.345.613-.687 1.229-1.039 1.839a1.025 1.025 0 0 0 1.6 1.236c.2-.187.39-.381.587-.568.048.755.984 1.455 1.684.939.807-.6 1.6-1.217 2.4-1.83-.229.487-.461.968-.658 1.471-.494 1.265 1.21 1.852 2.039 1.188l2.136-1.72-.6.82c-.781 1.062.826 2.043 1.7 1.313l1.949-1.62-2.162 2.966c-.742 1.02.845 2.146 1.7 1.313.645-.626 1.284-1.258 1.93-1.888-.271.468-.558.929-.816 1.407a.923.923 0 0 0 1.442 1.113q2.11-1.9 4.211-3.808c-.978 1.391-1.959 2.778-2.92 4.176-.726 1.055.8 1.988 1.655 1.278q1.723-1.423 3.446-2.843l-2.11 2.769c-.768 1.007.784 1.9 1.613 1.246.271-.213.536-.439.8-.655q-.04.052-.074.1c-.762 1.026.791 1.923 1.63 1.258q1.142-.91 2.259-1.849c-.036.084-.077.161-.113.245-.481 1.136.791 2.362 1.8 1.391.229-.219.455-.445.684-.665l-.068.126a.989.989 0 0 0 1.342 1.342 36 36 0 0 1 1.939-1.081c-.116.252-.236.5-.352.752-.345.733.248 1.933 1.2 1.555.484-.19 2.53-1.065 2.523.132a.99.99 0 0 0 1.978 0 2.55 2.55 0 0 0-1.494-2.365Z"/><path fill="#eac485" d="M127.435 62.116a78 78 0 0 1-3.124 2.714 1.47 1.47 0 0 0-.907-.445q1.452-1.83 2.846-3.7c.913-1.229-1.023-2.591-2.065-1.594-.894.858-1.8 1.7-2.7 2.549a32.6 32.6 0 0 0 4.011-5.408c.429-.833-.687-1.839-1.365-1.055 0 0 0 .006-.006.006a30 30 0 0 0-4.1 4.124 1.5 1.5 0 0 0-.329-.19c.281-.332.568-.662.849-1 .955-1.142 1.926-2.272 2.846-3.44.807-1.023 1.839-2.043 2.014-3.369.074-.561-.49-.807-.949-.687v-.035c-1.242.339-2.146 1.578-3 2.481-1.023 1.075-2 2.191-2.991 3.291q-.197.219-.39.442c.339-.429.687-.852 1.023-1.284.778-1 1.552-2 2.3-3.014a7.47 7.47 0 0 0 1.833-3.417c.077-.7-.755-.952-1.265-.726a3 3 0 0 0-.407.223c.294-.381.594-.762.865-1.155a1.01 1.01 0 0 0 .058-1.162 3.3 3.3 0 0 0 .239-.652c.174-.723-.781-1.291-1.262-.833a9.7 9.7 0 0 0-2.517 2.091c-1.026 1.007-2.01 2.062-3.007 3.095-.862.894-1.73 1.775-2.591 2.665a1.5 1.5 0 0 0-.484-.878 205 205 0 0 0 4-4.134 93 93 0 0 0 3.285-3.7c.565-.671 1.129-1.336 1.662-2.033a3.72 3.72 0 0 0 1.1-2.1.74.74 0 0 0-.923-.7c-.771.119-1.32.81-1.849 1.333-.584.581-1.136 1.194-1.691 1.8l-.248.281a1.143 1.143 0 0 0-1.63-.026c-.165.155-.323.319-.487.474 1.578-2.136 3.3-4.534 3.869-7.051.09-.407-.39-.916-.791-.607a13.3 13.3 0 0 0-1.681 1.572.4.4 0 0 0-.09-.019c-1.162-.029-2 1.149-2.753 1.9-.907.916-1.82 1.83-2.73 2.746a180 180 0 0 1-4.418 4.282q-1.3.992-2.591 1.988c.419-.432.842-.862 1.255-1.294 1.649-1.726 3.272-3.475 4.9-5.224.862-.926 1.723-1.852 2.562-2.8a10.5 10.5 0 0 0 2.056-2.788c.361-.858-.758-1.417-1.423-1.094a10.6 10.6 0 0 0-2.591 2.223c-.106.1-.207.213-.313.319a1.178 1.178 0 0 0-1.83-.123c-2.665 2.765-5.357 5.508-8.038 8.261q2.12-2.793 4.2-5.621l.177-.177a1.4 1.4 0 0 0 .355-.565q3.432-4.7 6.741-9.506c.845-1.226-.981-2.5-2-1.542l-1.772 1.662a1.12 1.12 0 0 0-1.133.184c-5 4.037-9.816 8.293-14.5 12.7l12.236-13.282c1.184-1.284-.555-2.885-1.868-1.868a240 240 0 0 0-18.552 16.125q3.892-4.09 7.848-8.112 5.271-5.353 10.6-10.649c1.2-1.2-.607-2.975-1.852-1.852-6.58 5.95-12.908 12.162-19.081 18.526a1.35 1.35 0 0 0-.358-.687l3.775-4.76q4.685-5.905 9.364-11.817a1.308 1.308 0 0 0-1.849-1.849 229 229 0 0 0-3.753 3.356q2.009-2.217 4.011-4.431a1.171 1.171 0 0 0-1.655-1.655c-9.865 8.729-19.094 18.129-28.051 27.784q5.92-7.057 12.036-13.95c3.275-3.7 6.586-7.377 9.865-11.075a1.372 1.372 0 0 0-1.939-1.939q-3.074 2.774-6.086 5.618l4.889-5.5a1.445 1.445 0 0 0-2.043-2.043c-9.271 8.8-18.145 18.013-26.845 27.384a2 2 0 0 0-.21-.042q6.9-7.943 14.06-15.654 5.818-6.283 11.714-12.491a1.146 1.146 0 0 0-1.62-1.62q-10.15 9.216-19.771 19a336 336 0 0 0-4.227 4.389q4.8-5.731 9.642-11.43 4.715-5.576 9.474-11.117c.791-.92-.268-2.633-1.4-1.81q-2.294 1.675-4.547 3.408 1.375-1.5 2.746-3c1.042-1.142-.607-2.814-1.7-1.7L45.016 37.25q7.362-8.829 14.737-17.645a1.1 1.1 0 0 0-1.555-1.555c-.758.616-1.5 1.252-2.246 1.878a1.176 1.176 0 0 0-1.223-1.046c.626-.878-.374-2.262-1.391-1.584a149 149 0 0 0-12.207 9.1l2.062-2.533a1.073 1.073 0 0 0-1.517-1.517 138 138 0 0 0-16.102 15.276c-.591.652.345 1.6.971.971a159 159 0 0 1 7.467-7.073q-3.17 3.795-6.344 7.59a134 134 0 0 0-9.245 11.084c-.878 1.178 1.113 2.73 2.049 1.581l5.844-7.18a149 149 0 0 1 18.9-18.51q-2.522 2.754-5.034 5.515a230.5 230.5 0 0 0-20.994 23.354 1.238 1.238 0 0 0 1.036 2.007c-2.417 3.12-4.779 6.286-7.028 9.532-.784 1.133.984 2.491 1.907 1.471q16.288-17.933 31.82-36.524c.71-.849 1.407-1.71 2.114-2.562.09-.084.184-.161.274-.245L25.387 57.099a1.2 1.2 0 0 0 .106 1.691q-4.095 5.174-7.8 10.646c-.568.7-1.146 1.394-1.713 2.094a1.24 1.24 0 0 0-.287.933c-.077.119-.161.239-.239.358a1.289 1.289 0 0 0 2.017 1.555q6.849-6.96 13.7-13.9-6.714 8.669-13.411 17.351l-.213.274a1.2 1.2 0 0 0-.242.549q-1.757 2.1-3.533 4.179c-1.065 1.246.662 3.037 1.823 1.823q4.271-4.477 8.54-8.947l1.41-1.275q-4.342 5.867-8.68 11.733c-.833 1.126 1 2.52 1.936 1.494q4.84-5.31 9.684-10.62a1.2 1.2 0 0 0 .284.035q-4.264 5.857-8.522 11.717c-.645.891.226 1.852 1.126 1.875a1.29 1.29 0 0 0 1.471-.171Q28.88 84.82 34.9 79.128c-3.876 4.8-7.8 9.577-11.572 14.457a1.4 1.4 0 0 0 1.091 2.256 2.8 2.8 0 0 0-.4 3.085c1.465 2.4 4.147.152 5.321-1.21q.509-.587 1.016-1.175-2.139 2.822-4.282 5.641c-.91 1.2 1.049 2.649 2.062 1.591q6.181-6.433 12.346-12.882-4.579 5.8-8.951 11.756c-.749 1.026.61 2.236 1.607 1.8-.936 1.388-1.849 2.788-2.778 4.192-.413.626.571 1.41 1.055.813 1.055-1.3 2.149-2.575 3.246-3.846a1.35 1.35 0 0 0 1.4 1.481 295 295 0 0 0-3.788 5.637c-.358.542.507 1.233.916.707.339-.439.694-.865 1.039-1.3l-1.12 1.468c-.9 1.184 1.081 2.707 2.065 1.594q3.514-3.974 7.138-7.845c-.407.51-.823 1.016-1.229 1.53a1.5 1.5 0 0 0 .91 2.423c-.907 1.258-1.823 2.514-2.7 3.792-.845 1.223 1.013 2.591 2.03 1.565l.833-.839c-.955 1.333-1.9 2.672-2.817 4.03-.836 1.233 1.091 2.743 2.078 1.6 6.776-7.832 13.582-15.654 20.646-23.23q-2.091.407-4.153.945c-4.621 1.207-8.9 3.382-13.624 4.218a3.53 3.53 0 0 1-3.024-.9 3.107 3.107 0 0 1-3.643-4.324C41.4 90.636 44.862 83.969 52.2 79.323a36 36 0 0 1 1.868-1.087c.794-.949 1.584-1.9 2.381-2.84a1.7 1.7 0 0 0 .265.2l-2.239 2.4a36.75 36.75 0 0 1 17.8-4.285 33.7 33.7 0 0 1 6.115.691q2.27-1.975 4.492-4c-1.3 1.365-2.588 2.753-3.879 4.13a37.2 37.2 0 0 1 14.821 6.98q3.867-4.187 7.841-8.274a.68.68 0 0 0 .755-.09c.613-.487 1.191-1 1.781-1.51q-5.247 4.869-10.349 9.9c.778.613 1.53 1.262 2.243 1.939 1.417-1.391 2.833-2.782 4.269-4.153q-1.975 2.227-3.953 4.45a26.3 26.3 0 0 1 7.693 13.65 3.4 3.4 0 0 1 .01 1.178q3.069-2.483 6.183-4.9-6.728 7.12-13.366 14.324c-.72.536-1.423 1.087-2.146 1.617-.655.484-1.307.975-1.959 1.459q4.5-4.468 9.01-8.926a1.17 1.17 0 0 0 .358-1.1 2.4 2.4 0 0 1-.933.087 107 107 0 0 1-11.865-2.149c-.984.955-1.975 1.9-2.953 2.866.829-.994 1.668-1.978 2.511-2.962-1.691-.365-3.382-.72-5.082-1.029l-3.663 4.118-1.346 1.107a.75.75 0 0 0-.9-.052 1.14 1.14 0 0 0 .055-1.191q2.052-2.144 4.118-4.276a52 52 0 0 0-5.608-.591c-.62.745-1.246 1.481-1.859 2.23-.945 1.152-1.875 2.32-2.807 3.482a.99.99 0 0 0-.539-1.255q1.97-2.27 3.976-4.508a41 41 0 0 0-1.775.006 69.4 69.4 0 0 0-10.526 1.094c-3.895 4.879-7.69 9.832-11.336 14.9a194 194 0 0 0-3.795 4.147 1.23 1.23 0 0 0-.326.991c-.632.739-1.268 1.475-1.881 2.23a1.226 1.226 0 0 0 1.733 1.733q4.148-3.248 8.283-6.509a417 417 0 0 0-4.127 5.708 1.014 1.014 0 0 0 .048 1.271q-.083.09-.171.177c-.726.771.261 2.239 1.191 1.542.865-.652 1.736-1.3 2.6-1.946-.51.62-1.023 1.236-1.52 1.862a1.436 1.436 0 0 0 2.03 2.03q2.754-2.3 5.505-4.611-1.728 1.965-3.453 3.934c-1.029 1.171.591 2.833 1.726 1.726q1.254-1.229 2.511-2.456a1.158 1.158 0 0 0 1.8 1.42q1.568-1.476 3.124-2.966c-.694.868-1.381 1.739-2.046 2.63-.623.833.626 2.1 1.459 1.459l.213-.168.016-.016q.264-.208.529-.42a1.17 1.17 0 0 0 1.559.158q2.851-2.047 5.683-4.118a1.3 1.3 0 0 0 1.646.136 1.3 1.3 0 0 0 .874 1.81 1.26 1.26 0 0 0 1.81.4c.958-.665 1.917-1.342 2.878-2.01-.778 1.013-1.555 2.026-2.372 3.017a1.131 1.131 0 0 0 1.6 1.6q2.623-2.464 5.241-4.934a1.27 1.27 0 0 0 1.262-.081 63.6 63.6 0 0 0 12.559-9.89 1.336 1.336 0 0 0 2.22.581c2.043-1.885 4.108-3.74 6.163-5.608a19.2 19.2 0 0 0-3.34 4.579c-.349.752.4 1.713 1.21 1.21a24.8 24.8 0 0 0 5.179-5q2.473-2.783 4.944-5.57c3.3-3.714 6.576-7.451 9.781-11.246a1.247 1.247 0 0 0-1.762-1.762l-6.486 5.818a500 500 0 0 0 6.163-7.173c.542-.645-.319-1.549-.939-.939-3.1 3.062-6.131 6.192-9.164 9.319a1 1 0 0 0-1.371-.955q5.983-6.351 11.972-12.695a1.618 1.618 0 0 0-1.278-2.678 120 120 0 0 0 5.35-6.757c.326-.442-.368-.933-.742-.571q-2.139 2.077-4.269 4.159a1.582 1.582 0 0 0-2.252-1.855 103 103 0 0 0 4.779-5.786l.01-.01c.074-.1.152-.19.226-.29a1.123 1.123 0 0 0-.061-1.546c1.1-1.465 2.159-2.956 3.114-4.5.723-1.168-.891-2.323-1.855-1.43ZM29.456 93.86a24.4 24.4 0 0 1-2.682 3.088c.381-.449.726-.962 1.081-1.413.926-1.168 1.855-2.33 2.775-3.5l.219-.284a.9.9 0 0 0 .094.381q-.748.863-1.488 1.726Zm5.1-19.087 1.22-1.639a1 1 0 0 0 .058.394l-1.276 1.247Zm26.6-27.9q-4.36 5.271-8.55 10.677a1.22 1.22 0 0 0-.787.374l-3.172 3.095q6.089-7.222 12.511-14.15Zm-11.3 23.314-3.369 3.911q1.544-2.1 3.091-4.195a1.4 1.4 0 0 0 .281.284Zm-4.34-10.107c-.294.371-.578.745-.868 1.117.745-.994 1.481-2 2.236-2.982q1.375-1.786 2.772-3.553c.629-.681 1.249-1.371 1.878-2.052q-3.04 3.708-6.021 7.467Zm11.246-30.165q2.575-2.309 5.224-4.54c.781-.655 1.575-1.3 2.372-1.936-6.242 7.157-12.41 14.379-18.393 21.752a1 1 0 0 0-.113-.574c.187-.281.381-.558.568-.842a1.038 1.038 0 0 0-.939-1.53q5.635-6.17 11.281-12.333Zm-9.558 19.933q-2.275 2.686-4.5 5.412l-1.446 1.31a389 389 0 0 1 5.946-6.722m4.176 25.867a1 1 0 0 0-.1.152q-4.784 4.98-9.564 9.967l5.837-7.725q4.71-4.685 9.384-9.41-2.778 3.509-5.557 7.015Zm8.425-19.691q.552-.75 1.1-1.5a1 1 0 0 0 .148-.274q2.619-2.9 5.263-5.776-3.277 3.758-6.511 7.55m23.327-20.41q-3.253 4.1-6.505 8.216a129 129 0 0 0-7.411 6.205c4.534-4.908 9.145-9.739 13.911-14.418ZM71.583 61.945a1.3 1.3 0 0 0-.374-.449c4.973-5.3 10.029-10.523 15.26-15.563q-7.454 8-14.889 16.012ZM94.378 73.52c1.2-1.3 2.41-2.588 3.617-3.882a1.7 1.7 0 0 0 .294.39 232 232 0 0 0-3.911 3.492m13.156-24.037a254 254 0 0 1-4.208 4.892 1.7 1.7 0 0 0-.419.287q-2.628 2.493-5.192 5.05a2.75 2.75 0 0 1-1.714 1.73q-5.712 5.755-11.146 11.778a1.4 1.4 0 0 0-.439-.068l.842-.849a1.3 1.3 0 0 0 .332-.558q5-5.073 9.961-10.168a10.24 10.24 0 0 1-5.976-.739c-2.3-.9-4.3-2.2-4.6-4.837-.177-1.594 1.494-2.949 2.949-2.949a2.81 2.81 0 0 1 2.614 1.743c.026.016.042.026.074.048.084.048.165.1.248.142a4.8 4.8 0 0 0 1.207.494c.316.1.636.177.955.258.09.023.339.068.419.087.236.016.474.006.707.035a.5.5 0 0 1 .094-.039c2.41-.745 3.892 1.5 3.575 3.424q4.584-4.7 9.171-9.4.539-.512 1.078-1.029c-.184.219-.361.442-.542.662ZM60.309 109.22q-.948.723-1.9 1.446 1.321-1.229 2.643-2.456c-.245.339-.494.671-.742 1.01Zm20.187 3.955a1.14 1.14 0 0 0 .136 1.617l-1.333 1.291q-3.335 2.265-6.618 4.6c.323-.5.665-.994.991-1.494 1.178-1.417 2.336-2.849 3.495-4.282q5.223-5.358 10.565-10.6a98 98 0 0 0-7.236 8.868m30.94-13.7c-3.382 3.466-6.77 6.964-10.01 10.571a1.47 1.47 0 0 0-1.271-.945l.113-.119q5.9-4.9 11.633-9.984l-.465.478Zm2.314-41.44a1.1 1.1 0 0 0-.536.106l3.553-4.021q.786-.886 1.6-1.781c-.449.578-.9 1.158-1.355 1.73a213 213 0 0 1-3.259 3.963Z"/><g fill="#262c54"><path d="M72.609 81.149c-8.335.52-16.6.845-24.544 3.6-1.481.513-2.853 1.346-4.334 1.868-.584.207-1.694.219-1.917-.113a2.87 2.87 0 0 1-.445-2.352 11.5 11.5 0 0 1 2.572-3.395c14.1-12.53 30.862-12.688 44.747-5.9a30.83 30.83 0 0 1 16.418 19.123 21.3 21.3 0 0 1 .884 4.756c.355 5.14-.752 6.654-6.041 4.589-4.934-1.926-10.449-2.633-15.776-3.214a90.56 90.56 0 0 0-40.9 4.924c-.674.242-1.371.442-2.065.623-4.963 1.284-7.593-.745-6.731-5.67a31 31 0 0 1 3.085-7.954c.284-.578 1.752-.578 2.675-.845.2.813.742 1.72.542 2.417-.591 2.062-1.607 4-2.2 6.057-.5 1.733.29 2.523 1.93 2.043 4.14-1.217 8.28-2.443 12.346-3.876a7.06 7.06 0 0 0 2.814-2.346c5.76-7.241 20.142-7.212 26.667-1.6a9.16 9.16 0 0 0 4.579 2.481c4.253.716 8.49 1.523 12.733 2.3 1.381.252 2.107-.339 1.943-1.717-.655-5.508-3.821-9.594-7.706-13.217a3.56 3.56 0 0 0-1.972-.652c-6.428-.671-12.862-1.3-19.294-1.936Zm-3.285-7.135c-3.714.891-7.712 1.826-11.688 2.84-.413.106-.7.7-1.049 1.068a4.4 4.4 0 0 0 1.365.442q11.307-.373 22.608-.852c.365-.016.707-.474 1.062-.726-.248-.219-.471-.584-.752-.639-3.692-.71-7.39-1.375-11.546-2.136Zm-.3 21.6a10 10 0 0 0 1.868-.023c1.223-.161 2.427-.484 3.64-.736a15.8 15.8 0 0 0-4.059-1.026 39 39 0 0 0-6.328.878c-.4.074-.72.607-1.078.929a5.4 5.4 0 0 0 1.41.332c1.249-.042 2.491-.187 4.547-.358Z"/><path d="M11.627 69.788c.355-2.6.713-5.808 1.268-8.987a6.7 6.7 0 0 1 1.371-2.811 1.58 1.58 0 0 1 2.575.742 10.5 10.5 0 0 1-.158 3.175 46.8 46.8 0 0 0 3.928 29.454c8.651 17.929 22.54 29.578 42.172 33.812a40.84 40.84 0 0 0 27.838-3.369c.642-.326 1.265-.7 1.93-.965 1.2-.484 2.572-.933 3.253.594.662 1.484-.558 2.349-1.649 2.975a43.43 43.43 0 0 1-27.564 5.5c-27.448-3.379-50.023-25.28-54.273-52.492-.358-2.3-.432-4.647-.694-7.625Zm118.247-2.173a64.65 64.65 0 0 1-5.87 26.716c-.665 1.517-1.175 4.085-3.488 3.195-2.5-.965-.849-3.088-.213-4.589a65.7 65.7 0 0 0 5.208-19.21c2.049-21.03-5.944-37.226-23.631-48.629-7.828-5.05-16.538-7.874-25.693-9.4a27 27 0 0 1-4.76-.91c-.794-.29-1.3-1.375-1.933-2.1a11.7 11.7 0 0 1 2.6-1.4 7.1 7.1 0 0 1 2.678.123c12.3 1.823 23.8 5.766 33.77 13.4 14.066 10.771 21.22 25.063 21.333 42.811Z"/><path d="M65.019.057a7 7 0 0 1 1.082-.045c1.255.132 2.717.19 2.749 1.891s-1.391 1.907-2.665 2c-8.949.694-17.278 3.594-25.19 7.549-19.549 9.777-31.921 25.279-36.158 46.89-.652 3.32-.5 6.8-.71 10.207a27 27 0 0 1-.239 3.75c-.123.584-.926 1.51-1.307 1.455a2.86 2.86 0 0 1-2.064-1.249 11.1 11.1 0 0 1-.5-3.7 57.25 57.25 0 0 1 4.7-24.728c6.584-14.935 16.697-26.849 31.234-34.591 8.45-4.498 17.306-8.009 26.922-9.177.714-.087 1.428-.168 2.146-.252m11.455 141.31a16 16 0 0 1-2.11-.478c-1.016-.374-1.236-2.22-.248-2.62a23 23 0 0 1 4.627-1.278c18.961-3.411 34.1-13.059 45.832-28.174a51.9 51.9 0 0 0 9.565-19.21 10.2 10.2 0 0 1 1.029-3.046c.394-.61 1.5-1.3 2.033-1.136a2.53 2.53 0 0 1 1.226 2.017 16.3 16.3 0 0 1-.7 4.23 55.1 55.1 0 0 1-9.026 18.313c-11.827 15.993-27.426 26.267-46.9 30.539-1.752.384-3.55.568-5.324.845ZM93.29 64.34c-9.051-.119-13.637-7.806-10.116-15.35.652-1.394 2.017-1.617 3.472-.094 2.849 2.988 6.46 4.437 10.239 5.628a37 37 0 0 0 4.692 1.129c1.262.219 2.853.29 2.849 1.8a4.65 4.65 0 0 1-1.694 3.078 16.5 16.5 0 0 1-9.442 3.809m-1.814-4.159a11 11 0 0 0 1.594-.006c.774-.265 1.539-.558 2.31-.839a9 9 0 0 0-1.73-1.575 29 29 0 0 0-4.36-1.881 11.5 11.5 0 0 0-2.733-.232c.384.942.507 2.246 1.207 2.746a18.6 18.6 0 0 0 3.711 1.791Zm-47.132-4.769c4.063-.374 8.329-.713 10.191-5.837.626-1.723 2.181-1.655 3.395-.236 2.665 3.124 2.214 8.067-1.029 11.223-4.189 4.076-12.1 4.082-16.26-.006-1.191-1.171-2.246-2.485-1.4-4.272.781-1.646 2.233-1.549 3.724-1.126.345.1.707.132 1.378.258Z"/><path d="M42.241 21.303c-.349.82-.432 1.43-.784 1.765a14.7 14.7 0 0 1-2.543 1.972c-8.707 5.191-14.212 12.956-17.949 22.165-.645 1.591-.81 3.743-3.227 3.65-1.465-.058-1.752-1.894-.487-5.1 4.13-10.484 10.562-19.1 20.552-24.734a5.26 5.26 0 0 1 2.449-.929c.675.017 1.327.778 1.989 1.211m-4.702 23.863c-1.42 0-1.859.132-2.123-.026-.7-.42-1.736-.881-1.862-1.488-.113-.545.665-1.61 1.3-1.9a21 21 0 0 1 3.637-.9 25.05 25.05 0 0 0 12.427-7.138c1.523-1.639 2.291-3.959 3.575-5.854.416-.616 1.484-1.3 2.059-1.162a2.44 2.44 0 0 1 1.426 1.9 8.54 8.54 0 0 1-1.094 4.063 28.78 28.78 0 0 1-19.345 12.5Zm64.142-1.362c-8.726.061-17.387-6.9-20.22-14.8-.252-.7.4-1.914.978-2.6.184-.223 1.71.245 2.188.784a29 29 0 0 1 1.907 3.217c3.93 5.821 8.948 9.742 16.448 9.219 1.442-.1 3.314-.313 3.479 1.517.187 2.081-1.826 2.3-3.427 2.569a11 11 0 0 1-1.358.094Zm-40.46 96.423c-5.4-.768-11.63-1.675-17.451-4.243a15.2 15.2 0 0 1-3.146-1.968 1.51 1.51 0 0 1-.307-1.43 2.7 2.7 0 0 1 1.542-1.207 3.6 3.6 0 0 1 2.068.39c5.621 2.617 11.685 3.488 17.7 4.531a5.5 5.5 0 0 1 2.091.413 12.2 12.2 0 0 1 1.939 2.12c-.839.5-1.659 1.036-2.533 1.465-.281.139-.707-.01-1.907-.068Zm56.354-35.853a4.9 4.9 0 0 1-.649 1.53c-3.317 3.5-6.676 6.96-10.039 10.416a1.54 1.54 0 0 1-.92.526c-1.149-.013-2.753.3-3.346-.313-1.165-1.207.177-2.107 1.123-2.985 3.011-2.791 5.954-5.663 8.913-8.513a16 16 0 0 1 2.3-2.21 2.37 2.37 0 0 1 1.9.223c.371.187.491.868.723 1.323Zm24.377-45.975c-.274 2.381-.413 4.163-.729 5.908a1.49 1.49 0 0 1-1.187.862 2.4 2.4 0 0 1-1.672-.949 9.2 9.2 0 0 1-.5-2.607c-.687-4.23-1.365-8.461-2.068-12.688-.087-.526-.513-1.084-.4-1.536.19-.774.523-1.881 1.087-2.1a2.42 2.42 0 0 1 2.227.742 12.9 12.9 0 0 1 1.581 3.963c.687 2.953 1.191 5.947 1.668 8.4ZM86.275 1.329c4.944.239 9.019 2.049 13 4.063a2.33 2.33 0 0 1 .726 2.191c-.255.578-1.346.968-2.12 1.081a5.6 5.6 0 0 1-2.036-.549c-3.579-1.02-7.18-1.965-10.72-3.1-.855-.274-2.081-1.12-2.149-1.8-.158-1.63 1.329-1.794 2.614-1.878a6 6 0 0 1 .691 0ZM24.551 116.102c.862.41 1.459.513 1.768.868 2.21 2.553 4.369 5.153 6.525 7.751.223.268.5.655.452.939a4.1 4.1 0 0 1-.655 1.885 1.51 1.51 0 0 1-1.446.261c-3.5-2.256-6.764-4.8-7.822-9.093-.174-.7.729-1.675 1.175-2.617Zm87.994-98.737c-2.756-2.191-5.166-3.972-7.4-5.954-.729-.645.352-2.217 1.462-2.252 2.065-.068 7.141 3.369 7.5 5.376.123.681-.82 1.549-1.565 2.833ZM55.868 13.2c.768.623 1.752 1.1 2.146 1.885.174.345-.72 1.675-1.359 1.9a40 40 0 0 1-6.693 1.713A2.39 2.39 0 0 1 48 17.417a2.34 2.34 0 0 1 1-2.081c2.13-.849 4.382-1.391 6.87-2.13Z"/></g></svg>