<svg xmlns="http://www.w3.org/2000/svg" width="17.748" height="18.003" viewBox="0 0 17.748 18.003"><path d="M8.874 12.525a.913.913 0 1 1-.913.913.913.913 0 0 1 .913-.913"/><path d="M16.338 5.313 9.988.383a1.83 1.83 0 0 0-2.24 0l-6.34 4.93a3.66 3.66 0 0 0-1.35 3.53l1.26 6.91A2.74 2.74 0 0 0 4.008 18h9.73v-.01a2.73 2.73 0 0 0 2.69-2.25l1.26-6.9a3.5 3.5 0 0 0 .06-.65 3.65 3.65 0 0 0-1.41-2.88M10.7 16.183H7.048v-3.66a1.825 1.825 0 0 1 3.65 0Zm5.2-7.66-1.26 6.9a.92.92 0 0 1-.9.75h-1.21v-3.65a3.65 3.65 0 0 0-7.3 0v3.65H4.018a.905.905 0 0 1-.9-.75l-1.26-6.9a1.85 1.85 0 0 1 .67-1.77l6.34-4.93 6.35 4.93a1.83 1.83 0 0 1 .68 1.77"/></svg>