<svg xmlns="http://www.w3.org/2000/svg" width="18" height="18" viewBox="0 0 18 18"><path d="M5.854 0a2.625 2.625 0 0 0-2.609 2.615v.27H.868a.87.87 0 0 0-.87.874 19.6 19.6 0 0 0 .431 4.183c.771 3.373 2.362 4.126 3.339 4.319a5.44 5.44 0 0 0 4.359 3.074v.921h-3.37a.872.872 0 0 0 0 1.744h8.482a.872.872 0 1 0 0-1.744H9.868v-.92a5.47 5.47 0 0 0 4.359-3.076c2.341-.392 3.128-3.369 3.341-4.318a19.6 19.6 0 0 0 .429-4.183.87.87 0 0 0-.874-.874h-2.37v-.27A2.63 2.63 0 0 0 12.141 0Zm0 1.745h6.288a.85.85 0 0 1 .87.87v7.174a3.79 3.79 0 0 1-4.011 3.866 3.75 3.75 0 0 1-4.017-3.866V2.615a.85.85 0 0 1 .87-.87M1.761 4.629h1.484s-.006 5.3 0 5.432a5.7 5.7 0 0 1-1.12-2.509 16 16 0 0 1-.364-2.923m12.995 0h1.478a15.4 15.4 0 0 1-.359 2.923 5.8 5.8 0 0 1-1.118 2.506zm-5.757.763a1.451 1.451 0 1 0 1.451 1.451 1.45 1.45 0 0 0-1.451-1.451"/></svg>