<svg xmlns="http://www.w3.org/2000/svg" width="18" height="18" viewBox="0 0 18 18"><path d="M17.136 2.88H14.76v-.27A2.625 2.625 0 0 0 12.141 0H5.859a2.62 2.62 0 0 0-2.61 2.61v.27H.873A.88.88 0 0 0 0 3.753a20 20 0 0 0 .432 4.185c.774 3.375 2.358 4.122 3.339 4.32a5.46 5.46 0 0 0 4.365 3.078v.918H4.761a.873.873 0 0 0 0 1.746h8.478a.873.873 0 1 0 0-1.746H9.873v-.918a5.48 5.48 0 0 0 4.356-3.078c2.34-.387 3.132-3.375 3.348-4.32A20 20 0 0 0 18 3.753a.87.87 0 0 0-.864-.873M3.249 10.053a5.74 5.74 0 0 1-1.125-2.5 17 17 0 0 1-.36-2.925h1.485s-.009 5.292 0 5.427M8.991 8.28a1.449 1.449 0 1 1 1.449-1.449A1.45 1.45 0 0 1 8.991 8.28m6.885-.738a5.9 5.9 0 0 1-1.116 2.511V4.626h1.476a15 15 0 0 1-.36 2.916"/></svg>