<svg xmlns="http://www.w3.org/2000/svg" width="18" height="18" viewBox="0 0 18 18"><path d="M17.96 8.21c-.02-.26-.06-.52-.1-.78a9.5 9.5 0 0 0-.4-1.48c0-.01-.01-.03-.01-.04a10 10 0 0 0-.6-1.31c-.13-.22-.27-.44-.42-.67-.14-.2-.29-.4-.44-.59-.02-.02-.03-.04-.05-.06-.15-.18-.3-.35-.46-.51-.14-.15-.28-.29-.43-.43-.22-.19-.46-.39-.7-.57-.17-.13-.34-.24-.51-.35-.08-.05-.16-.1-.25-.15a5 5 0 0 0-.54-.3 6 6 0 0 0-.68-.31l-.06-.03c-.21-.08-.42-.16-.63-.22-.04-.01-.07-.02-.1-.03a6 6 0 0 0-.73-.19A9.3 9.3 0 0 0 9 0a9 9 0 0 0-9 9 2 2 0 0 0 .01.23c.01.26.03.51.05.76a10 10 0 0 0 .29 1.48 9.5 9.5 0 0 0 .52 1.38c.01.02.02.03.02.05.09.18.19.36.28.53a9 9 0 0 0 .94 1.35c.12.14.24.28.37.41a9 9 0 0 0 1.14 1.02q.24.18.48.33a1.6 1.6 0 0 0 .24.15.1.1 0 0 0 .06.03 4 4 0 0 0 .47.27c.2.11.42.21.63.3.27.11.54.21.82.3.22.07.44.13.67.18A9 9 0 0 0 9 18a9.01 9.01 0 0 0 8.15-5.19 8.9 8.9 0 0 0 .77-2.62l.03-.27c.03-.3.05-.61.05-.92a7 7 0 0 0-.04-.79m-12.21 7.2a2 2 0 0 1-.38-.2 4.3 4.3 0 0 1-.63-.42 6 6 0 0 1-.73-.61 2.5 2.5 0 0 1-.28-.29 8 8 0 0 1-.59-.72 3 3 0 0 1-.2-.3 7 7 0 0 1-.39-.7 1 1 0 0 1-.06-.11 1.6 1.6 0 0 1-.14-.33 4.6 4.6 0 0 1-.28-.81 1.3 1.3 0 0 1-.05-.21.4.4 0 0 1-.02-.1.23.23 0 0 1-.03-.11.01.01 0 0 1 .01.01 7.18 7.18 0 0 1 4.16 5.09c-.13-.06-.27-.12-.39-.19M9 16.2a6 6 0 0 1-.96-.07 9 9 0 0 0-6.21-7.61A7.174 7.174 0 0 1 9 1.8a3 3 0 0 1 .41.02A8.987 8.987 0 0 0 15 12.98a7.19 7.19 0 0 1-6 3.22m7.16-6.46a5 5 0 0 1-.1.65.3.3 0 0 1-.03.13 3 3 0 0 1-.1.44c-.04.12-.07.24-.11.35-.01.02-.01.03-.02.05a7.24 7.24 0 0 1-5-6.86 7.1 7.1 0 0 1 .4-2.33c.08.02.16.05.24.07s.16.05.24.08c.21.09.42.19.63.29a4 4 0 0 1 .45.26 4 4 0 0 1 .47.32 3.3 3.3 0 0 1 .43.33q.225.2.42.39a3.5 3.5 0 0 1 .37.4l.01.01a3.4 3.4 0 0 1 .34.43l.01.01c.11.15.21.3.31.46a3 3 0 0 1 .26.46 7 7 0 0 1 .45 1.06 3 3 0 0 1 .12.41c.03.09.05.18.07.26.02.11.04.21.06.31a3 3 0 0 1 .04.27 3 3 0 0 1 .05.41q.03.3.03.6a6 6 0 0 1-.04.74"/><path d="M13.5 6.3a.9.9 0 1 1-.9.9.9.9 0 0 1 .9-.9"/></svg>