<svg xmlns="http://www.w3.org/2000/svg" width="18" height="18" viewBox="0 0 18 18"><path d="M5.4 8.1H2.7A2.7 2.7 0 0 1 0 5.4V2.7A2.7 2.7 0 0 1 2.7 0h2.7a2.7 2.7 0 0 1 2.7 2.7v2.7a2.7 2.7 0 0 1-2.7 2.7M2.7 1.8a.9.9 0 0 0-.9.9v2.7a.9.9 0 0 0 .9.9h2.7a.9.9 0 0 0 .9-.9V2.7a.9.9 0 0 0-.9-.9Zm12.6 6.3h-2.7a2.7 2.7 0 0 1-2.7-2.7V2.7A2.7 2.7 0 0 1 12.6 0h2.7A2.7 2.7 0 0 1 18 2.7v2.7a2.7 2.7 0 0 1-2.7 2.7m-2.7-6.3a.9.9 0 0 0-.9.9v2.7a.9.9 0 0 0 .9.9h2.7a.9.9 0 0 0 .9-.9V2.7a.9.9 0 0 0-.9-.9ZM5.4 18H2.7A2.7 2.7 0 0 1 0 15.3v-2.7a2.7 2.7 0 0 1 2.7-2.7h2.7a2.7 2.7 0 0 1 2.7 2.7v2.7A2.7 2.7 0 0 1 5.4 18m-2.7-6.3a.9.9 0 0 0-.9.9v2.7a.9.9 0 0 0 .9.9h2.7a.9.9 0 0 0 .9-.9v-2.7a.9.9 0 0 0-.9-.9ZM15.3 18h-2.7a2.7 2.7 0 0 1-2.7-2.7v-2.7a2.7 2.7 0 0 1 2.7-2.7h2.7a2.7 2.7 0 0 1 2.7 2.7v2.7a2.7 2.7 0 0 1-2.7 2.7m-2.7-6.3a.9.9 0 0 0-.9.9v2.7a.9.9 0 0 0 .9.9h2.7a.9.9 0 0 0 .9-.9v-2.7a.9.9 0 0 0-.9-.9Z"/><circle cx=".9" cy=".9" r=".9" transform="translate(13.05 3.15)"/></svg>